<svg height="512" viewBox="0 0 500 500" width="512" xmlns="http://www.w3.org/2000/svg"><g id="Layer_4" data-name="Layer 4"><path d="m28.731 95.884s-17.265-.742-10.579 13.076 15.989 10.226 15.989 10.226 13.524-6.449 10.61-20.6-1.309-38.637 12.037-49.9c0 0 16.7-8.325 34.268-1.577 0 0 21.1 1.128 29.322-12.707 0 0 3.778-13.3-7.139-17.126s-20.808 2.424-17.705 12.224l-31.642-.4s-23.6.823-31.344 24.976c0 0-7.959 16.03-2.871 34.433z" fill="#ffda76"/><circle cx="81.532" cy="81.646" fill="#ffda76" r="18.714"/><path d="m194.429 24.239s-14.931-10.837-34.8-8.26c-.806.105-33.9-.148-55.206 39.457l-6.532 42.605-42.6 6.537c-39.605 21.311-39.821 54.479-39.457 55.206 0 0-1.43 5.444 8.259 34.8 6.824 20.67 24.853 38.666 53.536 45.539s52.526-16.9 52.526-16.9c16.358 8.723 35.987 4 35.987 4l5.434-3.29c15.993 15.371 24.806 1.4 24.806 1.4l10.78 5.214-11.581 17.753 12.723 12 18.244-4.8 5.4-12.633 17.972 17.973-5.689 6.78 4.9 8.918 10.007 5.986 8.235-3.509 34.9 34.9-2.726 11.451 11.225 8.792 8.04-2.249 21.265 21.628-3.89 9.2 11.203 10.833 9.222-3.5 88.332 88.33c-4.544 7.088-2 10.723 4.362 17.084s11.632.364 11.632.364c15.033 15.033 20.549 6.541 20.835 6.073.468-.286 8.96-5.8-6.074-20.835 0 0 6-5.271-.363-11.632s-10-8.906-17.085-4.362l-88.331-88.329 3.5-9.223-10.843-11.206-9.2 3.89-21.629-21.265 2.249-8.04-8.792-11.226-11.45 2.726-34.9-34.9 3.508-8.234-5.986-10.008-8.917-4.9-6.781 5.69-17.965-17.967 12.633-5.4 4.795-18.244-12-12.723-17.752 11.575-5.213-10.78s13.967-8.814-1.4-24.806l3.289-5.434s4.726-19.63-4-35.987c0 0 23.776-23.843 16.9-52.526s-24.191-49.275-45.537-53.536zm16.032 154.89-17.836 13.61-.016.021-.02.016-13.609 17.837c-8.969 4.481-18.219-3.466-18.219-3.466-9.258-10.941 7.341-15.661 7.341-15.661-12.92-10.306-2.475-24.937-2.151-25.385.448-.324 15.079-10.769 25.384 2.151 0 0 4.72-16.6 15.662-7.341.003-.001 7.945 9.25 3.464 18.218zm-1.78-57.033-19.268 25.804s-22.367-11.326-38.23 3.394l-.017.019-.02.017c-14.72 15.863-3.394 38.23-3.394 38.23l-25.807 19.267c-45.828 18.876-72.857-15.059-72.857-15.059-31.079-48.891 17.192-70.41 17.192-70.41 23.735-10.433 35.385 12.482 35.385 12.482s-18.226 8.673-6.775 21.577 23.809-3.453 23.809-3.453c11.841-19.284 2.859-31.9 1.557-33.561 1.656 1.3 14.276 10.285 33.561-1.556 0 0 16.357-12.36 3.453-23.81s-21.577 6.776-21.577 6.776-22.915-11.65-12.483-35.385c0 0 21.519-48.272 70.41-17.192.001.004 33.937 27.033 15.061 72.864z" fill="#ffda76"/><path d="m194.429 24.239s-14.931-10.837-34.8-8.26c-.806.105-33.9-.148-55.206 39.457l-6.532 42.605-42.6 6.537c-39.605 21.311-39.821 54.479-39.457 55.206 0 0-1.43 5.444 8.259 34.8 6.824 20.67 24.853 38.666 53.536 45.539s52.526-16.9 52.526-16.9c16.358 8.723 35.987 4 35.987 4l5.434-3.29c15.993 15.371 24.806 1.4 24.806 1.4l10.78 5.214-11.581 17.753 12.723 12 18.244-4.8 5.4-12.633 17.972 17.973-5.689 6.78 4.9 8.918 10.007 5.986 8.235-3.509 34.9 34.9-2.726 11.451 11.225 8.792 8.04-2.249 21.265 21.628-3.89 9.2 11.203 10.833 9.222-3.5 88.332 88.33c-4.544 7.088-2 10.723 4.362 17.084s11.632.364 11.632.364c15.033 15.033 20.549 6.541 20.835 6.073.468-.286 8.96-5.8-6.074-20.835 0 0 6-5.271-.363-11.632s-10-8.906-17.085-4.362l-88.331-88.329 3.5-9.223-10.843-11.206-9.2 3.89-21.629-21.265 2.249-8.04-8.792-11.226-11.45 2.726-34.9-34.9 3.508-8.234-5.986-10.008-8.917-4.9-6.781 5.69-17.965-17.967 12.633-5.4 4.795-18.244-12-12.723-17.752 11.575-5.213-10.78s13.967-8.814-1.4-24.806l3.289-5.434s4.726-19.63-4-35.987c0 0 23.776-23.843 16.9-52.526s-24.191-49.275-45.537-53.536zm16.032 154.89-17.836 13.61-.016.021-.02.016-13.609 17.837c-8.969 4.481-18.219-3.466-18.219-3.466-9.258-10.941 7.341-15.661 7.341-15.661-12.92-10.306-2.475-24.937-2.151-25.385.448-.324 15.079-10.769 25.384 2.151 0 0 4.72-16.6 15.662-7.341.003-.001 7.945 9.25 3.464 18.218zm-1.78-57.033-19.268 25.804s-22.367-11.326-38.23 3.394l-.017.019-.02.017c-14.72 15.863-3.394 38.23-3.394 38.23l-25.807 19.267c-45.828 18.876-72.857-15.059-72.857-15.059-31.079-48.891 17.192-70.41 17.192-70.41 23.735-10.433 35.385 12.482 35.385 12.482s-18.226 8.673-6.775 21.577 23.809-3.453 23.809-3.453c11.841-19.284 2.859-31.9 1.557-33.561 1.656 1.3 14.276 10.285 33.561-1.556 0 0 16.357-12.36 3.453-23.81s-21.577 6.776-21.577 6.776-22.915-11.65-12.483-35.385c0 0 21.519-48.272 70.41-17.192.001.004 33.937 27.033 15.061 72.864z" fill="#ffda76"/><path d="m379.155 365.5 10.068-10.069s9.4 13.361 18.969 3.794c0 0 7.587-5.278-4.289-18.474l5.113-5.113a10.731 10.731 0 0 1 15.175 0l13.2 13.2s-9.732 12.04 3.628 24.411c0 0 7.588 10.556 20.783 2.639l18.16 18.161-9.583 13.838s-7.752-9.4-15.834-1.319c0 0-8.33 5.69 0 14.02 0 0-8.767 8.931-26.532-7.282s-48.858-47.806-48.858-47.806z" fill="#ffda76"/><g fill="#f48a4e"><path d="m278.863 267.523-11.49 11.49 13.769 13.77 19.09-3.89z"/><path d="m318.808 331.903 21.265 21.628 13.308-13.307-21.629-21.265z"/><path d="m373.592 387.05c6.726-1.354 16.04-3.25 22.125-4.49l-25.8-25.8-13.308 13.308z"/><path d="m458.251 445.094-2.636-2.636-5.356 10.306s4.558-1.716 9.635 3.361a31.058 31.058 0 0 1 5.1 6.573 8.928 8.928 0 0 1 -1.534 10.634l-2.518 2.518c15.033 15.033 20.549 6.541 20.835 6.073.468-.286 8.96-5.8-6.074-20.835a8 8 0 0 0 2.521-6.235 40.712 40.712 0 0 0 -1.654-3.96 12.744 12.744 0 0 0 -1.23-1.437c-6.366-6.356-10.001-8.906-17.089-4.362z"/><path d="m247.012 194.6-17.756 11.576-3.811-7.88-1.4-2.9s13.968-8.813-1.4-24.806l1.594-2.632-13.73 6.438c-.051.295-.111.591-.184.888v.01q-.1.414-.233.828c-.009.029-.017.058-.026.087-.082.252-.176.505-.276.757-.019.049-.035.1-.054.146-.122.3-.254.591-.4.886l-6.136 4.672c14.025 12.5-6.966 40.142-6.966 40.142l9.79 6.594c10.984-6.956 24.176 2.863 25.1 3.424s7.8 2.965 8.572 2.562c.269-.14 2.751-.157 5.976-.333l-4.091-4.091 12.633-5.4 4.795-18.245z"/><path d="m160.976 207.324c-16.218 8.984-26.41 1.612-31.362-4.218l-2.377 1.774 3.17 18.465c16.306 8.54 35.73 3.869 35.73 3.869l5.434-3.29 5.486-12.541c-7.522 2.359-14.757-3.007-16.081-4.059z"/><path d="m213.6 85.166c1.71 10.344.933 22.734-4.914 36.93l-19.273 25.804a44.631 44.631 0 0 0 -19.121-4.149c1.752 4.326 4.648 11.486 7.3 18.1 4.444-.293 9.463 1.04 13.739 6.4 0 0 4.72-16.6 15.662-7.341a22.292 22.292 0 0 1 4.763 10.958c4.445-.915 9.491-1.942 13.607-2.776l1.7-2.8s4.726-19.63-4-35.987c0 0 23.776-23.843 16.9-52.526q-.946-3.948-2.152-7.682c-6.011 8.43-16.653 12.869-24.211 15.069z"/><path d="m249.924 260.838 10.763-10.763-11.728-11.728-11.775 10.478z"/><path d="m320.154 330.557s5.878-9.43-11.047-21.443l8.753-7.671 13.14 8.931 2.372 8.289z"/><path d="m345.132 351.07s3.886-3.529 10.575 3.159c0 0 5.521 5.418 3.741 11.158l10.323-10.323-8.915-17.009s-15.32 8.345-15.724 13.015z"/><path d="m479.958 394.044-15.5-15.5a31.062 31.062 0 0 1 -6.766 7.135c-11.68 8.836-28.7 7.378-41.546.354-11.986-6.551-21.763-18.257-26.927-30.607l-10.064 10.074s31.09 31.588 48.854 47.8 26.532 7.282 26.532 7.282c-8.33-8.33 0-14.02 0-14.02 8.082-8.083 15.834 1.319 15.834 1.319z"/><path d="m95.7 69.443a10.277 10.277 0 0 0 -9.968 3.387 12.747 12.747 0 0 0 -1.551 12.87 17.9 17.9 0 0 0 9.652 9.147c.22.093.446.18.675.261.083-.081.174-.149.256-.232a18.7 18.7 0 0 0 .936-25.433z"/><path d="m95.534 29.5-18.813-.24c-.015.383-.036.767-.044 1.149-.1 4.687.278 9.393-.005 14.064a40.5 40.5 0 0 1 14.385 2.636s21.1 1.128 29.321-12.707c0 0 3.778-13.3-7.139-17.125s-20.808 2.423-17.705 12.223z"/><path d="m198.445 25.248q-1.981-.6-4.016-1.009s-14.931-10.837-34.8-8.26a48.017 48.017 0 0 0 -9.747 1.435c7.539 8.034 5.833 15.862 3.676 22.495 9.045-2.229 20.218-1.384 33.664 5.632a29.193 29.193 0 0 1 1.24-3.126c2.029-4.277 5.378-7.783 7.774-11.867a20.316 20.316 0 0 0 2.209-5.3z"/></g><path d="m43.038 182.429c-9.846-22.984-1.285-38.79 8.107-48.226a28.018 28.018 0 0 0 -24.218-5.376c-11.322 15.951-11.337 30.479-11.1 30.957 0 0-.94 3.583 3.873 20.591a28.081 28.081 0 0 0 23.338 2.054z" fill="#fff"/><path d="m175.756 211.719-.319 1.281-3.866 10.921c10.69 10.274 18.167 7.44 21.954 4.431 2.407-5.531 3.164-14.63-10.08-23.6l-4.466 5.853a12.87 12.87 0 0 1 -3.223 1.114z" fill="#fff"/><path d="m32.548 54.074a53.64 53.64 0 0 0 -4.512 23.993 21.334 21.334 0 0 0 15.85.121c1.052-10.613 4.5-21.527 11.676-28.4a21.106 21.106 0 0 0 -12.943-11.644 35.441 35.441 0 0 0 -10.071 15.93z" fill="#fff"/><path d="m419.3 407.23c-8.663-8.662-21.193-7.338-30.176-4.647l43.78 43.78 10.132-15.4z" fill="#fff"/><path d="m71.83 209.962a23.841 23.841 0 0 0 -1.409 28.121q3.483 1.136 7.2 2.035c12.863 3.083 24.744 0 33.946-4.34 3.722-7.32 6.773-16.8-.916-23.228-15.746 3.889-28.827 1.566-38.821-2.588z" fill="#fff"/><path d="m82.186 100.45c12.17 8.587 11.444 17.654 8.6 23.822a32.681 32.681 0 0 1 10.877 11.572s-18.226 8.673-6.775 21.577 23.809-3.453 23.809-3.453c11.841-19.284 2.859-31.9 1.557-33.561l.156.12-17.647-17.648-19.248-2.633z" fill="#f48a4e"/></g><g id="Layer_5" fill="#3a3245" data-name="Layer 5"><path d="m191.466 209.768c-4.575-2.133-7.713 5.35-3.009 7.136 4.643 2.067 7.728-5.248 3.009-7.136z"/><path d="m202.416 196.443c-4.575-2.132-7.713 5.35-3.009 7.136 4.647 2.067 7.728-5.248 3.009-7.136z"/><path d="m214.833 186.4c-4.575-2.132-7.713 5.351-3.009 7.136 4.647 2.064 7.728-5.247 3.009-7.136z"/><path d="m77.629 77.46c-5.265 5.312 2.777 13.354 8.089 8.088 5.265-5.312-2.777-13.354-8.089-8.088z"/><path d="m79.573 244.319a72.038 72.038 0 0 0 32.683-4.564c10.22-3.846 19.8-10.019 30.767-11.4 7.618 3.106 21.641 5.679 28.45-.651 6.48 7.217 19 9.627 24.867 1.413a45.824 45.824 0 0 0 5.763 2.785c-11.733 6.026-10.677 24.762 1.493 30.01 10.726 5.228 24.6-.925 29.241-11.552l11.945 11.945c-5.245 7.651-.371 14.276 5.615 19.414a11.751 11.751 0 0 0 15.063 1.263l32.385 32.386c-5.245 7.651-.37 14.277 5.616 19.415a11.751 11.751 0 0 0 15.062 1.263l17.345 17.354a11.729 11.729 0 0 0 1.26 15.061c5.134 5.984 11.779 10.86 19.415 5.614l84.071 84.071a11.728 11.728 0 0 0 1.26 15.061c5.181 6.028 11.763 10.825 19.412 5.612 6.5 7.323 13.837 13.2 22.857 5.336 7.918-9.1 1.9-16.418-5.432-22.951a11.734 11.734 0 0 0 -1.648-14.483c-4.988-5.734-11.235-10.646-18.836-6l-7.566-7.566 9.051-9.051a3.521 3.521 0 0 0 0-4.95c-3.39-3.965-6.608-6.519-2.626-11.084 1.693-1.691 3.271-2.127 5.273-1.459 2.977.234 7 7.749 10.76 4.086 7.414-6.942 15.168-14.13 6.607-24.108l-14.2-14.2a3.5 3.5 0 0 0 -4.378-.463c-13.49 8.761-29.659-7.431-20.905-20.907a3.5 3.5 0 0 0 -.464-4.377l-14.2-14.2a12.388 12.388 0 0 0 -17.5 0c-1.242 1.714-8.146 6.8-7.659 9.268.691 4.176 7.322 6 6.943 10.657.166 5.178-6.66 8-10.209 4.229-.339-.338-3.56-3.585-3.969-4.021a3.521 3.521 0 0 0 -5.09-.149l-9.085 9.074-5.045-5.045c4.577-7.665-.158-13.716-6-18.833a11.732 11.732 0 0 0 -14.482-1.649l-17.538-17.538c4.578-7.666-.16-13.716-6-18.833a11.73 11.73 0 0 0 -14.481-1.649l-32.582-32.581a11.733 11.733 0 0 0 -1.648-14.482c-4.987-5.736-11.236-10.646-18.835-6l-12.023-12.023c10.478-4.635 16.588-18.118 11.722-28.819-4.971-12.518-24.077-13.865-30.2-1.929a45.671 45.671 0 0 0 -2.816-5.815c8.149-5.927 5.761-18.642-1.629-24.736 6.471-6.61 3.954-20.778.878-28.346 1.2-9.9 6.351-18.675 10.151-27.767a76.733 76.733 0 0 0 6.16-27.783c1.246-58.81-75.987-99.428-121.683-59.744-.917-18.817-29.547-20.609-31.054-1.7-19.537-1.949-44.734-3.048-57.084 15.172-11.931 15.318-10.812 32.258-8.938 50.2-19.031 1.855-16.862 30.741 1.865 31.555-37.313 43.464-2.965 115.319 51.825 121.164zm306.183 120.331 4.784-4.784c13.136 15.516 33.858-5.228 18.348-18.348 3.062-3.14 7.2-8.454 11.738-4.136l12.337 12.337c-9 18.408 11.076 38.476 29.476 29.476l12.337 12.338c4.37 4.582-1.122 8.772-4.252 11.853-11.022-10.8-28.362 2.395-20.067 15.411-24.445-7.736-46.041-36.989-64.701-54.147zm-220.473-140.832c-10.8 2.544-27.985-.85-31.092-13.2-1.946-9.777 7.382-15.222 15.429-17.349a3.4 3.4 0 0 0 2.008-4.935c-5.136-9.161-6.388-21.261-.922-30.285 3.334-5.775 12.271-3.064 12.469 3.291a6.475 6.475 0 0 1 -1.352 4.1c-5.567 7.467-4.459 17.426 1.048 24.428-16.467 7.818-8.875 27.1 8.394 25.644-1.565 3.352-3.405 7.153-5.982 8.306zm29.151-53.827c3.3-13.023 15.306-12.26 14.054 1.814-3.326 7.17-11.651 10.507-16.4 16.5-7.532 4.537-11.025 14.624-18.627 19.338-14.172 3.443-17.725-9.592-3.469-13.183a3.612 3.612 0 0 0 .849-6.5c-15.525-13.026 4.019-32.755 17.13-17.122a3.592 3.592 0 0 0 6.463-.847zm31.638 77.574c-2.942 6.028-10.03 10.069-16.77 8.554-10.077-1.61-11.135-17.711-.628-18.79 1.24 1.547 2.383 3.192 3.751 4.789 1.484 1.73 4.63.347 4.522-1.872-.476-6.975-6.164-11.324-11.92-14.636 2.391-2.035 4.846-4.174 7.086-6.331 9.226 6.29 20.099 16.203 13.959 28.286zm18.877.932c2.661-1.05 5.32-2.1 7.962-3.2l4.318 4.319-7.62 7.62-7.55-7.55c.955-.37 1.907-.802 2.89-1.186zm13.733 29.659c-2.778.327-5.854-4.216-7.688-5.734a4.739 4.739 0 0 1 0-6.672l12.241-12.241c5.383-1.23 11.294 7.265 10.266 11.781l-11.483 11.484a4.692 4.692 0 0 1 -3.336 1.382zm51.61 24.523-7.62 7.621-27.426-27.427c3.78-1.29 7.747-2.231 11.347-3.893zm1.454 28.54c-2.779.328-5.854-4.215-7.688-5.734a4.74 4.74 0 0 1 0-6.672l12.207-12.208c4.947-1.178 13.266 5.795 10.8 11.249l-11.984 11.983a4.683 4.683 0 0 1 -3.335 1.382zm26.1-.99 10.47 10.47-7.62 7.621-13.325-13.32c3.611-1.47 6.947-3.18 10.471-4.771zm11.924 39.011c-2.779.326-5.854-4.215-7.689-5.734a4.726 4.726 0 0 1 0-6.673l10.7-10.7c6-3.061 13.462 4.255 11.822 10.227l-11.503 11.498a4.69 4.69 0 0 1 -3.334 1.382zm27.889.8 75.4 75.4-7.62 7.621-78.809-78.803c3.601-1.584 7.341-2.845 11.025-4.216zm101.534 101.541c3.407 3.172.842 9.365-3.81 9.2-3.219.376-6.889-5.042-9.021-6.789l7.62-7.621zm-11.879-18.981c1.846 1.92 3.892 4.806 3.208 7.334l-12.673 12.666a4.725 4.725 0 0 1 -6.674 0c-2.715-2.8-8.432-6.83-4.351-11.023l11.435-11.436c3.775-1.927 6.57-.692 9.055 2.459zm-223.055-251.212c6.036-1.348 11.228 3.1 11.99 9.052 1.772 12.642-13.277 21.194-23.908 15.8-5.463-2.808-9.614-7.747-13.157-12.614q3.99-3 8.122-5.82c2.934 4.554 7.262 8.853 12.932 9.145 2.209.108 3.609-3.033 1.873-4.521-1.6-1.37-3.241-2.517-4.787-3.761.526-3.902 2.555-6.303 6.935-7.281zm-16.845-16.422c.654 4.628-3.358 6.847-6.63 9.133a108.144 108.144 0 0 0 -14.28 11.845 113.956 113.956 0 0 0 -12.363 14.729c-2.065 2.89-3.906 6.448-7.809 6.663-3.331.1-11.159-2.939-10.318-7.092 5.178-10.2 12.954-18.8 19.847-27.665 7.881-6.11 15.746-12.357 24.691-16.909 3.665-.228 6.41 6.271 6.862 9.296zm-12.891-46.481c5.2 5.182 5.988 18.229-2.685 20.256-6.759-9.1-17.931-4.735-21.947 4.185-2.672-1.839-13.734-7.412-9.479-12.562 4.388-3.05 10.448 5.569 12.808-.748 1.994-10.141 11.842-20.911 21.303-11.131zm-15.344-8.879c-5.332 2.971-8.942 8.473-11.132 14.391-30.563-14.08-57.753 13.51-44.062 44.01-5.968 2.2-11.507 5.847-14.48 11.235-12.581 8.15-26.867 14.091-42.13 12.591-28.7-2.2-53.4-33.1-42.985-61.375 6.465-20.42 37.626-36 53.3-16.78-11.844 5.267-13.091 22.2-1.158 29.644 20.407 10.949 38.131-20.573 29.586-37.395 15.534 7.282 44.316-5.813 38.983-25.563-4.744-15.238-25.46-15.987-31.412-2.67-17.63-13.768-6-42.058 11.215-50.74 27.451-15.066 59.649 6.42 65.974 34.61 3.851 17.172-2.428 33.75-11.699 48.042zm-64.418-23.756a3.353 3.353 0 0 0 4.109-2.333c4.4-18.64 29.456-4.072 16.217 9.586-18.366 19.933-46.537-.474-49.633-23.061-.735-6.863.75-17.135 9.859-12.875 6.541 4.11.427 20.538 19.448 28.683zm-42.117-13.376c-14.844 14.082-36.024-7.096-21.944-21.94 14.85-14.083 36.027 7.099 21.944 21.94zm121.243-52.039c24.737 11.629 36.69 68.274 5.857 78.851a4.288 4.288 0 0 1 -5.054-5.583 61.011 61.011 0 0 0 3.263-30.586 57.833 57.833 0 0 0 -14.346-29.492c-4.583-7.208 1.706-17.049 10.28-13.19zm-48.687-21.758c29.272-1.994 26.959 18.151 10.112 18.062-18.51-4.749-40.047 3.3-50.155 19.905-3.152 5.029-11 6.455-13.664.353 3.569-23.027 32.137-37.305 53.707-38.32zm-84.9 17.329c3.662-5.236 20.287.071 18.869-7.8-3.607-8.934 11.353-11.065 15.551-4.578 4.394 6.789-2.1 14.562-8.277 17.327-6.37 2.849-15.4 1.758-22.628 1.208-2.359-.528-4.752-4.052-3.515-6.157zm25.21 12.534a62.847 62.847 0 0 0 -6.83 18.249c-.352-.407-.7-.817-1.087-1.2-22.618-21.21-53.5 12.6-30.348 33.186a64.409 64.409 0 0 0 -18.677 6.877c3.861-16.5-5.9-36.731 6.81-50.712 13.701-12.84 33.911-1.719 50.127-6.4zm-77.402 50.96c9.514 1.706 2.866-21.949 3.813-27.468.121-8.779 3.279-19.306 9.079-26.413 2.418-1.114 4.867-1.995 6.949.63 2.821 3.817-.772 7.442-2.49 10.856-6.368 13.077-2.814 27.489-3.225 41.359-.222 7.486-5.932 19.365-15.4 17.326-10.175-2.19-7.959-20.055 1.274-16.29zm-5.989 73.164c-3.268-4.648-2.591-10.361-2.48-15.716 5.105-41.824 61.448-72.037 93.809-38.756 7.235 8.714 11 20.823 4.554 31.073-3.742 5.953-11.378 13.085-18.488 8.022-8.068-5.746-5.443-16.658 4-18.411a3.35 3.35 0 0 0 2.332-4.109c-3.072-8.094-10.986-13.981-19.324-15.667-23.162-4.734-44.667 13.127-50.769 34.674-2.687 6.346-1.494 13.716-4.538 19.764-2.433 4.575-6.721 2.67-9.096-.873zm14.517 41.006c-2.717-5.343-4.07-14.925 5.03-13.471 8.548 1.734 14.934 8.856 23.141 11.343 13.977 8.148 31.484 8.923 46.307 3.982a3.115 3.115 0 0 0 1.414.866c1.211.362.7 5.9.5 6.8a15.583 15.583 0 0 1 -3.813 6.989 30.685 30.685 0 0 1 -8.7 6.351c-23.69 5.725-48.271-4.754-63.879-22.859z"/></g></svg>