<svg height="512" viewBox="0 0 500 500" width="512" xmlns="http://www.w3.org/2000/svg"><g id="Layer_4" data-name="Layer 4"><path d="m412.518 78.647s-28.3-4.793-27.858-33.1c0 0-1.152-32.011 33.9-33.726 0 0 44.754-6.166 49.321 55.4 0 0-.438 28.306-21.68 65.306 0 0-19.477 54.714-23.887 92.694a52.432 52.432 0 0 1 -20.746-40.789s4.287-37.217 23.384-66l15.434-46.8z" fill="#ffc897"/><path d="m388.9 136.771s6.305.591 8.436-19c0 0 1.739-14.374 15.967-24.473l-6.73-17.627h-314.529l-6.73 17.629c14.227 10.1 15.967 24.473 15.967 24.473 2.131 19.593 8.436 19 8.436 19 7.409 22.982-5.031 50-5.031 50s-33.234 66.914-12.642 139.067 89.807 82.792 89.807 82.792l12.8 68.265c30.926 13.265 70.066 12.46 113.6 4.127 40.935-7.742 8.514-72.392 8.514-72.392s69.214-10.64 89.807-82.792-12.642-139.071-12.642-139.071-12.439-27.016-5.03-49.998z" fill="#ffc897"/><path d="m388.9 136.771s6.305.591 8.436-19c0 0 1.739-14.374 15.967-24.473l-6.73-17.627h-61.894c7.123 16.741-7.5 27.957-7.5 27.957-5.258 22.676 8.639 47.93-1.238 69.008-1.636 3.493-3.9 6.768-4.648 10.552-1.391 7.058 2.745 13.873 6.348 20.1a174.665 174.665 0 0 1 9.712 19.493c23.236 54.991-1.217 118.989-55.783 143.207-37.122 16.477-93.424 23.393-178.2 1.534 28.244 34.92 68.479 41.112 68.479 41.112l.451 2.408 51.01 10.858a129.9 129.9 0 0 0 47.834-5.692c-1.6 1.233-3.191 2.477-4.709 3.817a6.235 6.235 0 0 0 -1.751 2.471c-1.633 4.411 2.858 7.012 6.061 9.5 7.93 6.17 10.23 18.485 5.063 27.1 0 0-55.276 10.894-95.994-8 0 0-1.636 36.009 51.049 36.009a306.879 306.879 0 0 0 53.475-4.3c-.033.215-.056.43-.1.643q6.924-1.077 14.009-2.432a26.917 26.917 0 0 0 11.2-4.627l.024-.01h-.007c22.789-16.9-2.7-67.751-2.7-67.751s69.214-10.64 89.807-82.792-12.642-139.071-12.642-139.071-12.438-27.012-5.029-49.994z" fill="#f78663"/><path d="m86.1 78.773s28.3-4.8 27.858-33.16c0 0 1.152-32.071-33.9-33.79 0 0-44.755-6.178-49.321 55.5 0 0 .438 28.358 21.68 65.428 0 0 19.477 54.817 23.887 92.868a52.55 52.55 0 0 0 20.746-40.866s-4.29-37.283-23.387-66.116l-15.434-46.885z" fill="#ffc897"/><path d="m467.848 68.079a130.775 130.775 0 0 1 -6.22 15.277c-3.071 6.414-6.611 12.728-11.648 17.748a38.862 38.862 0 0 1 -22.863 10.777l-2.162 6.555c-19.1 28.779-23.384 66-23.384 66a52.432 52.432 0 0 0 20.746 40.789c4.41-37.98 23.887-92.694 23.887-92.694 19.096-33.272 21.379-59.497 21.644-64.452z" fill="#f78663"/><path d="m79.847 129.175a78.174 78.174 0 0 1 -2.164 14.125c-1.308 5.254-3.23 10.491-6.724 14.626a27 27 0 0 1 -8.4 6.5c5.459 18.539 11.518 42 13.743 61.2a52.55 52.55 0 0 0 20.746-40.866s-3.334-28.971-17.201-55.585z" fill="#f78663"/><path d="m196.429 292.022s18.434.283 28.672-37l13.8 4.539-4.755 23.353 6.7 3.837-4.145 9.45s-14.656-2.601-18.061 8.099c0 0-29.02-2.639-38.423 24.136 0 0-12.353 41.683 34.516 53.033l-22.519 14.631s79.44 19.724 111.216-4.424l6.809-12.476-1.945-38.566-12.321-9.962-13.494 1.188s7.009-9.457-6.61-13.159a13.379 13.379 0 0 0 -10.656 5.377s-1.665-13.618-12.365-19.779c0 0-3.891-12.092 4.864-17.556l10.531-18.054s1.125-22.532-20.753-20.373c0 0-1.39-20.863 23.546-13.73 0 0-1.76-38.37-36.886-24.7 0 0-27.1 1.9-28.681 38.427 0 0 3.851 17.074 0 28.1z" fill="#ff808f"/><path d="m309.078 356.183a108.2 108.2 0 0 1 -17.51 9.8c-19.885 8.826-45.282 14.9-77.6 15.288.257.065.506.134.766.2l-22.52 14.629s79.44 19.724 111.216-4.424l6.809-12.476z" fill="#dd5061"/><path d="m90.475 233.266c87.439-10.7 158.135-74.5 177.739-157.6h-175.952l-6.948 17.914c14.686 10.263 16.486 24.869 16.486 24.869 2.2 19.909 8.708 19.309 8.708 19.309 7.648 23.352-5.194 50.8-5.194 50.8s-8.914 17.676-14.839 44.708z" fill="#fffffa"/><path d="m90.591 97.744h316.449l-9.7 20.025s1.8 17.8-9.8 24.364c0 0-60.071 17.932-138.723 17.932 0 0-101.643 2.481-139.1-21.6 0 0-7.587-8.8-8.436-20.694 0-.002-1.963-14.513-10.69-20.027z" fill="#ff808f"/><path d="m261.65 97.743h-171.059c4.968 3.14 7.742 9.191 9.212 13.825a30.107 30.107 0 0 1 1.994 6.881 66.568 66.568 0 0 0 1.356 8.116 41.824 41.824 0 0 0 5.548 10.587 3.218 3.218 0 0 0 1.8.606c.158.484.3.972.436 1.459 26.737 16.21 83.1 19.954 114.866 20.732a204.838 204.838 0 0 0 35.847-62.206z" fill="#ffabb9"/><path d="m387.541 142.131a45.934 45.934 0 0 1 1.359-5.36s6.305.591 8.436-19a37.056 37.056 0 0 1 8.615-17.779l1.089-2.247h-68.207c-.631 1.987-1.209 3.955-1.656 5.883-3.664 15.8 1.967 32.853 2.38 48.873 29.654-4.9 47.981-10.366 47.981-10.366z" fill="#dd5061"/><path d="m61.631 82.088-3.4-10.336 9.223 2.323a85.442 85.442 0 0 0 13.528-46.275 86.281 86.281 0 0 0 -1.5-16.036c-5.211-.464-44.482-2.014-48.748 55.562 0 0 .222 13.79 7.547 34.7a86.254 86.254 0 0 0 23.35-19.938z" fill="#fffffa"/><path d="m222.593 302.137s26.029 11.012 31.452 31.1c0 0 13.162 1.085 9.292-15.55l-10.489-13.387-1.621-12.28-11.017-3.815-3.5 7.989s-10.646-.564-14.117 5.943z" fill="#dd5061"/></g><g id="Layer_5" fill="#3a3245" data-name="Layer 5"><path d="m119.121 53.739c3.879-46.439-55.721-60.128-80.399-24.691-11.416 15.9-12.747 36.716-8.955 55.391 5 22 17.787 41.064 24.374 62.574 32.7 98.056 5.355 222.952 119.1 274.564a22.392 22.392 0 0 0 -5.282 21.217c-7.3 4.375-14.669 11.824-13.539 20.787.775 15.682 44.709 22.231 57.7 24.577 38.272 5.491 80.059 3.4 116.52-10.349 22.34-5.888 21.416-23.888 3-34.879a21.7 21.7 0 0 0 -4.587-20.29c106.867-51.115 89.226-165.884 114.39-261.971 5.651-20.963 15.453-40.353 24-60.185 14.913-33.228 5.751-85.275-36.194-91-15.649-2.093-32.801 2.979-41.549 16.916-9 13.4-10.586 33.94 2.194 45.744h-279.823c5.136-4.539 8.389-11.944 9.05-18.405zm-34.921 147.691c-4.095 7.264-6.864-1.13-7.938-5.254-7.963-19.8-11.484-40.729-19.375-60.657-6.956-18.134-17.546-35.213-21.073-54.477-8.136-34.348 15.138-74.942 54.212-63.383 32.336 9.976 21.953 54.449-10.175 53.239-17.6-1.447-18.83-26.62-3.216-31.9 5.114-2.042 16.358-.507 14.763 7.3-1.1 5.4-6.234 6.436-10.419 3.6-3.474-2.358-6.7 3.258-3.28 5.61 21.018 11.928 30.734-22.962 4-24.156-24.278 1.35-29.93 31.523-24.239 50.787 9.326 32.627 44.699 86.281 26.74 119.291zm14.753-81.916c1.842 7.983.024 18.61 7.729 23.833 4.123 13.071.423 27.023-6.444 38.51-6.529-36.135-24.855-68.692-36.444-103.084 3.521 3.465 9.144 4.119 11.929 8.226.943 18.654 18.64 10.063 23.228 32.515zm88.247 227.844c16.954-.1 19.173-24.638 2.736-27.891 17.825-21.454 43.228-7.983 45.193 17.4 1.455 34.371-47.446 49.9-53.14 9.473a13.942 13.942 0 0 0 5.211 1.018zm-5.347-9.038a34.157 34.157 0 0 1 3.627-12.22c6.432-1.811 11.8 6.156 7.786 11.45a7.429 7.429 0 0 1 -11.415.77zm28.107-100.982c4.1-28.285 52.283-41.153 56.412-6.76-55.425-10.169-39.587 39.572-62.918 56.168 9.794-15.746 4.192-32.793 6.504-49.408zm29.384 29.722c1.545-8.346 6.233-15.582 15.52-15.152 7.67 1.8 10.108 7.3 10.7 13.943-7.169-1.664-10.907 11.47-10.205 19.643a129.326 129.326 0 0 1 -18.651-4.148c2.03-4.292 1.671-9.525 2.634-14.286zm2.215 24.962a76.909 76.909 0 0 0 7.677 4.541c-2.325 8.755 5.658 13.617 10.077 19.687 1.962 2.918 2.644 14.814-3.907 11.66-1.143-1.289-1.188-2.965-2.264-3.975a41.377 41.377 0 0 0 -28.042-22.258c6.406-2.646 13.439-1.549 16.457-9.655zm36.57 47.348a2.312 2.312 0 0 0 .611-.94c7.294-4.554 16.823-6.632 21.006 2.554-9.247 6.72-14.6 17.317-24.315 23.384a9.389 9.389 0 0 1 -2.231.025c-7.161-2.556-9.282-8.342-7.254-14.142 3.924-3.782 8.232-7.128 12.181-10.881zm-10.685-11.712c1.211-5.628 7.565-8.637 11.283-3.275 4.494 3.369-.354 5.613-3.165 7.715-5.733 5.129-10.371 3.595-8.12-4.44zm38.666 27.7c-.363 10.333 2.5 24.466-7.813 30.772-3.718-.964-6.769-9.969-7.771-12.291-5.749-10.466 2.136-16 8.679-23.063.814-.769 6.339-5.259 6.251-6.472l.045-.023c.828 1.526.559 9.727.607 11.077zm-29.01 25.578c4.878 3.167 12.518 7.425 11.857 14.153-2.958.383-5.9.719-8.864 1.014a14.449 14.449 0 0 1 -1.617-.843 39.445 39.445 0 0 0 -17.068-14.821 20.477 20.477 0 0 0 -7.148-1.217c-6.778-1.57-9-7.142-4.2-12.383a175.17 175.17 0 0 1 27.04 14.097zm-35.29-44.417a38.915 38.915 0 0 0 -12.28-26.425 34.514 34.514 0 0 1 20.932 29.926c1.227 20.62-16.768 37.974-37.316 36.057 17.235-4.372 29.904-21.724 28.664-39.558zm-34.068 54.638c4.1-2.558 6.263-3.076 10.949-.894 17.128 8.312 21.867-1.875 35.847-4.556 5.288-.28 13.05 7.257 16.5 11.174a277.446 277.446 0 0 1 -67.949-3.176 46.509 46.509 0 0 0 4.653-2.548zm13.884 64.9c-4.376-1.048-9.951-1.906-13.205-5.269-5.718-5.784-2.739-15.218 5.572-15.528a178.374 178.374 0 0 0 96.868-5.808c4.672.834 8.395 4.132 8.608 9.416a9.67 9.67 0 0 1 -3.689 8.067c-11.541 4.792-24.5 7.306-36.357 9.022-18.713 2.398-38.834 3.892-57.797.102zm99.106 17.577c-25.629 8.373-52.506 11.06-79.487 10.316a12.231 12.231 0 0 1 -5.973-2.908c-6.271-5.143-2.287-15.169 5-16.7 23.623 1.06 47.77-1.589 70.021-9.007 9.092-1.517 20.718 12.189 10.439 18.301zm78.34-137.63c-7.434 14.813-19.893 26.186-33.9 34.716 1.878-11.065 4.8-23.154 15.241-29.255 3.476-2.152 8.716-2.856 10.784-6.8 1.432-2.727 1.024-6.506-1.7-8.252-9.28-4.526-18.409 11.2-21.884 17.807-.008 0 0 0 0 0 .532-19.431 9.294-37.45 19.693-53.53 3.79-5.826 7.48-11.921 8.338-18.957.639-5.24-.046-14.162-6.211-16.037-5.476-1.664-8.695 4.134-10.314 8.286a287.061 287.061 0 0 0 -16.6 67.975c-2.008-13.077-4.079-28.941-13.778-38.8a3.177 3.177 0 0 0 -4.457 0c-10.6 12.366 14.954 25.731 13.561 55.482-2.634-6.35-6.484-12.8-12.765-14.9-2.981-1-5.644.561-5.837 3.807-.227 3.819 2.845 6.87 5.472 9.185 7.935 7.393 13.23 17.946 12.544 28.788-14.123 8.67-30.735 12.393-46.752 16 1.666-7.379 7.7-56.1-4.467-53.886a18.131 18.131 0 0 0 -18.749-9.788c.153-2.678-1.433-5.009-3.262-7.028 6.629-7.767 13.357-15.448 19.994-23.209q10.777-12.503 21.477-25.083a25.436 25.436 0 0 1 6.794-5.609c4.045-2.3 10.29-6.184 13.162-9.689 3.15-3.845 7.887-15.385 10.638-22.495a2.478 2.478 0 0 0 -3.423-3.109c-15.919 7.8-22.3 12.141-27 28.342a27.348 27.348 0 0 1 -6.571 10.935q-19.9 22.845-39.565 45.886c-3.65-2.656-9.644-1.509-12.58 1.913l-.036-.011c-1.6-11.478-16.85-13-10.024-26.452 3.912-.193 15.585 2.62 14.752-3.947-1.742-9.67 2.174-19.6-.822-29.165-2.487-8.274-10.045-12.881-18.066-13.659-4.576-5.494 3.022-10.459 8.39-9.773a25.592 25.592 0 0 1 8.58 2.333 3.324 3.324 0 0 0 3.964-3.528c-.088-44.737-59.641-37.769-69.3-1.85-5.207 18.132 5.157 45.758-13.253 56.816-3.388 1.235-3 6.375.874 6.455 18.953.709 27.313-15.658 31.654-31.707a7.083 7.083 0 0 1 9.715-.612c-1.985 5.659.3 12.814-4.467 17.235-1.97 1.632-.734 4.811 1.44 5.455 1.941.575 3.889 1.145 5.842 1.7-2.129 9.493-13.388 3.785-18.612 12.726-46.27-1.283-59.039 63.028-15.933 79.577a3.722 3.722 0 0 1 .046 1.069c-9 1.91-17.807 5.922-27.132 5.4a178.343 178.343 0 0 1 -37.3-16.3c-1.958-10.362 3.011-20.832 10.474-28.06 2.575-2.333 5.716-5.2 5.287-9.087a4.036 4.036 0 0 0 -5.351-3.492c-5.456 1.494-8.926 7.034-11.313 12.415-.522-25.392 21.653-37.719 12.083-48.622-8.86-6.235-16.351 26.911-16.563 32.643-1.3-8.889-11.794-76.947-26.127-65.389-5.948 4.352-4.514 14.575-2.229 20.416 3.141 8.031 8.953 14.842 12.915 22.479 5.215 10.9 10.091 22.1 10.392 34.306-3.214-5.642-11.669-19.29-19.634-14.441a6.021 6.021 0 0 0 -1.421 7.446c1.717 3.465 5.813 4.116 8.9 5.812 10.78 5.589 13.043 17.932 14.941 28.78-34.312-22.355-40.17-56.672-41.2-94.7-.9-34.556 23.659-84.086 27.407-96.676 74.427 24.275 155.759 25.741 232.268 10.029.926 25.444 29.028 39.066 50.311 26.453a156.368 156.368 0 0 1 .665 125.233zm-18.2-177.878a462.806 462.806 0 0 1 -261.872-.026 30.535 30.535 0 0 0 -.844-10.261c85.364 23.908 178.263 20.5 263.846-.57a32.163 32.163 0 0 0 -1.127 10.859zm20.713 15.216c-.653 2.7-1.317 5.523-1.92 8.415-6.843-11.477-10.5-25.406-6.38-38.45 11.644-9.251.387-30.655 19.643-41.684 6.386-1.056 11.308-7.214 11.31-14.651 2.758-4.149 8.331-4.689 11.843-8.13-10.447 31.775-27.329 61.538-34.493 94.502zm-.52-151.289c32.982-20.435 66.407 9.791 64.4 44.931.327 20.14-9.039 38.23-17.3 56.017a316.811 316.811 0 0 0 -16.27 49.108c-2.344 7.82-5.094 15.54-7.875 23.2-1.243 3.437-3.565 13.253-7.846 6.784-14.174-24.693 2.576-58.812 11.585-83.193 4.1-9.965 8.976-19.719 12.67-29.842 20.332-59.259-38.146-71.846-38.47-42.435 1.362 10.064 12.082 14.517 20.3 8.871 3.423-2.349.2-7.971-3.279-5.61-3.748 2.544-7.674 2.393-9.844-1.946-3.933-9.948 11.858-12.162 17.424-7.362 11.866 7.269 9.967 27.6-4.967 30.147-26.46 3.977-43.849-32.915-20.525-48.668zm-107.816 62.018c.646-2.578 2.8-3.677 4.564-5.239h100.15c.551 9.192-8.285 15.007-16.568 16.277h-76.674c-5.435-1.28-13.044-4.175-11.472-11.038zm-158.149-5.239h120.632c6.383 4.156 8.071 12.444.2 16.278h-102.316c-9.095.306-20.322-6.031-18.516-16.278zm-20.566 22.968c38.7.493 77.108 6.064 115.826 5.841 57.508 1.642 115.323-5.532 172.761-5.841-8.729 8.275-8.967 21.583-11.125 32.938-1.966 3.263-6.223 2.838-9.6 3.341-5.794.009-11.316-1.371-14.846-6.886-3.61-5.64-1.711-14.608 5.342-16.557 3.7-1.489 9.446 2.358 3.376 4.158-2.286.843-4.218 2.292-4.708 4.8-.94 12.323 20.247 7.959 15.858-8.151-1.875-5.851-7.972-9.49-13.865-9.9-20.1-1.285-36.691 24.353-26.178 41.831-13.413 2.494-40.645 4.644-38.464-15.735a11.17 11.17 0 0 1 7.294-7.909c3.61-1.031 10.412 2.9 4.528 4.351-6.348.483-8.6 7.77-3.155 11.353 5.281 3.2 11.612-1.432 13.5-6.379 2.211-5.779-.246-12-5.113-15.577-20.875-14.522-52.249 18.2-36.165 38.028-8.933.545-18.418 1.089-27.142-1.164-12.921-2.812-19.072-20.667-3.913-25.128 4.438-1.111 10.274 4.259 2.761 4.884-6.187.951-8.071 9.055-1.781 11.65 5.822 2.4 11.9-2.371 13.481-7.9 1.747-6.125-1.571-12.467-6.857-15.676-19.931-11.662-48.868 14.352-38.1 35.122-10.11-.153-20.929-.486-30.144-4.776-11.532-4.776-14.409-22.748.275-24.979 3.881-.174 9.5 4.794 3.1 5.216-6.594-.618-9.989 6.663-4.688 10.9 5.195 3.931 12.352-.131 14.824-5.236 2.81-5.8.536-12.511-4.173-16.579-18.082-14.965-51.217 7.565-42.573 29.763-8.6-1.95-17.318-4.228-25.148-8.414-11.266-5.305-14.917-23.26.148-25.926 2.5-.236 5.62.563 6.856 2.946.885 2.29-.648 2.76-2.385 2.787-2.777.043-4.957-.919-7.156 1.566a6.281 6.281 0 0 0 .149 8.128c4.158 4.963 12.064 2.217 15.41-2.136 4.121-5.362 2.93-12.9-1.42-17.767-12.929-13.728-38.114-5.646-45.188 10.408-.689-7.459-3-15.831-8.57-21.39z"/><path d="m198.809 361.381c4.844 0 4.852-7.529 0-7.529s-4.853 7.529 0 7.529z"/><path d="m215.728 346.718c-3.326-3.388-8.539 1.855-5.165 5.166 3.326 3.387 8.537-1.856 5.165-5.166z"/><path d="m218.153 337.755c4.556 0 4.564-7.08 0-7.08s-4.563 7.08 0 7.08z"/><path d="m210.8 322.177c4.47 0 4.477-6.946 0-6.946s-4.475 6.946 0 6.946z"/><path d="m339.625 196c-1.687-3.346-6.281-2.124-6.7 1.364-.647 3.282 3.916 5.475 6.113 2.955l-.032.041a3.6 3.6 0 0 0 .619-4.36z"/><path d="m348.72 215.981c-1.687-3.346-6.281-2.123-6.7 1.364-.647 3.282 3.917 5.475 6.112 2.955l-.031.041a3.6 3.6 0 0 0 .619-4.36z"/><path d="m370.774 227.593c-1.687-3.346-6.281-2.124-6.7 1.364-.647 3.282 3.917 5.475 6.113 2.955l-.032.041a3.6 3.6 0 0 0 .619-4.36z"/><path d="m395.711 227.192c-1.687-3.346-6.28-2.124-6.7 1.364-.646 3.282 3.917 5.474 6.113 2.955l-.031.041a3.6 3.6 0 0 0 .618-4.36z"/></g></svg>