<svg height="512" viewBox="0 0 500 500" width="512" xmlns="http://www.w3.org/2000/svg"><g id="Layer_4" data-name="Layer 4"><path d="m220.6 449.483s-12.119-5.529-21.4 5.42c0 0 1.812-12.291-7.121-13.665v-383.432s8.933-1.447 7.559-13.779c0 0 11.389 15.5 28.542 2.785 0 0 14.748-34.014-21.671-34.014h-121.261c-36.419 0-21.671 34.014-21.671 34.014 17.153 12.712 28.542-2.785 28.542-2.785-1.374 12.332 7.559 13.779 7.559 13.779v383.432c-8.933 1.374-8.589 14.476-8.589 14.476-9.277-10.949-19.928-6.231-19.928-6.231s-9.494 3.429-9.963 21.3 20.958 17.5 20.958 17.5h127.451s21.427.372 20.958-17.5-9.965-21.3-9.965-21.3z" fill="#c3e0d8"/><path d="m307.761 194.058v248.264s-8.333.034-6.792 13.392c0 0-13.29-12.644-22.92-4.94 0 0-20.224 15.954 0 33.208 0 0 5.97 4.3 17.141 4.3h121.148s24.653-3.23 23.3-24.416-26-13.29-26-13.29l-7.319 8.089s.963-12.711-6.741-16.949v-173.53s-37.268 2.149-48.578-18.186-18.15-48.984-43.239-55.942z" fill="#c3e0d8"/><path d="m145.617 125.608a57.607 57.607 0 0 0 -45.939-56.408v205.559c23.417-6.959 22.969-78.174 22.969-78.174a62.11 62.11 0 0 1 11.786-36.885 57.285 57.285 0 0 0 11.184-34.092z" fill="#fff"/><path d="m92.119 44.027a19.622 19.622 0 0 0 .008 4.774c4.49-7.387 6.629-18.712 1.733-36h-8.612c-36.419 0-21.671 34.014-21.671 34.014 17.153 12.709 28.542-2.788 28.542-2.788z" fill="#fff"/><path d="m228.186 46.812s14.748-34.012-21.671-34.012h-70.615c.044 15.357-18.34 17.349-18.34 17.349h28.321c3.68 44.691-32.263 38.22-46.2 44.781v13.3c4.894-6.978 20.719-4.848 21.342 8.247 6.376-7.617 24.6-5.487 24.863 12.494 5.45-12.821 18.78-19.211 22.569 4.219 0 0 2.236 224.362 2.1 237.286-.089 8.229-.26 16.807-4.049 24.112s-12.389 12.825-20.224 10.308c-.268 11.938-11.9 22.369-23.8 21.334-1.075 13.6-.2 33.846-23.171 33.89-4.788 3.474-7.181 7.236-8.215 15.6-9.277-10.949-19.928-6.231-19.928-6.231s-9.494 3.429-9.963 21.3 20.958 17.5 20.958 17.5h127.444s21.427.372 20.958-17.5-9.963-21.3-9.963-21.3-12.119-5.529-21.4 5.42c0 0 1.812-12.291-7.121-13.665v-383.438s8.933-1.447 7.559-13.779c.004 0 11.393 15.497 28.546 2.785z" fill="#6d9991"/><path d="m439.643 463.871c-1.349-21.187-26-13.29-26-13.29l-7.319 8.089s.963-12.711-6.741-16.949v-173.535a92.713 92.713 0 0 1 -22.652-2.006v118.576s4.583 27.632-22.551 27.632v22.605h-28.58v32.841h-16.114s3.392 11.293-7.161 20.453h113.813s24.653-3.23 23.305-24.416z" fill="#6d9991"/><path d="m363.107 261.279a28.97 28.97 0 0 1 -12.107-11.279c-11.314-20.335-18.146-48.984-43.235-55.942l.774 163.77c25.078-10.378 21.09-30.544 21.09-30.544v-22.8a72.487 72.487 0 0 0 33.478-43.205z" fill="#fff"/></g><g id="Layer_5" fill="#3a3245" data-name="Layer 5"><path d="m95.724 439.332c-4.5 1.865-5.683 6.632-5.79 11.05-31.1-24.435-51.579 38.777-6.524 40.364q48.222.042 96.446.012c15.138-1.188 40.219 4.834 50.193-10.413 4.057-5.825 5.663-13.8 3.492-20.641-3.908-13.691-22.855-20.226-32.668-8.63.072-4.659-1.3-10.686-6.542-11.733v-378.755c5.174-1.4 6.523-6.9 6.808-11.6 14.437 15.654 37.166-2.333 32.78-20.555-2.662-12.491-13.583-19.293-25.819-19.373q-47.9-.034-95.807.007h-25.982c-47.261-1.899-29.921 65.359 3.645 40.426-.151 4.52 1.745 10.19 6.643 11.159v378.412a6.58 6.58 0 0 0 -.875.27zm98.731 16.208c.657 5.356-.036 9.946-6.5 9.784-2.939.275-10.506 1.391-12.171-1.7-.677-1.26-.81-5.589.406-6.674.812-.725 4.46-1.333 3.851.114-.886 2.108 1.659 4.19 3.6 3.6 3.984-1.2 4.774-5.86 1.95-8.875-2.482-2.65-7.171-2.715-10.747-1.645a18 18 0 0 0 -1.3-4.472h16.026c4.605.355 5.049 6.134 4.885 9.868zm-21.339-36.171v-295.362c1.042-5.411 4.737-14.578 11-9.176 2.842 2.454 3.147 6.719 3.417 10.83v291.139c.649 14.5-12.013 17.724-14.417 2.569zm21.616-381.027c-3.587-1.009-8.145-.824-10.545 1.74-2.824 3.015-2.045 7.675 1.95 8.875 1.946.585 4.491-1.5 3.6-3.605-.608-1.447 3.04-.84 3.852-.115 1.216 1.086 1.083 5.415.405 6.675-1.665 3.092-9.231 1.977-12.171 1.7-6.638.073-7-4.333-6.5-9.786-.13-3.581.2-9.326 4.582-9.793q7.543-.006 15.087-.018c-.138 1.435-.219 2.879-.26 4.327zm-102.913-11.475c-5.988-.049-12.289-2.245-16.981 3.429-2.884 3.371 2 8.293 4.9 4.9 3.072-3.609 8.158-1.9 8.236 3.018-1.858 14.8-21.692 11.565-24.052-1.563-2.312-11.561 7.459-20.512 18.378-20.726 10.413-.2 20.851 0 31.265.006 31.541.005 63.089-.21 94.628.006 10.2.069 19.032 6.351 19.457 17.157.289 7.365-5.456 14.888-13.184 15.109-4.684.135-9.595-3-10.991-7.577-1.742-5.708 3.933-10.545 8.559-5.885 2.186 2.2 6.378-.767 4.436-3.423a11.336 11.336 0 0 0 -10-4.564c-38.202.455-76.441-.207-114.651.113zm76.83 433.644c-.705 5.8-6.6 4.582-11.21 5.208-2.5.067-6.479-.008-7.534-2.1-.678-1.26-.81-5.589.405-6.674.813-.725 4.461-1.333 3.852.114-.886 2.108 1.658 4.19 3.6 3.6 3.984-1.2 4.773-5.86 1.95-8.875-2.572-2.746-7.514-2.718-11.13-1.526a18.166 18.166 0 0 0 -1.317-4.591h16.435c6.537 1.044 4.556 9.979 4.949 14.844zm-19.088-39.356v-306.841c4.647-14.265 17.287-8.838 16.752 4.993v296.709c.595 13.405-11.794 20.123-16.752 5.139zm10.693-372.2c1.947.585 4.491-1.5 3.605-3.605-.608-1.447 3.039-.84 3.852-.115 4.116 9.854-4.854 9.238-11.766 8.378-6.454.16-7.16-4.43-6.5-9.786.07-2.107-.075-4.79.781-6.763a4.684 4.684 0 0 1 3.716-3.01q8.185 0 16.372-.013a17.783 17.783 0 0 0 -1.241 4.361c-3.62-1.081-8.322-.939-10.772 1.678-2.82 3.02-2.041 7.677 1.953 8.877zm-28.773 411.71c3.984-1.2 4.774-5.86 1.95-8.875-2.482-2.65-7.171-2.715-10.747-1.645a18 18 0 0 0 -1.3-4.472h16.027c4.59.356 5.038 6.127 4.872 9.865.065 1.925.431 4.63-.268 6.488-1.1 2.912-3.563 3.048-6.228 3.3-3.267.171-10.014 1.527-12.171-1.7-.678-1.26-.811-5.589.405-6.674.812-.725 4.46-1.333 3.852.114-.883 2.104 1.662 4.186 3.608 3.601zm6.3-32.4c-6.287 3.907-11.307-1.009-13.416-6.548v-313.857c2.109-5.538 7.127-10.4 13.416-6.537 4.263 2.618 4.454 7.905 4.979 12.764v301.376c-.533 4.866-.706 10.148-4.981 12.806zm-3.81-379.312c1.946.585 4.491-1.5 3.605-3.605-.609-1.447 3.039-.84 3.851-.115 4.116 9.854-4.853 9.238-11.766 8.378-3.147-.067-6.286-1.091-6.564-4.769.165-3.873-.4-8.076.85-11.78a4.665 4.665 0 0 1 3.671-3q8.406 0 16.811 0a17.969 17.969 0 0 0 -1.254 4.464c-3.664-1.209-8.615-1.157-11.154 1.554-2.821 3.02-2.046 7.677 1.948 8.877zm-17.49 411.558c-.811 6.647-9.507 4.663-14.413 5.138-1.953-.2-3.645-.753-4.331-2.027s-.81-5.589.406-6.674c.812-.725 4.46-1.333 3.851.114-.886 2.108 1.659 4.19 3.605 3.6 3.984-1.2 4.773-5.86 1.95-8.875-2.519-2.69-7.312-2.716-10.906-1.6.034-2.212.617-4.118 3.357-4.521h11.532c6.537 1.045 4.557 9.981 4.949 14.845zm-2.2-32.527c-5.238 4.284-10.549-2.653-10.876-7.729v-317.582c1.2-5.46 4.86-13.7 10.877-8.511 2.408 2.075 2.994 5.45 3.282 8.93v315.659c-.28 3.536-.818 6.989-3.286 9.233zm2.628-389.584c-3.62-1.081-8.322-.939-10.772 1.678-2.824 3.015-2.045 7.675 1.95 8.875 1.946.585 4.491-1.5 3.6-3.605-.608-1.447 3.04-.84 3.852-.115 1.216 1.086 1.083 5.415.4 6.675-1.665 3.092-9.231 1.977-12.171 1.7-6.453.16-7.16-4.429-6.5-9.786.07-2.107-.075-4.79.782-6.763a4.667 4.667 0 0 1 3.681-3h16.4a17.85 17.85 0 0 0 -1.222 4.341zm72.2 434.481c8.841-1.156 21.116 3.729 27.362-4.386 1.923-2.631-2.227-5.649-4.436-3.424-3.47 3.5-8.89 1.768-8.911-3.469-.019-4.431 3.623-8.133 7.641-9.447 22.143-3.657 23.365 30.873-1.743 31.72-41.959.038-83.932.168-125.894.012-21.41.733-27.539-28.911-6.272-32.2 4.617-.1 9.462 3.028 10.8 7.556 1.566 5.3-3.764 10.258-7.915 5.381-2.891-3.4-7.781 1.523-4.9 4.895a11.442 11.442 0 0 0 11.465 3.6c34.25-.49 68.532-.037 102.794-.234z"/><path d="m400.987 265.832c-3.552-3.847-9.086-5.587-14.307-6.2-20.829-1.17-9.18-14.995-32.593-25.591-14.708-6.519-6.682-19.578-26.8-33.722a39.746 39.746 0 0 0 -14.7-6.708c-3.769-1.225-4.066-1.9-6.561-.409-3.528 2.322.027 242.814-1.2 245.861-5.064 1.337-6.6 6.663-6.665 11.32-31.1-24.435-51.578 38.777-6.523 40.364q48.221.042 96.445.012c15.138-1.188 40.219 4.834 50.193-10.413 4.057-5.825 5.663-13.8 3.492-20.641-3.907-13.691-22.855-20.226-32.668-8.63.072-4.659-1.3-10.686-6.542-11.733v-170.642a3.391 3.391 0 0 0 -1.571-2.868zm-19.634 6.7c4.828-2.084 9.7-3.451 14.413-1.395-1.634 5.864 3.941 156.166-3.415 156.851-5.655 4.507-10.864-3.348-11-8.614zm-23.555 5.2c5.467 1.692 11.442.537 16.753-2.063v140.345c-.427 4.657-.656 9.666-4.466 12.256-6.15 4.181-10.533-1.6-12.287-7.115zm14.139 167.941c4.592.357 5.038 6.127 4.873 9.865.045 2.024.362 4.5-.268 6.488-1.8 4.537-8.894 3.265-13.213 3.686-2.3-.117-4.4-.635-5.186-2.092-.678-1.26-.811-5.589.405-6.674.812-.725 4.46-1.333 3.851.114-.886 2.108 1.659 4.19 3.605 3.6 3.984-1.2 4.773-5.86 1.95-8.875-2.571-2.746-7.514-2.718-11.13-1.526a18.166 18.166 0 0 0 -1.317-4.591zm-39.337-203.646c15.2 14.918 9.023 19.835 18.4 31.665v141.769c-.531 4.866-.7 10.15-4.98 12.808-6.287 3.907-11.307-1.009-13.416-6.549zm13.052 203.648c4.591.357 5.038 6.127 4.872 9.865.065 1.925.431 4.63-.268 6.488-1.76 4.617-9.521 3.286-13.784 3.652-2.074-.173-3.9-.722-4.615-2.058-.678-1.26-.811-5.589.4-6.674.812-.725 4.461-1.333 3.852.114-.887 2.108 1.658 4.19 3.6 3.6 3.985-1.2 4.774-5.86 1.95-8.875-2.482-2.65-7.171-2.715-10.746-1.645a18 18 0 0 0 -1.3-4.472zm-34.014-245.021c4.763 2.527 12.312 9.067 14.159 25.478v192.622c-.277 3.535-.815 6.986-3.282 9.23-5.239 4.3-10.549-2.664-10.877-7.731zm-3.467 245.014c.043.008 11.544.008 11.6.007 1.79.422 3.12.867 4.09 3.1a33.767 33.767 0 0 1 .514 13.252c-1.738 4.113-5.915 2.963-9.722 3.625-2.722-.06-7.226.509-8.677-2.031-.678-1.26-.811-5.589.4-6.674.812-.725 4.46-1.333 3.852.114-.887 2.108 1.658 4.19 3.6 3.6 3.984-1.2 4.774-5.86 1.95-8.875-2.519-2.69-7.312-2.716-10.906-1.6.055-2.208.578-4.017 3.299-4.518zm98.86 27.2c6.253.248 13.286 1.667 17.672-4.37 1.923-2.63-2.227-5.648-4.436-3.423-3.469 3.5-8.889 1.768-8.911-3.469 1.958-14.9 21.9-11.71 24.289 1.56 2.268 11.548-7.479 20.5-18.391 20.714-10.413.2-20.851 0-31.265 0-31.54 0-63.089.221-94.628.011-10.2-.068-19.062-6.35-19.454-17.168-.266-7.332 5.471-14.856 13.181-15.034 4.617-.106 9.462 3.027 10.8 7.555 1.566 5.3-3.764 10.258-7.915 5.381-2.891-3.4-7.781 1.523-4.9 4.895a11.442 11.442 0 0 0 11.465 3.6c37.485-.497 74.998-.031 112.493-.252zm-4.339-17.328c.657 5.356-.035 9.946-6.5 9.784-2.939.275-10.5 1.391-12.17-1.7-.678-1.26-.811-5.589.405-6.674.812-.725 4.46-1.333 3.852.114-.887 2.108 1.658 4.19 3.6 3.6 3.984-1.2 4.774-5.86 1.95-8.875-2.482-2.65-7.171-2.715-10.746-1.645a18.046 18.046 0 0 0 -1.3-4.472h16.037c4.592.355 5.036 6.134 4.872 9.868z"/></g></svg>