<svg height="512" viewBox="0 0 500 500" width="512" xmlns="http://www.w3.org/2000/svg"><g id="Layer_4" data-name="Layer 4"><path d="m63.2 188.416 222.544 197.221s-24.587 64.186-120.833 78.49c0 0-101.948 5.371-137.422-87.162l-11.909-9.935s-32.465-105.05 47.62-178.614z" fill="#ffda76"/><path d="m285.744 385.637-222.544-197.221a169.02 169.02 0 0 0 -19.914 21.724c-4.666 32.612-7.87 65.533-3.063 98 5.883 39.736 25.7 79.412 60.468 99.535 10.386 6.011 21.8 10.134 32.03 16.4s19.588 15.338 22.339 27.018a32.471 32.471 0 0 1 .33 12.929c5.982.294 9.521.109 9.521.109 96.246-14.308 120.833-78.494 120.833-78.494z" fill="#f48a4e"/><path d="m247.328 408.227 170.184-225.384s114.666 66.245 56.926 199.023c0 0-37.223 89.094-145.743 75.705.005 0-65.135-6.022-81.367-49.344z" fill="#ffda76"/><path d="m441.794 425.152a78.052 78.052 0 0 1 -10.486-.539c-21.438-2.589-43.292-15.085-49.845-35.659-4.976-15.623-.3-32.857 7.583-47.232s18.821-26.829 27.683-40.624a165.249 165.249 0 0 0 25.512-98.937c-13.588-12.881-24.729-19.318-24.729-19.318l-170.184 225.384c16.232 43.322 81.367 49.344 81.367 49.344 53.897 6.65 90.205-11.981 113.099-32.419z" fill="#f48a4e"/><path d="m342.885 63.039-15.725 3.861-4.117-14.926a190.153 190.153 0 0 0 -81.927-18.265c-96.9 0-175.508 80.254-182.288 176.913-7.639 108.9 82.92 177.665 179.816 177.665s179.047-83.135 180.83-180.016c1.173-63.79-29.928-115.144-76.589-145.232z" fill="#ffda76"/><path d="m279.683 112.582c1.089-.53 34.395 16.183 24.927 47.74a13.914 13.914 0 0 0 1 10.591c3.753 7.013 8.957 20.793 3.622 36.891a8.664 8.664 0 0 1 -6.469 5.684 5.38 5.38 0 0 0 -4.274 5.033c-.314 7.568-2.27 23.734-12.833 33.132a9.342 9.342 0 0 1 -8.232 2.067l-4.776-1.058a8.912 8.912 0 0 0 -9.851 4.582c-2.734 5.284-4.765 14.55.428 29.171 0 0 8.013 22.014 2.32 37.818a7.244 7.244 0 0 1 -10.03 4.077 96.839 96.839 0 0 1 -24.456-17.838c-15.031-14.813-25.517-24.984-42.533-25.091 0 0 34.866-1.929 54.235 22.144l11.7 1.741-6.651-43.645s4.418-26.136 19.341-28.913c0 0 12.951 10.884 16.86-8.326s10.358-21.962 10.358-21.962 5.143-11.686.894-24.07-7.234-16.388-7.234-16.388 14.335-15.881 9.52-28.979-17.866-24.401-17.866-24.401z" fill="#f48a4e"/><path d="m183.533 216.312s23.816 5.147 27.121-25.285c0 0 .325 11.752 15.914 15.649l-33.013 33.775s-.665-9.163-5.032-12.069-4.99-12.07-4.99-12.07z" fill="#f48a4e"/><path d="m263.144 170.993s11.4-1.8 9.614-13.225c0 0 16.042-1.988 12.986-22.161s-4.723-20.222-4.723-20.222 15.343 4.617 16.221 18.054.306 22.668-9.214 32.523c0 0-17.628 9.345-24.884 5.031z" fill="#f48a4e"/><path d="m166.072 307.33s-39.352-34.888-33.459-99.061c4.646-50.595 41.953-91.77 106.261-103.7 41.488-7.695 100.877 29.285 100.877 29.285s-37.527-57.145-118.626-41.7c0 0-96.653 18.123-103.7 120.354-.001.003-3.962 63.936 48.647 94.822z" fill="#f48a4e"/><g fill="#fff"><path d="m259.673 34.6a285.007 285.007 0 0 1 -21.439 38.763l1.7 13.476-12.573 2.641c-5.033 7.2-10.192 14.305-15.327 21.357l-48.681 66.855q-7.428 10.2-14.9 20.388a39.536 39.536 0 0 0 -7.63 26.243c.851 11.791 3.413 26.226 10.015 38.969a3.377 3.377 0 0 0 6.172-.437c16.033-44.669 41.723-97.6 103.838-171.343 2.8-3.32 11.285-3.466 14.767-6.058a37.813 37.813 0 0 0 7.126-7.734l24.645-32.33a190.032 190.032 0 0 0 -47.713-10.79z"/><path d="m198.1 39.129c-15.794 23-33.222 44.921-50.612 66.771l-65.82 82.7c-2.112 8.4-4.169 20.912-2.5 34.086 22.481-37.263 44.505-71.734 71.683-105.925 23.574-29.657 48.54-58.7 77.8-82.6a172.724 172.724 0 0 0 -30.551 4.968z"/><path d="m490.684 308.791a138.824 138.824 0 0 0 -9.72-50.41 273.452 273.452 0 0 1 -25.428 37.756c-19.163 24.187-41.293 45.826-62.283 68.446a12.025 12.025 0 0 0 -3.193 4.832 10.517 10.517 0 0 0 .189 4.919 40.8 40.8 0 0 0 20.037 26.66c-1.08-8.119 3.45-15.837 8.058-22.607 18.986-27.887 43.112-53.119 72.34-69.596z"/><path d="m44.726 365.449c-1.431-2.21-2.932-4.491-5.166-5.884-5.767-3.595-13.155.167-18.855 3.868l-5.193 3.372c.041.138.068.225.068.225l11.909 9.935a130.735 130.735 0 0 0 29.376 46.074l1.16-1.3c4.32-4.828 8.894-10.289 8.889-16.767 0-5.086-2.865-9.672-5.629-13.941q-8.278-12.789-16.559-25.582z"/><path d="m242.507 186.327c-4.377 5.99-15.049 20.324-23.542 29.5a5.065 5.065 0 0 0 1.919 8.159c9.094 3.551 25.028 5.686 31.8-18.46 3.718-13.269-.026-18.528-3.578-20.612a5.031 5.031 0 0 0 -6.599 1.413z"/></g><path d="m341.789 62.343-15.7 3.965s34.615 15.566 51.02 78.45q2.4 9.222 3.93 18.495a8.5 8.5 0 0 1 -2.884 7.877l-10.378 8.781 15.036-2.922c.006.059.013.117.018.175 3.342 4.316 3.211 8 .691 11.252q.247 7.992-.217 15.936a4.655 4.655 0 0 1 -2.885 4.016l-12.643 5.218 14.53 1.886c-.011.089-.02.178-.031.267 2.184 6.066 1.822 10.814-2.265 13.636a165.206 165.206 0 0 1 -5.442 19.812 4.933 4.933 0 0 1 -4.826 3.356l-8.953-.307 10.424 6.793c.846 6.211-1.255 10.291-6.1 12.382-1.23 2.39-2.913 5.253-4.659 8.093a4.159 4.159 0 0 1 -4.6 1.845l-8.619-2.27 8.991 8.291c1.448 4.508-.885 6.962-6.188 7.8q-3.687 4.963-7.92 9.759a3.747 3.747 0 0 1 -4.459.863l-9.761-4.8s4.349 5.893 7.933 10.644c.371 3.712-5.549 10.742-11.731 10.526a130.146 130.146 0 0 1 -26.611 16.443c-1.62 6.727-5.716 7.894-11.739 4.732a132.8 132.8 0 0 1 -15.755 4.4 4.85 4.85 0 0 1 -5.542-3l-3.6-9.385s-1.876 14.308-2.047 14.33c-1.718 5.223-7.919 5.141-11.473 1.041a172.848 172.848 0 0 1 -35.548-1.98 5.2 5.2 0 0 1 -4.348-4.353l-2.208-14.626s-4.89 16.874-5.416 16.761c-5.929 3.337-10.7 3.131-13.441-3.33-3.8-1.059-8.754-2.757-13.425-4.447a2.439 2.439 0 0 1 -.607-4.266 18.431 18.431 0 0 1 2.231-1.4c5.162-2.72 0-16.721 0-16.721s-5.3 10.234-10.413 12.7c-2.3 1.11-3.769 2.9-3.96 4.871-.955-.374-1.512-.6-1.512-.6-5.821 1.381-9.264-.619-10.877-5.218a179.207 179.207 0 0 1 -15.688-9.206c.226-5.483 1.294-15.725 5.926-22.455 0 0-11.118 9.7-13.511 17.183-32.858-24.136-52.992-56.636-66.155-89.096.659 101.505 88.288 164.369 181.356 163.743 96.894-.651 178.483-84.337 179.614-181.227.748-63.795-30.7-114.939-77.563-144.713z" fill="#f48a4e"/></g><g id="Layer_5" fill="#3a3245" data-name="Layer 5"><path d="m17.993 373.659c7.062 4.844 9.573 13.886 12.833 21.551 32.193 82.6 157.476 97.444 219.012 39.671 52.557 38.65 130.647 44.455 184.758 5.811 25.547-17.992 41.244-46.674 50.924-75.762 24.226-67.891-3.09-146.6-64.626-184.02-5.016-43.585-27.347-85.4-61.992-112.408-15.133-12.323-12.8-6.828-28.216-8.229-2.859-1-2.907-5.02-3.981-7.493-2.757-7.88-11.505-10.067-18.717-11.98-46.241-14.765-97.8-15.13-141.818 6.839-54.2 26.478-97.507 77.322-106.078 138.047-.36.443-.7.911-1.033 1.379-46.5 44.479-64.606 115.55-46.359 177.113 1.053 3.528 2.372 7.069 5.293 9.481zm45.207 39.161c9.831-10.077 16.549-17.161 19.464-29.985a86.674 86.674 0 0 0 9.6 8.473c-9.598 2.392-19.703 32.177-29.064 21.512zm69.723-24.209c-30.75-7.276-53.835-32.81-56.78-64.846 15.514 29.082 40.8 52.7 70.044 67.352a83.038 83.038 0 0 1 -13.266-2.506zm23.306 9.755c6.476-.473 3.747 5.6-.258 7.178-21.54-.321-43.32-6.727-60.374-20.15-2.623-2.365-9.914-6.787-6.288-10.492 1.581-1.106 3.479-.167 5.306 1.225a92.453 92.453 0 0 0 61.612 22.239zm-47.955 48.584a139.515 139.515 0 0 1 -37.5-18.581c2.765-7.28 9.28-13.137 13.646-19.612 2.648-3.465 5.176-7.952 8.887-10.371 2.8-1.826 5.372-1.533 8.237-.838a101.282 101.282 0 0 0 16.749 7.906c4.338 7.594 1.567 14.695-.4 22.982-1.429 6.035-2.332 17.451-9.619 18.514zm23.184 5.554q-7.076-1.131-14.034-2.913c3.941-4.032 5.223-9.617 6.312-15.075 1.543-7.729 5.528-18.192 3.14-26.321q5.126 1.4 10.383 2.312c-3.935 6.064-4.672 18.1-5.469 22.343-.962 5.127-2.203 13.39-.332 19.65zm20.5 1.924q-5.714-.163-11.428-.748c-5.554-5.954-3-15.251-1.576-22.512 1.169-6.733 1.8-14.072 6.1-19.564a120.745 120.745 0 0 0 20.531.4c4.1 13.35 1.949 28.182 2.668 42.04a157.2 157.2 0 0 1 -16.292.384zm37.129-3.446c1.926-3.691-4.47-34.428 2.233-30.06 1.007.792 1.421 5.619 1.745 6.907 2.035 6.788 2.542 14.438 6.893 20.263q-5.364 1.668-10.868 2.89zm18.77-5.625c-10.148-5.737-3.634-36.14-19.282-31.871-14.458 5.037-2.492 28.186-6.419 38.856q-3.5.6-7.025 1.03c.334-8.54-.206-17.23-.517-25.748-.195-5.338-.03-11.355-2.394-16.237a114.774 114.774 0 0 0 22.427-4.912q3.912.6 7.839 1.018c2.738 10.836 2.007 28.415 11.727 35.229q-3.137 1.406-6.353 2.635zm31.993-18.352c-26.8 22.8-25.533 5.262-30.69-18.91a197.072 197.072 0 0 0 31.608-.427c.2 4.753 3.2 10.474 5.842 13.386-2.191 2.074-4.447 4.066-6.757 5.951zm11.785-10.986a19.228 19.228 0 0 1 -4.31-9.048c4.524-.553 9.032-1.258 13.52-2.081a113.228 113.228 0 0 1 -9.207 11.129zm96.186 11.641c-.865 7.031 2.092 20.717-4.9 24.462-24.265-1.5-48.443-9.147-68.492-22.958a115.828 115.828 0 0 0 20.5-23.565c3.02-6.184 10.065-11.073 16.908-10.258 9.99 4.482 20.836 6.725 31.589 7.7 6.184 5.611 4.481 17.109 4.398 24.619zm-13.27-33.342a27.627 27.627 0 0 1 -12.284-8.1q2.779-1.413 5.464-2.968c26.445 11.9 59.81 5.749 79.871-14.867 1.7-.906 3.745-1.672 4.225.982-.07 6.506-18.681 17.407-24.786 20.123a82.192 82.192 0 0 1 -25.409 6.613c-9.016-.444-18.293 1.276-27.078-1.783zm54.349 53.528a145.306 145.306 0 0 1 -36.7 4.567c2.648-5.643 2.057-12.887 2.212-18.882-.031-9.883 1.479-20.869-2.691-30.093a101.229 101.229 0 0 0 11.431-.535 3.352 3.352 0 0 0 1 .254 2.858 2.858 0 0 0 1.216.9c2.2.817-.787 7.769-1.177 8.628-2.381 5.819-1.77 12.258-1.338 18.379-.613 14.066 8.875 15.034 20.212 12.3 5.525-2.521 4.614-2.411 5.955 4.364-.035.041-.078.078-.12.118zm28.433-10.963a128.5 128.5 0 0 1 -21.334 8.9c-3.606-23.1-17.408-1.675-25.531-10.146-3.733-27.332 3.92-17.37 4.536-34.739 5.327-1.144 10.405-3.208 15.464-5.136a19.485 19.485 0 0 1 11.684 7.852c4.122 9.711 16.778 23.138 15.183 33.269zm10.207-6.065c-2.636-.409-3.776-3.588-4.979-5.582-7.232-11.787-13.655-24.05-20.592-36.028q2.546-1.7 4.96-3.571c7.918 14.172 16.99 27.84 26.122 41.286-1.795 1.341-3.625 2.647-5.509 3.895zm47.916-60.343c-.444 1.11-.922 2.2-1.39 3.293-5.032-5.779-13.879-10.6-17.976-13.319-3.68-2.442-14.076-10.4-21.667-11.161a90.736 90.736 0 0 0 3.8-11.332c10.539 12.17 25.95 18.163 39.847 25.517q-1.228 3.527-2.612 7.002zm4.744-13.575c-12.991-7.413-34.088-14.6-39.883-29.018a108.746 108.746 0 0 0 .785-26.81c5.632-5.312 14.1-4.688 21.345-5.166q11.806-.779 23.62-1.438a156.4 156.4 0 0 1 -5.867 62.432zm4.83-69.912c-12.541 1.677-35.019.027-44.923 6.762-.708-7.751-5.592-15.1-4.138-22.9.926-3.674 4.045-6.763 7.833-4.418 4.31 2.668 5.693 8.861 9.735 12.064 8.744 6.405 20.267 2.211 30.126 1.3q.771 3.589 1.364 7.196zm-45.941-83.678c-5.708 2.861-9.7 6.7-14.67 10.515.412-7.34.217-14.728-.1-22a140.84 140.84 0 0 1 14.767 11.489zm-15.529 21.337c2.762-3.3 7.126-6.559 10.053-9.529 3.191-2.426 7.732-4.137 10.76-6.849q1.961 1.933 3.847 3.937c-9.564 5.912-16.782 15.076-25.84 21.6q.684-4.564 1.18-9.159zm-1.27 23.525c5.726-8.439 11.931-14.468 19.206-20.639 2.211-1.662 11.988-3.907 14.424-3.2 12.671 8.65 20.226 30.768 25.13 45.216-12.851 3.119-20.527 3.407-28.975-7.876-6.065-6.488-17.626-5.836-23.54.689-2.858-4.224-7.172-9.297-6.245-14.19zm.181 24.747c1.126-1.021 2.347-.623 3.416.071 10.607 21.539 11.673 48.321 3.214 70.717-.811 1.039-1.922 2.578-3.016 1.647-1.023-.87-1.215-2.425-1.192-3.9 6.588-21.095 6.7-45.312-3.511-65.048.118-1.258.072-2.565 1.089-3.487zm5.553 89q1.681-2.739 3.133-5.548c6.9-1.991 15.393 5.788 20.755 9.372 3.428 2.292 17.7 10.105 18.546 15.853a129.7 129.7 0 0 1 -26.118 35.792c-7.493 2.993-14.7-8.446-18.312-13.936-14.293-20.818-11.67-22.231 1.996-41.536zm-14.707-12.1c-15.093 26.821-49.531 38.86-78.437 29a161.712 161.712 0 0 0 16.038-12.262c15.536 1.583 35.3-3.29 44.008-17.155 1.363-2.488-1.492-5.832-4.094-4.1-9.772 7.533-19.968 14.963-32.968 14.917a218.823 218.823 0 0 0 42.965-58.614c1.265 6.251.054 12.5.383 18.76.181 3.336 4.42 3.694 5.586.757 3.075-9.154 1.278-19.651-1.609-28.7q1.573-3.5 3.031-7.046c15.134 17.711 13.08 43.403 5.097 64.439zm-167.85-9.384c-3.437-2.312-7.721-1.774-11.6-2-3.115-.677-3.523-3.6-1.788-5.179a128.786 128.786 0 0 0 18.057-.167c4.561.914 4.011 6.887 3.961 10.642.112 4.431.155 8.863.16 13.3.322 2.689.854 7.419-3.593 6.546-1.152-.406-.562-3.221-.59-4.757-.11-5.959 1.237-14.581-4.607-18.389zm-40.908.425c.8-2.353 1.863-4.829 2.69-7.3a69.518 69.518 0 0 0 16.513 3.7c2.418 11.5 14.2 4.914 18.911 9.478 2.1 5.618-.691 11.887.8 18.3a151.6 151.6 0 0 1 -38.221-4.173c-4.88-4.107.054-15.191-.693-20.009zm29.972-14.117c-41.962-1.84-86.142-25.952-104.052-65.224-17.761-43.152-8.123-96.5 26.662-129.06 53.19-53.686 134.244-51.078 183.24 6.639 1.524 1.755 3.626 1.046 4.661-.454 2.035-.8 3.43-3.018 1.828-5.3a116.424 116.424 0 0 0 -13.473-15.9c6.405-5.006.538-10.388 4.608-14.989 4.156-4.173 10.4-.331 13.622-6.949a143.807 143.807 0 0 1 42.736 72.23c-1.807 4.565-7.193 5.009-12.2 6.078-4.244.906-12.7 4.271-17.21 1.775-.305-1.448-.626-2.893-.976-4.329-1.19-4.884-8.715-2.816-7.533 2.077 16.085 76.504-40.157 158.463-121.913 153.402zm-27.974-253.124c1.2 4.966 2.219 10.83 8.056 12.136a114.04 114.04 0 0 0 -14.839 4.524.532.532 0 0 1 -.044-.195c1.1-1.461 2.992-2.606 3.718-4.54 2.654-8.328-3.875-23.2-13.754-21.894a12.865 12.865 0 0 0 -.562-1.935 145.448 145.448 0 0 1 18.159-5.778c-3.751 8.288-3.691 9.155-.734 17.682zm4.324-11.087c.7-1.553 2.442-2.882 2.276-4.877 7.541-1.261 15.09-2.444 22.768-2.362-.7 9.144-.8 18.377-1.068 27.547a124.788 124.788 0 0 0 -12.851 1.446 9.637 9.637 0 0 0 -4.912-4.436c-2.641-1.21-2.7-1.484-3.591-4.393-.821-4.295-3.664-8.494-2.622-12.925zm-15.981 14.629a13.707 13.707 0 0 1 .939 7.3 6.7 6.7 0 0 0 -1.755 8.165q-4.278 1.9-8.454 4.137c-4.635-7.8-9.306-15.272-14.492-22.8 4.564-2.223 8.848-4.76 13.422-7.064 2.114 4.801 8.161 5.471 10.34 10.262zm-23.24 9.206c2.886 4.462 5.629 9.007 8.389 13.544-2.451 1.469-4.861 3.029-7.233 4.66-.271-1.946.817-4.736.257-6.5-.963-3.037-3.749-6.054-5.507-8.644-1.345-1.983-2.716-4.132-4.976-5.17-2.8-1.287-7.158.352-7.511-3.934 2.884-2.071 5.825-4.055 8.832-5.927 1.824 4.255 5.314 8.204 7.749 11.971zm-9.075 10.514c2.31 4.2-.535 9.487 2.326 13.53q-2.488 1.978-4.89 4.075c-2.327-2.608-5.9-9.272-9.95-5.824-3.308 4.627-8.2 9.155-12.932 3.536-2.384-2.332-4.536-4.956-6.857-7.373 7.19-4.728 12.958-11.639 20.3-16.272a2.2 2.2 0 0 0 .985.091c2.185 3.802 8.65 4.122 11.018 8.237zm-23.818 25.077c5.293 2.413 10.118-1.768 13.744-5.754.818.97 1.6 1.966 2.332 3.011a145.149 145.149 0 0 0 -10.767 11.485c-8.7-5.147-14.956-13.288-22.835-19.534q1.624-1.869 3.306-3.7c4.136 5.174 8.402 11.156 14.22 14.492zm-12.577 4.831c4.82 3.132 8.095 7.442 12.217 11.133a135.073 135.073 0 0 0 -7.873 11.986c-5.136-4.455-13.186-7.239-16.454-13.332-1.059-2.8-.469-5.744-2.7-8.123.67-.949 1.328-1.907 2.012-2.846 4.608-2.432 8.627-1.972 12.798 1.182zm-14.151 17.944c4.249 3.491 9.046 7.506 14.034 10.239a3.81 3.81 0 0 1 -2.512 4.1c-4.181-1.812-19.456-12-24.393-15.2q3.018-6.061 6.613-11.87c1.552 2.044.575 4.079 1.53 6.858.843 2.455 2.778 4.271 4.728 5.873zm-11.858 11.584c7.7 1.015 15.21 6.644 22.376 9.882a122.1 122.1 0 0 0 -8.329 38.263c-9.294-.65-15.173 8.2-20.582 6.664-3.365-1.47-2.292-6.233-5.369-8.539a7.041 7.041 0 0 0 -3.315-1.325c1.346-14.682 3.8-29.528 10.552-42.826a29.571 29.571 0 0 1 4.667-2.119zm14.575 70.133a136.439 136.439 0 0 0 2.509 15.356c-6.337.895-16.633 3.221-14.979 11.256.318 3.079.871 6.64-4.2 3.99-1.122-1.028-1.425-3.753-1.743-5.114-.969-3.41-5.024-2.012-7.451-1.37a115.962 115.962 0 0 1 -3.173-17.832c10.588 3.781 19.466-11.505 29.037-6.286zm-23.8 29.7c3.965 13.67 19.714 11.55 18.044-3.088.322-2.147-.385-1.584 1.97-2.233 2.589-.713 5.356-1.642 7.9-2.61.56 2.161 1.228 4.319 1.94 6.417-10.518 4.362-8.033 23.292-28.685 14.445-1.435-4.109-2.675-8.3-3.742-12.523.852-.152 1.708-.292 2.569-.407zm20.178 21.1c4.242-3.2 8.327-7.965 9.385-13.34a8.647 8.647 0 0 1 2.819-2.562 100.142 100.142 0 0 0 6.282 12.531c-1.473 6.268-3.61 10.41-8.572 14.6-2.15 1.9-7.289 7.707-11.383 9.737-2.606-5.8-6.858-10.823-9.154-16.821 3.589.387 7.796-2.009 10.619-4.141zm10.6 19.534c4.722-4.017 10.9-8.917 13.037-15.039q2.964 4.086 6.353 7.9c-8.084 1.728-19.624 13.083-23.965 20.821q-2.744-2.982-5.327-6.114c3.732-1.782 7.425-5.459 9.901-7.564zm9.494 10.113c2.12-3.831 6.68-5.921 8.38-9.835a5.917 5.917 0 0 1 2.906-.595 168.373 168.373 0 0 1 15.747 11.447 165.966 165.966 0 0 0 -15.4 23.091 97.1 97.1 0 0 1 -15.161-13.453c-2.169-2.167 2.321-8.646 3.527-10.652zm33.782 3.475c11.69 8.753 2.619 13-6.06 17.993a28.936 28.936 0 0 0 -8.184 9.289l-2.961-1.447a248.033 248.033 0 0 1 17.204-25.831zm2.92 21.132c4.459-2.2 7.557-5.067 8.774-9.95a48.148 48.148 0 0 0 13.637 5.422c-2.484 5.387-3.258 12.485-10.13 13.712a11.421 11.421 0 0 0 -8.819 8.582q-6.42-2.923-12.6-6.343c1.924-4.827 4.471-8.677 9.137-11.419zm10.283 17.826c1.326-1.516 3.167-1.993 5.907-2.646 8.405-2.3 11.056-12.563 13.586-20.181 1.457.49 2.923.949 4.395 1.388-4.677 9.243-6 19.8-9.141 29.606-3.86-1.913-15.024-2.903-14.748-8.163zm66.306-297.602q3.291.032 6.58.191c-1.236 3.977-1.1 23.51-1.255 28.785-.406 2.233-2.8 2.686-4.948.793.012-.997.964-24.625-.377-29.769zm11.858 31.525c.379-9.221.569-18.04 1.15-27.334 4.186.056 8.389.17 12.384 1.627-2.064 8.873-2.871 17.933-4.86 26.806q-4.326-.678-8.674-1.099zm21.385-28.038q3.84.739 7.645 1.607c-5.356 13.715-13.99 32 9.855 28.731l-1.828 5.96a141.464 141.464 0 0 0 -20.676-5.772 205.538 205.538 0 0 0 5.004-30.526zm108.66 175.85c-3.243-6.578-15.313-8.7-18.114-.606-.76 4.335-1.871 3.764-5.644 3.2a137.145 137.145 0 0 0 3.607-17.349c9.682 1.978 19.3 3.455 29.038 4.793a189.609 189.609 0 0 1 -4.808 19.346c-7.326-.283-2.35-5.262-4.079-9.384zm-7.615 8.913c.447 3.4 3.455 5.7 6.548 6.685-1.882 4.531-3.264 9.229-4.87 13.863a74.825 74.825 0 0 0 -11.651-7.2c-2.945-1.573-7.444-4.308-11.331-4.391q1.836-4.559 3.37-9.287c15.181 4.924 10.424-5.841 18.389-4.894.109 1.579-.721 3.527-.455 5.224zm-11.766-30.416q.348-4 .432-7.98c3.729-10.962 18.126-9.3 27.348-9.213.549 7.327-.089 14.7-.438 22.016-9.134-1.662-18.173-3.158-27.342-4.823zm15.548-24.35c-3.894.65-10.842.957-15.614 3.2q-.288-2.865-.72-5.714c5.912 1.04 13.929-1.563 18.6-2.533 4.078-.847 8.578-1.559 12.023-4.044q.488 3.534.763 7.062c-4.875-.602-11.015 1.356-15.052 2.029zm-120.62 172.562c1.73-6.972-1.971-17.212 5.251-21.659 15.712-3.815 29.212-12.89 42.844-21.245 5.16 3.356 8.613 8.761 13.63 12.186 13.624 17.2-19.651 18.106-29.108 23.213-9.836 5.491-18.574 12.285-30.417 13.108-2.773.528-1.963-3.408-2.328-5.17a2.552 2.552 0 0 0 .128-.433zm56.184-52.374c3.651-3.5 5.367-2.154 8.148 1.642a78.994 78.994 0 0 1 9.842 14.212 3.921 3.921 0 0 1 -3.722 4.7c-4.321-4.826-14.556-14.131-14.268-20.554zm15.115-.551c-.7-.873-1.474-1.9-2.312-2.937 5.271.542 9.221-4.252 14.531-3.36 4.493.56 7.313 4.275 10.475 7.13-4.524 4.293-7.83 9.876-12.189 14.417a2.526 2.526 0 0 1 -.561-.288c-2.225-5.696-7.048-11.363-9.944-14.966zm13.878-15.465c-5.29-2.765-8.23 1.043-11.489 4.242-1.292-.587-2.56-1.342-3.835-2.039q4.092-4.806 7.752-9.977c9.851 1.261 16.254 11.2 23.9 16.959-.674 1.011-1.338 2.029-2.031 3.026-4.323-4.403-9.075-9.486-14.297-12.215zm4.991-9.9a20.565 20.565 0 0 0 -8.432-4.008q2.492-3.9 4.761-7.933c7.621 4.076 16.006 6.46 23.557 10.655-2.446 4.093-4.705 8.21-6.971 12.428-4.201-3.848-8.41-7.738-12.915-11.147zm11.468-13.645c-3.461-1.756-7.308-4.429-11.24-5.608.835-1.631 1.642-3.268 2.395-4.94 8.8 1.919 16.119 7.515 23.1 12.93-.6 4.1-2.3 3.85-5.461 2.106q-4.399-2.252-8.794-4.493zm-26.891-198.539c6.091-.61 9.59.694 14.519 4.275 56.2 40.676 77.217 117.626 52.824 182.2a45.707 45.707 0 0 1 -6.591 8.679c-5.757 6.827-6.707-3.218-4.65-7.3 29.2-67.437 3.139-150.19-60.3-187.581 1.39-.003 2.801-.133 4.198-.273zm.893 16.985c3.178-1.43 7.2 1.929 8.254 4.815 1.737 5.515-5.375 3.688-8.483 5.259-13.319 8.848-4.885 15.5-8.819 18.538q-3.227-2.856-6.66-5.5c4.269-8.217 10.455-15.532 15.708-23.111zm-7.007-6.485a9.854 9.854 0 0 1 -.046 1.012c-5.255 8-10.593 15.9-18.056 22.008a96.716 96.716 0 0 0 -12.714-6.748c3.048-6.521 5.762-18.781-5.463-15.413-2.178.6-7.012 1.919-8.358-.506-.861-1.55 1.059-6.212 1.558-7.982.87-3.084 1.933-6.082 3.072-9.054 14.468 2.468 26.387 11.883 40.007 16.683zm-224.207 27.155c48.549-58.1 121.986-81.435 194.572-58.295 5.483 2.022 12.132 2.607 16.889 6.045 2.605 2.5 3.027 6.187 4.515 9.274-89.264-41.125-184.09-6.595-230.076 79.221-3.148 5.53-8.062 8.748-8.926-.808a209.749 209.749 0 0 1 23.026-35.437zm-23.2 102.808c2.326 1.578 2.374 5.479 4.435 7.794 8.186 9.078 17.314-4.434 26.388-3.9-.009 2.219.024 4.438.124 6.655-9.729-2.367-15.746 6.833-24.4 7.048-8.153-1.205-6.64-11.482-6.551-17.597zm-11.867-36.532c4.838-1.578 7.311 5.04 7.57 9.278-7.689 36.851-3.139 76.434 14.264 109.919 35.107 62.951 118.656 95.01 187.323 75.421 9.595-4.874 18.056-12.1 29.182-13.249 26.4-5.729 44.949-30.358 59.862-51.339 6.764-4.866 8.455 1.343 5.282 7.091-8.6 18.222-25.732 31.553-41.433 43.359-11.873 8.42-27.258 8.879-39.872 15.682-54.589 28.882-132.2 5.853-177.485-32.927-67.108-59.097-48.925-148.566-44.693-163.235zm-8.273 144.1c6.981-7.156 5.377 10.361 6.791 13.635a93.4 93.4 0 0 0 6.844 22.383c1.389 3.682 1.8 8.633-3.867 6.865-5.161-8.088-12.388-33.89-9.768-42.88zm12.305 59.172c3.219 12.168-6.513 22.478-14.223 30.637-2.677 2.761-5.615 5.766-9.522 6.537-18.4-17.756-12.276-34.351-24.692-40.9-4.486-1.386-7.017-3.58-7.891-8.351a158.9 158.9 0 0 1 -3.83-15.885c-3.575-11.74 6.717-13.072 15.63-13.144 6.908-.561 13.941-.368 20.777-1.514a14.262 14.262 0 0 1 4.494 4.6 114.006 114.006 0 0 0 19.257 38.023zm-60.7-57.15c11.3.242 26.521-3.058 37.582 1.211 2.767 9.736-14.749 6.27-20.472 7.582-7.434 1.028-22.356 3.654-17.11-8.79zm41.459-118.342a161.741 161.741 0 0 0 -1.392 27c-5.3-2.951-9.938-6.39-9.87-12.7q5.255-7.396 11.262-14.3zm-25.353 37.66a179.6 179.6 0 0 1 9.171-16.071c2.9 6.282 8.267 10.107 15.056 12.4a340.511 340.511 0 0 0 3.837 36.142q-.323.724-.632 1.454c-15.235-7.565-39.553-11.571-27.432-33.925zm-8.2 18.985c6.026 12.835 21.02 16.579 32.995 22.154a85.63 85.63 0 0 0 -2.453 9.786c-13.946-9.694-21.6-8.428-37.526-7.175a172.832 172.832 0 0 1 6.984-24.765zm-8.457 39.219c1.037-2.993 2.323-5.852 5.171-7.562 11.78-2.812 23.384 1.233 32.664 8.581a99.922 99.922 0 0 0 -.4 11.636 13.226 13.226 0 0 1 -3.828 2.689 138.239 138.239 0 0 0 -21.81-.626 10.957 10.957 0 0 1 -11.797-14.718z"/><path d="m294.17 169.763a7.313 7.313 0 0 1 -1.552-3.993c21.866-28.038 1.449-57.048-29.973-62.466-7.256-1.112-14.486.1-21.8-.865a45.09 45.09 0 0 0 -22.5 3.121c-28.275 12.46-58.775 45.87-45.7 78.571 2.658 6.07 8.6 10.255 7.373 17.345-7.569 28.766 13.962 25.317 6.253 46.2a60.781 60.781 0 0 1 -19.124 25.507c-1.567 1.24-1.305 3.977 0 5.257 11.869 13.244 30.068 8.11 45.263 13.2 7.933 2.891 15.235 7.522 21.958 12.567 4.587 2.649 24.556 22.444 26.355 11.527.585-7.033 1.016-14.152-1.12-20.985-6.968-16.425-13.248-46.745 10.158-52.411 16.624 10.688 19.839-11.306 20.026-23.792a18.277 18.277 0 0 0 3.626-9.217c16.845-1.011 6.171-31.081.757-39.566zm-47.762-59.358c3.788.346 7.533-.446 11.352-.22a23.843 23.843 0 0 0 -2.944 8.532c-4.583.111-9.233 1.182-13.7 1.91a48.813 48.813 0 0 1 5.292-10.222zm-3.14 16.118c3.719-.63 7.609-.85 11.318-1.634a19.709 19.709 0 0 0 2.88 9.177 2.411 2.411 0 0 0 4.384-1.849c-1.762-7.176-1.362-14.884 3.045-20.983a43.885 43.885 0 0 1 6.965 2.345 43.072 43.072 0 0 1 5.833 9.546c-3.879-1.368-8.263-2.309-12.35-1.51-2.516.5-2.256 4.19 0 4.837 5.237 1.153 10.492 2.086 15.06 5.124a59.1 59.1 0 0 1 .546 19.127c-.383 3.272 4.226 3.23 5.264.713 3.886-9.427 2.521-20.687-2.145-30.075 9.376 8.438 14.067 20.575 6.621 32.6-7.8 4.66-17.745-1.923-26.617-.06a17.174 17.174 0 0 1 -1.366-10.233c3.08-.194 6.166-.325 9.234-.73a2.728 2.728 0 0 0 0-5.453c-7.708-.8-20.049-.365-28.508 3.958-2.151-4.5-3.65-9.132-3.488-14.3q1.656-.323 3.324-.6zm15.57 28.3a24.89 24.89 0 0 0 -11.031 5.948c-2.628-3.933-2.558-8.292-1.977-13.171a33.6 33.6 0 0 1 10.528-3.347 19.678 19.678 0 0 0 2.48 10.571zm-35-35.424c1.386-3.512 3.566-6.552 5.272-9.855a32.08 32.08 0 0 1 10.253-.241 27.179 27.179 0 0 0 -5.561 12.772 85.1 85.1 0 0 0 -11.888 3.521 45.734 45.734 0 0 1 1.924-6.196zm-22.077 24.015c.657-13.154 4.354-25.918 17.757-30.833a50.434 50.434 0 0 0 -5.043 16.344 56.9 56.9 0 0 0 -9.865 6.492c-2.488 2.052.818 6.393 3.474 4.5 1.853-1.318 3.75-2.524 5.685-3.64-.411 8.7.764 18.732 8.161 23.835 2.749 1.9 5.838-2.287 3.522-4.564-5.524-5.431-5.56-15.229-4.746-22.767a76.722 76.722 0 0 1 12.673-4.24 30.06 30.06 0 0 0 5.188 16.264 14.632 14.632 0 0 0 -2.307 2.819c-1 1.616.842 4.093 2.687 3.123-.668 5.277 1.461 11.051 4.755 15.163a23.089 23.089 0 0 0 -2.868 15.488c-8.319 1.217-7.351-14.032-18.9-15.295-6.452-1.079-11.17 3.573-13.71 9a84.541 84.541 0 0 0 -12.551 7.737c-12.167-10.122-12.485-22.819-.515-33.24a36.624 36.624 0 0 0 7.941 21.4c2.187 2.686 6.862-.879 4.835-3.73-5.02-7.06-6.721-15.277-6.173-23.855zm-15.89 1.09c-.118-7.567 6.722-12.061 11.708-16.689a83.989 83.989 0 0 0 -2.213 13.5 35.106 35.106 0 0 0 -9.149 7.6 20.665 20.665 0 0 1 -.346-4.41zm.152 70.022c.933-14.474 8.121-23.63 20.045-30.977-.606 10.259 5.829 19.931 15.119 24.174-5.429 4.739-11.265 9.065-16.658 13.831-5.452-6.762-5.045-15.5-4.287-23.621a2.53 2.53 0 0 0 -4.674-1.266c-5.783 8.551-1.826 21.521 4.113 29.473a62.426 62.426 0 0 0 -5.451 6.309c-2.265-6.013-7.644-11.512-8.207-17.922zm11.223 66.6c-8.292-.389-15.291-.7-21.721-5.323 10.485-8.579 15.753-21.083 21.13-33.108.392 14.344 3.324 26.431 8.569 39.36a58.548 58.548 0 0 0 -7.978-.926zm97.622-83.915c-.1 7.078-2.712 4.226-7.316 2.518a27.377 27.377 0 0 0 -6.2-1.277c-1.4-.134-2.483.42-2.547-1.005-.067-1.52 2.091-1.863 3.248-2.106 4.8-1.008 2.656-7.9-1.99-7.217-9.593.906-13.976 14.062-3.591 17.6 3.445.911 7.073.459 10.479 1.882a15.742 15.742 0 0 1 -2.091 5.9 34.919 34.919 0 0 0 -13.8 1.754c-2.63 1.061-2.566 5.356.716 5.3 3.761-.114 7.073-.793 10.944-.874-1.145 4.183-.617 19.6-7.665 16.471-7.867-2.9-18.55-9.037-25.537-9.3-3.566-1.276-5.1 4.4-1.562 5.665-.827-.3-1.045-.392-.941-.341a54.148 54.148 0 0 0 4.949 2.716c6.881 6.968-5.254 9.45-7.512 19.783a2.45 2.45 0 0 0 -.5-.243c-1.734-4.585-3.4-9.195-4.708-13.923-2.006-7.26-2.134-14.082-2.683-21.491-.194-2.624-3.981-3.388-4.741-.642-5.669 28.217 18.669 46.746 13.343 85.128-9.309-7.678-19.307-14.951-30.8-18.97-7.138-14.283-10.74-31.723-5.815-47.254 4.344-12.187 13.31-20.487 22.681-28.566 2.533-2.515.411-6.072-2.667-6.438-8.314-.989-15.309-9.4-15.051-17.674.106-3.4 1.718-10.048 5.65-11.219 8.741-1.654 8.266 11.656 14.13 14.689 3.322 2.889 16.546 1.2 15.238-4.706-4.722-14.533 8.247-23.286 21.359-22.6 3.762.2 9.579 1.8 14.951 2.119-5.307 7.262-18.2.213-25.192 5.958-3.094 1.98-4.839 5.621-8.479 6.754-2.049.637-2.378 4.03 0 4.49 3.825.739 5.99-.812 8.585-3.1 3.881 4.663 11.848 3.472 16.249.085-1.244 2.352-3.583 3.746-5.767 5.113-2.138 1.338-1.528 5.61 1.416 5.226a13.286 13.286 0 0 0 9.917-6.807c1.967-3.049 1.48-7.911 5.117-9.606 3.815 8.059 8.952 16.932 8.183 26.211z"/><path d="m217.483 177.691c-2.128 1.264-1.013 4.107 1.175 4.338.779.082 1.526 1.11 2.15 2.344-5.98 6 3.073 18.105 8.1 8.924 1.676-5.186-4.564-19.682-11.425-15.606z"/><path d="m349.34 153.835c1.865 4.438 8.254.911 6.219-3.185-1.859-4.45-8.322-.944-6.219 3.185z"/><path d="m359.32 133.76c12.562 1.589 14.255-16.889 1.786-17.195-11.12-1.23-12.426 15.135-1.786 17.195zm-1.476-9.338a2.747 2.747 0 0 1 2-2.226c9.271 1.469-.77 10.541-2 2.226z"/><path d="m290.713 348.36c5.191.407 10.392-3.9 10.4-9.046.011-8.639-13.653-15.417-19.094-1.839-2.002 4.994 3.392 10.469 8.694 10.885zm1.487-12.96c3.468.957 2.783 6.755-.764 6.456-5.26-1.305-3.978-7.07.764-6.456z"/><path d="m92.337 183.191c1.329 10.616 16.646 10.348 17.662-.21.778-11.69-17.924-13.181-17.662.21zm9.356-3.4c2.888.58 2.168 5.243-.831 4.929-3.457-.32-2.357-5.642.831-4.932z"/><path d="m39.262 353.955c-12.311 9.643 1.539 26.179 13.52 16.836 11.711-10.027-2.419-28.865-13.52-16.836zm8.855 12.222c-3.414 2.615-9.246-1.255-6.638-5.272a3.292 3.292 0 0 0 2.183-1.331c5.087-6.236 9.944 3.005 4.455 6.603z"/><path d="m321.075 412.02c-6.432-1.615-14.723 2.112-15.453 9.266a10.191 10.191 0 0 0 11.5 10.975c9.878-.647 13.763-16.553 3.953-20.241zm-4.839 13.7c-3.382.569-5.595-3.928-3.087-6.124 2.545-.319 6.873-2.867 6.978 1.326a4.551 4.551 0 0 1 -3.891 4.796z"/><path d="m451.418 316.038c.257 2.051.675 4.054 2.4 5.609 2.236 6.767 14.529 5.159 17.377-.911 3.37-5.79-.13-14.191-6.67-15.8-6.667-1.643-13.789 4.164-13.107 11.102zm13.8 1.462c-2.075 3.146-7.218 1.689-7.5-1.885-.243-2.734 3.1-5.27 5.621-4.105 2.075.958 3.211 4.045 1.879 5.99z"/><path d="m402.065 334.629c-1.653-5.342-9.513-1.78-6.829 3.018 2.081 3.842 8.164 1.042 6.829-3.018z"/></g></svg>