<svg height="512" viewBox="0 0 500 500" width="512" xmlns="http://www.w3.org/2000/svg"><g id="Layer_4" data-name="Layer 4"><path d="m211.817 330.285 31.552 1.941s-8.7 63.343 30.72 106.363h-91.727s-9.592-4.22-2.817-14.268a149.411 149.411 0 0 1 12.331-16.091s-10.241-12.081 3.945-13.516l8.123 2.821s12.32-20 12.078-32.961c0 0-12.211-6.685.787-12.863z" fill="#ffda76"/><path d="m274.089 438.589c-39.422-43.02-30.72-106.363-30.72-106.363l-31.552-1.941 4.992 21.426h9.729s6.24 5.137 1.5 12.863h-12.016a32.385 32.385 0 0 1 -1.224 8.619l23.366 8.517 2.813 17.276h-22.02s9.4 8.876.68 14.415c0 0 13.373 11.629 9.877 25.188z" fill="#f48a4e"/><path d="m11.887 167.22s13.209-11.127 29.169-9.751 32.252 12.039 43.753 27.512 56.039 56.293 124.191 58.694c0 0 64.69 13.559 118.156-26.417 0 0 25.4-21.413 43.284-47.068 0 0 4.128-10.245 30.27-9.419 0 0 13.741-17.975 37.149-12.149s36.323 25.257 36.323 25.257l15.685 1.777s-5.228 12.442-14.309 15.151a27.526 27.526 0 0 1 .826 31.662s-11.83 23.231-37.972 23.421c0 0-13.759-.094-34.4-13.025a29.63 29.63 0 0 0 -20.752-4.828s-15.847 2.02-10.618-10.471 17.061-11.607 17.061-11.607l17.886 8.2s-5.778-12.4 5.229-17.48 16.235 5.919 16.235 5.919-.964 9.872-7.361 10.166c0 0-6.123 8.3 7.636 12.692 0 0 31.095 5.489 34.122-26.156 0 0 4.4-21.613-23.665-29.106 0 0-47.881-7.1-73.747 52.279 0 0-16.786 47.822-28.069 58.829s-37.148 36.049-70.995 45.955c0 0-14.3 5.779-26 7.155s-54.641-3.444-71.039-23.394l-22.663-9.9s-24.491 1.926-29.72-26.692c0 0-23.94-38.279-27.242-46.382s-15.919-25.443-15.919-25.443-26.734-30.965-58.929-32.4z" fill="#ffda76"/><g fill="#f48a4e"><path d="m476.387 222.469a29.45 29.45 0 0 0 4.217-10.5c-1.106-1.983-2.335-3.908-3.6-5.774-3.7-5.44-8.124-10.838-13.644-14.184a21.762 21.762 0 0 1 .1 7.279c-3.027 31.646-34.122 26.157-34.122 26.157-13.759-4.388-7.636-12.692-7.636-12.692 6.4-.294 7.361-10.166 7.361-10.166s-5.228-11-16.235-5.919-5.229 17.48-5.229 17.48l-17.886-8.2s-11.833-.885-17.061 11.607 10.618 10.471 10.618 10.471a29.63 29.63 0 0 1 20.752 4.828c20.638 12.931 34.4 13.025 34.4 13.025 26.132-.181 37.965-23.412 37.965-23.412z"/><path d="m226.538 300.162-1.084-11.623s-27.348-2.806-54.036 24.15a49.4 49.4 0 0 0 12.494 9.343 56.838 56.838 0 0 1 26.894-19.164 7.219 7.219 0 0 1 8.418 3.257 22.667 22.667 0 0 0 20.29 11.508c-11.363-5.106-12.976-17.471-12.976-17.471z"/><path d="m337.972 281.3c4.8-4.685 10.6-16.042 15.681-27.541a108.825 108.825 0 0 0 -6.548-15.968 26.335 26.335 0 0 1 -11.082 9.962c-1.606 19.705-22.456 20.776-30.292 20.475a6.771 6.771 0 0 0 3.239 7.912c-18.358 2-16.607 7.8-16.607 7.8-5.65 19.341-18.274 20.692-18.274 20.692 3.864 8.872 2.812 15.49-.215 20.353 30.451-11.039 53.596-33.44 64.098-43.685z"/><path d="m403.777 178.083c3.16-7.542 6.239-16.992 6.329-25.323a36.931 36.931 0 0 0 -9.393 8.011c-22.287-.7-28.57 6.634-29.939 8.815 2.367 4.177 6.355 15.395-2.441 27.9a141.8 141.8 0 0 0 -12.392 20.2 8.149 8.149 0 0 1 -5.723 4.518c-2.693.5-6.331 2.781-8.641 10.76-4.042 13.964-20.083 18.4-20.083 18.4a29.59 29.59 0 0 0 21.169-3.97l11.206 5.87c6.751-15.354 12.172-30.8 12.172-30.8 10.507-24.117 24.648-37.264 37.736-44.381z"/><path d="m248.779 274.757s-.129 36.571 35.5 21.032c0 0-3.949 16.952-23.791 12.714s-17.8-22.718-15.762-28.86 4.053-4.886 4.053-4.886z"/><path d="m200.5 274.651s8.356 6.169-4.678 16.368l31.893-7.079s-11.983-6.359-2.317-14.792c-7.951-.202-16.243 1.585-24.898 5.503z"/><path d="m153.629 245.89s2.088 12.929-7.3 18.164a6.537 6.537 0 0 0 -2.1 9.649c3.625 4.787 10.958 10.105 25.713 10.628 0 0-40.7 11.986-37.087-25.893l3.134-2.147s16.123 2.314 17.64-10.401z"/><path d="m301.172 270.525c-.641.339-8.978-5.82-2.007-19.341s12.448-7.509 12.448-7.509 4.451 18.977-10.441 26.85z"/></g><path d="m209.322 411.139a32.738 32.738 0 0 0 -4.066-15.845c-.8 1.413-1.312 2.241-1.312 2.241l-8.123-2.821c-14.186 1.435-3.945 13.516-3.945 13.516a149.411 149.411 0 0 0 -12.331 16.091c-6.775 10.048 2.817 14.268 2.817 14.268h12.177a32.846 32.846 0 0 0 14.783-27.45z" fill="#fff"/><path d="m32.447 157.856s11.966-15.581 35.676-6.66 45.587 36.855 45.587 36.855l33.706 12.6s11.97-8.125 20.79 0c0 0 22.23-2.534 37.26-7.882s23.3 1.267 23.3 1.267 8.114-10.953 33.629-1.267l36.774 3.532s30.007-.817 51.742-26.111l10.574 11.836-24.434 30.84-61.741 26.352s-39.7 14.5-91.041 1.825-66.8-25.705-76.923-34.22-41.516-41.249-41.516-41.249z" fill="#ffda76"/><path d="m32.447 157.856s11.966-15.581 35.676-6.66 45.587 36.855 45.587 36.855l33.706 12.6s11.97-8.125 20.79 0c0 0 22.23-2.534 37.26-7.882s23.3 1.267 23.3 1.267 8.114-10.953 33.629-1.267l36.774 3.532s30.007-.817 51.742-26.111l10.574 11.836-24.434 30.84-61.741 26.352s-39.7 14.5-91.041 1.825-66.8-25.705-76.923-34.22-41.516-41.249-41.516-41.249z" fill="#ffda76"/><path d="m302.286 196.033c5.365 4.962 17.126 14.054 31.1 13.826a69.547 69.547 0 0 0 12.052-7.582l16.044-20.251-10.575-11.836c-17.518 20.386-40.397 24.869-48.621 25.843z" fill="#f48a4e"/><path d="m216.022 217.258s23.535 2.271 18.432 27.657c0 0 19.251 2.575 30.4-3.872 0 0-21.688-8.834-21.37-28.177l-11.653-6.907-14.278 3.905z" fill="#f48a4e"/><path d="m194.627 220.129c-10.9-4.119-11.88-14.442-11-21.851-6.314 1.17-11.645 1.9-14.047 2.205a36.953 36.953 0 0 0 1.839 8.653c4.495 13.124 23.208 10.993 23.208 10.993z" fill="#f48a4e"/><path d="m278.114 218.953s-14.75-3.427-10.467-23.41l-13.164-1.9 4.346 20.617s11.831 10.816 19.285 4.693z" fill="#f48a4e"/><path d="m132.624 218.953 23.73-1.695 21.6 20.531s-30.049.327-45.33-18.836z" fill="#f48a4e"/><path d="m148.84 199.814c-.9.484-1.424.837-1.424.837l-19.432-7.264c-13.209 5.413-28.176 3.635-28.046 4.286 1.2 5.985 18.3 16.221 18.3 16.221 10.808.3 30.6-14.079 30.602-14.08z" fill="#f48a4e"/><path d="m277.233 237.325c-.49.157-.982.317-1.464.464a7.406 7.406 0 0 0 1.464-.464z" fill="#f48a4e"/><path d="m286.814 211.615c4.109 18.345-5.722 24.185-9.581 25.71 22.888-7.362 53.393-25.71 53.393-25.71l-28.34-15.582z" fill="#f48a4e"/><path d="m41.056 157.469c-.771-.067-1.533-.1-2.289-.107a58.85 58.85 0 0 0 45.989 27.551c-11.498-15.435-27.763-26.071-43.7-27.444z" fill="#fff"/><path d="m68.123 151.2c-15.488-5.828-25.962-1.2-31.366 2.711a58.84 58.84 0 0 0 3.528 5.761l25.545 5.906s8.953 9.335 18.837 19.332c1.338.091 2.684.154 4.046.154a58.782 58.782 0 0 0 19.573-3.345c-7.941-8.789-23.6-24.29-40.163-30.519z" fill="#fff"/><ellipse cx="158.869" cy="205.1" fill="#fff" rx="10.256" ry="8.799"/><path d="m121.9 286.888a38.862 38.862 0 0 0 -34.32-64.281 49.622 49.622 0 0 1 2.737 5.43c3.3 8.1 27.242 46.382 27.242 46.382a39.444 39.444 0 0 0 4.341 12.469z" fill="#fff"/><path d="m437.862 148.622c-.632-.157-1.253-.289-1.87-.412a24.532 24.532 0 0 0 8.466 23.464 36.656 36.656 0 0 1 8.949 4.71 24.55 24.55 0 0 0 20.312-3.167c-2.483-3.424-15.001-19.403-35.857-24.595z" fill="#fff"/><ellipse cx="238.871" cy="258.585" fill="#fff" rx="15.428" ry="12.866"/><path d="m199.745 193.64 19.025-3.613 13.49 3.36s17.127-19.6 16.519-19.508-7.8-30.867-7.8-30.867l4.773-12.8-6.879-9.858-3.807-39.087s9.35-11.761 3.1-17.987-20.6.519-19.74 8.648a11.572 11.572 0 0 0 7.974 10.033s-12.819 9.742-13.511 22.31 4.843 16.2 3.978 22.972c0 0-14.355-.142-10.723 10.581s11.588 7.091 11.588 7.091.421 11.86-10.34 14.491c0 0-8.61 5.56 0 14.473 0 0-9.892 8.99-7.647 19.761z" fill="#ffda76"/><path d="m238.871 145.152h-10.109c4.455 16.316-5.318 23.53-5.318 23.53l-2.639.855c.958 10.432-2.72 16.528-7.469 20.073 1.624-.683 2.686-1.176 2.686-1.176s14.3 7.9 13.932 7.6 16.966-7.1 16.966-7.1z" fill="#f48a4e"/><path d="m218.987 142.264s10.642-2.171 11.141-16.179h16.792l-1.89 15.192-6.159 2.565z" fill="#f48a4e"/><path d="m236.279 94.692-1.215-12.476s9.35-11.761 3.1-17.987-20.6.519-19.74 8.648a11.572 11.572 0 0 0 7.976 10.031s-12.819 9.743-13.511 22.31a34.132 34.132 0 0 0 .245 6.6 45.005 45.005 0 0 0 23.145-17.126z" fill="#fff"/></g><g id="Layer_5" fill="#3a3245" data-name="Layer 5"><path d="m492.008 169.788a3.958 3.958 0 0 0 -4.353.4 9.659 9.659 0 0 1 -13.365-2.65c-12.523-21.917-53.935-31.106-84.425-12.108-11.356-4.993-31.833-.024-46.934 16.36-13.411 14.76-34.473 23.9-55.072 20.421-7.382-1.088-14.527-2.183-22.864-3.12a30.368 30.368 0 0 0 -8.253-13.913c6.41-5.2 3.545-19.535-6.178-21.095-3.25-.736-4.384-4.15-4.282-7.092 16.25.267 16.249-23.974.006-23.711a14.63 14.63 0 0 1 2.425-8.325c6.828-11.046.825-22.387-9.849-31.749 10.929-8.053 4.764-26.539-9-26.254-13.755-.285-19.93 18.188-9.013 26.245-10.063 8.83-16.7 20.433-9.707 31.758a14.642 14.642 0 0 1 2.427 8.325c-16.251-.261-16.239 23.981.005 23.711.1 2.943-1.031 6.354-4.282 7.092-9.725 1.556-12.59 15.91-6.173 21.1a31.091 31.091 0 0 0 -8.842 16.509c-8.7 1.865-17.9 4.138-26.494 4.836-5.154-3.384-12.488-3.718-17.447-.121-17.8-1.748-32.56-8.732-42.708-20.237-21.1-26.413-54.034-43.744-79.9-20.144a54.016 54.016 0 0 0 -20.573 10.932c-2.643 2.355-.608 7.075 2.928 6.726 27.905-1.794 51.47 20.089 66.326 38.757 14.3 17.329 22.226 42.506 36.684 59.776 2.063 17.228 15.383 30.394 33.473 33.314a160.094 160.094 0 0 0 63.537 28.161 65.937 65.937 0 0 1 2.413 14.308c-7.417 3.1-7.912 14.4-.964 18.223a67.93 67.93 0 0 1 -9.99 25.942c-4.355-.813-9.479-1.914-13.163 1.028a10.673 10.673 0 0 0 -1.551 15.825 64.653 64.653 0 0 0 -13.794 16.7c-4.429 7.4 1.6 17.615 10.218 17.323h95.161a11.578 11.578 0 0 0 10.065-5.761c5.985-10.924-7.144-21.8-14.948-29.432 6.417-9.62-3.932-19.573-13.6-15.984a68 68 0 0 1 -9.827-25.791c6.334-3.912 5.861-14.474-.948-17.79a68.667 68.667 0 0 1 1.877-12.57c70.014-5.812 105.288-64.7 119.3-111.359 3.8 7.821 11.508 7.622 18.722 5.684 7.783-1.39 14.167 7.135 20.334 10.818 35.523 22.68 85.886-6.6 73.061-49.9 8.237-3.064 15.158-17.409 9.537-21.168zm-271.719 177.531a79.626 79.626 0 0 0 -1.332-10.213c7.241 1.379 15.873.392 13.811 10.7a123.276 123.276 0 0 1 -12.479-.487zm-3.955 12.522c-2.841-.547-2.463-5.084.511-5.012a132.266 132.266 0 0 0 20.641.624c6.497 9.204-15.38 5.31-21.152 4.388zm14.676 9.259c.536 0 1.056-.011 1.578-.021a77.221 77.221 0 0 0 4.853 25.107q-6.53.273-13.045.079a77.278 77.278 0 0 0 4.882-25.185c.584.011 1.163.02 1.732.02zm1.92-40.656c-.721 0-14.345.113-34.494-5.773a25.93 25.93 0 0 1 -6.2-4.822c-5.06-5.385-7.084-11.268 1.331-14.285a22.622 22.622 0 0 0 2.814 7.645c2.207 3.443 7.029.46 5.392-3.153-3.934-10.539 13.373-13.7 20.406-14.555.867 12.106 6.771 28.183 25.065 34.721a142.109 142.109 0 0 1 -14.314.22zm67.986-126.6a7.365 7.365 0 0 1 6.262 1.4 48.528 48.528 0 0 0 18.178 9.013 33.629 33.629 0 0 1 -14.856-.557c-17.385-3.572-16.476 23.4-41.02 21.125-14.541-.648-23.238-17.479-22.06-25.827a3.927 3.927 0 0 0 -3.869-4.4c-3.759.83-5.627 2.665-7.51.867-5.567-8.158 14.453-18.334 15.981-1.958a37.526 37.526 0 0 0 5.226 15.323c5.841 9.712 20.652 11.019 28.313 2.739a50.025 50.025 0 0 0 8.613-12.522 10.058 10.058 0 0 1 6.742-5.205zm-.2 51.395c1.667-2.92 4.373-4.908 7.251-6.57a21.351 21.351 0 0 1 .845 8.777c-.641 2.785-3.8 14.186-7.836 9.245-2.504-3.277-2.237-7.927-.263-11.454zm42.1-1.619c-6.053 16.52-16.293 18.913-32.3 19.833 1.451-15.109 24.21-14.863 33.3-24.056a25.664 25.664 0 0 1 -1.005 4.221zm11.652-19.305a28 28 0 0 0 -1.534-2.7c-1.388-2.143-5.419-2.155-5.945.777-1.439 8.008-7.019 12.6-13.6 16.037 1.539-4.92.978-10.419 1.254-15.46 1.963-9.766 7.583-17.566 14.3-24.753 15.758-14.8 11.51-17.272 33.8-36.429 7.854-5.9 14.621-.926 9.7 7.816-2 4.072-5.86 6.631-8.891 9.824a115.277 115.277 0 0 0 -16.33 21.691c-2.48 4.148-4.78 8.4-6.955 12.72-1.447 2.855-2.995 8.021-5.804 10.475zm-128.063-136.659a27.648 27.648 0 0 1 3.611-6.637c9.233 12.208 1.422 15.671 0 27.573.022-7.465-7.069-13.358-3.611-20.936zm4.1 113.658c.065-.057.124-.12.187-.178a10.532 10.532 0 0 0 7.43 2.864c2.034 2.685 2.567 9.16 3.542 11.709 2.595 6.894 7.06 13.2 13.684 16.76-23.847 2.471-32.627.9-51.891-.461 10.1-5.992 18.017-16.151 18.874-28.049a10.713 10.713 0 0 0 8.174-2.645zm-89.766 14.34c19.884-4.065 16.014-1.354 29.2 10.534a155.305 155.305 0 0 1 -29.2-10.534zm15.7 21.741a18.149 18.149 0 0 0 -1.533-7.606c20.11 3.828 15.126 28.554 18.883 44.112-17.163 5.781-42.137-.477-37.163-22.042 10.028 2.885 19.262-.415 19.815-14.459zm25.432 33.224c-3.133-11.522-.165-23.808-5.435-34.944q3.276.7 6.657 1.313c5.072 3.681 3.552 10.587 4.151 16.023.334 4.568.8 9.723 1.039 14.437-2.165 1.096-4.308 2.18-6.41 3.171zm14.85-7.248c-3.648-11.708 4.731-10.776 8.049-19.953a6.631 6.631 0 0 1 4.879-3.031c9.1.724 18.654 1.1 28.732 1.1 12.957 1.79 63.863-8.8 86.771-25.528-2.431 10.21.569 23.031-9.175 30.017-.082-3.979-1.289-18.342-7.72-15.245-6.4 3.929-13.645 8.773-14.991 16.735-21.516-11.059-34.731 25.534-21.107 19.092 10.707-11.242 19.871 5.2 13.278 14.84-5.006 9.995-11.9 13.819-17.207 15.223-15.715.455-23.493-13.651-18.934-27.525 1.88-2.754-.164-6.29-3.087-7.182-22.53-7.629-37.266-3.967-49.486 1.457zm96.985 6.976c-.753-8.373-9.536-16.306-17.133-13.733 2.828-3.673 7.088-5.784 12.284-4.048 6.577 2.311 6.927 10.574 6.621 16.4q-.895.634-1.77 1.381zm39.794-88.6a85.434 85.434 0 0 0 16.525-14.092c2.819.26 3.991 4.471 3.641 7.37-1.594 10.674-10.307 19.328-20.183 22.933-4.611-.663-12.735-2.491-19.657-7.448a65.43 65.43 0 0 0 19.674-8.762zm-46.78 10.184q1.315.195 2.63.336c-3.183 4.487-5.836 10.719-9.366 13.848-4.352 4.706-12.828 4.057-16.16-1.475-2.977-4.021-3.682-10.928-5-16.339 10.286.973 19.029 2.321 27.896 3.63zm-56.858-135.176c5.829-.456 5.786 7.42 2.188 10.184-3.687 3.069-8.166.828-9.061-3.144a6.88 6.88 0 0 1 6.873-7.04zm-12.215 45.9c-3.388-5.054-.863-9.85 1.979-14.63-2.684 10.244 5.663 15.905 4.33 27.259h-2.614a22.341 22.341 0 0 0 -3.695-12.629zm-8.647 24.485c.138-4.517 4.722-4.159 8-4.056h20.566c4.7-.082 4.034 5.805 1.084 8.112h-25.591a4.06 4.06 0 0 1 -4.059-4.056zm-.8 34.119c-1.486-2.543-1.169-6.5 3.033-7.618 6.007-1.446 9.847-7.057 10.09-13.019 6.079.675 14.01-1.718 16.391 5.25 1.9 5.124-1.405 10.654-6.394 12.236-8.258-.3-16.045 1.466-21.049 4.082a3.725 3.725 0 0 1 -2.071-.931zm21.661 4.62a48.766 48.766 0 0 1 5.053.256 7.608 7.608 0 0 1 3.117 5.454c1.238 7.616-6.494 9.317-12.477 7.639-6-3.639-14.732-3.085-19.357 2.4q-1.778.257-3.564.545c2.003-6.208 8.182-16.294 27.229-16.294zm-42.061 27.212c4.744-1.137 9.516-2.105 14.256-2.913-1.976 22.191-18.164 26.507-27.834 5.441a134.228 134.228 0 0 0 13.578-2.528zm-27.4.717a10.094 10.094 0 0 1 6.819 5.24 49.984 49.984 0 0 0 8.614 12.522c7.664 8.279 22.472 6.974 28.313-2.74a37.519 37.519 0 0 0 5.225-15.322c.706-5.292 3.139-8.41 6.852-8.78 4.99-.839 13.088 5.767 9.13 10.738-2.45 2.645-6.341-2.515-9.7-.175a3.926 3.926 0 0 0 -1.679 3.679c-.2 26.9-32.92 36.695-48.771 10.611-3.34-4.809-9.546-8.3-15.071-5.6-5.265 2.6-13.8 3.74-20.62 2.929 7.991-2.45 18.387-6.385 24.734-11.7a7.213 7.213 0 0 1 6.146-1.402zm-105.159-49c35.668-.521 46.561 45.255 84.774 49.914a128.034 128.034 0 0 1 -21.652 7.141c-25.263-18.298-41.101-51.987-72.869-55.346a45.607 45.607 0 0 1 9.739-1.717zm-27.1 11.142a39.542 39.542 0 0 1 29.748 2.113 43.127 43.127 0 0 1 6.217 9.7c.484 1.235 4.754 16.119 3.913 15.828-12.522-12.01-28.155-22.513-46.03-25.161a45.572 45.572 0 0 1 6.146-2.484zm71.963 72a151.47 151.47 0 0 0 -15.691-25.91c-4.371-10.177-6.346-21.685-10.013-32.3 17.723 17.882 34.972 39.395 59.789 51.3a21.62 21.62 0 0 0 -10.189 5.671c-1.551-6.681-9.327-10.92-15.987-9.786-3.066-.9-5.26 3.728-2.248 5.269 10.751 5.453 7.788 17.591 7.052 28.244a190.734 190.734 0 0 1 -12.717-22.489zm24.343 46.4c-11.112-18.381 2.216-56.465 21.9-43.412 3.253 2.541 3.071 11.821-.622 13.429-2.387 1.3-6.308.759-9.538-1.32a3.9 3.9 0 0 0 -3.318-.43c-3.492.737-7.722 15.5-1.118 27.664 4.268 7.181 12.173 11.566 23.5 13.034 35.747 3.447 45.326-27.534 84.692-15.2-1.756 5.767-3.926 16.568.791 25.243 10.53 16.9 38.029 17.5 51.686-8.462 6.952-14.47 17.816-13.22 29.656-13.877a1.264 1.264 0 0 1 .494 2.451c-13.734 4.967-15.895 4.692-30.392 26.507-9.489 12.246-24.94 17.674-39.364 13.826-25.923-6.914-22.854-34.275-22.712-35.427.468-5.047-5.951-4.866-9.424-5-8.967 0-17.881 3.839-27.211 7.857-18.037 9.778-55.927 17.28-69.026-6.884zm94.589 86.5c.036-.2.062-.408.1-.61 1.3.189 2.582.341 3.839.464a97.987 97.987 0 0 1 -5.342 25.246q-3.815-.252-7.618-.671a75.894 75.894 0 0 0 9.015-24.43zm-27.16 32.78a2.843 2.843 0 0 1 3.668-2.566 191.218 191.218 0 0 0 50.381 2.395c2.679 1.922 1.459 5.79-1.68 6.544-9.69.697-51.91.128-52.369-6.373zm-11.949 31.694c-2.654-5.085 9.238-15.785 13.716-19.923 10.173 5.387 22.336 4.645 33.445 5.977 12.7.566 24.119.915 26.986 15.864h-70.8a3.822 3.822 0 0 1 -3.347-1.918zm229.192-254.508a38.006 38.006 0 0 1 48.176 6.357c2.8 8.838 4.854 18.7-.526 26.973-5.735 9.813-29.948 16.383-33.4 1.879 6.035-.9 10.439-6.237 8.9-12.9-5.73-16.081-29.574-10.519-28.77 6.839-6.318-3.756-13.215-6.566-20.233-5.5a102.3 102.3 0 0 1 25.853-23.648zm3.463 21.154c9.607-7.962 21.578 7.293 7.506 7.764-4.706.209-3.18 7.019-2.446 9.832-6.498-3.261-12.095-11.027-5.06-17.596zm-2.433 33.1c-5.566-3.728-9.852-9.073-16.822-10.026-5.745-.786-15.5 5.1-17.2-3.594-1.63-8.324 7.849-11.41 14.267-9.549a52.083 52.083 0 0 1 13.237 6.423c7.629 4.9 13.906 10.535 23.234 12.291 18.384 4.306 39.337-6.707 39.777-26.017 8.482 7.589 7.978 22.53-.907 29.392-15.643 13.73-39.088 12.126-55.586 1.076zm62.912-48.085c-4.316 0-7.081-2.024-10.675-5.758-20.205-21.473-41.079-7.105-39.268-22 .721-3.271 4.013-3.927 7.354-4.351 38.721 1.869 32.122 27.923 53.784 26.653-1.749 2.807-5.032 5.452-11.195 5.452z"/><path d="m206.385 315.339c-3.051-3.215-7.97 1.508-4.854 4.667 2.98 3.049 7.924-1.597 4.854-4.667z"/></g></svg>