<svg height="512" viewBox="0 0 500 500" width="512" xmlns="http://www.w3.org/2000/svg"><g id="Layer_4" data-name="Layer 4"><path d="m292.682 283.562a84.623 84.623 0 0 1 -6.194-53.06 73.944 73.944 0 0 0 -24.051 4.388c-4.721 1.706-9.48 3.933-14.49 3.637-4.617-.272-8.886-2.676-13.492-3.094-9.4-.852-17.307 6.434-24.267 12.811s-16.163 12.745-25.109 9.733c-2.58-.868-4.893-2.48-7.548-3.08-8.351-1.884-15.047 6.326-21.177 12.3-16.65 16.234-42.541 20.33-58.675 37.076l-2.454 2.912a132.958 132.958 0 0 0 2.566 62.584c.344 1.2.865 2.56 2.054 2.931a3.9 3.9 0 0 0 2.837-.624l24.136-12.394c-3.247 8.925 3.313 18.358 3.648 27.85.143 4.037-.857 8.018-1.849 11.934q-4.134 16.323-8.27 32.648c-1.558 6.153-3.126 12.559-1.867 18.78.9 4.462 3.207 8.507 5.671 12.336 6.561 10.2 15.067 19.9 26.5 23.927 9.727 3.428 20.589 2.337 30.344-1.009s18.62-8.812 27.392-14.234l32.557-20.114c2.809-1.736 5.768-3.636 7.161-6.631 1.338-2.875.976-6.217.586-9.364q-2.964-23.919-5.929-47.84c-1.584-12.781-3.124-26.062.916-38.29 2.142-6.481 5.767-12.363 9.625-17.994a217.443 217.443 0 0 1 38.062-42.342 5.141 5.141 0 0 0 2.063-2.811 5.22 5.22 0 0 0 -.746-2.966z" fill="#fff5f3"/><path d="m286.352 264.281c-38.45 12.533-43.5 33.7-55.041 45.357-3 3.03-6.082 6.189-7.559 10.188-2.336 6.326-.4 14.09-4.385 19.533-2.945 4.025-8.208 5.448-13.059 6.607l-67.882 16.219 36.4 7.379c8.623 1.748 17.681 3.707 24.259 9.551 6.794 6.036 9.784 15.212 11.821 24.069 2.7 11.723 4.182 24.256.16 35.592 5.176.438 9.01 5.458 9.868 10.581s-.562 10.323-1.969 15.323l-.238.847 22.216-13.73c2.809-1.736 5.768-3.636 7.161-6.631 1.338-2.875.976-6.217.586-9.364q-2.964-23.919-5.929-47.84c-1.584-12.781-3.124-26.062.916-38.29 2.142-6.481 5.767-12.363 9.625-17.994a217.443 217.443 0 0 1 38.062-42.342 5.141 5.141 0 0 0 2.063-2.811c.167-1.025-6.879-21.261-7.075-22.244z" fill="#c9a6a6"/><path d="m118.856 329.222a87.471 87.471 0 0 1 -15.575 9.914 65.251 65.251 0 0 1 -10.271 3.664 132.225 132.225 0 0 0 4.781 26.969c.344 1.2.865 2.56 2.054 2.931a3.9 3.9 0 0 0 2.837-.624c8.045-4.131 25.537-10.426 27.617-22.416 1.457-8.4 6.534-15.723 10.559-23.234l6.722-12.541 6.094-23.807c-7.185 16.127-20.736 28.496-34.818 39.144z" fill="#c9a6a6"/><path d="m252.961 175.368c-2.016-2.641-5.844-2.856-8.827-4.318-6.249-3.062-7.965-10.918-10.573-17.37a43.968 43.968 0 0 0 -48.878-26.734l-9.912-2.266a399.423 399.423 0 0 0 -21.8 57.061c-3.331 11.23-6.032 23.9-.44 34.194 3.129 5.758 8.6 10.028 14.66 12.519a50.758 50.758 0 0 0 19.249 3.326c1.426 2.915.71 6.466-.78 9.348s-3.68 5.339-5.391 8.1c-5.892 9.493-5.56 21.77-2.089 32.39a2.039 2.039 0 0 0 .758 1.208 2.093 2.093 0 0 0 1.867-.21c14.748-6.739 30.375-14.24 38.721-28.143a67.43 67.43 0 0 0 6.252-15.137q2.645-8.647 4.506-17.51c1.333-6.346 3.115-13.754 9.079-16.3 1.669-.712 3.559-.965 5.028-2.03a9.991 9.991 0 0 0 2.622-3.325 67.612 67.612 0 0 0 6.529-16.077c.768-2.926 1.252-6.324-.581-8.726z" fill="#ffdad2"/><path d="m384.582 393.6c-.785-14.628-1.6-29.4-5.625-43.487.828-8.606.529-17.292.214-25.939q-1.129-31.046-2.26-62.089c-.3-8.172-.6-16.356-1.591-24.473-.559-4.556-1.337-9.082-2.179-13.594-.689-3.689-1.515-7.561-4.014-10.36-4.711-5.276-13.028-4.57-19.981-3.269a451.469 451.469 0 0 0 -55.9 14.211l-5.3.918a79.217 79.217 0 0 0 5.988 58.374 4.84 4.84 0 0 0 2.357 2.568c1.217.424 2.535-.151 3.684-.734 9.3-4.718 17.851-10.779 26.935-15.9 1.312-.74 2.782-1.485 4.256-1.175 2.64.556 3.434 3.858 3.843 6.524 2.343 15.275 9.305 29.409 13.662 44.237 2.7 9.192 4.275 19.582-.342 27.977-3.544 6.445-10.407 11.011-12.344 18.106-1.033 3.783-.5 7.8.145 11.668.871 5.223 2 10.574 5 14.942s8.3 7.549 13.5 6.552c.329-.063.651-.143.968-.235q.835 13.492 1.67 26.983a4.7 4.7 0 0 0 .539 2.286c1.314 2.04 4.46.937 6.509-.363 8.075-5.126 16.749-11.019 19.459-20.192 1.282-4.356 1.05-8.996.807-13.536z" fill="#ffdad2"/><path d="m95.879 373.063a185.879 185.879 0 0 1 -1.435-66.892l-2.653 1.711a191.579 191.579 0 0 0 -22.863 22.783l-8.635-36.086c-.759-3.175-6.416-30.86-4.826-41.605a19 19 0 0 1 2.351-7.359c3.44-5.508 11.07-7.592 13.8-13.485a19.835 19.835 0 0 0 1.362-7.257c.349-6.081.571-12.168.793-18.255a8.929 8.929 0 0 0 -.687-4.716c-.783-1.406-2.7-2.309-4.059-1.437a146.4 146.4 0 0 0 .023-33.057c-.349-3.093-1-6.522-3.523-8.341-3.458-2.489-8.244-.59-12.034 1.357-6.6 3.391-19.666 11.934-19.666 11.934-6.918 15.016-7.362 32.092-7.687 48.621-.119 6.075-.221 12.281 1.64 18.065.728 2.267 1.751 4.439 2.33 6.749a33.245 33.245 0 0 1 .451 10.5c-.988 13.506-4.981 47.292-5.323 50.76-2.066 20.965 2.071 41.986 3.273 63.018.256 4.478.388 9.019 1.657 13.32s3.854 8.427 7.841 10.481c4.6 2.367 10.136 1.613 15.184.486a124.746 124.746 0 0 0 41.25-17.473 3.747 3.747 0 0 0 1.394-1.319 3.868 3.868 0 0 0 .042-2.503z" fill="#ffdad2"/><path d="m272.324 128.1c-1.3-2.382-3.236-4.421-4.16-6.97-1.351-3.731-.312-7.879-.783-11.819-1-8.38-8.5-14.381-15.906-18.427a225.738 225.738 0 0 0 -47.875-18.93c-26.121-7.255-41.139-33.2-41.139-33.2a51.973 51.973 0 0 0 -6.88 38.863 29.267 29.267 0 0 0 -8.745-3.138 38.1 38.1 0 0 0 9.858 38c9.57 9.136 23.181 12.512 36.259 14.517 6.511 1 13.18 1.779 19.156 4.549 9.579 4.439 16.227 13.453 21.229 22.75 2.03 3.774 3.948 7.766 7.208 10.547 6.539 5.577 17.1 4.415 23.688-1.1s9.66-14.324 10.22-22.9c.288-4.351-.042-8.906-2.13-12.742z" fill="#ffc17d"/><path d="m268.164 121.13c-1.351-3.731-.312-7.879-.783-11.819-1-8.38-8.5-14.381-15.906-18.427-.348-.19-.7-.365-1.054-.553a30.133 30.133 0 0 1 2.676 12.041c.014 8.327-4.568 16.918-12.256 20.117-6.049 2.517-13.006 1.488-19.224-.578s-12.11-5.119-18.473-6.682c-11.537-2.835-23.65-.577-35.521-1.043a50.73 50.73 0 0 1 -10.785-1.578c9.563 9.039 23.1 12.4 36.119 14.392 6.511 1 13.18 1.779 19.156 4.549 9.579 4.439 16.227 13.453 21.229 22.75 2.03 3.774 3.948 7.766 7.208 10.547 6.539 5.577 17.1 4.415 23.688-1.1s9.66-14.324 10.22-22.9c.284-4.358-.046-8.913-2.134-12.749-1.297-2.379-3.236-4.418-4.16-6.967z" fill="#d37f46"/><path d="m244.134 171.05c-6.249-3.062-7.965-10.918-10.573-17.37-2.552-6.313-3.781-9.244-8.881-13.753-4.411 13.251-4.872 23.362-7.195 35.014-8.457 42.417-53.88 59.869-67.97 23.027-.581 6.279.026 12.464 3.016 17.967 3.129 5.758 8.6 10.028 14.66 12.519a50.758 50.758 0 0 0 19.249 3.326c1.426 2.915.71 6.466-.78 9.348s-3.68 5.339-5.391 8.1a28.349 28.349 0 0 0 -1.785 3.39c5.18-2.214 10.411-4.345 15.991-4.507 7.279-.212 15.41 4.412 15.963 11.673a15.286 15.286 0 0 1 -1.141 6.447 47.286 47.286 0 0 0 10.229-11.758 67.43 67.43 0 0 0 6.252-15.137q2.645-8.647 4.506-17.51c1.333-6.346 3.115-13.754 9.079-16.3 1.669-.712 3.559-.965 5.028-2.03a9.991 9.991 0 0 0 2.622-3.325 67.612 67.612 0 0 0 6.529-16.077c.768-2.923 1.252-6.321-.581-8.723-2.016-2.644-5.844-2.859-8.827-4.321z" fill="#e59e9c"/><path d="m163.6 203.826s-.19-17.276 20.076-17.912 18.8 17.985 15.61 23.972c.005 0-29.454-1.32-35.686-6.06z" fill="#fff"/><path d="m286.77 264.139a77.6 77.6 0 0 0 7.164 19.757 4.84 4.84 0 0 0 2.357 2.568c1.217.424 2.535-.151 3.684-.734 9.3-4.718 17.851-10.779 26.935-15.9 1.312-.74 2.782-1.485 4.256-1.175 2.07.436 3 2.56 3.507 4.742 3.525-7.822 5.227-16.627 6.8-25.15-17.522 7.54-35.89 15.217-54.703 15.892z" fill="#e59e9c"/><path d="m383.77 407.136c1.287-4.356 1.055-9 .812-13.532-.785-14.628-1.6-29.4-5.625-43.487.828-8.606.529-17.292.214-25.939q-1.129-31.046-2.26-62.089c-.3-8.172-.6-16.356-1.591-24.473-.559-4.556-1.337-9.082-2.179-13.594a35.038 35.038 0 0 0 -1.655-6.372c1 7.04-.739 14.225-2.01 21.262-7.333 40.6.77 82.187 1.937 123.424.246 8.7.134 17.659-3.155 25.715-2.395 5.867-6.853 11.177-12.446 13.9q.726 11.727 1.451 23.455a4.7 4.7 0 0 0 .539 2.286c1.314 2.04 4.46.937 6.509-.363 8.075-5.129 16.749-11.02 19.459-20.193z" fill="#e59e9c"/><path d="m94.444 306.171-2.653 1.711a191.579 191.579 0 0 0 -22.863 22.783l-8.635-36.086c-.759-3.175-6.416-30.86-4.826-41.605a19 19 0 0 1 2.351-7.359c3.44-5.508 11.07-7.592 13.8-13.485a19.835 19.835 0 0 0 1.362-7.257c.349-6.081.571-12.168.793-18.255a8.929 8.929 0 0 0 -.687-4.716c-.783-1.406-2.7-2.309-4.059-1.437a146.4 146.4 0 0 0 .023-33.057c-.349-3.093-1-6.522-3.523-8.341-3.458-2.489-8.244-.59-12.034 1.357l-.373.194a8.219 8.219 0 0 1 .751 1.087c2.124 3.742 1.95 8.31 1.715 12.607q-.572 10.483-1.144 20.968c-.251 4.606-.563 9.419-2.932 13.378a19.079 19.079 0 0 0 -2.2 3.912 11.486 11.486 0 0 0 -.16 4.551q.688 6.963 1.378 13.926c3.371-3.434 9.966-.144 10.722 4.609s-6.451 7.863-6.451 7.863c-2.643 1.749-6.026 7.312-7.1 10.293a11.329 11.329 0 0 0 -.325 4.63q2.65 39.043 5.3 78.087c.361 5.321.782 10.847 3.414 15.485 3.148 5.55 8.973 8.989 13.135 13.826a28.548 28.548 0 0 1 6.6 21.123 124.508 124.508 0 0 0 18.626-10.075 3.747 3.747 0 0 0 1.394-1.319 3.868 3.868 0 0 0 .043-2.506 185.879 185.879 0 0 1 -1.442-66.892z" fill="#e59e9c"/><path d="m155.517 268.44a51.156 51.156 0 0 0 -8.106 12.616 267.484 267.484 0 0 0 -19.17 60.636c-2.405 12.716-3.731 26.538 2.253 38.013 7.844-25.182 15.711-50.426 26.318-74.575 8.252-18.79 18.178-36.959 23.965-56.648a85.228 85.228 0 0 0 -25.26 19.958z" fill="#d88282"/><g fill="#deafa6"><path d="m155.517 268.734a51.284 51.284 0 0 0 -8.106 12.648 268.645 268.645 0 0 0 -19.17 60.791c-2.405 12.749-3.731 26.606 2.253 38.11 7.844-25.246 15.711-50.555 26.318-74.765 8.252-18.838 18.178-37.054 23.965-56.794-11.465 5.736-20.109 14.116-25.26 20.01z"/><path d="m241.393 372.864c-4.185-18.284-8.389-36.714-8.88-55.466a182.318 182.318 0 0 1 .7-20.238c1.4-16.457 6.325-32.347 8.943-48.654 2.953-18.4-10.981-19.778-10.981-19.778-11.873 19.986-15.386 43.875-15.955 67.131-.5 20.551 1.151 41.387 7.71 60.864 4.036 11.983 10.669 24.117 22.058 29.558a125.72 125.72 0 0 1 -3.595-13.417z"/><path d="m342.746 184.1a22.133 22.133 0 0 0 -2.6-7.724c-2.134-3.478-5.733-5.813-9.48-7.414-12.133-5.186-25.993-3.623-38.964-1.222-7.824 1.448-27.089 6.02-27.089 6.02a62.556 62.556 0 0 0 -15.85 40.59 16.405 16.405 0 0 0 1.176 7.308c1.638 3.435 5.263 5.577 8.981 6.353s7.567.38 11.338-.061a204.986 204.986 0 0 0 29.78-5.286c4.772-1.29 41.146-2.238 42.587-23.525.337-5.039 1.017-10.064.121-15.039z"/><path d="m354.98 402.553a5.37 5.37 0 0 0 -1.642-3.211c-1.061-.8-2.5-.756-3.819-.952-4.176-.623-7.524-4.011-9.271-7.865s-2.169-8.156-2.568-12.37c-.371-3.919-.736-7.926.193-11.75 1.981-8.154 9.376-13.907 12.425-21.722 2.576-6.6 1.805-14 .59-20.988q-1.474-8.467-3.737-16.771c-1.4-5.139-3.115-10.381-6.634-14.372-4.105-4.657-10.27-7.081-16.421-7.848s-31.9-2.755-49.834 27.521c-6.723 11.348-3.707 25.932-2.224 39.047.268 2.37.519 4.843-.3 7.081a12.723 12.723 0 0 1 -2.06 3.41c-1.929 2.448-4.174 4.634-6.087 7.1-7.549 9.714-9.236 22.665-10.031 34.953-.407 6.289-.648 12.651.487 18.849s3.761 12.286 8.348 16.595c4.615 4.335 10.8 6.539 16.9 8.219a142.323 142.323 0 0 0 42.193 5.031 33.42 33.42 0 0 0 10.737-1.659 26.342 26.342 0 0 0 6.378-3.626c13.457-9.997 20.176-28.316 16.377-44.672z"/></g><path d="m340.142 176.379c-2.134-3.478-5.733-5.813-9.48-7.414a40.083 40.083 0 0 0 -6.389-2.091 42.368 42.368 0 0 1 -22.8 31.131s-21.511 12.025-49.75-1.636a61.766 61.766 0 0 0 -2.967 17.984 16.405 16.405 0 0 0 1.176 7.308c1.638 3.435 5.263 5.577 8.981 6.353s7.567.38 11.338-.061a204.986 204.986 0 0 0 29.78-5.286c4.772-1.29 41.146-2.238 42.587-23.525.341-5.041 1.021-10.067.125-15.039a22.133 22.133 0 0 0 -2.601-7.724z" fill="#aa6963"/><path d="m354.98 402.553a5.37 5.37 0 0 0 -1.642-3.211c-1.061-.8-2.5-.756-3.819-.952-4.176-.623-7.524-4.011-9.271-7.865s-2.169-8.156-2.568-12.37c-.371-3.919-.736-7.926.193-11.75 1.981-8.154 9.376-13.907 12.425-21.722 2.576-6.6 1.805-14 .59-20.988q-1.474-8.467-3.737-16.771c-1.4-5.139-3.115-10.381-6.634-14.372-4.105-4.657-10.27-7.081-16.421-7.848a46.123 46.123 0 0 0 -12.994.268c20.659 12.188 28.575 76.723-17.224 80.717-9.23.805-18.529.151-27.793.227-.246.275-.491.55-.734.828 11.335 5.772 24 8.493 35.8 13.294 12.345 5.021 24.5 13.289 28.868 25.909a37.264 37.264 0 0 1 1.152 18.381 33.04 33.04 0 0 1 -5.229 13.556c-4.758 6.743-12.475 10.674-20.035 13.958-.193.084-.389.162-.583.246a141.882 141.882 0 0 0 16.157.417 33.42 33.42 0 0 0 10.737-1.659 26.342 26.342 0 0 0 6.378-3.626c13.464-9.992 20.183-28.311 16.384-44.667z" fill="#aa6963"/><path d="m232.513 317.4a182.318 182.318 0 0 1 .7-20.238s-5.506 20.431-17.585 20.673c1.013 12.162 3.413 27.341 7.3 38.89 4.036 11.983 10.669 24.117 22.058 29.558a125.72 125.72 0 0 1 -3.6-13.417c-4.178-18.286-8.386-36.716-8.873-55.466z" fill="#aa6963"/><path d="m132.014 325.24q-2.157 8.4-3.773 16.933c-2.405 12.749-3.731 26.606 2.253 38.11 6.722-21.637 13.467-43.317 21.934-64.315-7.177 9.21-15.463 11.197-20.414 9.272z" fill="#aa6963"/><path d="m144.755 346.008s42.6-9.117 72.73-7.428l5.447 18.143-83.612 7.543z" fill="#deafa6"/><path d="m222.932 356.723-5.447-18.143a187.822 187.822 0 0 0 -23.884.434c-1.33 6.146-4.854 13.944-13.389 21.563z" fill="#aa6963"/><path d="m300.578 301.284a14.51 14.51 0 0 0 -10.314 5.573 10.806 10.806 0 0 0 -1.679 3.185 108.673 108.673 0 0 0 -3.434 12.445 1.916 1.916 0 0 0 .146 1.62 1.791 1.791 0 0 0 1.8.306c3.389-.777 6.242-3.011 8.874-5.288s5.221-4.726 6.794-7.831a11.662 11.662 0 0 0 1.152-7.532 3.153 3.153 0 0 0 -3.339-2.478z" fill="#fce2e0"/></g><g id="Layer_5" fill="#3a3245" data-name="Layer 5"><path d="m141.785 74.516c-4.124 20.257 8.546 42.8 28.287 48.738a20.475 20.475 0 0 1 -.64 4.271c-10.476 22.31-19.695 45.815-23.392 70.261-2.216 11.5 1.724 21.372 11.824 27.536-3.144 10.781-2.2 22.161 5.621 30.975-28.785 26.033-67.885 39.051-94.116 68.553-4.444-25.228-10.846-50.921-10.286-76.307 9.309-6.707 18.119-12.566 17.553-25.345.251-7.746.572-15.492.7-23.242.056-2.858-3.084-3.661-5.4-3.475.219-11.142 5.447-32.627-3.018-40.873-4.786-3.319-14.229.9-18.949 2.843a30.49 30.49 0 0 0 -8.234 4.838c-3.063 2.588-4.595 5.951-8.208 7.711-3.135 1.527-4.608 3.749-5.824 7.016-3.775 10.145-4.154 22.043-4.657 32.734-.312 9.042-.742 18.191.591 27.17.722 4.274 3.262 8.147 3.637 12.429-.081 9.041-2.508 18.169-2.863 27.25-2.9 36.306-2.525 73.222 3.121 109.235 2.425 11.979 15.852 15.521 26.307 11.426 15.679-3.15 30.735-10.008 44.5-18.109 8.414-3.31 16.241-8.376 24.446-12.3 0 6.549.775 13.273 3.716 19.117-2.24 12.8-3.679 25.8-7.015 38.323-2.169 8.137-6.963 16.157-5.282 24.829 7.025 21.16 23.566 44.411 48.311 43.2 38.656-1.763 98.872-50.807 98.872-50.807 26.643 14.965 79.653 22.525 94.314-11.521 4.48 7.416 18.4-5.049 23.246-9.416 13.5-10.051 10.382-22.581 9.4-37.232-.433-7.318-1.093-14.62-2.105-21.883-1.051-7.543-3.755-15.2-3.271-22.8 2.212-40.629-.25-81.773-6.234-121.966-4.9-16.929-21.207-12.111-34.078-8.829 7.06-11.82 6.608-29.254-3.789-39.02-16.7-14.315-48.884-6.259-68.537-1.583a52.646 52.646 0 0 0 7.738-14.991c41.892-4.933 88.1-9.827 127.9-14.823 3.5-.4 3.537-5.933 0-5.531-42.177 4.781-84.41 9.286-126.6 14.07a33.156 33.156 0 0 0 -8.293-27.915c1.272-8.634-1.912-16.374-7.366-22.48q27.81 3.573 55.62 7.137c4.02.515 3.977-5.8 0-6.313q-32.332-4.184-64.69-8.348c-8.5-5.308-18.533-6.905-27.783-10.457-24.007-8.125-48.823-19.169-62.109-42-1.6-2.614-4.713-1.581-5.837.448-6.529 10.376-10.38 23.887-8.335 36.34-2.829-.616-7.598-3-8.793 1.116zm-12.368 287.378c2.468-32.863 14.951-64.029 30.934-92.494 4.059-4.733 8.295-9.6 13.556-13a517.592 517.592 0 0 0 -44.551 116.2 81.356 81.356 0 0 1 .061-10.706zm19.258-20.741a331.177 331.177 0 0 1 24.58-63.561c.82 3.8-.229 13 5.976 10.662 12.783-7.377 25.1-15.008 35.931-25.239-4.41 23.613-5.636 47.636-1.558 71.416a346.117 346.117 0 0 0 -64.929 6.722zm80.915-1.018c1.3 9.831 3.62 19.375 5.749 29.037-.067.02-.134.042-.2.063a2.352 2.352 0 0 0 -.291-.088c-11.269-15.826-16.121-34.706-16.966-54.473-1.884-25.321 3.2-50.316 9.856-74.5 3.189-2.1 7.32-3 10.836-.875-12.138 31.869-13.307 67.352-8.984 100.836zm-47.637-85.167c3.941-4.6 6.814-10.1 9.656-15.418a167.882 167.882 0 0 0 33.69-18.722c-3.071 8.845-3.5 18.25-6.47 27.046-9.788 14.091-24.262 23.734-38.8 32.381-.446-8.428-1.948-17.583 1.924-25.287zm-28.853 91.884a357.431 357.431 0 0 1 61.855-5.842 105.1 105.1 0 0 0 2.9 10.146c-23.328.628-44.866 3.5-68.332 6.166q1.792-5.233 3.577-10.47zm91.886 92.071c.043.059.082.119.124.177-.039.022-.079.041-.118.063.002-.08-.003-.163-.005-.24zm94.56-85.47a25.676 25.676 0 0 0 -4.6 7.568c-16.983 3.127-41.491 5.885-54.972-7-6.357-6.786-4.967-16.349-4.033-24.745 1.209-15.307 5.684-26.655 19.238-34.779 6.693-2.979 14.333-3.432 21.583-3.2 11.869-.093 21.811 3.783 25.547 15.838 1.738 9.107 9.342 30.368 4.582 37.965-2.105 3.058-4.96 5.529-7.344 8.353zm-73.446-46.29c-7.142 4.8-19.5 25.942-27.919 13.941-4.206-27.048 2.421-55.368 12.536-80.368 11.545-1.97 22.121-5.307 33.287-8.458-2.733 18.038-.87 38.382 8.2 54.39a234.268 234.268 0 0 0 -26.104 20.495zm-112.968-98.442c-2.029-26.4 12.616-51.9 20.841-76.348 13.962 4.731 47.627-.692 53.216 14.733 3.413 14.269-9.217 29.254 4.381 40.831a3.732 3.732 0 0 0 5.767-.743c2.271-3.622 6.437-7.111 11-7.051 7.512.1 2.113 9.252.162 12.293-3.749 6.047-12.929 13.681-18.849 6.288-1.533-1.841-4.669-1.157-5.767.743-12.318 23.233-57.014 38.258-70.751 9.254zm-28.232 82.139c4.006-2.431 8.046-4.817 12.063-7.238-1.695 11.328-2.811 22.8-6.136 33.834-5.543 20.6-14.23 39.033-31.67 52.366-5.418-19.839-3.4-40.827-1.516-60.956 8.744-6.472 17.952-12.358 27.259-18.006zm-59.965-129.688c1.119.631 1.273 4.1 1.394 5.16 1.2 10.488-.669 21.224-.794 31.764a16.17 16.17 0 0 0 -6.238 6.1 19.672 19.672 0 0 0 -2.357.383c.971-14.048 2.566-28.164 2.694-42.239 2.266-.75 4.751-1.478 5.301-1.168zm-11.27 3.186c-1.363 13.777-2.232 27.606-3.006 41.424q-4.01.79-8 1.688c.46-12.529.889-25.055 2.064-37.544a22.284 22.284 0 0 1 8.942-5.568zm-18.2 224.893c-3.676-7.051-2.7-15.775-4.053-23.5a479.208 479.208 0 0 1 -2.2-48.382 472.075 472.075 0 0 1 2.569-47.254c.741-7.028 3.215-15.172 1.873-22.205-6.554-16.31-4.121-34.376-2.729-51.51 1.02-5.394 1.117-18.22 7.033-19.66-.919 10.718-2.045 21.412-.768 32.056-.834.215-1.677.41-2.5.638-3.961 1.087-2.2 6.566 1.653 6 6.829-1.012 13.691-2.5 20.451-4.07a46.235 46.235 0 0 0 -.6 7.526 22.948 22.948 0 0 0 -11.466 9.886c-2.106 3.544 3.317 6.674 5.5 3.218 4.044-7.591 12.61-6.213 12.612-10.734-.046-5.6.5-17.431 7.8-18.229-1.384 11.446 3.021 26.368-7.614 34.16-2.735 2.162-6.932 4.444-9.084 7.191-1.59 2.03-1.2 4.923-1.256 7.4-.092 3.935.016 7.874.266 11.8.993 15.615 4.206 30.962 7.307 46.261 2.28 11.25 5.784 24.048 3.682 35.583a2.361 2.361 0 0 0 4.55 1.255 35.916 35.916 0 0 0 1.736-12.919 157.572 157.572 0 0 1 20.028-19.17c-1.556 19.7-2.9 40.378 3.24 59.481-11.74 8.619-25.583 14.127-39.595 17.433-6.3 1.686-13.876 4.147-18.433-2.255zm141.482 94.349c-27.15 10.176-44.619-7.351-54.783-31-3.8-8.407 1.309-16.529 3.522-24.652 2.568-9.429 3.86-19.244 5.522-28.861 1.042-6.031 2.3-12.124 3.274-18.235 6.517-16.99 31.9-13.305 46.879-16.1 33.519-6.942 47.9 23.032 55.78 50.218-.578 8.283-9.489 11.574-16.674 14.692-8.222 3.568-15.239 8.756-22.267 14.239-14.745 11.505-30.436 22.8-49.644 14.853-3.346-1.385-5.076 3.775-2.353 5.583 31.921 17.595 56.2-23.382 84.2-31.6 2.056-.026 5.27 2.462 6.341 3.912 4.7 6.061-14.731 14.725-18.418 18.782-13.095 10.069-25.515 22.517-41.379 28.169zm175.019-64.818c-4.269 30.39-37.415 31.81-61.636 27.167-14.913-2.229-27.408-9.564-32.51-24.433-1.2-7.039-.3-14.409 1-21.815 5.012-27.626 8.735-30.31 36.34-25.358 12.731 1.2 26.581 3.709 38.89-.694 2.117 8.413-.643 21.076 8.093 25.951 2.943 1.38 6.428.512 9.346 1.646.351 5.963 1.595 11.522.477 17.532zm14.075-205.892c7.275 4.321 5.376 19.056 7.132 26.756 3.953 34.8 5.62 69.99 3.075 104.92 4 16.156 5.712 32.816 6.123 49.459.945 11.958.8 15.719-8.856 23.909.634-8.941.7-18.01-1.483-26.719-.691-2.582-4.748-2.088-4.7.636.908 10.734.2 21.418-.747 32.108-6.734 4.9-6.137 1.671-6.146-3.776l-3.378-45.394c-.311-4.186-6.881-4.218-6.562 0q.743 9.846 1.459 19.693c-7.751-.5-9.432-2.151-9.856-10.131-3.973-20.712-3.027-20.812 10.478-35.92 7.809-9.993-6.044-47.478-8.274-60.748-3.2-13.231-3.714-27.19 1.951-39.823 1.206-3.09-3.585-4.865-5.213-2.2a37.886 37.886 0 0 0 -4.916 13.84c-14.265 5.239-25.571 15.5-37.972 24-8.969-15.8-10.348-36.324-7.012-53.743 18.663-5.818 37.452-11.3 56.512-15.662 5.505-1.252 13.081-4.339 18.385-1.205zm-27.515-32.99c3.277 6.5 3.293 14.892 1.281 21.775-3.679 13.119-22.042 12.258-32.86 16.847-5.671.71-10.965 2.176-16.788 1.619-8.769-1.047-11.5-7.446-9.64-15.69 2.857-12.654 15-19.371 27.171-21.15 34.151-4.976 11.576 26.192-7.629 20.9 1.084-3.767 7.915-7.081 11.106-8.929 2.865-1.662.83-5.555-2.131-5.055-5.386.911-11.848 5.673-14.562 10.389-3.661 6.363 2.22 10.424 8.125 10.922 7.858.662 16.039-3.094 21.78-8.256 5.228-4.7 10.225-13.423 6.01-20.284-8.69-11.349-29.359-6.238-40.155-.464 11.03-14.477 37.959-20.854 48.292-2.624zm-54.889-8.547c3.907-.772 7.875-1.441 11.863-1.966-9.439 6.437-15.847 16.077-19.077 27.022a26.177 26.177 0 0 1 -22.872 13.482c.3-10.352 4-19.54 8.87-28.506 5.811-5.372 13.479-8.611 21.216-10.037zm-121.424-126.533c28.187 45.637 105.849 35.58 102.167 72.944-1.533 3.713 1.863 6.71 4.286 9.643 5.385 11.289-3.033 25.494-13.561 30.828-10.977 5.627-16.454-6.2-19.758-14.771-5.68-11.1-17.31-17.826-29.135-20.541-14.934-3.3-32.23-1.378-44.785-11.592a37.611 37.611 0 0 1 -13.597-31.731c3.543.836 11.346 4.25 10.533-2.443-3.433-10.596-1.127-22.506 3.85-32.337z"/><path d="m197.556 162.294c5.017-.543 11.36-15.56 3.61-15.415-5.157-.766-11.604 16.736-3.61 15.415z"/><path d="m176.447 157.614c5.017-.543 11.36-15.557 3.611-15.415-5.158-.768-11.605 16.736-3.611 15.415z"/><path d="m175.289 176.046a12.5 12.5 0 0 1 7.9-9.685c2.068-1.1 1.069-4.323-1.172-4.324-6.46 0-12.763 7.674-11.1 14.009a2.286 2.286 0 0 0 4.372 0z"/><path d="m324.418 340.174c-1.28-7.612-12.632-3.5-11.082 4.169 1.393 6.894 12.914 6.798 11.082-4.169z"/><path d="m435.79 482.471c.6 2.218 4.006 3.542 5.614 1.483a561.8 561.8 0 0 0 34.431-49.554c1.47-2.37-1.027-6.186-3.881-5.048-3.22 1.284-10.087 8.138-13.331 6.45-4.429-2.3-2.215-13.456-2.008-17.27 2.247-41.876 6.1-83.658 11.293-125.268l1.926-13.9a4 4 0 0 0 -7.924-1.1s-18.47 131.283-23.148 156.966q-6.037-4.033-12.1-8.036c-2.476-1.639-5.589 1.066-4.871 3.745 4.609 17.195 9.323 34.361 13.999 51.532z"/><path d="m467.969 247.21c4.37 2.627 8.384-4.254 3.967-6.787-4.37-2.623-8.383 4.254-3.967 6.787z"/><path d="m384.886 21.91c3.767.677 5.435-4.984 1.6-5.815-5.1-1.213-10.031-3.5-15.093-4.9-3.944-.73-19.468-9.388-18.266-.756 3.628 9.143 9.324 17.571 13.75 26.36 1.849 3.235 6.57.389 4.952-2.894a26.53 26.53 0 0 1 -2.009-7.88c32.793 26.088 64.209 53.509 96.758 79.821 2.441 1.812 5.182-2.047 3.171-4.111-30.9-27.7-63.227-53.89-95.061-80.544a57.144 57.144 0 0 1 10.198.719z"/><path d="m475.9 31.793a128.247 128.247 0 0 0 -8.533-15.52 3.128 3.128 0 0 0 -5.777 1.565 131.045 131.045 0 0 0 -.738 21.263 2.775 2.775 0 0 0 5.547 0c.154-1.308.084-2.662.338-3.949 3.957 18.961 7.085 38.121 11.773 56.9.8 2.955 4.828 1.617 4.446-1.226-2.785-18.346-7.231-36.415-10.69-54.659 2.501 1.233 4.683-2.096 3.634-4.374z"/><path d="m485.873 111.6c-4.112 0-4.119 6.391 0 6.391s4.119-6.391 0-6.391z"/><path d="m387.316 190c17.287-12.422 34.843-24.467 52.325-36.61 4.3-2.975 10.266-5.805 13.554-9.922 1.555-1.947.189-5.292-2.607-4.479-4.941 1.437-9.518 5.694-13.718 8.571q-9.817 6.728-19.581 13.53c-11.113 7.725-22.249 15.426-33.23 23.338-3.34 2.403-.119 8.004 3.257 5.572z"/><path d="m76.4 439.3c9.679-9.744 19.578-19.266 29.456-28.808 3.268-3.158-1.71-8.124-4.983-4.983-17.517 13.378-36.216 25.417-53.436 39.27-1.266-4.64-2.513-9.285-3.781-13.924-.709-2.6-4.74-3.394-6.026-.788-7.878 15.958-15.621 31.983-23.407 47.986a3.406 3.406 0 0 0 3.793 4.934 562.925 562.925 0 0 0 57.7-14.455 3.477 3.477 0 0 0 0-6.644c-3.9-1.378-16.237-.1-13.346-6.909 2.556-6.026 9.494-11.114 14.03-15.679z"/><path d="m447.128 119.673c2.921.225 3.617-4.627.7-5.157-9.947-1.806-19.984-2.985-30-4.331a3.072 3.072 0 1 0 -.82 6.061c10.028 1.24 20.039 2.648 30.12 3.427z"/><path d="m339.865 106.652c4.317 2.6 8.283-4.2 3.919-6.706-4.317-2.596-8.284 4.203-3.919 6.706z"/><path d="m375.545 109.941a3.128 3.128 0 0 0 1.009 1.094 3.451 3.451 0 0 0 1.845.77 3.8 3.8 0 0 0 4.312-4.256c-.877-6.12-10.2-3.069-7.172 2.38l-.009-.007zm3.362-5.651a1.961 1.961 0 0 1 .41.037 2.975 2.975 0 0 0 -.41-.037zm.8.089a1.4 1.4 0 0 1 .3.053 2.927 2.927 0 0 0 -.307-.053zm2.983 3.571v.039c0-.011-.003-.025-.003-.039z"/><path d="m54.687 53.256c3.406-1.893.39-7-3.044-5.208-6.075 3.173-13.186 4.508-19.577 7.072-6.606 2.415-14.125 4.2-20.182 7.913-1.759 1.486-.449 3.808 1.047 4.915 11.893 6.247 24.923 10.636 36.89 16.824 2.784 1.356 5.87-2.093 3.444-4.464-4.212-3.986-8.373-8.188-12.327-12.408 26.326 4.041 52.887 6.642 79.285 10.283 4.038.516 4-5.834 0-6.344-25.768-3.039-51.429-7.013-77.237-9.604a62.627 62.627 0 0 1 11.701-8.979z"/><path d="m118.526 164.9c1.115-2.626 2.786-5.018 3.764-7.785.741-2.1-1.636-4.59-3.773-3.773-11.527 4.533-22.928 10.5-33.937 16.109-3.246.632-4.273 5.807-.489 6.442 12.148 2.041 24.294 4.088 36.456 6.043 3.567.573 5.787-3.853 2.521-5.979-1.75-1.139-2.622-3.028-3.819-4.662q11.292-1.275 22.585-2.554c3.872-.44 3.917-6.57 0-6.125q-11.73 1.332-23.46 2.673c.052-.136.094-.256.152-.389z"/><path d="m477.336 204.429c1.859-17.427 6.059-34.96 6.737-52.47a2.348 2.348 0 0 0 -4.59-.621c-2.718 9.976-3 21.164-4.3 31.4-1.343 10.579-2.465 21.193-3.839 31.763-.374 2.874 4.145 2.846 4.515 0 .334-1.462 1.069-7.442 1.477-10.072z"/><path d="m200.091 212.815a2.094 2.094 0 0 0 2.406-2.4c3.768-11.742-.492-23.59-13.583-26-6.266-1.154-15.316-1.378-20.819 2.462-4.242 2.959-8.309 10.438-7.307 15.692 1.486 7.8 11.987 7.064 18 7.794 7.098.862 14.212 1.6 21.303 2.452zm-33.2-10.236a14.031 14.031 0 0 1 1.083-2.764 48.235 48.235 0 0 1 24.322.941c2.885.867 4.118-3.641 1.242-4.5a49.649 49.649 0 0 0 -20.5-1.849c12.646-8.28 29.846-5.254 25.305 13.121q-13.991-1.686-27.975-3.448c-1.668-.212-2.868-.6-3.474-1.501z"/></g></svg>