<svg height="512" viewBox="0 0 500 500" width="512" xmlns="http://www.w3.org/2000/svg"><g id="Layer_4" data-name="Layer 4"><path d="m174.385 214.609s-33.424 11.9-42.428 41.108-12.27 82.88-12.27 82.88h48.152l152.088-96.626s-7.037-33.531-44-37.171l-31.189-10.107z" fill="#fff5f3"/><path d="m319.927 241.971s-7.037-33.531-44-37.171l-31.189-10.107-17.8 5.04a79.116 79.116 0 0 1 5.67 18.438c2.613 13.632 3.035 27.978-1.253 41.179s-13.766 25.133-26.7 30.175c-2.866 1.118-6.026 1.9-9.007 1.135-6.177-1.575-8.92-8.757-9.888-15.058-1.522-9.908-1.04-20.035-2.43-29.962s-5.043-20.136-12.922-26.333a20.869 20.869 0 0 0 -2.663-1.756 87.23 87.23 0 0 0 -17.745 11.757 64.543 64.543 0 0 1 7.766 49.071c-2.126 8.39-6.194 16.579-12.978 21.954-6.346 5.028-14.146 7.021-22.305 7.46-1.968 17.219-2.8 30.8-2.8 30.8h48.152z" fill="#c9a6a6"/><path d="m245.785 188.984a30.124 30.124 0 0 0 -3.9-4.953c-7.185-8.557-8.354-20.494-9.211-31.634a46.436 46.436 0 0 0 10.878-4.727c1.767-1.056 9.622-8.639 7-23.7a7.651 7.651 0 0 0 -1.034-3.442 5.574 5.574 0 0 0 -2.644-1.716c-8.346-2.971-18.7 2.743-26.025-2.235-4.5-3.056-5.87-8.917-7.482-14.109-2.249-7.247-5.97-14.541-12.511-18.387-3.945-2.32-8.57-3.175-13.118-3.684a101.99 101.99 0 0 0 -32.349 1.567l-3.415-1.264a240.582 240.582 0 0 0 -1.251 68.031c.9 7.224 2.164 14.53 5.407 21.047s8.736 12.222 15.738 14.222c3.738 1.062 8.42 1.513 10.04 5.046.722 1.576.592 3.388.578 5.122-.093 11.435 5.662 22.405 13.905 30.331s18.787 13.087 29.622 16.745c1.679.567 3.548 1.1 5.179.4a7.135 7.135 0 0 0 2.669-2.419 66.246 66.246 0 0 0 13.472-43.082 16.88 16.88 0 0 0 -1.548-7.159z" fill="#ffdad2"/><path d="m168.191 400.036c-.568-9.727-4.173-19.047-8.731-27.659-1.864-3.522-3.947-7.143-4.045-11.128a23.6 23.6 0 0 1 1.754-8.12l5.76-16.745a140.008 140.008 0 0 0 -39.091 3.279l-3.087 1.788c-6.72 17-5.723 35.938-4.346 54.162 1.1 14.52 2.811 30.1 12.413 41.051 3.864 4.405 9.743 7.966 15.379 6.364a16.615 16.615 0 0 0 5.231-2.834 47.478 47.478 0 0 0 18.763-40.158z" fill="#ffdad2"/><path d="m263.859 87.518a26.391 26.391 0 0 0 -13.015-21.965 3.711 3.711 0 0 1 -1.555-1.277 3.7 3.7 0 0 1 -.073-2.432 30.252 30.252 0 0 0 -5.76-23.227 36.116 36.116 0 0 0 -20.307-13.051 62.475 62.475 0 0 0 -17.312-1.253c-14.221.58-28.345 3.25-42.574 2.945s-29.163-4.053-39.116-14.225a31.628 31.628 0 0 0 3.463 27.813c-6.468.14-20.562.4-20.562.4 3.042 19.049 18.688 35.44 37.575 39.362a75.816 75.816 0 0 0 18.377 1.092c7.964-.31 15.9-1.148 23.86-1.555 4.16-.214 8.421-.3 12.387.977 6.735 2.162 11.779 8.061 14.446 14.611 1.818 4.464 2.8 9.478 6.1 12.995 4.626 4.937 12.4 5.342 18.987 3.813a42.789 42.789 0 0 0 14.886-6.651c3.681-2.586 7.029-5.875 8.76-10.027a20.506 20.506 0 0 0 1.433-8.345z" fill="#ffc17d"/><path d="m213.694 95.733c1.818 4.464 2.8 9.478 6.1 12.995 4.626 4.937 12.4 5.342 18.987 3.813a42.789 42.789 0 0 0 14.886-6.651c3.681-2.586 7.029-5.875 8.76-10.027a20.506 20.506 0 0 0 1.435-8.345 26.391 26.391 0 0 0 -13.015-21.965 3.711 3.711 0 0 1 -1.555-1.277 3.7 3.7 0 0 1 -.073-2.432 30.252 30.252 0 0 0 -5.76-23.227 34.706 34.706 0 0 0 -11.895-9.908 33.437 33.437 0 0 1 .282 21c-3.646 10.991-14.191 19.617-25.76 20.054-5.046.19-10.025-1.063-15.054-1.521a48.2 48.2 0 0 0 -26.306 5.137c-4.619 2.384-8.842 5.5-13.285 8.186a97.121 97.121 0 0 0 11.559.135c7.964-.31 15.9-1.148 23.86-1.555 4.16-.214 8.421-.3 12.387.977 6.736 2.162 11.78 8.061 14.447 14.611z" fill="#d37f46"/><path d="m250.549 123.965a7.651 7.651 0 0 0 -1.034-3.442 5.574 5.574 0 0 0 -2.644-1.716c-8.346-2.971-18.7 2.743-26.025-2.235-4.5-3.056-5.87-8.917-7.482-14.109-2.249-7.247-5.97-14.541-12.511-18.387-3.945-2.32-8.57-3.175-13.118-3.684-1.738-.194-3.482-.327-5.228-.431a38.518 38.518 0 0 1 14.726 14.862c4.545 8.6 5.031 18.684 7.194 28.171 2.325 10.2 6.7 20.4 5.071 30.736-1.691 10.72-9.766 19.573-19.211 24.917a72.269 72.269 0 0 1 -15.095 6.192c2.828.725 5.556 1.673 6.716 4.2.722 1.576.592 3.388.578 5.122-.008.964.04 1.922.113 2.878.387-.039.774-.076 1.157-.127 8.905-1.195 17.2-5.059 25.851-7.5 4.155-1.173 8.744-1.987 12.676-.2a16.687 16.687 0 0 1 6.392 5.884c7.756 11 9.624 25.433 7.068 38.645-.276 1.426-.608 2.837-.975 4.237a66.263 66.263 0 0 0 12.565-41.841 16.88 16.88 0 0 0 -1.548-7.154 30.124 30.124 0 0 0 -3.9-4.953c-7.185-8.557-8.354-20.494-9.211-31.634a46.436 46.436 0 0 0 10.878-4.727c1.765-1.055 9.62-8.638 6.997-23.704z" fill="#e59e9c"/><path d="m154.583 362.145a10.2 10.2 0 0 1 1.731-6.4c.264-.878.559-1.749.855-2.612l5.76-16.745a140.008 140.008 0 0 0 -39.091 3.279l-3.087 1.788a69.222 69.222 0 0 0 -3.286 11.048l9.493 1.917a31.482 31.482 0 0 1 9.122 2.832c2.8 1.546 5.195 4.155 5.672 7.316.6 3.963-1.841 7.693-4.275 10.878 3.79-.727 6.792 3.115 8.463 6.594 5.766 12 7.668 26.449 2.337 38.652-2.249 5.146-5.667 9.69-9.255 14.011-1.744 2.1-3.55 4.145-5.387 6.163 3.222 2.088 6.941 3.195 10.562 2.166a16.615 16.615 0 0 0 5.231-2.834 47.478 47.478 0 0 0 18.763-40.158c-.026-.439-.064-.876-.1-1.313a124.742 124.742 0 0 0 -11.5-31.408 15.184 15.184 0 0 1 -2.008-5.174z" fill="#e59e9c"/><g fill="#deafa6"><path d="m156.845 202.574c-9.321-12.21-26.327-16.406-41.515-14.277-29.894 4.191-47.94 19.615-47.94 19.615-10.179 10.2-16.543 24.494-15.947 38.912s8.612 28.625 21.3 35.436c-19.015 12.095-29.333 36.54-24.754 58.64a14.749 14.749 0 0 1 .52 4.629 13.679 13.679 0 0 1 -1.318 3.932c-6.355 14.238-10.158 30.061-7.83 45.484s11.552 30.3 25.733 36.72c7.445 3.37 15.77 4.288 23.939 4.311a118.033 118.033 0 0 0 31.718-4.254c-8.306-45.372-3.56-92 1.21-137.883.788-7.579 1.581-15.188 3.424-22.58a87.321 87.321 0 0 1 26.215-43.118c3.767-3.411 8.046-6.877 9.227-11.827 1.148-4.797-.992-9.823-3.982-13.74z"/><path d="m131.957 182.692s45.642 15.837 44.555 100.993c0 0 12.534 4.182 23.473 0 0 0-4.22-91.76-38.841-100.993 0 0-17.227-5.158-29.187 0z"/><path d="m248.028 166.79s-8.579 14.658 1.972 26.642 21.321 22.08 18.29 49.717l16.849 3.305s2.226-70.121-37.111-79.664z"/></g><path d="m272.555 204.554a49.48 49.48 0 0 1 -5.855 14.146c1.946 6.406 2.716 14.224 1.6 24.446l16.849 3.305s1.035-32.734-10.855-56.516a64.413 64.413 0 0 1 -1.739 14.619z" fill="#aa6963"/><path d="m191.94 229.954a39.538 39.538 0 0 1 -5.778 11.056 41 41 0 0 1 -11.777 10.29 193.843 193.843 0 0 1 2.127 32.389s12.534 4.182 23.473 0c0-.004-1.259-27.383-8.045-53.735z" fill="#aa6963"/><path d="m115.33 188.3c-.824.116-1.636.243-2.442.375a40.285 40.285 0 0 1 15.112 17.015c6.057 13.391 2.4 31.265-9.936 39.224-6.747 4.354-15.216 5.537-21.733 10.231-4.4 3.172-7.69 7.8-12.378 10.536-10.244 5.976-23.664.411-30.969-9.171 2.953 10.79 9.954 20.483 19.767 25.75a51.774 51.774 0 0 0 -6.12 4.578c9.9 1.135 19.631 2.441 26.855 8.909 6.247 5.592 9.236 14.245 9.16 22.64s-2.952 16.56-6.909 23.96c-2.659 4.973-6.024 9.87-11 12.5-6.751 3.568-15.012 2.25-22.276-.1-5.12-1.655-10.18-3.789-15.392-4.984a111.791 111.791 0 0 0 -4.168 10.856 19.576 19.576 0 0 0 3.615 3.909c4.594 3.759 10.373 5.662 15.892 7.839 8.662 3.416 17.178 7.819 23.518 14.651s10.227 16.467 8.374 25.612c-1.876 9.246-8.782 15.915-15.663 22.716a82.2 82.2 0 0 0 10.4.634 118.033 118.033 0 0 0 31.718-4.254c-8.306-45.372-3.56-92 1.21-137.883.788-7.579 1.581-15.188 3.424-22.58a87.321 87.321 0 0 1 26.211-43.122c3.767-3.411 8.046-6.877 9.227-11.827 1.144-4.8-1-9.823-3.986-13.74-9.317-12.21-26.323-16.406-41.511-14.274z" fill="#aa6963"/><ellipse cx="70.971" cy="309.288" fill="#fce2e0" rx="9.645" ry="6.841" transform="matrix(.588 -.809 .809 .588 -220.941 184.857)"/><path d="m150.385 273.449s42.951 138.317 62.751 214.28c0 0 31.785-2.913 67.946-42.25 0 0 8.675-9.408 31.252-5.722 0 0 33.247 1.555 65.769-34.508 0 0 9.732-9.617 30.2-9.617 0 0 30.448-20.92 35.917-66.625s3.191-136.207 3.191-136.207l-7.276-41.384s-7.5 53.613-38.884 59.437c0 0-19.555-1.226-34.563-2.363 0 0-22.511 3.571-44.34 27.935 0 0-14.1 17.912-45.023 7.5 0 0-23.953-8.371-45.63 19.826 0 0-21.066 29.7-56.5 18.262z" fill="#fffaf5"/><path d="m185.457 305.9 39.659 150.31s19.57-5.967 35.045-26.652c0 0 7.12-11.839 50.479-9.5 0 0 35.006 4.775 67.227-39.006 0 0 58.744-2.942 64.775-42.456 0 0 9.082-108.538 4.918-138.587 0 0-2.843 14.984-27.914 27.791l-40.586 2.153s-12.331-4.7-30.63 16.5c0 0-22.531 34.049-71.53 22.853 0 0-14.527-6.115-32.161 15.609 0 .001-30.521 26.599-59.282 20.985z" fill="#f9dab9"/><path d="m229.553 419.712a37.747 37.747 0 0 0 -2.169-35.549c-3.094-4.909-7.4-9.218-9.017-14.79-1.67-5.754-.2-12-1.468-17.861l-17.238 12.739a78.132 78.132 0 0 0 -15.205 21.875c5.363 18.185 10.789 36.855 15.81 54.587.161-.018.323-.032.483-.053a37.744 37.744 0 0 0 28.804-20.948z" fill="#d8c4b8"/><path d="m444.217 329.007c5.468-45.7 3.194-136.206 3.194-136.206l-7.276-41.384s-5.31 37.915-25.662 53.438c-3.293 46.125-14.269 91.616-35.609 132.476-7.308 13.992-16.663 28.153-31.171 34.376-15.653 6.714-33.985 2.762-50.282 7.711-18.15 5.511-31.329 21.3-40.546 37.878s-15.633 34.726-26.313 50.4a80.356 80.356 0 0 1 -17.714 18.894c.1.377.2.762.3 1.136 0 0 31.785-2.912 67.946-42.249 0 0 8.675-9.408 31.252-5.722 0 0 33.247 1.555 65.769-34.508 0 0 9.733-9.617 30.2-9.617-.005.002 30.443-20.918 35.912-66.623z" fill="#d8c4b8"/><path d="m227.384 384.163c-3.094-4.909-7.4-9.218-9.017-14.79-1.67-5.754-.2-12-1.468-17.861l-16.24 12 18.3 69.367a36.984 36.984 0 0 0 10.592-13.169 37.747 37.747 0 0 0 -2.167-35.547z" fill="#d8ba98"/><path d="m209.851 365.954a5.555 5.555 0 0 1 .666-2.952 7.689 7.689 0 0 1 2.565-1.967 11.2 11.2 0 0 0 5.215-10.559 9.779 9.779 0 0 0 -8-8.349 17.786 17.786 0 0 0 -6.422.689q-16.551 3.87-33.019 8.08c-3.984 1.019-8.043 2.087-11.493 4.325l-1.884 1.853c-2.386 2.709-2.5 6.808-1.446 10.26s3.1 6.5 4.722 9.725c3.027 6.04 4.545 12.711 7 19s6.157 12.5 12.071 15.768a24.92 24.92 0 0 0 6.93 2.451 37.439 37.439 0 0 0 16.716-.3c4.969-1.237 10.171-4.068 11.557-9 .881-3.135.029-6.463-.787-9.615-2.492-9.624-4.67-19.463-4.391-29.409z" fill="#ffdad2"/><path d="m214.243 395.37c-2.493-9.631-4.671-19.472-4.392-29.416a5.555 5.555 0 0 1 .666-2.952 7.689 7.689 0 0 1 2.565-1.967 11.2 11.2 0 0 0 5.215-10.559 9.779 9.779 0 0 0 -8-8.349 17.786 17.786 0 0 0 -6.422.689q-9 2.106-17.981 4.318a10.344 10.344 0 0 1 4.55 3.254 10.621 10.621 0 0 1 .991 11.317c-1.01 1.884-2.668 3.781-2.15 5.856a9.077 9.077 0 0 0 2.011 3.054 9.831 9.831 0 0 1 .779 10.489 6.658 6.658 0 0 0 -1.188 2.766c-.1 2.165 2.388 3.341 3.987 4.8a7.432 7.432 0 0 1 1.549 8.628 4.206 4.206 0 0 0 -.841 2.56 3.805 3.805 0 0 0 1.467 1.887 11.674 11.674 0 0 1 2.626 12.963 36.888 36.888 0 0 0 3.8-.729c4.969-1.237 10.171-4.068 11.557-9 .879-3.129.027-6.457-.789-9.609z" fill="#e59e9c"/><path d="m447.56 200.01s-2.843 14.984-27.914 27.791l-7.52.4a357.8 357.8 0 0 1 -10.326 50.846c-2.682 9.511-16.013 9.943-19.327.634l-14.613-41.042 5.921 95.642a32.385 32.385 0 0 1 -7.206 22.426c-5.193 6.386-11.341 11.766-18.882 15-6.2 2.658-12.817 3.645-19.562 4.175a26.929 26.929 0 0 1 -26.75-16.144l-33.836-77.729 12.569 89.091a29.51 29.51 0 0 1 -7.679 24.5 106.446 106.446 0 0 0 -15.57 21.7c-5.386 9.687-9.819 19.908-14.7 29.86a81.606 81.606 0 0 0 18-17.6s7.12-11.839 50.479-9.5c0 0 35.006 4.775 67.227-39.006 0 0 58.744-2.942 64.775-42.456-.004.002 9.078-108.539 4.914-138.588z" fill="#ce9b84"/><path d="m462.517 228.984a34.115 34.115 0 0 0 -1.808-3.421c-1.327-2.759-1.084-5.971-1.194-9.031s-.8-6.442-3.292-8.225c-2.768-1.982-6.6-1.2-9.8-.037-5.1 1.858-14.07 10.025-14.07 10.025-2.276 4.05-4.622 8.376-4.423 13.018.107 2.494.953 4.9 1.227 7.381.361 3.261-.272 6.536-.658 9.794a65.177 65.177 0 0 0 -.116 14.259 18.074 18.074 0 0 0 1.5 6.215 7.47 7.47 0 0 0 4.684 4.1c2.7.659 5.452-.712 7.875-2.084q5.343-3.022 10.514-6.336a30.1 30.1 0 0 0 6.488-5.117 11.129 11.129 0 0 0 3.069-7.491c-.1-3.434-2.283-6.568-2.275-10 .011-4.489 3.753-8.812 2.279-13.05z" fill="#e59e9c"/><path d="m427.93 231.313c.107 2.494.953 4.9 1.227 7.381.361 3.261-.272 6.536-.658 9.794a65.177 65.177 0 0 0 -.116 14.259 18.074 18.074 0 0 0 1.5 6.215 7.47 7.47 0 0 0 4.684 4.1 8.674 8.674 0 0 0 5.7-.949c1.371-2.34 3.217-4.434 4.1-7a10.407 10.407 0 0 0 -2.086-10.154 6.027 6.027 0 0 1 -1.349-1.782c-.775-2.056 1.435-3.873 2.608-5.73 2.292-3.628.564-8.484-2-11.926a2.921 2.921 0 0 1 -.775-1.668 3.279 3.279 0 0 1 1.147-1.948c3.8-4.262 2.6-11.59-1.778-15.257a12.752 12.752 0 0 0 -3.443-2.042c-2.488 2.006-4.336 3.686-4.336 3.686-2.278 4.053-4.624 8.379-4.425 13.021z" fill="#ffdad2"/><path d="m241.062 307.945a7.32 7.32 0 0 0 -3.207.42 69.111 69.111 0 0 0 -13.322 6.062c-1.935 1.07-4.048 2.111-5.252 3.965-3.9 6 1.525 17.054 2.836 21.282.595 1.917 1.439 4.1 3.352 4.7 1.748.554 3.672-.563 4.659-2.108a13.552 13.552 0 0 0 1.557-5.233 39.733 39.733 0 0 1 3.616-12.325c2.3-4.359 5.966-7.956 7.8-12.531a3.822 3.822 0 0 0 .352-2.305 2.851 2.851 0 0 0 -2.391-1.927z" fill="#ffefe1"/></g><g id="Layer_5" fill="#3a3245" data-name="Layer 5"><path d="m166.99 120.425c1.471-4.132 1.786-18.281-5.447-11.574-2.044 2.873-2.062 9.236-.256 12.319a3.16 3.16 0 0 0 5.703-.745z"/><path d="m190.017 120.425c1.471-4.132 1.786-18.282-5.447-11.574-2.045 2.873-2.062 9.236-.256 12.319a3.16 3.16 0 0 0 5.703-.745z"/><path d="m163.155 134.33c-1.111 3.414-1.992 9.21 2.4 10.511 5.147.378 1.762-6.868 3.724-9.819 1.011-2.433 3.032-4.072 4.2-6.357.932-1.822-.634-4.441-2.841-3.7-3.88 1.314-6.281 5.672-7.483 9.365z"/><path d="m174.479 156.132c1.757 2.935 3.084 9.218 5.839 10.452 5.451 1.417 6.63-5.252 5.406-9.181-.641-3.613-3.244-9.313-6.987-9.245-7.478.136-5.685 5.308-4.258 7.974z"/><path d="m462.839 262.272c2.932-3.79 4.629-8.695 3.648-13.493-.7-3.417-2.993-6.308-2.132-9.928 1.855-4.852 3.152-10.2.524-15.126-1.353-2.838-1.985-2.578-1.752-6.5 1.1-5.321-.807-12.244-6.944-13.2 3.149-5.668 7.573-13.055 3.221-18.609a6.8 6.8 0 0 0 -8.632-1.938c-2.121-37.842-18.07-71.689-61.641-65.938-3.032.23-4.5 4.385-2.433 6.1a163.718 163.718 0 0 1 10.872 84.46c-38.785-6.215-47.483-2.179-76.17 24.413-3.868-9.751-11.692-16.543-20.824-21.365-1.966-18.3-18.254-33.756-35.539-38.351a35.6 35.6 0 0 0 -28.829-10.333c-.067-3.085 0-6.173.087-9.213 12.133-1.213 21.116-16.657 18.5-28.064 4.22-5.772 10.507-9.861 13.267-16.752 9.133-16.675 3.11-40.314-15.309-47.361a33.832 33.832 0 0 0 -7.253-27.687c-32.1-31.161-86.22 8.14-120.433-21.522-11.13-5.836-4.3 21.764-1.018 25.41a102.906 102.906 0 0 1 -17.658.952 3.45 3.45 0 0 0 -3.289 4.318c4.6 21.437 23.773 38.841 45.245 41.856-2.482 24.637-3.954 71.5 8.667 92.677a35.962 35.962 0 0 0 -27.16 4.173c-39.893.681-88.763 28.024-81.321 73.6 1.74 11.466 7.584 24.891 19.292 28.992-18.691 12.239-33.586 39.013-23.237 60.793-23.519 41.475-10.93 90.356 41.812 94.43 11.836 1.021 24.926.39 34.868-7.076 6.509 11.853 22.255 20.2 33.431 9.038 8.2-8.4 12.548-19.806 16.481-30.718 5.014 5.178 12.171 7.651 19.516 8.46 2.14 11.514 6.058 22.722 9.154 34.012q4.653 16.827 8.91 33.757a3.339 3.339 0 0 0 3.156 2.4c28.23-.084 51.231-19.887 69.1-39.671 19.362-17.235 37.03-.24 66.105-14.382a71.383 71.383 0 0 0 15.932-10.061c10.352-9.47 18.1-22.543 33.516-23.754 41.327-2.61 49.171-36.487 51-71.5 1.8-9.859 1.886-19.764 3.042-29.657.875-9.67 2.354-19.692 1.842-29.414a32.128 32.128 0 0 0 10.386-8.228zm-80.828 136.54q-.5-6.939-1.011-13.879c11.318-7.757 26.75-5.28 38.646-12.219-6.69 24.362-19.417 18.686-37.635 26.098zm-102.62-52.421c-3.689-24.793-7.186-49.611-11.1-74.371 27.765 3.243 57.8 4.634 77.691-18.768 5.605-6.023 10.811-12.636 17.9-16.826q3.255 40.71 6.244 81.382c-28.817 28.678-40.815 30.447-80.315 29.867-4.278.248-4.307 6.937 0 6.69 36.895.354 53.622-.322 80.966-27.794q2.006 27.121 3.96 54.247c-34.581 33.292-36.029 33.284-84.251 35.172-3.425-23.236-7.619-46.398-11.095-69.599zm-63.062 32.566c-1.921-2.967-.179-6.591-1.257-9.844 5.155-2.5 8.76-9 6.416-14.537a12.913 12.913 0 0 0 -8.917-15.878c-4.736-1.284-9.181.832-13.611 2.206q-4.074-15.358-8.164-30.715c34.1.268 47.067-19.159 71.537-36.74 4.108 25.829 8.371 51.632 12.286 77.492-19.419 9.198-35.47 27.553-58.29 28.016zm154.227-167.029c10.658-.267 21.014 3.789 31.694 2.774 25.535-2.43 40.672-27.929 38.438-52.033a173.651 173.651 0 0 1 3.529 35.212c-12.986 28.685-37.014 30.38-64.9 28.452-4.292.02-4.3 6.708 0 6.673 15.8-.126 30.752 2.038 45.188-5.161-2.808 2.842-1.39 6.829-.778 10.3-.04 4.844-2.973 9.72-.494 14.448.736 1.51 1.893 2.478 2.046 4.329-2.355 10.956-1.133 23.377 13.252 22.849 2.805 3.021 3.373 7.831 3.19 12.826-15.083 11.907-40.187 5.235-57.674 15.2-4.006 2.013-.482 8.035 3.517 6.016 16.677-8.6 36.452-3.945 53.313-12.084-2.212 24.167.97 52.8-25.448 65.423-10.937 5.734-24.314 3.914-35 9.966-4.156-55.016-7.509-110.1-11.868-165.095.658-.044 1.321-.078 1.995-.095zm-8.091 1.023q.357 8.106.91 16.211c-14.883 6.745-22.226 23.172-36.453 31.05-18.235 10.551-39.843 5.974-59.56 5.44a92.512 92.512 0 0 0 -2.457-11.976c-.826-2.84-5.442-2.4-5.294.717a100.451 100.451 0 0 0 1.56 12.418c-11.683 4.76-19.73 15.869-30.077 22.864-47.979 33.195-57.855-15.879-38.926 53.415q-7.658 2.463-15.316 4.925c-5.946-22.849-11.408-45.7-19.906-67.844 15.789 9.14 36.249 11.12 53.329 4.342 14.305-6.582 23.222-20.579 35.7-29.7a37.183 37.183 0 0 1 25.78-7.437c9.941.71 19.76 3.531 29.779 2.206 24.866-3.465 37.182-31.548 60.931-36.631zm-255 35.905c5.377-19.884 7.334-46.877-19.6-48.858 15.829-6.425 36.509-14.857 52.514-4.548 14.081 11.444 12.567 26.3.09 38.458-17.523 20.837-12.8 33.841-43.736 41.034 5.917-6.984 9.697-16.626 10.729-26.086zm44.867 20.589c-2.559-1.984-5.936.579-5.107 3.051 5.378 17.567 12.535 34.654 16.94 52.556a16.549 16.549 0 0 0 -4.065 6.206 188.463 188.463 0 0 1 -36.645-3c4.046-39.145 1.655-73.8 36.644-99.9 3.45.372 4.276 10.026 4.913 12.784a279.066 279.066 0 0 1 6.088 38.158 59.28 59.28 0 0 1 -18.771-9.855zm77.763-30.806c-18.041-3.144-36.291-13.62-41.662-31.749 5.815-4.973 9.884-11.051 10.925-18.914 12.4-6.219 22.484-15.5 31.014-26.6-.628 13.558 2.359 26.612 11.953 37.031.409 13.433-2.051 30.421-12.233 40.232zm1.559-116.419.044-.006c-.023.028-.045.058-.068.086zm-3.136 123.093c5.8 1.165 9.035-4.186 11.975-8.632 6.919-10.27 9.349-22.69 9.548-34.911 2.568 1.084 5.18 1.918 7.3 2.612 5.584 11.179 7.728 23.894 8.4 36.3-27.855.043-39.053 32.649-63.715 39.71-.951-17.643-4.414-35.2-8.465-52.314 9.315 9.07 22.827 14.802 34.954 17.235zm86.452-7.913c-7.2 5.123-16.2 6.616-24.778 5.6a184.365 184.365 0 0 0 -5.053-30.7c12.775 4.374 25.761 11.623 29.831 25.1zm-47.67-50.659c11.063 16.778 13.192 36.26 16.624 55.512-3.865-.538-7.7-1.126-11.594-1.412-.663-15.368-3.907-31.052-11.813-44.374-3.648-7.231-12.109-16.133-8.451-24.426 5.986 3.016 10.89 8.112 15.234 14.7zm-18.836-57.363c-.474 7.513-7.123 19.282-16.012 16.549-4.339-6.242.406-12.787 3.638-18.318 3.326-6.43 12.66-7.009 12.373 1.769zm-137.522-84.334c36.887-2.23 16.978-2.921 14.99-24.365 19.571 12.221 43.779 9.789 66.14 7.847 13.322-1.157 29.929-3.349 42.018 3.833 10.167 6.04 14.666 18.81 11.473 30-.963 3.006 2.577 4.736 4.272 6.462 15.252 16.919-2.607 44.606-24.335 37.75-9.864-3.371-9.024-9.85-12.412-17.588-19-32.621-77.161 16.162-102.146-43.939zm43.385 40.1c14.7 1.949 30.564-4.341 44.938.788 18.152 7.945 1.04 42.254 24.129 50.184-7.83 29.534-19.332 39.964-50.178 42.1-27.041-.548-18.66-74.141-18.889-93.072zm12 103.506c24.174 22.891 23.893 62.076 29.844 92.848a56.661 56.661 0 0 1 -12.827.269c-4.11-31.945-7.242-84.944-41.916-98.234a28.849 28.849 0 0 1 24.895 5.117zm-102.288 83.4c-13.118-15.808-10.061-41.157 2.9-56.126 12.029-14.475 38.608-11.922 36.574 10.557-14.87-23.391-36.081.243-37.636 19.34-3.132 24.731 21.049 22.492 24.291 1.5 1.081-4.2-5.413-5.991-6.494-1.791-1.027 2.129-3.105 8.935-6.792 10.251-4.591 1.523-3.557-7.095-3.233-9.4.737-7.721 9.316-26.915 19.176-20.217 12.2 9.871 6.818 34.516-2.789 44.648-7.05 7.188-18.752 9.17-26.001 1.236zm-11.239 40.662a51.793 51.793 0 0 1 20.16-23.246c11.73-4.247 29.971-10.623 40.775-1.246 7.358 9.482 2.948 23 1.011 33.691-10.058 40.718-84.722 42.331-61.946-9.199zm52.075 118.134c-51.089 7.111-78.575-29.346-56.743-76.452 13.511 20.242 52.179-.433 61.659 24.4 1.415 5.23 1.193 10.991 1.966 16.352.893 6.19 1.274 12.469 1.7 18.706.999 7.381.386 16.34-8.579 16.994zm54.613-9.2c-10.8 26.807-28.639 22.182-36.647-2.877-6.2-23.867-1.6-47.984-.211-72.2 11.291-.31 21.466-2.46 32.149-5.04-.789 6.134-2.686 12.568-6.259 17.771a120.433 120.433 0 0 0 -19.688 22.449c-2.414 3.655 3.492 7.1 5.869 3.431a99.853 99.853 0 0 1 17.267-19.781c.081 3.15 1.566 5.832 3.47 8.686 6.125 8.838 6.1 20.526 11.09 29.764-2.485 5.865-4.243 12.023-7.037 17.795zm15.844-16.854c-7.648-8.794-6.154-21.953-12.128-31.658-2.008-3.444-5.983-6.8-3.214-10.93 1.659-2.475 4.51-2.856 7.155-3.7q19.085-6.085 38.189-12.108c6.178-3.228 13.229 4.1 6.832 9.141-9.2 5.666-20.448 8.021-30.109 12.928-3.692 1.691-1.065 8.025 2.787 6.611 5.869-2.156 11.618-4.681 17.39-7.1 2.836 2.877 3.814 5.218 2.363 9.365-6.386 3.46-14.1 4-20.286 7.553-1.6 1.285-.553 3.822 1.145 4.337 7.525 1.008 15.226-3.5 22.18-6.016 2.468 2.333 1.791 5.879.575 9.29-2.732.674-5.45 2.5-8.178 3.136-3.263.758-7.613-.055-10.465 1.685-1.288.786-1.809 2.909-.513 3.988 4.742 3.618 16.821.406 21.722-2.725 11.587 17.911-29.329 16.162-35.442 6.201zm80.596 59.908c-11.236 8.768-26.6 17.244-41.485 17.687-5.114-19.279-9.921-38.646-16.112-57.624 4.974 1.109 10.409-.925 14.776-3.723 2.976 12.305 6.2 24.557 9.352 36.814a3.463 3.463 0 0 0 4.189 2.378c20.22-5.268 28.148-28.332 48.109-34.362 4.15-1.4 2.37-8.013-1.82-6.6-20.5 5.939-27.526 25.207-44.8 33.315-3.133-12.114-6.244-24.243-9.609-36.295 5.039-5.79 4.977-15.8-.076-22.011-.889-2.5.616-6.155.416-9.135 22.17-.725 38.184-17.813 56.753-27.413 3.829 26.5 7.11 53.231 12.613 79.392-13.424 5.377-21.166 18.902-32.306 27.577zm110.114-51.755a65.893 65.893 0 0 1 -46.8 21.882c-9.03.358-17.516-1.2-26.093.745q-.792-6.416-1.7-12.823c43.047-1.672 53.073-1.777 83.884-33.565q.471 6.66.947 13.321c-3.798 3.054-6.847 6.743-10.238 10.439zm93.382-158.445c-2.4 6.537-15.89 13.963-22.649 12.34-3.081-.266-4.429-4.391-2.544-6.843 7.206-1.7 13.975-5.893 18.01-11.7 1.462-2.7-1.77-5-4.037-3.295-2.655 2.1-8.723 7.141-13.536 8.393-2.893-3.084-3.232-8.037-1.735-11.805 5.917-2.931 13.374-6.837 17.094-12.3 1.665-2.443-1.469-4.606-3.645-3.645-4.788 2.42-8.75 6.456-13.57 8.9-2.827-4.138-2.256-8.23.264-11.879 5.479-4.116 10.982-8.074 17.342-10.852q3.459-2.538 6.353 1.58c-2.647 11.853 3.687 11.273 2.487 19.836-5.216 12.061 2.002 12.289.166 21.27z"/><path d="m76.084 335.752c3.707 0 5.466-3.417 4.141-5.985-1.561-3.025-4.28-3.423-6.732-1.235-2.651 2.368-.931 7.385 2.591 7.22z"/></g></svg>