<svg height="512" viewBox="0 0 500 500" width="512" xmlns="http://www.w3.org/2000/svg"><g id="Layer_4" data-name="Layer 4"><path d="m482.454 123.226c.66-12.552 10.693-23.655 9.465-36.164-1.146-11.672-11.479-19.894-18.185-29.515a52.931 52.931 0 0 1 -5.683-48.856c-24 3.045-44.4 24.341-46.419 48.446-.652 7.792.395 15.81-1.742 23.332-1.571 5.53-5.512 11.484-11.254 11.762-18.364.889-17.379-16.75-17.379-16.75a56.424 56.424 0 0 0 -37.757 40.974 56.424 56.424 0 0 0 17.091 53.033c8.2 7.352 18.367 12.07 28.369 16.681l16.518 7.616a13.438 13.438 0 0 0 5.843 1.676 10.1 10.1 0 0 0 5.719-1.974c17.846-13.417 36.1-11.572 44.266-25.675 2.982-5.149 6.152-10.142 8.272-15.7 1.634-4.283 3.285-8.642 3.611-13.214.37-5.224-1.011-10.444-.735-15.672z" fill="#f97373"/><path d="m448.842 72.421a3.126 3.126 0 0 0 -5.642 1.871c.019 2.564.031 5.539.027 8.685a21.933 21.933 0 0 1 -20.168 21.63c-11.287.984-26.672 4.841-31.543 18.128-2.332 6.359-6.009 12.439-4.908 19.121a24.834 24.834 0 0 0 10.785 16.536c4.077 2.662 8.983 4.14 12.419 7.589 3.861 3.875 5.05 9.291 5.163 14.9l1.821.84a13.7 13.7 0 0 0 3.839 1.313 60.263 60.263 0 0 0 2.3-6.336c5.49-14.472 24.595-19.269 31.983-32.87 3.435-6.324 6.736-16 1.484-20.915-12.794-11.983 11.445-25.033-7.56-50.492z" fill="#ffdc6c"/><path d="m442.509 141.571c-.417-4.776-1.164-9.675-3.635-13.783s-18.433-9.3-18.433-9.3a39.429 39.429 0 0 0 -11.411 22.088c-.872 5.637-.5 11.382-.206 17.079 3.146 60.783-2.576 122.254 7.76 182.235.683 3.959 2.718 8.954 6.719 8.591a136.831 136.831 0 0 0 2.164-17.553c1.172-14.717 2.344-29.5 1.4-44.228-.488-7.6-1.538-15.151-1.912-22.753-.353-7.177-.1-14.369.205-21.548.987-23.018 2.653-46.44 11.044-67.9 2.02-5.165 4.431-10.22 5.64-15.634a56.734 56.734 0 0 0 .665-17.294z" fill="#d68980"/><path d="m136.569 488.463h90.9l27.756-8.562s-10.075-44.388-3.687-73.767l20.922-23.6 24.71 8.957 16.154-53.363-75.508-68.128-71.633 1.474s-46.037 17.1-56.915 52.185l-16.009 71.923 52.408 1.476z" fill="#c9a6a6"/><path d="m227.465 488.463h30.684s-13-52.95-6.615-82.329l6.76-7.626a9.649 9.649 0 0 0 -5.639-.571c-4.271.881-7.28 4.663-9.511 8.41a64.231 64.231 0 0 0 -8.544 24.993c-1.043 8.522-.362 17.146-.251 25.732s-.391 17.372-3.637 25.32a33.722 33.722 0 0 1 -3.247 6.071z" fill="#fff5f3"/><path d="m249.918 280.921-12.102-10.921-11.861.244a45.6 45.6 0 0 0 -1.257 6.683l2.34 11.549c3.484 6.972 4.512 14.889 5.156 22.657a272.944 272.944 0 0 1 -.552 50.947c-.806 7.7-2.3 16.054-8.144 21.129a125.62 125.62 0 0 1 36.037.9 4.213 4.213 0 0 0 2.774-.149 3.86 3.86 0 0 0 1.522-2.532c1.227-4.659 1.195-9.545 1.155-14.363l-.312-37.4c-.026-3.088-.058-6.182-.128-9.274a58.22 58.22 0 0 0 8.7 9.758c10.439 9.284 24.388 14.626 35.638 22.616l4.434-14.646z" fill="#fff5f3"/><path d="m145.667 397.058c-1.487-1.259-3.552-1.52-5.493-1.687a134.485 134.485 0 0 0 -34.735 1.53c-1.983.349-4.133.844-5.374 2.43a8.537 8.537 0 0 0 -1.353 4.337c-3.358 27.553-5.453 85.951-5.453 85.951l23.426-.625c6.628-.177 13.784-4.319 20.413-4.5l10.419-78.228c.433-3.243.65-7.092-1.85-9.208z" fill="#e59e9c"/><path d="m391.56 273.375-56.16 67.961c-3.194 3.866-6.537 8.086-6.881 13.09a43.709 43.709 0 0 0 -15.2-16.3 154.62 154.62 0 0 0 -13.082 59.5s19.5 4.2 25.228 5.419c8.373 1.786 17.451 5.193 25.073 1.293 5.362-2.744 8.439-8.436 11.165-13.807q16.015-31.566 30.781-63.745c2.4-5.236 4.824-10.673 4.909-16.434.072-4.894-1.552-9.628-2.79-14.363a93.784 93.784 0 0 1 -3.043-22.614z" fill="#e59e9c"/><path d="m441.2 250.865c-.406-3.015-1.893-5.91-1.622-8.941.175-1.955 1.077-3.8 1.212-5.754.254-3.687-2.214-7.063-2.422-10.753-.17-3.041 1.21-6.1.567-9.075-.78-3.61-4.449-6.035-8.116-6.473s-7.329.705-10.789 2c-11.611 4.342-32.888 17.882-32.888 17.882-4.228 9.366-1.965 20.239.369 30.247a6.913 6.913 0 0 0 1.21 2.975c2.006 2.378 5.876 1.107 8.872 1.944 5.149 1.44 6.362 8.488 10.83 11.422 5.234 3.436 12.1-.088 17.305-3.56 3.934-2.621 7.924-5.292 10.983-8.9s5.122-8.328 4.489-13.014z" fill="#e59e9c"/><path d="m264.633 153.162a5.908 5.908 0 0 0 -.717-2.519c-.992-1.529-3.071-1.818-4.888-1.959-8.777-.681-17.626-1.361-26.362-.269s-17.46 4.1-24.02 9.967c-4.3 3.845-7.687 8.9-12.872 11.421-6.8 3.3-28.353 14.136-28.353 14.136a19.639 19.639 0 0 0 14.345 30.409 13.308 13.308 0 0 1 4.79.894c2.57 1.319 3.469 4.524 3.767 7.4 1.53 14.774-5.867 29.051-14.869 40.865a6.248 6.248 0 0 0 -1.488 2.856 6.047 6.047 0 0 0 .319 2.328c5.418 19.63 14.384 39.746 31.6 50.63a6.009 6.009 0 0 0 2.919 1.153c1.555.049 2.9-1.017 4.066-2.043a143.89 143.89 0 0 0 19.715-21.193c3.556-4.694 6.944-9.959 7.137-15.845.177-5.421-2.376-10.5-4.4-15.529s-3.541-10.809-1.353-15.773c5.126-1.172 10.78 2.219 15.582.077 3.572-1.592 5.248-5.641 6.482-9.351a199.822 199.822 0 0 0 8.6-87.655z" fill="#e59e9c"/><g fill="#ffdad2"><path d="m264.633 153.162a5.908 5.908 0 0 0 -.717-2.519c-.992-1.529-3.071-1.818-4.888-1.959-2.217-.172-4.438-.343-6.661-.487a20.379 20.379 0 0 1 1.734 5.183c.689 3.84.048 7.774-.294 11.66-1.133 12.869 1.026 25.8.866 38.715s-3.121 26.672-12.448 35.61c-1.8 1.728-3.922 3.418-4.49 5.85a8.255 8.255 0 0 0 .57 4.739c3.845.418 7.767 1.762 11.243.211 3.572-1.592 5.248-5.641 6.482-9.351a199.822 199.822 0 0 0 8.603-87.652z"/><path d="m247.533 196.96-2.811-2.132a3.016 3.016 0 0 0 -3.522-2.319 4.355 4.355 0 0 0 -3.164 3.179 8.091 8.091 0 0 0 .3 4.646 14.589 14.589 0 0 0 5.966 7.7c1.692 1.08 4.175 1.69 5.521.2a4.413 4.413 0 0 0 .753-3.43 15.8 15.8 0 0 0 -3.043-7.844z"/><path d="m233.8 261.452c-4.327-6.9-10.851-12.179-17.233-17.291l-11.148-2.8c13.517 12.568 17.511 34.259 9.359 50.817-3.983 8.091-10.3 14.619-16.433 21.307a52.79 52.79 0 0 0 7.534 5.831 6.009 6.009 0 0 0 2.919 1.153c1.555.049 2.9-1.017 4.066-2.043a143.89 143.89 0 0 0 19.715-21.193c3.556-4.694 6.944-9.959 7.137-15.845.177-5.421-2.376-10.5-4.4-15.529a42.476 42.476 0 0 1 -1.516-4.407z"/><path d="m438.938 216.342c-.78-3.61-4.449-6.035-8.116-6.473s-7.329.705-10.789 2c-11.611 4.342-32.888 17.882-32.888 17.882-2.59 5.738-2.74 12.042-1.933 18.366a18.365 18.365 0 0 1 8.732-9c2.725-1.294 5.887-1.982 7.932-4.2.984-1.068 1.837-2.548 3.283-2.68a6.346 6.346 0 0 1 2.642.751c2.575.94 5.447.113 7.958-.985s4.984-2.491 7.716-2.713 5.862 1.186 6.478 3.857c.518 2.24-.817 4.791.308 6.8.783 1.4 2.458 1.957 3.918 2.611a17.494 17.494 0 0 1 6.207 4.754 15.245 15.245 0 0 1 -.805-5.388c.175-1.955 1.077-3.8 1.212-5.754.254-3.687-2.214-7.063-2.422-10.753-.171-3.041 1.21-6.098.567-9.075z"/><path d="m387.228 278.616-51.828 62.72c-3.194 3.866-6.537 8.086-6.881 13.09a43.709 43.709 0 0 0 -15.2-16.3 153.6 153.6 0 0 0 -5.6 14.7c1.345.626 2.674 1.285 3.97 2.009 4.913 2.741 9.483 6.561 11.714 11.726 1.412 3.268 1.613 9.434 4.378 11.678 1.734-1.79 3.241-6.321 4.394-8.53a196.33 196.33 0 0 1 13.644-22.351c12.615-17.853 46.015-44.349 41.409-68.742z"/><path d="m145.667 397.058c-1.487-1.259-3.552-1.52-5.493-1.687a134.133 134.133 0 0 0 -13.7-.466 39.794 39.794 0 0 1 1.587 9.009c2.015 28.632-6.571 56.723-11.376 85.08l19.884-.531 10.948-82.193c.433-3.247.65-7.096-1.85-9.212z"/></g><path d="m287.834 103.654a36.064 36.064 0 0 0 2.166-22.915 37.112 37.112 0 0 1 -16.27 10.3 56.036 56.036 0 0 1 -13.475 2.135c-27.338 1.527-55.493-6.606-81.747 1.166 0 0-7.142 11.627-5.564 17.613.591 2.239 1.756 4.333 2.007 6.635.433 3.968-1.879 7.635-3.638 11.217a44.709 44.709 0 0 0 -4.355 15.364 27.681 27.681 0 0 0 1.581 13.305 15.837 15.837 0 0 0 9.384 9.161c4.941 1.571 10.333.027 15.041-2.144 10.391-4.794 19.292-12.615 30.085-16.416 13.444-4.734 28.171-2.717 42.423-2.9a41.478 41.478 0 0 0 10.563-1.187 38.392 38.392 0 0 0 11.1-5.561c10.835-7.355 20.482-18.192 21.618-31.238a153.035 153.035 0 0 1 -20.919-4.535z" fill="#d37f46"/><path d="m290 80.739a37.112 37.112 0 0 1 -16.27 10.3 54.66 54.66 0 0 1 -12.843 2.094c3.206 3.412 4.88 8.194 3.078 12.411-.93 2.176-2.712 4.193-2.455 6.546.267 2.443 2.6 4.043 3.993 6.066 3.079 4.459 1.183 10.986-2.869 14.584s-9.624 4.891-14.994 5.619c-12.118 1.644-25.427 1.389-35.067 8.912-4.525 3.531-7.664 8.375-10.676 13.342 6.9-4.2 13.558-8.864 21.152-11.538 13.444-4.734 28.171-2.717 42.423-2.9a41.478 41.478 0 0 0 10.563-1.187 38.392 38.392 0 0 0 11.1-5.561c10.835-7.355 20.482-18.192 21.618-31.238a153.035 153.035 0 0 1 -20.922-4.538 36.064 36.064 0 0 0 2.169-22.912z" fill="#ffc17d"/><path d="m142.238 250.224c-2.931-8.1-6.618-17.031-14.512-20.433-3.8-1.639-8.079-1.716-12.219-1.6a156.832 156.832 0 0 0 -26.378 2.972s-20.656-2.038-40.329 21.419c-8.977 10.7-8.5 26.723-6.929 40.619 1.014 8.969 3.26 18.023 8.365 25.458 3.515 5.12 8.54 9.978 8.5 16.194-.056 8.11-8.4 13.16-15.195 17.563-18.033 11.684-32.381 32.357-29.048 53.617 1.3 8.313 5.184 16.106 5.99 24.482 1.021 10.616-2.973 21.428-.808 31.87 2.161 10.418 10.365 18.862 19.968 23.392s20.479 5.606 31.091 5.447c5.01-.075 10.6-.688 13.842-4.522 2.874-3.4 2.981-8.278 2.949-12.735-.226-31.675-.179-63.594 5.964-94.665s18.834-61.579 40.886-84.262c3.963-4.077 8.3-8.015 10.684-13.184 4.549-9.875.879-21.406-2.821-31.632z" fill="#aa6963"/><path d="m174.417 286.092c-.209-10.935-.774-21.975-3.7-32.512s-8.406-20.645-16.977-27.412c-1.562-1.234-10.159-.275-10.159-.275-2.893 2.149-4.228 5.91-4.331 9.519s.854 7.153 1.742 10.652a308.8 308.8 0 0 1 8.55 99.725c-.9 11.613-2.466 23.212-2.168 34.856a5.07 5.07 0 0 0 .97 3.445c1.364 1.437 3.762.842 5.517-.074 6.758-3.525 11.5-10.162 14.2-17.3s3.58-14.827 4.272-22.432a530.4 530.4 0 0 0 2.084-58.192z" fill="#deafa6"/><path d="m271.322 307.976c-1.55-14.383-6.3-28.123-12.112-41.364-9.21-20.971-24.438-17.565-24.438-17.565-2.156 2.3-2.711 5.738-2.237 8.854a35.667 35.667 0 0 0 3.113 8.895 173.843 173.843 0 0 1 12.422 41.5c.842 5.032 1.461 10.1 2.081 15.162l5.463 44.669c.364 2.979.762 6.058 2.307 8.628s4.572 4.5 7.485 3.807c3.4-.811 5.137-4.629 5.745-8.085a58.827 58.827 0 0 0 .656-8.7l.321-12.44c.372-14.464.744-28.977-.806-43.361z" fill="#deafa6"/><path d="m216.159 377.637c-13.045.826-42.017 2.669-43.29 3.305a10.754 10.754 0 0 0 -3.122 2.772c-4.164 4.807-11.432 18.832-11.432 18.832a564.535 564.535 0 0 1 92.723-10.953 117.272 117.272 0 0 0 1.379-20.151c-11.434 4.585-23.967 5.417-36.258 6.195z" fill="#aa6963"/><path d="m140.784 250.052c-.994-3.63-2.034-7.277-3.35-10.8-2.362-4.107-5.408-7.607-9.708-9.46-3.8-1.639-8.079-1.716-12.219-1.6-.345.009-.69.028-1.035.039 2.068 4.806 2.872 10.153 3.358 15.393 7.825 84.429-59.1 91.232-59.1 91.232-.056 8.11-8.4 13.16-15.195 17.563a74 74 0 0 0 -8.478 6.414c3.917 1.91 8.158 3.417 11.7 5.937 5.647 4.013 9.191 10.38 11.621 16.879 4.084 10.922 5.251 24.01-1.361 33.608-6.664 9.672-19.094 13.1-30.495 15.852 14.126 6.8 29.658 15.176 34.218 30.206 3.012 9.927-.129 20.772-6.743 28.809a93.094 93.094 0 0 0 16.733 1.1c5.01-.075 10.6-.688 13.842-4.522.209-.246.4-.5.579-.764.674-6.4.786-12.972.921-19.309q.381-17.9 1.857-35.745a330.864 330.864 0 0 1 5.56-51.584c1.2-6.051 2.649-12.078 4.363-18.032 2.71-13.065 6.411-26.378 14.82-36.494a136.539 136.539 0 0 1 21.7-29.736c3.963-4.077 8.3-8.015 10.684-13.184.106-.23.186-.466.283-.7.607-10.201-1.817-21.104-4.555-31.102z" fill="#deafa6"/><path d="m251.038 391.593a117.272 117.272 0 0 0 1.379-20.151c-9.55 3.83-19.866 5.039-30.167 5.787a41.28 41.28 0 0 1 -2.221 7.953 49.793 49.793 0 0 1 -4.473 8.769q17.698-1.737 35.482-2.358z" fill="#deafa6"/><path d="m172.334 344.282q2.044-22.47 2.164-45.06a39.457 39.457 0 0 1 -1.236 4.343 57.949 57.949 0 0 1 -7.088 13.135 102.278 102.278 0 0 1 -16.014 18.7c-.151 3.465-.347 6.928-.616 10.385-.9 11.613-2.466 23.212-2.168 34.856a5.07 5.07 0 0 0 .97 3.445c1.364 1.437 3.762.842 5.517-.074 6.758-3.525 11.5-10.162 14.2-17.3s3.579-14.825 4.271-22.43z" fill="#aa6963"/><path d="m271.807 363.776.321-12.44c.326-12.647.651-25.332-.309-37.935a40.042 40.042 0 0 1 -2.437 5.954c-3.676 7.2-10.225 13.233-17.848 15.41l4.08 33.362c.364 2.979.762 6.058 2.307 8.628s4.572 4.5 7.485 3.807c3.4-.811 5.137-4.629 5.745-8.085a58.827 58.827 0 0 0 .656-8.701z" fill="#aa6963"/><path d="m441.842 156.914a51.425 51.425 0 0 0 .667-16.458c-.417-4.546-1.164-9.208-3.635-13.118s-18.433-8.854-18.433-8.854a36.945 36.945 0 0 0 -11.411 21.021c-.872 5.365-.5 10.832-.206 16.253.5 9.122.771 18.26.924 27.407a10.326 10.326 0 0 0 2.267.829 15.981 15.981 0 0 0 7.611-.478 38.562 38.562 0 0 0 15.094-7.91q.7-1.917 1.482-3.814c2.02-4.916 4.431-9.726 5.64-14.878z" fill="#f7b9a9"/></g><g id="Layer_5" fill="#3a3245" data-name="Layer 5"><path d="m254.165 173.984c-1.359-2.186-5.262-2.5-5.84.646-1.074 4.06-.721 17.767 6.091 11.662 1.807-3.163 1.795-9.343-.251-12.308z"/><path d="m231.389 186.292c1.808-3.163 1.795-9.343-.25-12.308-1.359-2.186-5.263-2.5-5.841.646-1.074 4.06-.721 17.77 6.091 11.662z"/><path d="m245.064 190.091c-2.21-.746-3.776 1.867-2.841 3.695 1.172 2.29 3.188 3.918 4.2 6.357 1.118 2.688.576 4.873.806 7.6a2.335 2.335 0 0 0 2.917 2.222c7.554-3.017.931-18.117-5.082-19.874z"/><path d="m240.481 214.1c-6.919-5.585-16.578 9.263-13.18 14.217 6.473 7.724 19.752-8.617 13.18-14.217z"/><path d="m474.508 51.639c-7.968-10.617-14.459-33.016.432-41.088 2.98-1.616 1.794-7.034-1.808-6.675-26.9 2.679-54.2 23.911-55.406 52.533-.353 8.342 1.177 17.672-2.327 25.546-2.473 6.518-13.431 9.89-17.876 3.814-1.618-2.415-3.266-6.046-2.5-9 .864-3.339-2.567-5.411-5.393-4.146-42.511 17.353-57.963 75.638-18.23 104.687 9.56 9.034 34.347 9.616 35.991 21.676-.359 5.143-.766 10.28-.77 15.406-11.878 6.388-29.244 14.411-24.517 30.764 1.9 7.125-3.04 20.627 7.914 21.241-12.253 18.26-24.327 36.588-38.679 53.313-7.542 9.1-15.659 17.966-21.129 28.538-4.917-9.943-16.565-17.485-24.691-23.621-9.062-7.656-18.943-14.4-27.012-23.151 11.446-19.92 5.864-54.225-18.6-61.2 11.532-21.515 9.849-66.684 7.457-90.751 21.483-3.047 40.631-20.414 45.24-41.859a3.45 3.45 0 0 0 -3.288-4.318 102.912 102.912 0 0 1 -17.659-.951c3.324-3.775 10.112-31.122-1.017-25.409-34.24 29.652-88.307-9.647-120.435 21.518a33.839 33.839 0 0 0 -7.254 27.691c-18.1 6.929-24.353 30.027-15.652 46.625 2.735 7.208 9.208 11.514 13.6 17.477-2.685 11.89 7.128 28.263 20.143 28.146a7.667 7.667 0 0 1 -1.157 4.694 111.775 111.775 0 0 0 -24.228 1.045c-5.312-5.6-22.843-6.261-26.758 1.562a2.893 2.893 0 0 0 -.975.908 174.812 174.812 0 0 0 -45.179 2.566 55.173 55.173 0 0 0 -17.153 4.78c-29.507 12.511-35.779 68.1-15.567 90.8 5.97 10.922-1.707 20.082-11.05 25.374-11.035 5.216-20.731 12.805-27.13 23.556-7.043 12.339-.5 24.83-4.218 42.221-21.657 101.149 85.32 79.279 88.651 75.858 1.473-.535 1.888-2.177 1.828-3.63 1.5-26.963 3.263-54.409 5.962-81.432 9.4-1.115 28.673-6.673 36.855-2.889-4.872 28.453-11.337 57.034-9.592 86.089.654 5.806 9.434 2.919 13.486 3.844a3.527 3.527 0 0 0 3.493-3.493 204.2 204.2 0 0 1 4.513-51.96c1.242-5.121 2.411-10.524 5.464-14.965 7.893-7.165 17.99-11.34 29.455-13.77 17.734-3.725 35.834-4.644 53.718-7.635 7.451 5.826 5.252 16.95 6.234 25.382.311 21.89 3.333 43.66 7.646 65.1.838 4.16 7.181 2.4 6.358-1.752-5.22-26.038-8.475-52.578-7.366-79.171 7.027 1.141 11.771-16.939 14.114-22.3 10.933 9.262 24.166 14.393 37.362 19.186 13.213 3.2 26.7 13.646 40.476 8.179 6.968-2.933 9.914-8.943 13.379-15.255q6.384-11.628 12.568-23.366c13.551-25.361 24.958-51.634 35.537-78.369 1.246 8.613 1.779 47.248 7.542 50.571a6 6 0 0 0 6.853 1.287c6.729-2.52 7.514-13.556 7.864-19.509 1.19-20.194 1.016-40.283 3.819-60.369 7.494-1.709 12.266-11.367 11.7-18.481-1.65-7.878-4.058-7.5-.89-16.025.777-5.8-4.208-10.164-1.691-15.966 2.4-8.579-3.195-13.617-10.252-14.646-1.581-26.143 28.312-15.1 43.534-37.5a46.535 46.535 0 0 0 9.221-21.869c2.189-9.16-3.2-18.182-.717-27.152 17.343-31.718 12.755-42.287-10.243-68.304zm-49.308 155.199a65.717 65.717 0 0 0 -11.921 4.009 105 105 0 0 0 1.041-11.311c2.978-2.428 6.069-4.718 8.974-7.225 2.079-1.794-.579-4.971-2.859-3.706a37.337 37.337 0 0 0 -6.032 4.269c.031-3.4.03-6.777-.09-10.17 5.969-3.829 11.074-8.821 16.847-12.855a2.024 2.024 0 0 0 1.591.274c-4.9 11.559-6.747 24.173-7.261 36.651-.098.026-.19.04-.29.064zm-11.6-35.667a228.145 228.145 0 0 1 20.317-20.755c2.017-2-.576-5.435-3.049-3.952a55.887 55.887 0 0 0 -7.433 5.414c4.07-5.264 9.092-9.417 14.177-13.768 1.178 8.751 2.863 19.381-6.091 24.409-6.17 3.977-11.748 8.573-17.567 13.07-.105-1.474-.226-2.947-.354-4.418zm-25.488 67.229c.342-5.7 6.761-9 10.9-11.982.792 6.693-3.611 12.325-2.992 18.926.391 2.5 1.046 4.656.849 7.139a16.023 16.023 0 0 1 -4.22 5.482c-4.385 3.307-2.779-2.569-2.86-5.43-.132-4.701-1.858-9.465-1.677-14.135zm-101 79.845c7.712 6.171 15.341 12.464 22.743 19.007-5.471 14.54-10.262 30.131-11.98 45.833-23.391-14.992-22.393-31.085-22.834-55.885a212.865 212.865 0 0 0 -2.7-22.809 107.026 107.026 0 0 0 14.769 13.855zm-18.281 26.9a177.06 177.06 0 0 1 -2.508 24.5c-11.788-2.112-7.4-17.871-8.76-26.5-2.6-30.176-6.515-61.941-20.121-89.269a2.263 2.263 0 0 1 2.8-2.5c12.453 3.417 17.6 29.262 22.329 40.455a157.878 157.878 0 0 1 5.592 29.757 198.944 198.944 0 0 0 .666 23.561zm-227.831 16.155c1.064-.895 2.168-1.745 3.3-2.548 13.485-4.616 30.4-2.858 38.784 9.891 3.355 6.682 1.662 15.3.06 22.294-9.275 25.5-23.927 36.074-51.393 28.341-28.671-12.933-6.664-43.841 9.249-57.978zm154.361-121.967c9.933 10.636 21.462 19.5 32.074 29.491 10.394 18.062-7.8 34.586-20.331 45.518-15.357-11.474-24.058-27.523-29.35-45.531 10.158-6.373 15.646-17.403 17.607-29.478zm-54.388 54a163.158 163.158 0 0 1 3.379 49.627c-1.824 13.153-.255 32.059-11.421 41.141-8.889-.686-17.76-1.857-26.545-3.339 2.481-31.048 8.381-67.437 34.587-87.428zm29.445 81.71c8.939-29.85 8.675-61.65 4.714-92.3 5.811 15.462 17.279 28.692 30.259 38.605 4.057 3.1 6.592 1.782 10.406-1.14a88.294 88.294 0 0 0 24.138-28.308c5.885 25.715 6.678 52.4 7.231 78.686-25.446 4.549-50.902 6.601-76.748 4.458zm12.355 7.525c21.594.844 43.052-1.322 64.38-5.077q-.042 4.774-.168 9.547c-23.317 4.473-47.394 4.082-71.067 4.451a51.93 51.93 0 0 0 6.855-8.92zm-21.007-130.568c8.553 30.138 13.89 85.183 1.523 114.321-1.819 3.884-6.131 11.132-10.8 8.409 4.21-35.315 6.976-71.776-1.47-106.687 1.423-12.56-11.733-29.769-.463-38.036a97.629 97.629 0 0 1 11.21 21.993zm-129.166 181.976c8.784 3.163 19.948 3.552 28.957 7.133a20.843 20.843 0 0 1 13.08 18.2c.6 10.628 2.013 25.552-9.346 25.047-30.035 2.28-50.342-23.056-32.691-50.38zm224.021-202.676c-4.56 18.237-24.113 11.467-37.049 7.4-10.523-4.822-15.544-17.453-16.315-28.492-.777-10.83 1.182-21.457 3.383-31.971 2.29-30.343 33.135-23.544 54.8-25.565.749 25.861 3.56 53.714-4.819 78.628zm33.15-145.5c-2.007 21.469-21.877 22.132 14.989 24.365-25.006 60.2-83.313 11.147-102.229 44.09-6.514 8.008-14.432 7.095-22.21 1.324-8.2-10.753-2-18.367 2.193-28.726 1.323-5.029-.744-9.541-1.136-14.494-.579-7.315 3.537-11.374 8.85-14.362a42.335 42.335 0 0 1 23.39-5.17c26.039 1.623 53.149 7.145 76.153-7.027zm-115.242 123.246c-17.02-16.716-.41-37.978 12.337-1.415-3.552 3.93-7.411 5.513-12.337 1.415zm-75.166 24.728a194.031 194.031 0 0 1 25.62-.11c8.281 14.558 20.293 34.323 10.364 50.455-4.016 5.082-17.585 18.634-24.258 13.66-4.934-12.965-3-25-6.341-37.818-1.969-8.175-7.156-20.608-15.665-25.047 3.417-.48 6.841-.87 10.28-1.14zm-50.644 34.462c4.566-17.363 23.422-43.136 36.973-18.136 5.212 11.63 6.224 24.731 4.505 37.267-.006-11.516-5.387-29.847-20.2-25.132-10.082 3.7-12.589 15.6-12.931 25.063-.138 3.817 6.281 4.848 6.814.922 3.981-29.543 20.412-23.052 18.679 3.536 0 8.572-1.1 18.015-6.4 25.076-5.268 7.018-13.556 9.581-20.426 3.092-12.153-13.417-10.971-35.158-7.014-51.688zm305.987 128.109c-13.663 12.754-36.208-2.205-49.945-8.971 1.677-15.229 6.033-29.918 10.381-44.546 9.876 8.731 7.732 22.541 9.747 34.225.856 3.07 5.17 2.285 5.372-.727.382-5.69.546-11.041 2.316-16.537a62.2 62.2 0 0 1 7.514-15.092c15.55-20.916 32.95-40.21 47.63-61.866 2.129 16.6 3.19 33.972-1.165 50.261-9.6 21.577-20.481 42.557-31.85 63.253zm68.928-86.945c-.88 7.244.893 30.908-4.15 34.76-1.252-12.1-3.654-23.922-4.034-36.076-1.168-14.048-1.244-16.983 10.213-26.344-1.203 9.16-1.687 18.438-2.029 27.66zm12.792-90.855c-4.391 11.78 3.537 12.062.31 20.565-2.985 6.7 3.761 12.727 1.065 19.382-1.186 2.973-3.227 4.48-5.542 5.978-4.36 1.147-8.882 4.4-13.523 3.269a6.691 6.691 0 0 1 -2.036-12.047 2.808 2.808 0 0 0 1.052-1.553 103.51 103.51 0 0 1 10.74-4.227c3.751-1.231 2.155-6.349-1.6-5.786a46.639 46.639 0 0 0 -17.124 6.472c-3.857-1.909-2.938-6.418-1.842-9.636 5.385-5.962 14.225-6.835 21.267-10 2.541-1.134 1.306-5.557-1.435-5.3a49.77 49.77 0 0 0 -15.05 3.986c-4.382-2.279-4.567-6.28-1.54-10.012a48.569 48.569 0 0 1 13.031-5.666c4.075-1.233 13.701-2.819 12.227 4.571zm46.5-109.75c-6.078 9.273-6.647 16.652-4.028 27.211 2.923 19.784-10.987 38.3-29.861 43.378-4.892 1.646-9.786 3.555-13.77 6.487 1.891-9.5 6.782-18.1 9.258-27.375 1.988-7.619.293-15.332-.329-23.015-.516-6.367-.846-13.064-3.873-18.838-11.783-21.948-34.585 3.532-36.615 19.123-1.332 7.286.192 14.219 1.439 21.391a189.1 189.1 0 0 1 2.7 28.785c-4.294-3.513-9.773-5.221-15.1-6.86-49.275-14.521-47.167-75.505-4.826-97.375 1.709 7.269 6.474 14.287 14.563 14.272 8.469.478 16-3.162 19.488-11.094 3.185-7.247 2.98-15.537 2.939-23.295-.983-22.723 16.618-42.244 37.787-48.437-4.621 8.609-4.2 20.261-1.085 29.1 10.541 25.569 39.34 34.021 21.315 66.538z"/><path d="m384.147 128.286c-4.332 1.332-6.557 6.073-6.7 10.342-2.389 8.074 5.06 11.657 11.2 7.688 2.339-1.9 2.617-4.728 2.791-7.54 1.107-5.793.272-12.212-7.291-10.49z"/><path d="m454.332 98.169c-3.224-.569-4.284 1.746-5.17 4.241-1.085 3.055-2.4 5.2-.877 8.453 1.831 3.534 5.007 8.794 9.655 8.709 4.189-.632 6.342-4.675 6.419-8.632 1.141-6.215-4.347-11.49-10.027-12.771z"/><path d="m449.634 57.372c.776-4.231-4.341-8.366-7.207-3.984a4.026 4.026 0 0 0 -2.371 3.81c-.033 6.175 8.921 5.96 9.578.174z"/><path d="m34.948 405.623c4.557 4.219 11.232-5.355 5.47-7.966-4.524-1.726-8.861 4.354-5.47 7.966z"/></g></svg>