<svg height="512" viewBox="0 0 500 500" width="512" xmlns="http://www.w3.org/2000/svg"><g id="Layer_4" data-name="Layer 4"><path d="m125.121 287.735s80.467 82.47 53.021 168.038l63.207 12.415h85.694s-12.5-40.952-1.888-82.22 13.609-45.9 11.86-70.59l25.7 16.121s-4.287-36.488 6.289-66.783l-60.117-39.249-45.41-19.473-47.987 10.515s-71.997 28.991-90.369 71.226z" fill="#fff5f3"/><path d="m241.349 468.188c-.138-24.92 6.38-50.263 14.642-74.044 2.206-6.348 4.652-12.847 9.288-17.713 4.938-5.182 11.822-7.954 18.482-10.579l34.245-13.5c4.391-1.731 8.915-3.546 12.255-6.883s5.2-8.631 3.175-12.9c-1.866-3.934-6.494-5.914-10.847-6.019s-8.579 1.3-12.782 2.436c-11.894 3.223-26.468 3.656-34.551-5.646-4.216-4.852-5.755-11.427-6.861-17.759a209.591 209.591 0 0 1 -3.108-33.44c-.115-9.194.374-18.429-.721-27.559a69.715 69.715 0 0 0 -14.918-35.567l-34.159 7.485a279.659 279.659 0 0 0 -33.219 16.724c14.669 8.276 20.518 28.4 14.5 44.186-6.1 16-22.369 26.866-39.354 29.01-5.883.743-12.389.8-17.493 3.362 20.034 33.059 51.175 98.042 31.817 158.4z" fill="#c9a6a6"/><path d="m338.92 286.452c-10.219-9.039-17.609-20.787-24.536-32.541l1.214 5.8a213.247 213.247 0 0 0 24.984 57.9l22.132 13.889a189.442 189.442 0 0 1 -.345-32.384 56.009 56.009 0 0 1 -23.449-12.664z" fill="#c9a6a6"/><path d="m191.867 416.43c-4.007-9.036-11.02-16.339-17.895-23.442q-10.035-10.365-20.068-20.731c-5.4-5.576-11.432-11.48-19.138-12.4l27.779-13.474a2.038 2.038 0 0 0 1.063-3.264 151.974 151.974 0 0 0 -38.487-55.386s-40.793 42.51-54.441 66.617c-2.472 4.365-4.89 9.26-3.937 14.185.727 3.759 3.311 6.857 5.9 9.679a168.2 168.2 0 0 0 67.228 44.586c4.642 1.654 10.068 3.84 11.179 8.641.752 3.249-.83 6.525-2.242 9.546-2.967 6.353-5.288 14.09-1.682 20.1 3.093 5.157 9.668 7.221 15.68 7.088 11.685-.259 22.762-7.577 28.263-17.889s5.536-23.171.798-33.856z" fill="#ffdad2"/><path d="m420.932 183.689a28.061 28.061 0 0 1 2.05-7.554c7.123-19.314 11.89-40.085 8.922-60.455-.709-4.868-1.974-9.9-5.291-13.535s-9.221-5.3-13.288-2.536c-1.771 1.2-3.139 3.155-5.228 3.626-2.566.578-4.956-1.3-7.431-2.19a10.551 10.551 0 0 0 -12.826 5.665c-1.4-3.471-5.667-5.049-9.377-4.56s-7 2.563-10.145 4.585a10.112 10.112 0 0 0 -3.736 3.412c-.8 1.5-.616 3.686.855 4.552a5.083 5.083 0 0 0 2.83.42q20.589-.889 41.206-.127c1.95.073 4.1.242 5.464 1.64a7.507 7.507 0 0 1 1.628 4.012 94.138 94.138 0 0 1 .927 27.567c-.439 3.838-1.336 8.031-4.423 10.353-3.012 2.265-7.138 2.038-10.906 1.944a90.145 90.145 0 0 0 -24.793 2.848 5.276 5.276 0 0 0 -2.639 1.269c-1.328 1.428-.727 3.807.461 5.353 2.408 3.133 13.221 6.964 16.231 9.524 0 0-.383 14.381-1.738 23.562q-5.232 35.474-10.464 70.945c-3.545-1.657-10.218-9.293-10.218-9.293a103.332 103.332 0 0 0 -10.313 55.818c.386 3.961 1.155 8.207 4.024 10.965 2.207 2.122 5.3 3 8.276 3.714a147.9 147.9 0 0 0 37.772 4.015c6.626-.152 14.341-1.428 17.484-7.262 1.5-2.778 1.608-6.067 1.686-9.221 1.084-44.07 2.136-88.547-6.223-131.831a27.733 27.733 0 0 1 -.777-7.225z" fill="#ffdad2"/><path d="m288.075 123.894c5.127.277 14.555 4.047 14.555 4.047l6.786-5.135c5.277-3.995 12.667-2.883 19.147-4.229a3.207 3.207 0 0 0 1.826-.844 3.372 3.372 0 0 0 .554-2.32 81.342 81.342 0 0 0 -.764-9.995 6.914 6.914 0 0 0 -1.477-3.973c-1.135-1.178-2.9-1.437-4.528-1.581-12.788-1.135-25.632.713-38.338 2.557a22.02 22.02 0 0 0 -6.272 1.552c-2.7 1.272-4.756 3.571-6.73 5.81l-11 12.47c-2.458 2.787-4.975 5.623-8.188 7.488-6.483 3.762-15.122 3.19-20.806 8.075 0 0-9.547 7.155-4.518 21.031a18.574 18.574 0 0 0 15.967 11.724c1.93.126 4.221.114 5.316 1.708a5.354 5.354 0 0 1 .45 3.768 78.045 78.045 0 0 1 -15.691 37.346c-1.24 1.593-2.612 3.325-2.573 5.343a8.446 8.446 0 0 0 .966 3.242c2.115 4.679 4.3 9.456 7.846 13.165a38.623 38.623 0 0 0 10.685 7.295 127.33 127.33 0 0 0 35.871 11.9 167.335 167.335 0 0 1 1.05-53.125l14.416 1.357c4.225.4 8.682.759 12.53-1.029 4.531-2.1 7.29-6.769 9.177-11.394a59.817 59.817 0 0 0 4.231-27.158 4.162 4.162 0 0 0 -.979-2.818 4.221 4.221 0 0 0 -2.432-.837c-6.063-.731-12.861-1.358-16.817-6.01-1.613-1.9-2.764-4.462-5.114-5.286-2.507-.878-5.194.667-7.206 2.4s-3.975 3.818-6.59 4.284a7.921 7.921 0 0 1 -7.143-3.014 18.712 18.712 0 0 1 -3.364-7.319c-1.145-4.233-1.828-8.789-.474-12.96s5.256-7.772 9.631-7.535z" fill="#ffdad2"/><path d="m353.806 57.973a61.98 61.98 0 0 0 4.3-23.531c-11.678 6.426-25 9.454-38.3 10.346s-26.649-.279-39.888-1.823c-12.345-1.439-25.767-3.247-36.522 2.982-22.106 12.805-15.483 36.222-15.483 36.222-4.462 2.355-7.57 6.713-9.6 11.333-4.006 9.124-4.073 20.461 1.853 28.472 4.9 6.623 13.426 10.157 21.648 9.654a31.463 31.463 0 0 0 21.394-11.017c2.527-2.914 4.565-6.222 7.064-9.159a38.161 38.161 0 0 1 23.029-12.864c8.118-1.251 16.386.168 24.6.224a65.544 65.544 0 0 0 35.588-9.807c10.517-6.711 18.839-17.039 22.395-29a87.825 87.825 0 0 0 -22.078-2.032z" fill="#ffc17d"/><path d="m317.9 98.812a68.847 68.847 0 0 0 22.041-3.419c-17.55 1.319-35.04-.088-50.326-8.305-5.821-3.129-11.4-7.264-17.955-8.073-4.977-.614-10.127.769-14.992-.446-5.973-1.494-10.5-6.872-12.041-12.833s-.439-12.362 1.935-18.043a42.268 42.268 0 0 1 1.961-4.055 29.128 29.128 0 0 0 -5.129 2.309c-22.106 12.805-15.483 36.222-15.483 36.222-4.462 2.355-7.57 6.713-9.6 11.333-4.006 9.124-4.073 20.461 1.853 28.472 4.9 6.623 13.426 10.157 21.648 9.654a31.463 31.463 0 0 0 21.394-11.017c2.527-2.914 4.565-6.222 7.064-9.159a38.161 38.161 0 0 1 23.029-12.864c8.124-1.251 16.392.168 24.601.224z" fill="#d37f46"/><path d="m325.155 159.338s-12.861-1.358-16.817-6.01c-1.613-1.9-2.764-4.462-5.114-5.286-2.507-.878-5.194.667-7.206 2.4s-3.975 3.818-6.59 4.284a7.921 7.921 0 0 1 -7.143-3.014 18.712 18.712 0 0 1 -3.364-7.319c-1.145-4.233-2.169-8.916-.474-12.96 3.478-8.294 14.671-6.389 14.671-6.389s-15.4-5.077-7.282-22.624a22.02 22.02 0 0 0 -6.272 1.552c-2.7 1.272-4.756 3.571-6.73 5.81l-11 12.47c-2.458 2.787-4.975 5.623-8.188 7.488-6.483 3.762-15.122 3.19-20.806 8.075 0 0-9.547 7.155-4.518 21.031a18.574 18.574 0 0 0 15.967 11.724c1.93.126 4.221.114 5.316 1.708a5.354 5.354 0 0 1 .45 3.768 78.045 78.045 0 0 1 -15.691 37.346c-1.24 1.593-2.612 3.325-2.573 5.343a8.446 8.446 0 0 0 .966 3.242 60.9 60.9 0 0 0 5.433 10.219 53.779 53.779 0 0 1 6.9-7.079c4.731-3.938 10.624-6.8 16.78-6.755 4.156.031 8.18 1.365 12.1 2.749s7.794 2.835 11.657 4.346a198.894 198.894 0 0 1 2.579-24.241c-20.917-7.593-12.384-25.972-6.4-32.439 11.351-12.256 43.349-9.439 43.349-9.439z" fill="#e59e9c"/><path d="m187.358 408.468a25.825 25.825 0 0 1 -15.6 7.823c-9.537 1.16-19.031-2.071-27.9-5.752a255.707 255.707 0 0 1 -34.27-17.342c-5.331-3.222-10.6-6.69-14.825-11.272a38.168 38.168 0 0 1 -8.953-16.685 19.334 19.334 0 0 1 -.232-9.873c.907-3.158 2.977-5.837 5.071-8.369a176.668 176.668 0 0 1 16.1-17.032c4.316-4 9.447-8 15.323-7.736 3.628.163 6.968 1.962 10.018 3.934a77.234 77.234 0 0 1 23.34 23.672l7.115-3.451a2.038 2.038 0 0 0 1.063-3.264 151.974 151.974 0 0 0 -38.487-55.386s-40.793 42.51-54.441 66.617c-2.472 4.365-4.89 9.26-3.937 14.185.727 3.759 3.311 6.857 5.9 9.679a168.2 168.2 0 0 0 67.228 44.584c4.642 1.654 10.068 3.84 11.179 8.641.752 3.249-.83 6.525-2.242 9.546-2.967 6.353-5.288 14.09-1.682 20.1 3.093 5.157 9.668 7.221 15.68 7.088 11.685-.259 22.762-7.577 28.263-17.889s5.536-23.178.8-33.863a49.517 49.517 0 0 0 -4.511-7.955z" fill="#e59e9c"/><path d="m391.071 329.094c-2.743-6.429-1.452-14.721 3.967-19.136 2.839-2.313 6.851-3.852 7.813-7.386.6-2.2-.23-4.5-.976-6.652-9.146-26.349-7.436-55.226-2.85-82.738 2.371-14.226 5.339-29.55-1-42.5l29.631-8.776q1.515-5.317 2.645-10.721a6.968 6.968 0 0 0 -.893-.651c-3.311-1.991-7.39-2.114-11.042-3.372-.254-.088-.493-.2-.741-.3-.045.452-.078.9-.129 1.354-.439 3.838-1.336 8.031-4.423 10.353-3.012 2.265-7.138 2.038-10.906 1.944a90.145 90.145 0 0 0 -24.793 2.848 5.276 5.276 0 0 0 -2.639 1.269c-1.328 1.428-.727 3.807.461 5.353 2.408 3.133 13.221 6.964 16.231 9.524 0 0-.383 14.381-1.738 23.562q-5.232 35.474-10.464 70.945c-3.545-1.657-10.218-9.293-10.218-9.293a103.332 103.332 0 0 0 -10.313 55.818c.386 3.961 1.155 8.207 4.024 10.965 2.207 2.122 5.3 3 8.276 3.714a147.9 147.9 0 0 0 28.982 3.945 22.679 22.679 0 0 1 -8.905-10.069z" fill="#e59e9c"/><path d="m378.463 102.15c-3.711.49-7 2.563-10.145 4.585a10.112 10.112 0 0 0 -3.736 3.412c-.8 1.5-.616 3.686.855 4.552a5.083 5.083 0 0 0 2.83.42q18.168-.784 36.362-.257a64.059 64.059 0 0 1 3.934-11.777 4.6 4.6 0 0 1 -.466.15c-2.566.578-4.956-1.3-7.431-2.19a10.551 10.551 0 0 0 -12.826 5.665c-1.4-3.471-5.667-5.049-9.377-4.56z" fill="#e59e9c"/><path d="m138.543 428.293c-1.9-3.262-5.282-5.322-8.524-7.246l-49.668-29.471s-5.221 14.614-6.363 21.545c-1.2 7.312-2.2 14.75-1.4 22.117s3.569 14.746 8.924 19.855c6.417 6.123 15.582 8.24 24.336 9.6 5.749.892 11.638 1.562 17.361.518s11.335-4.033 14.339-9.027c2.921-4.856 3.034-10.843 3.031-16.513-.002-3.902-.073-8.01-2.036-11.378z" fill="#deafa6"/><path d="m300.026 208.819c-1.789-2.366-3.71-4.755-6.322-6.154s-6.1-1.568-8.35.365c-2.291 1.97-2.626 5.4-2.265 8.408.864 7.191 4.644 13.64 8.093 20a271.212 271.212 0 0 1 28.918 83.975q-35.945 4.853-72.149 7.383a184.943 184.943 0 0 0 -16.512-100.637c-.885-1.861-1.824-3.8-1.753-5.865.08-2.32 1.423-4.385 2.778-6.267 5.22-7.254 11.544-14.342 12.907-23.183a5.577 5.577 0 0 0 -.22-3.219c-1.15-2.447-4.584-2.394-7.25-1.984q-25.668 3.956-51.638 5.4c-6.762.377-13.572 1.429-20.3.68-27.848-3.1-47.936 13.241-47.936 13.241-10.847 11.433-16.883 26.949-18.385 42.656-1.01 10.565.058 21.711 5.512 30.808 2.038 3.4 4.8 6.554 8.461 8.055 6.186 2.534 13.4-.272 18.482-4.624s8.751-10.108 13.392-14.929c6.307-6.549 14.255-11.225 22.1-15.818l32.116-18.81a3.421 3.421 0 0 1 2.107-.671c.959.133 1.6 1.025 2.125 1.843 14.166 22.225 24.131 47.623 25.428 73.966s-6.678 53.641-24.5 73.044c-5.055 5.5-10.933 10.472-14.322 17.138s-3.464 15.852 2.264 20.648c25.906-13.255 40.887-40.791 53.336-67.145l74.531-6.021a4.249 4.249 0 0 1 2.358.258 4.3 4.3 0 0 1 1.689 2.5q2.589 7.023 5.179 14.048c6.3-8.881 7.722-20.292 8-31.186a189.318 189.318 0 0 0 -37.874-117.903z" fill="#deafa6"/><g fill="#aa6963"><path d="m138.543 428.293c-1.9-3.262-5.282-5.322-8.524-7.246l-21.267-12.618a57.8 57.8 0 0 1 2.357 28.916 45.816 45.816 0 0 1 -3.46 11.43 47.8 47.8 0 0 1 -10.549 14.187c2.884.739 5.836 1.279 8.745 1.73 5.749.892 11.638 1.562 17.361.518s11.335-4.033 14.339-9.027c2.921-4.856 3.034-10.843 3.031-16.513.001-3.901-.07-8.009-2.033-11.377z"/><path d="m185.737 191.844a41.54 41.54 0 0 0 -5-4.392 76.545 76.545 0 0 1 -14.775.273c-2.109-.235-4.167-.346-6.181-.374a38.513 38.513 0 0 1 -.717 34.127c-7.091 13.207-22.082 21.486-37.041 21.269a28.7 28.7 0 0 1 -9.453-1.559 26.8 26.8 0 0 1 -11.17-8.258 81.387 81.387 0 0 0 -1.757 10.692c-1.01 10.565.058 21.711 5.512 30.808 2.038 3.4 4.8 6.554 8.461 8.055 6.186 2.534 13.4-.272 18.482-4.624s8.751-10.108 13.392-14.929c6.307-6.549 14.255-11.225 22.1-15.818l31.971-18.728c-.072-13.43-4.542-26.947-13.824-36.542z"/><path d="m227.292 212.261c.449.736 1.041 1.554 1.9 1.585a2.114 2.114 0 0 0 1.222-.437 19.651 19.651 0 0 1 2.052-3.382c5.22-7.254 11.544-14.342 12.907-23.183a5.577 5.577 0 0 0 -.22-3.219c-1.15-2.447-4.584-2.394-7.25-1.984q-14.057 2.166-28.216 3.572c6.899 8.193 11.99 17.863 17.605 27.048z"/><path d="m246.145 347.121s1.956-25.65 2.028-26.313c-6.434 9.537-15.7 11.516-21.538 13.251-3.665 15.743-10.873 30.558-21.768 42.421-5.055 5.5-10.933 10.472-14.322 17.138s-3.464 15.852 2.264 20.648c25.906-13.255 40.891-40.791 53.336-67.145z"/><path d="m293.7 202.665c-2.612-1.4-6.1-1.568-8.35.365-2.291 1.97-2.626 5.4-2.265 8.408.864 7.191 4.644 13.64 8.093 20 .448.826.878 1.662 1.317 2.493a25.243 25.243 0 0 1 7.086-1.2c5.8-.135 11.456 1.282 17.13 2.594a184.812 184.812 0 0 0 -16.689-26.513c-1.785-2.359-3.706-4.748-6.322-6.147z"/><path d="m337.9 326.718a187.831 187.831 0 0 0 -7.89-58.472 50.7 50.7 0 0 1 -7.565 11.341 31.475 31.475 0 0 1 -8.787 7.228 270.16 270.16 0 0 1 6.445 28.6q-10.737 1.449-21.5 2.683a47.092 47.092 0 0 1 -7.864 25.422l29.937-2.418a4.249 4.249 0 0 1 2.358.258 4.3 4.3 0 0 1 1.689 2.5q2.589 7.023 5.179 14.048c6.298-8.885 7.722-20.296 7.998-31.19z"/></g><ellipse cx="87.818" cy="419.802" fill="#fce2e0" rx="8.257" ry="5.846" transform="matrix(.179 -.984 .984 .179 -340.92 431.206)"/><path d="m293.118 125.045s-13.444-5.884-15.4 10.653 7.424 25.5 21.209 11.159h5.743s2.3 11.392 15.7 11.392 65.968 3.27 65.968 3.27l11.236-3.27h22.35l2.489-42.2-105.7 2.937s-6.684-2.494-12.236 12.688z" fill="#d3e5dd"/><path d="m382.739 129.044c-4.891 18.245-25.769 16.784-25.769 16.784h-27.9a39.211 39.211 0 0 1 -27.736-11.514c-7.3 6.878-16.711 8.565-23.707 8.694 1.263 11.5 9.729 15.89 21.3 3.849h5.743s2.3 11.392 15.7 11.392 65.968 3.27 65.968 3.27l11.236-3.27h22.35l2.489-42.2-35.807 1c-1.361 3.611-2.699 7.639-3.867 11.995z" fill="#8caa99"/></g><g id="Layer_5" fill="#3a3245" data-name="Layer 5"><path d="m98.57 309.116a3.2 3.2 0 0 0 -.739 1.348c-12.505 14.669-23.752 30.338-32.639 47.32-7.3 13.1.817 22.909 11.537 30.378-8.769 19.3-13.121 43.586-3.814 63.452 12.558 19.461 53.34 21.315 74.008 16.605 5.351 9.665 36.677-.46 42.042-7.821 10.27-10.124 9.95-25.35 12.094-38.583 20.564-18.418 39.445-39.378 48.51-66.125 8.372-5.579 20.247-5.4 30.3-6.167a431.432 431.432 0 0 0 43.558-5.72c.579 8.247.657 16.533.461 24.821-6.1 33.225-7.006 67.11.276 100.387 1 4.595 8.058 2.651 7.051-1.944-7.01-32.058-6.129-64.768-.228-96.776a125.114 125.114 0 0 0 11.193-42.041c23.914 12.952 52.139 17.624 79.1 13.924 7.89-1.28 12.534-7.576 12.9-15.3 2.492-46.557-.527-93.579-10.557-139.1-.537-5.694 2-9.66 4.73-14.3a56.013 56.013 0 0 0 7.808-26.449 43.673 43.673 0 0 0 1.043-17.033c1.49-17.371-8.093-48.1-28.685-27.728-3.647-8.5-14.261-6.427-19.387-.594-7.119-7.7-17.121-1.141-22.957 4.7-2.126 1.911-4.256 4.459-4.371 7.148-9.46.366-18.917.529-28.388.829-.211-3.791-.478-7.58-.956-11.346 22.072-3.129 41.77-20.918 46.5-42.961a3.449 3.449 0 0 0 -3.289-4.317 105.259 105.259 0 0 1 -18.291-1c3.41-3.711 10.394-32-.831-26.113-35.119 30.414-90.337-9.644-123.513 21.842a34.711 34.711 0 0 0 -7.636 28.712c-19.041 7.255-25.206 31.793-15.567 48.932 2.849 6.931 9.268 10.991 13.468 16.875-2.915 13.11 8.6 31.1 23.361 28.521q-.4 2.295-.859 4.581c-12.961-.776-23.561-.042-36.626 3.638-7.4-2.065-23.6-1.909-29.424 3.446-46.332-8.241-77.057 9.834-81.7 58.288-.379 12.9-2.217 32.368 10.441 40.039 4.56 9.633-3.479 18.984-9.924 25.632zm234.33-147.716 13.165 1.118c-.476 27.243-1.521 54.642-7.492 81.339a53.6 53.6 0 0 1 -16.656-13.307c2.583-8.728 1.553-19.388-4.065-26.761 12.924-9.222 13.274-27.898 15.048-42.389zm26.8-11.4c-3.185-10.423.558-20.967 5.383-29.944 3.734-.2 7.814.777 11.286-.088-6.607 8.786-7.526 28.987-1.718 38.281l-11.13-.952c-1.484-2.312-3.044-4.384-3.821-7.297zm28.691 31.034c1.031 30.26-6.974 57.794-9.437 88.105a132.377 132.377 0 0 0 -13.932-10.553c5.039-9.738 6.96-21.659 8.445-32.444 2.342-17 3.894-34.331 3.461-51.549 3.195 2.807 7.672 4.74 11.464 6.441zm-30.461 141.774c-18.038-14.456-15.534-29.685-20.915-49.829a132.852 132.852 0 0 0 6.481-18.711c4.121 2.2 8.141 4.45 12.047 6.835a26.035 26.035 0 0 1 -10.883 8.366c-3.814 1.551-2.239 7.8 1.736 6.3a32.8 32.8 0 0 0 14.789-11.069q1.554 1.038 3.079 2.116a155.675 155.675 0 0 0 -6.334 55.992zm-24.31-61.082q-2.922-8.7-6.648-17.049a98.42 98.42 0 0 0 9.94 6.088c-.964 3.697-2.052 7.359-3.292 10.961zm74.925-106.138c-2.865-.124-6.251-.67-9.42-.633 4.582-10.183 4.737-26.308-1.552-35.644a115.5 115.5 0 0 1 15.11-.123c-6.006 9.052-6.879 26.828-.86 36.435-1.137.007-2.244.01-3.278-.035zm-39.245 8.883c1.3 18.177.064 36.576-2.1 54.634-1.3 10.832-2.5 24.992-7.878 35.888-4.539-2.741-9.322-5.219-14.091-7.617a321.3 321.3 0 0 0 7.316-84.315q8.379.707 16.753 1.41zm-75.027 40.312c16.395 19.735 28 43.589 34.8 68.268a72.608 72.608 0 0 1 -8.186 13.764c-7.271-24.826-17.385-50.382-32.181-71.644.631-3.682 1.405-7.34 2.09-11.076 1.164.253 2.324.477 3.478.688zm-9.885 131.77c-12.363.989-15.689-1.2-20.913-12.482 19.042-.419 38.226-2.223 56.762-6.756q1.171 6.772 1.983 13.6c-12.286 3.89-24.981 5.331-37.831 5.638zm34.533-26.326a297.854 297.854 0 0 1 -66.541 6.806 221.494 221.494 0 0 0 -.157-26.753c15.3 17.168 45.751 23.879 64.5 10.013q1.193 4.949 2.199 9.934zm-82.3-85.506q-1.212-2.788-2.513-5.547c8.3-7.63 12.953-19.744 15.969-30.305 6.521 13.1 17.272 22.558 31.189 26.174-1.271 12.317-1.248 24.437 2.241 36.535-17.461-4.671-36.145-11.245-46.889-26.857zm15.43 22.209c4.417 2.743 39.746 20.108 39.56 9.817-.472-9.4-4.235-18.108-4.124-27.722a6.276 6.276 0 0 0 1.154.55c10.78 20.368 20.217 41.082 26.252 63.619-13.794 12.463-35.153 8.122-49.846-.53-5.7-3.523-9.589-8.415-13.854-13.458a199.318 199.318 0 0 0 -8.431-38.265 98.783 98.783 0 0 0 9.286 5.989zm-55.3 133.346c-.465-13.818-7.483-28.485-16.6-38.775a250.774 250.774 0 0 0 22.289-29.391c2.095-3.355-2.77-6.2-5.3-4.213-9.393 9.455-17.978 19.926-29.183 27.43a175.28 175.28 0 0 0 -37.477-49.7c20.234-20.125 41.274-40.2 67.3-52.584 21.282 28.292 31.374 65.231 23.583 100.2-4.508 17.499-10.782 34.757-24.61 47.033zm-117.906 67.269c-6.911-16.265-3.932-35.623 2.036-51.721 17.174 12.525 36.2 22.582 52.337 36.476 4.862 5.17 1.184 13.493-1.22 19.22-4 7.464-10.085 9.547-17.449 11.069-11.939-1.789-28.883-3.528-35.704-15.044zm76.848 17.9c-2.606-.427-3.36-1.879-4.38-4.239-6.037-10.5-1.94-23.844 9.922-27.468 7.571 4.011 3.628 10.131-2.716 12.627-3.538 2.077-1.146 7.359 2.734 6.483 13.237-3.507 15.32-19.642 2.549-25.6-31.235-12.82-62.809-26.417-88.469-48.9-5.847-5.179-7.983-10.606-4-17.927 13.666-25.284 32.224-47.454 52.053-68.083 14.4 15.181 24.575 31.777 30.066 52.111-8.4 4.352-17.078 9.011-26.163 11.542a26.172 26.172 0 0 0 -13.7-.156c-3.1.852-2.316 5.245.736 5.433 7.062.434 13.172 1.241 19.52 4.647 15.794 9.365 26.95 24.687 40.142 37.19 26.313 25.842 23.543 59.98-18.294 62.337zm175.576-118.134a266.25 266.25 0 0 0 -8.2-52.568 61.582 61.582 0 0 0 8.548-11.3c4.491 21.1 5.037 43.097-.348 63.868zm85.017-156.947a468.86 468.86 0 0 1 10.782 113.007c-.739 8.7 1.091 18.414-1.084 26.846-2.74 7.281-18.665 4.784-25.341 5.455-11.912-.307-24.757-1.793-34.933-7.619a147 147 0 0 1 4.8-56.525 109.417 109.417 0 0 1 8.721 7.815c.878 7.779 3.538 14.881 9.573 19.788 3.458 2.811 8.436-1.951 4.983-4.983-13.1-12.368-5.637-37.86-4.031-53.879 3.218-20.353 6.247-40.6 4.872-61.273a3.131 3.131 0 0 0 -1.558-2.718c-5.8-2.506-13.562-4.7-15.746-11.132 5.837.409 11.946 2.229 16.644-2.675a160.42 160.42 0 0 0 16.154-.431c5.238.633 10.516 1.054 15.389-.531-3.542 9.748-11.459 17.699-9.225 28.855zm8.316-86.051c1.759 2.232 2.741 5.946 3.452 9.094a10.083 10.083 0 0 0 -3.838-1.12c2.051-2.449.156-6.813-3.189-5.066-1.614 1.073-4.4 4.046-7.024 4.935-6.341.832-3.87-3.908.013-7.386 3.446-1.681 7.609-4.233 10.584-.457zm-24.179.07c3.194 1.43-1.792 6.076-3.377 6.942-11.769 5.221-2.287-9.025 3.377-6.942zm-31.1 8.516c1.708-3.334 7.393-6.063 10.065-8.371a3.2 3.2 0 0 1 2.96.8c2.615 6.402-8.577 8.818-13.025 7.572zm-12.353 7.427c-6.058 11.63-6.954 23.379-2.511 36.195q-17.205-1.477-34.413-2.946c-6.634-.565-11.719-3.759-12.3-11.027-.743-9.255 1.427-20.267 12.274-20.9 12.294-.713 24.643-.829 36.95-1.322zm-62.77 7.715a6.058 6.058 0 0 1 1.013 1.862c-4.037 4.947-4.818 11.921-.855 17.259-5.4 7.944-14.561-1.31-13.384-8.7.251-8.334 6.696-13.662 13.226-10.421zm25.044-13.08a17.28 17.28 0 0 0 -15.185 9.834 11.894 11.894 0 0 0 -2.547.578c-12.822-14.117-30.515.534-27.139 17.073 1.118 12.209 17.44 20.549 25.338 9.139a8.012 8.012 0 0 0 4.184.487c3.729 7.8 14.574 8.518 22.5 8.771-1.588 11.365-2.049 30.42-12.269 37.383-5.15 2.6-12.251 1.142-17.584.051-26.013-3.677-35.242-17.938-41.172-42.147 19.86-7.065 9.528-30.371 19.649-42.642 8.241-9.6 39.063-5.908 51.568-7.385.125 2.827.3 5.653.456 8.479-2.602.108-5.203.225-7.799.379zm-75.412-65.069c32.07-16.127 77.332 10.326 111.856-12.461-1.916 22.26-22.636 22.831 15.43 25.119-11.545 32.467-42.4 36.645-72.554 32.507-10.988-.718-22.838.674-29.958 8.791-4.4 6.025-8.613 12.764-15.039 16.848-11.459 7.735-28.963 2.179-32.613-11.482-2.8-18.483 14.851-22.715 11.7-27.354-2.94-11.76.262-25.269 11.178-31.968zm-6.712 114.4c-5.234-4.637-11.474-16.3-4.416-21.729 8.451-2.773 12.509 10.046 15.345 15.849a11.788 11.788 0 0 1 -1.511 7.323c-2.781 1.626-5.85 1.532-9.418-1.441zm-16.4 21.635a105.111 105.111 0 0 1 21.011-1.238c.222 7.977-6.843 18.911-15.088 17.92-3.767-5.156-7.034-10.388-10.618-15.615 1.807-.407 3.503-.889 4.698-1.065zm-20.507 2.042c3.355.07 4.645-.679 6.678 1.1 3.683 3.226 6.1 8.175 9 12.149 13.36 18.353 21.463 40.61 26.014 62.76 11.608 53.843.6 110.109-47 142.869-1.46-15.878-1.314-15.181 10.583-25.477 50.538-55.37 26.498-139.703-16.075-192.37a47.844 47.844 0 0 1 10.803-1.029zm-24.693 4.035c12.067 11.543 22.725 32.153 4.164 43.2-6.362 2.985-16.109 10.506-23.027 6.734 4.817-16.743 4.663-38.858-10.836-50.038 9.617-1.515 19.946-.839 29.702.106zm-68.934 77.623c-5.209-21.706-.693-47.343 13.809-64.635 16.186-19.185 30.031-6.362 31.418 14.79-10.58-20.416-30.84-.651-35.57 13.587-4.245 7.919-6.529 30.753 7.3 29.169 7.157-1.832 11.682-11.592 14.385-17.734 1.62-3.679-3.526-6.943-5.531-3.233-2.254 4.169-4.907 8.645-8.266 12.009-2.336 2.338-2.419 2.548-3.4-.932-2.849-10.4 6.976-32.91 18.721-34.217 6.158-.217 7.539 8.426 7.642 12.972-.068 16.632-10.513 35.77-24.186 45.1-7.328 3.956-14.056.786-16.319-6.874z"/><path d="m315.578 174.459c1.766-2.083.141-5.642-2.8-4.805-8.042 3.6-14.177 4.64-21.952-.5-2.877-1.58-6.062 2.258-3.578 4.639 6.719 6.432 21.737 8.447 28.33.666z"/></g></svg>