<svg height="512" viewBox="0 0 500 500" width="512" xmlns="http://www.w3.org/2000/svg"><g id="Layer_4" data-name="Layer 4"><path d="m327.828 56.914c-.9.658 41.856 33.969 47.586 86.744 0 0 55.559-15.731 71.753-54.352s0-52.323 0-52.323-38.617-39.116-119.339 19.931z" fill="#e6eeff"/><path d="m447.167 36.983a34.183 34.183 0 0 0 -6.511-4.738 47.634 47.634 0 0 1 -1.681 28.764 48.233 48.233 0 0 1 -34.617 28.939c-35.873 7.442-55.117-19.5-30.358-41.148 0 0-17.87 8.32-15.686-10.8a218.413 218.413 0 0 0 -30.488 18.92c-.9.658 41.856 33.969 47.586 86.744 0 0 55.559-15.731 71.753-54.352s.002-52.329.002-52.329z" fill="#9ba9c9"/><path d="m51.188 275.031 334.543-182.366s11.827-12.427-4.457-17.185l-332.846 181.02s-10.109 3.653-7.4 13.762 10.16 4.769 10.16 4.769z" fill="#f7978d"/><path d="m338.441 110.956c-7.954.349-16.382.077-24.322 1.047l-26.853 14.605c-2.914 3.858-5.482 8.047-8.633 11.72-7.195 8.39-17.167 13.807-26.9 19.038-30.076 16.159-60.168 32.325-91.028 46.931-7.012 3.319-14.339 6.621-22.1 6.656a37.623 37.623 0 0 1 -5.588-.454l-50.77 27.611c-2.233 6.59-3.842 13.525-6.074 20.1-.455 1.343-.967 2.691-1.527 4.03l281.344-153.363a122.054 122.054 0 0 1 -17.549 2.079z" fill="#c96157"/><path d="m401.137 260.116c-1.605-4.264-5.151-7.449-8.572-10.458-22.014-19.364-44.236-38.878-69.786-53.259-9.375-5.277-19.482-9.92-30.228-10.427-15.384-.727-29.748 7.013-43.193 14.524l-31.241 17.453a133.845 133.845 0 0 0 -14.726 9.082c-7.626 5.664-13.535 13.235-19.9 20.288-17.15 19.007-24.432 41.974-24.432 41.974 3.617 13.914 14.772 24.472 21.341 37.261 8.666 16.87 8.936 36.681 8.405 55.64q-1.007 36.03-4.945 71.9l68.283 5.824c7.586.647 15.225 1.293 22.8.521 10.542-1.074 20.594-4.854 30.507-8.6 22.541-8.519 45.1-17.046 67.042-27.009 5.9-2.681 12.237-5.941 14.793-11.9 1.971-4.594 1.255-9.834.646-14.795a258.337 258.337 0 0 1 6.481-96.551c2.522-9.637 5.61-19.156 7.177-28.993.664-4.158 1.031-8.536-.452-12.475z" fill="#fff5f3"/><path d="m281.5 459.427c8.186-1.65 16.111-4.628 23.948-7.59 22.541-8.519 45.1-17.046 67.042-27.009 5.9-2.681 12.237-5.941 14.793-11.9 1.971-4.594 1.255-9.834.646-14.795a258.337 258.337 0 0 1 6.481-96.551c2.522-9.637 5.61-19.156 7.177-28.993.663-4.157 1.03-8.535-.453-12.474-1.605-4.264-5.151-7.449-8.572-10.458-22.014-19.364-44.236-38.878-69.786-53.259-9.375-5.277-19.482-9.92-30.228-10.427-8.913-.421-17.481 2.007-25.729 5.579l5.889 19.722c15.107 4.815 25.949 20.583 25.037 36.413-.406 7.055-2.866 13.809-5.3 20.444l-9.819 26.771c-2.613 7.122-5.372 14.478-10.7 19.876-10.852 10.991-28.419 10.539-43.813 9.29-1.716-.139-.531-6.063-.531-6.063-7.851-25.329-.91-52.9 9.413-77.329 5.425-12.834 11.911-26.2 11.773-39.849l-30.65 17.122c-1.977 1.1-3.956 2.212-5.911 3.357-3.521 12.99-4.99 26.6-10.254 38.984a68.756 68.756 0 0 1 -39.71 37.381c4.937 10.069 12.971 18.783 18.159 28.883a77.054 77.054 0 0 1 7.493 25.829 17.694 17.694 0 0 0 3.137-.581q13.828 7.542 27.733 14.945c12.892 6.852 26.159 13.858 35.711 24.9 15.892 18.373 19.016 44.768 27.024 67.782z" fill="#c9a6a6"/><path d="m294.223 121.845c-1.955-4.037-6.645-5.93-11.05-6.774s-9.061-1.04-13.006-3.174c-6.9-3.732-9.588-12.114-14.557-18.188-5.649-6.9-14.352-10.755-23.145-12.258s-36.348-.04-36.348-.04c-1.63 27.557-3.217 55.621 3.461 82.407 1.643 6.588 4.381 13.765 10.555 16.59a21.494 21.494 0 0 0 8.643 1.5 78.876 78.876 0 0 0 24.409-3.474c.591 22.5-13.9 44.077-10.217 66.285 6.588-2.023 12.27-6.218 17.622-10.561a246.869 246.869 0 0 0 25.041-23.385c2.6-2.787 5.168-5.7 6.718-9.173 2.69-6.033 1.98-13.057.159-19.406s-4.687-12.376-6.271-18.788c-1.094-4.428-1.4-9.595 1.551-13.072 2.49-2.932 6.615-3.844 9.665-6.188 3.415-2.623 5.21-6.816 6.49-10.928 1.157-3.709 1.975-7.874.28-11.373z" fill="#ffdad2"/><path d="m449.269 313.027a81.662 81.662 0 0 0 -8.372-17.361 95.785 95.785 0 0 0 -11.197-13.466 254.6 254.6 0 0 0 -29.348-26.116 88.846 88.846 0 0 0 -28.62 49.725s25.185 10.337 32.7 21.268 11.746 23.783 14.77 36.7a231.542 231.542 0 0 1 5.98 45.6c.133 4.288.1 8.784-1.911 12.574-1.952 3.682-5.494 6.191-8.475 9.1a37.885 37.885 0 0 0 -11.27 26.407c-.014 1.449.185 3.134 1.411 3.9a4.484 4.484 0 0 0 2.812.368q4.28-.385 8.528-1.061l-7.07 23.9a3.326 3.326 0 0 0 -.13 2.21 3.056 3.056 0 0 0 2.234 1.458c8.517 2.13 17.563-2.719 22.921-9.674s7.785-15.669 10-24.164c6.051-23.176 11.431-46.643 13.234-70.527s-.072-48.308-8.197-70.841z" fill="#ffdad2"/><path d="m177.965 329.909a77.074 77.074 0 0 0 -15.273-28.395c-2.168-2.549-4.689-5.067-7.94-5.863l-10.766 17.643a123.493 123.493 0 0 1 -9.222-38.187c-.893-11.6.115-24.054 6.983-33.448.118 3.828 4.182 6.6 8.011 6.606s7.354-2 10.52-4.156c5.209-3.546 10.544-8.911 9.488-15.124-.407-2.4-1.74-4.515-2.7-6.749-3.794-8.855-1.595-19.167-4.038-28.485-1.154-4.4-4.38-9.154-8.924-8.859-5 .326-7.824 6.486-12.726 7.529-1.885.4-3.842-.02-5.766.084-6.559.353-11.237 6.458-17.328 8.917-2.868 1.158-6.045 1.5-8.794 2.915s-5.156 10.408-5.156 10.408c1.354 28.418-1.4 56.867-1.421 85.317s2.855 57.536 14.75 83.381a17.859 17.859 0 0 0 3.221 5.2c2.728 2.775 6.97 3.637 10.82 3.067s7.393-2.393 10.749-4.363a111.636 111.636 0 0 0 27.93-23.27c3.651-4.228 7.05-8.862 8.6-14.23 1.865-6.481.86-13.459-1.018-19.938z" fill="#ffdad2"/><path d="m221.722 163.654a14.876 14.876 0 0 1 8.656-16.564c11.3-5.389 16.49 3.392 16.49 3.392s1.094 9.795-11.706 14.264c-9.449 3.299-13.44-1.092-13.44-1.092z" fill="#ff8a9b"/><path d="m294.223 121.845c-1.955-4.037-6.645-5.93-11.05-6.774s-9.061-1.04-13.006-3.174c-6.9-3.732-9.588-12.114-14.557-18.188-5.649-6.9-14.352-10.755-23.145-12.258-5.547-.948-18.553-.716-27.4-.416q7.985 1.914 15.752 4.613c7.057 2.455 14.4 5.768 18.287 12.15 3.513 5.773 3.514 12.916 4.686 19.572 1.494 8.475 5.041 16.722 4.568 25.314-.58 10.516-7.256 19.938-15.632 26.323-6.643 5.065-14.307 8.517-22.1 11.6a22.46 22.46 0 0 0 8.16 1.307 78.876 78.876 0 0 0 24.409-3.474 57.283 57.283 0 0 1 -.354 7.75 18.141 18.141 0 0 1 5.511-2.522c8.227-2.018 16.764 4.452 19.478 12.475s.853 16.9-2.272 24.776c-.012.032-.027.063-.04.095q5.207-4.971 10.123-10.235c2.6-2.787 5.168-5.7 6.718-9.173 2.69-6.033 1.98-13.057.159-19.406s-4.687-12.376-6.271-18.788c-1.094-4.428-1.4-9.595 1.551-13.072 2.49-2.932 6.615-3.844 9.665-6.188 3.415-2.623 5.21-6.816 6.49-10.928 1.147-3.715 1.965-7.88.27-11.379z" fill="#e59e9c"/><path d="m177.965 329.909a77.074 77.074 0 0 0 -15.273-28.395c-2.168-2.549-4.689-5.067-7.94-5.863q-4.622 7.573-9.242 15.147a103.677 103.677 0 0 1 -6.96 30.789c-1.805 4.555-4.016 9.1-7.6 12.439a20.115 20.115 0 0 1 -16.8 5.054 19.5 19.5 0 0 1 -5.433-1.782 142.742 142.742 0 0 0 8.949 26.145 17.859 17.859 0 0 0 3.221 5.2c2.728 2.775 6.97 3.637 10.82 3.067s7.393-2.393 10.749-4.363a111.636 111.636 0 0 0 27.93-23.27c3.651-4.228 7.05-8.862 8.6-14.23 1.862-6.481.857-13.459-1.021-19.938z" fill="#e59e9c"/><path d="m141.747 241.659c.118 3.828 4.182 6.6 8.011 6.606s7.354-2 10.52-4.156c5.209-3.546 10.544-8.911 9.488-15.124-.407-2.4-1.74-4.515-2.7-6.749-2.323-5.423-2.4-11.392-2.671-17.345a32.034 32.034 0 0 1 -12.331 11.128 14.164 14.164 0 0 0 -3.261 1.932 20.63 20.63 0 0 0 -2.115 2.585 13.441 13.441 0 0 1 -13.317 4.572 11.929 11.929 0 0 1 -20.556 2.765l-2.8 4.374c-1.759 6.633 1.471 15.139 8.224 16.364 2.691.488 5.432-.231 8.149-.54a27.385 27.385 0 0 1 11.256 1.111 33.314 33.314 0 0 1 4.103-7.523z" fill="#e59e9c"/><path d="m440.9 295.666a95.785 95.785 0 0 0 -11.2-13.466 254.6 254.6 0 0 0 -29.348-26.116 87.714 87.714 0 0 0 -14.85 16.788 154.8 154.8 0 0 1 26.374 17.871c12.418 10.643 22.773 24.095 27.892 39.628 3.966 12.034 4.689 24.875 4.894 37.544.136 8.411.043 16.939-2.165 25.056s-6.773 15.889-13.894 20.367a32.458 32.458 0 0 1 -3.522 1.887 17.536 17.536 0 0 1 -1.812 6.727c-1.952 3.682-5.494 6.191-8.475 9.1a37.885 37.885 0 0 0 -11.27 26.407c-.014 1.449.185 3.134 1.411 3.9a4.484 4.484 0 0 0 2.812.368q4.28-.385 8.528-1.061l-7.07 23.9a3.326 3.326 0 0 0 -.13 2.21 3.056 3.056 0 0 0 2.234 1.458c8.517 2.13 17.563-2.719 22.921-9.674s7.785-15.669 10-24.164c6.051-23.176 11.431-46.643 13.234-70.527s-.074-48.319-8.2-70.852a81.662 81.662 0 0 0 -8.364-17.351z" fill="#e59e9c"/><path d="m303.586 70.152c-2.857-3.613-7.284-6.061-9.062-10.31-1.069-2.555-1.017-5.413-1.22-8.174-.859-11.7-7.255-23.322-17.734-28.591-10.418-5.239-22.8-3.667-34.36-2.125-12.64 1.686-25.389 3.188-38.118 2.421s-25.549-3.923-36.22-10.906a60.31 60.31 0 0 0 6.68 24.071c-7.143 1.635-22.046 2.352-22.046 2.352 2.62 13.355 12.265 24.673 24.1 31.389s25.671 9.229 39.278 9.472c8.775.156 17.75-.56 26.159 1.955a35.387 35.387 0 0 1 17.957 12.482c3.736 4.948 6.453 11.152 11.99 13.941 6.162 3.1 13.694.81 19.657-2.658 6.158-3.58 11.747-8.568 14.654-15.07s2.699-14.663-1.715-20.249z" fill="#ffc17d"/><path d="m294.524 59.842c-1.069-2.555-1.017-5.413-1.22-8.174-.859-11.7-7.255-23.322-17.734-28.591a30.935 30.935 0 0 0 -5.625-2.147 39.163 39.163 0 0 1 2.729 20.786c-.7 4.791-2.557 9.781-6.593 12.456-6.125 4.06-14.22 1.265-21.566 1.088-12.721-.308-23.943 7.569-35.57 12.738a80.935 80.935 0 0 1 -24.369 6.463c9.592 3.619 20.014 5.106 30.309 5.29 8.775.156 17.75-.56 26.159 1.955a35.387 35.387 0 0 1 17.956 12.482c3.736 4.948 6.453 11.152 11.99 13.941 6.162 3.1 13.694.81 19.657-2.658 6.158-3.58 11.747-8.568 14.654-15.07s2.7-14.663-1.719-20.249c-2.853-3.613-7.282-6.061-9.058-10.31z" fill="#d37f46"/><path d="m414.492 204.323c-.966-12.183-6.573-24.43-16.714-31.212-6.755-4.518-14.91-6.322-22.878-7.887-9.917-1.947-20.915-3.484-29.526 1.817-5.717-5.228-12.923-5.738-21.659-1.405l-18.707-1.213c-7.805-.506-15.673-1.01-23.422.057-1.606.222-3.41.649-4.211 2.062a5 5 0 0 0 -.5 2.284 23.513 23.513 0 0 0 13.54 21.879c4.9 2.19 10.7 2.728 14.705 6.3a246.384 246.384 0 0 0 -30.864 109.239 173.8 173.8 0 0 1 -69.813-1.464c6.239-22.927 8.229-47.276 19.2-68.3 3.643-6.98 8.219-13.463 11.485-20.628a63.36 63.36 0 0 0 5.156-34.107 12.672 12.672 0 0 0 -4.823 2.9c-16.443 13.888-27.835 33.048-35.281 53.269s-11.183 41.6-14.34 62.926c-2.86 19.309-5.06 40.065 3.784 57.456 0 0 2.461-15.632 4.4-22.846.917-3.4 2.1-6.725 3.352-10.023 5.994 4.381 13.767 5.9 21.216 6.832a207.121 207.121 0 0 0 28.02 1.573c3.64-.043 7.425-.219 10.642-1.928 2.985-1.587 5.164-4.327 7.768-6.486 7.459-6.182 17.951-7.292 26.027-12.638a7.968 7.968 0 0 0 2.648-2.523 9.443 9.443 0 0 0 .924-3.813c3.384-33.777 15.873-71.142 31.087-101.47 15.731 11.509 59.572 41.8 66.621 43.294 3.855.818 8.25.984 11.338-1.469 2.1-1.666 3.213-4.252 4.186-6.751 4.43-11.376 7.604-23.542 6.639-35.725z" fill="#deafa6"/><g fill="#aa6963"><path d="m414.492 202.459a48.862 48.862 0 0 0 -.906-6.193 23.067 23.067 0 0 1 -5.067 5.977c-9.148 7.515-24.034 5.527-32.009-3.228-3.6-3.95-5.982-9.213-5.674-14.554.305-5.292 3.126-10.066 5.923-14.565 1.129-1.817 2.306-3.66 3.594-5.4-1.815-.41-3.639-.781-5.453-1.137-9.917-1.948-20.915-3.485-29.526 1.816l-1.662-.107c-.055.07-.113.138-.167.209-6.407 8.305-10.492 18.132-14.486 27.839a48.822 48.822 0 0 0 -3.288 10.049c15.782 11.542 59.517 41.753 66.557 43.247 3.855.818 8.25.985 11.338-1.469 2.1-1.666 3.213-4.252 4.186-6.751 4.431-11.384 7.605-23.55 6.64-35.733z"/><path d="m305.008 162.559c-7.805-.506-15.673-1.01-23.422.057-1.606.222-3.41.649-4.211 2.062a5 5 0 0 0 -.5 2.284 23.512 23.512 0 0 0 13.54 21.879c4.9 2.19 10.7 2.728 14.705 6.306-1.314 2.355 11.707-21.619 20.075-31.278z"/><path d="m293.7 308.4a9.451 9.451 0 0 0 .924-3.813 248.444 248.444 0 0 1 7.137-38.265c-1.317 1.865-2.712 3.675-4.2 5.41-5.917 6.883-13.39 12.6-21.949 15.549-.642 5.683-1.11 11.386-1.35 17.1a172.156 172.156 0 0 1 -28.644 2.815 46.907 46.907 0 0 1 -8.034 18.422 73.97 73.97 0 0 1 -4.771 6.055q6.894.38 13.8.3c3.64-.043 7.425-.219 10.642-1.928 2.985-1.587 5.164-4.327 7.768-6.486 7.459-6.182 17.951-7.292 26.027-12.638a7.975 7.975 0 0 0 2.65-2.521z"/><path d="m204.442 304.785c4.453-16.363 6.757-33.444 11.689-49.529a66.079 66.079 0 0 1 -17.045 16.63 78.688 78.688 0 0 1 -9.363 5.419c-1.479 7.816-2.723 15.684-3.887 23.545-2.86 19.309-5.06 40.065 3.784 57.456 0 0 2.461-15.632 4.4-22.846.917-3.406 2.1-6.725 3.352-10.023a26.158 26.158 0 0 0 2.859 1.8c1.148-5.919 2-11.9 3.389-17.765.363-1.539.776-3.075 1.226-4.6-.132-.031-.269-.057-.404-.087z"/><path d="m225.721 209.7a53.991 53.991 0 0 1 2.758 18.3 126.578 126.578 0 0 0 6.645-12.14 63.36 63.36 0 0 0 5.156-34.107 12.672 12.672 0 0 0 -4.823 2.9 103.477 103.477 0 0 0 -14.857 15.589 34.828 34.828 0 0 1 5.121 9.458z"/></g><path d="m202.544 240.107c2.8 1.618 6.906-.271 9.18-4.221s1.852-8.463-.944-10.081c-1.708-.989-3.905-.663-5.875.636-1.629 3.557-3.117 7.176-4.48 10.83a4.733 4.733 0 0 0 2.119 2.836z" fill="#fce2e0"/><path d="m240.783 459.427 79.569 7.847s77.31-23.469 105.677-44.97c0 0 4.646-69.873-21.6-95.223a98.847 98.847 0 0 0 -66.889-27.922l-46.492 13.631s-39.687 3.369-48.884 56.487c0 0-5.42 56.053-1.381 90.15z" fill="#f7978d"/><path d="m239.415 438.612c.192 7.364.616 14.47 1.368 20.815l79.569 7.847s77.31-23.469 105.677-44.97c0 0 4.646-69.873-21.6-95.223a98.847 98.847 0 0 0 -66.889-27.922l-6.1 1.789a69.078 69.078 0 0 1 11.707 9.985c18.15 18.8 30.286 44.746 27.614 70.743s-22.619 50.7-48.531 54.094c-4.366.572-8.807.566-13.126 1.421-8.591 1.7-16.281 6.717-24.915 8.181-12.5 2.12-24.852-3.416-37.291-5.87a44.744 44.744 0 0 0 -7.483-.89z" fill="#bf4c4c"/><path d="m288.075 313.284c-9.386 2-38.243 11.707-45.911 55.993 0 0-2.268 23.462-2.776 49.26 17.225-6.559 28.047-30.487 30.295-64.437a62.186 62.186 0 0 1 18.392-40.816z" fill="#ffebe8"/><path d="m379.619 362.082 26.381-9.658-1.472 25.886s-13.1 14.4-22.586 10.239-2.323-26.467-2.323-26.467z" fill="#ffc17d"/><path d="m404.529 378.31 1.471-25.886-11.113 4.068c.024 7.781-1.284 24.684-12.443 32.244 9.44 3.464 22.085-10.426 22.085-10.426z" fill="#f48a4e"/><path d="m377.139 30v.025c0 8.788 8.925 15.913 19.935 15.913s19.934-7.125 19.934-15.913a13.047 13.047 0 0 0 -1.215-5.429c-10.293-.957-23.163.115-38.654 5.404z" fill="#fff"/></g><g id="Layer_5" fill="#3a3245" data-name="Layer 5"><path d="m210.038 142.01c5.146.378 1.762-6.868 3.723-9.819 1.012-2.433 3.033-4.072 4.2-6.357.932-1.822-.633-4.441-2.84-3.7-6.009 1.754-12.628 16.855-5.083 19.876z"/><path d="m223.36 118.422c5.074-6.318 11.308-7.033 16.276-.044 2.231 2.887 6.617-.8 4.932-3.807a14.742 14.742 0 0 0 -14.268-7.348c-4.513.506-11.454 4.185-10.767 9.614a2.276 2.276 0 0 0 3.827 1.585z"/><path d="m242.98 130.251a2.061 2.061 0 0 0 -1.88.311c-9.424 8.967-23.576 17.009-29.29 20.084a3.615 3.615 0 0 0 -1.728 4.31c9.226 27.973 56.336 7.407 35.515-23.321a2.906 2.906 0 0 0 -2.617-1.384zm-6.63 29.258c-3.711 1.841-8.083 2.938-11.929 2.054.783-9.416 11.207-18.695 19.442-10.425-1.03 3.521-3.557 6.409-7.513 8.371z"/><path d="m50.519 280.113c3.214 1.938 46.588-24.849 50.218-26.206-3.8 39.351-.522 79.472 8.642 117.852 1.646 6.777 2.972 14.437 8.035 19.635 10.647 10.932 26.166-1.117 35.831-7.479 11.359-7.675 22.226-15.521 32.462-24.809-.843 32.165-2.655 64.351-6.5 96.306-.59 4.733 6.9 4.729 7.453 0 2.28-19.574 3.734-39.249 4.8-58.923 1.264-20.43 1.358-41.725 7.5-61.614 7.927-1.162 16.407 1.694 24.426 2.232 7.637 1 15.145 1.786 22.867 2.232-13.917 37.618-10.962 78.788-10.424 118.172a3.282 3.282 0 0 0 2.35 3.085c26.56 6.614 53.918 8.86 81.188 9.631 12.574-1.521 25.451-7.177 37.218-11.692 17.29-6.643 34.163-14.28 50.735-22.558a101.552 101.552 0 0 0 -6.62 22.879c-.81 5.7 8.484 6.223 11.51 5-1.621 6.926-11.729 20.646-4.649 26.016 4.455 3.474 11.475 1.456 16.21-.341 24.456-8.673 28.507-37.793 30.348-60.389 12.388-38.839 10.892-82.956-2.239-121.463-6.413-16.8-20.659-28.824-33.532-40.744-4.788-6.087-8.508-10.917-8.073-19.164.35-6.644 2.474-12.9 4.543-19.147a42.83 42.83 0 0 0 3.434-17.233c1.327-42.748-34.767-60.176-72.714-49.635-6-1.922-13.528-3.981-19.637-1.441-14.455-3.6-31.581-3.927-46.1.294-.24-1.411-.453-2.827-.648-4.246l84.4-45.645a108.336 108.336 0 0 1 8.395 34.36 3.4 3.4 0 0 0 4.253 3.239c27.854-8.664 55.587-27.288 71.44-51.951 13.146-18.852 19.04-47.692-.735-64.264-21.4-16.931-52.267-10.961-76.232-2.99-16.387 5.95-32.643 14.49-46.148 25.639a3.362 3.362 0 0 0 0 4.746 136.257 136.257 0 0 1 26.453 28.2l-40.755 21.984c11.865-16.852 7.251-43.7-13-51.444a33.828 33.828 0 0 0 -7.254-27.688c-32.088-31.149-86.209 8.151-120.422-21.515-11.131-5.836-4.3 21.764-1.019 25.41a102.9 102.9 0 0 1 -17.658.952 3.45 3.45 0 0 0 -3.289 4.317c4.6 21.438 23.773 38.841 45.246 41.857-2.562 27.429-3.491 62.666 6.283 88.592l-34.672 18.9c-2.858-8.589-9.952-10.9-16.886-4.89-2.467 1.925-4.836 4.6-8.069 5-13.813-.887-10.793 2.564-21.075 8.2-16.768 3.751-17.355 10.526-17.483 26.4l-56.677 31.757a13.149 13.149 0 0 0 -6.392 8.143c-2.393 7.998 4.487 16.75 12.662 16.441zm327.706-198.013c5.856-3.145 10.721 5.783 4.847 8.974l-86.21 46.626c2.11-4.325 3.348-8.765 2.833-13.235zm-96.4 110.029c5.212 13.676-35.3 42.615-46.6 48.354-.71-12.556 4.691-24.524 7.226-36.656 6.708-15.2 19.178-27.116 31.184-38.284 1.475 9.213 5.322 17.81 8.189 26.587zm26.315 136.24c-4.494-.2-9.162.093-13.3-.071-3.387-.163-26.9-3.182-20.651 4.569 5.742 2.9 14.293 1.682 20.651 1.945 5.61.232 12.208 1.318 18.067.715 6.564 12.834 7.721 30.823 7.4 43.348-24.654-4.832-49.661-7.05-74.652-9.318a100.158 100.158 0 0 1 3.728-14.669c19.813 1.066 42.116 4.792 60.255 4.607 3.615.321 3.593-5.322 0-5.641 2.9.257-.707-.35-1.7-.538-18.742-2.665-36.938-2.921-55.806-5.473 7.682-21.686 37.977-39.514 56.008-19.474zm102 18.968c-27.541 10.872-55.51 20.6-83.234 30.973a129.458 129.458 0 0 0 -.943-19.263c26.407-6.505 52.266-14.807 77.946-23.769a57.687 57.687 0 0 1 6.232 12.059zm-24.6 37.166c-3.36.354-3.481-2.4-3.49-5.195q-.021-7.107-.1-14.21 9.752-3.629 19.483-7.317c-1.533 19.74 4.909 19.55-15.896 26.719zm-105.664 18.091c-12.379-1.6-24.607-3.779-36.845-6.2.733-5.916-.916-12.907 4.1-17.244 24.547 2.51 45.826 5.021 69.62 9.464 5.09 4.907 2.073 12.186 1.989 18.314-12.996-1.018-25.95-2.528-38.864-4.334zm128.409-28.657c.169-3.111.265-6.228.342-9.346 1.731-.432 3.43-1.1 5.189-1.517.574 3.184 1.185 6.362 1.755 9.549-2.5.888-4.972 1.854-7.438 2.857.067-.495.123-1.005.152-1.543zm-24.821-39c-19.3 6.656-38.952 11.877-58.554 17.492a75 75 0 0 0 -4.948-16.689c3.529-3.041 9.725-4.533 13.937-5.988 15.281-5.1 31.429-8.5 46.3-14.874a78.592 78.592 0 0 1 18.91 14.382c-5.29 1.583-10.576 3.987-15.645 5.672zm-78.864-23.495c24.294-8.548 42.033-12.767 66.463-1.062-18.364 6.552-36.719 11.965-55.317 17.638-4.509-6.719-10.709-11.96-18.937-13.947q3.891-1.339 7.791-2.629zm-62.63 109.163c.169-5.91.42-11.82.717-17.727 5.6 2.245 12.6 2.569 18.492 3.384 19.107 2.971 38.27 5.67 57.55 7.227-.016 7.021-.656 14.044-.912 21.065-25.654-1.281-50.64-7.228-75.808-11.612q-.022-1.168-.039-2.337zm84.085-21.5a29.454 29.454 0 0 1 4.062-9.086c14.51-6.5 29.756-11.334 44.76-16.4.149 4.688-.8 10.155 2.032 14.164-16.98 6.518-34.221 12.383-51.2 18.9q.177-3.792.346-7.583zm-136.275-113.077c7.24-36.35 20.907-73.967 48.007-100.225a92.519 92.519 0 0 1 -2.02 16.361c-26.609 33.836-41.379 91.601-48.341 133.936-3.292-16.32-.435-34.68 2.354-50.072zm88.391-142.522a5.228 5.228 0 0 1 -.819-.229 3.315 3.315 0 0 0 -.669-.639 11.588 11.588 0 0 1 -1.537-7.116c2.978-5.7 5.4-15.761 13.263-15.614 11.428 3.259-.783 25.806-10.238 23.598zm-82.112 97.085c-8.766 22.612-14.833 47.1-15.868 71.493-7.794-6.744-13.142-15.774-17.323-25.1 9.157-17.738 21.075-33.991 34.218-49.006q-.52 1.31-1.027 2.613zm46.106 188.84a505.885 505.885 0 0 0 75.31 11.972q-.555 11.068-1.083 22.134c-24.721-.6-49.413-2.862-73.536-8.42.538-8.435-.733-17.16-.691-25.686zm101.44-133.791c-6.613-1.959-12.4-5.595-18.518-8.606-2.661-1.264-5.7 2.02-3.314 4.3a35.932 35.932 0 0 0 7.665 5.5c-3.61.95-7.14 2.306-10.508 3.3-4.878-.072-9.88 2.046-14.747 2.313.772-31.874 9.856-63 22.984-91.889a772.789 772.789 0 0 1 67.569 45.759c-11.6 11.874-21.239 27.582-24.628 43.971-8.434-2.714-17.703-4.657-26.503-4.648zm-71.993 21.378a44.431 44.431 0 0 0 -7.127 4.236c-17.622 2.687-35.861 2.173-53.061-2.76.387-3.839.593-7.7.8-11.562a196.059 196.059 0 0 0 59.5 2.221q-.153 3.924-.066 7.842zm4.012-39.079a238.131 238.131 0 0 0 -3.489 24.461c-19.778 2.335-40 1.885-59.49-2.368 1.681-23 7.619-45.648 16.073-66.967.095 4.27-2.466 18.348 5.431 15.593 15.355-7.121 58.329-36.961 54.773-55.639 4.283 1.812 8.213 3.818 12.515 5.634a338.506 338.506 0 0 0 -25.813 79.286zm-75.055-78.747c-1.707 7.706-.226 15.664-.248 23.328-10.346 12.343-20.32 24.494-29.537 37.6-9.76 14.141-16.695 29.717-25.08 44.6-5.5-19.445-10.256-40.179-4.533-60.089a2 2 0 0 0 .433.185c.946 5.057 5.392 8.872 10.356 6.049 7.116-3.473 18.046-7.992 20.4-16.153.63-6.236-2.009-12.407-3.016-18.5zm-35.842 27.59c3.056 7.761-3.794 12.4-10.128 15.484-1.293.723-2.608 1.391-3.944 2.033-1.6.767-1.413 1.039-2.413.081-1.753-1.677-.439-5.1.268-7.365 5.383-3.367 11.246-6.057 16.217-10.233zm-41.736 160.027c-3.5-2.881-4.5-8.065-5.6-12.2-8.279-30.177-10.981-61.36-10.834-92.2a74.31 74.31 0 0 1 24.568-24.126c-.4 27.238 11.195 51.9 12.911 78.717.191 4.373 6.478 4.334 6.765 0-.09-17.924-3.16-17.367 5.276-35.707 12.477 12.795 21.443 31.59 15.132 49.529-2.945 8.646-9.846 15.1-16.177 21.39-6.491 6.913-14.213 10.644-22.122 15.369-3.618 1.306-7.147 1.507-9.919-.772zm263.933 51.43a435.147 435.147 0 0 1 -63.952 24.535c.782-16.311 1.61-32.622 2.393-48.934 30.595-10.482 61.057-21.493 91.653-32a141.634 141.634 0 0 1 .982 19.913c-28.449 11.7-57.222 22.412-86.194 32.767-3.977 1.421-2.34 7.739 1.765 6.4 28.434-9.249 56.488-19.9 84.155-31.266-.233 4.468-.6 8.936-1.047 13.413-9.703 5.458-19.689 10.446-29.755 15.172zm57.167-132.27c15.189 38.611 13.843 81.331 4.209 121.111-3.382 17.721-4.425 38.859-19.486 51.153a60.568 60.568 0 0 0 7.126-19.5c.444-2.406-3.033-4.343-4.255-1.794-4.019 9.63-7.477 19.973-15.623 26.932a15.544 15.544 0 0 1 -2.01.19 2.809 2.809 0 0 1 -1.052-1.741c4.724-11.278 8.617-21.989 12.907-33.328 1.428-3.873-4.816-6.5-6.679-2.816-2.184 4.319-5.671 12.356-11.378 11.4 2.753-10.161 3.992-23.746 14.879-28.288 2.478-1.459 6.446-1.968 7.624-4.824 3.793-24.855-.867-51.534-7.958-75.672-5.533-24.442-23.344-38.063-45.958-46.273 5-15.947 11.983-29.815 23.824-41.912 15.891 13.421 33.878 26.716 43.83 45.362zm-34.448-108.191c13.078 59.4-59.224 45.5-38.714 5.363 5.7-11.693 22.873-13.575 24.812 1.439.165 4.882-3.142 9.523-8.47 8.3-3.274-.752-5.673 4.032-2.39 5.669 11.4 5.684 19.983-7.432 17.378-17.805-5.258-18.715-29.386-17.268-37.087-1.036-4.419 2.773-3.868 26.647-10.858 17.062-5.5-9.475-2.953-24.684 3.61-33.121 18.097-23.067 47.329-14.585 51.719 14.129zm-40.971-32.1c-11.759 5.927-23.679 19.329-27.567 32.984a10.146 10.146 0 0 1 -9.214 1.857c5.506-11.293 12.113-22 17.773-33.182a92.761 92.761 0 0 1 19.008-1.661zm-29.1 1.066c-28.453 42.808-44.427 92.48-50.381 143.345-3.872 1.439-7.645 2.829-11.561 4.308 2.639-42.976 15.273-85.108 34.81-123.424 3.026-5.82 6.261-11.535 9.766-17.081 3.863-8.163 8.731-9.852 17.365-7.15zm-43.3-1.924c7.787-.376 15.357.8 23.015 1.562a240.9 240.9 0 0 0 -14.822 25.99c-18.194-7.853-18.915-4.378-23.347-25.126 5.047-1.012 9.953-2.177 15.149-2.428zm35.928-107.62c28.526-23 114.444-54.371 121.063 3.244-3 39.718-40.9 66.7-75.207 80.187a145.989 145.989 0 0 0 -8.639-33.071l7.623-4.123c4.783 7.595 10.718 14.3 20.654 12.7 8.91-1.435 19.5-6.36 23.288-15.061 1.142-2.621-1.846-5.446-4.159-3.21a41.6 41.6 0 0 1 -17.939 10.663c-7.465 2.849-12.394-2.472-16.233-8.131l4.231-2.288c10.1-5.036 8.528-20.92-2.255-24-5.561-2.212-11.438 1.52-16.131 4.153-14.296-21.863 13.843-26.897 29.25-31.344a2.717 2.717 0 0 0 -.719-5.31c-20.828-.007-51.994 15.58-34.07 39.637l-6.048 3.263a141.033 141.033 0 0 0 -24.709-27.309zm-176.774-14.987c36.887-2.23 16.978-2.921 14.99-24.365 19.571 12.221 43.779 9.789 66.139 7.847 13.323-1.157 29.929-3.349 42.019 3.833 10.167 6.04 14.666 18.81 11.472 30a3.415 3.415 0 0 0 2.349 4.136c11.612 7.436 2.724 29.159-6.7 34.785-13.026 7.226-21.919.481-27.762-11.565-18.156-34.022-77.463 15.822-102.507-44.671zm42.274 76.029c4.11-5.372 8.261-1.834 12.62.779 1.958.762 3.786-1.479 3.287-3.288-1.882-5.9-10.729-7.952-15.789-5.092.205-8.144.621-16.255.876-24.193 16.214-1.135 33.869-2.192 48.952 4.813 5.858 3.62 5.115 9.239 5.86 15.237.839 10.917 3.391 23.332 14.371 26.787-7.831 29.537-19.333 39.964-50.178 42.1-19.972.767-19.558-42.767-19.999-57.143zm-1.552 62.645c.158 5.343-1.9 10.161-5.107 14.386l-23.371 12.739c-.456-3.672-.818-7.139-1.328-10.88zm-74.538 22.464c2.943-1.173 5.008-2.954 7.4-4.927 5.812-4.745 12.1.509 18.449-5.038 1.721-1.215 5.27-5.467 7.335-5.156 3.956.6 4.613 14.629 4.939 17.537.929 9.964 4.211 14.429-6.8 19.645-.647-6.471-1.265-13.889-4.875-18.6-1.372-1.79-4.5-1.4-4.513 1.222.65 7.012 2.888 13.98 3.286 21.1-2.455 1.448-4.932 2.779-7.437 4.154a94.653 94.653 0 0 0 -8.4-20.267c-1.4-2.426-5.723-.81-4.669 1.968 2.686 7.082 5.339 13.974 7.313 21.263-3.01 1.141-6.466 3.359-9.359 1.221-6.621-6.8-10.345-15.961-14.907-24.134-1.045-7.289 6.453-7.812 12.238-9.988zm-76.02 62.37c-2.783-1.93 51.014-29.731 51.678-30.736-.136 4.292-1.5 8.4-1.757 12.68l-42.558 23.835c-3.753 2.2-8.607-1.619-7.363-5.779z"/><path d="m426.539 92.519c4.134-1.214 2.681-7.833-1.753-6.358-4.135 1.077-2.351 7.549 1.753 6.358z"/><path d="m395.956 372.25a32.49 32.49 0 0 0 -.266-4.114 2.875 2.875 0 0 0 -5.183-.677c-.962 1.492-.825 3.895-.643 5.615a3.093 3.093 0 1 0 6.092-.824z"/></g></svg>