<svg height="512" viewBox="0 0 500 500" width="512" xmlns="http://www.w3.org/2000/svg"><g id="Layer_4" data-name="Layer 4"><path d="m279.931 292.606c-.635-1.966-2.271-3.415-3.837-4.763-18.892-16.256-37.961-32.636-59.806-44.635s-46.963-19.443-71.7-16.4a110.983 110.983 0 0 0 -29.458 8.207c-23.922 10.093-58.582 55.756-58.582 55.756a74.318 74.318 0 0 0 26.626 47.864c5.971 4.841 12.852 8.9 17.082 15.317 2.636 4 4.057 8.652 5.445 13.234 4.235 13.979 8.481 28.006 10.845 42.42 3.795 23.142 8.5 75.218 9.948 75.256a751.161 751.161 0 0 0 115.855-5.923 552.735 552.735 0 0 0 6.422-83.36c.009-7.618-.13-15.327 1.612-22.744 1.532-6.52 4.476-12.625 6.3-19.069 2.326-8.22 2.813-16.931 5.793-24.937 3.864-10.379 11.639-18.845 16.271-28.9 1.06-2.302 1.963-4.914 1.184-7.323z" fill="#fff5f3"/><path d="m200.152 277.95c8.582-6.179 19.349-10.919 23.377-20.7a23.869 23.869 0 0 0 1.669-8.817c-2.923-1.816-5.888-3.568-8.91-5.228-21.845-12-46.963-19.443-71.7-16.4a110.983 110.983 0 0 0 -29.458 8.207c-23.922 10.093-58.582 55.756-58.582 55.756a74.318 74.318 0 0 0 26.626 47.864c5.971 4.841 12.852 8.9 17.082 15.317 2.636 4 4.057 8.652 5.445 13.234 4.235 13.979 8.481 28.006 10.845 42.42 3.795 23.142 9.948 75.256 9.948 75.256s21.016.322 31.523.157c-.089-1.084-.2-2.166-.3-3.237a309.552 309.552 0 0 1 -1.012-47.072c.49-8.955 0-19 5.377-26.173 18.894-25.2 61.339-29.09 87.646-32.959l.922-21.376-23.924.8c-9.372.315-19.1.566-27.713-3.132-13.753-5.9-21.933-21.59-20.985-36.527s9.977-28.64 22.124-37.39z" fill="#c9a6a6"/><path d="m126.133 427.49c-5.882-15.654-15.6-29.523-25.219-43.2-4.217-6-15.222-21.2-17.027-20.82l14.758-17.68c-21.471-8.691-37.5-29.574-40.352-52.562 0 0-21.27 27.088-31.383 38.141-6.891 7.531-15.961 13.067-16.148 23.273-.154 8.389 4.62 16.051 9.921 22.555 15.77 19.349 37.3 33.109 54.789 50.916 5.08 5.171 10.138 11.657 9.217 18.848-.514 4.019-2.847 7.531-4.482 11.239-2.7 6.117-3.431 13.5-.181 19.344 3.567 6.411 10.925 9.557 17.822 12.059 3.834 1.391 7.832 2.74 11.895 2.4 8.175-.69 14.276-8 17.474-15.558 6.519-15.405 4.799-33.301-1.084-48.955z" fill="#ffdad2"/><path d="m430.544 193.638a5.448 5.448 0 0 0 -3.43 1.094c-11.367 6.919-20.656 18.278-33.754 20.631a18.053 18.053 0 0 1 -10.09-.771c-5.593-2.328-8.884-7.989-12.353-12.956s-8.369-9.972-14.422-9.726q-2.413 11.56-4.828 23.119a18.075 18.075 0 0 0 -.509 7.263c.782 3.809 3.875 6.648 6.8 9.209l8.978 7.861a11.289 11.289 0 0 1 3.566 4.393 10.9 10.9 0 0 1 -.06 5.719 154.152 154.152 0 0 1 -26.087 60.062c-7.185 9.967-15.594 19.117-21.521 29.879-11.761-15.747-42.569-44.049-42.569-44.049a142.706 142.706 0 0 0 -19.238 41.005c-1.772 6.188-3.127 12.744-1.726 19.026 1.525 6.836 6.223 12.647 11.879 16.778s12.248 6.768 18.842 9.126a296.2 296.2 0 0 0 45.28 12.244c4.47.835 9.213 1.546 13.462-.076 4.847-1.851 8.107-6.375 10.721-10.857 5.219-8.948 9.021-18.638 12.8-28.282 12.07-30.795 24.277-62.17 26.685-95.158.206-2.823 2.251-12.55 2.251-12.55s4.882-3.234 8.522-6.273c12.355-10.315 23.083-24.254 24.007-40.323.15-2.626-.599-6.033-3.206-6.388z" fill="#ffdad2"/><path d="m253.448 108.775a177.48 177.48 0 0 0 -30.284-.619c-7.29.475-14.906 1.535-20.81 5.837-5.7 4.156-9.058 10.8-14.2 15.626-6.54 6.143-30.056 9.907-30.056 9.907-3.417 3.511-4.542 8.714-4.393 13.611.189 6.228 2.428 12.678 7.278 16.592s12.575 4.486 17.144.249a64.271 64.271 0 0 1 -15.908 53.034 7.674 7.674 0 0 0 -2.144 3.254 6.891 6.891 0 0 0 .325 3.345c4.939 17.86 16.643 33.3 30.7 45.371 4.185 3.595 8.8 7.029 14.207 8.124 6.8-11.288 7.264-25.189 6.857-38.359s-1.442-26.733 2.888-39.178a4.261 4.261 0 0 1 1.437-2.285c1.092-.719 2.536-.349 3.794 0 5.8 1.634 12.268 2.346 17.67-.329 7.907-3.916 10.905-13.518 12.614-22.174a234.1 234.1 0 0 0 2.881-72.006z" fill="#ffdad2"/><path d="m206.448 168.769s25.781-1.713 28.352 20.231c0 0-30.465 14.522-28.352-20.231z" fill="#ff8a9b"/><path d="m235.606 107.792q-6.225-.031-12.442.364c-7.29.475-14.906 1.535-20.81 5.837-5.7 4.156-9.058 10.8-14.2 15.626-6.54 6.143-30.056 9.907-30.056 9.907-3.417 3.511-4.542 8.714-4.393 13.611.189 6.228 2.428 12.678 7.278 16.592s12.575 4.486 17.144.249a64.271 64.271 0 0 1 -15.908 53.034 7.674 7.674 0 0 0 -2.144 3.254 6.891 6.891 0 0 0 .325 3.345 80 80 0 0 0 9.816 21.676 52.686 52.686 0 0 1 4.4-16.32c1.852-4.062 4.366-8.051 8.227-10.293 5.946-3.454 13.477-1.955 19.972.305q4.556 1.584 8.946 3.6c.044-7.853.719-15.63 3.288-23.012a4.261 4.261 0 0 1 1.437-2.285c1.092-.719 2.536-.349 3.794 0 5.8 1.634 12.268 2.346 17.67-.329 5.877-2.911 9.039-8.963 10.979-15.432-26.059 15.3-41.207-2.26-45.5-12.424-2.083-4.921-13.581-57.069 32.177-67.305z" fill="#e59e9c"/><path d="m131.349 456.369a17 17 0 0 1 -7.18 3.634c-6.868 1.545-14.683-1.889-17.774-8.214-1.279-2.619-1.758-5.544-2.564-8.345-6.01-20.89-28.628-32.032-40.709-50.1-4.243-6.348-7.195-14.37-4.691-21.584 3.553-10.239 15.869-14.03 26.561-15.76l5.259-.154 8.394-10.056c-21.471-8.691-37.5-29.574-40.352-52.562 0 0-21.27 27.088-31.383 38.141-6.891 7.531-15.961 13.067-16.148 23.273-.154 8.389 4.62 16.051 9.921 22.555 15.77 19.349 37.3 33.109 54.789 50.916 5.08 5.171 10.138 11.657 9.217 18.848-.514 4.019-2.847 7.531-4.482 11.239-2.7 6.117-3.431 13.5-.181 19.344 3.567 6.411 10.925 9.557 17.822 12.059 3.834 1.391 7.832 2.74 11.895 2.4 8.175-.69 14.276-8 17.474-15.558a54.615 54.615 0 0 0 4.132-20.076z" fill="#e59e9c"/><path d="m349.313 371.778c-15.245 3.315-32.111-.96-43.435-11.693s-16.49-27.778-12.328-42.814a32.821 32.821 0 0 1 2.661-6.7c-8.755-8.6-15.945-15.206-15.945-15.206a142.706 142.706 0 0 0 -19.238 41.005c-1.772 6.188-3.127 12.744-1.726 19.026 1.525 6.836 6.223 12.647 11.879 16.778s12.248 6.768 18.842 9.126a296.2 296.2 0 0 0 45.28 12.244c4.47.835 9.213 1.546 13.462-.076 4.847-1.851 8.107-6.375 10.721-10.857a155.255 155.255 0 0 0 9.405-19.747 52.3 52.3 0 0 1 -19.578 8.914z" fill="#e59e9c"/><path d="m360.054 282.2c.016-.045.034-.09.049-.136q-.735 1.658-1.508 3.3a10.4 10.4 0 0 0 1.459-3.164z" fill="#e59e9c"/><path d="m423.863 225.513a76.92 76.92 0 0 1 -14.488 5.96c-3.956 1.17-9 1.693-11.5-1.589-2.92-3.833.115-9.22 3.088-13.012l4.207-5.365-.371-.641a34.2 34.2 0 0 1 -11.443 4.5 18.053 18.053 0 0 1 -10.09-.771c-5.593-2.328-8.884-7.989-12.353-12.956s-8.369-9.972-14.422-9.726q-2.413 11.56-4.828 23.119a18.075 18.075 0 0 0 -.509 7.263c.782 3.809 3.875 6.648 6.8 9.209l8.978 7.861a11.289 11.289 0 0 1 3.566 4.393 10.9 10.9 0 0 1 -.06 5.719 153.295 153.295 0 0 1 -7.737 26.367 51.721 51.721 0 0 1 5.25-8.448 33.337 33.337 0 0 1 8.84-8.328c6.761-4.145 14.713-4.672 22.744-3.8.673-3.837 1.683-8.643 1.683-8.643s4.882-3.234 8.522-6.273a84.212 84.212 0 0 0 14.123-14.839z" fill="#e59e9c"/><path d="m273.513 62.725a37.463 37.463 0 0 0 5.439-23.508 92.05 92.05 0 0 1 -43.02 12.428c-11.421.391-22.844-.7-34.227-1.716-23.6-2.1-34.4 7.838-34.4 7.838-4.764 2.1-6.245 8.191-5.966 13.389s1.678 10.515.231 15.515c-.942 3.254-3.017 6.057-4.3 9.192a20.034 20.034 0 0 0 18.093 27.62c13.88.312 24.036-13.107 37.237-17.408 11.274-3.675 23.535-.348 35.374-1.02 21.82-1.237 41.931-17.687 47.47-38.83a125.091 125.091 0 0 1 -21.931-3.5z" fill="#ffc17d"/><path d="m247.888 100.837c-12.618-.79-26.42-3.711-34.026-13.809-2.638-3.5-4.489-7.817-8.195-10.158-3.671-2.318-8.46-2.213-12.188-4.437-5.62-3.353-7.119-11.25-4.988-17.438a23.613 23.613 0 0 1 2.6-5.219c-16.238 1.058-23.78 7.991-23.78 7.991-4.764 2.1-6.245 8.191-5.966 13.389s1.678 10.515.231 15.515c-.942 3.254-3.017 6.057-4.3 9.192a20.034 20.034 0 0 0 18.093 27.62c13.88.312 24.036-13.107 37.237-17.408 11.274-3.675 23.535-.348 35.374-1.02a49.968 49.968 0 0 0 17.626-4.38 116.242 116.242 0 0 1 -17.718.162z" fill="#d37f46"/><path d="m254.4 356.53a376.725 376.725 0 0 0 -30.285-125.137c-1.208-2.783-3.252-6.04-6.257-5.677-2.738.331-4.085 3.474-4.676 6.174-3.794 17.328 1.435 35.3 7.772 51.862s13.936 33.083 15.092 50.785a4.579 4.579 0 0 1 -.458 2.868c-.8 1.207-2.467 1.4-3.913 1.469l-82.662 4.146c7.691-12.341 9.422-27.433 9.946-41.975a313 313 0 0 0 -2.547-52.625c-.567-4.249-1.2-8.7.308-12.715a25.053 25.053 0 0 1 3.646-5.986c4.185-5.609 12.86-26.766 12.86-26.766-7.46-1.352-18.65-1.585-26.2-2.314-5.642-6.55-13.235-6.527-21.9-2.877-7.847-1.548-15.637-3.9-23.635-3.836-12.325.1-24.143 6.107-32.9 14.807s-14.674 19.914-18.806 31.555c-3.009 8.476-5.153 17.487-4.156 26.428s5.562 17.836 13.371 22.269l.7.774 48.3-45.262c3.292-3.085 6.684-6.236 10.86-7.931s9.373-1.637 12.771 1.329c2.427 2.118 3.57 5.325 4.5 8.412 14.543 48.052-.094 103.753-36.364 138.384l13.6 16.706c13.021-7.242 19.943-22.907 33.365-29.373 6.421-3.094 13.7-3.748 20.8-4.354l66.812-5.7a16.9 16.9 0 0 1 4.533.021c7.1 1.322 9.362 10.231 10.138 17.427 5.785-5.648 5.915-14.802 5.385-22.888z" fill="#deafa6"/><path d="m82.97 440.4c-.944-5.753-5.421-10.184-9.721-14.109-14.857-13.563-50.139-37.74-50.139-37.74a77.349 77.349 0 0 0 -11.716 41.1c.024 6.234 1.007 12.561 3.881 18.089 13.036 25.07 46.077 26.444 51.038 24.992 4.178-1.222 7.557-4.429 9.864-8.129s3.673-7.9 4.987-12.059c1.244-3.944 2.475-8.071 1.806-12.144z" fill="#deafa6"/><g fill="#aa6963"><path d="m254.4 356.53a375.083 375.083 0 0 0 -4.785-39.958c-4.335 3.2-9.721 4.62-15.362 5.662a82.8 82.8 0 0 1 1.793 12.3 4.579 4.579 0 0 1 -.458 2.868c-.8 1.207-2.467 1.4-3.913 1.469l-15.925.8c-1.578 5.685-5.226 11.106-9.09 15.7a128.794 128.794 0 0 1 -9.077 9.727l36.752-3.136a16.9 16.9 0 0 1 4.533.021c7.1 1.322 9.362 10.231 10.138 17.427 5.794-5.64 5.924-14.794 5.394-22.88z"/><path d="m241.479 280.554a375.225 375.225 0 0 0 -17.363-49.161c-1.208-2.783-3.252-6.04-6.257-5.677-2.738.331-4.085 3.474-4.676 6.174-2.994 13.677-.36 27.752 4 41.222 4.727 1.55 9.695 2.657 14.466 3.954a63.811 63.811 0 0 1 9.83 3.488z"/><path d="m149.014 343.02a54.634 54.634 0 0 0 5.432-11.765 74.684 74.684 0 0 1 -12.484 11.054 59.963 59.963 0 0 1 -16.545 8.109 132.253 132.253 0 0 1 -25.654 34.273l13.6 16.706c13.021-7.242 19.943-22.907 33.365-29.373.656-.317 1.324-.6 2-.87.228-1.456.479-2.907.779-4.347a148.847 148.847 0 0 1 5.723-18.9l1.862-5.292z"/><path d="m82.97 440.4c-.944-5.753-5.421-10.184-9.721-14.109-3.143-2.869-7.2-6.215-11.648-9.7 6 47.051-17.092 48.19-35.072 44.673 15.2 12.014 35.936 12.6 39.784 11.47 4.178-1.222 7.557-4.429 9.864-8.129s3.673-7.9 4.987-12.059c1.244-3.946 2.475-8.073 1.806-12.146z"/><path d="m157.351 228.753a26.955 26.955 0 0 0 1.367 3.27c.529-.782 1.086-1.548 1.649-2.3 4.185-5.609 12.86-26.766 12.86-26.766-7.354-1.332-18.328-1.579-25.874-2.284q5 14.038 9.998 28.08z"/><path d="m118.852 236.566c4.177-1.695 9.373-1.637 12.771 1.329a10.676 10.676 0 0 1 2 2.4c.149-1.829.275-3.659.359-5.489.6-13.012-.305-26.29-4.358-38.621a36.838 36.838 0 0 0 -4.5 1.577c-2.649-.523-5.293-1.135-7.939-1.717a49.618 49.618 0 0 1 -16.008 34.005c-6.973 6.245-16.708 10.481-25.683 7.855-7.412-2.167-12.661-8.37-18.691-13.329a103.216 103.216 0 0 0 -7.016 15.712c-3.009 8.476-5.153 17.487-4.156 26.428s5.56 17.836 13.369 22.269l.7.774 48.3-45.263c3.284-3.084 6.676-6.235 10.852-7.93z"/></g><ellipse cx="27.654" cy="421.97" fill="#fce2e0" rx="9.104" ry="6.448" transform="matrix(.325 -.946 .946 .325 -380.449 311.178)"/><path d="m402.545 81.347-25.238 42.142-8.416 43.457-17.934-17.231 1.484 27.6 18.476 24.324s12.328 22.836 31.628 6.506 23.454-10.457 22.3-39.373-22.3-87.425-22.3-87.425z" fill="#a1d0ff"/><path d="m392.335 151.769s-.851 30.7-19.648 33.018l-3.987-18.027-4.665-4.482c-1.138 6.85-3.124 15.627-6.4 21.866l13.287 17.492s12.328 22.836 31.628 6.506 23.454-10.457 22.3-39.373c-.634-15.942-7.347-40.873-13.245-60.04l-10.092-.94z" fill="#668dd3"/><path d="m376.839 125.9c5.5 12.134 14.489 31.094 14.489 31.094l13.142-70.158c-1.2-3.469-1.925-5.489-1.925-5.489l-25.238 42.142z" fill="#fff"/><path d="m292.047 127.941s21.887-.384 26.577-34.155c0 0-.367 29.341 25.582 34.155 0 0-22.609 3.276-23.754 40.8 0-.003-1.29-38.698-28.405-40.8z" fill="#fff"/><path d="m431.487 52.675s28.123 9.116 27.966 39.694c0 0 1.178-36.328 23.3-39.694 0 0-21.956-3.726-23.3-30.347a46.365 46.365 0 0 1 -27.966 30.347z" fill="#a1d0ff"/></g><g id="Layer_5" fill="#3a3245" data-name="Layer 5"><path d="m242.362 141.823c1.8-3.14 1.779-9.261-.249-12.207-1.361-2.183-5.261-2.5-5.838.651-1.075 4.056-.686 17.643 6.087 11.556z"/><path d="m220.364 142.353c1.794-3.14 1.778-9.26-.249-12.207-1.362-2.182-5.261-2.494-5.839.651-1.076 4.056-.686 17.644 6.088 11.556z"/><path d="m233.472 151.956c1.91 2.921-1.391 10.1 3.718 9.719 7.514-2.936.944-17.991-5.025-19.7-2.218-.736-3.77 1.86-2.841 3.7 1.146 2.264 3.146 3.872 4.148 6.281z"/><path d="m243.453 167.252c-.539-9.939-14.447 8.241-34.935-7.558-1.7-1.316-4.2.145-4.72 1.92-12.092 39.711 43.677 48.017 39.655 5.638zm-19.585 21.748c-11.009.013-15.226-8.057-15.18-16.969 8.145.475 23.461 3.874 22.407 14.686a11.7 11.7 0 0 1 -7.227 2.283z"/><path d="m12.381 370.559a84.23 84.23 0 0 0 10.553 14c-20.049 30.623-25.034 74.341 17.14 87.516 11.3 3.974 24.369 7.463 36.391 5.065 5.891 14.812 26.466 20.245 40.939 16.233 10.292-2.853 13.54-12.566 15.126-22.123 4.95-15.8 3.059-34.553-1.295-49.862.273-17.908 7.74-35.867 21.593-47.024 11.627-3.815 24.683-1.369 36.807-2.626 16.559-.81 33.1-2.28 49.547-4.254 3.807 17.314 4.932 35.026 5.4 52.728-1.9 20.822-3.824 41.5-.638 62.305.613 4.145 6.945 2.394 6.313-1.741-4.247-27.819 2.144-55.84 1.483-83.646 1.071-9.144 3.893-17.97 6.615-26.716a242.138 242.138 0 0 0 64 22.5c9.944 2.008 23.12 6.1 32.3-.073 29.512-31.217 43-103.275 49.429-145.556 23.41-13.312 31.973-23.685 35.051-50.861.819-3.679-3.508-4.754-6.3-5.194 8.22-7.909 7.918-21.5 10.287-32.062.432-2.33-1.053-6.407-4.064-4.5a80.383 80.383 0 0 0 -12.142 10.583c7.468-36.873-6.246-54.756-20.446-86.841-.915-2.028-4.2-2.338-5.607-.723-7.49 8.605-13.508 18.233-19.046 28.178-10.973 17.186-14.15 32.713-14.769 52.851-4.2-4.968-9.465-9.374-14.22-13.482a3.343 3.343 0 0 0 -5.633 2.333c.358 14.072.829 29.707 8.067 42.107a3.887 3.887 0 0 0 -1.258 2.561 65.59 65.59 0 0 1 -4.856 19.125c-1.672 4.024-3.508 8.581-1.177 12.721 4.389 7.8 12.471 15.04 20.116 19.959-4.484 34.378-27.695 60.727-44.507 89.588-22.9-27.759-48.48-53.613-77.73-74.768 8.911-20.129-7.218-44.051-27.306-48.763.264-1.471.525-2.945.765-4.428 32.775 9.76 37.059-24.359 37.815-48.322 1.059-16.443 1.215-33.515-.944-49.882 20.844-3.363 39.214-20.4 43.709-41.237a3.45 3.45 0 0 0 -3.289-4.328 101.649 101.649 0 0 1 -17.394-.931c3.292-3.768 9.971-30.817-1.1-25.116-24.176 19.779-57.841 8.37-86.443 8.864-23.345-.98-44.083 14.968-39.8 39.79-18.192 7-24.193 30.357-15.124 46.859 2.735 6.8 8.916 10.846 13.1 16.532-3.386 13.878 11.608 33.864 26.5 26.212a85.026 85.026 0 0 1 -4.6 24.75 88.175 88.175 0 0 0 -23.717-2.956c-5.9-4.584-15.14-5.223-21.835-1.835-16.061-4.705-34.868-5.929-50.171 1.737-19.929 11.094-48.696 64.594-29.952 84.224 10.931 10.921-1.893 23.212-9.3 32a374.122 374.122 0 0 0 -23.32 30c-7.811 9.325-7.716 18.51-1.063 28.529zm7.169 76.883c-8.636-16.76-2.16-36.48 6.077-52.1 13.383 16.722 32.573 27.258 47.496 42.211 2.161 12.168-3.7 28.666-17.136 31-13.75-3.462-29.214-7.8-36.437-21.111zm158.374-244.35a104.017 104.017 0 0 0 3.169-10.2c9.223 10.187 18.505 20.352 28.043 30.226a131.8 131.8 0 0 0 1.343 25.591c-.411 10.576-2.407 21.633-7.633 30.939-13.635-8.36-38.945-36.824-37.492-53.168a93.759 93.759 0 0 0 12.57-23.388zm70.431 167.432c-7.238-36.153-14.669-72.427-27.606-106.966a120.227 120.227 0 0 1 -4.364-27.468 8.965 8.965 0 0 1 3.743-4.124c18.142 43.124 35.365 91.187 28.227 138.558zm-11.819-15.989a471.137 471.137 0 0 1 -81.052 4.58 154.49 154.49 0 0 0 6.585-14.292c24.088 1.169 48.02 1.72 71.916-1.862q1.302 5.781 2.551 11.574zm40.794-60.474a220.482 220.482 0 0 0 -21.466 37.305 332.369 332.369 0 0 0 -15.657-67.812 298.828 298.828 0 0 1 37.123 30.507zm-115.449-48.9a3.039 3.039 0 0 0 2.085.87 107.38 107.38 0 0 0 25.539 32.506c10.077 9.342 16.463 13.972 23.482-1.254 9.571 18.414 14.94 38.444 19.383 58.611-24.955 3.421-50.325 3.525-75.4 1.389 8.83-29.193 9.384-61.924 4.911-92.122zm249.368-102.1c12.4 15.765 6.5 30.412 4.682 48.333-24.441-20.253-19.231-34.45-16.048-62.494a80.966 80.966 0 0 1 11.366 14.156zm-23.794-32.89a206.336 206.336 0 0 1 10.946-17.8c-2.392 15.8-4.277 31.54-6.134 47.377-.843 3.851-3.421 4.527-5.113.826-7.018-17.406-9.833-13.249.301-30.408zm-12.25 30.98a50.763 50.763 0 0 1 1.8-8.62c3.321 8.127 5.941 16.809 10.062 24.483 2.029 13.413 1.078 26.963-.014 40.419-7.4-3.584-13.776-11.482-14.364-19.968.411-12.117 1.111-24.279 2.516-36.319zm-21.282 14.288c3.142 3.213 6.2 6.52 9.475 9.538 2.879 8.538 2.794 17.78 2.464 26.785-10.162-9.05-10.826-23.614-11.939-36.328zm-56.768 158.08a344.6 344.6 0 0 1 23.17 27.007c-.373.874-.743 1.75-1.09 2.639-1.61 4.138 4.95 5.813 6.6 1.82 7.5-18.159 20.638-33 30.553-49.775a146.565 146.565 0 0 0 18.736-51.96 3.568 3.568 0 0 0 -1.57-3.857 60.564 60.564 0 0 1 -13.129-10.829c-13.867-12.268-2.282-12.407-.242-31.8 8.759 3.131 1.9 14.408 7.395 20.018 1.451 2.786 5.215 3.7 7.89 5.108 5.5 2.38 9.753 6.615 14.432 10.2 2.211 1.664 5.39-1.608 3.816-3.816a31.285 31.285 0 0 0 -2.549-3.086c39.59-7.229 29.15-28.187 41.194-27.534-3.188 22.116-9.049 30.762-28.206 42.057-2.677 1.684-5.46 2.617-6.231 5.825-6.286 39.778-14.046 80.69-31.177 117.573-4.8 8.469-9.017 22.011-18.188 26.259-4 1.506-8.388.565-12.478 0-14.412-2.147-28.889-5.218-42.566-10.216-17.992-6.514-29.149-15.672-26.963-36.329 1.231-15.847 7.447-31.018 15.892-44.311 5.061 4.862 9.872 9.931 14.711 15.007zm-51.56-125.5c-4.755 18.637-24.869 11.64-38.072 7.415-15.824-5.475-22.6-21.485-26.549-36.695 9.249-2.955 12.554-12.423 13.762-21.858 3.694-31.987 32.162-23.611 55.555-26.246.742 25.496 3.452 52.789-4.691 77.383zm31.642-143.353c-2.014 21.1-21.581 21.855 14.81 24.054-11.657 31.855-41.2 34.689-70.661 30.955-15.173-1.116-25.124 3.2-33.276 15.306-5.506 5.494-13.632 2.672-19.07-1.5a18.27 18.27 0 0 1 -3.373-15.371c5.262-13.053 7.809-12.2 4.5-27.265-.26-22.236 33.564-18.152 48.282-17.9 20.214 1.683 41.324 2.587 58.788-8.279zm-113.85 121.734c-4.978-4.407-10.968-15.521-4.279-20.7 7.392-3.66 16.2 14.881 15.138 20.593-3.146 2.867-6.583 3.667-10.859.107zm5.96 38.626a82.508 82.508 0 0 1 -11.518 18.874 169.045 169.045 0 0 0 -6.185-21.077c5.956.469 11.807.669 17.703 2.207zm-26.062-3.1c21.27 61.648 23.416 147.673-32.277 191.956q-2.913-4.281-6.079-8.394c50.7-45.011 45.991-126.375 27.084-185.56 3.963-1.048 9.187-.955 11.272 2zm-60.013 70.65c11.767-12.609 24.146-27 41.8-30.538 4.744 29.526 12.532 60.4 4.957 89.932a106.979 106.979 0 0 1 -16.864 33.608c-2.144-9.9-3.61-20.166 2.55-28.782.5-.313 1-.635 1.507-.946 3.737-2.3.3-8.222-3.446-5.9q-6.909 4.29-13.563 8.959c-19.9-8.272-31.861-25.629-36.713-45.821 6.5-6.902 13.286-13.588 19.772-20.512zm39.669-72.391c1.873 8.361 3.869 16.635 5.7 24.94-24.768 6.139-12.759-17.492-33.752-26.808 9.296-.936 18.832.305 28.052 1.868zm-69.126 37.8c5.148-11.476 10.981-23.255 20.623-31.644 9.206-7.042 22.225-2.856 27.061 7.491 6.421 12.67 2.713 30.381-8.662 38.814 2.838-10.336 7.919-44.056-11.686-37.092-9.151 3.546-33.498 40.082-17.735 45.179 5.9 1.935 10.669-3.966 13.35-8.386 1.552-2.561-2.029-5.317-4.136-3.191-1.236 1.248-3.19 4.066-4.822 4.679-8.819 4 2.507-15.62 3.813-17.851 4.009-6.062 16.433-25.1 17.323-6.891.266 13.081-2.944 27.875-10.72 38.494-6.863 9.234-25.533 16.45-30.18 1.564-2.839-10.227 1.687-21.923 5.771-31.162zm-39.355 116.456c.924-5.031 6.025-10.454 8.979-14.524a402.808 402.808 0 0 1 31.852-38.124c4.986 18.152 15.562 37.821 34.249 44.791a92.632 92.632 0 0 0 -11.728 9.7c-4.049-3.7-8.19-7.282-12.384-10.73-2.993-2.46-7.313 1.7-4.32 4.32 30.683 26.814 64.656 63.024 65.6 106.5.184 8.471-1.011 18.225-4.655 25.457-2.336 4.634-7.945 5.52-12.74 5.7-7.307.276-15.4-1.425-21.192-6.125-12.175-10.8-6.6-30.322 11.3-27.742 9.733 4.592 3.692 11.928-4.8 10.364l.026.063c-4.371.114-4.98 6.589-.026 7.255 9.579 1.972 20.841-7.6 15.007-17.249-9.882-16.144-25.8-28.592-40.522-40.081-15.742-12.98-54.929-37.887-54.646-59.575z"/><path d="m317.265 82.362c-1.6 11.027-2.9 27.212-11.834 35.309-4.817 4.363-11.975 4.731-18.118 6-3.685-.635-5.9 4.6-2.131 6.431 3.39 1.646 7.347 1.986 10.926 3.081 19.251 4.51 20.691 26.968 20.973 43.3.2 3.659 6.368 4.012 6.571.235 1.149-12.629 2.315-26.2 8.542-37.47 3.649-5.53 12.7-6.816 18.675-8.12 3.672-.8 4.606-6.51.255-7.122-6.981-.982-18.053-2.558-22.449-8.648-5.461-9.659-4.565-21.985-4.923-32.758.083-3.726-5.966-3.83-6.487-.238zm6.469 37.608c2.835 3.635 7.222 6.109 11.984 7.829-9.444 3.218-13.047 13.033-15.035 21.916a31.121 31.121 0 0 0 -19.909-22.428c9.453-2.449 15.209-10.9 18.157-20.044.792 4.531 2.054 9.204 4.803 12.727z"/><path d="m423.679 55.712c8.83 3.126 19.416 3.892 24.978 12.594 6.41 9.207 6.333 22.948 6.921 33.785.2 3.659 6.367 4.012 6.571.236 1.149-12.63 2.314-26.2 8.542-37.471 3.649-5.53 12.7-6.816 18.674-8.12 3.672-.8 4.606-6.51.256-7.122-17.179-2.156-25.925-5.575-26.627-24.435a126.086 126.086 0 0 1 -.745-16.971c.082-3.72-5.966-3.825-6.487-.233-1.6 11.027-2.9 27.212-11.835 35.309-4.817 4.363-11.975 4.731-18.118 6-3.684-.638-5.901 4.597-2.13 6.428zm24.53-7.6c4.388-3.95 7.238-9.365 9.218-15.259 1.124 9.962 6.95 17.555 16.787 20.556-9.443 3.218-13.046 13.032-15.034 21.916a31.127 31.127 0 0 0 -19.909-22.425 22.925 22.925 0 0 0 8.938-4.785z"/></g></svg>