<svg height="512" viewBox="0 0 500 500" width="512" xmlns="http://www.w3.org/2000/svg"><g id="Layer_4" data-name="Layer 4"><path d="m349.231 303.082c27.081-26.8 46.115-70.466 46.115-70.466l38.123-80.129s30.182-5.055 44.28-33.078c25.711-51.1-15.583-83.7-15.583-83.7-26.728-25.951-52.58-24.709-81.248-13.131-29.087 11.746-33.078 44.28-33.078 44.28l-80.129 38.123s-43.669 19.034-70.466 46.115-66.43 84.619-66.43 84.619c-22.892 38.385-84.251 119.213-84.251 119.213a99.538 99.538 0 0 0 -28.239 24.86c-23.332 39.684 72.175 123.739 102.214 102.212a99.55 99.55 0 0 0 24.861-28.237s80.827-61.359 119.212-84.25c0 0 57.538-39.634 84.619-66.431z" fill="#ffe299"/><g fill="#ef8e4b"><path d="m433.469 152.487s30.182-5.055 44.28-33.078c25.711-51.1-15.583-83.7-15.583-83.7-.7-.678-1.4-1.328-2.095-1.97 1.615 6.148 6.047 11.266 8.458 17.2 2.854 7.023 2.75 14.9 1.783 22.418-2.11 16.408-8.4 32.633-19.853 44.569-11.388 11.865-26.915 18.695-40.3 28.249-6.894 4.921-13.228 10.574-19.846 15.859-2.636 2.1-5.514 4.232-8.872 4.548-4.631.436-8.784-2.642-12.362-5.615a397.265 397.265 0 0 1 -52.146-52.256l-2.583 1.489c-5.006 4.85-8.932 11.114-9.753 18.036s1.915 14.469 7.761 18.265c4.377 2.843 10.385 3.733 13.07 8.209 1.172 1.952 1.508 4.345 2.835 6.2 1.791 2.5 4.96 3.491 7.621 5.029 6.287 3.634 9.861 10.457 13.787 16.566s9.3 12.271 16.525 13.016c8.193.844 15.153-5.489 21.156-11.129a300.874 300.874 0 0 1 23.265-19.731c3.327-2.542 6.809-5.066 10.848-6.165a24.628 24.628 0 0 1 9.353-.431z"/><path d="m160.437 315.657a4.574 4.574 0 0 0 -1.351-1.9 201.725 201.725 0 0 1 -38.886-53.986l-3.875-.785q-3.213 4.389-6.293 8.872c-1.058 1.541-2.152 3.26-1.977 5.121a8.085 8.085 0 0 0 1.048 2.89 401.982 401.982 0 0 0 23.097 39.125c4.246 6.344 8.856 13.153 8.646 20.783l17.48-15.943c1.217-1.11 2.552-2.59 2.111-4.177z"/><path d="m124.411 350.52a9.08 9.08 0 0 0 -.531-4.606c-6.113-19.724-21.671-35.338-28.463-54.839l-1.528.219c-2.386 3.423-4.774 6.848-7.006 10.374a26.318 26.318 0 0 0 -3.92 8.443c-1.743 8.253 3.746 16.057 8.164 23.243a128.877 128.877 0 0 1 15.082 37.028 129.014 129.014 0 0 0 15.968-16.054 9.438 9.438 0 0 0 2.234-3.808z"/><path d="m242.591 380.571a361.222 361.222 0 0 1 -58.319-43.464l-1.957.568a104.134 104.134 0 0 0 -17.192 20.464c6.7 1.044 12.335 5.382 17.858 9.317a208.1 208.1 0 0 0 34.361 19.837c3.3 1.5 6.791 2.953 10.411 2.744 6.011-.348 10.735-5.06 14.838-9.466z"/><path d="m176.312 387.534c-9.629-5.151-19.639-10.414-30.537-11.106l-5.079 3.337a31.268 31.268 0 0 0 -5.339 7.1 2.842 2.842 0 0 0 .949 4.38c4.691 3.721 10.355 5.948 15.822 8.39a187.53 187.53 0 0 1 32.072 18.307 3.573 3.573 0 0 0 1.856.84 3.491 3.491 0 0 0 1.733-.579 120.955 120.955 0 0 0 19.763-13.6c-6-3.568-12.148-6.859-18.3-10.15z"/><path d="m432.338 61.929s15.435 20.3-2.93 37.512-25.958 23.7-40.074 10.828c-11.164-10.18-9.149-29.347-9.149-29.347l-10.385 21.815 11.276 20.509s21.526 16.27 51.371-13.575-.109-47.742-.109-47.742z"/><path d="m433.469 152.487a45.151 45.151 0 0 0 4.785-1.184 19.059 19.059 0 0 0 -5.666-.305 15.294 15.294 0 0 0 -6.674 1.489c-3.182 1.82-4.659 5.582-7.263 8.163a29.326 29.326 0 0 1 -6.586 4.343c-6.965 3.9-26.723 24.753-32.234 27.767a20.666 20.666 0 0 1 -30.113-13.76c-.856-3.955-.555-8.169-2.037-11.934a23.414 23.414 0 0 0 -4.028-6.222c-3.422-4.116-7.443-8.095-12.59-9.565-5.965-1.7-12.787.164-18.276-2.728-4.088-2.154-6.552-6.62-7.412-11.16s-.338-9.214.2-13.8l.65-1.565c-9.179 8.891-11.029 24.377-4.2 35.18s21.607 15.781 33.577 11.308c1.335 11.182 4.574 22.517 11.825 31.134s19.157 13.942 30.037 11.038c2.921-.779 5.935-1.7 8.307-3.579 15.121-11.943 21.759-1.706 21.759-1.706l10.8-21.083z"/><path d="m370.631 276.438 12.827-17.127c2.717-3.629 5.5-7.387 6.593-11.787a89.936 89.936 0 0 1 -56.721 16.3l-1.957 3.685c6.376 7.806 13.7 16.171 23.679 17.6a13.81 13.81 0 0 0 6.251-.4c4.013-1.323 6.797-4.89 9.328-8.271z"/><path d="m230.88 251.116c4.105-4.749 8.155-9.781 10.007-15.833 2.164-7.071 1.091-14.935-1.554-22.032s-6.775-13.577-10.872-19.992l-11.277-17.659c-2.268-3.55-4.6-7.18-7.933-9.772s-7.905-3.976-11.678-2.42l-1.733 3.964c7.676 8.185 14.635 17.268 18.825 27.6s5.409 22.079 1.66 32.273a23.852 23.852 0 0 1 -8.411 11.606c-6.164 4.255-14.386 4.36-21.985 3.349a94.256 94.256 0 0 1 -42.129-16.74c-1.611 1.272-1.556 3.729-1.238 5.809a55.221 55.221 0 0 0 15.47 30.356c2.74 2.738 6.149 4.616 9.335 6.784 22.85 15.552 49.835-5.9 53.368-7.984 3.979-2.35 7.131-5.825 10.145-9.309z"/></g><path d="m224.978 150.283 43.242 55.5-22.591 27.319s-42.444-39.353-46.951-59.091z" fill="#ff9aa7"/><path d="m144.331 238.073 40.833 55.5-23.784 23.2s-32.9-38.281-39.344-56.4z" fill="#ff9aa7"/><path d="m207.114 314.962-22.961 25.022s36.747 37.82 58.6 33.674l20.254-16.905s-39.17-23.894-55.893-41.791z" fill="#ff9aa7"/><path d="m74.5 323.778s-4.937 34.865 22.268 55.741l-21.324 23.771s-29-31.492-25.663-52.622z" fill="#ff9aa7"/><path d="m121.369 405.118-21.311 18.961s35.775 33.959 52.9 23.7l21.557-20.988s-29.647.428-53.146-21.673z" fill="#dd5764"/><path d="m201.843 355.739s-53.567 40.755-67.544 61.307l20.322 6.62s38.949-36.959 67.752-52.016z" fill="#4866a8"/><path d="m128.189 275.274s-26.76 47.212-52.5 69.765c0 0 .369 14.375 10.264 21.048 0 0 45.281-48.99 56.425-71.2z" fill="#7c97c1"/><path d="m281.256 102.518s-38.513 45.957-24.975 84.98c0 0-22.465-16.487-20.032-37.6s17.434-41.49 17.434-41.49z" fill="#7c97c1"/><path d="m402.532 213.883s-45.751 41.662-88.149 29.316c0 0 11.159 16.3 27.16 19.847 0 0 44.785 6.429 60.989-49.163z" fill="#7c97c1"/><path d="m309.173 146.443s-9.808 25 5.086 39.89 38.166 3.362 38.166 3.362l-4.411-13.573-24.438-24.438z" fill="#7c97c1"/><path d="m309.173 146.443s-15.1 19.7 5.086 39.89 39.159 4.355 39.159 4.355 12.453 7.947 22.11 6.1c0 0-38.232 39.195-74.541 2.886 0 0-35.587-33.445 2.107-71.795z" fill="#ff9aa7"/><path d="m303.99 159.9a30.585 30.585 0 0 1 5.183-13.453l-.448-1.368a18.109 18.109 0 0 1 -3.35-7.684 26.548 26.548 0 0 1 -.418-3.821l-1.863-5.688c-1.027 1.045-1.989 2.085-2.91 3.122-3.483 8.384-3.036 18.485 1.839 26.2a25.363 25.363 0 0 0 1.967 2.692z" fill="#dd5764"/><path d="m369.8 102.737s-2.625 5.048-11.294 13.717-33.771 28.188-18.164 43.8 36.783-13.239 36.783-13.239l12.647-12.648z" fill="#dae5ed"/><path d="m381.061 225.651s-2.253-19.242-4.634-27.56c0 0-14.873 10.46-22.15 13.632a1.623 1.623 0 0 0 -1.258 1.8c-.389 8.488-.746 17.215 2.019 25.25a52.637 52.637 0 0 0 26.023-13.122z" fill="#ef8e4b"/><path d="m300.987 199.677s7.485 8.248 22.408 13.846l-7.395 26.453s-26.069-8.356-34.948-20.917z" fill="#ef8e4b"/><path d="m286.591 176.133-30.234 5.53s-8.057-21.363 5.356-36.213l26.032 2.275z" fill="#ef8e4b"/><path d="m324.014 100.068a40.383 40.383 0 0 0 16.669-24.882l-4.983-2.553-42.331 20.14-18.255 22.689 28.214 9.13z" fill="#ef8e4b"/><path d="m391.48 66.338s-3.946 8.837 4.918 14.033 14.438 1.05 14.438 1.05-2.47-18.112-19.356-15.083z" fill="#fff"/><path d="m416.44 87.884s-4.071 9.12 2.654 15.845 13.727 2.058 13.727 2.058 1.623-13.651-16.381-17.903z" fill="#fff"/><path d="m335.535 151.418a15.985 15.985 0 0 0 4.809 8.831c15.606 15.606 36.783-13.239 36.783-13.239l12.647-12.648-19.974-31.625s-1.826 3.5-7.412 9.646c2.168 3.424 3.981 7.053 4.313 11.045.386 4.638-1.317 9.253-3.847 13.159a33.429 33.429 0 0 1 -27.319 14.831z" fill="#8294af"/><path d="m135 468.269a25.9 25.9 0 0 1 -3-.139c-5.828-.645-11.018-3.661-15.908-7.007-.545-1.873-1.2-3.735-1.777-5.563a65.606 65.606 0 0 1 -2.773-13.922c-4.37 1.094-8.8 2.2-13.3 2.143s-9.17-1.387-12.367-4.56a17 17 0 0 1 -3.5-5.322 23.987 23.987 0 0 1 -1.541-14.1 20.5 20.5 0 0 1 -23.134-28.832 20.033 20.033 0 0 1 -13.615-3.418c-2.438-1.7-4.47-3.922-6.9-5.631-.341-.24-.7-.466-1.062-.682-.989-5.33-3.7-10.69-4.219-15.767a93.455 93.455 0 0 0 -13.575 14.319c-23.336 39.684 72.171 123.739 102.21 102.212a93.525 93.525 0 0 0 14.461-13.731zm-102.075-69.956a24.643 24.643 0 0 1 1.784-5.974 26.35 26.35 0 0 0 14.183 6.288 23.519 23.519 0 0 0 .153 16.527 22.647 22.647 0 0 1 -7.7-2.415c-5.211-2.803-9.119-8.553-8.42-14.426zm29.359 39.806a22.634 22.634 0 0 1 -5.169-12.6 23.572 23.572 0 0 0 16.993 4.032c-1.544 5.667.3 11.825 4.067 16.375a22.922 22.922 0 0 1 -15.891-7.807zm31.331 26.74c-5.061-2.72-8.219-8.1-9.081-13.828 6.208 3.234 13.8 3.525 20.585 1.617.645 3.855 1.311 7.775 3.051 11.275.062.124.138.244.2.367a15.216 15.216 0 0 1 -14.755.569z" fill="#ef8e4b"/><path d="m349.231 303.082q2.372-2.346 4.656-4.854a31.64 31.64 0 0 0 -2.878-3.006c-21.749-20.461-45.452-38.767-70.139-55.5a4.761 4.761 0 0 0 -2.94-1.136 4.375 4.375 0 0 0 -2.1 1.021c-18.983 14.029-35.77 30.808-51.139 48.706-3.01 3.5-6.03 7.165-7.484 11.582s-1.031 9.812 2.24 13.3l3.478 3.385a105.619 105.619 0 0 1 22.775-18.44c8.879-5.34 19.549-9.455 29.739-6.477l.129.038a14.219 14.219 0 0 1 9.887 15.49 57.379 57.379 0 0 0 -.323 12.658c.832 9.283 4.286 18.464 10.539 25.375 15.003-8.024 47.629-36.273 53.56-42.142z" fill="#ef8e4b"/><path d="m218.484 203.758q-3.329-5.722-7.2-11.106a2.483 2.483 0 0 0 -.854-.845 2.525 2.525 0 0 0 -1.361-.111 107.947 107.947 0 0 1 -14.574.477 50.844 50.844 0 0 1 -8.04-.81 33.444 33.444 0 0 1 -17.3-9.333l-.991 1.513q-7.364 8.457-14.201 17.351a1.611 1.611 0 0 0 -.47 1.185 1.554 1.554 0 0 0 .464.744c4.562 4.836 10.756 7.9 17.173 9.637s13.1 2.229 19.739 2.556a46.4 46.4 0 0 0 12.507-.576c5.157-1.163 9.779-3.946 14.3-6.688a2.37 2.37 0 0 0 .809-3.994z" fill="#ef8e4b"/><path d="m168.172 178.424h31.062v275.97h-31.062z" fill="#dae5ed" transform="matrix(.707 .707 -.707 .707 277.54 -37.223)"/><path d="m292.255 229.821-21.964-21.964-10.947 10.943c2.482 6.938 4.844 14.863 1.328 21.317a26.5 26.5 0 0 1 -4.9 5.895l-128.863 127.681c-4.974 4.929-10.033 9.921-16.162 13.307s-13.576 5.015-20.214 2.789c-.53-.178-1.054-.383-1.574-.6l-13.809 13.811 21.965 21.964z" fill="#8294af"/><path d="m402.532 213.883a150.945 150.945 0 0 1 -38 23.989 38.615 38.615 0 0 1 -5.538 23.716c14.398-3.657 33.96-14.846 43.538-47.705z" fill="#4866a8"/><path d="m292.999 233.488-25.767 23.416 61.318 46.982 23.665-27.696z" fill="#ff9aa7"/><path d="m198.678 174.014c4.507 19.738 46.951 59.091 46.951 59.091l9.233-11.164c-24.155-26.5-39.65-44.622-48.305-55.036z" fill="#dd5764"/><path d="m352.215 276.19-12.03-8.674c-9.878 8.676-29.091 13.472-62.1-20.477l-10.853 9.861 61.318 46.982z" fill="#dd5764"/><path d="m161.38 316.768 13.934-13.591q-4.8-4.435-9.768-8.691c-5.448-4.657-11.936-9.413-19.041-8.475a18.189 18.189 0 0 0 -7.242 2.852c10.7 14.621 22.117 27.905 22.117 27.905z" fill="#dd5764"/><path d="m229.674 339.207c-7.511 1.687-15.857.974-22.167-3.436a46.04 46.04 0 0 1 -7.819-7.651c-.758-.86-1.531-1.709-2.3-2.562l-13.237 14.426s36.747 37.82 58.6 33.674l20.254-16.905s-13.773-8.4-28.472-18.972a42.907 42.907 0 0 1 -4.859 1.426z" fill="#dd5764"/><path d="m75.444 403.29 21.328-23.771a54.894 54.894 0 0 1 -10.038-9.991c-.39-.016-.779-.04-1.163-.082-5.149-.556-9.929-2.844-14.911-4.258a26.353 26.353 0 0 0 -13.045-.779 16.439 16.439 0 0 0 -5.582 2.449c6.514 18.083 23.411 36.432 23.411 36.432z" fill="#dd5764"/><path d="m312.229 208.61c32.54 19.7 63.3-11.819 63.3-11.819-9.657 1.844-22.11-6.1-22.11-6.1s-10.154 8.458-23.508 5.105a33.488 33.488 0 0 1 -17.682 12.814z" fill="#dd5764"/><path d="m352.425 189.7-4.411-13.573-24.438-24.438-14.4-5.241a54.557 54.557 0 0 0 -3.106 15.482 27.411 27.411 0 0 0 8.476 4.822c4.355 1.518 9.038 1.914 13.4 3.418s8.637 4.54 9.7 9.027c1.263 5.315-2.24 10.272-5.683 14.706 10.837.554 20.462-4.203 20.462-4.203z" fill="#4866a8"/></g><g id="Layer_5" fill="#3a3245" data-name="Layer 5"><path d="m289.516 356.368c46.294-32.288 90.266-72.11 112.646-125.057 10.91-25.569 18.837-53.032 36.309-75.148 26.882-7.947 46.657-33.193 50.356-60.682 5.308-87.912-115.527-120.993-145.243-32.612-29.707 23.016-68.23 29.4-100.127 48.285-86.833 51.506-124.206 150.583-186.033 225.606a203.1 203.1 0 0 1 -20.724 20.968c-6.159 5.329-13.273 9.559-18.151 16.2-19.064 25.432 1.81 53.968 20.477 72.51 18.536 17.975 40.937 44.979 69.161 42.587 15.828-1.38 25.562-13.627 34.411-25.4 41.188-45.236 97.902-71.777 146.918-107.257zm37.527-275.719q2.419-1.287 4.771-2.67c1.679-.175 4.553-.409 5.16 1.454-3.058 6.46-7.772 12.021-12.917 16.98-6.089-2.445-12.493-3.88-18.847-5.448 7.211-3.572 14.774-6.395 21.833-10.316zm110.84-58.077c14.445 9.574-.211 24-7.612 33.092a29.365 29.365 0 0 0 -17.894-4.137c-2.438-11.519-5.417-24.5 3.039-34.375a64.2 64.2 0 0 1 22.467 5.42zm-28.729 173.144q-.9 1.517-1.873 2.976c-1.586-6.873-3.162-13.717-5.758-20.281 5.773-6.271 12.207-12.139 20.06-15.644a3.06 3.06 0 0 1 2.1 2.905 218.488 218.488 0 0 0 -14.529 30.044zm-92.288 131.784a35.178 35.178 0 0 1 -5.807-28.5 125.842 125.842 0 0 0 23.813 12.884c-5.843 5.396-11.864 10.597-18.006 15.616zm-180.193 117.131c-12.24-4.612-23.346-11.918-33.575-19.975 1.036-.99 2.009-2.027 2.97-3.066 13.912 10.7 33.673.344 39.16 25.161a63.1 63.1 0 0 1 -8.555-2.12zm-53.028 15.711c-12.63 7.915-23.9-.678-19.417-15.049a24.232 24.232 0 0 0 16.942 3.174 21.615 21.615 0 0 0 2.475 11.875zm-46.169-41.942a15.934 15.934 0 0 1 1.689-2.259 22 22 0 0 0 15.846 2.267 23.37 23.37 0 0 0 1.5 18.6c-10.654 4.743-25.49-7.233-19.035-18.608zm15.96-63.381c25.561 5.619 14.146 26.53 25.832 39.743-1.08 1.02-2.137 2.019-3.121 3.006-9.715-12.743-19.679-26.621-22.711-42.749zm64.036-92.11c1.424 4.852 4.043 9.528 6.322 13.926-1.858 2.851-3.581 5.817-5.336 8.735-2.535-4.367-3.979-9.325-6.849-13.566q2.936-4.546 5.863-9.095zm35.563-53.351c.434-.608.878-1.213 1.315-1.82 18.5 14.256 45.554 15.268 65.382 3.326 3.323 3.668 6.99 7.28 10.089 11.155-22.507 21.12-59.07 21.314-82.6 1.665-.055-2-.025-4 0-6.05q2.884-4.155 5.814-8.276zm88.29-64.739c3.392-3.039 9.124-2.682 13.434-1.3-3.9 9.67-6.115 19.649-5.756 29.455-8.122-8.343-10.559-16.883-7.678-28.155zm131.3-113.133c13.526-5.269 19.8 17.152 23.3 26.552-5.6 4.068-9.48 9.655-13.694 15.149-9.189-7.333-17.819-15.479-24.528-25.149a68.889 68.889 0 0 1 14.918-16.552zm31.348 45.333a3.7 3.7 0 0 0 .388-2.642 8.666 8.666 0 0 1 1.967 5.322 10.714 10.714 0 0 1 -5.79-.794 3.759 3.759 0 0 0 3.431-1.886zm-6.535-3.711a3.818 3.818 0 0 0 -.325 2.932 12.3 12.3 0 0 1 -2.613-6.74 15.017 15.017 0 0 1 6.333 1.916 3.769 3.769 0 0 0 -3.399 1.892zm22.918 22.917a3.482 3.482 0 0 0 -.467 2.03 10.7 10.7 0 0 1 -.8-5.8 8.653 8.653 0 0 1 5.273 1.933 3.811 3.811 0 0 0 -4.01 1.837zm6.535 3.711a3.523 3.523 0 0 0 .472-1.988 15.046 15.046 0 0 1 1.921 6.334 12.262 12.262 0 0 1 -6.778-2.648 3.707 3.707 0 0 0 4.381-1.698zm-144.272 253.164c-2.11.028-4.18.061-6.237 0-19.183-23.016-19.73-58.651.319-81.26 4.13 3.8 7.564 6.407 11.695 9.843-11.24 19.717-9.926 46.306 4.234 64.339q-4.972 3.585-10.011 7.078zm-217.248 84.757c-5.226-4.581-6.023-11.356-4.262-17.558a20.209 20.209 0 0 0 17.053 3.01 20.163 20.163 0 0 0 3.243 17.362c-5.557 1.513-11.095 1.516-16.034-2.814zm163.81-252.237c3.213-2.823 7.126-5.547 9.937-8.936q5.565 7.08 11.481 13.863c-6.955 6.074-14.8 11.348-20.308 18.8q-5.782-6.675-11.212-13.648c3.601-2.951 6.626-7.024 10.102-10.079zm130.372 65.406c-3.888 15.613-28.724 5.213-36.114-2.7 12.151 1.89 24.937-.343 36.4-5.058a56.519 56.519 0 0 1 -.286 7.758zm-267.48 156.985c2.061-1.006 4.312-.651 6.5-1 13.706-2.973 3.712-19.865 6.606-28.749q6.12-6.024 12.183-12.111c5 .536 10.2 2.542 15.246 2.046 9.289-1.03 14.876-10.382 15.175-19.1.244-7.645-1.529-14.35 5.6-19.309 4.768 2.978 6.5 10.759 12.8 11.679 3.287.456 5.559-3.784 2.313-5.685-4.12-2.413-6.609-7.971-10.619-10.5q9.129-9.13 18.256-18.262a14.8 14.8 0 0 0 5.771 7.914c-2.715 2.644-5.832 7.684-9.995 7.536-2.015-1.6-6.089 1.181-3.577 3.339 3.237 4.306 7.2 8.863 12.286 11.07l-13.323 13.32c-4.3-4.213-6.93-2.732-10.52-9.223-1.464-1.726-3.987-.193-4.123 1.708-.224 3.148 1.886 6.118 4.224 8.06 1.628 1.557 4.787 2.105 5.695 4.177q-15.755 15.742-31.501 31.479c-5.95.257-4.833-4.116-7.273-7.768-2.26-2.7-5.817-3.952-9.06-2.433-2.016.944-1.174 3.663.56 4.284 6.525 1.663 3.093 9.095 10.187 11.494-3.192 2.591-5.72 5.961-8.733 8.787a22.383 22.383 0 0 0 -1.819-10.817c-1.159-2.489-4.387-.953-4.629 1.223-.779 7.018 1 13.75-3.526 19.846-4.8 6.946-12.539 5.528-18.412.149a14.178 14.178 0 0 1 3.708-3.154zm153.109-204.188c3.063-2.692 6.767-5.291 9.542-8.466 10.311 15.691 1.758 19.987-8.276 31.431q-6.052-6.122-11.813-12.517c3.802-2.971 6.928-7.271 10.547-10.448zm69.455 67.253c-3.047 3.468-7.136 6.512-10.087 10.112q-6.974-5.428-13.648-11.218c7.46-5.509 12.731-13.353 18.805-20.305q6.777 5.916 13.856 11.482c-3.386 2.81-6.099 6.712-8.926 9.929zm-73.054 89.146c-4.061 2.8-8.372 5.154-12.551 7.748-4.013-2.222-7.9-4.716-11.7-7.3 7.262-4.844 15.135-9.465 20.892-16.221a154.378 154.378 0 0 0 13.449 7.965c-3.494 2.339-6.697 5.469-10.09 7.808zm-39.453-11.007c7.1-4.659 14.434-10.123 19.843-16.792q5.407 4.452 11.117 8.516c-6.877 5.731-13.763 11.174-21.511 15.653q-4.836-3.55-9.449-7.377zm-6.409-50.147a10.6 10.6 0 0 0 -6.81-4.832l9.345-9.348c18.093 2.268 2.518 35.972-13.067 23.967-1.577-1.434-3.163-4.067-2.034-6.238 1.787-3.438 5.516-1.464 7.544.276 2.589 2.22 7.001-.583 5.022-3.825zm-51.721-9.959a153.219 153.219 0 0 1 15.648-21.509q4.056 5.685 8.521 11.075c-6.66 5.424-12.118 12.737-16.773 19.853q-3.841-4.591-7.396-9.419zm156.976-155.836a24.473 24.473 0 0 0 3.851 12.893c.2 3.8-2.573 7.306-2.471 11.216-4.255 22.721 18.461 45.438 41.336 40.574 3.594-.228 6.873-2.615 10.4-2.462 4.2 1.3 8.532 4.023 13.158 3.622-43.738 39.56-104.543-22.04-66.274-65.843zm22.065.6c2.662 2.521 5.359 5.791 8.46 8.134-15.263 16.03-30.21-4.472-20.86-20.127 4.027 4.102 8.227 8.039 12.4 11.991zm-12.319 18.127a17.548 17.548 0 0 0 8.119 2.82c-1.065 14.166 13 29.192 27.328 26.377a17.422 17.422 0 0 0 2.9 8.339c-22.624 11.493-49.069-14.857-38.347-37.536zm52.779 40.59c-12.546-3.05-15.356-15.822-5.345-24.013 6.6 7.476 13.66 14.2 20.533 21.343-4.689 2.48-9.956 3.919-15.189 2.673zm15.813-51.154c-8.473 7.878-25.206 27.608-36.127 12.409-4.689-6.526-1.168-13.216 3.233-18.793 6.853-8.884 16.028-15.949 22.1-25.431 4.552 9.628 8.748 19.47 14.281 28.631q-1.763 1.58-3.487 3.187zm-82.88 113.636c-3.171 3.609-7.481 6.756-10.45 10.552q-6.208-5.588-12.153-11.46c4.416-4.038 8.468-8.569 13.643-11.688 5.686-3.428 9.957-.355 15.17.846.777.715 1.55 1.434 2.333 2.142-3.21 2.784-5.823 6.516-8.543 9.611zm-81.363 47.357-8.771 8.771a25.459 25.459 0 0 0 6.279-18.364 16.453 16.453 0 0 0 8.877 3.215q-3.193 3.191-6.385 6.381zm69.542-71.7a7.452 7.452 0 0 1 -2.2 4.16c-3.18-1.324-6.61-6.19-4.141-9.449q3.095 2.777 6.341 5.297zm-32.274 34.449c-3.173 3.2-6.369 6.373-9.649 9.465a9.7 9.7 0 0 0 -3.63-5.715c-2.242-1.842-6.141.487-4.356 3.317 3.756 5.955-1.873 11.072-6.4 14.375-9.447 7.56-15.7-3.77-24.205-7.413 14.687-16.282 31.1-16.356 51.447-17.268-1.066 1.09-2.134 2.174-3.207 3.247zm34.89-46.74c4.449-5.1 9.538-9.357 13.812-14.58a56.441 56.441 0 0 0 17.989 11.242c-1.578 6.811-3.425 13.473-4.625 20.387a84.732 84.732 0 0 1 -27.176-17.041zm2.5-28.448a62.1 62.1 0 0 0 7.182 9.705c-5.245 4.29-9.524 9.4-14.641 13.863-8.134-8.692-14.554-18.324-18.437-28.946 7.182-1.337 14.1-3.18 21.174-4.859a53.333 53.333 0 0 0 4.727 10.247zm-58.32 61.719c8.741-8.4 17.356-17.044 26.051-25.575-.673 4.68 8.165 12.591 2.443 15.355-1.687.391-2.29-.875-3.333-2.2-1.808-2.3-4.916.263-4.5 2.581.695 3.856 4.374 7.306 8.518 6.822 3.86-.451 6.439-4.282 7.279-7.818 1.889-9.208-12.008-17.158 2.344-23.382 1.4 1.526 2.838 3.022 4.32 4.469-5.36 4.19-2.627 13.628 2.91 17.735-5.295 5.22-10.486 10.566-15.673 15.891-12.722.466-25.7.238-37.962 3.725q3.807-3.794 7.608-7.595zm-67.139 40.207c2.48-2.916 5.511-5.727 7.431-9.08q4.529 5.2 9.339 10.1l-18.194 18.191q-3.552-3.612-6.925-7.38a70.307 70.307 0 0 1 8.354-11.823zm-53.433 71.193a39.614 39.614 0 0 0 -5.085-15.7q5.007-5.613 9.886-11.341c7.612 13.979 6.648 16.547-4.796 27.049zm31.463-22.163c.133 12.437-3.7 25.071-18.81 19.037q9.422-9.505 18.81-19.037zm46.132-23.127c5.932 1.163 11.739-.969 16.115-4.866l-15.638 15.635c-3.912 2.474-6.809 3.133-10.291-.719 3.562-2.927 6.371-6.887 9.814-10.05zm.762 19.655q9.095-9.1 18.189-18.2 5.049 4.952 10.429 9.63c-7.248 4.878-12.991 11.843-20.913 15.782q-3.939-3.506-7.705-7.212zm131.106-100.11c1.808-6.847 2.847-13.622 4.831-20.376a46.579 46.579 0 0 0 23.811-.655c.12 7.14.235 14.28.444 21.418a60.71 60.71 0 0 1 -29.086-.387zm79.877-66.49q-1.065 1.08-2.113 2.186c-6.21-7.853-13.251-14.774-20.387-21.7 6.855-6.373 13.383-13.05 21-18.178 2.9 4.3 7.648 8 10.978 11.609 3.674 3.492 7 8.789 11.125 11.432a65.165 65.165 0 0 0 -20.602 14.651zm-117.505-12.344a47.434 47.434 0 0 0 .672 15.058c-7.064 2.043-14.1 3.29-21.278 5.034a59.478 59.478 0 0 1 .519-28.925c7.28.206 14.564.325 21.846.443a49.341 49.341 0 0 0 -1.759 8.39zm-126.572 103.92c-6.728 5.789-11.354 13.639-16.19 20.914-2.594-3.782-5.086-7.657-7.327-11.652a159.81 159.81 0 0 1 15.545-22.637c2.435 4.619 5.096 9.017 7.972 13.375zm-29.13 84.556c-.933-5.542-4.507-11.274-6.946-16.124q5.145-6.173 10.135-12.472c10.533 14.638 9.765 16.556-3.189 28.596zm24.451 46.59a40.564 40.564 0 0 0 -13.658-4.333c10.046-10.514 10.923-13.059 24.933-5.5q-5.696 4.852-11.275 9.837zm16.479-14.235c-4.366-2.277-9.337-5.174-14.195-6.175 11.142-11.843 12.5-14.48 26.788-4.063q-6.36 5.045-12.593 10.238zm81.451-35.424c-15.251-7.851-17.242-28.325-13.33-43.687 3.343-15.438 15.916-25.56 26.64-36.09 2.558-.253 5.424 1.082 8.19 2.971-20.293 23.44-21.8 58.923-4.391 84.564a74.03 74.03 0 0 1 -17.112-7.758zm113.742-110.814a72.462 72.462 0 0 1 -7.415 2.884c-.033-7.3-.15-14.6-.273-21.9 6.667-2.79 12.757-6.79 18.7-10.895 1.837 7.1 4.736 14.032 5.093 21.4a146.472 146.472 0 0 1 -16.105 8.511zm-72.951-95.844a61.5 61.5 0 0 0 -3.315 6.449c-7.4-.278-14.824-.247-22.232-.34a137.809 137.809 0 0 1 11.414-23c7.413.556 14.341 3.446 21.521 5.253a110.285 110.285 0 0 0 -7.388 11.638zm-56.1 91.221c4.693 8.295-6.459 17.621-11.842 23.311-16.06 15.82-43 18.577-61.618 5.871-4.863-7.471-9.486-15.265-11.969-23.887 25.962 17.596 62.087 15.714 85.425-5.295zm-77.912 89.352-12.542 12.538c-1.336-6.207-5.453-12-9.492-16.931 2.632-3.3 5.343-6.63 7.82-10.082a151.578 151.578 0 0 0 14.214 14.475zm-76.158 84.476c6.431-5.86 12.7-11.912 18.967-17.961.094 4.089.839 8.372.743 12.347.512 6.982-10.243.679-15.99 9.8q-1.9-2.06-3.731-4.178zm105.581-37.228c-4.591-3.655-9.832-7.2-15.4-8.553q5.943-5.991 11.917-11.944c3.182 5.344 8.9 8.808 13.278 12.876-3.348 2.436-6.582 5.08-9.795 7.621zm148.382-79.377c-2.915 3.317-6.778 6.25-9.692 9.649-4.874-3.134-9.595-6.521-14.219-9.993 7.041-5.96 12.589-13.345 18.412-20.461 4.807 3.656 9.7 7.253 14.745 10.608-3.538 2.827-6.33 6.88-9.246 10.198zm31.6-30.646a34.49 34.49 0 0 0 .868-14.672 156.9 156.9 0 0 0 25.1-15.306c-1.647 15.083-11.668 25.806-25.967 29.979zm19.689-34.419c-1.657-7.235-2.491-14.813-5.328-21.861 5.765-4.754 11.154-9.947 16.548-15.085 2.658 7.086 4.1 14.545 5.6 21.9a90.532 90.532 0 0 1 -16.819 15.047zm68.858-78.713c-.784.541-1.585 1.047-2.4 1.537-11.489-4.247-17.825-16.6-27.112-23.953 6.254-4.6 12.884-9.033 17.337-15.353 9.609 3.558 21.864 6.692 26.963 16.412.893 2.77-.5 5.2-.644 7.848a64.3 64.3 0 0 1 -14.143 13.51zm-108.96-60.738c7.374 6.344 13.795 13.282 21.184 19.855-4.528 8.278-11.023 14.654-17.426 21.487a233.053 233.053 0 0 0 -21.415-20.137c7.012-6.3 12.935-13.756 16.567-22.363.368.394.738.78 1.09 1.158zm-36.168 30.818c-2.444 2.545-4.8 5.184-7.039 7.92-6.965-3.015-14.745-3.8-21.961-5.5a84.266 84.266 0 0 1 17.412-18.412 133.355 133.355 0 0 1 21.416 5.468 99.613 99.613 0 0 0 -9.828 10.524zm-229.71 234.58a368.133 368.133 0 0 0 48.081-63.449 139.052 139.052 0 0 0 10.4 15.122 700.616 700.616 0 0 1 -52.454 61.853 68.684 68.684 0 0 1 -6.027-13.526zm2.333 66.81c-14.415 11.1-29.89-8.048-16.9-20.492a172.188 172.188 0 0 0 16.9 20.492zm8.154 25.531c-6.085-4.586-6.468-13.479-1.661-19.073a170.666 170.666 0 0 0 20.73 16.773c-5.361 5.097-12.7 7.272-19.069 2.3zm80.149-52.863c9.937-8.555 20.278-16.519 30.695-24.493a137.149 137.149 0 0 0 15.436 10.178 367.29 367.29 0 0 0 -64.144 48.7 72.049 72.049 0 0 1 -13.215-6.318q15.222-14.465 31.228-28.067zm19.274 28.667c-4.045-2.735-8.429-5.111-12.753-7.445q5.634-4.627 11.455-9.021c4.93 2.493 9.822 4.718 14.779 7.275q-6.778 4.519-13.481 9.191zm28.437-19.03q-4.386 2.863-8.786 5.754c-5.027-2.547-10.091-4.931-15.158-7.459q6.461-4.666 13.115-9.059c4.977 2.974 10.427 4.9 15.544 7.7q-2.359 1.53-4.715 3.064zm10.8-7c-4.707-3.305-10.334-4.983-15.277-7.808 3.107-1.877 6.281-3.707 9.32-5.7a155.025 155.025 0 0 0 16.079 6.99q-5.065 3.257-10.123 6.516zm69.849-46.786c-11.379-16.465-13.5-37.732-4.248-55.694 3.682 2.967 7.429 5.888 11.245 8.67-3.393 11.934-1.922 26.663 6.717 36.529q-6.767 5.37-13.715 10.493zm43.228-75.159c15.026-.164 28.31-5.11 41.17-12.062a231.539 231.539 0 0 1 -18.129 25.741 148.384 148.384 0 0 1 -23.042-13.681zm83.793-184.227c8.488 3.714 13.68 9.946 11.144 19.419q-.611.789-1.272 1.536c-.4-10.452-9.151-19.192-19.588-17.135a3.226 3.226 0 0 0 -2.309 2.309 16.93 16.93 0 0 0 13.256 22.1c-13.166 9.943-22.856 17.1-38.358 6.176 3.838-3.724 7.564-8.053 12.456-10.226 1.028 1.752 1.89 3.595 2.938 5.48 1.572 2.83 5.227.809 4.866-1.98-1.125-8.7-11.054-17.817-19.764-18.231-2.371-.112-3.137 3.262-1.156 4.375 1.94 1.089 3.888 1.987 5.742 3.06-1.1 5.5-6.4 8.979-10.147 12.884-10.209-13.56-3.869-24.906 6.137-36.015a16.927 16.927 0 0 0 20.9 9.247 3.229 3.229 0 0 0 2.31-2.309c1.766-9.273-4.735-17.266-13.925-19.179q.757-.648 1.55-1.247c8.3-1.554 13.607 4.079 17.016 11.53 1.675 3.662 7.151.543 5.448-3.093-2.375-5.07-6.858-10.587-12.125-13.25 17.209-3.708 34.921 14.792 31.5 31.795-2.542-5.513-8.278-10.234-13.529-12.694-3.626-1.7-6.757 3.771-3.09 5.448zm-166.57 33.408c4.6-2.455 9.657-3.773 14.576-5.419a139.478 139.478 0 0 0 -15.979 27.017c-4.553-1.214-9.28-2.067-13.927-.774 2.515-8.986 6.705-16.513 15.33-20.824zm-34.855 65.583c-2.992 2.535-6.621 5.3-8.952 8.681-3.469-4.624-6.854-9.344-9.984-14.218 6.311-6.9 13.412-12.359 19.842-18.943 3.354 5.05 6.95 9.945 10.608 14.755-4.083 2.791-7.832 6.606-11.514 9.725zm-35.843-15.612c3.136 1.884 4.72 6.611 6.431 9.564 2.619 4.5 5.378 8.925 8.331 13.22a34.962 34.962 0 0 1 -29.859-5.276c4.866-5.977 9.887-11.835 15.097-17.508zm-.907 30.217a40.8 40.8 0 0 0 19.677-1.668q4.048 5.661 8.384 11.106c-17.894 9.76-40.056 8.118-56.656-3.529q5.089-6.9 10.417-13.651c4.31 4.498 12.885 6.875 18.178 7.742zm-77.307 86.333c1.5 3.146 2.832 6.524 4.567 9.579q-4.328 6.576-8.931 12.964c-2.437-4.421-4.372-8.933-6.623-13.4q4.44-6.69 8.809-13.427c.717 1.473 1.521 2.907 2.178 4.284zm-13.211 19.07c1.584 3.076 2.965 6.272 4.526 9.351q-4.394 5.85-9.034 11.502c-2.059-3.806-4.176-7.628-6.561-11.2 3.04-4.474 6.158-8.9 9.156-13.4.616 1.324 1.319 2.592 1.913 3.747zm-24.818 41.329c2.194 10.454 7.236 20.115 13.509 28.814 4.323 7.668 5.521 11.208-1.083 18.171-5.9-8.873-3.687-20.934-10.333-29.546-3.911-5.389-11.069-10.61-18.244-11.5 5.359-5.7 10.412-11.678 15.251-17.827a44.026 44.026 0 0 0 .9 11.888zm-30.35 22.375c11.109-.853 12.824 13.343 18.35 20.176-6.81 1.935-14.186 1.942-19.171-4.065a11.533 11.533 0 0 1 .821-16.111zm14.2 28.208a20.591 20.591 0 0 0 -1.338 17.723c-13.331 4.271-24.835-10.859-13.533-21.074a23.921 23.921 0 0 0 14.871 3.351zm37.412 67.683c-4.627-3.814-5.436-9.277-4.27-14.6a20.636 20.636 0 0 0 19.273-.669 24.257 24.257 0 0 0 2.379 13.15c-4.328 5.057-12.052 6.904-17.387 2.119zm23.146-19.792c5.518 3.189 11.027 6.549 16.825 9.22a9.629 9.629 0 0 1 1.971 10.687 11.588 11.588 0 0 1 -14.842-.362c-6.112-5.072-6.002-12.627-3.959-19.545zm35.339 3.5c-.83-7.231-6.092-14.465-11.525-18.412-8.364-6.494-20.03-4.459-28.769-9.936 3.874-2.97 9.331-6.06 14.25-3.817 12.547 9.644 27.708 17.632 43.846 16.8-6.157 4.882-12.122 9.98-17.807 15.365zm331.243-360.091c-9.931 8.44-22.964 5.233-34.506 2.877a31.706 31.706 0 0 0 -5.725-20.429c8.173-7.089 20.418-20.233 31.607-11.423a67.05 67.05 0 0 1 8.624 28.975zm-239.282 34.286c-6.31 12.25-10.621 24.62-10.66 38.735a145.535 145.535 0 0 1 -12.94-22 220.426 220.426 0 0 1 23.6-16.735zm-224.116 267.692c2.32-6.937 6.766-12 12.331-16.418a18.127 18.127 0 0 0 4.143 15.558c-6.334 3.956-7.494 13.59-4.975 20.542a18.233 18.233 0 0 1 -12.982-7.367 30.023 30.023 0 0 1 1.483-12.315zm82.151 95.855c-4.806-3.687-7.191-7.784-7.825-13.333 6.92 2.521 16.526 1.336 20.5-4.934a18.566 18.566 0 0 0 14.619 5.8c-7.029 8.148-16.852 12.975-27.294 12.467z"/><path d="m227.268 270.6.04.017c-2.316-.674-5.339 1.31-5.308 3.825-.043 2.906 3.539 4.645 5.912 3.048l-.087.035c3.075-1.266 2.689-6.163-.557-6.925z"/><path d="m242.735 246.358c-.8 4.33 4.593 6.284 6.343 2.007 1.505-4.256-5.111-6.365-6.343-2.007zm.645.758c-.036.086-.073.172-.1.261.02-.089.068-.177.1-.261z"/><path d="m127.814 375.792c.44 5.555 8.64 2.127 5.037-2.087a2.973 2.973 0 0 0 -5.037 2.087z"/><path d="m181.663 203.446c-.041 4.414 6.834 4.394 6.792 0 .045-4.415-6.834-4.395-6.792 0z"/><path d="m206.442 225.157c-1.105 4.488 5.856 5.675 6.06.993.163-3.333-5.329-4.386-6.06-.993z"/><path d="m165.333 224.889a3.346 3.346 0 0 0 6.223 1.643c2.496-4.963-5.947-7.186-6.223-1.643z"/><path d="m187.02 256.463c2.565 4.013 8.735-1.621 5.1-4.576-3.336-3.11-7.972.913-5.1 4.576z"/><path d="m246.535 309.724c.037-4.068-6.3-4.05-6.259 0-.038 4.068 6.297 4.049 6.259 0z"/><path d="m276.093 294.094c1.1-3.869-4.887-5.6-5.931-1.675-1.062 3.736 4.912 5.454 5.931 1.675z"/><path d="m279.168 334.628c.039-4.277-6.621-4.258-6.581 0-.04 4.277 6.621 4.258 6.581 0z"/><path d="m300.165 314.867c.039-4.247-6.576-4.228-6.536 0-.039 4.248 6.576 4.233 6.536 0z"/></g></svg>