<svg height="512" viewBox="0 0 500 500" width="512" xmlns="http://www.w3.org/2000/svg"><g id="Layer_4" data-name="Layer 4"><path d="m478.889 247.854c-4.619-10.227-9.936-20.83-19.3-27.011-9.966-6.576-22.637-6.94-34.573-7.235a1460.3 1460.3 0 0 1 -185.5-16.468c-12.324-1.892-25.882-4.678-33.308-14.693-11.715-15.8-2.821-42.609-18.387-54.632-8.322-6.429-23.394-8.284-33.813-6.85 0 0 .92 39.911-3.185 54.154s-14.894 27.562-29.483 30.186c-11.493 2.066-23.3-2.66-34.885-1.2a90.253 90.253 0 0 1 20.114 33.217c.838 2.47 1.573 5.118.976 7.657-.587 2.493-2.364 4.5-3.817 6.607-5.983 8.682-6.775 20.039-5.013 30.434s5.816 20.239 8.851 30.336c16.77 55.8 1.356 121.02-13.584 177.333 35.554.574 170.1 1.429 170.1 1.429-4.966-44.094-30.01-86.814-23.864-121.18l18.73 11.931a16.741 16.741 0 0 1 13.669-12.441c-6.725-9.3-17.345-15.275-23.82-24.752-11.866-17.366-6.095-42.406 8.2-57.837s32.451-22.431 52.8-27.755c0 0-1.611 27.8 1.667 41.185 2.545-5.858 9.789-11.606 15.5-14.469 2.554-1.281 5.476-2.3 7.022-4.705 3.043-4.73-1.224-10.85-.786-16.458.727-9.3 12.723-12.307 22.036-12.857l81.37-4.8a18.02 18.02 0 0 1 5.844.541c12.5 3.44 9.448 17.606 13.8 27.4s16.657 16 16.884 26.736c.089 4.213-1.844 8.325-.364 12.6a5.629 5.629 0 0 0 3.166 3.471c3.418 1.335 6.2-1.456 7.961-4.185 12.439-19.268 4.438-44.774-5.008-65.689z" fill="#f9e4e1"/><path d="m160.383 491.635a53.927 53.927 0 0 1 -7.383-18.154c-2.8-13.263-1.468-27.007-.125-40.5.381-3.828.84-7.865 3.139-10.949 2.424-3.251 6.432-4.832 10.228-6.258l58.4-21.937c-14.064 4.129-30.491-1.915-38.525-14.176.582 5.828-3.586 11.431-8.95 13.78s-11.6 1.917-17.2.195a10.91 10.91 0 0 1 -5.411-3.09c-2.3-2.794-1.775-6.862-1.252-10.44a158.7 158.7 0 0 0 -2.347-58.288c-3.3-14.381-8.456-30.192-1.429-43.166 7.563-13.964 25.5-17.771 41.2-20.095-5.386-4.911-15.219 1.265-20.972-3.212-2.35-1.828-3.243-4.937-3.794-7.864-5.594-29.719 13.636-61.521 41.529-72.246-5.17-15.651-1.081-36.052-14.1-46.11-8.323-6.428-23.4-8.284-33.813-6.849 0 0 .919 39.91-3.186 54.153s-14.892 27.571-29.486 30.191c-11.492 2.067-23.3-2.66-34.885-1.2a90.241 90.241 0 0 1 20.114 33.216c.838 2.47 1.574 5.118.976 7.657-.587 2.493-2.364 4.5-3.817 6.608-5.982 8.682-6.775 20.038-5.013 30.433s5.817 20.239 8.851 30.336c16.77 55.8 1.356 121.02-13.584 177.333 11.997.197 35.268.418 60.835.632z" fill="#c18f85"/><path d="m245.319 144.467c-2.5-1.918-5.072-4.071-6.056-7.064a16.56 16.56 0 0 1 -.484-5.709q.984-31.17 1.97-62.34c.311-9.857.593-19.941-2.416-29.332-4.844-15.116-18.314-26.847-33.71-30.711s-33.633-1.911-45.376 8.771c-10.2 9.28-11.776 21.879-12.156 28.168-1.531 25.406-1.143 51.3 5.958 75.742 1.833 6.312 4.223 12.688 8.745 17.459 6.617 6.981 16.581 9.373 25.876 11.851a335.668 335.668 0 0 1 50.565 17.916c4.852 2.17 9.877 4.505 15.19 4.353 7.78-.223 14.4-5.719 19.379-11.7a181.44 181.44 0 0 1 -27.485-17.404z" fill="#f9e4e1"/><ellipse cx="186.244" cy="83.582" fill="#f48a4e" rx="11.162" ry="15.044"/><g fill="#c18f85"><path d="m176.53 127.43c-5.482-10.741-5.83-23.3-5.68-35.355q.24-19.284 1.779-38.523c.644-8.049 5.37-39.193 26.949-45.265-14.193-2.305-29.847.26-40.331 9.8-10.2 9.28-11.776 21.879-12.156 28.168-1.531 25.406-1.143 51.3 5.958 75.742 1.833 6.312 4.223 12.688 8.745 17.459 6.617 6.981 16.581 9.373 25.876 11.851q7.914 2.109 15.714 4.62c-9.762-8.958-20.879-16.789-26.854-28.497z"/><path d="m200.972 155.148a335.782 335.782 0 0 1 37.263 14.07 60.721 60.721 0 0 0 9.427 3.638c-5.911-4.307-20.279-15.639-5.622-31.19-2.152-1.723-1.926-1.674-2.777-4.263-.094-.288-.168-.582-.233-.877a34.859 34.859 0 0 1 -1.992 3.132c-4.144 5.676-10.844 8.939-17.583 10.932-6.086 1.8-12.405 2.755-18.483 4.558z"/><path d="m296.574 266.241a183.952 183.952 0 0 1 17.659-5.542q-.5-19.394-1.693-38.762a192.284 192.284 0 0 0 -35.1 10.57c-4.861 1.987-9.817 4.212-15.069 4.219-4.12.006-8.249-1.366-12.3-.634-5.187.937-9.095 5.05-13.359 8.147-9.1 6.61-20.666 8.9-31.9 9.385s-22.5-.662-33.733-.117c-5.814.283-11.727 1.053-16.966 3.592s-9.754 7.093-11.039 12.77l-4.389 11.8c9.51-5.56 19.642-10.992 30.651-11.386 7.479-.267 14.846 1.827 22.323 2.164 11.032.5 21.838-2.828 32.38-6.117l25.446-7.939c14.308-4.465 26.832-8.81 40.293-14a5.452 5.452 0 0 1 7.4 5.373c-.455 8.891-.571 16.245-.604 16.477z"/></g><path d="m47.508 195.032s-33.88 7.026-39.859 63.674 17.191 53.177 17.191 53.177.747 16.551 20.555 13.935c0 0 6.823 15.061 21.474 4.725 0 0 18.3 16.071 18.779-13.574a215.222 215.222 0 0 1 8.33-54.61s28.4 21.75 37.373 0a106.825 106.825 0 0 1 -18.425-21.065s-4.626-46.245-65.418-46.262z" fill="#f9e4e1"/><path d="m86.069 307.234c-43.327 5.956-53.386-6.281-58.977-28-2.248-8.733-2.13-17.94-.817-26.862 3.253-22.109 14.645-43.548 32.39-56.775a107.22 107.22 0 0 0 -11.157-.568s-33.88 7.026-39.859 63.674 17.191 53.18 17.191 53.18.747 16.551 20.555 13.935c0 0 6.823 15.061 21.474 4.725 0 0 18.3 16.071 18.779-13.574.052-3.315.204-6.569.421-9.735z" fill="#c18f85"/><path d="m220.692 191.434a38.653 38.653 0 0 0 5.692 13.7c6.373 9.35 16.371 14.178 26.309 15.791a54.382 54.382 0 0 0 34.886-6.21c5.017-2.752 10.027-6.347 15.184-8.572q-28.912-3.267-57.681-7.683c-8.326-1.283-17.209-2.978-24.39-7.026z" fill="#fff"/><path d="m240.749 69.354c.311-9.857.593-19.941-2.416-29.332-3.9-12.156-13.374-22.114-24.942-27.56a61.461 61.461 0 0 0 -9.285 19.656 58.975 58.975 0 0 0 5.654 43.635 30.321 30.321 0 0 0 6.8 8.732c6.133 5.143 14.956 6.625 23.531 5.842z" fill="#fff"/><ellipse cx="224.343" cy="82.01" fill="#ffda76" rx="12.941" ry="16.616"/><path d="m481.494 319.05c3.418 1.334 6.2-1.457 7.961-4.185 10.857-16.8 6.17-38.335-1.468-57.438-3.5-.62-7.07-1.11-10.235-2.634-8.379-4.034-12.222-14.4-20.545-18.555-4.595-2.29-9.937-2.362-15.071-2.386l-38.788-.184c-11.012-.052-23.065-.477-31.363-7.718a23.122 23.122 0 0 1 -7.427-14.167q-14.679-1.029-29.336-2.351c-7.064 5.48-15.448 9.405-23.948 12.354a8.737 8.737 0 0 0 -3.625 1.922c-2.688 2.829.034 7.931 3.8 8.938s7.682-.615 11.288-2.107 7.674-2.895 11.312-1.483c4.331 1.682 6.349 6.793 6.468 11.438s-1.148 9.234-1.128 13.881a24.784 24.784 0 0 0 1 6.8c3.709-5.6 12.921-7.637 20.4-8.078l81.37-4.8a18.02 18.02 0 0 1 5.844.541c12.5 3.441 9.448 17.606 13.8 27.4s16.657 16 16.884 26.736c.089 4.213-1.844 8.326-.364 12.6a5.631 5.631 0 0 0 3.171 3.476z" fill="#c18f85"/><path d="m105.879 246.591a47.978 47.978 0 0 0 7.894-4.046q-.424-.618-.847-1.251s1.492-36.624-43.919-43.985c-6.224 3.474-9.536 10.565-10.242 16.694-1.12 9.722 1.089 20.249 7.877 27.3 9.716 10.091 26.227 10.485 39.237 5.288z" fill="#fff"/></g><g id="Layer_5" data-name="Layer 5"><path d="m23.094 315.088c3.128 9.209 11.414 16.938 21.293 13.78 4.048 8.765 16.528 13 23.842 5.908a10.182 10.182 0 0 0 8.861 3.129c13.216-1.4 10.8-18.258 11.3-27.446q.62-11.329 1.964-22.579c33.31 60.319 17.155 137.43 3.889 201.635-.952 5.083 6.109 7.592 9.619 5.542 5.228-.888 8.936-5.532 10.513-10.493 49.323 7.467 102.027 2.1 147.791-17.98a164.059 164.059 0 0 1 4.517 26.087c.312 3.812 6.06 3.938 6.031 0-.85-40.5-23.943-76.909-25.141-117.543 3.517 2.584 17.025 14.97 19.537 7.208 1.121-6.3 8.937-7.122 14.206-7.7 3.583-.395 5.139-4.785 1.872-6.911-14.819-9.64-27.172-25.086-32.484-42.058 7.183-32.51 27.491-56.572 61.528-60.932q.341 19.821.439 39.646c.021 4.1 5.358 4.338 6.723.91 9.41-21.949 23.008-13.81 23.123-20.617q-.549-12.184-.449-24.366 17.935-2.364 35.948-4.1c4.064 9.462 3.577 20.845 4 31.054.516 12.459.43 24.929-.176 37.383-.183 3.76 4.835 4.595 6.68 1.809 4.079-6.157 8.236-12.279 12.173-18.527 3.49-5.54 4.153-10.85 4.055-17.29-.183-12.077.387-24.532-1.3-36.56 8.174-.578 16.354-1.077 24.541-1.448 7.42-.337 20.114-3.526 24.522 4.318 3.787 8.458 3.645 18.633 3.8 27.756.612 7.284-3.983 16.1-.64 22.635 6.866 8.41 15.177 1.909 17.625-6.517 1.158 6.54-1.056 14.517 2.952 20.217 5.59 6.479 12.789 1.427 15.662-4.556 7.376-16.394 7.248-37.18 2.459-54.428-6.6-20.372-19.424-45.286-43.02-48.264-11.437-1.023-22.993-1.285-34.453-1.986-59.3-3.86-118.831-7.152-177.651-15.928-20.017-2.382-29.6-15.174-30.871-34.784 12.1 5.261 23.939 9.84 36.143 14.546 13.7 6.037 22.86-1.441 32.129-10.98a3.554 3.554 0 0 0 -.715-5.549c-7.371-3.564-14.82-7.006-21.858-11.207-9.2-5.493-13.095-12.5-11.747-23.375 2.374-15.48 2.353-31.446 3.147-47.046.734-14.436 1.293-29.53-4.5-43.106-14.965-35.658-68.918-40.163-92.414-10.958-16.623 20.79-12.728 49.593-9.45 74.1 1.273 8.869 3.326 17.443 7.315 24.966 2.274 12.981 3.818 26.186 2.926 39.38-.473 19.792-10.014 42.035-32.886 41.548-18.75.266-36.572-10.829-55.108-11.353-52.575-13.496-81.172 114.725-38.262 123.03zm-11.746-22.43c4.043-.878 6.616.337 9.738 2.288a114.429 114.429 0 0 0 .468 12.127c-6.039-2.292-8.877-8.031-10.206-14.415zm-1.169-13.558q-.034-4.023.165-8.061c4.348.91 8.93 2.833 11.059 6.909q-.159 4.385-.222 8.77a16.67 16.67 0 0 0 -10.718-.467c-.2-2.475-.263-4.911-.284-7.151zm3.4-31.367c24.8 5.272 49.173 12.388 72.072 23.418q-.934 6.017-1.683 12.059c-5.646-.978-11.459-1.742-17.2-.9-.051-3.413-.1-6.826-.2-10.241-.117-4.052-6.172-4.056-6.3 0q-.18 5.793-.163 11.6c-3.9-1.688-8.044-3.221-12.409-3.373a91.794 91.794 0 0 0 -.077-14.613c-.334-2.843-4.63-4.009-5.4-.731a71.872 71.872 0 0 0 -1.588 14.718 19.4 19.4 0 0 0 -12.1-1.209c.114-4.842.872-10.237-.642-14.57-.642-1.881-3.674-2.753-4.67-.611a16.416 16.416 0 0 0 -1.342 5.143c-3.134-1.9-7.074-3.781-11.089-3.637a124.131 124.131 0 0 1 2.788-17.05zm25.6 52.319a24.841 24.841 0 0 0 -10.446-.74q-.243-6.9-.308-13.81a12.19 12.19 0 0 1 12.167 3.51c.02 3.847-.071 7.574-.137 11.446-.447-.152-.877-.288-1.284-.403zm8.55 3.979c-.177-5.677-.236-11.358-.206-17.038a29.511 29.511 0 0 1 11.577 4.679c1.679 4.474 1.373 9.29 1.785 13.991a22.754 22.754 0 0 0 -13.164-1.629zm19.839 1.769c-.423-5.67-.593-11.339-.7-17.011 5.483.038 10.954.151 16.254 1.732q-.744 7.013-1.216 14.05a25.628 25.628 0 0 0 -14.294 1.9c-.012-.252-.031-.486-.044-.671zm120.642 72.17c-5.9-4.789-8.628 9.316-10.928 12.878-15.787-1.159-31.592-2.548-47.276-4.67a222.079 222.079 0 0 0 -.613-22.982 361.711 361.711 0 0 0 88.952-10.739c5.055 9.477 13.492 16.363 21.82 22.861.26 4.247.685 8.492 1.244 12.729a214.717 214.717 0 0 1 -32.676 3.466c-5.668.163-9.849.715-13.338-4.393a68.019 68.019 0 0 0 -7.185-9.147zm-64.275 61.682a351.463 351.463 0 0 0 5.832-46.859c17.014 1.658 32.755 3.523 49.614 4.749 4-.1 5.057-8.054 7.149-11 4.256 7.087 9.345 12.762 18.311 11.838a210.034 210.034 0 0 0 37.573-3.6q1.091 6.579 2.573 13.1c-34.268 25.698-79.209 33.751-121.052 31.775zm2.989-174.6c-6.223 4.134-14.377 1.955-20.113-2 4.425-2.552 7.4-7.739 8.592-12.568 3.288 4.437 8.509 7.23 12.488 11.1a10.434 10.434 0 0 1 -.967 3.47zm-22.555-36.552c4.626 9.462 9.057 24.683-3.294 30.21-11.683-10.505-18.209-25.527-31.03-34.825 11.462 1.7 23.291.285 34.251 4.453.024.051.05.104.073.162zm-72.84 87.518a25.264 25.264 0 0 1 -2.538-10.2c4.025-.017 8.336.474 11.474 3.24a72.174 72.174 0 0 0 1.274 12.569c-4.118 1.173-8.302-2.073-10.21-5.613zm32.543 11.973c-4.461 5.152-10.7 1.744-13.418-3.414-2.161-4.1-2.593-8.979-2.749-13.717 5.113-.748 9.643 1.355 13.774 4.128a56.758 56.758 0 0 0 2.562 12.846c-.055.052-.116.092-.169.153zm14.285 2.434c-6.771 4.353-9.2-7.761-10.161-16.673a24.173 24.173 0 0 1 13.276-1.536c-.712 5.263 1.9 14.609-3.115 18.205zm181.876 128.875c-44.491 20.237-96 24.568-144.043 18.074 3.927-26.387 7.423-25.029 32.587-26.452 15.879-1.908 33.193-5.118 47.931-11.175 17.949-5.522 34.848-12.06 50.385-23.239 3.727 14.612 9.107 28.216 13.14 42.792zm12.042-90.429c-4.442 1.27-8.5 3.416-10.722 7.255-14.172-8.226-22.114-21.233-29.08-35.6 4.1-2.038 8.894-4.4 12.654-7.446 5.826 14.099 15.66 26.054 27.148 35.788zm-27.727-48.73c-31.427 22.909-70.672 31.9-109.118 31.127-4.767-16.769-11.541-32.974-15.646-49.947 44.231 6.106 91.2 8.05 134.18-5.876a117.712 117.712 0 0 0 -9.416 24.693zm23.4-43.437a66.631 66.631 0 0 0 -7.362 8.3c-43.664 18.118-96.275 15.621-142.335 9.257-1.194-5.569-1.019-11.359-1.368-17.083 9.117-.24 20.559-8.522 16.715-18.307-2.3-4.9-8.591-6.786-11.954-10.884 29.18 10.238 60.68 15.235 91.332 10.473 10.78-1.952 24.988-3.205 32.2-12.736 5.922-3.943 12.179-2.741 18.63-1.737 8.237.477 16.9-5.944 24.142-9.134q9.928-4.373 20.214-7.871c-1.047 10.287-1.864 20.719-2.267 31.035-14.151 3.046-26.995 8.302-37.947 18.683zm51.434 15.5c-.747-22.732.29-45.64-1.518-68.35 6.389-1.9 12.857-3.356 19.319-4.883a466.9 466.9 0 0 0 -1.686 62.7c-6.415 1.319-11.906 5.369-16.115 10.529zm22.818-39.904c1.158-15.76-1.24-32.981 18.385-37.073q9.094.667 18.193 1.295c-1.722 10.38-1.721 21.679 1.685 31.727q-19.172 1.7-38.265 4.165c.002-.038.002-.076.002-.114zm146.943 51.093c-.429 1.971-5.365 17.867-7.961 12.461-.779-8.713-.653-17.961-1.689-26.765-.134-2.957-3.678-4.336-5.546-6.27-4.03-4.946-8.389-9.947-6.578-16.019a72.285 72.285 0 0 1 19.845-3.575 80.269 80.269 0 0 1 1.928 40.168zm-4.43-47.418c-7.568.825-16.817 2.046-23.082 6.365-.04 0-.08.014-.12.019-.849-4.7-2.449-9.351-5.57-12.589a66.2 66.2 0 0 1 17.667-13.7 82.29 82.29 0 0 1 11.104 19.905zm-17.077-26.795c.417.423.814.862 1.22 1.294-7.02 4.006-13.7 8.669-18.3 15.628-8.187-3.286-18.77-.737-27.349-.649-.408-9.323 3.971-18.024 9.211-25.543 12.342 1.011 25.807-.665 35.218 9.27zm-43.455-9.755c-4.277 8.1-8.963 17.008-9.147 26.419-9.451.481-18.9 1.088-28.327 1.874-1.829-10.418-2.693-20.158-.672-30.7q19.065 1.282 38.146 2.407zm-100.068-7.049c.506.042 1.012.081 1.518.123-20.151 5.04-39.411 13.724-58.884 21.412a27.293 27.293 0 0 1 -9.044-.551c-13.688-3.913-17.543 1.181-25.167 11.307-39.187 15.333-82.81 4.906-119.591-12.267-3.6-9.27-7.308-19.156-15.773-25.095 11.187 3.069 22.97 3.253 34.544 3.406 17.065 1.287 33.951 4.53 51.129 3.843 22.212-.7 44.206-5.308 65.855-10.014 25.051 3.376 50.224 5.767 75.413 7.836zm-133.355-171.318c14.948-1.45 29.727-1.117 44.679-.215a56.574 56.574 0 0 1 2.4 11.029c-28.089 1.3-55.139 9.813-81.475 19.071a125.806 125.806 0 0 1 -.951-23.422c11.707-2.563 23.262-5.291 35.347-6.463zm41.442 42.126c1.68 17.709-14.207 14.045-16.711-.08 1.438-16.319 15.368-16.854 16.711.08zm-39.313-6.167c2.045 4.479 1.739 13.436-3.013 16.125-5.742 3.25-9-5.744-9.026-10.127a12.226 12.226 0 0 1 3.116-8.6c3.183-1.847 7.082-1.425 8.921 2.602zm-35.131 31.1c.033-1.353.081-2.717.127-4.1 26.434.883 52.8.438 79.177-1.022-.353 6.821-.906 13.612-1.923 20.281-26.454 2.44-53.119-4.859-77.383-15.164zm7.244 44.445c12.579 3.951 24.431 8.892 36.924 12.681a68.732 68.732 0 0 0 2.132 10.027c-13.482-.582-27.065 1.521-40.214 4.1 1.674-8.894 1.522-17.838 1.158-26.808zm31.082-3.9a195.95 195.95 0 0 1 -27.306-13.6c-7.42-3.155-10.245-11.827-10.844-19.086 24.771 9.371 50.393 16.556 76.833 14.186a30.189 30.189 0 0 0 .564 4.727c-8.278 12.77-25.024 17.611-39.245 13.771zm26.376 49.807a41.037 41.037 0 0 0 6.221 2.473c-15.593 3.156-59.362 10.946-72.574 3.411-1.663-3.022 1.237-7.727 2.78-9.939a54.529 54.529 0 0 0 3.058-7.537c14.761-3.574 29.855-3.754 44.917-4.347a33.947 33.947 0 0 0 15.6 15.937zm-7.5-42.159c9.2-1.656 17.818-6.037 23.6-13.013a26.751 26.751 0 0 0 6.128 6.947c-.034 5.856-.073 11.988-4.047 16.661-8.704-3.411-17.062-6.791-25.679-10.597zm53.074 6.856c-5.828 6.685-13.411 10-21.732 6 3.639-3.744 4.173-9.367 4.649-14.73 5.485 3.264 11.302 6.012 17.085 8.728zm-36.622-131.1c.145.237.268.482.408.721-15.94-1.238-32.079-.284-47.875 1.75 7.813-7.095 16.907-12.822 24.532-20.178a42.022 42.022 0 0 1 22.935 17.707zm-31.746-19.781c-9.133 8.352-18.779 15.65-27.835 23.994-5.207.873-10.4 1.942-15.469 3.306a71.007 71.007 0 0 1 5.785-18.346c10.471-7.814 24.433-10.839 37.519-8.954zm-121.934 192.427c8.055 3.467 16.849 7.267 21.818 14.845-14.61-2.075-28.889-.307-42.958-5-6.409-3.865-13.777-7.468-20.987-8.7 12.54-10.39 28.444-7.352 42.127-1.145zm-47.956 7.144c10.528 1.18 20.891 7.014 29.439 12.854 13.011 8.326 22.305 20.578 28.463 34.544q-.4 2.172-.784 4.349c-22.814-10.23-46.729-18.708-71.584-22.289 3.209-10.465 7.844-20.685 14.466-29.458z" fill="#3a3245"/></g></svg>