<svg height="512" viewBox="0 0 500 500" width="512" xmlns="http://www.w3.org/2000/svg"><g id="Layer_4" data-name="Layer 4"><path d="m18.819 217.985s-15.89 18.231-6.22 53.661c0 0 18.28 27.839 54.13 46.693l37.621 56.172a54 54 0 0 0 15.282 19.912s24.752 22.931 32.533 40.314c0 0 49.575 45.388 51.794-14.107 0 0-133.943-190.085-185.14-202.645z" fill="#db9377"/><path d="m352.272 46.816s13.648 33.444 55.09 53.493 75.5 60.181 75.5 60.181 15.573-47.7-7.579-74.429-53.452-50.769-53.452-50.769-56.244 6.775-69.559 11.524z" fill="#db9377"/><path d="m22.883 201.883s-11.509 2.917-6.977 13.217l28.323 28.08s115.36 104.193 146.047 197c0 0 8.016 20.758 67.507 20.758 0 0 46.449-6.231 70.807 4.3l122.921-3.37s24.891 4.213 23.775-13.318c0 0-3.551-90.829 7.579-141.131l-5.3-32.741s18.891-51.548 6.613-92.9l-32.667-71.778-14.728-23.94s-12.672-12.238-61.565-22.272l-66.418-8.334s-29.579-7.05-62.958 29.329c0 0-33.076 28.57-69.6 39.232l-82.723 31.921s-10.419 2.23-17.693 13.864a16.472 16.472 0 0 1 -5.883 5.66z" fill="#ffd7b2"/><path d="m143.942 232.975a147.685 147.685 0 0 0 144.812-176.226c-11.456 2.977-26.736 10.408-42.908 28.034 0 0-33.076 28.57-69.6 39.232l-82.727 31.921s-10.419 2.23-17.693 13.864a16.472 16.472 0 0 1 -5.883 5.66l-28.563 16.04a147.081 147.081 0 0 0 102.562 41.475z" fill="#ffeee3"/><g fill="#db9377"><path d="m250.192 217.926c12.93-6.239 28.021-5.309 42.333-4.183-4.053-4.036-10.152-5.009-15.82-5.778-5.453-.74-11.006-1.479-16.431-.559-6.614 1.121-41.459 2.536-31.55 14.235a11.406 11.406 0 0 0 6.083 3.687l10.926 2.692s.525-.112.395-.318a6.386 6.386 0 0 1 .658-7.475 10.8 10.8 0 0 1 3.406-2.301z"/><path d="m421.04 254.642c-.936-2.15-3.849-2.265-6.168-2.606a1.777 1.777 0 0 1 -1.436-.763 1.6 1.6 0 0 1 -.068-.942c.442-2.8 2.933-5.1 2.825-7.93a4.689 4.689 0 0 0 -5.171-4.273l-1.062.545a9.24 9.24 0 0 1 -1.955 5.833c-1.185 1.724-2.632 3.27-3.674 5.084a1.168 1.168 0 0 0 -.2 1.027 1.143 1.143 0 0 0 .652.5c1.385.571 2.892.838 4.221 1.527a4.056 4.056 0 0 1 2.45 3.477 4.263 4.263 0 0 1 -1.036 2.368c-1.688 2.156-4.192 3.49-6.647 4.7a170.809 170.809 0 0 1 -30.837 11.669 7.358 7.358 0 0 0 5.674 2.647 21.789 21.789 0 0 0 6.368-1.023l15.918-4.209c4.332-1.145 8.733-2.319 12.558-4.652s7.065-6.029 7.763-10.455a4.562 4.562 0 0 0 -.175-2.524z"/><path d="m380.449 319.237a2.6 2.6 0 0 0 -1.629-1.072 18.07 18.07 0 0 0 -5.5-.45c-7.48.16-26.807 2.7-26.807 2.7a123.428 123.428 0 0 0 32.13 7.207 31.065 31.065 0 0 0 1.918-6.477 2.884 2.884 0 0 0 -.112-1.908z"/><path d="m407.409 237.211c-7.15-.815-13.872 3.438-19.3 8.16s-10.485 10.235-17.188 12.856c-4.253 1.663-8.914 2.044-13.2 3.609a25.415 25.415 0 0 0 -12.27 9.6c-.817 1.214-1.555 2.678-1.16 4.087.655 2.342 3.681 2.791 5.876 3.84 3.156 1.509 5.036 4.863 5.986 8.229s1.171 6.9 2.1 10.277c1.519 5.528 4.85 10.354 8.124 15.06 1.175 1.69 2.445 3.46 4.332 4.282s4.55.221 5.209-1.729c-4.319-3.243-8.892-6.84-10.432-12.018-2.011-6.762 1.624-14.849-2.25-20.745-1.754-2.671-4.984-4.789-4.912-7.984.076-3.383 3.793-5.342 7-6.409 8.611-2.861 18.29-5.057 23.772-12.288 1.956-2.58 3.212-5.631 5.136-8.235a19.843 19.843 0 0 1 15.39-7.917z"/><path d="m278.124 410.3-2.07-14.64c-.349-2.465-.785-5.113-2.539-6.881-.534-.538-1.386-.98-2.017-.56a1.716 1.716 0 0 0 -.534.686 7.722 7.722 0 0 0 -.82 3.947l-.2 1.754c-.653 8.524-1.258 17.4 1.893 25.344a1.39 1.39 0 0 0 .572.793 1.432 1.432 0 0 0 1.23-.187 9.694 9.694 0 0 0 3.486-2.45c1.675-2.121 1.375-5.13.999-7.806z"/><path d="m238.673 389.375c-.525-1.592-1.473-3.374-3.138-3.564a3.2 3.2 0 0 0 -2.926 1.656 8.346 8.346 0 0 0 -.956 3.392l-.386 2.358a58.092 58.092 0 0 0 .3 21.2 5.34 5.34 0 0 0 1.675 3.421 3.583 3.583 0 0 0 4.092-.223 7.407 7.407 0 0 0 2.4-3.587c1.42-3.914 1.316-8.2 1.019-12.355a50.656 50.656 0 0 0 -2.08-12.298z"/><path d="m312.473 330.769q-.048-3.45-.1-6.9c-.092-6.673-.215-13.514-2.648-19.728s-7.708-11.765-14.334-12.559c-1.644-.2-3.533-.2-4.618-1.447a6.981 6.981 0 0 1 -.912-1.634c-1.735-3.636-5.983-6.383-9.8-5.1-4.151 1.395-5.677 7.113-3.582 10.959a16.389 16.389 0 0 1 1.964 3.693 9.331 9.331 0 0 1 .123 2.609 65.337 65.337 0 0 0 5.244 28.323c1.295 3.012 2.854 6.1 2.647 9.369-.233 3.695-2.762 6.946-5.883 8.938s-6.789 2.919-10.41 3.694a168.053 168.053 0 0 1 -20 3.038l.2 1.728c1.128 2.515 4.418 3.022 7.171 3.14q10.022.429 20.058.141c4.439-.128 9.238-.5 12.6-3.4a14.255 14.255 0 0 0 4.256-8.118 70.982 70.982 0 0 0 .81-9.294 70.08 70.08 0 0 1 2.324-13.884 8.128 8.128 0 0 1 1.478-3.272 3 3 0 0 1 3.236-1.017c1.359.548 1.82 2.213 2.04 3.662a50.222 50.222 0 0 1 .541 9.282c-.1 2.808-.221 6.114 1.993 7.843a2.223 2.223 0 0 0 1.1.5 2.463 2.463 0 0 0 1.836-.781c2.577-2.354 2.714-6.296 2.666-9.785z"/><path d="m264.517 287.689a4.116 4.116 0 0 0 -2.427-2.872 8.1 8.1 0 0 0 -3.832-.551s-8.819 10.167-10.67 14.425a1.286 1.286 0 0 0 -.123 1.049 1.23 1.23 0 0 0 .781.531 11.309 11.309 0 0 0 9.6-1.593 17.3 17.3 0 0 0 6.094-7.834 5.737 5.737 0 0 0 .577-3.155z"/><path d="m319.292 226.159c-.774-5.332-4.8-9.746-9.5-12.366s-10.081-3.733-15.359-4.811c2.843 1.636 5.745 3.32 7.874 5.815s3.372 6 2.341 9.116a9.657 9.657 0 0 1 -5.254 5.407 27.385 27.385 0 0 1 -7.482 1.922 98.676 98.676 0 0 1 -17.479 1.526c-3.292-.08-6.569-.449-9.842-.817-8.362-.942-30.251-7.961-30.251-7.961 3.911 5.421 10.7 7.8 17.08 9.795 4.572 1.431 9.161 2.828 13.831 3.9 16.608 3.794 34.707 3.178 49.848-4.63 1.558-.8 3.175-1.781 3.888-3.382a6.386 6.386 0 0 0 .305-3.514z"/><path d="m299.88 255.543a6.441 6.441 0 0 0 -3.915-3.893 18.949 18.949 0 0 0 -5.6-1.027c-14.088-1.135-28.745-2.043-41.9 3.132l-1.839 1.884a202.643 202.643 0 0 0 27.209 7.447c6.1 1.3 12.453 2.472 18.538 1.082a11.75 11.75 0 0 0 5.695-2.787 6.06 6.06 0 0 0 1.812-5.838z"/><path d="m199.718 281.563a58.8 58.8 0 0 0 -24.657-45.64 51.387 51.387 0 0 1 -6.781-5.06 17.864 17.864 0 0 1 -4.465-7.209c-.96-2.96-1.134-6.14-2.207-9.06a17.058 17.058 0 0 0 -12.03-10.463c-8.75-2-16.127 6.252-16.127 6.252l5.629-.7a17.122 17.122 0 0 1 5.2-.114c4.169.767 7.171 4.5 8.916 8.359s2.634 8.1 4.7 11.805c5.774 10.364 19.2 14.228 25.9 24.019a36.379 36.379 0 0 1 3.214 6.05 80.986 80.986 0 0 1 4.086 11.766 13.986 13.986 0 0 1 .53 6.82 7.7 7.7 0 0 1 -3.587 4.776 6.186 6.186 0 0 1 6.12 1.036 18.22 18.22 0 0 1 4.106 5.016c1.393-2.24 1.535-5.016 1.453-7.653z"/><path d="m172.716 292.438c-1.093-.858-2.461-1.449-3.08-2.781a6.465 6.465 0 0 1 -.38-2.868 87.408 87.408 0 0 1 2.144-17.269c.466-2.05 1.078-4.2 2.519-5.553l.006-.136a4.171 4.171 0 0 0 -2.988-2.1c-1.187-2.228-5.365-7.932-6.644-10-2.212-3.575-5.876-5.947-8.934-8.832-7.171-6.763-11.022-16.508-12.135-26.3-.315-2.772-.121-6.163 2.312-7.527l-2.521-1.513c-2.925 0-6.281.207-8.071 2.519a8.592 8.592 0 0 0 -1.389 4.907 36.719 36.719 0 0 0 7.662 24.179c2.256 2.887 4.933 5.415 7.351 8.167 1.851 2.106 3.548 4.341 5.243 6.574a108.643 108.643 0 0 0 -3.367 11.541c-.462 2.553-.754 5.14-1.377 7.659-.613 2.478-1.541 4.864-2.337 7.289-1.492 4.54-3.2 14.724-3.008 15.031.242.381 4.186.8 5.687.727a4.318 4.318 0 0 0 1.942-.434 3.376 3.376 0 0 0 1.484-2.638 18.531 18.531 0 0 0 -.141-3.137c-.337-5.212 2.16-10.12 3.877-15.054a52.383 52.383 0 0 0 2.78-13.683c8.34 9.475 2.278 34.6 2.278 34.6a3.47 3.47 0 0 0 1.452.738l6.19 1.975c1.666.532 3.756.93 4.87-.568 1.233-1.651.145-4.281-1.425-5.513z"/><path d="m161.968 342.1a3.928 3.928 0 0 0 -3.576-1.631c-1.372.1-4.733 3.554-4.733 3.554a4.646 4.646 0 0 0 2.9 4.712 3.222 3.222 0 0 0 1.542.215 3.889 3.889 0 0 0 1.34-.487 6.092 6.092 0 0 0 2.667-2.68 3.9 3.9 0 0 0 -.14-3.683z"/><path d="m96.652 220.927c-.6-2.6-2.357-5.462-5.021-5.387a7.686 7.686 0 0 0 -2.194.528c-11.419 3.832-23.973 1.612-35.837 3.707l-1.989 1.11c2.091 2.352 5.186 3.54 8.235 4.317a44.4 44.4 0 0 0 9.791 1.354 55.5 55.5 0 0 1 8.151.356 10.214 10.214 0 0 1 6.888 3.96c.623.934 1.019 2 1.655 2.93 1.63 2.371 5.339 3.381 7.489 1.469a6.749 6.749 0 0 0 1.51-2.2 18.766 18.766 0 0 0 1.322-12.144z"/><path d="m224.5 441.26c-.7-1.377-2.5-1.553-3.932-2.127-31.433-12.6-23.627-48.628-23.466-55.146q.336-13.524.67-27.05c.127-5.1.249-10.24-.729-15.243s-3.162-9.922-6.981-13.3c-5.8-5.127-14.189-5.863-21.928-5.777a88.139 88.139 0 0 0 -23.524 2.99s17.576.2 24.2 1.231 13.219 4.553 16.238 10.537c1.883 3.733 2.22 8.031 2.457 12.206q1.082 19.051.324 38.148c-.246 6.2-.679 12.534-2.533 18.411-1.808-3.313-3.529-6.678-5.256-10.027q-3.379-6.554-6.853-13.066c3.169-6.79 5.51-13.96 5.769-21.406a21.309 21.309 0 0 0 -1.766-10.144 11.154 11.154 0 0 0 -7.793-6.29s2.454 18.389 1.8 22.883a26.8 26.8 0 0 1 -2.134 7.352 371.121 371.121 0 0 0 -25.425-40.531c-4.972-6.776-10.238-13.45-15.722-20.014a24.813 24.813 0 0 1 -5.372-11.4c-5.463-29.589-6.781-58.8-10.731-89.858-.708-5.572-1.988-11.892-6.84-14.721l-1.17 8.44c-.119 23.273 2.841 57.965 4.751 79.862-.812-.878-1.657-1.73-2.5-2.561l-3.83-3.878c-2.038-2.11-4.347-4.176-5.6-6.871-1.479-3.169-1.338-6.816-1.36-10.313-.016-2.524-.133-5.048-.331-7.565-.371-4.709-1.173-9.72-4.378-13.19-3.739-4.049-9.7-4.934-15.177-5.579 0 0 7 7.01 8.473 10.437a46.413 46.413 0 0 1 2.708 10.832c.546 3.291 1.042 6.885-.61 9.783q-6.015-5.552-11.679-11.467a15.713 15.713 0 0 1 -2.363-2.915c-1.224-2.121-1.418-4.657-1.728-7.086-.465-3.645-1.409-7.524-4.2-9.916-3.087-2.649-7.686-2.751-11.59-1.609a62.608 62.608 0 0 1 6.045 11.549c-13.618-11.58-27.389-21.52-40.95-33.7l1.088-2.162a25.668 25.668 0 0 0 -4.074 4.663l27.739 27.5s109.43 100.845 146.047 197c0 0 1.872 4.843 10.51 9.851 3.053.3 6.129.44 9.145.523 5.972.163 13.719-1.156 14.787-7.034a3.583 3.583 0 0 0 -.226-2.252z"/><path d="m409.481 88.276c-1.506-1.762-4.244-2.047-6.407-1.214l-.043 2.018a73.874 73.874 0 0 0 .076 11.741 4.069 4.069 0 0 0 .734 2.372 2.791 2.791 0 0 0 1.605.847 4.281 4.281 0 0 0 4.171-1.648c.984-1.353 1.07-3.138 1.118-4.81l.092-3.152c.062-2.15.052-4.519-1.346-6.154z"/><path d="m411.179 120.854a6.425 6.425 0 0 0 -2.746-4.523c-1.721-1.018-3.841-.733-5.771-.316l-.192 7.411q.121 2.966.244 5.932a5.081 5.081 0 0 0 .908 3.282 3.786 3.786 0 0 0 3.1.891 4.052 4.052 0 0 0 2.254-.668 5.331 5.331 0 0 0 1.542-3.447q.262-1.509.484-3.025a17.916 17.916 0 0 0 .177-5.537z"/><path d="m409.474 148.228a4.823 4.823 0 0 0 -4.078-1.569c-.754.084-1.611.5-1.676 1.258l-.939 5.01a34.685 34.685 0 0 0 .675 8.107 2.821 2.821 0 0 0 .635 1.488 2.2 2.2 0 0 0 1.2.547 4.4 4.4 0 0 0 3.816-1.229c1.328-1.348 1.628-3.377 1.787-5.262a31.881 31.881 0 0 0 .138-3.3 7.751 7.751 0 0 0 -1.558-5.05z"/><path d="m390.074 150.875c-8.041-11-11.491-25.019-11.928-38.8a16.242 16.242 0 0 1 .919-7.1 27.757 27.757 0 0 1 2.762-4.255c3.462-5.078 4.623-12.214 1.548-17.552a12.514 12.514 0 0 0 -9.623-6.192 12.36 12.36 0 0 0 -10.448 4.54s-3.169 6.507-1.919 10.384a12.583 12.583 0 0 0 8.237 8.134 1.1 1.1 0 0 1 1.034 1.24c.671 9.639-.9 19.411.468 28.955-1.922 1.718-3.09 4.226-4.152 6.625l-4.4 9.948a51.658 51.658 0 0 0 -3.938 11.13.766.766 0 0 0 .746 1.07 26.785 26.785 0 0 0 10.3.232 1.714 1.714 0 0 0 .912-.355c.539-.507.256-1.392 0-2.085a16.535 16.535 0 0 1 .618-11.95 27.342 27.342 0 0 1 2.447-4.55 127.073 127.073 0 0 0 5.5 12.885c.874 1.832 1.781 3.773 1.639 5.811s-1.779 4.114-3.742 3.883a61.837 61.837 0 0 0 14.946-.449 2.711 2.711 0 0 0 1.522-.576 2.376 2.376 0 0 0 .6-1.326c.62-3.559-1.939-6.762-4.048-9.647z"/><path d="m340.59 103.745c-.23-1.9-2.016-3.152-3.4-4.476a13.857 13.857 0 0 1 -2.694-3.568 5.036 5.036 0 0 1 -.7-3.46c.646-2.633 4.519-3.754 4.6-6.465.059-2.022-2.09-3.347-4.022-3.949a21.742 21.742 0 0 0 -5.46-.962s-4.445.387-4.937 1.74a10.189 10.189 0 0 0 -.335 4.272 49.941 49.941 0 0 0 3.49 14.811 3.221 3.221 0 0 1 .355 2 2.765 2.765 0 0 1 -1.352 1.48c-3.02 1.857-6.683 2.259-10.21 2.616a98.252 98.252 0 0 0 17.068 1.013 11.756 11.756 0 0 0 5.039-.937 4.35 4.35 0 0 0 2.558-4.115z"/><path d="m319.008 103.409a21.438 21.438 0 0 1 -1.949-9.608c.254-3.288 1.912-6.613 4.825-8.16a12.85 12.85 0 0 0 -4.447-2.05 4.745 4.745 0 0 0 -2.947.035 4.007 4.007 0 0 0 -2.092 2.529 15.377 15.377 0 0 0 -.518 3.337 34.446 34.446 0 0 1 -1.954 8.547 14.767 14.767 0 0 0 -1 3.364 3.892 3.892 0 0 0 .963 3.258c1.206 1.16 3.118 1.018 4.777.8 1.4-.186 6.168.724 6.168.724a6.151 6.151 0 0 1 -1.826-2.776z"/><path d="m354.749 124.734a2.278 2.278 0 0 0 -1.034-1.81 2.221 2.221 0 0 0 -.847-.143 44.123 44.123 0 0 0 -7.671.809c-.655.1-1.313.164-1.969.244a7.505 7.505 0 0 1 1.446 3.764c.352 3.551-1.586 7.044-4.321 9.336a25.187 25.187 0 0 1 -9.62 4.509 30.334 30.334 0 0 1 -4.035.881c-3.51.472-6.912-.8-10.388-1.473-17.01-3.307-7.21-15.851-6.648-16.141-7.687-.3-9.729-1.045-17.228.607l-.749 2.611a27.744 27.744 0 0 0 11.2 16.428 39.093 39.093 0 0 0 18.961 6.71c8.1.785 16.663-.593 23.322-5.277s11.008-13.04 9.581-21.055z"/><path d="m321.5 154.871a11.946 11.946 0 0 0 -4.141-1.555 60.134 60.134 0 0 0 -11.025-1.443c-6.676-.251-13.762.53-19.675-2.582-5.3-2.787-8.7-8.338-10.249-14.119s-1.49-11.855-1.41-17.839l.285-22.365c.039-3.08.035-6.333-1.519-8.992s-5.248-4.323-7.82-2.63c0 0 1.987 38 5.363 56.458a63.847 63.847 0 0 0 4.153 14.98 7.911 7.911 0 0 0 2.506 3.446 8.831 8.831 0 0 0 4.443 1.106c11.432.762 22.885 1.151 34.335 1.54a15.554 15.554 0 0 0 5.573-.486 2.23 2.23 0 0 0 .96-.551 1.905 1.905 0 0 0 .415-1.3 4.661 4.661 0 0 0 -2.194-3.668z"/><path d="m254.687 76.25c-8.693 6-17.1 13.8-19.387 24.114a45.908 45.908 0 0 0 -.78 5.456c-.177 1.79-.229 3.868 1.11 5.068 1.75 1.569 4.745.389 5.938-1.636s1.168-4.506 1.336-6.85a37.029 37.029 0 0 1 14.83-26.834z"/><path d="m242.97 128.61a9.71 9.71 0 0 0 -.851-4.509 5.4 5.4 0 0 0 -7.646-1.673l-.871 3.863a39.155 39.155 0 0 0 .492 8.056c.242 1.459.7 3.087 2.012 3.768a3.41 3.41 0 0 0 2.875-.031 6.528 6.528 0 0 0 3.407-4.064 16.447 16.447 0 0 0 .582-5.41z"/><path d="m242.094 155.205a5.664 5.664 0 0 0 -7.66-1.547l-.166.8a3.1 3.1 0 0 0 -.123 3.27 5.209 5.209 0 0 0 2.585 2.2 5.454 5.454 0 0 0 3.526.391 3.357 3.357 0 0 0 2.455-2.4 3.7 3.7 0 0 0 -.617-2.714z"/><path d="m214.233 107.388a37.6 37.6 0 0 0 -13.175 6.035 5.548 5.548 0 0 0 -1.391 1.288 5.735 5.735 0 0 0 -.756 2.09c-2.921 13.638-1.518 27.788-.008 41.653a2.947 2.947 0 0 0 .552 1.69c.7.786 2.011.579 2.917.037a7.479 7.479 0 0 0 3.186-4.935 24.776 24.776 0 0 0 .253-6.021 141.037 141.037 0 0 1 1.481-25.437 32.995 32.995 0 0 1 1.321-5.972c1.555-4.48 4.765-8.217 8.383-11.282z"/><path d="m182.849 151.781c-1.459-2.084-1.628-4.781-1.677-7.324q-.058-3.089.02-6.178a30.911 30.911 0 0 1 .687-6.542 17.693 17.693 0 0 1 10.434-12.031l-4.156.39a32.879 32.879 0 0 0 -10.639 4.671 11.744 11.744 0 0 0 -3.553 3.355 12.833 12.833 0 0 0 -1.537 5.121 61.574 61.574 0 0 0 1.215 23.05 7.866 7.866 0 0 0 1.718 3.739c1.237 1.26 3.108 1.6 4.852 1.881a11.893 11.893 0 0 0 4.238.165 4.045 4.045 0 0 0 3.161-2.549c.458-1.524-.37-3.151-1.441-4.329a37.571 37.571 0 0 1 -3.322-3.419z"/><path d="m155.212 132.825a49.072 49.072 0 0 0 -8.154 4.859 3.6 3.6 0 0 0 -1.1 1.106 3.674 3.674 0 0 0 -.332 1.393 101.342 101.342 0 0 0 -.18 18.26c.147 1.828.464 3.873 1.941 4.961 1.977 1.455 4.992.209 6.26-1.894s1.275-4.7 1.246-7.156l-.1-8.1a29.853 29.853 0 0 1 .617-7.947 10.06 10.06 0 0 1 4.485-6.359z"/><path d="m477.568 274.673s18.891-51.548 6.613-92.9l-32.67-71.773-14.728-23.94s-3.117-3-12.195-7.253a64.021 64.021 0 0 1 8.2 31.255c-.031 8.048-1.592 16.055-1.269 24.1.188 4.684.45 10.415.628 16.889a24.391 24.391 0 0 1 -24.19 25.049l-326.221 2.618 315.488 16.3a29.825 29.825 0 0 1 23.189 13.047 8.376 8.376 0 0 1 -2.571 11.843 14.752 14.752 0 0 1 -3.852 1.79 17.181 17.181 0 0 1 -5.075.211c-10.3-.662-20.465-2.72-30.762-3.35a63.448 63.448 0 0 0 -31.076 6.4c15.308-.61 49.532 7.429 69.328 8.032a5.935 5.935 0 0 1 5.429 7.917 240.829 240.829 0 0 1 -23.489 47.614c4.8.23 9 1.447 11.484 4.365 4.764 5.59 2.221 9.608-1.4 12.2a13.638 13.638 0 0 1 -11.881 1.784l-.119-.036a13.2 13.2 0 0 0 -14.148 4.711c-5.919 7.731-12.146 15.169-18.557 22.287a4.636 4.636 0 0 0 .171 6.405 12.633 12.633 0 0 0 4.122 3.065 10.5 10.5 0 0 0 5.917-.472 32.356 32.356 0 0 0 6.209-2.722c3.991-2.239 9.4-4.5 14.009-2.7 4.306 1.685 6.735 6.434 10.907 8.428a9.978 9.978 0 0 0 7.685.32c-2.939 1.472-5.421 4.18-8.684 4.239-1.957.035-3.772-.92-5.555-1.727-6.077-2.751-13.314-3.936-19.361-1.119-2.479 1.155-4.731 2.959-7.435 3.37-3.944.6-7.636-1.9-10.758-4.383l-.052-.041a7.247 7.247 0 0 0 -9.668.591c-8.421 8.553-16.612 16.763-24.6 24.468a544.774 544.774 0 0 1 -.317 58.339c-3-12.179-6.565-41.365-6.824-43.489a3.73 3.73 0 0 0 -6.221-2.295q-5.826 5.31-11.51 10.144l.289 13.274a19.242 19.242 0 0 1 -1.007 6.826 4.4 4.4 0 0 1 -1.526 2.244 1.84 1.84 0 0 1 -1.3.36c-1.088-.175-1.49-1.506-1.656-2.6q-.585-3.832-1.046-7.684a3.752 3.752 0 0 0 -5.98-2.574c-18.979 14.43-36.851 23.659-53.993 24.72a13.947 13.947 0 0 1 -14.84-13.31c-1.349-32.56-4.762-122.439-3.618-173.293.334-14.813.777-29.74-1.726-44.344-.587-3.424-2.691-7.765-6.076-6.978l.306 247c-3.274 3.286-6.286 7.048-9.4 10.381-.278.3-.572.575-.855.865 8.874 5.614 26.006 11.788 58.451 11.788 0 0 46.449-6.231 70.807 4.3l122.921-3.37s24.891 4.213 23.775-13.318c0 0-3.551-90.829 7.579-141.131z"/></g></g><g id="Layer_5" fill="#3a3245" data-name="Layer 5"><path d="m490.959 114.361c-2.77-24.729-20.626-43.26-38.6-58.829q-7.344-6.6-14.7-13.19c-4.362-3.905-8.744-8.883-14.69-10.213-6.133-1.371-13.452.33-19.614.974-21.678 2.242-43.186 5.834-64.627 9.691-23.958 3.786-48.45 8.708-70.389 19.251-10.412 4.56-17.47 13.432-25.813 20.782-17.787 15.669-39.283 26.561-61.024 35.632-23.847 9.951-48.279 18.622-72.6 27.332-10.8 3.868-21.644 7.259-29.985 15.525-9.316 11.029-21.938 17.878-34.628 24.333a98.356 98.356 0 0 0 -15.369 8.243c-3.312 2.118-15.739 4.976-15.919 8.118-2 24.964-14.7 51.987.665 75.16 13.427 21.8 37.873 33.679 54.752 52.438 17.309 19.237 25.753 44.259 44.293 62.471 9.2 9.032 17.888 17.732 25.45 28.234 7.153 9.934 14.28 19.808 24.3 27.082 48.352 33.124 110.117 6.574 163.582 18.714 40.815 5.136 82.247-.053 123.286.3 18.758.468 31.67-.919 29.217-24.1.672-40.377-1.618-81.368 3.876-121.434 1.2-5.859 2.34-11.692 2.138-17.7-3.655-26.115-2.123-30.906 4.482-55.926a457.569 457.569 0 0 0 4.773-50.315c.171-14.183-2.006-28.251-2.057-42.427-.049-13.39 1.054-26.826-.799-40.146zm-23.021-33.392c8.423 10.225 15.728 22.43 14.857 36.037-.18 4.719.066 14.717-4.3 17.7-14.938 9.032-23.172-24.968-27.612-34.935-2.716-8.108-5.925-17.54-1.933-25.728 1.527-3.131-2.933-5.841-4.722-2.76-2.912 5.014-3.387 10.611-2.7 16.166-23.313-30.839-87.7-17.883-80.106-38.089 12.949-5.316 25.368-5.17 38.7-6.77 7.233-.631 14.636-1.372 21.718.677 8.2 2.68 14.605 8.362 21.23 13.588 8.586 7.705 17.379 15.303 24.868 24.114zm-441.212 202.252c-9.826-10.869-15.316-23.962-13.909-38.743 1.4-5.193.6-15.637 8.37-14.843 12.8 9.15 25.366 19.278 33.509 33.052 4.21 8.822 23.093 45.7 2.811 44.707a17.647 17.647 0 0 1 -5.433-2.213c-8.819-6.871-17.846-13.638-25.348-21.96zm97.93 110.191c10.265 2.651 19.407 7.66 27.76 14.077 2.825 1.837 5.16-2.058 3.342-4.332-5.216-6.527-13.507-10.614-21.247-13.352-8.572-3.032-17.372-4.636-23.788-11.671-12.63-18.434-31.077-47.848-16.393-69.286 15.554 5.753 26.708 20.253 36.056 33.491 18.338 27.4 36.089 55.2 49.764 85.214 6.389 19.512-14.9 12.305-22.872 5.43-11.286-12.773-20.073-27.859-32.622-39.571zm250.581 67.305c-.546-9.478 10.966-14.308 5.72-23.885a154.794 154.794 0 0 1 16.531-.388c-5.808 8.182 5.683 15.066 4.832 23.485-9.014.164-18.039.542-27.083.788zm95.336-7c-2.866 7.965-23.8 4.537-31.21 5.473q-14.613.289-29.228.587a20.269 20.269 0 0 0 -3.469-12.974c-1.268-1.9-3.188-3.623-2.863-5.975.967-4.186 7.353-10.041-.5-11.828a145.868 145.868 0 0 0 -28.643.783c-3.183.409-5.175 3.922-2.7 6.527 8.211 7.79-4.9 12.437-3.284 24.557a274.909 274.909 0 0 1 -31.823-.988c-3.65-1.65-4.9-5.526-6.225-8.962 1.166-75.746-.267-151.541.177-227.306-.009-9.589.323-19.043-1.367-28.508-.355-1.99-3.667-1.992-4.023 0-2.926 16.383-1.371 33.861-1.385 50.471-.086 60.876.132 121.749-.059 182.626-2.033 7.535 2.281 27.016-6.695 28.7-3.9-.646-7.772-1.156-11.655-1.516 13.425-15.415-.368-16.893-13.505-16.158-17.867-.637-35.767-.542-53.615.539-4.754.291-4.82 7.659 0 7.453 21.561-1.115 42.788-.741 64.378-.124-5.883 9.867-22.684 5.779-31.835 9.056-21.522 1.882-58.467 4.872-58.037-25.739.7-60.257-.047-120.513.185-180.772q-.007-14.426-.025-28.85c-.3-4.65 3.08-39.754-6.279-28.616-2.187 16.275-.12 33.094-.783 49.507.285 66.558-.692 133.13.47 199.679-9-8.073-16-18.1-22.162-28.435 10.176-12.979 8.265-48.451 7.191-65.092-1.493-29.8-25.957-24.185-47.851-23.835a3.1 3.1 0 0 0 0 6.2c19.64 1.522 41.378-7.052 40.851 21.488a222 222 0 0 1 -.3 30.906c-.493 6.208-.279 16.756-4.014 23.159-4.271-7.691-8.269-15.551-12.473-23.235 8.271-5.922 10.977-31.351 3.319-38.318a2.665 2.665 0 0 0 -4.5 1.861c1.425 9.568 3.65 21.3-2.667 29.624a469.606 469.606 0 0 0 -48.818-69.842 80.364 80.364 0 0 1 -4.078-19q-1.891-29-2.653-58.053c-.253-8.833.155-17.906-.871-26.683a3.385 3.385 0 0 0 -6.766 0c-1.078 30.119 1.174 60.393 2.8 90.481q-5.932-6.548-12.1-12.874c-.6-15.341 2.715-37.783-15.762-43.726-1.936-.549-4.172 1.857-2.823 3.672 13.02 10.984 10.523 16.256 10.58 32.073q-8.55-8.331-17.518-16.218a54.43 54.43 0 0 0 -1.526-10.047c-1.35-5.7-5.015-8.436-8.308-12.918a3.183 3.183 0 0 0 -5.492 3.21c1.988 4.528 6 7.046 6.633 12.339-12.46-10.437-27.376-19.8-34.389-35.038 2.514-13.881 19.538-18.728 30.54-25.162a37.39 37.39 0 0 1 18.562-6.096c47.743-1.943 95.607-.864 143.377-1.358 71.149.033 142.233-.154 213.389.276 8.239 2.865 11.152 12 10.658 19.935-.024 7.837-.549 16.12.4 23.9a3.221 3.221 0 0 0 6.437 0c.983-13.259.468-26.351.478-39.782a9.5 9.5 0 0 1 3.4-4.547c2.431-.1 4.86-.222 7.286-.368a2.744 2.744 0 0 0 0-5.485c-48.927-1.792-97.981-.03-146.941-.592q-110.936.019-221.862-.113c-3.551-.167-7.464-3.672-5.743-7.123a41.564 41.564 0 0 1 9.846-7.489c15.225-6.922 31.5-11.4 47.055-17.548 4.63 5.132 2.157 12.948 3.025 19.224a3.8 3.8 0 0 0 7.594 0c.478-7.709.443-15.528.331-23.255 6.012-2.229 12.028-4.471 18.019-6.781-.012 5.242-.33 10.29.149 15.446-1.4 10.142-.22 19.6 12.341 18.848 5.119-.241 5.056-7.532 0-7.909-7.267-2.719-3.167-16.964-4.617-23.585.487-6.084 6.528-8.752 11.52-10.653 2.492.892 4.609 1.655 4.977 5.239.429 5.26.51 10.547.83 15.83-.124 5.919-.244 12.059.959 17.7.872 4.085 6.253 2.592 6.691-.905.876-6.981-.124-14.466-.1-21.518-.1-7.437.82-15.025.057-22.411a227.225 227.225 0 0 0 28.414-15.951c.243 3.608-.585 12.365 5.09 11.225a3.852 3.852 0 0 0 3.431-3.606c-.528-8.437 5.179-15.112 9.46-21.857 13.7-13.889 25.571-22.926 46.108-22.733 25.208-.463 50.453 1.664 75.48 4.545 60.785 6.5 68.475 14.17 89.153 70.522 12.108 26.143 24.5 53.39 25.48 82.631-3.689-.162-9.622.428-13.423-.94-5.973-3.012-4.575-12.369-1.708-17.588a3.589 3.589 0 0 0 3.227-3.525c-.432-5.1-8.04-4.026-11.165-2.227-3.961 3.358-2.856 10.244-2.4 14.893.274 15.866 12.013 17.782 25.491 16.86a95.282 95.282 0 0 1 -2.276 18.129c-2.308 8.232-3.236 17.251-8.542 24.23-3.249 4.771-7.794 4.815-12.822 6.118-2.369.613-3.054 4.3-.713 5.454 4.979 2.45 11.072.713 15.494-2.558.273 11.1 3.588 22.249 1.3 33.309-3.289-1-7.234-.4-10.581-.134-3.362.267-8.714.061-9.827 4.034-6.22 13.167-3.06 43.871 15.8 44.035-.129 8.144-.093 16.3-.129 24.418-2.732.283-5.5-.209-8.195.385l.045.025c-3.447.844-3.353 5.738-.044 6.732 2.544.926 5.453.6 8.128.662q-.175 13.744-.353 27.489a83.456 83.456 0 0 0 -15.646 1.935c-3.121.585-2.719 4.31-.571 5.675.656 3.952-.817 8.178.03 12.021a2.739 2.739 0 0 0 4.544 1.2c2.843-3.787 2.372-7 3.038-12.266 2.7-.377 6 .066 8.5-.485-.414 7.492 1.446 16.938-.781 24.279zm1.63-100.07c-13.288-3.035-11.319-21.721-10.276-32.37 4.706-.219 8.806-.281 13.359-.233a231.668 231.668 0 0 0 -3.086 32.598z"/><path d="m164.59 420.63c3.559 0 3.565-5.531 0-5.531s-3.565 5.531 0 5.531z"/><path d="m445.66 238.276c-3.394-3.457-8.713 1.893-5.27 5.271 3.393 3.453 8.71-1.893 5.27-5.271z"/><path d="m445.992 306.251c0-16.446.693-33.108-.472-49.521a2.885 2.885 0 0 0 -5.766 0c-1.485 32.295-.007 64.733-.465 97.06q.006 23.77.081 47.54c.042 16.442-.691 33.124.627 49.521a2.642 2.642 0 0 0 5.281 0c1.751-48.132.175-96.425.714-144.6z"/><path d="m90.731 210.621c-2.309-1.287-4.5 1.557-4.636 3.637-4.262-.706-7.8-3.191-11.168-5.733-2.2-1.568-5.171 1.515-3.7 3.7a19.933 19.933 0 0 0 3.5 3.834c-6.545.092-12.064-3.782-16.522-8.217-1.781-1.567-5.548-.089-4.452 2.592a17.641 17.641 0 0 0 3.786 5.59c-1.894-.075-3.789-.17-5.686-.312-4.712-.354-4.464 6.615 0 7.2 11.245 1.48 22.725.647 34.032.2-.059 1.728-.108 3.456-.071 5.178.107 4.921 7.283 4.849 7.594 0-.29-4.679 1.405-14.945-2.677-17.669z"/><path d="m190.7 258.572c-6.208-15.8-25.821-18.388-32.149-33.034-1.97-7.9-1.888-17.784-11.282-20.817-4.55-2.782-25.351.285-19.544 8.115 5.562 4.93.989 16.1 10.025 27 3.718 6.027 10.218 10.484 10.337 18.147-.049 4.717-2.154 9.485-3.538 13.926-1.353 3.851-4.434 14.654-5.52 18.511a43.578 43.578 0 0 1 -4.854.377c-4.888.253-4.945 7.525 0 7.639 4.515.105 9.632 1.012 13.962-.393 3.944-1.406 2.1-6.187-1.447-6.5 3.252-10.758 6.907-20.652 8.286-32.048 8.1 10.333 3.531 24.538.311 35.932-.634 2.558 1.147 4.338 3.209 5.041 3.026.451 6 .5 8.991 1.252 4.535 1.135 6.464-5.984 1.925-6.982a41.48 41.48 0 0 0 -5.909-.921c2.061-6.938 3.544-21.827 3.658-22.289 1.452-5.911 6.434-1.358 8.026 1.593 3.993 8.316 7.617 16.834 11.594 25.167 1.727 3.691 8.031 1.077 6.631-2.8a34.384 34.384 0 0 1 -1.524-5.815c-.229-1.31.092-4.938-1.032-5.973a3.275 3.275 0 0 0 .594.43 39.409 39.409 0 0 0 3.015 6.2c1.959 3.213 7.887 1.107 6.354-2.679-3.858-9.517-5.852-19.751-10.119-29.079zm-4.661 20.83c-3.5-8.8-9.741-22.481-21.079-15.832-8.65-21.979-26.42-18.557-26.7-50 3.675-1.776 8.1-2.9 10.542 1.267 2.389 4.083 1.629 9.589 3.275 13.99 2.817 7.532 9.544 12.467 16 16.741 12.556 7.293 18.049 17.7 21.059 31.592a6.439 6.439 0 0 0 -3.101 2.24z"/><path d="m152.356 344.585c1.581 5.075 9.374 2.18 7.271-2.678-1.827-4.479-8.687-1.94-7.271 2.678z"/><path d="m310.294 217.336c-3.082-5.943-12.653-9.4-18.691-11.318-15.689-5.041-32.627-3.356-48.339.705-6.176 1.795-19.162 3.671-20.456 11.309a2.7 2.7 0 0 0 .63 3.562c14.5 11.656 33.791 15.06 51.963 15.016 8.677-.021 17.738-.527 25.816-3.965 5.647-2.375 14.363-8.787 9.077-15.309zm-43.98 11.692a82.03 82.03 0 0 1 -35.908-10.661c17-7.187 36.707-10.787 54.928-6.724 24.593 13.503-6.28 19.521-19.02 17.385z"/><path d="m273.11 258c6.6.07 15.044 3.833 19.358-3.168a3.844 3.844 0 0 0 -2.277-5.6c-12.327-2.833-35.823-6.77-46.391.884-1.535 2.039-1.174 5.862 1.847 6.308 9.221 1.364 18.175 1.476 27.463 1.576z"/><path d="m302.131 301.1a20.5 20.5 0 0 0 -14.131-5.9c3.395-6.4-5.065-13.08-10.816-9.166-3.487 2.482-5.391 7.468-3.125 11.258q-10.608.083-21.2.738c2.982-3.484 6.183-6.748 9.462-10.037 2.559-2.566-.95-7.558-4.014-5.2a82.346 82.346 0 0 0 -16.418 17.594c-1.556 2.164.509 5.665 3.127 5.451 9.671-.79 19.67-1.589 29.539-1.5.425 11.073 2.276 22.8 7.691 32.528.308 7.368-18.242 1.789-22.447.961-3.345-.9-6.821-2.552-10.307-2.12-1.859.23-3.065 2.325-1.591 3.841 6.949 5.684 18.056 6.938 26.812 8.083-8.837 2.119-18.2 1.508-27 3.245a3.413 3.413 0 0 0 0 6.524c5.654 1.819 12.6.3 18.379-.469 5.736-.763 12.4-1.115 17.822-3.195 8.2-3.254 7.512-13.305 7.278-20.96a162.636 162.636 0 0 0 1.258-26.5c10.682 4.567 7.506 21.068 9 30.714.319 4.7 7.192 4.775 7.358 0-.222-10.456.18-27.652-6.677-35.89zm-16.791 3.756a167.532 167.532 0 0 1 -.475 20.8 104.186 104.186 0 0 1 -3.673-21.1q2.082.111 4.148.3z"/><path d="m234.53 385.937a2.475 2.475 0 0 0 -2.963-.382c-4.286 2.583-3.593 8.77-3.808 13.268-.241 5.039-1.3 12.135 1.665 16.465 8.434 6.653 6.081-11.279 6.2-15.531.165-4.538 2.239-10.215-1.094-13.82z"/><path d="m273.887 389.316c-.114-4.649-6.622-4.457-7.087 0-.923 8.832-.953 17.887-1.068 26.762a3.763 3.763 0 0 0 1.9 3.316c8.126 3.175 5.727-9.429 5.964-13.831.113-5.41.425-10.838.291-16.247z"/><path d="m303.345 388.021c-6.1-1.564-5.305 8.471-5.064 12.364-.02 5.487-.808 11.684.612 17.008a3.5 3.5 0 0 0 6.69 0c1.408-5.339.6-11.513.568-17.008-.028-4.385 1.284-9.639-2.806-12.364z"/><path d="m345.132 225.442c15.3-1.588 31.361-2.675 46.928-.976 8.979.655 21.755 4.413 29.692.123 5.67-3.716 4.343-14.342 3.533-19.935-.7-4.852-8.1-2.8-7.383 2.036.334 3.966 2.685 13.893-4.611 12.245-6.8-.208-12.44-1.05-18.945-1.629-15.128-.512-38.436-22.81-50.222-12.664-3.211 5.615 6.333 4.056 9.329 4.547 6.083.956 11.457 4.195 16.805 7.053-6.491.821-23.442-.978-27.087 4.379-1.241 1.948.087 4.086 1.961 4.821z"/><path d="m344.43 281.53c15.162.8 4.11 20.8 16.379 31.576l-13.809 1.519c-4.845.534-5.031 8.092 0 7.733a244.963 244.963 0 0 1 29.321-.34 3.946 3.946 0 0 0 3.719-2.832c3.306-9.109 14.248-11.483 21.4-5.231a2.49 2.49 0 0 0 .36.671 37.746 37.746 0 0 1 -5.328.239c-5.073 0-5.06 7.728 0 7.87a118.163 118.163 0 0 0 24.262-1.881 3.841 3.841 0 0 0 2.746-2.747c1.6-6.814 3.083-14.847-.914-21.15a15.013 15.013 0 0 0 3.63-7.314c.685-3.659-4.224-6.195-6.268-2.642-1.577 2.74-5.181 2.4-8.086 2.071a56.068 56.068 0 0 0 -20.083-3.1c-9.187 1.193-8.062-4.075-12.606-9.817 5.544-1.41 11.048-4 16.014-5.733 9.463-3.3 18.867-6.082 23.875-15.507 2.472-5.157-4.6-6.594-8.176-7.262 15.6-19.653-11.462-14.027-21.232-7.69-6.56 4.189-10.8 11.43-18.147 14.336-10.524 3.56-25.139 4.369-29.381 16.625-1.697 3.385-3.174 9.967 2.324 10.606zm33.853-22.6c8.912-6.234 14.888-16.045 26.884-16.708a21.9 21.9 0 0 1 -8.393 6.439c-4.094 1.871-1.179 8.393 3.028 7.183a21.847 21.847 0 0 1 9.628-.641c-4.274 4.225-10.463 5.776-16.314 7.778-7.623 1.937-15.094 6.812-23.079 6.427a25.469 25.469 0 0 0 -2.568-.91c-4.755-1.252-7.123 6.369-2.065 7.492 7.13 1.559 9.245 7.617 12.175 13.34 3.2 4.375 8.583 4.551 13.528 4.437 13.186-.269 30.722 2.327 25.341 19.853q-2.874.437-5.755.72c-6.182-15.916-29.949-14.688-36.76-.117-.394-.016-.787-.027-1.18-.04-3.345-3.681-7.8-6.778-9.789-11.542-2.145-4.824-.93-10.305-1.968-15.381a16.835 16.835 0 0 0 -12.996-13.095c2.141-11.275 22.35-10.598 30.283-15.237z"/><path d="m411.7 341.22c-18.775 14.341-13.493-9.2-34.422 3.842-2.192 1.317-4.719 3.272-7.337 3.53-3.1.306-4.463-1.249-6.313-3.455-6.137-7.317-14.572-4.708-20.032 2.161a2.931 2.931 0 0 0 4.143 4.143c1.724-1.386 3.642-3.4 5.848-4.018 6.541-1.628 5.765 13.688 22.024 6.963 3.953-1.721 8.054-5.879 12.506-6.021 3.868-.124 6.66 4 10.3 4.979 5.925 1.651 11.11-2.357 15.976-5.1 4.584-2.4 7.289-.867 9.733 3.546 2.362 4.263 8.961.427 6.544-3.825-4.233-7.436-11.005-10.687-18.97-6.745z"/><path d="m419.508 370.5c-.012 6.732 1 18.34-7.893 19.394-8.047 1.064-16.631.443-24.746.623-14.522.507-32.758 4.193-29.969-16.944 2.635.016 5.314-.161 7.783-.3 4.923-.282 5.009-7.7 0-7.719-4.5.25-9.633-.123-13.918 1.08a2.909 2.909 0 0 0 -2.34 2.492c-1.614 7.8-2.849 16.029-8.224 22.276-1.868 2.172-.866 6.754 2.641 6.375 5.373-.581 10.3 2.941 10.573 8.573.177 3.713 5.269 5.456 7.235 1.96a11.951 11.951 0 0 0 1.56-5.354c6.628-5.936 16.8-3.767 24.659-4.619l17.795-.381c19.352 1.755 23.85-10.513 22.7-27.455-.311-5.026-8.178-5.06-7.856-.001z"/><path d="m462 255.321 8.288-.3c5.1-.187 5.106-8.181 0-7.938l-8.288.395c-5.017.237-5.063 8.028 0 7.843z"/><path d="m453.622 155.092c-12.858.266-19.043-7-19.6-19.437-.122-7.5.13-15.131-.61-22.6a3.588 3.588 0 0 0 -7.172 0c-1.032 13.828-.428 28.394.152 42.25.189 4.507 1.9 6.979 6.556 7.643a85.312 85.312 0 0 0 20.673.062c4.995-.51 5.187-7.681.001-7.918z"/><path d="m399.954 89.8c.388 4.52-3.387 15.36 4.494 14.226 5.052-2.031 2.38-9.867 3.253-14.225.146-5.01-7.48-4.959-7.747-.001z"/><path d="m399.954 118.728c.388 4.519-3.387 15.359 4.494 14.226 5.052-2.031 2.38-9.867 3.253-14.226.146-5.004-7.48-4.953-7.747 0z"/><path d="m399.954 149.752c.388 4.519-3.387 15.359 4.494 14.226 5.052-2.031 2.38-9.867 3.253-14.226.146-5.005-7.48-4.952-7.747 0z"/><path d="m376.4 131.369c-2.5-9.69-1.122-19.781-2.248-29.581 9.549-3.97 9.2-19.49-.19-23.52-16.361-6.24-21.907 17.485-7.515 23.478-2.087 17.664-.358 37.809-12.357 52.1a14.523 14.523 0 0 1 -3.294 2.709 2.593 2.593 0 0 0 .565 4.828c2.427 3.04 34.054 2.569 36.778.8 2.358-.982 2.807-4.586 1.023-6.325-6.869-6.702-10.772-15.181-12.762-24.489zm1.835 23.868q-7.821-.37-15.639-.209a55.145 55.145 0 0 0 7.362-17.624 53.017 53.017 0 0 0 8.274 17.833zm-7.379-69.937c5.9 4.056.71 15.048-5.31 5.318-.402-3.445 1.615-7.242 5.31-5.318z"/><path d="m302.583 108.542c4.737.223 39.43 5.55 31.25-5.655a16.532 16.532 0 0 1 -6.133-15.014 10.789 10.789 0 0 0 4.5-1.346c2.8-1.661 1.658-6.252-1.68-6.2-8.762.13-17.381-1.064-26.116-1.352-2.481-.174-4.237 3.448-2.34 5.081l-.061.008c1.313 1.273 3.475 1.924 5.813 2.284 1.377 6.441-.5 12.167-7.152 15.094-3.873 1.7-1.342 6.741 1.919 7.1zm13.648-21.549c1.16.107 2.415.284 3.712.458a24.236 24.236 0 0 0 3.111 14.705c-3.671.025-7.334-.143-11-.41a17.356 17.356 0 0 0 2.839-14.846c.476.025.93.055 1.338.093z"/><path d="m347.872 121.01a6.164 6.164 0 0 0 -2.712-.417c-9.753 1.086-19.405 2.338-29.266 2.337a96.5 96.5 0 0 1 -15.355-1.15c-2.921-.469-6.98-2.357-9.408.142-2.066 1.808-2.1 4.523-.695 6.77 10.872 25.94 57.611 27.638 58.709-4.605a2.83 2.83 0 0 0 -1.273-3.077zm-24.838 9.421c6.245.964 2.835 8.057-2.065 7.008-3.888-1.293-3.086-6.009.36-7.3.324-.01.65-.012.974-.024a3.886 3.886 0 0 0 .731.316zm-23.734-1.671a90.4 90.4 0 0 0 12.964 1.363 9.718 9.718 0 0 0 .564 9.012 28.709 28.709 0 0 1 -13.528-10.375zm32.943 9.628a9.858 9.858 0 0 0 .731-8.943c2.64-.232 5.413-.427 8.015-.739a15.815 15.815 0 0 1 -8.75 9.682z"/><path d="m306.015 154.026c-6.488.138-14.065 1.3-20.394-.4-13.166-3.981-13.848-26.526-14.889-38.052-.254-9.846.188-20.025-1.016-29.795-.553-4.485-6.732-4.65-7.11 0-.727 23.077.589 46.429 1.044 69.522.62 10.323 10.38 8.907 18.356 9.069 11.786.239 23.571-.058 35.335-.8 3.179-.2 5.547-4.337 2.8-6.767-4.05-3.593-9.041-2.885-14.126-2.777z"/><path d="m238.292 135.725a89.514 89.514 0 0 0 -.062-11.037 3.827 3.827 0 0 0 -7.648 0 89.5 89.5 0 0 0 -.181 11.037c.104 5.082 7.732 5.075 7.891 0z"/><path d="m239.263 154.929a3.918 3.918 0 0 0 -6.55-1.653l.023-.03c-5.01 6.527 7.649 9.905 6.527 1.683z"/></g></svg>