<svg height="512" viewBox="0 0 500 500" width="512" xmlns="http://www.w3.org/2000/svg"><g id="Layer_4" data-name="Layer 4"><path d="m12.421 416.582s53.711-37.313 142.856-26.739 152.3 48.544 256.055 38.226c0 0 9.4 47.374-89.1 54.226.004.005-202.477 53.118-309.811-65.713z" fill="#ffdbb8"/><path d="m19.762 402.73c1.072-3.064 150.878-211.53 150.878-211.53l78.272 211.53-44.83-4.333s-60.9-16.816-132.79-4.826z" fill="#fccfa2"/><path d="m339.9 277.341c3.747 1.343 65.715 127.615 65.715 127.615h-133.394l-1.2-34.9z" fill="#fccfa2"/><ellipse cx="266.913" cy="103.639" fill="#fc7084" rx="50.539" ry="49.636"/><path d="m71.292 393.571c71.894-11.99 132.79 4.826 132.79 4.826l44.83 4.333-56.674-153.162c.033 3-.027 6-.2 9-1.492 25.434-11.083 50.741-28.73 69.117s-43.626 29.148-68.938 26.245c-6.546-.751-13.1-2.42-18.709-5.875a38.114 38.114 0 0 1 -10.451-9.734c-25.193 35.289-45.057 63.295-45.445 64.4z" fill="#e59173"/><path d="m357.237 308.386c-.7 16.082-6.081 32.3-17.768 43.217-9.217 8.609-21.67 13.263-34.222 14.493a95.038 95.038 0 0 1 -29.638-2.218l-4.59 6.178 1.2 34.9h133.391s-28.853-58.793-48.373-96.57z" fill="#e59173"/><path d="m115.95 267.411a74.067 74.067 0 0 0 7.853.424 73.258 73.258 0 0 0 62.341-34.735l-15.5-41.9s-25.028 34.823-54.694 76.211z" fill="#fff5ee"/><path d="m320.062 484.862c98.493-6.852 89.1-54.226 89.1-54.226-75.051 7.464-128.862-10.336-186.621-24.758q11.193 7.419 21.644 15.884c4.152 3.372 8.418 7.184 9.814 12.347 1.709 6.322-1.514 13.192-6.489 17.45s-11.413 6.365-17.765 7.957c-48.926 12.266-101.751-.964-144.862-27.15-13.3-8.08-26.45-18.188-34.226-31.321-26.1 8.165-40.409 18.1-40.409 18.1 107.333 118.835 309.814 65.717 309.814 65.717z" fill="#eab386"/></g><g id="Layer_5" fill="#3a3245" data-name="Layer 5"><path d="m348.222 480.843c3.918 2.355 7.516-3.814 3.556-6.085-3.918-2.358-7.516 3.814-3.556 6.085z"/><path d="m491.884 421.077c-35.684 3.823-45.938-17.567-66.095-41.077-28.451-34.22-55.874-69.28-84.089-103.689-3.791-3.81-6.455 2.1-8.36 5.017q-16.272 23.364-32.543 46.729-62.889-69.891-125.782-139.779c-1.567-1.741-4.035-.944-5.229.673-54.259 73.926-109.295 147.302-162.844 221.736a3.948 3.948 0 0 0 -1.032 5.1c79.527 89.6 216.018 90.678 325.588 70.423 5-.945 2.886-8.582-2.105-7.641-104.178 19.425-229.463 18.68-310.368-59.459 78.108-39.079 143.266-29.568 223.521-5.272 52.91 12.881 107.267 19.9 161.479 24.527a60.573 60.573 0 0 1 -33.319 30.466c-1.451.4-2.9.814-4.353 1.213-4.908 1.353-2.824 9 2.106 7.639 9.991-1.211 147.109-45.256 123.425-56.606zm-339.059-35.077c-.427-5.187 1.094-10.87.436-15.935h40.764c6.1 4.075 7.574 17.3 10.165 24.279-17.206-2.126-34.02-7.267-51.365-8.344zm-74.792-61.582q2.408-3.267 4.819-6.531c7.567.563 15.239.571 22.9.463-1.559 3.949-2.916 8-4.47 11.959-.59 1.573-1.421 5.684-3.057 6.844-1.417.089-2.829.207-4.225.394a2.736 2.736 0 0 0 0 5.469c11.178 1.211 22.6.14 33.834.438-.463 3.63-1.144 7.192-1.615 10.816-.455 3.559 5.7 4.418 6.307.854.586-3.869 1.145-7.8 1.637-11.669h40.753c.607 6.742 1.469 13.43 1.874 20.2-34.8-.055-69.571.14-104.376-.185 2.512-4.047 4.114-9.575 5.2-12.323 1.489-3.77-4.566-5.369-6.057-1.669-2.579 4.922-2.77 12.463-9.034 14.011q-3.236.027-6.468.1c3.191-15.073 13.053-27.098 21.978-39.171zm23.332-31.62c10.652.977 21.45.011 32.116.279a148.686 148.686 0 0 0 -3.5 18.864c-14.2.174-28.5-.611-42.739 0q7.058-9.577 14.123-19.141zm18.241-24.721a36.839 36.839 0 0 0 7.376.643 58.773 58.773 0 0 0 -5.875 12.033c-1.059 2.97 3.165 4.256 4.77 2.01a84.239 84.239 0 0 0 7.29-14.189c7.38-.145 14.732-.017 22.11-.053a109.272 109.272 0 0 0 -1.888 17.988c-15.814.2-31.526-.157-47.357-.036zm18.61-25.22c3.5.331 7.064.41 10.636.391-3.136 5.953-5.192 12.913-7.483 19.245-5.838.147-11.628-.368-17.566-.1q7.208-9.769 14.413-19.536zm31.851 13.692c.657 1.905 3.691 2.768 4.712.615 1.5-4.409.9-9.423 1.283-14.1 2.755.007 5.509-.007 8.261-.06l5.76 20.02c-14.228-.707-28.453-.514-42.7-.536 2.581-6.325 5.456-12.795 7.04-19.329 5.39-.155 10.626-.18 15.981-.123.021 4.582-1.23 9.12-.337 13.513zm154.13 49.68c8.678 1 17.373.217 26.055.691q4.151 7.591 8.127 15.276c-6.012-.152-12.066.045-18.054.123-.525-3.285.978-7.558-1.51-10.173-6.008-3.2-4.939 6.83-5.162 10.207-6.941.039-13.786-.008-20.751.095zm-208.348 30.882c-3.391 0-6.846-.109-10.3-.132 1.96-5.929 5.784-12.3 6.733-18.73 14-.2 27.963-.05 41.959-.09-.129 4.041-.593 8.162-.341 12.213.2 3.019 5.076 4.158 5.647.765a116.352 116.352 0 0 0 .972-12.976l29.557.007c.515 6.643 2.521 12.46 3.136 18.912-25.787.061-51.574.008-77.363.031zm32.46-44.026c8.257 0 16.589.218 24.917.285.526 4.064.9 8.155 1.214 12.238.315 4.059 6.722 4.052 6.344 0-.37-3.963-.56-8.218-1.332-12.223 6.418-.023 12.823-.188 19.176-.666l5.526 19.2q-33.763.017-67.527.018a155.26 155.26 0 0 0 3.054-18.859zm12.08-16.523c.237-2.614.935-5.4.731-8.039 10.123-.033 20.247.006 30.36-.643l5.445 18.923c-12.3-.818-24.772-.553-37.162-.37.198-3.291.327-6.583.626-9.871zm176.762 52.369c8.158.019 16.483.448 24.682.023q3.444 6.82 6.747 13.71c-3.544-.108-7.1-.113-10.653-.082-1.466-3.106-1.066-9.667-5.542-9.691-4.455 1.026-1.732 6.7-1.237 9.774-9.654.133-19.262.137-28.912.076.68-4.654 2.079-9.19 2.647-13.851 4.089.026 8.179.031 12.268.041zm-129.651 50.689c-.8-2.895-1.288-6.55-2.65-9.491 5.371.067 10.759.156 16.147.183 4.141 9.564 1.132 20.805-9.964 23.259-1.161-4.655-2.262-9.326-3.533-13.951zm-7.588-42.561c-1.367-6.494-1.932-12.168-3.124-18.89 3.058.007 6.113-.013 9.171.018l5.421 18.84q-5.735.011-11.47.032zm109.417-6.052a31.846 31.846 0 0 1 9.452-2.153c-1.2 4.568-2.067 9.153-3.051 13.759a34.188 34.188 0 0 0 -8.471.9 2.631 2.631 0 0 0 0 5.033c8.747 1.8 18.08.32 26.974.747-.851 5.3-.742 10.785-.814 16.159-15.854.159-31.631-.291-47.5.052 6.268-11.2 13.736-21.76 20.24-32.842a26.7 26.7 0 0 1 3.168-1.655zm62.392 18.26q3.872 8.271 7.536 16.639c-13.092-.6-26.2-.508-39.31-.464-.215-5.331.346-10.883.083-16.139 10.516-.036 21.15.47 31.689-.036zm9.952 22.172c12.978 27.968 8.221 22.879-18.1 23.294-6.846-2.28-5.736-11.454-7.183-17.147-.675-3.381-6.259-2.649-6.046.818a130.949 130.949 0 0 0 1.469 16.325l-43.695-.016c1.247-7.583 3.517-14.969 4.128-22.7 23.14-.153 46.307.529 69.425-.574zm-78.689 16.177c-.517 2.333-1.167 4.693-1.8 7.066-11.173-.049-19.2-12.373-17.2-22.841 7.339.527 14.85.128 22.153.164-1.367 5.095-2.037 10.548-3.155 15.611zm-119.484-23.957a122.549 122.549 0 0 0 -1.989-20.2c10.575.008 21.156.061 31.737.077l5.721 19.88c-11.869.154-23.631.299-35.469.243zm154.831-77.73q4.175 7.091 8.193 14.269c-6.111.219-11.908-.013-18.1-.047q4.957-7.111 9.911-14.222zm-254.356 101.861c-14.742 2.338-31.2 1.966-28.921-17.684 14.071.341 28.207-.029 42.268-.038-1.844 5.166-2.638 11.056-3.345 16.387-3.344.381-6.677.837-10.002 1.335zm23.093-2.525q-3.156.215-6.3.5c1.014-5.218 2.422-10.481 3-15.7h43.694a100.143 100.143 0 0 0 -1.345 15.369 276.838 276.838 0 0 0 -39.049-.169zm64.292-187.3 4.912 17.071c-3.48.712-12.729-1.483-13.686 2.366-.917 4.249-1.812 8.516-2.464 12.814-.471 3.1 3.835 4.468 4.806 1.325 1.059-3.426 1.955-6.906 2.811-10.39 3.4.042 6.875.164 10.357.221l4.491 15.608c-13.369.135-26.55-.255-39.957-.1q14.358-19.467 28.73-38.918z"/><path d="m103.677 419.755c-3.918-2.356-7.516 3.814-3.556 6.085 3.918 2.36 7.516-3.814 3.556-6.085z"/><path d="m126.364 411.371c.171-4.536-6.914-4.464-6.849 0-.067 4.44 6.927 4.436 6.849 0z"/><path d="m125.306 432.864c2.981 3.036 7.653-1.663 4.629-4.63-2.981-3.034-7.653 1.666-4.629 4.63z"/><path d="m180.918 450.529c-3.31-1.99-6.35 3.222-3 5.141 3.306 1.989 6.345-3.222 3-5.141z"/><path d="m189.916 462.185c-4.99-2.606-7.3 5.969-1.691 6.246 3.326.102 4.594-4.641 1.691-6.246z"/><path d="m258.342 451.613c3.529 0 3.535-5.484 0-5.484s-3.535 5.484 0 5.484z"/><path d="m276.367 434.078c-3.973-1.713-6.019 4.783-1.847 5.822 3.48.929 5.253-4.593 1.847-5.822z"/><path d="m281.6 458.51c4.243 0 4.25-6.593 0-6.593s-4.253 6.593 0 6.593z"/><path d="m75.188 340.918c.688 3.095 5.284 2.914 6-.062a3.055 3.055 0 0 0 -3.787-3.82h.006a3.153 3.153 0 0 0 -2.219 3.882z"/><path d="m320.174 103.242c-1.825-69.428-103.488-69.414-105.3 0 1.826 69.427 103.485 69.413 105.3 0zm-52.651 44.651c-58.879-1.548-58.867-87.764 0-89.3 58.877 1.545 58.866 87.761 0 89.3z"/><path d="m274.363 6.333c.039-4.3-6.726-4.31-6.687 0 .267 4.448-.487 9.121.624 13.456a2.847 2.847 0 0 0 5.439 0c1.108-4.333.361-9.011.624-13.456z"/><path d="m267.676 200.633c-.039 4.3 6.726 4.31 6.687 0-.267-4.448.487-9.121-.624-13.456a2.847 2.847 0 0 0 -5.439 0c-1.108 4.332-.359 9.011-.624 13.456z"/><path d="m354.714 100.763a2.848 2.848 0 0 0 0 5.44c4.332 1.108 9.011.358 13.455.624 4.3.039 4.311-6.727 0-6.688-2.28.021-11.369-.098-13.455.624z"/><path d="m173.87 100.139c-4.3-.039-4.311 6.727 0 6.688 4.447-.267 9.121.487 13.455-.624a2.847 2.847 0 0 0 0-5.44c-2.069-.717-11.175-.603-13.455-.624z"/><path d="m331.48 46.491c4.234-2.117 7.085-6.246 10.6-9.339 3.075-3.019-1.708-7.8-4.729-4.729-3.092 3.515-7.222 6.365-9.339 10.6-.786 1.884 1.588 4.254 3.468 3.468z"/><path d="m210.559 160.474c-4.234 2.118-7.085 6.247-10.6 9.34-3.075 3.019 1.708 7.805 4.729 4.729 3.092-3.515 7.222-6.365 9.339-10.6.786-1.884-1.583-4.254-3.468-3.469z"/><path d="m328.011 163.944c2.117 4.234 6.247 7.084 9.339 10.6 3.02 3.074 7.8-1.708 4.729-4.729-3.515-3.093-6.364-7.222-10.6-9.34-1.879-.786-4.253 1.584-3.468 3.469z"/><path d="m214.028 43.022c-2.117-4.234-6.247-7.084-9.339-10.6-3.02-3.075-7.805 1.708-4.729 4.729 3.514 3.093 6.364 7.222 10.6 9.34 1.884.786 4.253-1.584 3.468-3.469z"/></g></svg>