<svg height="512" viewBox="0 0 500 500" width="512" xmlns="http://www.w3.org/2000/svg"><g id="Layer_4" data-name="Layer 4"><path d="m189.175 13.482h69.225a9.575 9.575 0 0 1 9.575 9.575v25.1h7.034a9.575 9.575 0 0 1 9.575 9.576v27.633h4.492a9.576 9.576 0 0 1 9.576 9.576v64.025h11.848l15.305 42.9h8.252l23.643 66.07h11.941l22.487 63.639h14.953l35.819 88.678h14.26l24.69 65.066h-358.187l42.078-249.814 6.89-184.614z" fill="#d3e5dd"/><g fill="#8caa99"><path d="m467.057 446.336a351.017 351.017 0 0 0 -63.02-1.364c-3.023-.961-6.326 1.606-7.268 4.672-.963 3.13-.176 6.5.613 9.676.433 1.744 1.14 3.78 2.879 4.234.795.207 1.644.016 2.453.157a4.234 4.234 0 0 1 3.077 3.462 15.378 15.378 0 0 1 -.141 4.895 42.683 42.683 0 0 0 .539 13.252h75.661z"/><path d="m343.772 229.015c4.452 22.1-15.808 22.462-15.808 22.462-2 5.152-.73 19.091-.73 19.091 3.7.7 8.247-.46 12.053-1.617a61.841 61.841 0 0 1 17.787-2.768z"/><path d="m380.943 299.918c-11.238 17.653-30.977 16.9-30.977 16.9v14.753h42.164z"/><path d="m381.341 402.255v18.045l61.561-.049-20.902-51.757c-6.379 14.779-20.025 28.579-48.767 28.579z"/><path d="m168.3 358.434a135.18 135.18 0 0 1 42.6 9.449c6.507 2.6 15.532 47.17-42.642 44.13-10.3-.539-20.961 1.286-29.95 6.341l3.59 1.059h149.38v-64.394z"/><path d="m183.734 292.705h5.472c-3.342-.125-5.472 0-5.472 0z"/><path d="m259.151 269.322-53.716.016c5.7.192 23.671 2.454 23.671 23.367h-39.9a76.151 76.151 0 0 1 15.171 2.058c16.58 4.115 16.423 27.769-.144 31.934-10.826 2.722-25.8 4.879-46.088 4.879h104.023z"/><path d="m203.722 269.339h1.713c-1.073-.039-1.713 0-1.713 0z"/><path d="m199.554 260.539c-7.805.405-17.752-.392-30.373-3.3l14.313 12.084h58.92l-1.183-40.923h-52.056a72.456 72.456 0 0 1 12.813 1.474c17.858 3.679 15.773 29.726-2.434 30.665z"/><path d="m239.43 161.793h-5.616c-1.627 24.857-32.551 28.088-32.551 28.088l-1.977 11.983h38.234z"/><path d="m297.718 110.629-23.958 1.7v46.633h22.54v22.21h6.455v20.687h23.045l-15.305-42.9h-11.838v-46.86z"/><path d="m228.614 87.222a94.95 94.95 0 0 1 20.523-.022 13.34 13.34 0 0 1 5.937 1.674c2.8 1.822 3.964 5.358 4.222 8.684s-.193 6.693.275 10a4 4 0 0 0 .982 2.406 4.526 4.526 0 0 0 3.269.806l23.4-.38a68.925 68.925 0 0 0 11.438-.842v-14.6a9.575 9.575 0 0 0 -9.576-9.575h-4.492v-27.641a9.575 9.575 0 0 0 -9.575-9.576h-7.037v-25.1a9.575 9.575 0 0 0 -9.575-9.575h-19.893a22.712 22.712 0 0 1 2.73 6.613c1.282 5.309.959 10.857.629 16.309-.216 3.557-.77 7.694-3.848 9.489-3.137 1.83-7.414.24-10.589 2l1.878 13.572c.787 5.69 1.413 12.054-2.04 16.644a32.838 32.838 0 0 0 -3.092 3.905c-.787 1.465-.881 3.52.392 4.591 1.074.906 2.647.771 4.042.618z"/><path d="m341.862 473.721a31.57 31.57 0 0 0 -9.441 11.6h74.618l-1.27-14a11.053 11.053 0 0 0 -1.224-4.9c-.948-1.53-2.585-2.507-3.663-3.949-2.648-3.54-1.233-8.495-1.336-12.915s-4.337-9.683-8.058-7.3c2.989-12.275-9.026-23.686-8.626-36.312.048-1.5.253-3.106-.473-4.421-.7-1.263-2.081-1.948-3.2-2.859-2.974-2.421-4.036-6.421-5.006-10.131q-2.615-10.006-5.94-19.81c-2.688-7.926-5.718-15.73-8.746-23.531l-7.667-19.752q-2.456-6.324-4.883-12.66c-3.752-9.861-7.353-19.778-10.954-29.695l-17.3-47.636c-2.855-7.865-5.726-15.789-7.035-24.053-.424-2.682-.732-5.522-2.326-7.721-1.309-1.807-3.372-3-4.521-4.909-2.579-4.289.41-10.208-1.83-14.683-.949-1.895-2.723-3.257-3.791-5.087-1.215-2.084-1.418-4.585-1.592-6.991q-.481-6.646-.964-13.293h-20.621c4.269 3.906 2.449 21.749 2.449 21.749l7.9.706-.268 21.373 7.868.146.955 21.932 6.5.438.147 21.347 6.141.439v20.616h6.395l.482 23.1 7.564 1.316v20.177l11.588 1.41.584 20.376 7.641.146v21.024h6.25l1.76 20.5 7.108.293v22.955c.445 1.041 6.825.3 7.215 1.316l-.731 20.22h9.065l.605 21.045s4.261-.954 4.635 0l-.667 23.994c-14.242-1.346-23.857-.144-35.337 8.39z"/></g><path d="m229.117 13.482h-39.942l-6.326 14.3a26.419 26.419 0 0 0 46.268-14.3z" fill="#fff"/><path d="m263.606 156.247s2.7 26.781-24.176 24.93v-20.662z" fill="#fff"/><path d="m264.982 183.052s-.935 11.052-16.774 10.214v-10.214z" fill="#fff"/><path d="m233.814 86.8s14.333 53.347-57.8 62.7l13.466-62.7z" fill="#fff"/><path d="m212.8 48.209c.573.106-4.608 26-36.787 19.607.004 0-2.063-26.795 36.787-19.607z" fill="#fff"/><path d="m125.65 444.153h135.006l9.591-30.692h33.66l-5.723 71.859h-188.026z" fill="#8caa99"/></g><g id="Layer_5" fill="#3a3245" data-name="Layer 5"><path d="m461.262 418.9a3.761 3.761 0 0 0 -3.52-2.435c-.19.031-13.174-.11-12.786.149l-33.265-85.031a3.76 3.76 0 0 0 -3.5-2.39h-11.691l-22.116-62.347a3.761 3.761 0 0 0 -3.545-2.5h-11.132l-21.241-62.646c-.942-3.691-6.759-2.309-9.423-2.553l-14.42-40.947a3.761 3.761 0 0 0 -3.547-2.512h-9.646c.968-19.146.192-38.506.195-57.656 1.014-9.032-3.892-16.1-13.484-15.522-1.333-14.094 6.215-38.585-14.969-38.889-1.525-9.453 1.465-21.683-5.928-28.951-6.384-5.634-19.081-3.421-26.863-3.423l-40.288-.012c-24.989-1-29.335 2.335-37.567 25.657-11.253 17.885-5.115 30.415-9.314 48.519-3.483 2.4-5.706 6.289-5.908 11.691-.648 16.253-.233 32.516-1.87 48.7a10.645 10.645 0 0 1 -5.757 10.053c-4.55.245-123.133 325.968-125.508 328.245a3.794 3.794 0 0 0 3.523 5.085h464.608a3.793 3.793 0 0 0 3.519-5.087zm-204.804-329.5h24.752c.522 5.114-5.013 5.354-8.781 5.331-2.724-.634-5.124 4.547-1.294 5.442a17.007 17.007 0 0 0 10.4-.62 5.693 5.693 0 0 1 1.6 4.189c-6.662.1-13.24.2-19.879.169-.409-6.441-3.853-11.728-10.358-11.478-3.086-.214-7.166-1.029-10.078.181-1.894.786-2.662 3.437-.6 4.618 4.745 3.018 14.344-2 14.083 6.688-17.182.234-34.311-.329-51.5-.026.349-3.645-1.614-11.239 1.028-14.482h4.841c-1.117 13.378 11.493 11.5 20.587 10.684 4.067-.111 4.081-6.452 0-6.331-3.912.115-7.99.582-11.894.323-2.221-.147-2.607-2.393-2.9-4.677zm129.61 348.8h-48.849v-14.213h48.849zm-87.411-253.263v14.21h-47.582v-14.21zm-59.547-59.217c.323 9.979-1.174 20.052.32 29.964h-36.573c1.393-41.257-7.423-36.5 36.051-38.008-.027 2.781.234 5.618.202 8.044zm-89.249 290.745 6.793-51.99c39.462.285 78.726.592 118.209.366v51.624zm125-65.2h-116.482l1.9-14.555h114.584zm-38.83-144.6v14.21h-41.731l1.574-14.21zm-46.55 57.673 3.4-30.686c14.481-.249 28.613.029 43.152 0v30.681zm62.376 64.851h-79.226l4.359-31.44c25 .874 49.849-.576 74.869.554zm0-43.118h-73.247l1.971-14.211h71.278zm-25.428-86.928h-20.454l4.009-35.941h16.447zm-85.485 224.857h4.632c.14-.035 146.682 0 146.829-.012v14.212h-153.228zm48.2-341.5h-11.328c.1-2.408.233-4.824.455-7.225 5.233-.147 11.416.552 10.873 7.227zm188.89 333.965h-48.85v-14.21h48.85zm-7.878-21.732h-48.851v-14.21h48.851zm-56.884-21.733v-14.21h48.849v14.21zm41.33-21.732h-48.849v-14.208h48.847zm-8.034-21.827c-.14.279-48.64 0-48.85.1v-14.21h48.85zm-8.045-21.636h-48.851v-14.205h48.851zm-7.88-21.731h-48.849v-14.21h48.849zm-56.883-21.732v-14.209h48.849v14.209zm-7.519-21.731v-14.211h48.849v14.21zm40.816-21.732h-48.851v-14.21h48.851zm-63.5-43.463v-14.21h48.843v14.21zm34.469-21.732c1.152-14.406-.927-24.754.054-38.374 5.466.259 11.148.7 16.467.135-.164 12.761-.275 25.547.371 38.239zm-58.718-73.184h-23.185c.194-9.573-8-14.272-17.046-13.251 1.577-10.157 6.026-17.8 17.267-18.355-.33 10.3 2.831 20.048 14.477 21.6 6.951-.025 9.411 3.152 8.487 10.006zm125.43 377.426v-14.21h48.849v14.21zm115.754-21.726h-66.9v-14.213h48.74a3.763 3.763 0 0 0 1.824-.476c1.011.911 9.652.317 10.986.476zm-74.936-21.731v-17.975c-.065-4.346-4.845-3.818-7.878-3.761v-17.971c-.065-4.412-4.985-3.8-8.035-3.761v-9.669c15.532.96 31.068-.552 46.508.3l20.669 52.834zm25.759-65.2h-49.191v-14.555h43.5zm-57.225-22.076v-17.626c-.065-4.417-4.995-3.8-8.046-3.761v-8.859c10.669.623 21.179.406 31.764.04l10.715 30.206zm19.138-43.118h-35.063v-14.211h30.022zm-43.1-21.733v-17.97c-.065-4.184-4.526-3.868-7.519-3.761v-10.544c5.73 1.223 12.469.26 18.342.393l10.811 31.882zm6.9-43.463h-22.449v-14.21h17.629zm-15.959-21.732h-13.623v-17.97c-.066-4.184-4.526-3.868-7.519-3.761v-14.21h8.486zm-31.18-109.747c7.353.888 4.2 9.782 4.814 14.82-1.506-.162-3.018-.286-4.537-.359a11.188 11.188 0 0 0 -4.073-8.068 12.1 12.1 0 0 0 2.047-6.458c.588.001 1.173.015 1.749.065zm-8.438-32.044c.22 4.447-.113 8.946 0 13.4-3.487-.3-12.545.569-9.534 5.678 2.736 2.08 6.355.566 9.532 1.252q0 2.39 0 4.778c-5.352 0-10.7.05-16.054.043.763-4.348-.039-9.127 1.883-13.138.98-1.495 3.561-1.742 5.273-2.49 6.933-5.571-15.691-13.8-13.133 15.627h-4.638c.213-4.486-.112-9.058-.25-13.521.189-3.567.352-16.061-5.783-12.489-2.893 3.477-1.73 8.193-1.627 12.489.108 4.478-.048 9.037.275 13.52h-20.817c-.157-22.3-14.186-12.717-21.164-19.885-3.331-3.79-2.177-8.089-.269-12.107 9.559-.231 18.981-.715 28.529-.739a4.531 4.531 0 0 0 .528 1.505c-.074 8.94-10.958 5.607-16.487 6.672-9.525 7.086 24.325 13.154 24.121-8.2 7.638.079 15.343.561 22.992.533.155 2.083-.222 4.392.881 6.262a3.165 3.165 0 0 0 5.706-.746c.584-1.835-.227-3.736-.513-5.565 5.124.065 9.976.836 10.549 7.119zm-23.616-39.419a7.1 7.1 0 0 1 5.366 2.254c.122 2.8 2.042 6.7-.239 8.945-2.415 2.381-6.276.975-8.821 3.134-1.219 1.034-.581 2.709.452 3.507 2.906 2.242 7.965.993 11.323-1.259.792 8.575-2.9 9.115-10.385 8.543-.768-.178-1.522-.379-2.254-.615-1.831-.592-1.972.6-3.067-2.526-.782-4.841-.175-9.915-.255-14.811.019-3.113-5.126-4.024-5.612-.759-.772 6.132-1.133 12.659.238 18.71-13.147.12-26.247.251-39.372.975-5.407-1.053-7.439-4.507-7.359-9.819 11.282 2.583 19.1-5.322 17.629-16.454q4.284-.064 8.569-.122a13.856 13.856 0 0 0 -2.333 9.489c.284 2.819 4.159 3.611 5.079.688.935-2.974.915-6.609 3.832-8.473 8.365-3.5 18.334-1.168 27.209-1.407zm-49.508-.077c1.233 8.267-2.778 11.287-10.65 9.991.079-3.307.38-6.591.715-9.908q4.961-.017 9.935-.083zm-70.685 432.676c51.382-.117 103.367.137 154.763.011v31.113h-158.635zm215.129 31.124v-14.21h48.851v14.21zm56.373 0v-17.971c-.065-4.412-4.985-3.8-8.035-3.761v-9.463c10 .869 20.035-.128 30.052.227 11.063.006 22.9 1.175 33.9-.37l11.8 31.338z"/><path d="m240.128 68.919c-3.457-3.383-8.581 1.78-5.215 5.215s8.621-1.873 5.215-5.215z"/><path d="m232.243 31.73c-1.77 5.452-8.916 2.187-12.826 4.4a2.371 2.371 0 0 0 -.477 3.7c3.119 2.52 8.355 1.793 12.055.862 3.506-.881 7.242-3.365 7.093-7.381-.104-2.811-4.54-4.646-5.845-1.581z"/><path d="m237.52 20.971c-3.677 0-3.683 5.715 0 5.715s3.68-5.715 0-5.715z"/></g></svg>