<svg height="512" viewBox="0 0 500 500" width="512" xmlns="http://www.w3.org/2000/svg"><g id="Layer_4" data-name="Layer 4"><path d="m267.126 222.206c-12.35 1.736-22.691 11.305-29.251 21.911-2.641 4.271-5.682 9.605-10.7 9.544-2.511-.031-4.839-1.527-7.35-1.511-3.194.021-5.873 2.482-7.575 5.184a21.029 21.029 0 0 0 23.36 31.49c7.558 9.78 8.829 22.985 8.4 35.338-.221 6.283-.9 12.848-4.359 18.1-5.948 9.042-17.864 11.391-28.284 14.318a130.244 130.244 0 0 0 -80.767 67.42l59.884 28c.723 7.647 2.329 15.356 6.127 22.032s10.033 12.242 17.532 13.9h160.246l-4.035-36.422s5.737-8.374 15.435-9.616c0 0 25.47-10.292 35.688-24.8 0 0-18.069-39.872-69.178-52l-42.825-14.989s-11.725-18.052 6.1-43.85l9.963-12.025s21.836-2.147 19.716-24.018-22.562-13.857-22.562-13.857-1.165-41.797-55.565-34.149z" fill="#cc938b"/><g fill="#a56262"><path d="m309.474 350.108s-7.081-10.915-1.858-27.895a49.17 49.17 0 0 0 -12.218 3.994 38.575 38.575 0 0 0 -12.383 8.491c-3.4 3.713-5.736 8.6-5.626 13.632l4.305 9.9 17.894 6.92c6.29 2.433 13.1 5.316 16.229 11.292 2.728 5.216 1.941 11.488 2.819 17.308 12.35 3.906 27.052-.217 34.945-10.487a39.854 39.854 0 0 0 6.425-13.438c.227-.8.432-1.609.616-2.424-2.673-.847-5.443-1.623-8.323-2.307z"/><path d="m273.55 232.679c4.063.476 8.186 1.36 11.627 3.573s6.106 5.971 6.089 10.062a5.73 5.73 0 0 1 -1.525 4.163c-1.329 1.266-3.31 1.467-5.027 2.113-4.095 1.539-6.618 5.576-10.025 8.32a18.582 18.582 0 0 1 -19.841 1.915 19.914 19.914 0 0 0 21.967 9.165c4.077-1.12 8.1-3.6 12.225-2.666 4.263.966 7.407 5.415 11.777 5.382 1.894-.014 4.026-.847 5.535.3 1.119.849 1.332 2.419 1.449 3.818.687 8.23 1.026 17.011-3.041 24.2-4.5 7.951-13.746 12.343-22.853 13.073s-18.165-1.694-26.822-4.614c.849 6.813 4.861 12.973 10.119 17.388s11.689 7.23 18.26 9.22a74.292 74.292 0 0 0 22.87 3.235c-1.493-7.74-1.1-20.093 9.241-35.065l9.963-12.025s21.836-2.147 19.716-24.018-22.562-13.857-22.562-13.857-1.166-41.8-55.566-34.152c-8.939 1.257-16.815 6.625-22.977 13.511a68.271 68.271 0 0 1 29.401-3.041z"/><path d="m247.221 314.644c-1.1-.271-2.218-.516-3.346-.709a100.7 100.7 0 0 1 .125 10.227c-.221 6.283-.9 12.848-4.359 18.1-.2.3-.414.569-.623.852a18.1 18.1 0 0 0 2.415 1.262c4.969 2.117 10.5 2.493 15.656 4.09a36.755 36.755 0 0 1 13.133 7.38c3.184 2.762 6.061 6.124 10.018 7.575s9.461-.131 10.255-4.271a12.711 12.711 0 0 1 -4.548-3.315c-1.132-1.518-1.463-3.812-.233-5.251a6.37 6.37 0 0 1 2.675-1.576c4.471-1.719 9.217-3.468 13.934-2.64a63.078 63.078 0 0 1 6.141 1.808c-1.829-4.021-5.073-14.086-.234-27.821a61.124 61.124 0 0 1 -8.382 3.59c-8.64 2.719-18.052 1.47-26.766-1s-17.067-6.131-25.861-8.301z"/><path d="m385.789 440.494s25.47-10.292 35.688-24.8c0 0-18.069-39.872-69.178-52l-6.936-2.428c-5.8 3.5-10.831 8.46-15.431 13.513-6.722 7.385-13.115 15.359-21.668 20.513s-20.055 6.9-28.325 1.3c-3-2.025-5.354-4.85-8.164-7.124a27.928 27.928 0 0 0 -21.312-5.854 12.153 12.153 0 0 0 -6.437-10.219c-6.709-3.465-15.388-.077-22.174-3.39-3.994-1.95-6.631-5.908-10.36-8.327s-9.97-2.328-11.381 1.887c-1.554 4.648 4.144 8.473 5.3 13.236.991 4.082-1.522 8.272-1.145 12.456.464 5.153 5.23 9.765 3.878 14.759-.9 3.333-4.443 5.437-7.89 5.632s-6.794-1.144-9.867-2.719a61.145 61.145 0 0 1 -17.37-13.312l-4.885.631c10.42 24.8 31.608 44.143 55.853 55.809s51.407 16.186 78.3 17.008c11.131.34 23.173.352 32.078 7.039a30.991 30.991 0 0 1 9.47 12.427h30.556l-4.035-36.422s5.737-8.373 15.435-9.615z"/></g><path d="m186.293 451.2a9.95 9.95 0 0 0 -.737-4.259c-1.433-2.915-5.058-3.826-8.211-4.605-15.282-3.776-29.134-11.767-42.754-19.663a4.936 4.936 0 0 1 -2.549-2.5 9.367 9.367 0 0 1 .111-2.913c.239-10.36-12.153-7.331-12.153-7.331a14.72 14.72 0 0 0 -1.789 22.841c1.465 1.385 3.219 2.474 4.49 4.039s1.969 3.863.942 5.6c-.848 1.435-2.575 2.05-3.874 3.1-2.855 2.3-3.38 6.415-3.273 10.079.169 5.759 1.482 11.729 5.168 16.157 3.725 4.473 9.362 6.819 14.831 8.812 6.532 2.381 13.256 4.515 20.2 4.852s14.207-1.291 19.558-5.728c8.018-6.655 10.211-18.066 10.04-28.481z" fill="#ffda76"/><path d="m441.767 450.069c-2.241-7.768-5.653-15.65-4.329-23.625.6-3.632 2.184-7.13 2.1-10.81-.16-7.067-7.623-13.012-14.546-11.589a9.52 9.52 0 0 0 -6.258 4.12 6.646 6.646 0 0 0 .115 7.259c.711.952 1.795 1.929 1.5 3.078a2.951 2.951 0 0 1 -1.206 1.454 162.89 162.89 0 0 1 -39.559 22.468s-9.036 2.522-8.358 11.049c.281 3.537 4.524 5.425 6.262 8.519 2.64 4.7.872 10.836 3.128 15.729 2.214 4.8 7.737 7.161 12.965 7.932 11.571 1.7 23.141-2.277 34.159-6.2 4.182-1.488 8.536-3.088 11.546-6.35 5.482-5.939 4.722-15.267 2.481-23.034z" fill="#f48a4e"/><circle cx="289.986" cy="420.852" fill="#ffda76" r="31.461"/><path d="m289.3 391.476a31.438 31.438 0 0 0 -29.3 35.832 42.227 42.227 0 0 0 29.3-35.832z" fill="#fff"/><circle cx="289.986" cy="420.852" fill="#f48a4e" r="15.115"/><path d="m308.067 395.113c-1.057 4.5-4.5 8.945-13.368 10.624l-15.39 29.194s6.272 9.426-5.893 12.663a31.457 31.457 0 0 0 34.651-52.481z" fill="#f48a4e"/><path d="m406.562 452.044c-1.381-1.786-2.905-3.569-3.483-5.752-.471-1.784-.263-3.674-.517-5.5a11.154 11.154 0 0 0 -4.292-7.187 162.755 162.755 0 0 1 -18.687 8.821s-9.036 2.522-8.358 11.049c.281 3.537 4.524 5.425 6.262 8.519 2.64 4.7.872 10.836 3.128 15.729 2.214 4.8 7.681 7.928 12.965 7.932 23.881.016 19.302-25.437 12.982-33.611z" fill="#ffda76"/><path d="m186.293 451.2a9.95 9.95 0 0 0 -.737-4.259c-1.433-2.915-5.058-3.826-8.211-4.605a102.654 102.654 0 0 1 -17.008-5.96 13.77 13.77 0 0 1 -.126 2.036c-1.026 7.033-8.955 12.191-15.8 10.279-1.331 3.6-2.692 7.265-5 10.336s-5.74 5.524-9.576 5.731a11.827 11.827 0 0 1 -9.872-5.049 17.178 17.178 0 0 1 -3.04-9.225 20.39 20.39 0 0 0 -.429 5.1c.169 5.759 1.482 11.729 5.168 16.157 3.725 4.473 9.362 6.819 14.831 8.812 6.532 2.381 13.256 4.515 20.2 4.852s14.207-1.291 19.558-5.728c8.02-6.651 10.213-18.062 10.042-28.477z" fill="#f48a4e"/><path d="m134.591 422.672a4.936 4.936 0 0 1 -2.549-2.5 9.367 9.367 0 0 1 .111-2.913c.239-10.359-12.153-7.33-12.153-7.33a14.72 14.72 0 0 0 -1.789 22.841c1.465 1.385 3.219 2.474 4.49 4.039.059.072.11.154.166.229a23.806 23.806 0 0 0 18.874-7.444 24.817 24.817 0 0 0 1.586-1.915c-2.927-1.646-5.839-3.327-8.736-5.007z" fill="#fff"/><path d="m371.225 453.473c.281 3.537 4.524 5.425 6.262 8.519a10.148 10.148 0 0 1 .613 1.335c.315-.112.63-.223.94-.346 6.5-2.588 12.38-8.095 13.127-15.054a15.044 15.044 0 0 0 -2.594-9.866q-4.92 2.348-9.99 4.363s-9.036 2.522-8.358 11.049z" fill="#fff"/><path d="m182.517 368.766s21.791 48.334 73.522 48.334l8.22 35.212s-75.894-2.8-100.8-68.381z" fill="#ffda76"/><path d="m321.448 407.738v33.362s59.346-21.032 70.8-57.656l-22.848-12.851s-12.8 27.807-47.952 37.145z" fill="#f48a4e"/><path d="m264.259 452.313-8.22-35.212a76.4 76.4 0 0 1 -23.2-3.52 60.9 60.9 0 0 1 -31.427 17.726c29.68 19.777 62.847 21.006 62.847 21.006z" fill="#f48a4e"/><path d="m205.172 397.889a94.571 94.571 0 0 1 -22.656-29.123l-10.131 8.064c.165.954.371 1.9.618 2.835 2.232 8.438 7.988 16.287 16.177 19.308a20.138 20.138 0 0 0 15.992-1.084z" fill="#fff"/><circle cx="251.444" cy="403.833" fill="#4c9e5e" r="9.193"/><circle cx="236.129" cy="390.421" fill="#8fdd7c" r="9.706"/><circle cx="224.355" cy="375.649" fill="#8fdd7c" r="9.706"/><circle cx="215.17" cy="358.284" fill="#fff" r="9.706"/><circle cx="321.448" cy="394.385" fill="#4c9e5e" r="9.706"/><circle cx="333.015" cy="379.515" fill="#4c9e5e" r="9.706"/><circle cx="341.424" cy="361.481" fill="#4c9e5e" r="9.706"/><ellipse cx="215.374" cy="303.983" fill="#ffda76" rx="10.352" ry="12.216"/><ellipse cx="215.374" cy="303.983" fill="#ffda76" rx="10.352" ry="12.216"/><ellipse cx="328.817" cy="306.147" fill="#f48a4e" rx="10.352" ry="12.216"/><path d="m219.248 292.66a8.958 8.958 0 0 0 -3.874-.893c-5.717 0-10.352 5.469-10.352 12.215a14.224 14.224 0 0 0 .516 3.8 16.2 16.2 0 0 0 13.71-15.122z" fill="#fff"/><path d="m207.9 191.277s-7.77.1-9.212 15.5 1.69 34.559 1.69 34.559l14.792 10.964h14.6s11.8-9.11 10.031-27.857.589-39.964-31.901-33.166z" fill="#ffda76"/><path d="m332.972 193.955s-13.2 4.925-17.4 15.235 5.262 45.427 5.262 45.427 24.768 7.17 32.891-24.274-5.475-36.388-5.475-36.388z" fill="#f48a4e"/><path d="m239.8 224.445c-1.624-17.247.216-36.569-24.777-34.259 6.546 3.15 12.311 8.039 13.973 14.934 1.232 5.114-.013 10.462-1.254 15.574a15.4 15.4 0 0 1 -2.133 5.534c-1.732 2.388-4.67 3.572-7.532 4.29a36.863 36.863 0 0 1 -17.923-.022c-.322.593-.629 1.2-.926 1.8.552 5.391 1.148 9.039 1.148 9.039l14.794 10.965h14.6s11.797-9.107 10.03-27.855z" fill="#f48a4e"/><path d="m214.04 190.281c-1.9.212-3.933.534-6.141 1 0 0-7.77.1-9.212 15.5a100.808 100.808 0 0 0 -.364 10.75c21.128-1.237 18.441-18.551 15.717-27.25z" fill="#fff"/><path d="m272.876 254.918a143.066 143.066 0 0 0 -18.29-6.511s-2.113 3.669-2.057 4.849a17.754 17.754 0 0 0 1.738 7.153 11.644 11.644 0 0 0 5.066 5.239c3.983 1.985 8.866 1.044 12.824-.992a9.521 9.521 0 0 0 3.715-2.977 4.281 4.281 0 0 0 .3-4.541 6.6 6.6 0 0 0 -3.296-2.22z" fill="#fff"/><path d="m308.137 250.954a184.786 184.786 0 0 0 -22.517 7.046l-.267.879a14.27 14.27 0 0 0 3.325 5.449 9.139 9.139 0 0 0 4.422 2.672 9.68 9.68 0 0 0 4.306-.172 15.137 15.137 0 0 0 8.808-5.7 12.02 12.02 0 0 0 1.923-10.174z" fill="#fff"/><path d="m213.805 281.074a21.57 21.57 0 0 0 22.457 7.75c.039.05.072.1.111.154a31.226 31.226 0 0 0 .833-4.082 17.682 17.682 0 0 0 -1.032-5.853 61.135 61.135 0 0 1 -2.233-16.273c-.006-3.847.324-7.837-.611-11.513a7.812 7.812 0 0 1 -5.5 2.4c-2.511-.031-4.839-1.527-7.35-1.511a7.057 7.057 0 0 0 -3.721 1.161 19.376 19.376 0 0 1 6.9 13.711c.138 3.188-.843 6.815-3.683 8.272-2.768 1.42-5.99.236-9.147-.09a20.161 20.161 0 0 0 2.976 5.874z" fill="#a56262"/><path d="m271.45 147.12c.177-.434 15.82 2.243 15.82 2.243s-10.064 21.146-10.576 20.94-10.182-11.055-5.244-23.183z" fill="#fff"/><path d="m266.68 153.674s4.348 19.3 14.111 27.1c0 0-19.389 6.971-20.827-4.727s6.716-22.373 6.716-22.373z" fill="#fff"/><path d="m320.837 159.579 15.971-5.084s-3.071 16.288-9.1 19.6z" fill="#fff"/><path d="m352.039 77.056a54.4 54.4 0 0 1 -24.79 19.759c-3.389 1.335-12.108 6.063-12.108 6.063a13.606 13.606 0 0 0 1.5 21.425c4.8 3.222 11.324 3.038 16.576.629s9.388-6.75 12.765-11.439a46.434 46.434 0 0 0 8.118-17.484 29.373 29.373 0 0 0 -2.061-18.953z" fill="#4c9e5e"/><path d="m332.222 49.483c-2.525-5.547-13.778-17.845-13.778-17.845.056 6.891-.693 13.948-3.681 20.157-2.909 6.045-7.738 10.9-12.178 15.931s-8.7 10.6-10.025 17.174 1.116 14.352 7.165 17.251c5.5 2.635 12.331.506 16.884-3.55s7.325-9.693 9.986-15.18l4.4-9.071a44.165 44.165 0 0 0 2.926-7.039 26.172 26.172 0 0 0 -1.699-17.828z" fill="#d35777"/><path d="m289.652 29.955a36.034 36.034 0 0 0 -31.969-19.778 78.464 78.464 0 0 1 4.017 46.052c-2.436 11.2-7.292 23.094-2.723 33.6a20.427 20.427 0 0 0 4.92 6.892 13.659 13.659 0 0 0 5.617 3.264c4.795 1.266 9.977-1.2 13.2-4.97s4.838-8.628 6.117-13.418a136.517 136.517 0 0 0 3.976-21.945c.981-10.013 1.47-20.761-3.155-29.697z" fill="#80a1d6"/><path d="m254.2 76.233c-.244-7.573-3.867-14.625-8.063-20.934s-9.068-12.223-12.346-19.054a46.9 46.9 0 0 1 -4.591-20.339s-18.51 24.308-23.356 38.312a73.067 73.067 0 0 0 -3.057 11.338 53.238 53.238 0 0 0 18.09 49.091 13.221 13.221 0 0 0 3.839 2.421c4.792 1.73 9.868-1.65 13.433-5.29a59.19 59.19 0 0 0 14.343-24.315 35.372 35.372 0 0 0 1.708-11.23z" fill="#ff8398"/><path d="m219.2 117.4c-1.286-5.557-4.055-10.649-6.98-15.546-3.649-6.11-7.669-12.131-13.089-16.742-11.433-9.727-28.189-11.863-42.507-7.357s-34.852 28.929-34.852 28.929c17.813-4.562 38.028 2.365 49.3 16.893 4.261 5.491 7.508 12.1 13.405 15.781a24.119 24.119 0 0 0 6.729 2.763 28.007 28.007 0 0 0 14.409.165 19.664 19.664 0 0 0 11.544-8.331c2.985-4.855 3.324-10.997 2.041-16.555z" fill="#8fdd7c"/><path d="m229.477 179.277a97.257 97.257 0 0 0 -5.8-14.67c-2.219-4.738-4.619-9.541-8.437-13.119-4.217-3.95-9.866-6.086-15.562-7.058s-11.512-.865-17.29-.881c-8.407-.022-16.909-.318-25.013-2.556s-15.865-6.6-20.782-13.422c0 0-3.838 28.968 1.608 38.3s15.119 16.417 25.871 17.485c9.341.928 18.769-2.548 28.058-1.191 5.835.852 11.278 3.574 17.123 4.359 5.685.763 11.436-.342 17.065-1.442a5 5 0 0 0 2.8-1.188c1.1-1.182.799-3.06.359-4.617z" fill="#80a1d6"/><path d="m196.638 186.344c-37.169-18.09-63.473 26.774-70.069 44.185a101.333 101.333 0 0 0 -5.084 54.907c1.494 7.663 4.015 15.258 8.55 21.612-2.369-13.206 3.4-26.471 10.147-38.066a98.727 98.727 0 0 1 7.152-10.876c7.378-9.526 17.213-16.781 26.451-24.518s18.221-16.393 22.968-27.468c2.712-6.327 6.075-16.764-.115-19.776z" fill="#8fdd7c"/><path d="m219.2 117.4c-1.286-5.557-4.055-10.649-6.98-15.546-3.649-6.11-7.669-12.131-13.089-16.742-8.752-7.446-20.621-10.429-32.13-9.4-2.583.993-4.98 1.974-7.071 2.834l10.151 1.292c6.494 4.185 12.533 9.356 16.493 15.99s5.643 14.893 3.271 22.246a19.849 19.849 0 0 1 -13.45 13.028 29.512 29.512 0 0 0 8.081 8.26 24.119 24.119 0 0 0 6.729 2.763 28.007 28.007 0 0 0 14.409.165 19.664 19.664 0 0 0 11.544-8.331c2.986-4.859 3.325-11.001 2.042-16.559z" fill="#4c9e5e"/><path d="m196.753 206.12c2.712-6.327 6.075-16.764-.115-19.776-18.988-9.241-35.138-2.051-47.276 9.513.361.033.722.074 1.083.134 4.871.8 9.549 5.072 8.947 9.972-.593 4.822-5.785 8.153-6.227 12.992-.384 4.194 2.882 7.7 4.81 11.445a21.817 21.817 0 0 1 1.455 15.16c4.665-4.114 9.588-7.98 14.355-11.972 9.237-7.736 18.221-16.388 22.968-27.468z" fill="#4c9e5e"/><path d="m246.139 55.3c-2.627-3.951-5.52-7.747-8.12-11.71-.034.476-.053.952-.094 1.428-.9 10.546-3.8 21.219-10.321 29.557-5.734 7.333-14.627 12.553-23.826 12.762a52.834 52.834 0 0 0 17.1 27.311 13.221 13.221 0 0 0 3.839 2.421c4.792 1.73 9.868-1.65 13.433-5.29a59.19 59.19 0 0 0 14.343-24.315 35.372 35.372 0 0 0 1.71-11.23c-.245-7.574-3.868-14.626-8.064-20.934z" fill="#d35777"/><path d="m282.716 95.016c3.222-3.768 4.838-8.628 6.117-13.418a136.517 136.517 0 0 0 3.976-21.945c.826-8.456 1.291-17.433-1.366-25.4a47.1 47.1 0 0 1 -2.8 8.412c-4.058 9.088-12.006 16.925-21.818 18.6a58.383 58.383 0 0 0 -6.606 1.078c-2.4 9.331-4.986 18.88-1.24 27.495a20.427 20.427 0 0 0 4.92 6.892 13.659 13.659 0 0 0 5.617 3.264c4.795 1.258 9.977-1.209 13.2-4.978z" fill="#4866a8"/><path d="m229.477 179.277a97.257 97.257 0 0 0 -5.8-14.67c-2.219-4.738-4.619-9.541-8.437-13.119-4.217-3.95-9.866-6.086-15.562-7.058s-11.512-.865-17.29-.881c-2.911-.007-5.833-.054-8.747-.2l-.072.558c7.181 2.95 14.5 6.852 18.4 13.561a20.841 20.841 0 0 1 .053 20.457 19.679 19.679 0 0 1 -3.022 3.961 30.513 30.513 0 0 1 3.127.28c5.835.852 11.278 3.574 17.123 4.359 5.685.763 11.436-.342 17.065-1.442a5 5 0 0 0 2.8-1.188c1.103-1.183.802-3.061.362-4.618z" fill="#4866a8"/><path d="m337.019 135.14c-2.982-6.214-9.793-10.195-16.682-10.412a29.631 29.631 0 0 1 -5.191-.256 5.2 5.2 0 0 1 -3.972-3.006c-.632-1.786.206-3.726.3-5.618.249-4.771-4.362-8.584-9.042-9.54s-9.5.086-14.273.375c-11.5.7-23.081-3.008-34.473-1.252a37.066 37.066 0 0 0 -27.852 21.539 50.522 50.522 0 0 0 -3.214 11.427c-1.459 8.421-1.536 17.393 2 25.175 1.653 3.638 4.061 6.945 5.239 10.764 1.882 6.1.587 13.3 4.365 18.447 2.622 3.572 7.072 5.218 11.289 6.578 19.609 6.324 40.66 10.506 60.772 6.036 4.869-1.081 9.823-2.78 13.325-6.33s5.107-9.373 2.57-13.667c-2.827-4.786-9.226-5.847-14.784-5.923a96.771 96.771 0 0 0 -19.045 1.624c-4.319.8-8.6 1.9-12.988 2.177s-8.975-.352-12.661-2.742a17.422 17.422 0 0 1 -7.426-13.294 25.747 25.747 0 0 1 3.986-15.009s11.029-8.237 27.627-2.849c4.347 1.411 7.965 4.515 12.2 6.243 5.215 2.129 10.944 2.632 16.576 2.742 6.206.122 12.919-.387 17.674-4.378 5.277-4.43 6.661-12.637 3.68-18.851z" fill="#ffda76"/><path d="m337.019 135.14c-2.982-6.214-9.793-10.195-16.682-10.412a29.631 29.631 0 0 1 -5.191-.256 5.2 5.2 0 0 1 -3.972-3.006c-.632-1.786.206-3.726.3-5.618.249-4.771-4.362-8.584-9.042-9.54s-9.5.086-14.273.375a57.8 57.8 0 0 1 -6.724-.022 11.141 11.141 0 0 1 .844 5.338c-.5 5.122-4.253 9.528-8.829 11.882 2.148 4.654 8.549 4.905 13.66 4.53 5.515-.405 11.222-.693 16.41 1.217s9.756 6.6 9.788 12.127a10.682 10.682 0 0 1 -8.708 10.266c-4.726.752-9.258-1.777-13.715-3.518-7.063-2.76-15.364-3.515-22.1-.2a34.268 34.268 0 0 1 18.1 1.085c4.347 1.411 7.965 4.515 12.2 6.243 5.215 2.129 10.944 2.632 16.576 2.742 6.206.122 12.919-.387 17.674-4.378 5.281-4.434 6.665-12.641 3.684-18.855z" fill="#f48a4e"/><path d="m307.4 179.477a96.831 96.831 0 0 0 -18.555 1.539 10.681 10.681 0 0 1 1.439 1.926 4.4 4.4 0 0 1 .711 2.62 4.17 4.17 0 0 1 -1.351 2.622c-22.2 19.618-48.789 4.434-58.495-5.971.391 3.806.857 7.544 3.079 10.57 2.622 3.572 7.072 5.218 11.289 6.578 19.609 6.324 40.66 10.506 60.772 6.036 4.869-1.081 9.823-2.78 13.325-6.33s5.107-9.373 2.57-13.667c-2.829-4.786-9.228-5.847-14.784-5.923z" fill="#f48a4e"/><path d="m275.543 125.675c-.052-.179-.269-.241-.452-.274-6.938-1.278-14-3.351-19.325-7.979 0 0-4.9 7.855-3.47 11.4a9.158 9.158 0 0 0 9.145 5.534 12.3 12.3 0 0 0 3.471-.946c3.916-1.63 7.187-4.467 10.382-7.257.144-.125.306-.295.249-.478z" fill="#fff"/></g><g id="Layer_5" fill="#3a3245" data-name="Layer 5"><path d="m217.848 301.355c-2.907-2.952-7.689.992-5.433 4.441 2.69 4.472 9.014-.888 5.433-4.441z"/><path d="m329.739 302.8c-5.718-2.722-8.1 6.285-1.915 7.169 3.728.502 5.15-5.531 1.915-7.169z"/><path d="m269.242 421.212c.7 26.526 39.539 26.52 40.232 0-.697-26.526-39.539-26.521-40.232 0zm32.5 0c-.291 16.275-24.479 16.273-24.768 0 .292-16.276 24.479-16.273 24.768 0z"/><path d="m287.352 418.222c-3.413 3.444 1.814 8.693 5.264 5.264 3.452-3.351-1.907-8.731-5.264-5.264z"/><path d="m279.436 135.494a2.225 2.225 0 0 0 0 4.252c3.444 1.207 7.071 1.229 10.489 2.75 2.9 1.29 5.368 3.709 8.4 4.541 2.041.56 4.14-1.847 2.873-3.738-3.714-5.542-15.379-9.749-21.762-7.805z"/><path d="m97.653 88.166a110.276 110.276 0 0 0 -30.991 26.288c-8.046 9.936-16.421 22.4-18.475 35.234-.313 2.572 3.144 4.856 5.127 2.962 17.882-14.006 30.756-24.915 54.338-29.145a97.429 97.429 0 0 0 -37.852 47.759c-1.047 2.868 2.878 4.667 4.846 2.821 11.417-10.241 29.168-14.418 43.962-17.535-27.023 29.6-44.892 69.071-45.63 109.411-.117 2.826 4.081 4.14 5.412 1.519 14.214-27.666 36.564-53.214 63.343-69.1-26.025 30.577-32.407 77.4-12.871 112.879 1.8 3.221 6 .847 5.53-2.331-1.761-15.114 3.4-30.864 9.113-44.681-.283 8.027-.456 15.873 2.827 23.355 1.31 2.986 5.193 1.025 5.473-1.483a61.962 61.962 0 0 1 8.259-24.661 95.465 95.465 0 0 0 .642 17.214 92.751 92.751 0 0 0 23.351 49.833c2.161 2.4 5.958-.146 5.224-3.041a90.229 90.229 0 0 1 2.422-51.929c.6 3.345 6.135 19.453 9.911 10.619a38.292 38.292 0 0 1 4.9-14.591 31.823 31.823 0 0 0 5.541 13.372c.14 2.015.332 4.032.507 6.026-14.444 2.829-16.849 33.309 3.323 30.813 13.389-1.447 18.531-19.283 8.6-28.035a14.528 14.528 0 0 0 9.229-.739 35.247 35.247 0 0 0 3.521 8.656c2.568 9.7 2.574 20.032 1.865 30.01 0 9.478-5.566 16.121-14.088 19.564-7.849-9.348-24.155-3.177-23.8 9.089-27.535 8.387-50.86 28.379-66.019 52.569-9.77-11.2-25.854-.3-24.935 13.2-1.444 7.392 6.341 12.417 4.066 19.922a109.939 109.939 0 0 0 -6.807 17.532c-1.165 4.634-6.914 29.923.609 29.229 55.565.684 319.594 3.322 340.188-.889 9.807-9.487-3.756-37.917-5.935-49.781-1.48-5.94-1.318-11.643-.945-17.606 2.415-6.5.632-15.195-4.351-19.806-6.31-5.84-16.481-4.982-20.815 2.592-13.568-21.365-36.9-36.461-61.224-43.361.657-12.843-16.54-19.121-24.287-8.867-5.643-2.122-11.5-4.423-16.221-8.092a29.437 29.437 0 0 1 .968-30.458c2.653 5.708 8.824 9.053 15.939 8.261 14.463-1.76 15.708-21.7 4.869-29.125 11.465-5.9 17.765-22.86 9.6-34.734-.963-5.21 3.382-9.674 6.134-14.108 9.507-11.425 14.032-43.425.311-53.018-6.328-3.8-14.3-1.828-21.119-1.15-1.248-7.182-6.816-11.548-12.623-15.017-7.475-2.619-12.964-4.727-12.05-13.921a49.962 49.962 0 0 0 13.748.6c.726 3.981 2.354 7.765 3.476 11.653a3.071 3.071 0 0 0 4.452 1.811c8.457-4.518 11.754-14.192 12.5-23.267 3.186-7.133 2.457-20.534-3.408-25.846 17.874-10.595 27.55-34.937 17-53.661-1.066-1.91-4.526-2.238-5.493 0a37.422 37.422 0 0 1 -10.99 14.799c2.316-5.219 1.177-12.515-5.965-7.93 19.215-29.426-17.509-63.465-18.007-46.943 1.355 7.766-.567 15.314-3.97 22.31.044-3.621-.592-18.044-7.212-13.482a73.9 73.9 0 0 0 -6.771 8.484c.679-22.534-15.036-43.7-38.971-42.378-1.962.048-4.1 2.145-3.242 4.255a90.572 90.572 0 0 1 6.288 31.047c-2.1-3.526-15.487-22.413-17.788-12.185.072 3.576-.67 7.678-.945 11.7-5.006-8.468-9.259-17.179-8.448-27.431.275-3.474-4.253-3.861-5.92-1.6a149.941 149.941 0 0 0 -12.822 20.373c-4.2-8.023-11.857-13.678-20.736-16.392-2.961-.905-4.9 2.395-3.728 4.85 2.826 5.948 4.343 12.269 5.566 18.666a83.5 83.5 0 0 0 -10.879-4.877c-22.953-8.5-48.587-5.422-71.287 2.294a3.138 3.138 0 0 0 .83 6.134c13.843.951 27.565 4.98 40.118 10.774a97.368 97.368 0 0 0 -35.219 4.319 3.329 3.329 0 0 0 .881 6.507c12.153.487 23.79 1.715 33.812 7.692a110.843 110.843 0 0 0 -55.782 14.199zm137.736 4.183c-.749-11.131 7.344-19.956 9.351-30.437 7.14 13.969 3.706 30.83-7.466 41.94-.316-3.819-1.441-7.747-1.885-11.503zm31.486-40.212c9.152 13.195 4.767 28.516-.556 42.2-4.1-3.133-5.689-9.683-4.967-14.823a112.3 112.3 0 0 0 4.879-28.472c.213.365.418.729.644 1.095zm54.125 58.685c-1.516 1.04-3.541 1.786-5.246 3.077a13.538 13.538 0 0 1 .3-5.459c2.637-3.262 6.158-5.458 10.042-7.433a12.88 12.88 0 0 1 -5.096 9.815zm-56.989 19.69c-1.029.548-2.04 1.024-3.047 1.466-5.792.2-8.223-5.915-5.039-10.448a36.109 36.109 0 0 0 12.778 6.4c-1.561.863-3.115 1.742-4.693 2.582zm12.152 34.288c-2.377-4.316-3.3-9.218-3.692-14.077a24.762 24.762 0 0 1 11.354 1.092c-3.569 3.267-6.103 8.139-7.662 12.985zm-10.926 12.621a18.182 18.182 0 0 1 3.436-13.289 42.141 42.141 0 0 0 9.143 15.026c-4.225.354-8.898.09-12.579-1.742zm123.051 208.439a86.653 86.653 0 0 1 -6.488 8.54 52.642 52.642 0 0 0 -16.484-12.369q2.682-3.117 5.139-6.383a107.138 107.138 0 0 1 17.833 10.212zm-206.066-11.507a32.275 32.275 0 0 0 4.556 7.182 53.627 53.627 0 0 0 -12.411 15.415 117.213 117.213 0 0 1 -8.116-11.471 114.963 114.963 0 0 1 15.971-11.126zm46.778 4.735c-4.773 6.058-14.026-1.183-9.291-7.273 4.771-6.058 14.028 1.185 9.291 7.273zm27.088 28.622c-4.773 6.058-14.026-1.184-9.291-7.273 4.772-6.058 14.028 1.182 9.292 7.273zm104.69-20.669c6.4 3.173 12.149 7.057 16.8 12.563a78.046 78.046 0 0 1 -10.951 10.911 80.289 80.289 0 0 0 -14.327-15.472c2.958-2.525 5.788-5.202 8.479-8.002zm-133.327 27.148a104.714 104.714 0 0 0 13.586 4.349 70.862 70.862 0 0 0 -4.7 20.441 122.205 122.205 0 0 1 -16.127-6.181c1.871-6.367 3.79-12.847 7.241-18.609zm20.186 5.8c1.293.251 2.59.488 3.892.7a40.5 40.5 0 0 0 6.722 22.622 110.269 110.269 0 0 1 -15.868-2.693c1.076-7.031 2.387-14.054 5.254-20.626zm86.487-4.016a101.965 101.965 0 0 1 5.126 12.272 129.964 129.964 0 0 1 -12.156 5.289 56.232 56.232 0 0 0 -.313-22.352q1.948-.852 3.856-1.793c.812 2.283 2.403 4.424 3.487 6.587zm21.977 2.511q-4.876 3.3-10.022 6.178c-2.608-6.454-5.112-12.821-9.328-18.551a104.887 104.887 0 0 0 9.7-6.419c5.054 5.134 9.782 9.762 13.91 15.763-1.399 1.039-2.817 2.054-4.261 3.032zm-23.447-44.85c7.684-.629 8.683 11.082 1 11.757-7.684.629-8.69-11.067-1-11.754zm-11.21 15.534c6.517-.006 6.965 9.853.436 10.409-7.088.539-7.539-10.349-.436-10.406zm-4.5 32.041c-.955 36.373-54.218 36.366-55.168 0 .954-36.371 54.216-36.362 55.166.003zm-80.1-23.977c-7.66.9-9.079-10.741-1.426-11.712 7.628-.907 9.099 10.738 1.425 11.715zm-20.5 24.775a44.121 44.121 0 0 0 -2.12 7.82 129.5 129.5 0 0 1 -14.53-9.011c2.557-5.925 4.715-12.04 8.806-17.122a82.747 82.747 0 0 0 12.423 7.564 68.46 68.46 0 0 0 -4.581 10.752zm-18.984-12.589a43.23 43.23 0 0 0 -2.869 7.488 127.845 127.845 0 0 1 -15.926-15.018c4.036-5.006 7.184-10.943 12.663-14.658a91.869 91.869 0 0 0 11.847 12.185 57.168 57.168 0 0 0 -5.717 10.006zm152.54-22.313a14.615 14.615 0 0 0 .387-12.016q1.859-3.137 3.629-6.323c3.195 1.246 6.357 2.492 9.478 3.79a103.938 103.938 0 0 1 -13.494 14.549zm-200.267-173.505c-4.284 2.37-9.494 2.576-13.66 5.109 10.1-18.867 32.057-40.186 54.981-30.421a82.254 82.254 0 0 0 -41.321 25.312zm83.374 28.056c-4.1 7.386-12.764 7.2-19.075 3.1 8.968-3.959 11.521-14.246 9.852-23.224-.313-10.92-11.337-17.279-21.439-14.627.641-4.811 2.549-9.837 7.693-10.5 6.974-.375 14.312-.066 20.232 3.963 6.467 5.7 5.46 16.434 5.265 24.264-.52 5.696-.121 11.798-2.528 17.019zm-24.58-1.967c-5.589-7.634-6.135-17.844-6.363-27.029 8.477-.632 15.367 1.21 15.468 11.055.608 7.423-1.326 14.151-9.105 15.969zm-13.347-71.434c4.676-.088 22.92 8.015 11.471 11.69-10.511-2.974-21.739-1.063-32.521-2.313 6.892-3.404 12.895-9.288 21.05-9.377zm11.251-66.327c7.625 7.9 13.653 21.87 4.4 30.882-2.988-7.846-7.614-14.763-9.274-23.035-.764-4.391-.124-9.014-1.075-13.37a51.462 51.462 0 0 1 5.949 5.523zm-17.508 7.358c7.85 7.3 12.546 16.948 16.33 26.869-12.2 4.838-18.62-5.345-25.64-13.271-3.4-5.012-6.981-9.875-11.664-13.588a34.4 34.4 0 0 1 20.974-.01zm36.9 65.781c-.02.329-.035.656-.042.98a67.1 67.1 0 0 0 -12.641-8.413c-4.238-6.025-9.017-11.186-15.936-14.014-2.371-.978-3.608 2.681-1.669 3.961a37.89 37.89 0 0 1 6.847 5.9c-12.267-3.587-25.634-1.922-36.986-8.611a2.048 2.048 0 0 0 -2.471 3.2c4.554 5.179 11.01 7.174 17.912 8.312-5.6 3.444-11.486 9.441-18.4 7.64-13.713-6.165-21.337-21.077-22.837-36.537 21.705 19.389 58.986 2.849 79.807 23.654a40.391 40.391 0 0 0 6.419 13.928zm-46.512-88.577a51.051 51.051 0 0 1 14.094 5.229c2.22 4.739 1.942 10.1 2.136 15.362-8.491-9.029-21.369-15.756-33.921-13.7-2.92.486-1.88 4.556.65 4.805a51.52 51.52 0 0 1 15.06 3.469c-5.411.152-10.426 2.031-15.542 3.541a45.352 45.352 0 0 0 -31.342-4.584c9.031-8.915 21.186-12.747 33.182-14.986a51.95 51.95 0 0 1 15.683.864zm64.521 158.2c10.251-16.591 38.4-16.316 55.108-11.431 19.65 6.307 20.7 27.386 19.236 44.849a47.976 47.976 0 0 0 -7.954-7.132c-2.105-1.519-4.534 1.786-2.736 3.545 3.82 4 7.965 8.3 9.922 13.553q-.418 3.264-1.151 6.445a26.159 26.159 0 0 0 -4.779-6.825c-1.644-1.682-4.631.513-3.308 2.553 3 4.28 5.344 9.6 4.272 14.844-11.29 23.551-40.152 15.935-57.621 3.775-.338-6.7 2.081-12.6 4.823-18.9 1.371-3.145-2.714-5.714-4.681-2.737a34.336 34.336 0 0 0 -5.638 17.138 39.575 39.575 0 0 1 -4.094-4.577c-.4-8.508 3.889-15.96 7.93-23.665 1.349-2.573-2.257-5.817-4.258-3.285a39.787 39.787 0 0 0 -8.167 18.536c-3.426-12.837-4.6-35.382 3.096-46.69zm-54.6-49.129c.742-.217 1.493-.405 2.242-.6-.314 11.723-12.424 22.3-22.693 28.467 3.439-16.595 1.858-23.247 20.454-27.871zm28.688 84.316c-13.377-16.182 2.807-39.791 11.947-13.392a13.7 13.7 0 0 0 -5.675-2.589c-2.412-.492-4.156 2.885-1.757 4.168a14.09 14.09 0 0 1 5.973 5.545 9.588 9.588 0 0 0 -1.178 12.209c-3.607-.477-7.222-3.268-9.307-5.945zm135.9-68.029c-.183 10.379-.775 22.673-8.583 30.339-7.953-4.4-9.628-9.175-8.979-18.149.1-12.615 6.142-14.47 17.558-12.979.01.263.013.531.011.785zm-42.056-113.957a9.515 9.515 0 0 1 -7.623 2.57c-1.314-5.38 4.613-11.762 9.107-16.577a54.311 54.311 0 0 0 9.544-3.1c-3.35 4.933-7.864 10.86-11.028 17.107zm-3.97-18.956c-1.236 6.483-8.532 10.548-9.325 18.1-5.78-9.455 3.212-18.369 8.781-25.391.435 2.456.975 4.772.544 7.291zm-23.927 4.007c-1.528 6.076-4.147 12.868-11.3 13.192 4.21-13.305 3.7-10.809 12.9-20.683-.558 2.493-1.111 4.99-1.6 7.491zm-58.288.87c2.936 8.377 7.179 20.08.179 27.16-14.345-4.2-17.189-29.6-15.974-42.482 4.651 6.121 11.889 8.742 15.795 15.322zm-92.971 192.152a115.525 115.525 0 0 0 -4.233 19.63c-6.551-17.351-7.959-66.942 14.268-73.141-6.708 9.52-11.616 20.373-12.821 31.218-.244 2.188 3.328 3.156 4.221 1.143 6.852-18.321 16.02-36.492 32.476-48.034-3.26 8.432-2.5 18.537-8.705 25.729-12.191 11.806-20.493 27.238-25.206 43.455zm81.652 37.526c-10.207-.029-7.457-15.056-.558-17.674 11.62-2.856 12.95 17.721.558 17.674zm31.027 20.53c.253-1.748.427-3.532.539-5.334 7.847 10.346 15.232 21.417 23.758 31.033 7.691 11.907 14.361 14.195 23.059 2.021 1.659-2.147-.4-5.708-3.13-4.055-3.915 1.746-7.492 8.474-11.064 2.812-6.076-8.2-15.239-15.5-17-25.993a384.547 384.547 0 0 0 66.485 27.887 13.172 13.172 0 0 0 .946 4.226 13.633 13.633 0 0 0 -9.085 14.958 12.955 12.955 0 0 0 -10.917 10.159c-13.532-9.61-34.849-6.8-45.451 5.643a13.672 13.672 0 0 0 -13.605-6.822 13.608 13.608 0 0 0 -11.943-12.693 13.716 13.716 0 0 0 -9.921-15.586 13.392 13.392 0 0 0 .312-6.777 26.876 26.876 0 0 0 17.017-21.479zm-31.068 18.409c7.63-.91 9.1 10.735 1.427 11.712-7.646.898-9.088-10.741-1.427-11.712zm-11.4 12.668a16.854 16.854 0 0 0 7.423 8.183c-1.206 7.322 2.693 14.5 9.08 18.143.231 4.649 1.272 9.4 4.22 13.054-14.85-7.3-26.2-19.8-35.284-33.336 4.636-2.541 9.642-4.132 14.557-6.041zm-53.086 37.211a119.2 119.2 0 0 1 11.326-12.154c20.969 40.441 64.9 66.651 110.321 66.079a38.488 38.488 0 0 0 17.507 5.971c.984 13.734-3.324 20.484-17.01 22.451q-19.794.008-39.589.009c-15.47-2.625-28.379-14.6-33-29.653.96-8.948-4.55-11.567-12.238-12.687-18.008-3.667-33.325-13.953-49.549-21.838 4.215-5.978 7.599-12.437 12.228-18.178zm5 70.607c1.724-1.752 2.911-.423 4.281.967 2.29 2.324 5.6-.126 5.1-2.967-1.417-7.844-12.9-6.874-15.848-.729-2.284 1.754-4.3.854-4.985-1.823 1.875-7.071-6.412-13.764-13.732-12.065-2.265.525-3.029 4.305-.694 5.313 1.953.843 4.826 1.112 6.23 2.75 2.154 2.513-.493 4.452-3.033 4.969-13.164 2.553-16.023-19.4-4.142-22.31a295.8 295.8 0 0 1 40.661 21.98c2.9 4.964-.485 12.115-6.361 12.5-4.258.642-10.688-4.183-7.485-8.585zm-28.039-59.288c3.778.915 4.511 4.479 1.767 7.143-1.556.989-2.64-1.028-4.228.011-5.422 4.394 2.9 8.257 7 5.6 6.255 1.9 11.707 5.336 17.34 8.578a141.439 141.439 0 0 0 34.789 14.331 7.344 7.344 0 0 1 -5.571 6.542c-.487.125-1.957.1-.386.375l.021.08a2.677 2.677 0 0 0 -1.077-.064c-19.329-6.764-37.847-15.2-56.225-24.232-5.646-5.664-2.614-19.364 6.562-18.364zm311.506 51.747c-1.711 3.064-6.063 5.581-9.63 3.981-3.776-.857-3.949-11.824.752-9.695a3.408 3.408 0 0 0 6.567 1.811c3.331-13.243-19.857-13.157-16.687 6.151a13.442 13.442 0 0 1 -.9 2.519 3.009 3.009 0 0 1 -1.664-.6c-.5-10.3-20.31-13.219-19.741-1.076.249 2.368 3.054 3.989 4.95 2.05 1.011-1.035 2.206-2.635 3.73-2.856 2.474-.359 4 2.284 3.955 4.475-.541 7.064-9.549 8.278-15.083 7.338-9.476-2.63-11.708-13.01-3.524-19.05 6.216-3.626 13.571-6.129 19.428-9.9a138.69 138.69 0 0 0 24.447-17.634c-.275 11.066 8.767 22.696 3.4 32.486zm-14.988-57.848a6.068 6.068 0 0 1 6.54-1.383c5.45 1.927 6.127 8.209 5.333 13.1-6.654 11.954-24.866 21.183-36.949 27.478-2.844 1.362-22.665 11.258-23.628 5.613-.629-3.683 12.135-7.44 14.817-8.687 12.885-6.058 26.014-12.568 36.053-22.878a9.911 9.911 0 0 0 2.669-1.087c2.863-1.661.956-6.776-2.327-5.52-5.54 2.122-4.454-4.662-2.504-6.636zm-7.2 13.211.008.017c-12.132 8.6-26.381 15.05-39.856 20.824-5.937 2.543-11.2 7.286-8.046 14.377 1.06 6.573 2.174 13.083.722 19.845-1.477 6.483-5.85 7.535-11.072 8.769q-15.782.024-31.563.044c-5.793-.5-14.454.6-20.161-1.848-6.289-4.8-6.173-14.708-5.019-21.632a36.148 36.148 0 0 0 21.761-15.96c28.2-9.294 54.652-30.525 71.407-54.752 9.612 8.179 17.434 18.379 21.824 30.316zm-74.991-65.1c7.685-.63 8.681 11.082 1 11.756-7.68.631-8.685-11.067-.995-11.753zm-10.921-39.498c-10.5 1.088-11.786-13.148-4.888-18.358 10.924-2.856 17.332 16.782 4.888 18.358zm.082-27.48c1.291-3.348 1.285-7.531-1.946-9.144 1.472-2.66 3.231-4.6 6.343-5.414 3.281-.854 2.685-6.174-.813-6.006-3.9.187-6.908 2.522-9.087 5.549.018-1.827.014-3.646 0-5.449 4.237-10.962 17.265-11.649 18.185 1.431.636 9.199-4.817 16.63-12.682 19.033zm15.659-92.25c4.258.546 6.294 4.068 7.235 7.99-13.438-2.594-23.074 4.077-23.443 17.945-.843 8.844.8 19.353 9.511 23.837-5.255 2.227-10.493 1.728-15.86 1.394-2.007-12.585-6.326-33.151.054-44.593 2.419-1.865 5.265-3.325 7.554-5.474a55.692 55.692 0 0 1 14.949-1.099zm-31.753-40.181c-8.8-.646-15.493-4.644-23.074-8.674-24.558-13.826-56.747 10.509-32.751 34.189 10.488 8.419 25.26 4.523 37.127 1.972 7.632-1.484 17.3-3.049 23.992 1.764 4.063 6.081-.356 10.849-6.055 14.048-18.95 6.567-38.082 4.99-57.307.211-19.369-5.111-26.623-22.257-16.6-39.619 1.4-2.78-2.146-5.915-4.484-3.458a23.859 23.859 0 0 0 -4.483 6.668c-1.733.241-3.713-1.805-4.6-3.852-4.654-18.134 4.019-41.588 22.333-48.683 11.363-4.437 23.021 1.607 34.744-.393 6.641-.629 13.784-1.94 20.165.7 3.893 2.952 2.368 9.123-2.369 10.211a75.412 75.412 0 0 0 -15.507.412c-4.939.6-9.955 1.6-14.935-.038-5.107-1.38-9.142-4.254-13.552-6.949-2.63-.969-4.7 1.782-5.956 3.723-3.456 4.726-3.478 11.933 1 16.21a42.505 42.505 0 0 1 -4.446.4 2.519 2.519 0 0 0 -.667 4.924c12.031 3.876 22.455-6.09 33.074-9.976 9.322-.549 16.727 4.292 23.508 10.033 2.362 1.555 4.789-1.425 3.648-3.647a19.487 19.487 0 0 0 -8.986-8.2c8.622.337 17.293 1.006 25.886 1.729a15.884 15.884 0 0 0 -6.554 6.885 2.458 2.458 0 0 0 3.842 2.965c4.964-5.623 12.771-10.046 13.12 1.263-4.851-1.527-10.808-.5-13.68 3.306-1.111 1.472.724 3.534 2.336 3.039 3.244-1.147 7.265-2.087 10.248.1-2.229 9.698-12.914 8.95-19.017 8.737zm14.012 12.16c-.826-2.246-1.543-4.537-2.459-6.738a34.615 34.615 0 0 0 7.434-2.071 19.592 19.592 0 0 1 -4.975 8.809zm23.137-86.33c2.432 9.3.134 20.232-5.456 28.544-4.013 2.681-9 2.944-13.66 3.47-2.3.342-1.726 3.461 0 4.106a15.283 15.283 0 0 0 5.484.845c-5.567 4.214-14.263 6.081-19.337-.007 9.555-6.963 21.1-7.722 27.067-19.428a2.7 2.7 0 0 0 -4.667-2.728 29.912 29.912 0 0 1 -9.477 8.724c.851-3.463 1.031-6.7 4.189-9.071a42.311 42.311 0 0 0 15.854-14.455zm-30.368-42.988c10.841 9.01 13.92 30.2-1.161 36.591a35.242 35.242 0 0 0 5.458-18.4c0-2.859-4.615-3.682-5.146-.7-1.153 6.7-3.1 13.378-7.315 18.833-.387-3.467-1.787-6.864-.932-10.269a58.64 58.64 0 0 0 9.096-26.055zm-40.569-15.38c11.6 14.218 11.323 37.3-2.14 50.361 2.136-13.645 2.781-28-.424-41.531-.676-2.852-5.524-2.32-5.22.706.631 6.3 1.159 12.528 1.287 18.762-10.079-14.071-7.6-21.718-12.18-37.211 7.138.694 13.755 3.212 18.677 8.913zm-41 27.968c2.881 10.229-5.324 19.616-8.366 29a78 78 0 0 1 -3.095-34.9c.333-2.54-3.687-2.913-4.36-.59a58 58 0 0 0 -1.115 26.5c-5.021-3.531-10.309-6.8-10.982-13.018 2.9-12.28 8.638-23.622 15.6-34.066 1.718 9.756 7.181 18.425 12.318 27.074z"/><path d="m259.945 268.6a17.393 17.393 0 0 0 12.154.252c4.816-1.481 5.56-5.912 9.341-8.313 2.254 8.142 20.832 13.953 6.221 21.4-3.088 1.734-.956 7.334 2.485 5.893 7.116-2.627 12.421-10.877 7.5-17.876 14.842.914 18.44-26.7 8.971-21.572-5.947 1.344-10.952 4.821-17.108 5.879-2.44-1.538-1.255-4.669-.923-7.326.267-2.136-3.112-2.929-4.024-1.09a13.4 13.4 0 0 0 -.8 2.021 8.326 8.326 0 0 0 -1-2.172c-1.336-1.983-4.661-.655-3.8 1.766-.653 1.5.817 3.742-.681 4.91a5.012 5.012 0 0 1 -4.063.7c-6.564-3.436-12.863-7.464-20.528-7.239a3.264 3.264 0 0 0 -3.053 2.324 16.2 16.2 0 0 0 9.308 20.443zm34.89-5.137a8.984 8.984 0 0 1 -4.977-3.484 17.88 17.88 0 0 0 5.746-1.352c0 3.84 5.747 3.959 5.777.125-.035-.75.024-1.513.029-2.266 1.157-.377 2.332-.748 3.49-1.161-.922 5.128-3.513 9.758-10.065 8.134zm-21.6-4.226c-4.732 8.882-18.889 2.2-17.032-6.93a23.537 23.537 0 0 1 5.836 1.549 18.056 18.056 0 0 0 .125 5.147l.045-.012c1.48 4.291 6.983 1.742 5.847-2.326 1.626.79 3.29 1.793 5.182 2.568zm-5.235-1.845c.021.196.019.191 0 0z"/><path d="m302.556 291.236c-11.756-1.336-24.456-1.215-35.756 2.658-2.077.711-1.922 4.353.554 4.093 11.579-1.213 22.766-2.364 34.393-.759a3.037 3.037 0 1 0 .809-5.992z"/><path d="m292.136 300.287c-4.994-.441-11.55-.393-16.289 1.386a2.118 2.118 0 0 0 .56 4.138c5.213.169 10.489-.377 15.729-.208 3.464-.103 3.369-5.018 0-5.316z"/><path d="m235.611 476.073c2.829.741 6.4 1.224 9.038-.295a3.257 3.257 0 0 0 0-5.529c-2.635-1.52-6.209-1.035-9.038-.3a3.206 3.206 0 0 0 0 6.124z"/><path d="m355.673 469.659c-2.635-1.521-6.208-1.035-9.037-.3a3.2 3.2 0 0 0 0 6.118c2.828.741 6.4 1.225 9.037-.294a3.256 3.256 0 0 0 0-5.524z"/></g></svg>