<svg height="512" viewBox="0 0 500 500" width="512" xmlns="http://www.w3.org/2000/svg"><g id="Layer_4" data-name="Layer 4"><path d="m274.391 27.024c-6.515 4.852-10.091 13.576-7.863 21.386a19.869 19.869 0 0 0 17.972 14.013c-4.647 7.015-6.4 15.634-6.387 24.05s1.673 16.731 3.362 24.976c-5.155-1.049-10.416 2.851-12.177 7.808s-.639 10.536 1.614 15.289c1.46 3.078 3.5 6.046 6.5 7.663s7.11 1.52 9.463-.943q3.642 6.36 7.816 12.4c-15.7 2.526-5.371 20.648-5.371 20.648s-2.272 2.109-3.867 2.4a38.536 38.536 0 0 0 -25.466 17.325l9.546 285.2h151.79s20 2.8 17.163-39.373-7.832-83.762-7.832-83.762 9.937-12.3-2.59-23.717l-1.764-70.368s29.09-17.8 14.565-36.4c0 0-22.686-20.241-48.4-30.224l-22.534-23.017-13.88-22.346s24.853-31.991 12.563-83.033c0 0-2-33.872-60.4-22.718-.003-.005.818-43.057-33.823-17.257z" fill="#d3e5dd"/><path d="m287.564 234.765c-1.28-12.518-13.4-20.861-24.914-25.939s-24.447-9.32-31.555-19.7c-1.7-2.481-3.035-5.287-5.318-7.244-3.865-3.312-10.013-3.827-12.681-8.163-1.887-3.066-1.392-7.2-3.408-10.177-2.427-3.591-8-4.8-9.047-9-.444-1.787.1-3.653.632-5.417a335.712 335.712 0 0 0 12.465-62.995c.7-7.057 1.155-14.375-1.205-21.062-4.257-12.058-16.769-19.374-29.211-22.323a72.832 72.832 0 0 0 -34.732.317c4.74-6.59 2.558-17.9-4.866-21.18-16.724-7.4-28.09 7.269-28.09 7.269-4.506 5.6-7.488 12.923-6.085 19.973s8.23 13.176 15.334 12.076a79.08 79.08 0 0 0 -.348 47.663c-8.982 1.03-15.169 11.433-12.839 20.169s11.687 14.594 20.715 14.12c3.457 1.764 2.5 7.019.4 10.284s-4.963 6.908-3.688 10.573c.554 1.594 1.842 2.861 2.34 4.473 1.12 3.631-2.235 7.227-5.8 8.523s-7.543 1.256-11.045 2.727c-6.116 2.57-9.441 9.025-13.821 14.008-7.736 8.8-19.154 13.236-28.976 19.626s-19.363 16.913-17.221 28.434c1.256 6.757 7.787 12.873 15.852 17.932 3.408 9.691 3.732 20.615 2.714 30.974-1.408 14.322-5.042 28.446-5.084 42.838a5.772 5.772 0 0 1 -.72 3.462 7.676 7.676 0 0 1 -2.313 1.709c-6.354 3.966-6.252 13.587-2.753 20.21a17.018 17.018 0 0 1 1.876 4.18 13.2 13.2 0 0 1 .108 3.646q-2.132 33.894-4.262 67.788c-.477 7.6-.95 15.289.441 22.773s4.863 14.864 10.934 19.457c3.124 2.362 7.228 3.935 10.962 2.753q92.9.837 182.754 0s20.61 1.261 20.9-19.4c.267-18.788-9.978-170.158-11.84-197.484 7.386-7.971 14.478-17.271 13.395-27.873z" fill="#d3e5dd"/><g fill="#8caa99"><path d="m430.654 356.105s9.937-12.3-2.59-23.717l-1.764-70.369s29.09-17.8 14.565-36.4c0 0-22.686-20.241-48.4-30.223l-22.534-23.018-13.88-22.346s24.853-31.991 12.563-83.033c0 0-.981-16.557-21.534-22.706 1.8 9.523-.86 20.013-8.244 26.4 6.355 15.813 12.024 32.445 11.181 49.465s-9.542 34.627-25.1 41.574c4.419 8.251 18.227 9.635 20.518 18.71 4.119 16.315-17.94 15.65-22.773 9.635-1.214-1.511-2.359-3.307-4.219-3.849-2.268-.661-4.529.811-6.749 1.617-9.644 3.5-18.364-5.422-27.625-10.838a38.57 38.57 0 0 0 -24.08 17.033l9.546 285.2h40.74c5.958-15.411 4.8-33.939 4.064-50.991q-.592-13.787-.394-27.591a57.423 57.423 0 0 0 48.471 22.731c8.13-.48 17.494-2.348 23.454 3.2 3.447 3.21 4.681 8.122 5.266 12.8 1.656 13.21-.543 26.55-1.6 39.855h31.8s20 2.8 17.163-39.373-7.845-83.766-7.845-83.766zm-50.439 23.5c-6.091 11.01-18.429 17.426-30.848 19.448-11.7 1.9-23.632.461-35.39-1.18q.313-16.647 1.742-33.247c.378-4.351.765-8.97-1.2-12.868-1.162-2.3-3.054-4.142-4.472-6.295-3.234-4.913-3.788-11.059-4.249-16.923-1.576-20.032-3.05-40.839 4.093-59.621 2.909-7.65 5.8-20.947 7.17-33.722a11.983 11.983 0 0 1 12.881-10.711l.122.01c4.716.384 9.683.727 13.966-1.282 5.82-2.73 9.238-9.289 15.215-11.657 6.111-2.421 13.523.57 17.265 5.974s4.18 12.616 2.356 18.931c-2.164 7.492-7.665 14.242-15.069 16.691s-16.521-.17-20.556-6.844a34.572 34.572 0 0 0 18.322 24.3c4 1.987 8.5 3.259 11.71 6.37 4.515 4.379 5.327 11.219 5.878 17.485l2.43 27.649c.811 9.235.993 20.1-6.85 25.571a6.35 6.35 0 0 0 -1.569 1.448c-3.366 4.691 3.075 7.891 6.5 11.358 4.804 4.862 3.865 13.123.553 19.11z"/><path d="m284.722 464.629c.267-18.789-9.978-170.159-11.84-197.484 7.383-7.969 14.475-17.269 13.391-27.871-1.279-12.518-13.4-20.861-24.914-25.939s-24.446-9.319-31.554-19.7c-1.7-2.481-3.035-5.287-5.318-7.243-3.865-3.313-10.013-3.828-12.681-8.164-1.887-3.066-1.392-7.194-3.409-10.177-2.427-3.591-8-4.8-9.046-9-.444-1.788.1-3.654.632-5.418a335.712 335.712 0 0 0 12.465-62.995c.7-7.056 1.155-14.375-1.205-21.062-3.769-10.676-14.012-17.632-24.943-21.134 5.449 9.858 5.449 23.051-1.883 31.8a46.721 46.721 0 0 1 -32.191 73.29 44.433 44.433 0 0 1 25.49 17.748 113.751 113.751 0 0 1 -33.655-8.065 34.026 34.026 0 0 0 20.8 20.6c6.33 2.159 13.372 2.452 18.441 7.611a9.092 9.092 0 0 1 2.18 9.832c-4.269 10.089-22.679 1.394-29.825 9.791a74.063 74.063 0 0 0 29.535 15.324 12.664 12.664 0 0 0 5 .532c7.055-1.068 8.133-10.992 13.371-15.837 7.852-7.262 21.787 1.148 23.318 11.734s-4.778 20.591-11.195 29.147c-1.645 2.193-3.417 4.449-5.911 5.585-8.58 3.909-17.951-7.6-27-4.968a31.176 31.176 0 0 0 18.968 20.094l.115.042a17.2 17.2 0 0 1 11.237 15.618c.9 29.654-1.349 53.8-8.792 68.892-11.854 2.6-26.1 1.8-37.8 5.024 17.636 10.478 21.1 38.5 6.543 52.959 13.915 7.494 14.19 26.877 13.924 42.68q-.224 13.279.805 26.541 38.268-.06 76.057-.383s20.595 1.26 20.89-19.404z"/><path d="m95.605 273.64a7.166 7.166 0 0 0 2.695-2.772 41.122 41.122 0 0 1 23.887-16.432 7.388 7.388 0 0 1 3.706-.2c1.647.461 2.811 1.887 4.227 2.846 2.832 1.919 6.644 1.871 9.856.7s5.957-3.331 8.613-5.486c1.736-1.408 3.6-3.088 3.743-5.318a8.265 8.265 0 0 0 -1.014-3.816l-7.918-17.662c-3.419 5.832-11.043 7.66-17.8 7.5-3.633-.088-7.445-.664-10.314-2.893-3.2-2.491-4.66-6.564-5.959-10.41l-4.383-12.985c-1.361-4.028-2.847-8.221-5.713-11.3a51.492 51.492 0 0 1 -8.186 6.569c4.381 5.634 7.726 12.113 8.768 19.137 1.252 8.443-1.237 17.7-7.66 23.325-4.881 4.27-11.388 6.066-17.655 7.737l-10.643 2.838a63.191 63.191 0 0 0 6.6 4.716 52.266 52.266 0 0 1 1.834 6.664l18.463 6.77c1.564.573 3.325 1.145 4.853.472z"/><path d="m72.893 293.232a68.951 68.951 0 0 1 28.729 35.848 254.134 254.134 0 0 1 -1.07-53.61 9.491 9.491 0 0 0 -.42-4.874c-1.331-2.827-4.953-3.543-8.058-3.906l-20.262-2.366c2.107 8.475 2.214 17.629 1.353 26.382q-.125 1.264-.272 2.526z"/><path d="m197.157 444.494a226.2 226.2 0 0 0 -2.141-37.034c-.208-1.474-.563-3.15-1.862-3.877a5.17 5.17 0 0 0 -3.329-.188 64.509 64.509 0 0 1 -50.625-13.978c-4.93-4.11-9.223-8.952-14.262-12.929s-11.106-7.126-17.524-7.014l-1.711.448a47.857 47.857 0 0 1 21.18 15.237c5.634 7.122 9.1 15.668 13.4 23.666s9.848 15.839 17.987 19.865c6.95 3.438 15.009 3.715 22.407 6.036a42.031 42.031 0 0 1 16.48 9.768z"/><path d="m188.417 222.293c1.291-2.856 2.6-5.793 2.785-8.921s-1.013-6.539-3.718-8.121c-2.553-1.493-5.738-1.061-8.681-.766a71.263 71.263 0 0 1 -38.818-7.16 2.864 2.864 0 0 0 -2.539-.4c-1.057.566-.931 2.1-.646 3.266a261.681 261.681 0 0 0 14.759 43.426c.858 1.946 1.751 4.149.971 6.127a8 8 0 0 1 -2.37 2.865c-5.774 5.086-13.171 10.536-20.444 8.024-2.46-.85-4.588-2.565-7.123-3.157-2.91-.679-5.959.218-8.68 1.451a35.842 35.842 0 0 0 -17.635 17.588l2.129 9.358c1.271-7.567 6.748-15.03 14.368-15.931s14.359 4.692 21.792 6.587a23.144 23.144 0 0 0 28.857-22.155c.042-3.657-.781-7.287-.693-10.943a21.988 21.988 0 0 1 25.686-21.142z"/></g><path d="m70.346 311.2c-.028-.031-.053-.065-.08-.1a149.355 149.355 0 0 0 -2.185 22.443 5.772 5.772 0 0 1 -.72 3.462 7.676 7.676 0 0 1 -2.313 1.709c-6.354 3.966-6.252 13.587-2.753 20.21a17.018 17.018 0 0 1 1.876 4.18 13.2 13.2 0 0 1 .108 3.646q-2.132 33.894-4.262 67.788c-.477 7.6-.95 15.289.441 22.773a36.035 36.035 0 0 0 4.982 12.953 11.3 11.3 0 0 0 2.369-3.785c2.131-5.713-.56-11.958-1.257-18.016-.807-7.018 1.115-14.019 2.259-20.99.822-5.01 1.245-10.076 1.667-15.136l4.3-51.577a9.66 9.66 0 0 0 -.3-4.365c-.721-1.827-2.472-3.044-3.436-4.754-2-3.548.651-8.742 4.7-9.206a3.536 3.536 0 0 0 1.84-.461 2.773 2.773 0 0 0 .751-2.046q.46-5.857.92-11.717a17.694 17.694 0 0 0 -.436-7.252c-1.446-4.102-5.587-6.507-8.471-9.759z" fill="#fff"/><path d="m54.6 241.8c.023.121.059.24.085.36a21.894 21.894 0 0 0 17.915-10.671c3.623-6.14 4.055-13.364 3.189-20.571-1.345.793-2.675 1.6-3.976 2.45-9.82 6.39-19.355 16.911-17.213 28.432z" fill="#fff"/><path d="m124.41 22.208a27.835 27.835 0 0 0 -8.776 6.938c-4.506 5.6-7.488 12.923-6.085 19.973s8.23 13.181 15.334 12.081a79.115 79.115 0 0 0 -.844 45.949 4.25 4.25 0 0 0 1.766-.028c2.187-.626 2.408-3.564 2.472-5.837.234-8.241 4.146-15.852 6.805-23.656s3.919-16.992-.673-23.839c-2.883-4.3-7.741-7.1-10.1-11.708-1.75-3.41-1.91-7.418-1.557-11.234a45.688 45.688 0 0 1 1.658-8.639z" fill="#fff"/><path d="m284.5 62.423c-4.647 7.015-6.4 15.634-6.387 24.05.009 7.341 1.276 14.606 2.72 21.814a15.6 15.6 0 0 0 3.359-.431c-.925-5.714 1.639-11.334 3.769-16.716a123.2 123.2 0 0 0 7.758-30.64 15.56 15.56 0 0 0 -.044-5.542c-1.539-6.293-9.2-8.426-14.229-12.505a18.9 18.9 0 0 1 -6.827-15.59c-.077.057-.151.108-.228.166-6.515 4.847-10.091 13.571-7.863 21.381a19.869 19.869 0 0 0 17.972 14.013z" fill="#fff"/><path d="m332.731 361.359a7.085 7.085 0 0 0 -1.689-2.653c-2-2.051-9.788-3.721-11.9-3.466-3.342.4-5.993 5.391-6.3 10.629a23.721 23.721 0 0 0 3.781 14.052 10.163 10.163 0 0 0 2.95 3.132c2.619 1.586 5.69.228 7.881-2.527s3.634-6.707 4.773-10.733c.761-2.678 1.396-5.86.504-8.434z" fill="#fff"/></g><g id="Layer_5" fill="#3a3245" data-name="Layer 5"><path d="m159.387 126.043a8.642 8.642 0 0 0 .566.98c-9.233 1.98-19.927 14.759-10.017 22.241 6.927 3.63 14.963-4.623 25.206-.443 5.078 1.585 10.737 5.094 15.646 1.074 9.763-8.9-3.31-21.7-12.832-23.26-2.74-6.764-10.979 2.151-13.575-3.478-1.235-3.3 2.139-5.387 3.64-7.765a2.424 2.424 0 0 0 -2.709-3.523c-5.712 1.418-8.348 9.199-5.925 14.174zm27.942 16.941c-1.129 6.774-13.246-6.716-29.436-.126-4.194 2.315-6.775.519-4.212-3.877 2.935-4.8 8.727-5.621 13.7-6.783 6.758-.077 20.111 1.944 19.948 10.786z"/><path d="m138.934 302.358c-2.141 4.563 5.363 7.745 7.126 3 2.14-4.558-5.36-7.74-7.126-3z"/><path d="m111.5 295.92c-4.635 0-4.643 7.2 0 7.2s4.646-7.2 0-7.2z"/><path d="m178.854 308.606c3.317 3.379 8.516-1.85 5.151-5.152-3.317-3.379-8.516 1.846-5.151 5.152z"/><path d="m220.605 303.236c3.187 3.247 8.183-1.778 4.95-4.95-3.187-3.246-8.183 1.778-4.95 4.95z"/><path d="m179.069 265.629c4.645 0 4.653-7.219 0-7.219s-4.652 7.219 0 7.219z"/><path d="m182.432 219.827c-3.207-3.267-8.234 1.789-4.981 4.981 3.208 3.267 8.235-1.789 4.981-4.981z"/><path d="m179.14 343.475c2.992 3.047 7.68-1.668 4.646-4.645-2.986-3.047-7.68 1.67-4.646 4.645z"/><path d="m145.581 335.445c-3.052-3.109-7.836 1.7-4.739 4.741 3.052 3.108 7.835-1.703 4.739-4.741z"/><path d="m132.332 239.512v-.039c.021 5.521 8.649 4.313 7.307-1.018-1.032-4.125-7.432-3.155-7.307 1.057z"/><path d="m205.535 237.677c-3.327-3.389-8.543 1.856-5.167 5.168 3.326 3.389 8.542-1.856 5.167-5.168z"/><path d="m88.218 217.9c3.116 3.174 8-1.738 4.838-4.839-3.115-3.176-7.998 1.739-4.838 4.839z"/><path d="m242.416 215.488c1.205 4.517 8.244 2.59 6.961-1.92-1.205-4.516-8.243-2.59-6.961 1.92z"/><path d="m268.03 235.694c3.257 3.421 8.6-1.672 5.215-5.011-3.173-3.291-8.545 1.71-5.215 5.011z"/><path d="m79.543 253.252c2.133 3.779 8.065.594 6.28-3.259-1.844-4.559-8.761-.893-6.28 3.259z"/><path d="m252.7 251.473c3.329 3.391 8.548-1.857 5.17-5.171-3.33-3.391-8.549 1.857-5.17 5.171z"/><path d="m139.661 429.257c-3.623-2.178-6.95 3.526-3.288 5.626 3.627 2.178 6.949-3.527 3.288-5.626z"/><path d="m316.156 126.043c5.152 10.507 23.722 1.009 14.243-2.12-2.748.348-7.858 2.947-9.249-.766-1.235-3.3 2.139-5.387 3.639-7.765a2.424 2.424 0 0 0 -2.708-3.523c-5.711 1.418-8.348 9.199-5.925 14.174z"/><path d="m335.623 308.606c3.317 3.379 8.516-1.85 5.151-5.152-3.317-3.379-8.516 1.846-5.151 5.152z"/><path d="m377.374 303.236c3.187 3.247 8.183-1.778 4.95-4.95-3.187-3.246-8.183 1.778-4.95 4.95z"/><path d="m335.838 265.629c4.645 0 4.653-7.219 0-7.219s-4.652 7.219 0 7.219z"/><path d="m339.2 219.827c-3.207-3.267-8.235 1.789-4.98 4.981 3.208 3.267 8.235-1.789 4.98-4.981z"/><path d="m335.909 343.475c3.079 3.013 7.643-1.585 4.646-4.645s-7.68 1.67-4.646 4.645z"/><path d="m362.3 237.677c-3.424-3.351-8.5 1.764-5.167 5.168s8.546-1.856 5.167-5.168z"/><path d="m405.218 211.976c-3.287-3.348-8.439 1.833-5.1 5.1 3.282 3.353 8.434-1.829 5.1-5.1z"/><path d="m423.774 233.22c0 4.645 7.342 4.665 7.291 0 .078-4.674-7.322-4.635-7.291 0z"/><path d="m414.638 246.3c-3.329-3.392-8.548 1.857-5.17 5.171 3.332 3.393 8.548-1.855 5.17-5.171z"/><path d="m434.806 258.7c6.209-4.636 11.814-10.655 15.211-17.647 1.406-6.271-6.549-14.525-10.32-18.72-10.408-11.578-25.108-22.372-40.341-27.338-.214-5.8-2.025-11.186-7.037-14.665-5.705-3.28-11.769-6.946-18.136-8.657 3.5-9.02-2.4-21.865-13.019-22.037a44.9 44.9 0 0 0 3.188-6.57c10.261 2.286 18.764-10.615 19.782-19.788 1.388-7.146-2.255-17.73-11.144-16.144 13.412-45.375-12.255-76.485-59.47-67.4 6.809-18.738-14.212-30.791-30.309-22.7-20.225 6.954-31.679 43.691-3.786 47.832-6.825 13.684-7.235 30.461-3.519 44.934-21.655 3.043-7.7 43.648 11.47 35.335a37.01 37.01 0 0 0 2.9 4.946c-7.052 3.188-10.443 14.349-6.906 20.818-11.284 3.547-24.548 10.539-29.114 22.048-1.509 1.357-2.424 3.879-4.595 4.772a73.062 73.062 0 0 0 -7.074-2.719c-.213-5.8-2.025-11.186-7.037-14.665-5.705-3.28-11.769-6.946-18.136-8.657 3.5-9.02-2.4-21.865-13.019-22.037a44.9 44.9 0 0 0 3.188-6.57c10.261 2.286 18.764-10.615 19.783-19.788 1.387-7.147-2.256-17.73-11.145-16.144 13.413-45.375-12.255-76.485-59.469-67.4 6.808-18.738-14.213-30.791-30.31-22.7-20.224 6.954-31.679 43.691-3.786 47.832-6.829 13.685-7.235 30.462-3.519 44.937-21.654 3.043-7.7 43.649 11.47 35.335a37.117 37.117 0 0 0 2.9 4.946c-7.051 3.188-10.443 14.349-6.905 20.818-10.674 3.219-28.843 12.549-29.315 24.957-12.677 2.924-53.974 33.085-46.6 47.426a50.2 50.2 0 0 0 13.139 14.752c10.847 20.069-1.087 54.932-1.589 77.784-7.686 5.619-7.994 18.254-1.247 24.532-1.919 14.667-2.106 29.709-3.032 44.457.216 22.765-11.277 58.061 9.238 74.072 8.051 6.148 19.09 8.481 28.755 5.067a3.616 3.616 0 0 0 2.435-3.961 390.836 390.836 0 0 1 10.619-104.939c10.1 4.03 18.494 11.218 26.822 18.118.95 8.108 0 16.444.937 24.588a2.915 2.915 0 0 0 5.827 0 160.033 160.033 0 0 0 .114-19.455c18.207 13.633 41.971 18.267 62.2 6.366 4.77 24.447 5.8 49.422 8.305 74.164.3 4.409 7.018 4.508 6.937 0-.209-15.679-1.976-31.344-3.7-46.911-1.826-19.77-4.653-36.018 18.326-42.779 13.989 5.872 13.811 34.067 16.239 47.422 2.019 11.325-.215 36.063 7.811 43.857a3.447 3.447 0 0 0 3.253 1.829c15.882 4.562 33.259-6.988 37.594-22.3 4.47-19.589 3.608-40.471 1.6-60.4 17.664 12.748 41.268 16.939 60.325 4.732 4.829 24.571 5.857 49.677 8.378 74.549.3 4.409 7.018 4.508 6.937 0 .085-22.353-4.7-44.456-4.783-66.756.545-7.2 2.041-13.673 8.277-17.56 7.643-4.781 16.006-8 25.325-6.986a591.065 591.065 0 0 1 8.095 60.423c.848 10.179 1.763 20.566 1.426 30.8a3.308 3.308 0 0 0 3.591 3.5c26.931 2.872 23.49-28.181 21.992-46.205-2-26.633-3.071-53.391-5.793-79.953 4.685-7.63 4.576-16.587-1.016-23.807.741-12.638-.769-25.548-1.148-38.207-.43-11.946-1.776-23.7 1.93-35.383zm-304.283-153.143c.645-19.949 15.189-36.469 35.847-35.434 20.027-.456 38.7 8.575 39.253 30.646 2.214 30.452-2.711 63.863-41.46 58.444-30.079-.962-34.12-29.281-33.64-53.656zm156.769 0c.645-19.949 15.189-36.469 35.847-35.434 20.027-.456 38.7 8.575 39.252 30.646.512 15.959 1.366 34.561-8.365 48.046-3.263-18.585-25.5-18.018-19.929-11.161 3.274 3.492 6.37 4.955 7.47 10.037 4.656 11.383-9.2 12.44-17.141 11.8-13.823-1.385-10-13.752-3.186-21.019 4.318-8.926-20.668-5.246-17.626 15.986-15.538-10.164-16.335-32.1-16.322-48.901zm-179.803 88.043c2.5-7.118 15.56-16.975 21.97-9.947a174.591 174.591 0 0 0 6.38 28.445c3.783 11.63 10.317 22.062 14.46 33.466q-5.055 2.829-10.094 5.688c-1.857 1.053-3.518 2.5-5.679 2.37-2.192-.133-3.4-1.813-4.826-3.347-14.246-15.385-19.929-36.375-22.211-56.675zm322.183 155.9c-3.186 4.135-7.716 7.578-12.531 6.354-2.909-4.63-5.114-9.9-3.486-15.451a49.233 49.233 0 0 0 14.417-3.366 12.551 12.551 0 0 1 1.6 12.463zm-123.005 32.24c-1.773-7.825-1.814-15.984-3.242-23.847 31.327 7.176 72.669 7.706 93.994-20.392 13.68 17.376-3.76 27.988-18.746 34.156-6.844 3.354-12.285 7.738-17.9 12.831-17.016 16.003-37.499 11.098-54.106-2.748zm58.625-94.28c.671 10.988.823 22.016.409 33.018-9.879 1.549-20.387.683-30.1 2.8-11.891 10.409 25.761 4.921 29.742 4.182-.507 6.9-.287 14.323-4.457 20.191-9.443 1.906-19.135 2.382-28.71 2.451-2.152-20.161-3-40.408-3.172-60.671a337.621 337.621 0 0 0 36.288-1.971zm-104.92 68.394c-2.909-4.63-5.113-9.9-3.486-15.451a49.247 49.247 0 0 0 14.418-3.366c6.914 8.44-1.204 20.591-10.932 18.817zm-43.708-51.938q-.114-8.666-.769-17.325 10.683-1.371 21.273-3.384c.232 9.655.061 19.317-.45 28.961-6.754 2.071-13.171 5.733-20.269 6.892.197-5.046.282-10.097.215-15.144zm105.463-21.255q-9.128-.12-18.273-.651c-4.151-.243-4.081 6.091 0 6.422q9.128.738 18.285.928c.079 11.3.406 22.591 1.056 33.867a196.736 196.736 0 0 1 -27.266-1.841c-.482-14.638-1.416-29.408-.4-44.026 4.028-12.939 16.851-17.262 13.763-36.094a30.232 30.232 0 0 0 13.519 1.34c-.362 13.349-.693 26.701-.684 40.055zm70.64 40.188c-1.035 5.24-4.068 9.928-6.718 14.516a58.983 58.983 0 0 1 -14.953 7.543c1.715-5.923 1.327-12.914 1.766-18.713a86.05 86.05 0 0 0 20.138-6.328q-.109 1.491-.233 2.982zm-76.5-87.785a22.267 22.267 0 0 1 -9.317-2.846 30.513 30.513 0 0 0 -4.762-8.89 28.762 28.762 0 0 0 1.746-13.5 43.133 43.133 0 0 0 19.81 4.543c-.479 6.864-.624 13.783-.76 20.678-2.294.051-4.492.167-6.722.015zm-69.167 97.628a53.633 53.633 0 0 1 -3.869-7.036 329.629 329.629 0 0 0 1.251-36.688c5.926-7.244 14.895-10.484 23.539-12.565.842 17.695.514 35.517 1.82 53.183-5.607 2.614-16.729 6.3-22.741 3.106zm55.9 14.92c-4.024-4.849-5.832-12.689-6.661-19.328a169.191 169.191 0 0 0 27.291 1.654q.7 10.062 1.774 20.1a127.3 127.3 0 0 1 -22.404-2.426zm-86.971-20.273c.025-.381.04-.763.064-1.144a86.035 86.035 0 0 0 20.142-6.328c-.053 6.461-3.831 12.064-6.956 17.5a59.519 59.519 0 0 1 -14.947 7.527c1.611-5.467 1.347-12.23 1.697-17.555zm188.091 5.479a78.329 78.329 0 0 1 -4.109-7.324 328.413 328.413 0 0 0 1.239-36.526c4.712-5.706 11.654-9.193 18.433-11.258.469 12.678 1.425 25.294 2.412 37.926.611 7.091-3.749 13.174-8.175 17.946-3.62.572-7.165.524-9.8-.764zm-10.184-49.61c.233 9.655.062 19.316-.45 28.96-6.753 2.071-13.17 5.733-20.268 6.892a278.705 278.705 0 0 0 -.554-32.467q10.686-1.377 21.272-3.385zm-108.126-100.208c1.394 2.01 2.4 4.239 3.614 6.357.01 6.716 1.423 13.436 1.549 20.132-7.092-6.562-14.5-13.33-23.571-17.568a28.182 28.182 0 0 1 -.4-2.947c3.969-4.924 13.044-10.601 18.808-5.974zm-63.082 76.982a43.537 43.537 0 0 1 10.025 4.423c1.406 4.046 1.569 8.338 1.8 12.566q-9.59 1.773-19.23 2.989a149.545 149.545 0 0 0 -2.16-17.069c3.319-1.146 6.137-3.77 9.565-2.905zm-35.755-24.563c-2.906.256-6.291-.129-8.972 1.242-1.656.949-1.948 3.914 0 4.777 2.006.889 4.011.689 6.157.615-.671 2.881-3.554 6.527-.41 8.941 7.093 4.476 14.305 9.395 22.376 11.914.365 5.956 1.415 11.953 1.923 17.882q-17.861 1.859-35.836 1.91c-.142-22.906 1.841-45.985 1.315-68.892a64.053 64.053 0 0 0 26.763-11.308c-2.845 11.577-8.13 22.269-13.316 32.923zm21.55 52.029c.672 10.99.823 22.021.409 33.026-9.879 1.549-20.387.683-30.1 2.8-11.891 10.409 25.761 4.921 29.742 4.182-.5 6.91-.294 14.342-4.471 20.217-9.456 1.927-19.05 2.32-28.681 2.572-2.164-20.217-3.014-40.521-3.187-60.841a339.421 339.421 0 0 0 36.288-1.952zm-39.866 62.793c-10.613-.2-21.183-1.435-31.279-4.716-1.188-5.975-2.048-11.982-2.651-18.013a174.887 174.887 0 0 0 32.134 2.415c.471 6.784 1.057 13.557 1.796 20.318zm-38.8-7.48c-10.131-4.024-20.806-10.968-22.94-22.118a119.062 119.062 0 0 0 20.666 5.608c.5 5.539 1.24 11.049 2.275 16.514zm-24.121-29.348a237.924 237.924 0 0 1 -.963-30.033c7.217 2.886 14.918 3.6 22.536 4.215a277.484 277.484 0 0 0 -.227 31.632c-7.182-1.735-14.182-3.973-21.345-5.81zm23.523-50.313c-.9 5.791-1.1 11.8-1.507 17.59a82.363 82.363 0 0 1 -20.024-3.448c.401-11.542 10.552-24.998 21.531-14.142zm250.241-3.114a43.556 43.556 0 0 1 10.025 4.423c1.406 4.046 1.569 8.338 1.8 12.567q-9.592 1.771-19.231 2.981a149.45 149.45 0 0 0 -2.159-17.062c3.316-1.15 6.131-3.774 9.565-2.909zm-35.755-24.563c-2.906.256-6.291-.129-8.972 1.242-1.656.949-1.948 3.914 0 4.777 2.006.889 4.011.689 6.157.615-.671 2.88-3.554 6.527-.411 8.941 7.094 4.476 14.306 9.395 22.377 11.914.365 5.952 1.413 11.945 1.921 17.869q-17.858 1.851-35.834 1.906c-.142-22.9 1.841-45.974 1.315-68.875a64.053 64.053 0 0 0 26.76-11.312c-2.846 11.576-8.13 22.269-13.316 32.923zm-124.167 16.489c-.162.015-.324.031-.486.054.07-.088.143-.175.213-.264.095.07.181.141.273.21zm-8.342-2.323c-3.438 4.795-6.129 4.064-10.5.977q-5.037-2.855-10.089-5.684c7-16.706 16.276-32.783 18.879-51.026 4.636-5.421 15.132-2.032 18.992 3.143 5.538 8.078-.348 17.977-1.686 26.208a78.458 78.458 0 0 1 -15.596 26.382zm-44.266-35.221c-.486 6.959-.628 13.974-.766 20.964a51.242 51.242 0 0 1 -13.175-1.424c-4.292-9.115-8.971-18.15-11.61-27.951 6.764 5.86 16.775 8.482 25.551 8.411zm-10.2 26.8a55.387 55.387 0 0 0 9.29.636c-.366 13.619-.716 27.24-.7 40.865q-10.72-.149-21.458-.874c-4.108-.28-4.03 6 0 6.36q10.717.963 21.47 1.176c.078 11.306.406 22.61 1.056 33.895a180.621 180.621 0 0 1 -32.268-2.5c-1.4-18.664.18-37.329 1.34-55.964 5.226-.523 11.335-3.927 15.571-6.671 7.144-4.13 8.864-9.833 5.073-17.019.211.034.422.064.629.096zm-80.104 99.787c-8.645-1.657-7.577-5.482-6.4-12.759 1.572-18.215 7.66-35.511 9.013-53.859 6.258 1.047 11.172 4.475 16.263 8.079 1.345 14.434.358 29.361.631 43.9.318 8.989-10.753 18.091-19.507 14.639zm299.681-89.043c-.162.015-.324.031-.486.054.07-.088.143-.175.213-.264.091.07.181.141.273.21zm-8.347-2.323c-3.437 4.795-6.128 4.064-10.5.977q-5.038-2.855-10.089-5.684c6.892-16.526 16.113-32.4 18.771-50.417 5.523-3.454 15.15 1.407 18.115 6.434 4.854 17.201-5.122 35.915-16.297 48.69zm-101.061-33.451a85.818 85.818 0 0 1 12.792 11.925c3.182 7.259 2.8 16.33-3.065 22.14a120.636 120.636 0 0 0 -19.327-18.429c4.643-4.218 7.281-10.016 9.6-15.636zm-13 22.336a116.143 116.143 0 0 1 17.02 16.76c-10.9 6.207-22.5 4.757-33.054-.148 4.058-3.943 9.921-7.988 10.963-13.821.226-2.479-2.656-3.434-4.5-2.584-2.864 1.319-4.815 5.274-6.945 7.579-1.8 1.954-3.766 3.719-5.727 5.5a81.043 81.043 0 0 1 -8.348-5.861 104.842 104.842 0 0 0 10.118-20.282c6.834 4.297 14.052 7.759 20.474 12.857zm-144.106 102.031c.016-.121.03-.242.045-.363 23.612 23.188 82.1 28.382 111.168 13.432 7.056-.331 11.137 8.372 8.734 14.395-4.132 2.046-8.457 3.79-12.411 6.046-13.791 9.011-21.993 22.809-40.861 20.658-16.659-2.18-28.214-16.172-43.076-22.87-17.416-9.803-29.605-6.203-23.599-31.298zm142.121 24.015c6.9 1.633 13.783-.436 20-2.761 1.322 25.389 3.348 50.713 4.988 76.076a25.216 25.216 0 0 1 -13.043 1.891c-2.706-25.22-6.22-50.444-11.945-75.206zm12.6 82.35a27.231 27.231 0 0 0 13.342-1.226c.048 10.416 1.941 28-12.052 28.95.082-9.246-.529-18.528-1.29-27.724zm130.121-191.784c4.058-3.943 9.921-7.988 10.963-13.821.226-2.479-2.656-3.434-4.5-2.584-2.865 1.319-4.815 5.274-6.945 7.579-1.806 1.954-3.766 3.719-5.727 5.5a81.274 81.274 0 0 1 -8.349-5.861 104.846 104.846 0 0 0 10.119-20.282c14.029 7.708 27.508 16.831 37.5 29.62-10.909 6.204-22.506 4.754-33.061-.151zm14.345-27.086c-5.142-3.67-10.754-7.14-16.558-9.145a111.78 111.78 0 0 0 2.95-12.865c6.883-3.2 15.258 2.652 21.7 7.205-1.597 5.475-5.212 10.039-8.092 14.805zm-58.805-64.774c7.127-1.084 15.447 5.583 13.69 13.01-12.276 13.164-36.835 32.764-53.853 18.704a2.831 2.831 0 0 0 -.5-1.24c14.048-9.589 27.998-18.964 40.663-30.472zm-89.373 48.421c-1.58 6.069-5.345 11.161-8.591 16.353-5.142-3.67-10.754-7.14-16.558-9.145a112.457 112.457 0 0 0 3.811-18.989c7.346 3.611 14.557 7.186 21.338 11.783zm-68.374-47.485a9.93 9.93 0 0 0 2.663-.291c7.91.871 11.991 7.2 9.9 14.864-12.739 11.882-35.32 29.858-51.749 16.2a2.846 2.846 0 0 0 -.5-1.24c13.734-9.312 27.158-18.495 39.686-29.531zm-78.08 77.041c1.038 1.8 2.22 3.825 3.531 5.875a72.44 72.44 0 0 1 -12.073 7.548c-3.286-3.988-8.429-6.706-11.234-11.347-1.277-1.749-2.344-4.487-3.857-6.5a154.749 154.749 0 0 1 16.752-10.389 96.5 96.5 0 0 0 6.881 14.815zm-29.8.166a47.767 47.767 0 0 0 13.581 16.295c-9.214 2.82-19.308 2.414-28.214-3.591 5.054-4.025 9.393-8.893 14.629-12.702zm-19.597 102.231c7.644 5.461 16.5 6.333 25.962 6.428-.212 5.076-3.714 11.469-9.347 11.769-9.321-1.01-22.906-7.497-16.615-18.197zm.2 56.294c.67-11.2 1.86-22.548 2.094-33.81 8.255 4.623 17.363 7.949 25.8 12.3q-.141 13.281-.853 26.55c-.517 9.494-.282 19.681-4.767 28.2-8.148.115-18.877-.156-23.756-7.661q.722-12.788 1.479-25.573zm371.309-171.831c3.182 7.259 2.8 16.33-3.065 22.14a120.678 120.678 0 0 0 -19.327-18.429c4.6-4.169 7.214-9.9 9.528-15.456.069-.022.137-.049.2-.076a85.412 85.412 0 0 1 12.664 11.821zm-74.145-169.722c4.143 6.788 3.741 14.045-1.283 20.33-26.708-27.392-77.836-16.8-80.026 24.873-2.183-11.361-1.423-23.912 3.468-34.554 12.86-27.706 58.417-33.222 77.841-10.649zm-92.855-14.655c.607-15.265 29.547-35.3 29.928-9.569-.055 5.764-2.8 9.717-6.624 13.214-3.362 3.455-6.4 7.485-9.523 11.263-8.815.592-15.526-5.888-13.781-14.908zm2.641 82.795c-.9-3.375.247-12.642 5.889-9.362 2.158 6.145 7.1 16.855 2.407 21.958-4.429-1.377-7.555-8.207-8.294-12.596zm17.15 34.8c1.071-2.48 2.907-3.8 4.864-5.093 8.713 9.747 20.9 13.559 33.434 16.6-5.636 4.408-11.381 8.664-17.392 12.554-7.618-3.933-24.353-13.731-20.904-24.06zm-78.906-94.5c.555 2.548 1.656 4.543 1.026 7.354-.661 3.009-3.03 6.3-6.474 5.3-26.089-28.348-78.532-17.977-80.661 24.106-2.184-11.361-1.423-23.912 3.467-34.554 13.884-30.343 69.208-34.649 82.644-2.207zm-97.652-23.095a27.413 27.413 0 0 1 15.4-20.339c11.418-5.937 16.6 9.6 11.34 17.954-3.526 7.231-9.985 12.918-16.69 17-7.211-.511-11.472-7.826-10.05-14.615zm2.641 82.795c-.9-3.375.247-12.642 5.889-9.362 2.158 6.145 7.1 16.855 2.407 21.958-4.43-1.377-7.557-8.207-8.296-12.596zm17.15 34.8c1.071-2.48 2.907-3.8 4.864-5.093 8.712 9.747 20.9 13.559 33.434 16.6-5.636 4.408-11.381 8.664-17.392 12.554-7.62-3.933-24.355-13.731-20.906-24.06zm-57.973 55.496a54.642 54.642 0 0 0 4.054 10.758c1.972 4.06 8.024.507 6.058-3.541-1.881-3.827-2.789-7.851-4.217-11.831 6.591-4.714 13.676-8.3 20.953-11.9a112.682 112.682 0 0 0 3.648 18.627c-14.775 8.179-29.112 18.462-40.138 31.309-5.544-4.428-6.154-11.863-4.67-18.475 3.826-5.683 9.348-10.788 14.312-14.947zm-11.575 221.428q.1-1.731.2-3.464c7.058 4.259 14.787 5.838 23.309 6.087.095 9 2.5 33.1-8.019 36.075-16.826-5.193-17.176-24.103-15.49-38.698zm347.571-65.639c6.253 1.893 12.606 4.1 19.043 5.07 1.53 20.078 2.645 40.127 4.117 60.2a25.216 25.216 0 0 1 -13.043 1.891c-2.322-22.544-5.613-44.893-10.117-67.161zm22.222 94.664a10.753 10.753 0 0 1 -10.156 7.364c.082-9.246-.529-18.528-1.29-27.724a27.231 27.231 0 0 0 13.342-1.226c.205 7.364.535 14.879-1.896 21.586z"/><path d="m144.023 112.439c1.162 6.483 9.817 5.156 10.619-.869 4.921 2.13 8.411-4.82 3.224-6.551-6.156-1.14-12.631.3-18.656 1.3-4.202 3.413.816 7.081 4.813 6.12z"/><path d="m179.043 112.439c1.162 6.483 9.817 5.156 10.619-.869 4.921 2.13 8.411-4.82 3.224-6.551-6.156-1.14-12.631.3-18.656 1.3-4.202 3.412.816 7.081 4.813 6.12z"/><path d="m301.4 108.521c1.162 6.483 9.817 5.155 10.619-.87 4.921 2.13 8.41-4.82 3.223-6.551-6.155-1.14-12.631.3-18.655 1.3-4.202 3.413.813 7.081 4.813 6.121z"/><path d="m336.42 108.521c1.162 6.483 9.817 5.155 10.619-.87 4.921 2.13 8.411-4.82 3.223-6.551-6.155-1.14-12.631.3-18.655 1.3-4.207 3.413.816 7.081 4.813 6.121z"/></g></svg>