<svg height="512" viewBox="0 0 500 500" width="512" xmlns="http://www.w3.org/2000/svg"><g id="Layer_4" data-name="Layer 4"><path d="m269.124 132.975s74.754-41.995 143.188 23.41 39.709 163.755 39.709 163.755-33.035 80.418-117.25 23.737-65.647-210.902-65.647-210.902z" fill="#d6969c"/><path d="m412.311 156.385c-18.781-17.95-38.037-27.8-56.095-32.659a75.92 75.92 0 0 1 26.542 25.53 4.135 4.135 0 0 1 -5.489 5.839 109.61 109.61 0 0 0 -68.333-12.732c-2.6 4.4.881 10.287 5.538 12.387s9.993 1.668 15.1 1.867c27.6 1.078 51.166 21.883 64.36 46.152 4.9 9.007 8.778 18.985 8.224 29.222-.839 15.484-11.6 28.676-23.571 38.54s-25.69 17.707-36.217 29.092a80.25 80.25 0 0 0 -18.7 35.727 113.069 113.069 0 0 0 11.107 8.527c84.215 56.682 117.25-23.737 117.25-23.737s28.718-98.349-39.716-163.755z" fill="#af616a"/><path d="m341.391 432.515a15.824 15.824 0 0 1 -4.169-4.2 14.013 14.013 0 0 1 -1.468-5.013 83.29 83.29 0 0 1 2.865-37.039c2.6-8.325 6.525-16.261 8.208-24.819 1.125-5.726 1.223-11.613 2.28-17.352 2.541-13.8 10.578-26.139 20.693-35.858s22.258-17.054 34.595-23.729c-1.184-15.24-10.179-28.765-20.359-40.167s-21.888-21.552-30.452-34.214c-9.032 1.5-12.968 11.963-15.833 20.659a201.9 201.9 0 0 1 -19.384 41.927c-4.214 6.907-8.935 13.658-15.225 18.748-8.867 7.175-20.2 10.532-31.4 12.69-12.632 2.435-25.891 3.524-38.217-.162-22.378-6.691-37.283-27.458-48.9-47.718-8.742-15.239-16.674-31.07-21.662-47.916l-2.632 5.414a73.972 73.972 0 0 0 -10.931 41.994c.228 5.01-1.964 21.393-2.785 24.638-3.139 12.421 1.795 25.24 4.249 37.815 1.407 7.212 1.992 14.7.5 21.892-1.536 7.416-5.226 14.31-6.225 21.817-1.5 11.3 3.237 22.637 2.4 34.006-.253 3.447-1.019 6.852-1.094 10.308-.206 9.5 4.738 18.246 9.53 26.445 3.8 6.5 10 14.028 17.193 11.77 3.757-1.18 6.162-4.75 9.295-7.136s8.579-3.041 10.282.509c.957 2 .206 4.356-.594 6.42-6.043 15.6-14.626 31.392-12.506 47.988q96.455-.45 192.891-2.618a2.65 2.65 0 0 0 2.177-.739 2.553 2.553 0 0 0 .335-1.5c.145-22.237-16.202-41.09-33.657-54.86z" fill="#e8bab3"/><path d="m384.036 244.339c-10.181-11.4-21.888-21.552-30.452-34.214-9.032 1.5-12.968 11.963-15.833 20.659a201.9 201.9 0 0 1 -19.384 41.927c-4.214 6.907-8.935 13.658-15.225 18.748-8.867 7.175-20.2 10.532-31.4 12.69-12.632 2.435-25.891 3.524-38.217-.162-22.378-6.691-37.283-27.458-48.9-47.718-4.311-7.515-8.422-15.174-12.083-23.027 2.927 22.715 8.375 44.975 22.091 62.919a81.621 81.621 0 0 0 126.31 4.144c7.7-8.809 13.579-19.346 22.741-26.622a14.206 14.206 0 0 1 5.222-2.9 11.682 11.682 0 0 1 7.281.856c11.792 4.963 14.49 19.085 19.314 31.57 8.837-7.3 18.794-13.236 28.9-18.7-1.19-15.243-10.185-28.768-20.365-40.17z" fill="#ba7170"/><path d="m374.72 488.875a2.553 2.553 0 0 0 .335-1.5c.138-22.233-16.209-41.086-33.664-54.856a15.824 15.824 0 0 1 -4.169-4.2 14.013 14.013 0 0 1 -1.468-5.013 83.29 83.29 0 0 1 2.865-37.039c.789-2.523 1.7-5.009 2.633-7.488-31.163-17.438-63.1-33.625-83.949-62-2.491-3.391-4.795-6.925-7.168-10.4a60.373 60.373 0 0 1 -16.612-2.383 59.057 59.057 0 0 1 -21.165-11.78c-.582 9.294 2.1 18.785 6.609 27.021 5.6 10.241 13.816 18.8 22.364 26.745 4.822 4.483 9.821 8.859 13.714 14.169 11.962 16.315 11.582 38.284 10.7 58.5a138.252 138.252 0 0 0 -51.856-4.721c2.916 14.561 13.4 26.818 26.059 34.578s27.375 11.5 42.037 13.858c12.072 1.942 26.006 4.08 32.307 14.559 2.484 4.131 3.346 9.008 4.162 13.759v.013q27.045-.472 54.088-1.069a2.65 2.65 0 0 0 2.178-.753z" fill="#ba7170"/><path d="m233.523 303.987s40.728 76.622 111.042 86.217a28.823 28.823 0 0 0 12.258-26.472s-64.785-14.249-85.083-59.583z" fill="#e28aa3"/><path d="m252.748 405.213v23.487h33.777s7.091-14.159 4.228-26.14z" fill="#d1e3ed"/><path d="m338.591 185.165c-6.065-5.4-13.478-9.169-19.321-14.812-13.53-13.069-16.251-33.422-18.2-52.131-.5-4.813-1-9.724.026-14.454 1.488-6.856 6.044-14.167 2.578-20.267-1.335-2.35-3.666-3.965-5.251-6.154-2.627-3.63-2.935-8.382-3.241-12.852-.632-9.248-1.705-18.651-5.517-27.1s-10.792-15.915-19.774-18.208c-3.185-.813-6.588-.985-9.505-2.5-4.767-2.473-7.93-8.333-13.293-8.608-5.845-.3-8.792 8.7-14.639 8.948-27.293 1.159-39.856 29.449-41.959 39.536s-2.139 20.511-4.124 30.623a35.332 35.332 0 0 0 -1.12 8.6 51.491 51.491 0 0 0 1.434 7.461c1.145 5.623.81 11.429.471 17.157-.991 16.706-2.159 34.05-10.263 48.692-5.031 9.09-12.826 17.585-12.709 27.973a38.646 38.646 0 0 0 1.527 9c4.629 18.235 9.835 36.6 19.46 52.76 14.352 24.1 39.343 42.48 67.233 45.478s57.758-11.111 70.3-36.2c7.934-15.881 8.894-34.812 18.387-49.814 2.4-3.792 5.365-7.384 6.444-11.741 1.944-7.895-2.879-15.984-8.944-21.387z" fill="#b5cce8"/><path d="m322.7 268.1c7.934-15.881 8.894-34.812 18.387-49.814 2.4-3.792 5.365-7.384 6.444-11.741 1.953-7.884-2.87-15.973-8.935-21.376s-13.483-9.169-19.326-14.816c-13.53-13.069-16.251-33.422-18.2-52.131-.5-4.813-1-9.724.026-14.454 1.488-6.856 6.044-14.167 2.578-20.267-1.335-2.35-3.666-3.965-5.251-6.154-2.627-3.63-2.935-8.382-3.241-12.852-.632-9.248-1.705-18.651-5.517-27.1s-10.792-15.915-19.774-18.208c-3.185-.813-6.588-.985-9.505-2.5-.076-.04-.148-.087-.224-.128 2.446 13.977-2.214 29.408-13.293 38.452-2.33 1.9-4.924 3.586-6.632 6.06-2.839 4.111-2.684 9.513-2.419 14.5a8.883 8.883 0 0 0 1.027 4.442c1.823 2.8 5.908 2.651 9.213 2.139 6.079-.942 12.538-1.956 18.191.471s9.612 9.813 6.2 14.93c-2.016 3.022-5.792 4.26-9.316 5.146a130.144 130.144 0 0 1 -37.193 3.8c-12.9-.548-26.783-2.788-38.633 1.213a71.551 71.551 0 0 1 .036 9.32c24.217 15.428 62.932 6.04 83.94 27.16 5.216 5.244 8.756 11.937 11.443 18.828 3.258 8.357 5.381 17.25 5.255 26.218-.27 19.432-14.538 33.085-30.683 43.9-12.322 8.257-47.69 14.432-85.08-3.978a144.894 144.894 0 0 0 12.956 29.653c14.352 24.1 39.343 42.48 67.233 45.478s57.75-11.102 70.293-36.191z" fill="#8194c6"/><path d="m212.269 105.023c.191.019 66.081 0 66.081 0v55.728s-10.727 23.219-35.408 19.532-38.542-41.694-38.542-41.694z" fill="#f2fbff"/><path d="m385.183 289.929s-16.224 7.21-19.511 30.211 12.542 41.464 12.611 44.677 8.854 17.465 0 37.108 6.9 19.455 6.9 19.455-4.953 10.519 7.257 25.077c0 0 10.709 25.765 5.589 42.938h17.892s-1.486-25.016 3.719-45.013-7.018-27.338-7.018-27.338 23.811 1.951 9.8-22.592c0 0-12.645-8.581-18.025-22.9s-19.214-81.623-19.214-81.623z" fill="#f2fbff"/><path d="m79.2 378.029 18.285-2.586 26.7-11.711s11.775 15.122 2.645 22.39c0 0 15.7 9.416 5.167 18.909 0 0 7.244 7.327 0 18.741 0 0 12.591 7.657 2.908 16.58l-39.268 4.03s-21.731-51.166-16.437-66.353z" fill="#fff"/><path d="m201.505 392.7s11.645 13.931 51.875 13.931v21.257s-62.361-.216-51.875-35.188z" fill="#c46674"/><path d="m201.505 392.7s11.645 13.931 51.875 13.931v21.257s-62.361-.216-51.875-35.188z" fill="#e28aa3"/><path d="m291.385 403.974v24.87s41.442 6.367 42.239-26.919z" fill="#bf4c4c"/><path d="m66.3 363.732 66.3-16.676-4.2 14.744-6.69 3.018-24.222 10.625-25.494 2.586s-6.718-3.805-5.694-14.297z" fill="#ffda76"/><path d="m33.973 33.15s-12.2 23.892-10.538 35.045l58.389 288.446s31.592-4.021 26.646-45.061l-49.539-246.893s-6.656-22.273-24.958-31.537z" fill="#b6c0db"/><path d="m65.233 96.1-6.3-31.41s-6.658-22.276-24.96-31.54c0 0-12.2 23.892-10.538 35.045l47.041 232.387a47.777 47.777 0 0 0 6.138-10.055c3.328-7.755 3.539-16.475 3.025-24.9-1.087-17.841-5.17-35.341-8.75-52.853q-5.505-26.924-9.462-54.134c-2.06-14.17-3.8-28.661-1.18-42.739 1.245-6.689 3.453-13.181 4.986-19.801z" fill="#fff"/><path d="m173.175 444.451c3.757-1.18 6.162-4.75 9.295-7.136 2.437-1.856 6.267-2.654 8.652-1.25a69.374 69.374 0 0 0 8.861-15.336c3.711-9.351 4.293-20.5-.928-29.1-2.206-3.629-5.317-6.629-7.727-10.129s-4.132-7.874-3.014-11.975c.924-3.39 3.707-6.346 3.427-9.848-.244-3.058-2.755-5.4-3.945-8.226-2.8-6.657 2.116-14 2.142-21.224.02-5.455-2.765-10.5-5.724-15.08-9.072-14.05-20.491-26.452-32.644-37.942a41.543 41.543 0 0 0 -3.846-3.3c-.426 2.992-.838 5.44-1.1 6.5a39.841 39.841 0 0 0 -.572 14.936 203.143 203.143 0 0 1 24.7 35.339c2.367 4.3 4.619 8.817 5.07 13.7.767 8.314-3.738 16.131-5.221 24.348-1.575 8.726-.528 19.519-7.866 24.5-3.806 2.582-8.985 2.7-12.5 5.672a14.178 14.178 0 0 0 -3.671 5.4c-.055.646-.1 1.292-.113 1.94-.206 9.5 4.738 18.246 9.53 26.445 3.804 6.501 10.006 14.024 17.194 11.766z" fill="#ba7170"/><path d="m278.35 105.023s-65.89.019-66.081 0l-.2.865 9.773 12.378 14.631.1c6.757.048 13.864.188 19.705 3.584s9.678 11.244 6.354 17.127c-1.1 1.955-2.869 3.5-3.793 5.553-2.141 4.744.845 10.35-.232 15.442-.489 2.315-1.792 4.377-2.467 6.644s-.534 5.087 1.335 6.537c1.759 1.364 4.258.975 6.437.519l5.207-1.089a40.045 40.045 0 0 0 9.334-11.937z" fill="#aab7e3"/><path d="m422.42 394.452s-12.645-8.581-18.025-22.9-19.212-81.621-19.212-81.621-16.224 7.21-19.511 30.211a45.988 45.988 0 0 0 -.132 11.742c3-2.283 6.379-3.611 10.069-2.866 6.874 1.387 10.205 9.231 11.343 16.15 2 12.165 1.113 25.719 8.682 35.451 2.754 3.541 6.431 6.249 9.426 9.588s5.372 7.73 4.619 12.152c-.844 4.967-5.313 8.462-9.765 10.819s-9.382 4.212-12.707 8-4.165 10.41-.153 13.457c2.488 1.891 5.926 1.8 8.831 2.957 6.692 2.66 8.886 10.8 10.948 17.7a72.67 72.67 0 0 0 8.979 19.708c.254-8.838 1.163-20.383 3.828-30.62 5.2-20-7.018-27.338-7.018-27.338s23.811 1.958 9.798-22.59z" fill="#aab7e3"/><path d="m132 423.772c7.244-11.414 0-18.741 0-18.741 10.531-9.493-5.167-18.909-5.167-18.909 9.13-7.268-2.645-22.39-2.645-22.39l-20.416 8.954c4.755 5.146 3.394 14.629-2.679 18.166 3.788 1.349 7.725 3.418 9.3 7.116s-.865 9.061-4.879 8.821c5.165 3.046 10.305 7.909 9.9 13.891a5.836 5.836 0 0 1 -1.3 3.5c-1.787 2.012-4.9 1.833-7.535 2.354-6.185 1.219-10.186 6.567-13.167 12.389 1.35 3.4 2.222 5.454 2.222 5.454l39.268-4.03c9.689-8.918-2.902-16.575-2.902-16.575z" fill="#b1bec9"/><path d="m247.77 8.16c-.225-.032-.449-.068-.682-.08-5.845-.3-8.792 8.7-14.639 8.948-27.293 1.159-39.856 29.449-41.959 39.536-.071.342-.123.688-.19 1.031 1.462.121 2.937.2 4.431.2a53.163 53.163 0 0 0 53.039-49.635z" fill="#fff"/><path d="m128.4 361.8 4.2-14.743-31.326 7.879a19.185 19.185 0 0 1 -.463 12.519 27.292 27.292 0 0 1 -5.133 8.172l1.806-.183 24.225-10.626z" fill="#f48a4e"/><path d="m88.452 74.469 22.025 28.03 23.9 4.986s9.107-14.554 2.4-31.268-18.577-34.163-18.577-34.163l-4.351 35.62s-16.673-3.674-25.397-3.205z" fill="#ffc17d"/><path d="m454.724 50.6s-43.51 15.632-30.74 52.515l10.939 3.24s32.828-.95 39.081-25.747c0 0-11.814-3.173-23.363 1.256z" fill="#ffc17d"/><path d="m329.493 354.452a25.768 25.768 0 0 1 -2.657 6.814c-4.439 7.743-12.712 12.053-21.135 16.116a116.036 116.036 0 0 0 38.864 12.818 28.823 28.823 0 0 0 12.258-26.472 166.647 166.647 0 0 1 -27.33-9.276z" fill="#bf4c4c"/><path d="m286.641 325.964a77.853 77.853 0 0 1 -14.9-21.815l-38.217-.162a194.858 194.858 0 0 0 18.138 26.713 63.113 63.113 0 0 0 34.979-4.736z" fill="#bf4c4c"/><path d="m450.641 81.868.211-1.613c-11.015 6.6-21.652 3.722-27.96.734-1.8 6.3-1.843 13.653 1.092 22.13l10.939 3.24s32.828-.95 39.081-25.747c-.004 0-11.814-3.173-23.363 1.256z" fill="#f48a4e"/><path d="m134.374 107.485s9.107-14.554 2.4-31.268-18.574-34.163-18.574-34.163l-3.785 30.99c3.138 8.559 4.741 19.27.628 30.407z" fill="#f48a4e"/><path d="m234.058 414c.808 3.939.232 7.873-.7 11.811a123.042 123.042 0 0 0 20.024 2.071v-21.253a133.587 133.587 0 0 1 -24.147-2.009 20.992 20.992 0 0 1 4.823 9.38z" fill="#bf4c4c"/><path d="m254.241 405.109a34.881 34.881 0 0 1 7.42 3.453 23.59 23.59 0 0 1 10.284 12.738 23.065 23.065 0 0 1 .9 7.4h13.683s7.091-14.159 4.228-26.14z" fill="#9ab0c1"/></g><g id="Layer_5" fill="#3a3245" data-name="Layer 5"><path d="m250.43 126.928c-7-7.11-11.366 19.864-2.6 13.8a6.039 6.039 0 0 0 1.97 2.172 2.6 2.6 0 0 0 4.583-.761c.717-4.326-1.148-11.857-3.953-15.211z"/><path d="m208.713 95.484c4.738 0 4.746-7.363 0-7.363s-4.746 7.363 0 7.363z"/><path d="m246.881 93.891c3.528 3.595 9.058-1.968 5.479-5.479-3.528-3.594-9.06 1.968-5.479 5.479z"/><path d="m278.44 90.953c3.514 3.58 9.021-1.96 5.457-5.457-3.514-3.58-9.022 1.96-5.457 5.457z"/><path d="m250.921 57.123c-4.9-.078-4.892 7.627 0 7.563 4.902.078 4.892-7.627 0-7.563z"/><path d="m246.04 32c-1.289 4.662 5.547 7.151 7.057 2.346 1.826-4.708-5.738-7.236-7.057-2.346z"/><path d="m39.919 167.205c12.994 63.149 24.332 126.678 38.466 189.575-4.343 1.4-19.245 2.8-16.067 9.6-.335 6.843 2.028 15.367 9.667 16.007-2.528 5.964-1.264 13.928 3.741 17.991 2.03 5.993-1.446 11.8 4.689 16.822 3.489 6.656-3.012 13.7 5.372 19.234-1.623 6.71 3.074 15.233 10.952 13.6 2.754-.681 5.5-1.39 8.261-2.054 2.719 8.339 4.241 17.535 7.964 25.451 3.607 7.094 21.206 3.138 24.75-1.93 2.662-2.663-1.609-16.181-2.106-20.6 4.719 4.553 17.981 14.159 24.178 11.81 9.993-2.345 19.017-7.915 26.375-15.178a101.046 101.046 0 0 0 -7.735 23.433c-1.2 6.74-2.7 15.935.436 22.269 1.116 2.252 5.04 1.793 5.519-.721-1.753-26.5 9.309-44.553 20.238-67.584 9.731-1.736 18.548 2.767 27.834 4.648 10.466 4.946 19.861 11.9 30.5 16.5 17.992 7.807 41.154 11.327 60.012 4.438 2.671-.975 2.563-5.776-.729-5.386-18.8 2.872-38.487 2.924-56.063-5.205 13.188 1.743 26.493-2.6 39.661-3.268a173.784 173.784 0 0 1 25.533.534c25.755 7.68 36.014 30.931 40.01 55.382 1.14 2.719 5.4 3.429 6.27 0 2.2-20.254-14.267-41.926-25.051-58.046-3.787-5.4-7.051-10.406-10.874-15.947-1.189-4.013-.469-8.248.954-12.3a122.362 122.362 0 0 0 32.864-9.246c-1.2 4.642-3.448 9.066-3.56 13.938-.147 6.349 4.018 13.031 10.467 13.433-2.957 15.159 10.129 17.59 8.321 41.031.2 8.566.4 17.14.743 25.7.149 3.18 2.868 3.546 5.143 3.787 1.577 1.07 4.177 0 4.938-1.042a2.363 2.363 0 0 0 1.131-2.318c4.446-11.922.087-34.606-5.976-45.706-3.435-6.618-7.54-13.5-5.694-20.869 7.087-10.048 18.94-4.843 24.885 3.461 2.365 7.818-1.3 16.069-2.472 23.829a135.6 135.6 0 0 0 -.742 39.184c.577 4.2 6.854 2.871 7.065-.956.427-7.744-.431-15.561-.132-23.332-.556-15.62 10.309-33.013.04-47.105 1.944-.317 4.776-1.194 5.606-3.231 5.362-4.825 5.91-13.051 2.86-19.452-3.974-8.337-12.524-12.885-17.729-20.158 79.983-55.976 63.057-183.034-11.318-235.976 0-.062 0-.124 0-.186 4.449-4.778 7.827-9.473 12.006-14.314 6.676-7.085 11.894-17.514 22.976-17.7 6.294-.126 11.71 1.926 18.018-.031 12.115-3.758 19.981-14.888 25.8-25.5 8.184-16.2-17.555-9.02-24.987-6.366 1.239-4.175 1.975-8.615 2.915-12.764.906-4 3.725-10.292 1.457-14.312-2.881-5.105-8.053-.96-11.229 1.27-8.845 6.209-20.439 12.31-25.714 22.206-2.523 4.734-3 9.787-2.358 15.061 5 20.24-14.1 33.947-24.561 48.722-25.251-16.2-57.566-27.044-87.818-21.5-.079-5.17-.1-10.341-.144-15.514a3.217 3.217 0 0 0 3.133-2.75c1.019-7.284 2.812-19.366-5.812-22.392-.076-11.431-1.249-22.464-4.865-33.2-5.193-15.752-20.18-30.12-37.5-30.081-4.149-10.325-24.068-9.289-28.346.682-33.225 5.668-48.887 37.617-47.531 68.95-4.069 4.876-7.468 18.5-.892 22.5.2 21.021-2.419 42.243-9.265 62.186-11.487-18.4-23.785-36.563-33.69-55.732-2.32-11.575 2.619-23.371-.983-35.1-4.086-13.3-12.621-25.763-19.332-37.862-1.332-2.4-5.614-2.089-6.158.805-2.086 11.115-3.442 22.819-2.55 34.192-7.992-2.213-17.019-3.794-24.4-1.615-7.878 1.76 6.32 15.493 8.508 18.527 3.981 5.108 7.756 10.934 12.988 14.876 5.332 4.017 10.76 3.58 16.969 4.926 8.3 1.324 10.614 10.017 14.822 16.059q14.864 24.339 30.442 48.215c-17.215 22.079-5.884 20.3-13.917 41.195-7.634 15.772-12.573 32.366-12.438 50-.192 6-2.439 10.561-3.959 16.189-1.271 4.707-.373 8.779.926 13.357 3.473 12.236 4.923 24.834 5.537 37.509.256 4.193-1.76 8.27-4.059 11.542a3.79 3.79 0 0 0 -3.827-1.574c-7.152 1.229-14.248 2.718-21.306 4.379-16.703-90.516-35.872-180.586-53.437-270.945-1.316-6.613-2.306-13.283-5.352-19.375-5.305-10.609-14.883-19.424-24.865-25.553-2.009-1.233-4.08.08-4.865 1.98-4.491 10.874-9.514 23.432-8.9 35.424 4.701 33.362 13.537 66.328 19.366 99.567zm425.681-85.663c1.192-.158 3.775-.779 5.867-.93-11.342 18.146-16.913 24.351-38.889 22.048 8.91-9.747 18.966-20.152 33.022-21.118zm-38.231-6.378c6.182-7.97 15.242-12.9 23.273-18.967-2.132 8.289-3.087 16.55-6.3 24.62-6.955 4.983-12.274 12.383-18.272 18.334-.755-8.217-3.755-16.599 1.298-23.987zm-293.489 5.306c1.245 5.969-.176 12.469-.864 18.781-4.448-7.3-14.821-24.7-14.821-24.7.083-8.409.192-16.614 1.1-24.869 5.073 10.126 11.982 19.629 14.585 30.788zm-13.574 21.186c-11.727-1.456-18.574-16.756-26.184-24.894a66.6 66.6 0 0 1 19.622 3.381c4.19 7.6 8.733 14.872 13.089 22.356-2.082-.381-4.246-.599-6.527-.843zm-51.213 266.569c-.046-.286-.093-.548-.142-.8 18.92-5.524 37.26-11.271 56.488-15.4.539 2.565 1.229 5.765-.622 7.721-5.036.579-9.789 4.235-14.206 6.428a87.425 87.425 0 0 1 -18.878 6.737c-6.158 1.1-13.133 3.07-19.371 2.4-3.199-.865-2.849-4.465-3.269-7.086zm105.833-59.085c10.665 9.146 12.238 17.669 9.611 31.087-2.147 4.747-3.229 10.637.146 15.107 7.784 7.419.956 4.564-.86 13.286-3.791 16.258 11.472 19.552 10.93 34.36-.326 14.5-10.089 33.2-26.654 31.8-2.511-12.031-8.4-22.681-14.466-33.2 5.548-4.849-2.641-14.021-3.276-20.059-1.371-6.854-.06-13.7 1.113-20.508.389-1.908.687-4.7 1.889-6.3 5.636-8.459 15.2 17.692 18.342 21.16a2.793 2.793 0 0 0 5.081-2.142 52.89 52.89 0 0 0 -7.651-17.266c-3.357-5.258-8.62-10.014-11-16.141-5.988-13.735-4.09-29.308-8.57-43.557-1.314-5.185-3.091-9.535-1.882-14.66 11.569 5.129 19.065 17.993 27.247 27.033zm51.194 96.96a148.161 148.161 0 0 0 22.214 3.02 87.166 87.166 0 0 0 -.63 12.262 167.789 167.789 0 0 1 -25.95-5.369c-9.25-2.384-15.988-4.32-14.975-15.853a110.655 110.655 0 0 0 19.341 5.94zm-30.188-222.147a81.243 81.243 0 0 0 8.75-17.057 55.043 55.043 0 0 0 13.752 21.884q-.771 2.6-1.7 5.149a22.329 22.329 0 0 1 -11.809-8.713c-1.45-1.827-4.8.151-3.965 2.309 2.057 5.292 7.445 10.916 13.32 12.51a180.854 180.854 0 0 1 -9.4 18.063 33.521 33.521 0 0 1 -7.286-5.93c-2.413-2.839-3.663-7.5-6.707-9.519a2.317 2.317 0 0 0 -3.372 1.372c-1.038 7.659 7.828 16.086 13.845 20.06-4.642 7.9-9.361 15.421-13.7 23.584a60.768 60.768 0 0 1 -16.636-30.475c5.321-12.808 17.207-21.842 24.908-33.237zm-78.6 187.018c6.759-3.437 10.366 7.409 6.51 11.994-8.091 7.289-26.2 3.4-37.828 11.487-4.435-2.638-6.17-8.179-1.078-11.17 12.207 2.057 22.224-7.104 32.394-12.311zm-26.141 41.177c-4.5-3.155-4.888-7.424-2.022-11.782 11.232-7.013 25.715-3.782 37.071-10.162 6.178 2.626 6.539 11.117.2 13.814-14.426 3.847-19.078-3.646-35.249 8.13zm49.271-44.848a85.082 85.082 0 0 0 3.749 20.325c.652 2.233-.312 5.385-2.641 5.052-4.469-2.847-6.67-6.831-8.864-11.27 1.279-5.286-.228-11.553-4.3-15.086 4.868-4.56 11.494-9.197 12.056.979zm-42.529 59.819a29.515 29.515 0 0 1 -2.816 1.956c-3.725-3.789-3.194-6.553-.991-10.835 15.337-10.86 21.9-3.193 36.168-8.018 2.752 3.38 3.575 8.444-.515 11.418-9.495 5.504-22.379-2.34-31.846 5.479zm55.456-81.03.037.071c-.04.012-.082.019-.122.031zm-53.183 96.211c-1.61-2.177-1.281-4.9-1.18-7.407 8.873-9.256 23.136-.737 33.446-6.047 4.13 4.32 3.044 8.951-3.519 8.278-9.737.576-19.328 2.725-28.747 5.176zm113.476-226.054a141.684 141.684 0 0 0 10.44-22.836 46.924 46.924 0 0 0 4.641 2.824c-1.23 13.017-4.215 25.9-7.666 38.521-2.24-1.521-4.436-3.121-6.641-4.76-2.929-2.179-6.482 2.566-3.873 5.02a59.384 59.384 0 0 0 8.649 6.675c-2.347 8.675-4.7 17.347-6.588 26.137-3.968-3.128-7.614-6.6-11.886-9.357-2.2-1.424-4.435 1.309-3.383 3.383 2.708 5.336 8.211 9.714 13.57 13.156a34.386 34.386 0 0 0 -.81 5.739 93.614 93.614 0 0 1 -20.155-21.332c5.464-15.485 15.776-28.874 23.702-43.17zm47.021 114.1a193.905 193.905 0 0 1 -12.646-17.094 81.959 81.959 0 0 0 22.551-.2c19.676 27.363 49.312 48.529 82.6 55.218-1.654 6.359-2.092 14.154-8.162 17.852-33.677-7.457-62.596-29.58-84.346-55.776zm-43.993-51.919a72.8 72.8 0 0 0 22.144 7.728c4.148.742 5.931-5.6 1.753-6.357a68.3 68.3 0 0 1 -22.3-8.052c1.96-8.962 4.382-17.815 6.8-26.663 6.085 2.948 12.192 6 19.263 7.384 1 14.646 1.89 29.374 4.548 43.859a75.577 75.577 0 0 1 -32.466-11.233 14.4 14.4 0 0 1 .258-6.666zm74.27-41.9a95.508 95.508 0 0 0 -11.912 4.635c-3.819-7.445-7.649-14.735-10.88-22.411 2.764-1.215 8.275-1.6 7.4-5.782-1.612-4.535-6.665-1.046-9.684-.068-.4-1.094-.807-2.184-1.176-3.3-.8-2.415-5.05-2.2-4.72.639 3.185 21.5 18.646 39.026 24.161 59.835-9.3 5.783-19.695 9.564-30.783 9.829-1.185-9.134-1.811-18.313-2.322-27.5a2.3 2.3 0 0 0 .25-.12c5.212-.225 11.832.4 16.41-2.436 1.759-1.327 1.743-4.19-.636-4.872-5.211-.97-11.058 1.089-16.317 1.01-.341-8.254-.421-16.519-.312-24.78a37.478 37.478 0 0 0 6.28-.778c3.355-.606 2.627-6.345-.813-6.007a43.553 43.553 0 0 0 -5.328.78c.2-4.582.6-9.2.875-13.811a31.13 31.13 0 0 0 16.357-5.622c9.561 20.467 28.114 33.939 41.21 51.81a109.21 109.21 0 0 1 -19.059 18.537 165.36 165.36 0 0 0 -7.862-18.923 100.1 100.1 0 0 1 10.7-3.992c4.232-1.33 2.432-8-1.839-6.672zm-38.511-119.722c1.695 8.751 12.642 16.163 20.927 11.627 1.564 6.787.513 14.138-4.772 18.993-4.923 4.118-5.321 10.916-7.6 16.573a8.364 8.364 0 0 1 -3.084.426c-.693-3.923.232-8.585-2.645-11.688a2.744 2.744 0 0 0 -4.247.547c-2.31 3.872-.325 8.763-.415 13.045-2.237-.025-4.5.388-6.724.583-.948-4.326.646-9.661-2.336-13.232-6.469-3.458-4.88 7.841-4.8 11.367a22.107 22.107 0 0 0 -3.423.237c-.32-.363-.663-.709-1.014-1.047-2.515-17.03-28.087-7.216-16.857-36.812 12.233 15.269 33.968-.216 25.705-17.156 3.731.1 7.3.12 11.052.23a19.386 19.386 0 0 0 .233 6.307zm59.087 122.877c-2.028-2.525-4.166-4.956-6.341-7.354a59.182 59.182 0 0 0 14.1-20.5 66.525 66.525 0 0 1 10.814 8.706c-5.769 6.968-11.091 14.385-16.665 21.525-.65-.818-1.294-1.613-1.908-2.377zm21.663-45.556c4.011 3.033 10.372 6.306 11.346 11.481a103.609 103.609 0 0 0 -9.924 9.71 73.408 73.408 0 0 0 -9.664-7.832 34.628 34.628 0 0 0 8.242-13.359zm-7.044 42.326q2.752-3.514 5.576-6.914c-3.785 7.414-7.247 15.016-11.249 22.3-.057.02-.109.05-.164.074a44.329 44.329 0 0 0 -2.807-4.517c2.925-3.616 5.783-7.29 8.644-10.943zm-12.045-56.169a86.393 86.393 0 0 0 13.451 10.167c-1.262 5.259-4.287 9.5-7.98 13.4a89.19 89.19 0 0 1 -17.3-14.122 40.946 40.946 0 0 0 11.829-9.445zm-6.367 23.653c1.95 1.47 3.987 2.855 6.046 4.224a59.112 59.112 0 0 1 -13.1 19.294c-5.842-6.209-11.864-12.279-17.146-18.984 2.928-2.509 14.939-11.977 6.928-14.309-3.07.164-4.676 3.392-6.641 5.442-1.268 1.321-2.694 2.5-4.07 3.726a64.54 64.54 0 0 1 -6.905-12.4c4.93-6.056 7.565-14.05 9.124-21.993a75.006 75.006 0 0 0 25.764 35zm-2.883 57.788c2.72-2.732 5.307-5.589 7.819-8.515 1.141 2 2.218 4.044 3.489 5.951a90.853 90.853 0 0 1 -21.146 23.2q-1.347-4.784-2.842-9.53a117.239 117.239 0 0 0 12.68-11.106zm-3.734-108.786c1.332 7.95 3.712 16 8.664 22.477-3.261 3.766-7.071 7.364-11.7 9.347a67.983 67.983 0 0 1 -11.41-23.317 46.27 46.27 0 0 0 14.446-8.507zm-46.876 133.829c11.653.2 22.431-3.8 32.087-9.9.987 3.163 1.946 6.347 2.907 9.548a61.951 61.951 0 0 1 -33.938 10.228c-.258-3.293-.637-6.585-1.056-9.876zm50.345 11.98c24.807-20.788 28.806-55.151 43.867-82.289 16.3 22.037 42.314 37.2 51.643 63.937-24.556 3.3-42.361 23.663-50.449 46.059a3.429 3.429 0 0 0 -1.416-3.128c.533-13.792 5.457-26.862 7.513-40.446.528-3.119-3.78-4.415-4.8-1.323-2.578 7.834-4.621 15.836-6.681 23.82-1.724 6.769-3.48 13.747-3.178 20.785a52.655 52.655 0 0 0 1.238 13.4c-.744 6.328-2.364 12.188-7.992 14.94a134.041 134.041 0 0 1 -55.45-43.126 67.727 67.727 0 0 0 25.705-12.629zm28.754-139.565c-2.082 2.171-4.628 4.378-6.932 6.749-4.232-6.048-7.746-12.8-9.142-19.967a104.966 104.966 0 0 1 26.375 2.15c-3.729 3.349-7.049 7.675-10.301 11.068zm-33.382-14.838c-4.921 3.369-8.874 8.339-14.8 10.3-1.379-7.281-.8-14.761-1.285-22.134 5.34-1.191 10.242-4.187 14.813-7.074.175 6.338.585 12.67 1.272 18.908zm-1.387-27.238c-4.557 3.384-9.139 6.459-14.607 8.257.085-5.783.125-11.561-.181-17.323 5.057-.612 10.223-1.944 15.154-3.017-.2 4-.309 8.024-.332 12.063-.015.008-.026.014-.034.02zm-54.474 84.069c-.484 14.8-.649 29.32-.1 44.06a66.674 66.674 0 0 1 -17.109-6.828c3.382-12.656 7.231-25.859 8.623-39.245a43.2 43.2 0 0 0 8.582 2.013zm171.674 82.841c-.076.086-.15.174-.226.26-1.528-8.155-8.483-15.326-13.306-21.781 8.129-12.194 16.84-23.96 27.9-33.727a115.439 115.439 0 0 1 6.832 32.242c-7.292 7.443-14.3 15.181-21.2 23.006zm19.935.9c-2.022 14.859-14.583 45.01-29.837 49.769-1.2-6.063-4-12.464-3.774-19.215 6.24-17.625 22.959-30.9 35.044-44.806a101.357 101.357 0 0 1 -1.429 14.248zm-8.716-64.029c-12.286 8.888-21.954 20.683-33.177 30.792q-7.607-9.591-15.563-18.9c9.993-13.967 19.434-28.56 31.165-41.177a139.01 139.01 0 0 1 17.579 29.281zm-41.119-15.46c-5.18 5.769-10.407 11.47-15.375 17.426-3.555-4.7-6.756-9.255-10.6-13.9a16.844 16.844 0 0 0 -.984-11.72c.608-5.922 6.592-8.512 8.772-13.614 1.029-2.453-2.143-3.957-4.017-3.088-4.051 1.984-6.691 6.59-9.854 9.695-5.888-5.425-13.42-8.889-19.063-14.632 2.263-10.119 12.659-16.849 18.625-24.783 9 3.3 18.028 7.059 26.371 12.18-3.155 2.952-6.357 5.868-9.337 9-2.52 2.644 1.2 6.155 3.932 3.932 3.576-2.914 6.931-6.1 10.343-9.2a144.505 144.505 0 0 1 20 19.11c-6.936 5.54-12.907 13.136-18.813 19.594zm-194.778-94.192c4.441 1.194 8.8 2.806 13.273 3.816a144.159 144.159 0 0 0 -2.849 15.736c-4.308-1.767-7.507-5.254-11.019-8.14q.449-5.703.595-11.412zm136.66 292.739c3.329 13.159-2.991 14.241-14.081 16.165-6.394 1.524-13.315 2.165-19.818 3.633a33.138 33.138 0 0 0 -.229-15.986c11.396-1.054 22.769-2.439 34.128-3.812zm-41.886 4.47c2.963 15.093-.169 21.193-16.435 19.012-15.094-.288-11.969-6.356-11.775-17.97 9.435.154 18.821-.304 28.214-1.042zm136.519-2.689c-.2 6.667-6.454 8.086-11.048 4.257-2.244-2.521-3.171-5.914-5.492-8.39a14.176 14.176 0 0 0 -14.378-4.08 2.515 2.515 0 0 0 .666 4.917c3.791.084 6.793 1.069 9.081 3.657-8.852.112-12.468 10.458-18.282 11.1-12-2.164 10.756-28.194-.145-57.556-3.9-12.407-7.552-24.927-9.178-37.871a53.717 53.717 0 0 1 8.256-16.753 294.9 294.9 0 0 0 11.355 40.894c3.359 12.787 3.886 27 12.331 37.742 5.219 6.358 17.134 12.686 16.834 22.083zm33.754-123.984c-.232 11.411-12.37 64.875-28.461 58.845-4.237-1.659-4.16-5.25-3.15-8.7 17.214-25.456 23.977-57.854 17.5-88 1.036-3.068 3.445-5.151 7.361-4.326 8.438-.128 7.109 35.781 6.75 42.181zm-23.406-93.833c1.176 4.338 3.746 8.349 3.969 12.947.243 5.03-3.773 8.211-7.892 7.071-19.2-35.393-53.247-63.942-92.9-71.924-4.466-3.751-2.134-10.775 4.172-11.692 19.812.912 38.532 11.54 54.8 22.308a138.2 138.2 0 0 1 37.851 41.29zm-168.397-160.633c13.969 3.1 20.5 17.135 22.771 30.143.368 15.649-4.4 18.444-19.185 18.769.064-16.117-.744-32.863-3.586-48.912zm-11.466-13.121c3.01 5.549 2.821 12.568 4.157 18.679a322.626 322.626 0 0 1 3.3 43.881q-8.742.544-17.5.767c-.377-20.2-1.15-40.468-3.694-60.534.985-5.96 10.904-6.348 13.737-2.793zm-60.508 52.307c2.131-20.723 14.95-40.446 35.642-45.567.282 11.025 1.936 22.14 2.641 33.2 1.2 11.976 2.539 17.422-9.35 23.351-6.508-.126-13.015-.251-19.515-.1-4.413.1-4.257 6.338 0 6.748 29.662 2.98 59.771-.44 89.319-2.763 10.512-.941 11.874 1.333 10.211 12.359-19.813 3.78-39.916 4.571-60.012 5.47-16.76 1.513-33.39-.235-50.121-1.531-4.644-2.865-2.444-9.553-.19-13.3a1.705 1.705 0 0 0 .705-1.641 134.41 134.41 0 0 1 .67-16.226zm-9.328 96.875c1.864 1.949 4.338 4.048 7.145 4.194 2.407.111 2.982-2.708 1.77-4.273-2.217-2.265-5.109-3.89-7.085-6.489a195.225 195.225 0 0 0 4.875-26.348 33.565 33.565 0 0 0 11.12 7.841 79.929 79.929 0 0 0 .616 15.321 78.726 78.726 0 0 1 -19.546 37.441c-3.678-2.835-4.458-7.671-6-11.779 3.358-4.774 5.411-10.356 7.105-15.908zm-12.164 23.089c.252-.39.513-.772.774-1.155.913 4.036 3.012 8.176 6.14 10.5a71.124 71.124 0 0 0 -9 12.465c-1.598-7.448-2.214-15.165 2.086-21.81zm-13.3 44.1c1.649-4.23 3.923-8.739 5.821-13.375a150.019 150.019 0 0 0 14.391 36.83c9.957 23.945 26.334 46.525 51.8 54.914 14.878 19.414 28.515 40.167 47.361 56.156 7.425 8.5 36.987 20.524 26.911 34.121-29.346 2.989-59.8 5.581-88.115-4.047-10.794-3.723-27.432-11.211-24.477-25.207.993-3.442 4.321-5.531 4.548-9.271.344-4.261-3.4-6.843-5.554-9.977-1.257-2.4-.23-5.086.633-7.406 9.775-17.093-2.633-32.834-3.2-50.238-.021-2.776-4.529-3.61-5.022-.679-.9 5.325-.049 10.463 1.248 15.552-6.72-6.449-11.969-14.292-18.887-21.58-6.845-8.25-10.385-18.243-13.159-28.427.701-9.357 2.181-18.333 5.701-27.366zm-128.811-175.718a131 131 0 0 1 5.411-16.779c14.367 9.322 22.547 22.942 24.131 39.795q8.239 41.415 16.476 82.831 11.2 56.3 22.433 112.6c2.644 13.267 5.241 26.545 7.923 39.805.271 7.686-1.682 15.516-6.8 21.459-17.663-87.048-33.581-174.548-52.316-261.336-.928-3.5-5.716-1.913-5.26 1.45 16.213 88.383 35.092 176.366 52.3 264.585-3.783 2.677-8.059 4.987-11.017 8.361-16.47-90.829-36.147-181.087-53.587-271.745a46.109 46.109 0 0 1 .306-21.026z"/><path d="m277.205 331.052c-3.5-3.565-8.986 1.953-5.435 5.436 3.602 3.526 8.943-1.855 5.435-5.436z"/><path d="m300.441 351.358c-3.535-3.6-9.076 1.973-5.489 5.491 3.534 3.601 9.075-1.973 5.489-5.491z"/><path d="m327.578 365.98c-3.528-3.594-9.057 1.968-5.478 5.48 3.528 3.594 9.057-1.969 5.478-5.48z"/></g></svg>