<svg height="512" viewBox="0 0 500 500" width="512" xmlns="http://www.w3.org/2000/svg"><g id="Layer_4" data-name="Layer 4"><path d="m295.689 308.388c-15.757-11.943-34.579-18.974-52.847-26.535a796.24 796.24 0 0 1 -103.442-51.928l-7.925 1c-11.657.118-18.827 13.743-18.261 25.386s6.012 22.516 7.615 34.062c3.685 26.562-16.591 54.168-43.038 58.6-6.8 1.137-13.89.948-20.334 3.381s-12.266 8.682-11.117 15.474c.746 4.4 4.262 8.261 3.834 12.707-.289 3-2.328 5.494-4.22 7.84a173.869 173.869 0 0 0 -22.011 35.185c-3.881 8.258-7.043 18.232-2.56 26.179 2.35 4.167 6.443 7.014 10.479 9.582a221.888 221.888 0 0 0 59.638 26.536c2.885.8 5.9 1.548 8.845 1.024 3.074-.547 5.747-2.426 8.052-4.533 14.592-13.341 19.5-37.759 38.29-43.908 9.1-2.978 18.971-.556 28.282 1.671 22.823 5.46 46.966 9.644 69.523 3.176 16.3-4.674 30.579-14.611 43.587-25.487 18.443-15.419 36.13-35.681 36.016-59.721-.089-19.771-12.649-37.748-28.406-49.691z" fill="#fff"/><path d="m295.689 308.388a141.625 141.625 0 0 0 -26.162-15.223c2.862 15.713 8.215 35.36 8.346 51.331.083 10.053 2.807 52.129-15.817 45.614-9.809-3.431-3.23-40-20.233-45.585 3.983 24.855-14.567 51.155-39.317 55.743s-51.495-13.317-56.684-37.948c-4.737 29.56 23.823 56.553 23.823 56.553-14.039 19.135-38.678-27.566-51.71-1.523-1.9 3.8-2.12 8.189-2.778 12.391a57.961 57.961 0 0 1 -14.421 29.968c-1.779 1.943-3.8 3.827-6.33 4.561-2.778.806-5.752.109-8.528-.7a104.325 104.325 0 0 1 -59.19-45.574c-.946 1.839-1.87 3.689-2.749 5.561-3.881 8.258-7.043 18.232-2.56 26.179 2.35 4.167 6.443 7.014 10.479 9.582a221.888 221.888 0 0 0 59.642 26.539c2.885.8 5.9 1.548 8.845 1.024 3.074-.547 5.747-2.426 8.052-4.533 14.592-13.341 19.5-37.759 38.29-43.908 9.1-2.978 18.971-.556 28.282 1.671 22.823 5.46 46.966 9.644 69.523 3.176 16.3-4.674 30.579-14.611 43.587-25.487 18.443-15.419 36.13-35.681 36.016-59.721-.089-19.771-12.649-37.748-28.406-49.691z" fill="#b4bbd1"/><path d="m121.642 210.26s105.589 80.574 213.321 101.412l49-43.849 52.384-120.546s-26.192-1.508-61.908 26.184l-38.55-34.49-3.389-55.683s-28.7-4.565-60.05 29.862c0 0-45.638 32.84-63.5-13.988 0 0-9.92-57.8-35.914-65.214 0 0-7.521 5.686 5.069 23.941l-2.095 30.558-12.3 18.233 3.9 21.055-4.3 9.524-9.969-2.575s-10.667 1.577-3.921 12.593-.793 24.172-.793 24.172-9.128 4.648-4.763 15.787l-7.937 10.771s-18.415-3.244-14.285 12.253z" fill="#ffda76"/><circle cx="172.364" cy="20.947" fill="#ffda76" r="9.815"/><circle cx="334.963" cy="71.143" fill="#ffda76" r="10.958"/><circle cx="254.338" cy="239.518" fill="#87ddaa" r="10.958"/><circle cx="153.342" cy="180.455" fill="#87ddaa" r="10.958"/><circle cx="363.051" cy="269.667" fill="#fff" r="9.359"/><path d="m278.691 182.8-4.068-28.927 24.641-16.945 4.786 30.005z" fill="#f469a2"/><path d="m276.907 166.412s15.551 7.389 20.874-26.793l2 .542 3.016 26.882-24.106 15.757z" fill="#b23669"/><path d="m165.336 127.909-1.534-26.34 12.848-14.99 6.853 20.1s-7.112 14.213-18.167 21.23z" fill="#fff"/><path d="m181.032 100.037a50.883 50.883 0 0 0 -5.027-9.54q-.477 5.652-.953 11.3c-.238 2.832-.5 5.743-1.775 8.282s-3.828 4.65-6.667 4.535l-1.388 1.708a24.229 24.229 0 0 0 .172 7.163 2.428 2.428 0 0 0 .692 1.536 2.29 2.29 0 0 0 2.03.167c3.719-1.011 6.537-3.992 8.981-6.971a22.781 22.781 0 0 0 4.571-7.581 17.078 17.078 0 0 0 -.636-10.599z" fill="#f469a2"/><path d="m332.5 83.288s-21.4-3.4-47.424 17.835c-.427 3.673 1.179 7.341 1.062 11.052-.189 6.005-4.769 10.866-9.25 14.868a181.216 181.216 0 0 1 -16.217 12.888 147.833 147.833 0 0 0 29.811-13.722c5.369-3.238 10.771-6.909 16.988-7.725s13.519 2.393 14.824 8.526c.871-7.751 2.141-16.281 8.087-21.328a22.009 22.009 0 0 1 3.344-2.279z" fill="#f48a4e"/><path d="m345.92 71.143a10.918 10.918 0 0 0 -3.555-8.063 13.932 13.932 0 0 1 -.256 1.976c-.878 4.145-4.125 7.966-8.322 8.549-3.84.534-7.658-1.941-9.369-5.412a10.954 10.954 0 1 0 21.5 2.95z" fill="#f48a4e"/><path d="m374.436 173.461-7.336-6.561-2.816 2.409a9.152 9.152 0 0 0 -2.619 3.015c-.837 1.877-.323 4.045-.39 6.1-.276 8.56-11.083 13.471-19.31 11.093s-14.146-9.375-19.55-16.019c-3.335 6.725-2.85 14.611-3.789 22.058s-4.306 15.666-11.455 17.955c3.971.945 5.692 6.287 3.84 9.924s-6.165 5.483-10.247 5.544-8.025-1.343-11.865-2.729c-8.331-3.009-54.211-24.737-60.994-29.468-2.838-1.98-6.011-5.216-4.546-8.351.695-1.487 2.26-2.347 3.312-3.608 1.626-1.946 1.9-4.642 2.292-7.147a51.487 51.487 0 0 1 24.983-36.185c-4.714-1.318-6.333-7.55-4.848-12.214a25.222 25.222 0 0 1 3.655-6.8c-13.435 3.837-30.642 3.36-41.2-17.409-.259 1.867-.586 3.723-1 5.562-1.184 5.265-3.649 11.064-8.8 12.683 2.625 4.024.253 9.68 2.241 14.055 2.469 5.432 10.4 6.5 13.057 11.844 1.625 3.271.788 7.286-.172 10.677a10.494 10.494 0 0 1 -2.655 4.647c-3.106 3.066-5.887 1.75-8.432.489l-15.438-7.653a7.384 7.384 0 0 1 -5.9 13.488c6.5 7.462 17.451 10.774 22.012 19.559 3.307 6.372 2.343 14.181-.172 20.905s-6.4 12.858-9.12 19.5c-2.478 6.047-11.155.858-12.022.739 6.841 4.234 9.2 18.434-9.375 14.515 5.086 2.907 22.027 12.653 27.529 15.612a17.571 17.571 0 0 1 -.31-7.157c.908-4.9 5.686-9.43 10.512-8.183-3.151-1.567-5.046-5.028-5.488-8.519-.458-3.6.427-7.253 1.59-10.689a59.255 59.255 0 0 1 7.528-14.9l.1-.148a9.373 9.373 0 0 1 11.758-2.981c7.142 3.471 59.093 23.544 67.37 39.6 2.967 5.755-2.056 12.632-5.742 17.955-4.273 6.171-9.153 12.137-15.57 16.03s-14.645 5.433-21.529 2.441l-1.54.119c26.238 11.245 54.526 20.91 82.965 26.411l49-43.849 52.384-120.546s-26.182-1.505-61.898 26.187z" fill="#f48a4e"/><path d="m192 235.8a8.3 8.3 0 0 0 -1.88-1.3 2.271 2.271 0 0 0 1.88 1.3z" fill="#f48a4e"/><g fill="#fff"><path d="m192.445 100.755c.52-6.745 1.656-13.536 4.473-19.687a33.186 33.186 0 0 1 5.149-8.023c-1.413-4.106-3.059-8.36-4.956-12.494-.1.146-.192.3-.3.443-2.972 3.832-8.8 5.915-12.808 3.184a131.857 131.857 0 0 1 8.442 36.577z"/><path d="m162.55 20.947a9.787 9.787 0 0 0 .406 2.781 10.409 10.409 0 0 0 11.563-12.351 9.792 9.792 0 0 0 -11.969 9.57z"/><path d="m172.334 155.177c2.642-2.527 6.252-3.792 9.841-4.482a156.887 156.887 0 0 0 -16.013-10.167 16.929 16.929 0 0 1 -9.821 17.55l-.292.152a97.377 97.377 0 0 0 13.452 6.909c-1.266-3.43.192-7.439 2.833-9.962z"/><path d="m284.565 216.324a15.89 15.89 0 0 1 9.152-7.277l-34.952-16.282a28.873 28.873 0 0 1 1.893 8.235c.172 2.165.009 4.575-1.5 6.133a7.091 7.091 0 0 1 -4.714 1.774 17.009 17.009 0 0 1 -9.57-2.251l-.516 1.327c11.452 8.971 27.431 10.636 38.623 19.928a15.888 15.888 0 0 1 1.584-11.587z"/></g><circle cx="363.526" cy="270.307" fill="#48a06c" r="7.15"/><path d="m265.3 239.518a10.953 10.953 0 0 0 -8.411-10.648 12.478 12.478 0 0 1 1.175 7.37 8.706 8.706 0 0 1 -5.458 6.512 7.846 7.846 0 0 1 -8.185-1.9 7.723 7.723 0 0 1 -1.031-1.43v.1a10.958 10.958 0 1 0 21.915 0z" fill="#48a06c"/><path d="m161.381 237.259c4.982-3.121 7.214-9.262 9.253-14.849a239.41 239.41 0 0 1 19.832-41.459.912.912 0 0 0 -.268-1.524l-17.664-12.1a24.869 24.869 0 0 1 4.015 14.987 34.109 34.109 0 0 1 -4.482 14.986c-2.347 4.213-5.54 8.106-9.8 10.375s-9.693 2.674-13.838.209c.328 3.685-1.68 7.253-4.375 9.788a19.542 19.542 0 0 1 -6.435 4c6.324 4.338 14.351 9.676 23.762 15.587z" fill="#f48a4e"/><path d="m260.67 268.233-29.706-13.433a12.123 12.123 0 0 1 2.789 14.778 11.644 11.644 0 0 1 -5.462 4.87q8.4 4.056 17.173 7.961a14.227 14.227 0 0 1 1.25-4.2c2.568-5.357 8.118-8.909 13.956-9.976z" fill="#fff"/><path d="m299.731 211.541a37.637 37.637 0 0 0 7.748 2.8c3.355.811 7.09 1.1 10.083-.616 4.277-2.458 5.5-8 5.887-12.923.882-11.212-.362-22.466-1.186-33.683q-1.53-20.826-1.13-41.735c.09-4.7.2-9.643-2.034-13.776s-7.719-6.912-11.772-4.539l-11.507 9.5c2.736-1.126 5.873-2.11 8.578-.911 3.12 1.383 4.4 5.071 5.174 8.394 3.131 13.377 3.551 27.219 3.958 40.952.189 6.367.361 12.866-1.492 18.961a4.215 4.215 0 0 1 -1.605 2.561c-1.219.716-2.745.156-4.126-.145-5.368-1.172-10.946 2.14-13.952 6.738a12.229 12.229 0 0 0 -2.177 6.074c-.229 5.507 4.605 9.918 9.553 12.348z" fill="#f48a4e"/><path d="m271.842 121.394c-.936-2.417-.592-5.139.079-7.642.026-.1.059-.2.087-.3a72.725 72.725 0 0 1 -14 7.261 10.082 10.082 0 0 1 4.119 6.985c.479 4.671-2.037 9.226-5.438 12.462a238.641 238.641 0 0 0 21.181-14.91c-2.543.502-5.092-1.439-6.028-3.856z" fill="#fff"/><path d="m134.426 273.429c-1.376-3.747-7.1-4.6-10.822-3.164s-5.781 6.622-3.309 9.756l-1.662.3a78.616 78.616 0 0 1 2.192 10.045c3.685 26.562-44.587 57.77-49.639 58.808 27.162.126 87.188-10.497 63.24-75.745z" fill="#b4bbd1"/><path d="m284.627 158.786a10.861 10.861 0 0 0 3.143-9.536 9.922 9.922 0 0 0 -1.317-3.512l-11.83 8.135.814 5.792a7.512 7.512 0 0 0 4.028 1.313 7.378 7.378 0 0 0 5.162-2.192z" fill="#fff"/></g><g id="Layer_5" fill="#3a3245" data-name="Layer 5"><path d="m302.761 135.873c.262-2.516-3.373-4.033-5.017-2.138-8.305 6.229-17.062 12.221-25.192 18.775a2.955 2.955 0 0 0 -.756 2.861l4.8 29.813a2.955 2.955 0 0 0 4.321 1.758l24.638-17.457a2.941 2.941 0 0 0 1.457-2.54c-1.223-10.364-2.364-20.803-4.251-31.072zm-18.621 22.044a2.257 2.257 0 0 0 -1.967-.646c-5.1 2.169 2.244 7.222 4.272 9.172-2.056 3.083-3.5 6.5-5.393 9.635l-3.258-20.245c5.019-3.863 10.546-8.066 15.726-11.863a58.1 58.1 0 0 0 -3.568 9.274c-.676 2.728 3.364 4.69 4.7 1.984 1.423-2.873 2.615-5.882 3.895-8.827.832 5.708 1.511 11.446 2.18 17.171-1.994-.438-7.927 1.053-16.587-5.655z"/><path d="m469.981 122.425c-10.056-.211-17.414 10.668-13.536 19.9-23.737-3.825-47.417 6.635-68.177 18.17-2.566-14.1 3.671-28.733 2.343-43.031 15.227-.6 17.1-22.838 2-25.867-11.777-2.549-20.36 12.121-12.585 21.109-14.234 5.667-24.872 19.3-40.2 21.811.4-16.481 1.051-33.118-4.2-48.845 18.72-1.284 18.124-28.644-.671-29.091-11.425-.345-18.681 13.642-12.016 22.772-23.325 3.758-41.091 20.574-59.071 34.732-7.223-14.788-.818-32.112-4.459-47.692 15.022-2.369 14.329-24.621-.989-25.918-11.851-1.409-18.9 14.607-10.1 22.418-13.92 7.507-23.229 22.642-38.946 26.516-4.44-21.056-11.06-42.723-28.25-56.356 11.8-7.488 6.106-26.938-8.09-26.662-15.936-.016-20.023 22.349-5.389 28.078-4.3 8.734 1.763 14.081 5.07 22.029.483 9.183 1.21 18.278.7 27.551-13.908 21.845-14.5 18.434-9.822 44.463q-1.091 2.767-2.3 5.483c-13.1-6.747-23.984 10.564-12.471 19.926a41.661 41.661 0 0 1 -.988 13.823c-6.682 2.676-10.323 11.305-7.27 18.076a56.6 56.6 0 0 1 -7.2 8.958c-6.726-1.669-14.092 2.787-15.066 9.993-1.228 9.54 8.429 13.429 14.956 17.948-14.109 4.227-27.024 16.331-29.638 31.2a30.377 30.377 0 0 0 .3 10.885c1.612 8.55-.278 17.252-2.568 25.779-6.9 25.128-24.335 45.052-45.892 58.944a16.6 16.6 0 0 0 -12.428 19.863c.7 4.53 1.686 8.548.585 13.137-.947 5.261-4.832 9.46-6.611 14.268-4.433 6.087-7.895 13.372-11.45 19.771-2.635 4.742-6.265 13.208-8.8 19.365a14.621 14.621 0 0 0 2.476 15.183c16.419 18.842 49.8 30.709 71.391 38.576 7.178 3.378 15.352 5.318 23.126 2.724 18.512-8.1 26.982-30.469 44.334-39.713 21.469-11.438 93.261 12.355 126.784-1.539 51.444-22.4 74.56-88.549 59.521-140.627 13.108-.183 27.266-.811 39.508-6.245 8.668-2.985 15.19-15.227 6.038-21.47 12.136-7.883 7.65-25.205 16.33-35.33 4.234-3.968 9.638-7.445 12.2-12.712 4-7.238-1.6-16.426-9.907-15.885 2.182-11.173 15.642-12.576 22.317-20.086 2.133-2.846 1.424-6.7 1.341-9.98a125.106 125.106 0 0 1 .867-13.462c8.865-14.915 24.876-6.615 34.92-23.966 20.402 2.124 22.474-28.262 1.983-28.974zm-135.018-58.981c10.065.053 10.065 15.346 0 15.4-10.063-.056-10.063-15.344 0-15.4zm24.147 160.131q-3.194-.441-6.374-1c-10.489-1.838-14.095-15.252-5.7-21.808q.528-.413 1.075-.785a11.715 11.715 0 0 1 7.271-1.869 35.3 35.3 0 0 0 8.911-.595c-5.841 7.02-9.993 17.669-5.183 26.057zm-175.3-22.5c1.741-3.039 2.554-6.616 5.028-9.156 4.286 12.651 1.082 26.959 5.816 39.476-3.629-2.025-23.734-7.82-10.848-30.319zm-10.1 29.058c3.391-1.792 7.3 1.7 10.335 2.859 33.414 18.993 68.1 36.07 104.564 48.3a2.988 2.988 0 0 1 1.478 4.6 12.023 12.023 0 0 1 -11.236 4.289c-36.479-13.033-71.158-30.382-104.582-49.9a6.219 6.219 0 0 1 -2.59-8.016 4.678 4.678 0 0 1 2.031-2.131zm89.589 24a3.184 3.184 0 0 0 .293-.244 22.849 22.849 0 0 0 4.681 13.094c-13.226-5.189-26.221-11.029-38.993-17.319a29.77 29.77 0 0 0 10.22-4.424c2.765 9.465 15.627 14.286 23.8 8.896zm-15.23-14.618c.048-9.144 13.94-9.144 13.987 0-.048 9.147-13.94 9.146-13.987.003zm29.463 28.568a20.548 20.548 0 0 1 -7.67-22.784c1.21-4.066 3.8-8.746 8.653-8.508 7.82.384 6.552 11.78-.776 8.759-2.761-1.139-4.79 3.619-2.048 4.858 5.734 2.591 11.748.342 13.844-5.83 3.767-12.188-15.221-18.6-21.251-9.213-2.147-7.6-11.58-12.012-18.88-8.486.754-11.293-14.728-18.039-21.773-8.85-4.716 6.086-2.165 13.851 5.716 14.77 2.621.306 3.17-3.449 1.261-4.654-7.254-3.384.072-10.81 5.349-6.916 6.338 4.185 1.156 14.527-3.573 17.835-9.752 6.823-21.854 3.764-30.577-3.481-11.166-9.949-4.593-33.708-11.1-48.033 3.812-1.419 8.333.736 11.977 2.212q15.476 8.738 31.344 16.751a541.44 541.44 0 0 0 97.86 42.467c-17.782 14.11-34.778 34.938-58.356 19.106zm40.593-110.08c-1.538 13.063 3.69 38.734-5.754 47.8-6.873 6.393-22.042-2-17.874-11.207 1.764-3.9 12.232-8.493 10.5-.964-.932 4.046 5.265 5.775 6.235 1.719 2.8-21.508-30.556-11.684-22.35 7.527-11.7-4.754-23.237-9.959-34.6-15.525 9.847-3.251 11.348-20.515 1.175-25.119-4.431-2.118-10.758-.352-11.784 4.869-.527 2.684 2.691 5 4.814 2.8 5.356-5.54 9.114 4.159 6.372 8.65-5.346 8.3-19.812 1.165-19.239-7.685 2.79-17.885 23.092-23.509 34.914-34.3 15.432-10.287 28.2-25.923 46.067-32.169 2.121 17.823.49 35.728 1.524 53.607zm-80.571 28.935c16.7 6.731 32.5 15.762 49.382 22.189 11.522 4.732 23.251 9.092 35.19 12.729a8.1 8.1 0 0 1 3.372 2.79c1.508 2.786 2.048 9.347-2.482 9.386-29.159-8.468-57.04-20.64-84.1-34.38-3.891-2.869-8.685-7.858-6.071-11.694 1.36-1.989 2.594-1.564 4.709-1.017zm84.579 27.978q-4.162-1.3-8.277-2.7c12.726-5.494 10.406-32.828 10.406-32.828 15.826 14.025 13.027 25.357 8.618 31.832a9.545 9.545 0 0 1 -10.747 3.699zm-79.82-81.407c30.643-9.684 49.429-42.219 82.037-47.373-2.694 4.379-5.806 9.038-10.421 11.418-11.87 4.245-21.826 12.476-31.456 20.478-12.289 10.27-26.038 22.31-43.023 22.124-.436-2.007 1.611-5.861 2.863-6.644zm2.021 13.594c-8.439 6.078-16.6 17.04-14.725 27.508-12.4-6.721-24.613-13.782-36.634-21.052 9.067-2.053 12.716-11.769 12.515-20.43 9.684 9.876 24.738 15.638 38.844 13.977zm-79-126.153c.053-10.064 15.346-10.065 15.4 0-.072 10.07-15.354 10.031-15.398.003zm9.095 15.95c33.141 23 20.783 70.018 46.18 88.167 1.656 2.972 1.977 7.8-1.349 9.621-26.717-15.219-21.1-50.88-34.311-74.883-2.674-7.685-15.07-14.505-10.52-22.905zm-4.4 65.291c2.133-3.108 4.189-6.287 6.05-9.572 1.536 5.063 4.041 10.271 3.757 15.718-2.487-.494-4.913-1.414-7.379-1.981-2.289-.527-4.066 2.959-1.688 4 .607.267 1.234.551 1.868.834a70.489 70.489 0 0 1 -3.7 8.347c-.715-6.018-3.103-11.966 1.094-17.35zm-.405 28.762c19.624-15.92 20.989-24.2 10.267-46.9a153.585 153.585 0 0 0 .089-17.962c7.05 15.891 7.961 33.74 14.466 49.8 1.857 4.76 4.067 9.509 4.584 14.5.6 5.8-.909 17.46-9.125 16.872-7.768-.556-10.436-14.889-.878-11.268 7.011.68 2.945-10.561-6.648-6.836-5.674 2.108-7.682 8.953-5.653 14.334-3.26-2.062-6.5-4.132-9.733-6.241q1.379-3.129 2.633-6.303zm-15.7 8.383c3.867-1.561 7.831 2.332 10.875 4.317q22.656 14.763 46.18 28.106c2.22 2.351 2.945 6.637.244 8.972-3.752 1.575-6.632-.124-10.326-1.9-10.168-5.815-20.194-11.914-30.3-17.957-5.02-3.965-29.097-14.9-16.669-21.542zm-.586 34.129c9.144.048 9.143 13.94 0 13.987-9.138-.052-9.138-13.944.004-13.991zm-10.674 20.323c3.714 4.124 10.911 4.33 15.9 2.31 10.687-4.157 11.754-20.775 2.67-27.013 5.767-2.442 11.988.99 16.867 5.585a11.7 11.7 0 0 1 2.6 13.281c-5.061 11.329-11.037 28.7-22.888 21.7-6.213-3.683-12.115-8.422-18.445-12.036q1.745-1.84 3.3-3.831zm-15.589 8.181c3.809-2.675 7.5.662 10.665 2.734q9.853 6.459 19.892 12.628a5.561 5.561 0 0 1 2.719 4.759v.128a5.684 5.684 0 0 1 -8.716 4.412q-6.759-4.194-13.439-8.514c-4.143-2.691-19.57-10.216-11.117-16.151zm164.018 193.114c-32 59.728-111.891 52.058-160.552 18.637-2.84-1.7-5.61 2.134-3.454 4.478 4.8 5.209 4.261 10.28.755 16.09-7.7 12.595-15.666 25.017-22.606 38.088-7.4 11.051-14.312 11.875-25.954 6.394 8.147-14.717 16.224-28.683 27.44-41.461 2.776-3.162-1.856-7.821-4.636-4.637-11.286 12.928-22.019 27.777-28.504 43.828q-9.4-3.887-18.45-8.56c7.733-13.786 15.8-26.775 25.711-39.235 2.536-3.188-1.808-7.767-4.572-4.572a171.436 171.436 0 0 0 -26.612 40.967 134.21 134.21 0 0 1 -16.018-9.535c7.821-12.739 14.959-26.293 24.7-37.867 2.678-3.373-2.082-8.185-4.779-4.778-9.383 12.057-18.413 24.975-24.681 38.9-11.748-10.052-4.242-21.53 2.028-32.13 7.527-11.433 13.048-25.019 25.562-32.228a3.4 3.4 0 0 0 1.2-4.589c-3.065-5.859-6.654-12.217-7.684-18.681 2.244-12.444 23.331-6.924 36.028-9.867a.466.466 0 0 1 .321.869c-4.17 2.092-8.651 3.525-12.594 5.955a2.472 2.472 0 0 0 1.237 4.568c13.357-.817 26.709-12.7 36.4-21.4a46.789 46.789 0 0 0 17.586-26.159c2.784-11.429.562-23.571-2.568-34.707-2.434-8.661-7.048-17.054-9.173-25.861-1.733-7.182 1.248-14.837 7.747-18.351l.161-.086a8.159 8.159 0 0 1 9.256 1.22c6.2 5.655 10.125 17.266 12.82 24.329 3.573 11.378 4.547 23.244 7.636 34.69.821 3.041 5.751 2.513 5.6-.758a72.25 72.25 0 0 0 -.171-20.24 44.249 44.249 0 0 1 -.533-6.126 6.137 6.137 0 0 1 8.326-5.738c11.528 4.446 35.775 19.656 23.736 21.626-10.113 1.655-7.323 9.518-3.676 8.508 21.019-6.037 39.032-1.878 57.669 8.154 26.171 16.415 33.989 50.622 25.1 78.991-.769 3.136 3.727 5.259 5.35 2.255 6.487-12.008 7.617-26.31 4.908-40.023a59.116 59.116 0 0 1 -1.227-12.63 29.913 29.913 0 0 1 .459-5.123 3.966 3.966 0 0 1 6.836-1.932c15.936 17.685 14.817 47.199 3.872 68.727zm60.348-122.029c.2 6.171-2.609 12.306-8.542 13.412a10.043 10.043 0 0 1 -2.819.068c-12.74-1.249-25.359-4.348-37.284-7.781 14.656-3.514 24.347-15.407 36.166-24.065a13.547 13.547 0 0 1 10.584-2.355 60.472 60.472 0 0 1 12.648 3.377 2.933 2.933 0 0 1 -.562 1.432 3.562 3.562 0 0 1 -1.868 1.351 12.46 12.46 0 0 0 -8.323 14.561zm12.085 2.791c-7.242-.038-7.241-11.039 0-11.076 7.241.038 7.241 11.039 0 11.076zm18.716-35.824c-7.091 5.133-26.643.872-36.861-.754a6.056 6.056 0 0 1 -4.458-3.069c-1.585-3.033-.01-6.232 3.631-7.582a6.173 6.173 0 0 1 3.34-.236c11.268 2.23 22.813 3.731 34.308 3.206a2.971 2.971 0 0 1 3.13 3.326 8.619 8.619 0 0 1 -3.09 5.109zm15.468-34.272c-2.3 4.432-4.839 8.671-8.657 11.976 3.95-9.761-7.653-19.12-16.379-13.2-3.343 2.231-.407 7.383 3.17 5.423 2.348-1.286 5.849-.805 7.146 1.8 1.9 3.815-2.126 7.606-5.1 9.2-6.389 3.428-14.749 2.874-14.837-6.033.3-5.018 2.7-9.472 5.943-13.4a39.367 39.367 0 0 1 23.99-13.537c1.427-.239 2.855-.474 4.271-.738 9.054 2.33 3.625 13.286.453 18.509zm21.89-45.778c-7.084 9.8-19.972 12.548-30.034 18.257-12.366 6.052-24.405 15-38.812 11.862-24.232-5.124-27.047-30.6-25.62-51.391.994-3.826 1.132-8.555 3.542-11.764 6.744-3.782 3.572 12.969 4.086 16.228-1.273 41.72 25.05 48.866 55.425 25.117 3.929-1.791 37.666-23.134 31.413-8.309z"/><path d="m121.023 359.378c-5.938-6.168-21.792 11.215-26.906 15.122-5.264 4.716-32.7 31.592-9.719 25.917 3.021-.449 3.187-.808 4.612 1.938 2.275 2.968 5.6 15 9.79 13.308 10.784-5.198 28.279-51.763 22.223-56.285z"/><path d="m231.063 319.881c-4.834-4.719-11.648-5.767-17.91-7.281-13.477-3.063-27.438 1.824-38.633 9.263-21.7 15.369-45.532 43.879-35.033 71.889 12.571 24.566 46.088 38.331 72.768 32.748 2.886-.67 2.262-5.23-.7-5.162-10.481.24-20.047.267-30.22-2.814-6.955-2.512-15.329-5.365-20.835-10.714a2.656 2.656 0 0 1 2.84-4.352c29.991 11.4 75.846 20.1 86.288-18.937 5.3-21.971 1.487-51.205-18.565-64.64z"/><path d="m228.012 418.981a6.072 6.072 0 0 0 -2.031-.044l.246.033c-6.393-.378-4.174 8.874 1.332 5.579l-.048.038c2.724-.823 3.563-4.662.501-5.606z"/></g></svg>