<svg height="512" viewBox="0 0 500 500" width="512" xmlns="http://www.w3.org/2000/svg"><g id="Layer_4" data-name="Layer 4"><path d="m100.116 171.58s-31.434-3.421-44.736 39.629-38.856 111.039 16.985 125.13c0 0 80.33 10.962 77.293-48.259-6.643-129.534-49.542-116.5-49.542-116.5z" fill="#fce5b4"/><path d="m39.807 305.814c3.747 14.422 13.323 25.671 32.558 30.525 0 0 80.33 10.962 77.293-48.259-5.417-105.617-34.933-116.451-45.649-116.852a54.912 54.912 0 0 1 4.1 5.441c5.765 8.747 9.194 18.806 12.126 28.863 7.833 26.868 12.449 56.069 3.38 82.546-3.878 11.322-10.82 22.367-21.7 27.346a42.175 42.175 0 0 1 -12.821 3.276 71.322 71.322 0 0 1 -47.033-11.313c-.761-.51-1.512-1.037-2.254-1.573z" fill="#f2c19c"/><path d="m155.368 150.1v21.487l8.738 3.675-3.531 42.012 18.4 87.443 158.325 44.215 5.254 8.294s23.438 10.085 27.517-10.514l75.938-51.185 22.911-116.519a49.576 49.576 0 0 0 0-33.686s-3.22-27.29-1.843-46.835c0 0 3.2-51.153-39.521-51.687l-35.756-8.277s-76.215-20.023-114.936-15.223c0 0-44.077-7.763-75.64 49.667 0 0-22.494 57.6-29.459 62.177z" fill="#f7978d"/><path d="m276.864 23.3s-25.293-4.446-51.279 18.357l4.137 16.794c74.862 13.54 95.293-28.15 79.329-34.994-11.821-1.04-23.051-1.29-32.187-.157z" fill="#ffebe8"/><path d="m446.01 295.527 22.911-116.519a49.576 49.576 0 0 0 0-33.686s-3.22-27.29-1.843-46.835c0 0 3.2-51.153-39.52-51.687l-35.758-8.277s-19.7-5.176-44.158-9.634c22.048 9.634 34.735 56.288 3.283 84.478-14.488 12.985-47.589 18.934-67.036 18.4s-88.747-21.57-101.124-15.342c-4.466 9.473-8.632 17.166-11 18.724l-16.4 14.958v21.487l8.738 3.675-1.391 16.543c4.925 3.927 11.67 5.642 17.388 8.759 31.79 17.332 58.833 27.691 85.082 50.391 8 6.921 17.565 15.266 16.509 25.794-1.606 16.007-14.206 17.907-28.79 24.7a105.46 105.46 0 0 0 -25.518 16.791l109.917 30.685 5.254 8.294s23.438 10.085 27.517-10.514z" fill="#bf4c4c"/><path d="m342.555 178.184 20.28 3.03 31.143-9.623s15.22-94.065 41.2-99.018 15.288 63.9 15.288 63.9 17.855-1.113 16.278-29.225-1.719-59.999-33.544-56.492l-27.02 1.168s-28.442 22.539-36.492 79.84c.003 0-2.588 39.436-27.133 46.42z" fill="#d1e3ed"/><path d="m202.58 108.608c5.5-30.71 35.614-70.851 64.423-85.474-14.803 1.191-43.428 9.166-65.779 49.835 0 0-22.494 57.6-29.459 62.177l-12.285 11.207v2.1l15.53 1.646s22.068-10.782 27.57-41.491z" fill="#d1e3ed"/><path d="m164.106 147.704 198.729 33.51 115.277-32.756-9.191 26.808-102.385 40.792-211.168-44.467v-21.487z" fill="#d1e3ed"/><path d="m264.745 178.943a7.618 7.618 0 0 0 -4.77-5.85 21.8 21.8 0 0 0 -17.975 12.214 26.285 26.285 0 0 0 -2.818 13.055c.28 4.493.153 8.428 3.424 11.52.552.522 6.1.3 6.6-.914 1.423-3.48 1.78-7.289 2.671-10.941s2.494-7.385 5.618-9.477c1.433-.96 3.117-1.523 4.476-2.587a7.619 7.619 0 0 0 2.774-7.02z" fill="#d1e3ed"/><path d="m348.527 212.265-9.494 116.826-159.358-45.412-8.136-34.237 3.471-69.4-15.53-1.03v44.314l19.068 79.393 159.945 48.1 4.062 6.413s20.2 10.357 27.517-10.514l75.6-49.116-17.721-5.684-54.751 25.176 6.274-102.49z" fill="#d1e3ed"/><path d="m237.718 193.963 1.423 10.458s-12.356 12.072-11.881 19.786l17.492 1.011s8.9-9.891 6.264-23.035l3.149-8.22s11.227 9.37 10.663 20.941-6.518 64.211-6.518 64.211-42.495 1.361-48.673-10.664 4.637-36.757 4.637-36.757l4.159-20.162s4.991-14.459 19.285-17.569z" fill="#d1e3ed"/><path d="m60.006 171.58-3.533.53c-6.763 7.855-10.364 17.873-13.783 27.658-10.165 29.088-20.069 58.812-21.177 89.606-.346 9.618.571 20.227 7.336 27.072a6.653 6.653 0 0 0 4.49 2.359c2.212-.006 4.048-1.918 4.724-4.026a16.981 16.981 0 0 0 .276-6.587c-3.124-37.976 6.965-76.106 22.987-110.679 2.024-4.368 4.18-8.824 4.529-13.625s-1.562-10.116-5.849-12.308z" fill="#d3e7ef"/><path d="m166.017 242.6c-9.784-39.663-30.078-72.9-30.078-72.9a20.728 20.728 0 0 0 -5.69 16.775c.519 4.244 2.347 8.2 3.988 12.146 9.811 23.611 13.509 49.237 17.122 74.549a95.151 95.151 0 0 1 1.38 16.351c-.173 5.6-3.39 15.575-1.85 20.962s9.236 5.983 14.514 4.1c4.072-1.452 6-6.051 7.015-10.254 4.905-20.351-1.389-41.417-6.401-61.729z" fill="#8da8c6"/><path d="m140.449 356.365c4.1-7.634-6.559-16.577-14.383-20.3-2.5-1.188-5.291-2.036-7.16-4.077-2.54-2.774-2.67-6.935-4.179-10.38-2.53-5.778-9.093-9.168-15.4-8.986s-12.227 3.478-16.665 7.951-7.571 10.078-10.3 15.766c0 0-5 16.381-3.971 21.53a15.388 15.388 0 0 0 1.447 3.05c3.114 7.046 62.901 9.814 70.611-4.554z" fill="#d3e7ef"/><path d="m104.48 273.675c-2.367-4.306-10.025-15.531-10.025-15.531a66.5 66.5 0 0 1 -7.064 15.908 38.634 38.634 0 0 0 -2.52 4.419 15.132 15.132 0 0 0 -.691 10.286 11.99 11.99 0 0 0 4.317 6.419 14.973 14.973 0 0 0 4.565 2.075 13.952 13.952 0 0 0 5.658.674c4.874-.615 8.509-5.31 9.182-10.176s-1.056-9.769-3.422-14.074z" fill="#f97373"/><path d="m124.224 165.014a18.212 18.212 0 0 0 -1.719-5.244 13.5 13.5 0 0 0 -9.505-6.87c1.848-3.134 3.08-6.789 2.589-10.394s-3.014-7.074-6.56-7.891c-1.308-.3-2.686-.244-3.976-.616a1.576 1.576 0 0 1 -.6-.285 1.868 1.868 0 0 1 -.433-1.449c-.055-4.248-.987-8.416-1.5-12.634-.835-6.893-6.568-6.893-6.568-6.893a7.2 7.2 0 0 0 -4.4 4.27 16.91 16.91 0 0 0 -1.037 6.218 53.859 53.859 0 0 0 .256 6.451c.179 1.791.286 3.966-1.2 4.988-.963.664-2.238.547-3.393.735-2.88.469-5.121 3-5.911 5.81a15.388 15.388 0 0 0 .511 8.615 1.434 1.434 0 0 1 -.694 2.135 29.512 29.512 0 0 0 -10.1 10.271c-1.636 2.8-2.823 6.12-2.007 9.257a11.045 11.045 0 0 0 1.468 3.161 6.926 6.926 0 0 0 1.428 1.7c2.422 1.946 5.954.766 8.905-.209 9.815-3.244 20.421-3.193 30.7-2.132a24.513 24.513 0 0 0 7.958.015c2.6-.594 5.117-2.336 5.818-4.908a9.275 9.275 0 0 0 -.03-4.101z" fill="#d3e7ef"/><path d="m132.7 384.234s60.732 6.172 111.994 6.282l6.719 14.147 7.234-14.147s92.172.291 122.525-6.282c0 0 34.2-6.2 34.605-5.641s11.578 30.353 11.578 30.353l-17.691 9.87 18.808 11.359-11.173 38.134s-64.432-3.683-65.363-4.614-119.739-3.538-119.739-3.538l-80.043 14.525-19.454-5.582-19.875-.186-22.2 3.906s-7.225-38.52 3.02-55.852c0 0 11.981-3.366 6.549-20.126 0 0 4.81-19.18 19.894-13.966z" fill="#f9dab9"/><path d="m109.687 469.461 3.133-.552 19.875.186 19.454 5.587 80.043-14.525s118.808 2.607 119.739 3.543 65.363 4.614 65.363 4.614l11.173-38.134-18.808-11.359 17.691-9.87s-11.173-29.8-11.578-30.353-34.605 5.641-34.605 5.641c-7.285 1.578-18.136 2.759-30.414 3.645-.529 8.584-2.21 16.952-6.987 23.966-7.766 11.4-21.878 16.5-35.305 19.669-29.91 7.059-60.878 7.978-91.6 8.866-10.656.308-21.419.608-31.875-1.471-6.655-1.323-13.218-3.61-20-3.47-10.86.224-20.523 6.562-29.487 12.7-9.234 6.318-18.599 12.822-25.812 21.317z" fill="#c49382"/><path d="m143.015 411.336c7.269 26 1.146 46.823-4.9 59.315l14.036 4.031 13.165-2.389c19.19-29.462 7.781-60.957 7.781-60.957-2.286-12.628-7.484-20.262-11.139-24.562-16.315-1.254-27.62-2.375-29.094-2.523 4.262 10.838 10.151 27.085 10.151 27.085z" fill="#fffaf5"/><path d="m380.63 384.345c6.5 14.565 20.458 53.587-1.348 81.638 17.91 1.177 38.012 2.326 38.012 2.326l11.173-38.134-18.808-11.359 17.691-9.87s-11.173-29.8-11.578-30.353-34.605 5.641-34.605 5.641c-.173.038-.359.074-.537.111z" fill="#d8c4b8"/><path d="m120.088 382.876c-15.084-5.214-19.894 13.966-19.894 13.966 5.432 16.76-6.549 20.126-6.549 20.126-10.245 17.332-3.02 55.852-3.02 55.852l22.195-3.911 3.174.03c-11.553-46.762 16.868-60.176 16.868-60.176 1.919-9.7-2.374-19.484-5.587-25.113z" fill="#d8c4b8"/><path d="m137.82 408.763s19.243 18.091 3.537 52.482l-18.093 1.719-3.8-26.481 4.7-26.112z" fill="#d1a58f"/><path d="m176.4 436.75c-3.539-.907-7.2-1.5-10.748-2.369a63.843 63.843 0 0 1 -19.844-8.725 82.135 82.135 0 0 1 -7.693 45l14.036 4.031 13.165-2.389a69.22 69.22 0 0 0 11.084-35.548z" fill="#d8c4b8"/><ellipse cx="82.254" cy="217.9" fill="#fff" rx="29.627" ry="18.275" transform="matrix(.29 -.957 .957 .29 -150.139 233.38)"/><g fill="#8da8c6"><path d="m110.486 174.007a24.513 24.513 0 0 0 7.958.015c2.6-.594 5.117-2.336 5.818-4.908a9.275 9.275 0 0 0 -.038-4.1 18.212 18.212 0 0 0 -1.719-5.244 13.5 13.5 0 0 0 -9.505-6.87c1.848-3.134 3.08-6.789 2.589-10.394s-3.014-7.074-6.56-7.891c-1.308-.3-2.686-.244-3.976-.616a1.576 1.576 0 0 1 -.6-.285 1.733 1.733 0 0 1 -.429-1.332c-2.59 2.421-4.7 5.136-4.384 8.512.229 2.422 1.754 4.537 2.244 6.92s-.887 5.553-3.308 5.321a10.929 10.929 0 0 1 -.286 14.18 12.234 12.234 0 0 0 -2.581 2.994 3.882 3.882 0 0 0 -.087 3.124 103.4 103.4 0 0 1 14.864.574z"/><path d="m41.207 252.421a38.912 38.912 0 0 1 -15.5 4.271 192.835 192.835 0 0 0 -4.194 32.682c-.346 9.618.571 20.227 7.336 27.072a6.653 6.653 0 0 0 4.49 2.359c2.212-.006 4.048-1.918 4.724-4.026a16.981 16.981 0 0 0 .276-6.587 189.278 189.278 0 0 1 4.305-56.577c-.475.276-.95.552-1.437.806z"/><path d="m140.449 356.365c4.1-7.634-6.559-16.577-14.383-20.3-2.5-1.188-5.291-2.036-7.16-4.077-2.54-2.774-2.67-6.935-4.179-10.38a15.376 15.376 0 0 0 -9.776-8.212c.168 1.276.319 2.563.524 3.827 2.574 15.932-9.378 18.76-9.378 18.76 2.989 2.521 13.8 7.867 12.4 11.518-1.428 3.725-6.149 4.732-10.127 5.032q-7.15.54-14.331.4c-5.13-.1-10.3-.464-15.361.379-.078.013-.156.034-.235.047a15.812 15.812 0 0 0 -.053 4.509 15.388 15.388 0 0 0 1.447 3.05c3.115 7.047 62.902 9.815 70.612-4.553z"/><path d="m433.2 50.756-1.066.046c-18.609 13.778-32.561 34.347-41.222 56.125-3.766 9.47-6.73 19.318-11.69 28.222a48.654 48.654 0 0 1 -13.419 15.775c-3.6 11.111-10.429 23.612-23.251 27.26l20.28 3.03 31.143-9.623s15.22-94.065 41.2-99.018 15.288 63.9 15.288 63.9 17.855-1.113 16.278-29.226-1.716-59.998-33.541-56.491z"/><path d="m314.677 173.093q-.416.6-.834 1.194a127.671 127.671 0 0 1 -24.023 25.613l76.716 16.155 102.385-40.792 9.191-26.808-115.277 32.759z"/><path d="m427.952 291.912-54.752 25.182 6.274-102.49-30.947-2.339-3 36.912c7.6 13.712 12.066 29.242 14.307 44.836 3.032 21.1 2.29 42.53 1.7 63.843 3.375-1.85 6.468-5.252 8.533-11.144l75.6-49.116z"/><path d="m203.208 105.536c-.968.658-1.943 1.307-2.934 1.935a85.273 85.273 0 0 1 -17.283 8.474c-4.551 9.691-8.817 17.617-11.226 19.2l-12.285 11.208v2.1l15.53 1.646s22.068-10.787 27.57-41.5c.181-1.005.394-2.03.628-3.063z"/><path d="m171.539 249.442 3.434-68.661-3.3-.964-12.193-.809v44.314l19.068 79.393 56.674 17.043c-2.219-6.413-7.619-12-13.35-16.035-6.581-4.631-14.033-8.3-19.9-13.688l-22.3-6.356z"/><path d="m245.351 190.991a10.214 10.214 0 0 1 -4.469-3.067 25.248 25.248 0 0 0 -1.7 10.438c.28 4.493.153 8.428 3.424 11.52.552.522 6.1.3 6.6-.914 1.423-3.48 1.78-7.289 2.671-10.941a17.964 17.964 0 0 1 3.749-7.834c-3.394 1.248-6.92 1.926-10.275.798z"/><path d="m254.165 193.963-3.149 8.22c2.634 13.144-6.264 23.035-6.264 23.035l-5.443-.315a6.894 6.894 0 0 0 -2.974 4.135c-.437 2.359.922 4.633 2.158 6.69 2.542 4.228 4.824 8.72 5.651 13.583s.04 10.185-3.042 14.037c-3.437 4.3-9.074 6.123-14.473 7.18-3.98.778-8.086 1.288-11.914 2.538 13.067 7.025 43.6 6.049 43.6 6.049s5.955-52.639 6.518-64.211-10.668-20.941-10.668-20.941z"/><path d="m239.141 204.421-1.423-10.458a24.057 24.057 0 0 0 -9.282 4.238 16.523 16.523 0 0 1 4.307 9.543c.117 1.286.088 2.6.111 3.9a71.146 71.146 0 0 1 6.287-7.223z"/></g><path d="m214.361 53.328a99.117 99.117 0 0 0 13.543 4.1c11.485-14.686 25.436-27.364 39.1-34.3-12.024.972-33.156 6.415-52.643 30.2z" fill="#fff"/></g><g id="Layer_5" fill="#3a3245" data-name="Layer 5"><path d="m52.235 343.96c-12.203 16.04-1.107 22.531 15.155 22.492a266.5 266.5 0 0 0 29.367 1.511 262.972 262.972 0 0 0 29.367-1.766c15.5-.056 24.59-7.478 13.3-21.962 19.807-.668 35.314-16.543 37.979-35.931a4.181 4.181 0 0 0 .818-1.016c52.7 14.832 104.946 31.43 157.534 46.635.624 9.185 14.169 10.138 21.061 9.732 11.195-.179 19-6.2 18.508-17.688 24.92-13.529 49.136-28.414 73.718-42.58 8.011 8.623 20.03-2.943 20.336-11.987 1.9-37.222 3.154-74.489 4.668-111.729 2.694-1.069 6.674-1.394 6.861-5l2.73-22.039c.314-2.531.482-3.814-1.193-5.933a57.464 57.464 0 0 1 -6.789-10.163c-5.246-10.6-4.79-21.8-4.951-33.261.235-20.145-3.581-44.686-23.131-54.771-7.018-4.459-15.6-5.071-23.62-7.335-11.722-3.148-23.776-5.5-35.468-7.963-41.211-8.5-83.544-15.4-125.721-12.621-58.195 8.4-67.466 64.316-91.152 106.986a67.954 67.954 0 0 1 -7.644 9.714c-6.7 5.88-12.18 9.484-12.208 19.446-.675 5.417-1.044 10.852-1.18 16.308.072 3.633 4.015 3.868 6.806 4.355.307 3.011-.194 6.041.625 8.93-.285 6.539-.482 12.877-.807 19.345-5.633-15.676-11.165-36.893-29.354-41.726a17.659 17.659 0 0 0 -9.561-13.106c4.978-7.663-2.124-19.389-11.242-19.268a28.969 28.969 0 0 0 .026-7.47c27.705-10.8 11.321-46.783-13.92-46.018-17.757.205-32.566 23.843-20.134 38.345a36.214 36.214 0 0 0 14.069 8.381c-.005 2.592.194 5.2.356 7.537-9.694.536-14.392 11.181-10.384 19.439-4.817 2.217-8.26 6.907-10.149 12.01-25.69 6.358-31.911 51.376-39.678 73.381-10.523 35.237-27.033 98.786 25.002 106.786zm18.6-156.948c8.438-11.928 30.41-14.326 43.205-9.2 12.812 7.326 15.342 24 20.109 36.806a284.42 284.42 0 0 1 9.88 43.288c4.516 26.787 8.694 60.3-23.674 70.349-1.109-12.438-9.964-19.694-22.364-18.794.16-2.52.2-5.053.235-7.579 11.871-.015 15.914-15.385 11.233-24.724-3.116-7.124-7.6-13.893-11.819-20.41-1.291-1.994-4.649-2.392-5.842 0-6.757 14.607-24.606 37.469-.117 45.124-.073 2.59-.157 5.2-.076 7.783-11.729-.365-20.214 7.592-20.665 19.44-18.153-5.365-31.145-21.775-29.478-40.986 3.555-35.051 12.997-69.851 29.369-101.097zm87.9-26.668c.312-3.056.408-5.766 1.381-8.181 67.151 10.817 134.4 21.294 201.582 31.991-.537 7.923 1.26 20.648-7.776 23.758l-91.222-17.649a9.834 9.834 0 0 0 4.28-4.056c2.085-4.17 2.039-12.776-2.943-14.547-11.009-3.913-22.065 3.874-26.919 13.661q-39.525-7.647-79.048-15.3c.123-3.231.33-6.457.66-9.677zm86.765-116.364c48.7 7.32 97.577 13.361 146.3 20.464a121.043 121.043 0 0 0 -16.26 30.122c-50.961-7.688-102.221-13.345-153.24-20.647 6.4-10.866 13.841-21.407 23.2-29.939zm161.842 13c.108-.088.219-.172.328-.259 2.332 12.483-7.587 23.6-12.586 34.38-6.558 13.268-11 27.483-14.176 41.908-3.517 15.948-3.326 35.139-18.389 45.174q-5.8-.929-11.6-1.868c8.778-6.3 16.406-13.663 18.084-25.089 5.583-33.09 11.81-70.99 38.341-94.245zm-319.774 275.263c.006-6.922 3.021-14.626 10.622-15.525 9.268-.8 14.32 4.891 14.63 13.713a87.292 87.292 0 0 1 -25.252 1.812zm13.121-37.987c-6.52 3.264-14.284-.74-14.109-8.371.8-7.548 5.154-13.8 8.282-20.513 4.225 8.275 15.013 20.511 5.827 28.884zm160.121-116.111c.521 2.695.439 4.93-1.992 6.382-7.393 3.85-13.149 11.682-11.528 20.368-1 1.75-2.6 1.826-4.382 1.635-6.267-12.186 3.383-30.741 17.902-28.385zm-89.271 11.649c-.5 13.21-1.556 26.3-2.41 39.477-2.7-9.723-2.578-20.169-5.023-29.889.184-4.2.6-8.519.849-12.829a16.072 16.072 0 0 0 6.584 3.241zm46.492 45.213c10.953-12.433 31.924-4.815 33.01 11.549.219 8.576 2.4 22.252-7.108 26.527-10.131-.846-25.038-1.538-31.633-10.432-.828-9.489-1.014-20.233 5.731-27.644zm36.255-35.207a11.084 11.084 0 0 1 .6-1.892c8.291 6.153 8.257 16.58 6.639 27.251a9.16 9.16 0 0 1 -4.413-.753c.723-4.712.872-9.929-.538-14.6-.73-2.157-1.871-3.825-2.335-5.918a10.338 10.338 0 0 0 .047-4.088zm-17.118 10.083c2.076 3.48 7.158 10.473.653 12.352a23.6 23.6 0 0 0 -6.52-.534c1.431-4.27 2.662-8.584 5.867-11.819zm-2.8-12.683a29.2 29.2 0 0 0 .626 6.351c-5.888 4.793-8.769 11.889-9.988 19.28a27.372 27.372 0 0 0 -5.479 2.388c.403-10.699 4.854-22.536 14.841-28.019zm189.057-27.046c14.946-4.542 29.809-9.13 44.583-14.259 3.03 9.373-1.835 16.248-9.409 21.336-2.883.939-85.284 29.8-85.325 29.3-4.732-3.015-3.055-14.5-2.212-21.818 17.663-3.637 35.165-9.39 52.363-14.56zm13.433 30.388c5.4-1.854 10.61-3.823 16.092-5.53.021 23.8-4.914 47.823-17.743 68.206-.243-20.918 1.434-41.773 1.651-62.677zm-54.429 45.645q.941-13.962 1.882-27.923c6.177-1.621 12.1-4.15 17.983-6-1.157 29.56-1.757 59.093-2.886 88.644-6.6 5.011-14.331 7.7-21.58 11.614q2.402-33.164 4.601-66.336zm25.3 6.33c.486-14.141 1.44-28.383 1.551-42.562q10.357-3.449 20.673-7.021c-1.223 23.691-1.348 47.306-2.114 71.023a123.613 123.613 0 0 1 -21.659 22q.788-21.723 1.552-43.441zm32.178-95.957a4.13 4.13 0 0 0 -.036 1.751c-13.544 4.315-27.15 8.4-40.909 11.99a193.887 193.887 0 0 1 1.833-23.8 375.228 375.228 0 0 0 42.478-7.742q-1.349 8.952-3.363 17.8zm-260.719 105.54c-1.206-4.918-2.632-9.781-4.178-14.6.6-8.781 1.123-17.569 1.683-26.346.706-11.576 1.413-22.924 2.36-34.534 7.37 1.6 14.756 3.128 22.171 4.509-2.9 22.871-4.59 45.882-6.786 68.821-.663 7.508-2.473 16.083-1.944 23.731-3.3-.88-6.559-1.713-9.851-2.417a145.636 145.636 0 0 0 -3.455-19.164zm21.865-.176c1.854-23.229 4.694-46.372 6.709-69.587 5.894.938 11.587 2.368 17.615 3.209-11.275 9.913-13.545 26.655-16.467 40.864-4.377 9.452-6.493 25.371-.374 33.668 4.435 6.675 14.018 8.3 21.2 10.207-.1 4.512-.3 8.824-.55 13.281l-30.377-8.189c1.95-7.355 1.585-15.931 2.244-23.451zm34.967 26.036c.169-2.042.509-4.217.733-6.379 8.024 1.107 17.6 3.412 25.272-.126 3.407-2.239 3.915-6.614 4.685-10.27a355.977 355.977 0 0 0 7.017-50.863c.322-5.343.515-11.069-1.395-15.9 3.218.75 6.46 1.438 9.711 2.1-4.262 32.891-4.655 66.363-6.928 99.43l-39.737-10.711c.273-2.424.442-4.855.642-7.281zm52.5-80.151c11.386 2.152 22.558 4.864 33.775 7.677-2.434 33.837-3.668 67.741-5.89 101.608q-17.355-4.69-34.711-9.374c3.141-33.234 3.886-66.646 6.826-99.911zm49.132 115.023q-7.352-1.986-14.7-3.971 3.042-50.794 6.03-101.583a109.775 109.775 0 0 0 15.214 3.653c-2.696 33.919-4.413 67.942-6.544 101.901zm90.548-241.56c9.677-7.269 17.463 4.355 17.477 13.585-9.8.421-19.234 2.359-28.816 3.63 3.193-5.932 6.782-12.213 11.339-17.215zm-15.75 25.935c10.224-4.986 22.46-3.483 33.564-5.292a268.633 268.633 0 0 1 -1.8 29.885c-14.018 3.254-28.123 5.737-42.318 8.1a137.047 137.047 0 0 1 10.55-32.693zm-193.6-26.993c51.346 7.671 102.969 13.453 154.353 20.859a250.429 250.429 0 0 0 -9.334 39.177c-53.2-8.093-106.349-16.518-159.556-24.568 4.676-11.889 8.545-24.138 14.534-35.468zm-18.784 45.22c.541-1.112 1.05-2.237 1.555-3.363 53.767 8.115 107.46 16.707 161.217 24.883-.176 13.113-11.171 21.134-20.941 27.891-53.161-8.752-106.4-17.01-159.564-25.728a78.255 78.255 0 0 0 17.73-23.683zm-64.266 232.89c-19.63 3.58-40.127 3.518-60.1 2.449 6-24.576 25.741-18.4 44.481-24.321 4.341 2.239 8.174 4.462 11.569 8.284 2.424 2.739 9.519 11.039 4.05 13.588zm64.509-51.954c-5.7-1.648-11.435-3.492-17.223-4.96-.265-4.513.432-9.027.063-13.576 45.682 12.656 91.531 24.785 137.275 37.228-4.335 6.331-11.728 11.162-19.768 10.915q-50.129-14.962-100.351-29.607zm145.131 49.1c-2.734-.9-3-2.389-2.847-4.955 2.624-41.219 5.76-82.433 8-123.682 5.707 2.292 11.535 4.325 17.352 6.355 2.46 6.919 1.631 15.193 1.544 22.273-.255 23.493-1.31 46.978-3.372 70.383q-.775 8.9-1.7 17.785c-.506 6.78-1.9 12.91-9.761 13.364a31.156 31.156 0 0 1 -9.22-1.524zm42.983-25.07c-4.125 2.439-8.4 4.762-12.475 7.352q.626-8.166 1.238-16.333c11.5-4.247 22.3-11.346 33.452-16.638 5.232-.483 6.292 4.676 3.967 8.2a18.4 18.4 0 0 1 -7.247 6.236c-6.324 3.704-12.625 7.451-18.935 11.183zm74.906-226.617c-.055 9-1.893 18.527-7.545 25.833-.118-17.03 8.077-67.534-21.62-60.348-19.182 7.391-35.057 49.862-38.876 69.258-2.564 11.343-2.858 25.087-12.751 33.065-.655-7.566.833-14.855 2.327-22.238 4.75-27.113 12.261-55.061 30.161-76.647 31.598-39.652 48.932-4.672 48.304 31.077zm-126.869-72.464c15.463 2 30.928 4.469 46.22 7.511 8.649 1.211 17.34 4.644 22.416 12.158a61.688 61.688 0 0 0 -8.167 7.354c-47.94-7.258-96.083-13.142-144.069-20.082a80.273 80.273 0 0 1 24.671-11.071 451.172 451.172 0 0 1 58.929 4.13zm-159.311 101.207c21.951-36.464 30.051-89.819 77.016-102.78-19.713 11.764-34.19 31.929-43.88 52.825-10.133 22.767-15.455 49.215-36.266 65.133-2.965-.5-5.936-.973-8.91-1.377a76.1 76.1 0 0 0 12.04-13.801zm-11.063 128.774c2.819 12.333 6.151 25.121 5.623 37.884-1.871 10.818-13.741 16.71-18.431 4.422 4.437-30.567-3.946-61.487-11.537-90.787-2.179-10.658-11.751-24.028-3.784-33.81 6.6 8.28 9.818 19.829 13.13 29.659q8.741 25.941 14.999 52.632zm-90.431-157.023a19.491 19.491 0 0 1 15.202-18.777c16.9-3.476 34.038 22.01 14.746 31.054-2.182-10.057-16.094-7.94-17.685 1-5.662-3.264-12.165-5.374-12.263-13.277zm18.457 16.274c.3-1.117 1.484-4.267 3.285-3.878 3.129 1.459 1.51 11.425 2.719 14.78-2.113.1-4.052.226-6.148.311.205-3.68-.768-7.838.144-11.213zm-10.478 20.816c3.876-4.456 16.9-2.849 22.78-2.975 4.777.385 9.751 7.452 4.092 10.676-9.437.048-17.813.752-26.952 1.036-1.527-2.713-1.954-6.055.08-8.737zm.237 15.457c4.279-.324 8.629-.236 12.918-.354 7 .494 15.75-2.769 21.37 2.658 3.745 3.709 3.737 9.03-.61 12.3-12.8-5.489-29.252-3.978-41.558 2.139-7.432-4.479.155-16.159 7.88-16.743zm-55.84 104.476q6.14-26.184 14.694-51.721c3.374-10.069 6.625-22.055 13.431-30.571 9.252 11.141-5.515 30.836-7.986 43.5a370.478 370.478 0 0 0 -11.425 46.051c-1.739 9.387-3.3 19.186-2.315 28.62a14.392 14.392 0 0 1 -3.692 7.909c-14.838-5.961-4.646-32.297-2.707-43.788z"/><path d="m96.614 410.336c-7.43 2.716-8.042 2.8-9.58 10.953a110.118 110.118 0 0 0 .409 52.308c.393 1.613 2.494 3.04 4.147 2.355 6.818-2.826 14.852-3.109 22.121-3.07 5 5.4 12.356 8.668 19.573 6.458 63.684-7.7 127.341-17.946 191.742-13.3 33.078 1.612 66.051 4.987 98.9 9.167a3.3 3.3 0 0 0 3.168-2.412 137.167 137.167 0 0 0 6.081-42.876c.8-3.523-13.717-8.363-16.652-10.644l12.883-5.728c1.376-.611 1.774-2.391 1.509-3.708-.993-4.83-9.119-37.67-15.032-34.859-51.719 11.733-105.356 12.488-158.135 12.888-3.112.006-3.389 3.588-4.051 5.895-1.65.062-3.378.563-4.971.032-1.283-1.99-1.7-5.668-4.6-5.75-39.243-.4-78.381-2.885-117.425-6.744-17.122-8.966-35.625 17.055-27.09 19.39 1.033 3.525.337 7.414-2.997 9.645zm74.88 40.376a61.669 61.669 0 0 1 -6.441 16.094c-4.326.62-12.491 1.741-18.873-.584 7.678-22.657 4.2-55.46-8.538-75.846 7.8-.227 15.525.179 23.305.521a84.489 84.489 0 0 1 10.547 59.815zm-30.138-29.137a111.5 111.5 0 0 1 1.043 30.977c-4.516.164-9.205.139-13.753.548 3-11.9 1.818-24.713-2.281-36.132.684.276 10.535 4.002 14.991 4.607zm108.792-11.206c1.159 2.462 4.872 1.618 5.552-.725q2.223-7.663 4.447-15.327c39.615.561 79.817-.968 119.242-6.344 7.212 15.253 9.071 28.889 8.435 45.614.08 3.059 4.634 3.829 5.434.735 2.145-8.3 1.243-17.479-.292-25.819-1.3-7.063-3.453-14.953-7.161-21.426 9.749-1.462 19.459-3.05 29.086-5.147a136.385 136.385 0 0 1 9.083 26.885c-20.4 9.485-27.469 8.372-2.672 20.339-.961 10.32-5.086 22.093-13.1 29.748-15.267 8.251-64.129-3.529-84.194-4.295a455.2 455.2 0 0 0 -150.275 10.374c10.682-24.2 6.6-53.03-6.165-75.392q37.311 2.935 74.728 4.093 3.925 8.343 7.852 16.687zm-138.315-21.162a12.037 12.037 0 0 1 10.875-1.552c6.695 5.31 9.669 18.219-1.175 20.047a8.752 8.752 0 0 0 -6.333.185c-7.682 1.846-11.068 14.248-12.338 20.558a55.927 55.927 0 0 0 5.829 37.639 62.408 62.408 0 0 0 -15.58 2.225c-3.319-16.161-3.827-33.9 1.665-49.577 1.1-1.317 2.386-1.357 3.907-2.176a13.867 13.867 0 0 0 5.886-18.68c2.11-3.152 4.143-6.443 7.264-8.669z"/><path d="m384.632 454.676c3.456 3.383 8.58-1.78 5.214-5.215s-8.621 1.873-5.214 5.215z"/><path d="m227.366 248.958c-.6 3.238-1.681 6.7-.339 9.846.911 1.923 4.28 1.993 5.168 0 1.139-2.866.4-5.909.777-8.917 4.506-1.608 4.227-8.8-.2-10.29-5.561-1.597-10.16 5.455-5.406 9.361z"/></g></svg>