<svg height="512" viewBox="0 0 500 500" width="512" xmlns="http://www.w3.org/2000/svg"><g id="Layer_4" data-name="Layer 4"><path d="m468.618 326.669-325.911-99.091c-22.921-20.307-32.126-5.41-67.712.777a126.482 126.482 0 0 1 -53.081-1.924c-4.829-2.706-9.75-5.3-14.38-8.294 1.006 14.662 5.108 28.83 8.95 43.061a203.707 203.707 0 0 0 6.2 27.744c0 .02.006.039.009.058 1.05 7.272 1.473 14.791-.453 21.882s-15.418 18.488-15.418 18.488c17.246 2.43 29.525 17.244 43.278 27.937a103.322 103.322 0 0 0 68.146 21.41l.221-.014c17.625 3.859 36.088 5.2 54.085 5.409 37.666.43 75.881-3.212 112.623 5.091 15.615 3.528 30.693 9.168 46.312 12.677 22.959 5.158 46.676 5.63 70.2 6.08 15.18.29 30.735.523 45.07-4.477 25.532-8.906 40.55-34.605 49.807-60.012z" fill="#ffdbb8"/><path d="m154.179 271.836c-14.4-5.555-31.713-7.661-44.468 1.025a79.5 79.5 0 0 0 -9.09 7.873c-18.421 17.137-41.183 28.743-63.621 40.126l-5.8 3.029c111.98-55.405 64.7 27.82 134.033 38.211 15.211 2.279 53.308-.512 53.3-22.682-.004-32.141-34.365-56.018-64.354-67.582z" fill="#fff7f0"/><path d="m468.618 326.669-325.911-99.091c-22.921-20.307-32.126-5.41-67.712.777-1.553.27-3.085.5-4.6.712.575.332 1.147.671 1.709 1.033 10.526 6.771 17.767 20.225 13.589 32.024-3.388 9.569-12.876 15.363-21.7 20.386l-40.756 23.213a36.869 36.869 0 0 1 -1 5.159c-.8 2.955-3.615 6.657-6.622 9.971 8.482-.538 16.353.162 24.426-2.865 27.822-11.888 53.659-25.627 73.566-44.883 31.03-2.493 23.3 33.127-.67 48.25 10.437 1.973 21.414-7.022 31.2-2.9 4.7 1.978 7.7 6.5 11.176 10.233 15.855 17.044 41.873 18.041 64.251 24.454 8.4 2.408 16.766 5.861 23.048 11.939 5.231 5.061 8.771 12.245 8.623 19.412a220.481 220.481 0 0 1 33.935 4.707c15.615 3.528 30.693 9.168 46.312 12.677 22.959 5.158 46.676 5.63 70.2 6.08 15.18.29 30.735.523 45.07-4.477 25.532-8.906 40.55-34.605 49.807-60.012z" fill="#eab386"/><path d="m404.976 269.542c6.6-17.38 7.646-39.124-5.191-52.572-8.25-8.643-20.428-12.029-30.8-17.961-11.665-6.671-21.084-16.618-32.063-24.367-13.906-9.815-30.045-15.923-46.153-21.42-12.434-4.243-25.507-8.235-38.507-6.344-15.428 2.244-29.586 10.836-41.031 21.422-22.731 21.022-47.031 18.033-47.031 18.033l-17.207 22.521c-1.8 2.356-3.691 5-3.5 7.957.313 4.8 5.735 7.554 7.645 11.968 2.524 5.832-1.651 12.157-4.89 17.625a68.507 68.507 0 0 0 -5.7 56.534c2.832 8.172 7.618 16.154 15.229 20.26 4.78 2.579 10.288 3.429 15.7 3.909 18.3 1.622 36.7-.532 55.065-.754s37.386 1.681 53.422 10.641l10.573-21.582c1.588-3.24 3.228-6.552 5.837-9.043 7.016-6.7 19.163-5.044 26.458 1.345s10.664 16.134 12.632 25.629c.311 1.5.724 3.191 2.06 3.939a5.3 5.3 0 0 0 2.893.388l50.448-2.718c-2.783-3.7-8.7-5-9.755-9.5a10.23 10.23 0 0 1 .6-5.287c5.504-17.765 16.663-33.244 23.266-50.623z" fill="#f7978d"/><path d="m260.221 197.676a72.538 72.538 0 0 0 60.54-32.522 251.92 251.92 0 0 0 -29.992-11.932c-12.434-4.243-25.507-8.235-38.507-6.344-15.428 2.244-29.586 10.836-41.031 21.422-1.85 1.712-3.71 3.249-5.568 4.656a72.424 72.424 0 0 0 54.558 24.72z" fill="#ffebe8"/><path d="m265.709 183.644c-15.22 8.235-28.222 20.046-43.1 28.876-4.506 2.673-9.473 5.137-14.7 4.841-7.848-.444-13.9-6.8-20.971-10.237a14.706 14.706 0 0 0 -8.312-1.745 13.836 13.836 0 0 0 -7.989 4.7c-5.27 5.748-7.385 13.79-12.386 19.772-.319.382-.657.745-1 1.107 17.112 11.985 34.45 23.734 53.223 32.861 1.97.958 3.96 1.894 5.935 2.857a527 527 0 0 1 39.17-36.812c20.538-17.4 42.5-33.3 60.8-53.036l9.03-11.648c-20.489 4.194-41.309 8.513-59.7 18.464z" fill="#bf4c4c"/><path d="m389.476 209.242a99.833 99.833 0 0 1 -.542 44.744c-3.954 16.046-14.56 32.9-31 34.625-14.5 1.517-27.574-9.315-42.106-10.426-19.611-1.5-38.016 14.826-57.305 10.98-6.259-1.249-11.891-4.546-17.376-7.809q-35.426-21.078-70.209-43.211c-17.529-10.567-39.091-6.268-33.232 53.245a65.58 65.58 0 0 0 2.833 11.548c2.832 8.172 7.618 16.154 15.229 20.26 4.78 2.579 10.288 3.429 15.7 3.909 18.3 1.622 36.7-.532 55.065-.754s37.386 1.681 53.422 10.641l10.573-21.582c1.588-3.24 3.228-6.552 5.837-9.043 7.016-6.7 19.163-5.044 26.458 1.345s10.664 16.134 12.632 25.629c.311 1.5.724 3.191 2.06 3.939a5.3 5.3 0 0 0 2.893.388l50.448-2.718c-2.783-3.7-8.7-5-9.755-9.5a10.23 10.23 0 0 1 .6-5.287c5.507-17.757 16.666-33.239 23.269-50.618s7.646-39.124-5.191-52.572a43.644 43.644 0 0 0 -10.303-7.733z" fill="#bf4c4c"/><g fill="#d1e3ed"><path d="m344 171c-4.79-4.1-22.061-13.372-32.052-9.111-16.808 7.168-31.487 15.047-44.236 28.138s-24.732 27.221-39.868 37.458a90.956 90.956 0 0 0 -9.508 6.759 60.852 60.852 0 0 0 -8.968 10.743q-25.559 36.054-48.315 73.992s31.23 3.617 43.259 4.321c2.824.165 5.787.3 8.343-.912 2.211-1.047 3.854-2.979 5.4-4.871q7.282-8.89 13.919-18.286c3.52-4.984 6.988-10.293 7.874-16.33.415-2.833.243-5.739.8-8.548 1.007-5.1 4.292-9.413 7.551-13.464a443.2 443.2 0 0 1 31.6-35.236c9.96-9.979 20.5-19.555 32.637-26.722s26.064-11.845 40.164-11.351c1.254-6.414-3.634-12.326-8.6-16.58z"/><path d="m448.559 257.482c-.469-6.24-2.346-12.544-6.378-17.329a41.881 41.881 0 0 0 -6.256-5.711c-7.307-5.758-28.845-11.9-28.845-11.9a63.453 63.453 0 0 1 2.28 29.59c-2.271 14.043-9.171 26.837-15.645 39.5q-7.773 15.209-14.917 30.728a7.811 7.811 0 0 0 -1.046 4.462c.422 2.447 2.968 3.87 5.3 4.712 8.8 3.174 18.606 3.075 27.619.564a67.445 67.445 0 0 0 24.49-13.3 24.331 24.331 0 0 0 6.021-6.581c1.732-3.086 2.233-6.688 2.7-10.195l3.471-25.85c.84-6.195 1.674-12.45 1.206-18.69z"/><path d="m333.9 352.305q-.185-7.821-.368-15.643a52.482 52.482 0 0 0 -.69-8.7 35.413 35.413 0 0 0 -3.665-9.828 34.035 34.035 0 0 0 -7.493-9.875 1.646 1.646 0 0 1 -.688-.977 1.624 1.624 0 0 1 .554-1.142 53.926 53.926 0 0 0 8.448-13.028c1.139-2.479 2.1-5.254 1.413-7.893s-3.713-4.794-6.18-3.63l-3.277.158c-4.953.942-8.819 4.829-11.7 8.963s-5.164 8.742-8.679 12.355c-1.969 2.023-4.286 3.69-6.2 5.762-4.379 4.73-6.355 11.208-7.342 17.578a72.683 72.683 0 0 0 1.179 28.142 11.06 11.06 0 0 0 2.593 5.52 8.548 8.548 0 0 0 6.155 2.032 54.135 54.135 0 0 0 6.587-.9c7.86-1.13 15.926.709 23.78-.464a7.379 7.379 0 0 0 3.429-1.192c2.074-1.587 2.202-4.621 2.144-7.238z"/></g><path d="m344.329 343.148c-1.188.457 43.806 38.1 90.612 4.5 0 .001-41.882-23.259-90.612-4.5z" fill="#ffdbb8"/><path d="m435.164 318.805a24.331 24.331 0 0 0 6.021-6.581c1.732-3.086 2.233-6.688 2.7-10.195l3.471-25.85c.833-6.2 1.667-12.457 1.2-18.7-.081-1.07-.219-2.139-.386-3.2-.023.086-.042.173-.065.259-3 10.918-10.651 20.97-21.326 24.74-8.672 3.063-18.288 1.822-27.6 1.584-1.78 3.617-3.637 7.2-5.463 10.773q-7.773 15.209-14.917 30.728a7.811 7.811 0 0 0 -1.046 4.462c.422 2.447 2.968 3.87 5.3 4.712 8.8 3.174 18.606 3.075 27.619.564a67.445 67.445 0 0 0 24.492-13.296z" fill="#8da8c6"/><path d="m292.432 198.517c-21.015 14.876-37.261 35.377-53.518 55.343a11.4 11.4 0 0 1 -3.691 3.364c-3.076 1.459-6.671-.058-9.726-1.559l-14.255-7c-1.1-.539-2.207-1.08-3.327-1.6q-7.734 10.961-15.21 22.1c5.377 3.994 11.324 9.2 10.571 15.82a15.6 15.6 0 0 1 -3.19 7.122 41.765 41.765 0 0 1 -8.381 8.692c-6.746 5.218-15.069 8.357-21.063 14.425a28.241 28.241 0 0 0 -3.552 4.442c9.685 1.084 28.5 3.126 37.225 3.637 2.824.165 5.787.3 8.343-.912 2.211-1.047 3.854-2.979 5.4-4.871q7.282-8.89 13.919-18.286c3.52-4.984 6.988-10.293 7.874-16.33.415-2.833.243-5.739.8-8.548 1.007-5.1 4.292-9.413 7.551-13.464a443.2 443.2 0 0 1 31.6-35.236c9.96-9.979 20.5-19.555 32.637-26.722s26.061-11.848 40.161-11.354c.563-2.87.056-8.5-4.621-11.005-20.628-.975-38.463 9.848-55.547 21.942z" fill="#8da8c6"/><path d="m333.528 336.662a52.482 52.482 0 0 0 -.69-8.7 35.413 35.413 0 0 0 -3.665-9.828 34.035 34.035 0 0 0 -7.493-9.875 1.646 1.646 0 0 1 -.688-.977 1.624 1.624 0 0 1 .554-1.142 53.926 53.926 0 0 0 8.448-13.028c1.139-2.479 2.1-5.254 1.413-7.893s-3.713-4.794-6.18-3.63l-.288.014a5.009 5.009 0 0 1 .872 2.043c.5 2.926-1.029 5.8-2.7 8.251a55.276 55.276 0 0 1 -8.134 9.467 9.451 9.451 0 0 1 -2.258 1.681c-1.6.772-3.469.668-5.221.978s-3.653 1.33-3.92 3.089a4.108 4.108 0 0 0 2.009 3.7c1.207.855 2.63 1.368 3.825 2.24 3.561 2.6 4.235 7.589 4.241 12a80.612 80.612 0 0 1 -1.3 14.545c-.63 3.461-1.662 7.159-4.465 9.286-4.592 3.483-11.139 1.033-16.868 1.664a14.431 14.431 0 0 0 -2.57.533q.332 1.744.75 3.471a11.06 11.06 0 0 0 2.593 5.52 8.548 8.548 0 0 0 6.155 2.032 54.135 54.135 0 0 0 6.587-.9c7.86-1.13 15.926.709 23.78-.464a7.379 7.379 0 0 0 3.429-1.192c2.086-1.582 2.214-4.616 2.152-7.233q-.184-7.83-.368-15.652z" fill="#8da8c6"/><path d="m89.519 182.829c-12.669-8.7-26.755-15.9-36.711-27.614a115.524 115.524 0 0 1 -8.225-11.442 12.021 12.021 0 0 1 -1.631-3.091 15.355 15.355 0 0 1 -.268-4.695 28.332 28.332 0 0 0 -2.9-12.962c-1.6-3.255-3.956-6.29-7.214-7.887s-7.523-1.46-10.2 1c0 0-9.853 4.282-5.953 15.3 1.686 4.761 4.492 9.423 9.3 10.978 1.815.588 3.955.931 4.984 2.539a6.19 6.19 0 0 1 .69 1.84c5.976 23.619 1.882 49.531 11.607 71.869 1.083 2.488 2.413 5 4.631 6.566a14.758 14.758 0 0 0 6.23 2.143c21.094 3.417 41.987-5.45 63.052-9.041-2.53-15.162-14.723-26.802-27.392-35.503z" fill="#92b27d"/><path d="m71.645 220.144c-4.3 3.522-9.375 5.782-14.647 7.637 20.031 2.132 39.9-6.039 59.918-9.452-2.535-15.159-14.728-26.8-27.4-35.5s-26.755-15.9-36.711-27.614a115.524 115.524 0 0 1 -8.225-11.442 12.021 12.021 0 0 1 -1.631-3.091 15.355 15.355 0 0 1 -.268-4.695 28.332 28.332 0 0 0 -2.9-12.962c-1.6-3.255-3.956-6.29-7.214-7.887a10.387 10.387 0 0 0 -4.415-1.03 17.214 17.214 0 0 1 3.276 23.227c-.987 1.421-2.259 2.946-1.954 4.649a4.4 4.4 0 0 0 1.628 2.446c3.345 2.843 8.347 3.345 11.305 6.588 2.407 2.639 2.881 6.438 3.767 9.9a36.431 36.431 0 0 0 13.565 20.109c6.785 5 15.764 8.109 19.29 15.762 3.684 7.982-.585 17.781-7.384 23.355z" fill="#5d7c46"/><path d="m24.362 95.722c-1.551-1.774-4.292-2.866-6.529-1.923l-6.27 3.542c-2.392 1.621-3.138 4.659-3.051 7.412.1 3.14 4.5 11.359 5.866 11.976 2.288 1.035 11.846-3.231 14.388-3.277 1.02-1.252-2.852-15.952-4.404-17.73z" fill="#cc938b"/><path d="m16.591 94.5c7.58 17.337-2.688 17.514-4.607 19.053a9.87 9.87 0 0 0 2.394 3.175c2.288 1.035 11.846-3.231 14.388-3.277 1.02-1.249-2.852-15.956-4.4-17.73-1.304-1.486-5.8-1.488-7.775-1.221z" fill="#a56262"/><path d="m334.256 165.129c-7.088-3.313-16.1-5.885-22.3-3.239-10.394 4.433-19.972 9.141-28.785 15.182 13.829 5.122 36.174 8.781 51.085-11.943z" fill="#fff"/><path d="m75 228.355a126.482 126.482 0 0 1 -53.081-1.924c-4.829-2.706-9.75-5.3-14.38-8.294a136.537 136.537 0 0 0 2.994 19.807c22.986 13.416 52.5 15.626 76.95 4.888 6.053-2.658 11.893-6.117 16.248-11.091a25.709 25.709 0 0 0 6.18-12.829c-8.832 2.364-19.35 6.737-34.911 9.443z" fill="#fff7f0"/></g><g id="Layer_5" fill="#3a3245" data-name="Layer 5"><path d="m498.553 341.275c-9.393-6.068-17.788-13.325-26.071-20.775-4.569-4.019-7.772-8.032-7.925-14.371 2.79-21.908 2.17-39.831-13.716-57-1.988-15.071-26.212-29.787-40.526-27.911-17.36-12.718-35.47-24.518-53.615-35.988-2.357-11.834-12.341-16.939-22.281-21.933-7.312-4.2-14.341-6.209-22.238-5.685-21.171-14.612-48.153-19.012-72.634-10.282-16.4 5.749-28.39 18.351-43.348 26.648-6.42 2.795-12.918 5.291-19.612 7.635-5.457 2.165-11.656 1.085-16.593 4.127-7.018 8.855-13.1 18.571-19.013 28.207-6.446-1.639-14.045-1.324-20.59-.576-14.98-33.487-53.04-32.4-73.958-76.777 2.917-6.469-3.206-14.214-6.213-19.663a11.747 11.747 0 0 0 -8.584-5.969c-.722-6.149-1.591-18.1-9.1-18.959-5.465-.591-12.849 1.709-16.614 6.382-5.885 4.739.489 15.142 5.283 20.4-7.539 8.349 4 30.149 14.618 30.021 3.295 12.367 6.3 24.837 7.1 37.667.949 12.361-.234 25.533 2.853 37.681a107.366 107.366 0 0 1 -25.162-7.915c-3.494-1.583-6.5 3.2-3.067 5.248 19.322 11.524 43.757 13.459 65.547 9.779 19.806-2.374 40.512-16.277 59.864-5.509 3.8 2.726 5.037 9.032 3.512 13.456-15.572 19.2-32.73 37.562-52.7 51.89a181.056 181.056 0 0 1 -38.6 20.462c-14.058 6.118-29.772 7.375-43.738 12.589-6.6 8.291 9.748 6.864 14.218 6.246 13.5-1.327 26.935 3.777 40.266.087 3.073-.837 3.056-4.563.815-6.234-4.5-3.356-.161-8.112 4.723-11.8 18.437-8.21 34.779-20.361 49.36-34.206 10.156-2.487 11.586 11.506 9.264 18.518-4.245 16-21.384 23.5-34.915 30.182-2.973 1.468-1.633 6.68 1.729 6.383 7-.62 14.017-1.018 21.038-1.042 17.98 3.976 35.651 9.826 53.905 12.564 23.833 3.243 47.614-.941 71.375-3.654a61.224 61.224 0 0 1 37.516 12.687c18 14.7 21.617 10.738 42.384 10.963 6.912.05 15.869.788 22.3-2.159 3.184-1.327 1.307-11.826 1.744-15.629 27.146-3.942 55.159-8.35 82.288-1.746 8.744 2.027 16.713 5.507 25.043 8.718 3.112 1.2 4.744-3.506 2.179-5.169-9.518-6.172-21.025-9.312-32.61-11.025 26.959-6.794 57.859-8.694 80.78 9.792 3.794 2.845 7.466-3.541 3.719-6.355zm-118.516-61.766c12.708 10.664-1 26.378-7.765 36.557-12.731-7.078-24.858-15.161-37.192-22.872 6.379-15.225-12.9-20.4-21.862-10.4-16.081-9.94-31.37-21.064-47.533-30.886a273.1 273.1 0 0 1 28.355-32.12 919.912 919.912 0 0 0 85.997 59.721zm-148.773 1.839c-7.337 10.2-14.153 21.061-21.821 31.149a18.134 18.134 0 0 1 -3.631 1.289c-10.5-4.232-21.813-4.013-32.945-3.865 9.414-16.312 19.008-32.175 29.5-47.842q14.442 9.643 28.897 19.269zm-61.027-33.734c7.575 5.488 15.047 11.115 22.6 16.631-3.95 6.3-8.016 12.5-11.89 18.84-13.288-11.943-39.67-22.789-21.163-42.988q5.238 3.744 10.453 7.517zm100.931 63.125c4.988 8.753-1.238 10.277-8.22 6.552-7.79-3.062-14.926-7.082-22.966-9.039 2.523-5.385 5.823-10.064 9.242-14.981 7.297 5.661 17.342 9.135 21.944 17.468zm-107.98-2.348c-15.811-5.788-22.23-28.71-17.983-43.893 10.108 8.743 21.148 16.743 32.072 24.49-4.063 6.532-8.111 13.114-11.786 19.853q-1.153-.208-2.303-.45zm140.778-14.279q-2.054 2.724-4.034 5.511c-16.467-3.783-32.962-10.13-45.864-21.59-5.067-7.784 3.384-14.165 7.263-20.317 15.166 11.018 31.555 20.154 47.446 30.035-1.67 2.101-3.244 4.282-4.811 6.361zm18.576-9.088c1.959-.642 4.674-.8 6.087 1.119 3.164 4.6-5.69 13.273-8.357 17.039a20.672 20.672 0 0 0 -10.365-2.419c3.209-6.135 6.308-13.663 12.635-15.739zm9.211 14.625c11.879 8.535 24.488 15.56 37.481 22.3-6.187 13.689-26.228 14.014-35.025 2.729-1.734-6.6-4.384-12.679-8.356-17.057a72.61 72.61 0 0 0 5.9-7.972zm102.981-62.016c13.659 8.689 5.427 38.1 2.561 51.5-2.259 7.242-3.716 14.882-8.522 20.862-9.621 9.679-30.927 23.724-44.3 14.921-.548-3.584 1.224-6.808 2.822-10.2a341.951 341.951 0 0 0 17.023-31.756c7.819-17.045 15.823-36.442 8.97-55.388 7.412.071 16.243 5.959 21.446 10.061zm-39.244-17.1c16.887 17.682 2.441 38.965-3.646 57.944-31.423-20.235-62.639-40.823-91.977-64.048 42.289-36.335 56.374-20.507 95.623 6.102zm-58.244-47.313c3.782 2.34 9.047 4.968 10.728 9.387-35.888-1.967-66.827 35.109-89.159 59.26-5.34 6.3-10.932 12.989-15.845 20.047-2.822 2.919-7.281 5.669-11.223 5.407-7.923-4.988-16.073-9.78-23.179-16.14 5.027-5.949 8.3-13.856 14.615-18.517 14.087-5.355 24.96-16.108 34.7-27.3 19.589-21.07 49.375-56.335 79.363-32.146zm-74.178 16.1c-.061-.051-.121-.1-.184-.154.134-.02.268-.047.4-.069-.07.077-.144.15-.216.225zm40.032-29.12c-17.551 4.552-33.77 29.89-52.1 20.686-8.719-6-17.095-12.474-26.138-18.029 22.316-15.942 54.832-17.378 78.238-2.657zm-140.7 33.649c15.055 10.285 29.039 22.032 44.617 31.518 2.768 1.655 5.979-2.3 3.5-4.54-12.257-11.028-26.117-19.9-38.906-30.305 17.648-3.247 33.386-12.48 47.339-23.5 13.031 9.25 26.382 18.14 39.583 27.152-9.665 10.475-18.755 22.212-31.455 29.2-2.835 1.558-6.043 2.521-8.705 4.366-6.407 5.709-10.514 13.64-15.715 20.433-18.573-10.3-38.085-19.372-53.907-33.767 3.735-7.327 9.115-13.675 13.649-20.557zm-123.091-59.034a14.04 14.04 0 0 1 -1.906 1.892c-4.956 1.313-9.529 3.914-13.623-1.051-3.3-4.007-6.106-10.072-1.518-13.938 7.8-3.081 11.043-6.735 14.592 3.51 1.32 2.613 4.665 6.827 2.455 9.587zm-18.46-36.3c2.886-.452 3.428 10.753 4.019 13.121-3.135.924-6.5 2.711-8.847-.4-1.146-1.519-3.816-7.151-3.466-10.091 2.491-1.66 5.165-3.045 8.294-2.63zm59.263 124.126a114.521 114.521 0 0 1 -12.86 2.346c-15.483-4.408-17.752-24.087-20.939-37.532-2.369-12.389-5.955-26.485-2.655-38.978.244-.276.486-.553.731-.828 16.857 33.409 54.312 39.2 68.038 66.888-10.942 1.956-21.52 5.494-32.315 8.104zm239.7 135.435c-7.624.355-15.081-.461-22.8.036a10.455 10.455 0 0 1 -4.763-4.287c-1.235-8.541-2.157-16.738-.653-25.626 1.459-9.563 6.158-20.134 16.727-20.62 20.192-1.226 22.347 27.573 22.163 44.168-.886 7.987-4.68 6.072-10.679 6.329z"/><path d="m233.219 245.835-.042-.062c-3-5.058-10.307.219-6.281 4.564 2.949 3.304 8.654-.625 6.323-4.502zm-1.09-1.011.021.027c-.011-.012-.021-.024-.033-.036z"/><path d="m275.938 205.655c-3.554-5.654-11 1.721-5.383 5.367a3.945 3.945 0 0 0 5.383-5.367z"/><path d="m315.884 173.79c-3.586-3.652-9.206 2-5.568 5.569 3.584 3.653 9.205-2 5.568-5.569z"/><path d="m425.7 253.494c3.554 3.622 9.125-1.982 5.52-5.52-3.559-3.621-9.13 1.983-5.52 5.52z"/><path d="m414 294.715c-4.922 1.516-3.1 9.02 2.025 7.742 4.892-1.257 2.813-9.023-2.025-7.742z"/><path d="m312.89 320.431c-9.581-2.517-14.4 11.83-4.89 15.242-.072 3.825-.088 7.639.127 11.459.2 4.162 6.747 4.163 6.485 0-.224-3.911-.405-7.858-.248-11.771 6.168-2.836 4.536-12.899-1.474-14.93z"/><path d="m196.915 296.2c3.578 3.646 9.187-2 5.557-5.557-3.579-3.65-9.187 1.992-5.557 5.557z"/><path d="m87.509 313.122c4.932 2.576 7.216-5.9 1.672-6.173-3.288-.101-4.541 4.588-1.672 6.173z"/><path d="m97.071 300.511a3.323 3.323 0 0 0 5.536 1.423c4.338-5.586-6.607-8.434-5.536-1.423zm4.955 1.8-.217.168c.078-.047.143-.115.217-.168z"/><path d="m442.263 379.312c2.177 3.307 8.667 1.051 7-3.03-2.342-5.482-10.324-2.253-7 3.03z"/><path d="m464.912 366.125c-4.936 0-4.945 7.672 0 7.672s4.945-7.672 0-7.672z"/></g></svg>