<svg height="512" viewBox="0 0 500 500" width="512" xmlns="http://www.w3.org/2000/svg"><g id="Layer_4" data-name="Layer 4"><path d="m460.63 175.264s-22.054-10.64-43.125-63.382c-6.525-16.331-19.617-30.572-35.881-37.26 0 0-34.785-16.567-50.141-21.772-4.576-1.551-9.454-2.967-14.178-1.953-4.5.965-8.246 4.005-12.526 5.688a739.326 739.326 0 0 0 -108.614 0c-4.28-1.683-8.029-4.723-12.526-5.688-4.724-1.014-9.6.4-14.178 1.953-15.356 5.2-50.141 21.772-50.141 21.772-16.264 6.688-29.356 20.929-35.881 37.26-21.071 52.742-43.125 63.382-43.125 63.382s-3.981 22.008-3.833 35.52l15.335 1.579c-5.16 72.074 3.522 152.426 10.644 218.28a11.289 11.289 0 0 0 10.85 9.794c8.395.252 20.008.617 24.957.841l127.16 5.759a31.731 31.731 0 0 0 7.354-.316l34.612-.168a29.057 29.057 0 0 0 8.124.484l12.95-.586 114.21-5.173c4.949-.224 16.562-.589 24.958-.841a11.289 11.289 0 0 0 10.849-9.794c7.122-65.854 15.8-146.206 10.644-218.28l15.335-1.579c.148-13.512-3.833-35.52-3.833-35.52z" fill="#f7978d"/><path d="m50.883 299.743 308.381 4.365v-17.829h-308.381z" fill="#bf4c4c"/><path d="m56.481 386.338 300.048 6.079 2.735-19.543h-302.783z" fill="#bf4c4c"/><path d="m196.165 56.585c-4.28-1.683-8.029-4.723-12.526-5.688-4.724-1.014-9.6.4-14.178 1.953-15.356 5.2-50.141 21.772-50.141 21.772-16.264 6.688-29.356 20.929-35.881 37.26a243.3 243.3 0 0 1 -11.155 24.218 119.662 119.662 0 0 0 39.724 6.748 119.918 119.918 0 0 0 115.553-87.9q-15.697.489-31.396 1.637z" fill="#ffebe8"/><path d="m391.131 424.013q-1.348 6.513-2.7 13.026c-.339 1.634-.673 3.278-.961 4.927l15.205-.688c4.949-.224 16.562-.589 24.958-.841a11.289 11.289 0 0 0 10.849-9.794c6.831-63.166 15.09-139.667 11.2-209.411-38.76-4.92-78.085-5.237-117.216-5.522l-260.5-1.9a144.521 144.521 0 0 0 -20.313 1q-.847 12.613-1.169 25.513l68.856 12.828c1.767.33 3.648.717 4.923 1.984 1.411 1.4 1.736 3.53 1.989 5.5q11.787 91.88 27.732 183.162l2.406.109c4.515-13.526 3.557-28.475 2.875-42.858a791.67 791.67 0 0 1 5.555-138.22c.229-1.785.526-3.7 1.783-4.991 1.552-1.592 4.031-1.706 6.255-1.718l34.328-.177c6.705-.034 14.081.172 19.083 4.638 3.229 2.883 4.922 7.118 7.859 10.3 6.585 7.13 17.557 7.429 27.26 7.219 12.261-.265 26.066-1.221 34.071-10.511 3.048-3.536 4.992-8.063 8.675-10.933 4.78-3.724 11.356-3.836 17.414-3.731q32.37.56 64.665 3.094c1.927.152 4.011.374 5.431 1.687 1.792 1.656 1.882 4.41 1.846 6.85q-1.177 79.73-2.359 159.458z" fill="#bf4c4c"/><path d="m417.505 111.882s20.8 39.963-77.733 39.963c-48.8 0-97.628 3.347-146.358.666-7.071-.389-14.738-1.116-19.936-5.925-6.215-5.749-6.758-15.3-6.117-23.74a143.792 143.792 0 0 1 21.208-64.809l-13.669 9.377c-26.621 24.786-41.171 60.091-49.13 95.586-2.581 11.511-4.485 23.9-.028 34.825s17.575 19.1 28.3 14.187a10.95 10.95 0 0 0 6.037-6.068 16.931 16.931 0 0 0 .567-5.427 145.255 145.255 0 0 1 1.321-19.246 15.363 15.363 0 0 1 1.673-5.894c2.809-4.7 9.257-5.31 14.734-5.388l53.463-.763a14.187 14.187 0 0 1 6.295.867c6.342 2.986 4.844 12.505 1.359 18.588s-8.091 13.273-4.818 19.472c2.92 5.532 10.3 6.483 16.55 6.756l34.828 1.521c4.313.189 9.531-.1 11.635-3.867 1-1.787.993-3.947.9-5.992a96.594 96.594 0 0 0 -8.641-35.571l44.525-2.2c5.092-.251 10.548-.413 14.867 2.3 7.5 4.705 7.92 15.268 7.613 24.115-.285 8.252.989 18.692 8.858 21.193 3.178 1.01 6.614.318 9.886-.328a303.26 303.26 0 0 1 69.378-5.534c6.445.23 13.071.634 19.391-.321.038-13.551-3.833-34.96-3.833-34.96s-22.054-10.641-43.125-63.383z" fill="#bf4c4c"/><path d="m186.2 50.7c-40.325 1.517-53.1 24.132-61.922 42.493s-12.985 38.538-17.973 58.29a73.378 73.378 0 0 1 -4.823 14.508c-1.988 4.045-4.673 7.725-6.546 11.824-7.472 16.357-.815 35.3-.245 53.274.265 8.363 2.6 145.857 11.8 205.478.412 2.668.881 5.449 2.486 7.62 2.907 3.931 8.427 4.585 13.305 4.905l14.48.951c4.73.31 10.568.028 12.694-4.209 1.023-2.038.824-4.448.6-6.716-5.4-54.942-12.886-200.612-11.729-212.5.622-6.381 2.441-12.578 3.6-18.883 1.934-10.5 2.029-21.245 2.542-31.914.985-20.5 3.565-41.063 9.963-60.561s16.778-37.965 31.777-51.971c2.125-1.984 4.524-4.292 4.394-7.2-.113-2.448-1.954-5.48-4.403-5.389z" fill="#d1e3ed"/><path d="m186.2 50.7c-40.325 1.517-53.1 24.132-61.922 42.493-7.465 15.532-11.592 32.364-15.707 49.139l.236.52a124.528 124.528 0 0 0 39.91-5.221 179.751 179.751 0 0 1 5.713-22.373c6.4-19.5 16.778-37.965 31.777-51.971 2.125-1.984 4.524-4.292 4.394-7.2-.111-2.446-1.952-5.478-4.401-5.387z" fill="#fff"/><path d="m311.34 50.763c40.325 1.517 53.1 24.132 61.921 42.492s12.986 38.539 17.974 58.29a73.236 73.236 0 0 0 4.823 14.509c1.988 4.045 4.672 7.725 6.545 11.824 7.473 16.356.816 35.3.246 53.274-.265 8.363-2.6 145.856-11.8 205.478-.411 2.668-.88 5.449-2.485 7.62-2.907 3.931-8.427 4.585-13.305 4.9l-14.48.95c-4.731.311-10.568.029-12.694-4.208-1.023-2.038-.824-4.448-.6-6.717 5.4-54.941 12.886-200.611 11.728-212.5-.621-6.381-2.441-12.578-3.6-18.883-1.933-10.5-2.029-21.245-2.542-31.914-.985-20.5-3.565-41.063-9.962-60.562s-16.779-37.964-31.777-51.97c-2.125-1.984-4.524-4.292-4.4-7.2.116-2.446 1.956-5.475 4.408-5.383z" fill="#d1e3ed"/><path d="m284.351 196.612c-1.4-4.251-4.043-7.962-6.914-11.395a38.705 38.705 0 0 0 -26.955-13.984 36.39 36.39 0 0 0 -35.8 31.361c-.79 5.66-.236 11.421.59 17.076q1.254 8.577 3.34 17.006c1.591 6.43 4.014 13.386 9.788 16.633 4.174 2.347 9.24 2.233 14.026 2.055l16-.6c4.892-.182 10.042-.441 14.183-3.053 3.958-2.5 6.407-6.807 8.1-11.169 3.218-8.285 4.259-17.242 4.879-26.108.418-5.977.637-12.127-1.237-17.822z" fill="#d1e3ed"/><g fill="#8da8c6"><path d="m149.449 445.835c1.023-2.038.824-4.448.6-6.716-.765-7.783-1.572-17.388-2.39-28.173-.127.133-.246.271-.377.4-10.494 10.45-29.628 7.057-42.5 12.684.54 4.467 1.108 8.668 1.7 12.536.412 2.668.881 5.449 2.486 7.62 2.907 3.931 8.427 4.585 13.305 4.905l14.48.951c4.732.312 10.57.03 12.696-4.207z"/><path d="m139.617 274.111c-1.117-25.033-1.678-43.566-1.3-47.494.115-1.175.28-2.342.464-3.506a70.362 70.362 0 0 0 -44.176 6.15q.05.915.08 1.829c.052 1.655.186 8.385.438 18.555 13.91 3.5 28.125 7.7 38.472 17.5a47.792 47.792 0 0 1 6.022 6.966z"/><path d="m388.568 444.25c1.605-2.171 2.074-4.952 2.485-7.62 1.173-7.6 2.233-16.47 3.193-26.172-13.364 6.228-30.47 5.036-45.088 9.762-.571 7.072-1.131 13.474-1.67 18.96-.223 2.269-.422 4.679.6 6.717 2.126 4.237 7.963 4.519 12.694 4.208l14.48-.95c4.879-.32 10.399-.974 13.306-4.905z"/><path d="m380.34 219.322a58.344 58.344 0 0 0 -21.052 8.582c.145 3.818-.056 12.94-.515 25.483l.368.141c16.94-.421 32.232 9.494 42.516 23.308.768-24.823 1.1-42.821 1.192-45.684.136-4.288.619-8.632 1.174-12.982a78.615 78.615 0 0 0 -23.683 1.152z"/><path d="m186.2 50.7c-14.158.533-24.909 3.672-33.3 8.309a20.934 20.934 0 0 1 6.361 15.523c-.353 9.585-5.756 18.119-10.191 26.624-8.3 15.919-18.114 34.489-19.472 66.674-1.557 36.906-33.639 42.885-35.865 12.972-4.071 11.6-1.877 24.361-.25 37.067l5.164-1.736 41.26 1.068c.68-3.153 1.43-6.3 2.014-9.468 1.934-10.5 2.029-21.245 2.542-31.914.985-20.5 3.565-41.063 9.963-60.561s16.778-37.965 31.777-51.971c2.125-1.984 4.524-4.292 4.394-7.2-.107-2.446-1.948-5.478-4.397-5.387z"/><path d="m404.134 217.3c1.758-13.6 4.04-27.229-1.531-39.424-1.873-4.1-4.557-7.779-6.545-11.824a73.236 73.236 0 0 1 -4.823-14.509c-4.988-19.751-9.148-39.929-17.973-58.29s-21.6-40.975-61.922-42.492c-2.452-.092-4.292 2.94-4.4 5.391-.129 2.9 2.27 5.212 4.4 7.2q2.971 2.775 5.7 5.779c8.919.8 18.067.779 26.231 4.29 16.549 7.118 23.994 26.183 28.494 43.628 3.5 13.556 8.3 33.588 16.573 54.377 11.987 30.125-19.371 36.224-31.8 21.366.326 6.008.95 23.485 1.763 27.741l44.547-3.137z"/><path d="m284.351 196.612c-1.4-4.251-4.043-7.962-6.914-11.395a39.389 39.389 0 0 0 -22.032-13.317c9.883 10.56 13.685 26.543 13.693 41.387.006 10.253-2.586 22.227-11.9 26.512-6.606 3.039-14.278 1.074-21.541.72a29.58 29.58 0 0 0 -15.012 2.78c1.615 4.137 3.957 7.877 7.753 10.012 4.174 2.347 9.24 2.233 14.026 2.055l16-.6c4.892-.182 10.042-.441 14.183-3.053 3.958-2.5 6.407-6.807 8.1-11.169 3.218-8.285 4.259-17.242 4.879-26.108.42-5.979.639-12.129-1.235-17.824z"/></g><path d="m248.9 182.922a35.342 35.342 0 0 0 -1.916-11.488 36.366 36.366 0 0 0 -32.305 31.16 57.5 57.5 0 0 0 .4 15.715 35.426 35.426 0 0 0 33.821-35.387z" fill="#fff"/></g><g id="Layer_5" fill="#3a3245" data-name="Layer 5"><path d="m119.871 191.642c-3.532-3.637-9.349 1.912-5.681 5.52 3.576 3.706 9.374-1.875 5.681-5.52z"/><path d="m136.874 110.505c-3.652-3.764-9.343 1.927-5.579 5.58 3.561 3.673 9.254-2.019 5.579-5.58z"/><path d="m153.421 75.967c3.536 3.6 9.076-1.972 5.49-5.491-3.535-3.6-9.075 1.973-5.49 5.491z"/><path d="m116.567 290.977c3.83-3.466-1.664-9.252-5.339-5.565-3.661 3.824 1.548 9.794 5.339 5.565z"/><path d="m119.923 368.108c-4.4-.112-5.185 6.608-.911 7.531 5.449 1.248 6.525-7.418.911-7.531z"/><path d="m465.172 178.464c.728-3.727-2.407-5.774-5.467-7.979-39.779-35.826-33.886-94.341-101.615-108.585-11.759-9.845-28-14.451-43.364-14.22-6.338-.577-10.11.353-13.2 6.176a855.994 855.994 0 0 0 -103.087 0c-2.353-3.577-4.445-6.521-9.26-6.085-16.819-.915-34.3 3.377-47.492 14.115-40.436 7.536-59.509 39.236-75.972 73.6-5.729 11.285-11.9 22.77-21.262 31.5-3.482 3.217-9.66 5.125-9.813 10.548-.833 11.558-1.374 22.56-.576 34.063.724 6.331 10.112 2.867 14.472 3.707-3.081 63.719.807 127.712 7.212 191.106q.941 8.637 2.005 17.261c.552 4.455.458 9.792 2.76 13.788 2.835 4.921 7.755 6.5 13.076 6.738 10.5.467 21 .793 31.5 1.2 4.327 6.958 15.193 5.677 22.5 6.044 7.973-.546 22.976 4.1 28.137-2.753 62.36 1.822 124.968.731 187.28-1.723 3.051 6.832 13.774 5.26 20.667 4.914l16.613-.833c5.253.056 11.775-.468 14.463-5.643q14.3-.558 28.608-1.088c8.1.668 16.978-3.112 17.8-12.151 9.079-71.813 13.182-144.5 10.3-216.858 4.314-.784 13.84 2.532 14.478-3.707a185.654 185.654 0 0 0 -.763-33.135zm-13.956-5.527c-10.367-.943-20.753-1.73-31.127-2.561-4.167-.334-4.153 6.18 0 6.5 12.591.97 25.177 2.094 37.777 2.949a191.477 191.477 0 0 1 .833 28.059l-46.6.006c-.228-9.659.424-19.65-1.277-29.186-1.072-4.318-4.724-7.461-7-11.135-8.122-13.66-10.247-29.787-13.892-45.012 10.066.127 20.112.6 30.152 1.333 9.03 17.294 16.743 35.96 31.134 49.047zm-7.373 155.7q-1.124 21.687-2.889 43.334-18.462-.068-36.925-.042c2.176-26.4 3.626-52.771 4.522-79.273 12.23.061 24.462.073 36.691-.028q-.481 18.005-1.399 36.006zm-389.537-54.625q-.36-23.852.254-47.688 18.423.667 36.867.993c-.728 19.608-.644 39.278-.111 58.917q-18.38 0-36.76.045c-.095-4.089-.189-8.179-.25-12.267zm93.19-99.781c28.847-1.439 57.7-2.43 86.588-2.807a40.606 40.606 0 0 0 -23.772 36.481q-31.713 0-63.426-.008c.005-11.282.066-22.497.614-33.666zm79.549 10.669c10.072-10.465 34.861-11.231 45.378-.5 15.2 14.577 10.09 37.586 5.266 55.78-5.824 11.577-19.445 13.609-31.527 12.627-11.954-.292-21.373-3.23-24.783-15.9-4.179-17.184-8.195-38.257 5.666-52.007zm125.883-10.643c.537 11.208.252 22.427.186 33.644l-63.439.008a40.6 40.6 0 0 0 -23.775-36.485q43.542.576 87.028 2.829zm-207.149 53.415q32.492-.108 64.957-.794c1.481 12.284 2.279 26.069 10.252 35.8 9.867 12.037 45.51 9.358 55.267 2.833 9.274-9.109 9.839-26.314 12.99-38.628q32.449.647 64.946.794c.558 18.882.526 37.787.089 56.679-69.51 1.386-139.058.926-208.576 1.576-.471-19.424-.504-38.855.075-58.26zm198.754-87.8c.453 8.918 2.237 25.561-9.162 26.98-28.437-1.351-56.919-2.31-85.378-1.8-29.062-.523-58.148.488-87.187 1.883a13.251 13.251 0 0 1 -5.341-2.684c-6.957-7.126.261-37.381 2.98-46.864 60.125-2.34 120.418-1.609 180.506 1.387a101.851 101.851 0 0 1 3.582 21.096zm-289.822 152.753c12.265.1 24.531.089 36.8.027.861 26.474 2.26 52.885 4.454 79.274q-18.48 0-36.96.043-3.233-39.602-4.294-79.344zm93.055 43.237q-1.228-21.759-1.893-43.578c69.416-.712 138.84-.622 208.253-1.679q-1.118 39.775-4.237 79.443c-66.537 1.325-133.111.941-199.656 1.536q-1.447-17.844-2.467-35.722zm260.973-49.628c.529-19.648.58-39.316-.166-58.918q18.432-.33 36.845-.992.681 29.982-.009 59.955-18.335-.073-36.67-.045zm5.961-172.052c.657 1.1 1.3 2.221 1.932 3.346-9.346-.95-18.82-1.124-28.186-1.279-3.633-15.534-9.769-31.262-19.8-43.682 20.838 6.202 35.629 23.327 46.054 41.615zm-48.137-33.382c18.553 26.331 15.515 61.116 31.1 88.54a125.577 125.577 0 0 0 -30.667-1.308c-2.589.27-3.683 4.341-.669 4.941 5.435 1.082 10.987 1.215 16.507 1.474 4.682.219 11.435-.621 15.687 1.8 4.771 2.712 5.211 10.77 5.772 15.625.617 5.2 2.467 13.613-3.524 16.021h-31.92c-2.583-.645-5.3-1-6.855-3.616-2.542-4.092-.972-10.256-1.794-14.685-1.266-45.823-7.988-99.92-46.528-130.225a4.118 4.118 0 0 1 1.621-4.781c20.533.403 39.213 8.487 51.27 26.214zm-116.57-22.292c17.064.189 34.127.681 51.148 1.929 20.915 12.822 31.9 28.534 38.074 52.238q-88.23-5.055-176.687-1.706c6.585-17.147 17.908-42.847 35.5-50.474 17.293-1.295 34.629-1.795 51.965-1.987zm-65.356-3.96a3.953 3.953 0 0 1 1.735 4.48c-38.329 30.794-46.167 84.868-46.743 131.089-.373 4.268.7 10.282-1.633 14.162-1.552 2.6-4.275 2.965-6.865 3.616h-31.911c-5.787-2.328-4.175-10.058-3.624-15.1.527-5 .913-13.72 5.872-16.546 4.025-2.293 10.251-1.542 14.7-1.75 5.846-.274 11.743-.374 17.5-1.52 2.99-.595 1.946-4.668-.668-4.941a128.771 128.771 0 0 0 -30.128 1.18c9.694-17.5 11.216-38.018 16.654-56.983 7.689-31.577 30.302-58.864 65.111-57.687zm-74.437 29.041a71.88 71.88 0 0 1 20.758-10.889c-8.783 11.089-13.838 24.006-17.631 37.461-8.881.419-17.82.829-26.675 1.752 6.376-10.426 13.938-20.733 23.548-28.324zm-27.32 34.768c9.575-.739 19.15-1.394 28.743-1.836-4.173 15.456-6.141 31.438-12.711 46.039-2.3 4.8-6.061 8.515-8.543 13.108-2.355 4.359-1.949 10.123-2.174 14.929q-.4 8.64-.307 17.293l-46.6-.006a191.338 191.338 0 0 1 .833-28.059c12.6-.855 25.185-1.979 37.776-2.949 4.147-.319 4.174-6.834 0-6.5-10.374.831-20.759 1.618-31.127 2.561 15.942-14.497 23.688-35.837 34.113-54.58zm-16.827 315.857c-2.174-3.742-1.867-10.567-2.37-14.831-1.615-13.66-2.961-27.349-4.132-41.056q18.475.139 36.954.01c1.675 20.305 4.131 40.4 6.521 60.641q-12.238-.478-24.478-.978c-4.303-.176-9.962.575-12.495-3.786zm54.418 10.561c-12.851 1.135-11.333-6.87-12.3-16.621q-.9-7.175-1.712-14.363a1430.918 1430.918 0 0 1 -8.559-179.808c11.011 3.257 21.519 8.065 32.409 11.659.427 64.81 4.884 129.528 14.666 193.581-.236 2.623-1.683 5.621-4.245 6.7-6.765-.565-13.494-.761-20.259-1.148zm198.81-3.23c-53.791 1.05-107.615 1.62-161.411.646-2.4-21.7-5.616-42.535-7.111-64.255 66.2-.65 132.412-.618 198.61-1.626-1.416 21.581-4.856 43.018-7.127 64.491-7.669.341-15.292.589-22.961.744zm70.735-.545c-1.027 2.668-3.131 3.273-5.61 3.521-8.425.627-16.9.762-25.338 1.3-2.461-1.137-3.817-4.045-4.055-6.6 9.784-64.054 14.24-128.77 14.668-193.582 10.894-3.595 21.409-8.408 32.427-11.663 1.014 69.079-2.324 138.732-12.092 207.024zm45.46-14.78c-.382 6.854-2.477 12.434-10.448 11.629q-14.037.563-28.076 1.126c2.423-20.3 4.827-40.3 6.531-60.642q18.48.1 36.961-.01c-1.365 15.999-2.991 31.971-4.968 47.901z"/><path d="m380.116 197.208c5.05 4.473 10.307-4.815 3.7-6.586l.193.026c-3.755-1.241-6.784 3.86-3.893 6.56zm2.822-6.688a1.706 1.706 0 0 1 .369.033 2.874 2.874 0 0 0 -.369-.033z"/><path d="m365.673 119.913c3.574 3.7 9.294-2.09 5.654-5.655-3.565-3.639-9.351 2.081-5.654 5.655z"/><path d="m343.606 78.88c3.535 3.6 9.075-1.972 5.489-5.49-3.535-3.601-9.075 1.973-5.489 5.49z"/><path d="m389.854 287.718c-.552-5.1-8.41-4.131-7.637.947.727 5.264 8.806 4.674 7.637-.947z"/><path d="m380.063 368.108c-4.4-.112-5.185 6.608-.911 7.531 5.448 1.248 6.525-7.418.911-7.531z"/><path d="m247.557 216.793c.165 5.591.022 11.244.537 16.815.374 4.065 6.249 4.192 6.422 0 .235-5.672-.177-11.412-.331-17.085 9.559-5.2 5.525-28.3-7.57-21.145-7.882 4.6-7.491 17.782.942 21.415z"/></g></svg>