<svg height="512" viewBox="0 0 500 500" width="512" xmlns="http://www.w3.org/2000/svg"><g id="Layer_4" data-name="Layer 4"><path d="m71.8 128.857h364.8v-31.523s-20.337-4.689-30.8-27.857-28.446-44.559-60.923-48.6c0 0-32.543-6.272-50.513-7.086h-93.207s-66.373-2.972-95.864 47.266c0 0-12.912 26.711-33.491 36.28-.002-.003-6.635 16.163-.002 31.52z" fill="#f7978d"/><path d="m143.067 76.18c43.983 0 80.29-27.205 85.7-62.393h-27.6s-66.373-2.971-95.864 47.267c0 0-1.246 2.578-3.579 6.415a100.438 100.438 0 0 0 41.343 8.711z" fill="#ffebe8"/><path d="m405.8 69.477c-5.032-11.14-11.809-21.862-21.091-30.449a31.64 31.64 0 0 1 -4.82 12.345c-4.714 7.173-11.872 12.444-19.5 16.385-22.46 11.609-48.736 12.471-74.011 13.088l-68.263 1.667c-13.09.32-28.268-.309-36.175-10.746-4.723-6.233-5.55-14.74-4-22.4s5.224-14.709 8.854-21.636c-29.971 21.187-44.28 62.205-33.99 97.436.358 1.227.772 2.47 1.247 3.694h29.725c2.482-4.851 3.861-10.289 5.647-15.482 2.265-6.584 5.636-13.327 11.723-16.707 4.774-2.649 10.482-2.82 15.94-2.926l21.356-.416c11.133-.216 24.033.378 30.73 9.274 5.819 7.73 5.083 19.775 12.789 25.627a10.759 10.759 0 0 0 .939.63h12.6c4.323-2.143 7.677-6.241 7.692-11.125.018-5.857-3.712-12.179-.654-17.175 2.628-4.291 8.6-4.683 13.632-4.589l23.444.437c3.909.073 8.051.214 11.322 2.355 5.629 3.683 6.36 11.432 8.855 17.679a31.877 31.877 0 0 0 9.2 12.418h67.609v-31.527s-20.336-4.689-30.8-27.857z" fill="#bf4c4c"/><path d="m87.3 272.9h348.834s-7.1 158.988-15.75 198.529l-21.517 3.971-64.959 1.869s-133.285 5.389-162.36-.054c0 0-16.734 5.833-41.541-1.815h-36.231s-5.883-138.57-6.476-202.5z" fill="#f7978d"/><path d="m175.43 423.179 180.87 9.157v-17.501h-183.044z" fill="#bf4c4c"/><path d="m87.3 347.944 277.685 5.127v-14.846l-280.193 1.713z" fill="#bf4c4c"/><path d="m436.134 272.151h-57.606l-13.854 100.839c-1.8 13.128-3.611 26.306-3.586 39.557.015 7.615.6 15.459-1.955 22.632-5.186 14.544-21.153 21.664-35.394 27.631q-17.128 7.178-33.914 15.135c25.149-.662 44.083-1.428 44.083-1.428l64.959-1.869 21.517-3.968c8.651-39.541 15.75-198.529 15.75-198.529z" fill="#bf4c4c"/><path d="m214.594 302.607a21.339 21.339 0 0 0 -2.451-9.941 21.82 21.82 0 0 0 -14.9-37.762c-10.488-.004-109.943 17.247-109.943 17.247.016 1.679.036 3.42.058 5.2 16.519 3.765 33.377 6.327 49.345 11.967 3.206 1.132 6.47 2.452 8.853 4.876 2.527 2.57 3.791 6.1 4.786 9.567 12.235 42.575-9.139 92.326-48.442 112.76-3.356 1.744-6.841 3.313-10.242 5 1.172 30.826 2.118 53.126 2.118 53.126h36.231a110.254 110.254 0 0 0 46.993 3.46s6.9-47.422 4.841-84.736c-.117-2.121.648-6.766 1.942-13.062a21.439 21.439 0 0 0 13.736-28.3 21.432 21.432 0 0 0 10.255-33.73 21.373 21.373 0 0 0 6.82-15.672z" fill="#bf4c4c"/><path d="m281.664 109.227c-9.267-23.791-40.74-14.833-40.74-14.833-5.856 3.983-9.832 10.3-12.088 17.016s-2.924 13.85-3.25 20.924a8.656 8.656 0 0 0 .481 4.081c1.374 2.943 5.285 3.424 8.532 3.487q24.3.466 48.609.133c1.592-10.23 2.214-21.159-1.544-30.808z" fill="#d1e3ed"/><path d="m158.607 270.734c1.211 68.265 2.462 136.933 15.439 203.983.409 2.11.569 4.818-1.324 5.86a5.226 5.226 0 0 1 -2.548.428l-18.685-.017c-5.36 0-11.662-.5-14.512-5a15.673 15.673 0 0 1 -1.832-6.214 1105.589 1105.589 0 0 1 -11.134-200.807z" fill="#d1e3ed"/><path d="m162.714 385.169c-7.079 9.879-16.235 18.163-25.567 26a79.591 79.591 0 0 0 -8.3 7.757q1.039 10.349 2.286 20.675c.394-.046.786-.1 1.171-.142 5.444-.661 10.986-.288 16.405-1.132s10.981-3.189 13.88-7.844c1.249-2.005 1.971-4.379 3.649-6.04.036-.036.076-.064.113-.1-1.51-13.022-2.694-26.084-3.637-39.174z" fill="#8da8c6"/><path d="m159.4 310.423c-.322-13.235-.559-26.47-.794-39.689l-34.6-1.77c-.2 5.683-.346 11.368-.461 17.054 10.726 3.961 21.421 8.514 29.457 16.543a53.513 53.513 0 0 1 6.398 7.862z" fill="#8da8c6"/><path d="m392.573 282.867a24.8 24.8 0 0 0 -5.727-9.481c-6.359-6.247-28.685-5.3-28.685-5.3 8.291 67.8-5.3 136.073-11.087 204.128-.216 2.549-.327 5.408 1.359 7.332s4.507 2.189 7.048 2.259c5.472.152 16.058-1.1 22.131-1.9a6.474 6.474 0 0 0 5.522-5.238c2.61-14.005 9.9-61.778 12.294-168.154.179-7.974-.18-16.127-2.855-23.646z" fill="#d1e3ed"/><path d="m199.054 11.09a12.218 12.218 0 0 0 -5.593-.662c-15.044.725-30.634 5.658-40.542 17a68.358 68.358 0 0 0 -7.348 10.732c-9.883 16.982-22.827 56.292-22.827 56.292-5.342 2.782-7.465 9.308-8.23 15.282a63.571 63.571 0 0 0 -.3 13.3c.137 1.657.409 3.455 1.621 4.594 1.343 1.263 3.388 1.308 5.231 1.28l34.735-.534a4.546 4.546 0 0 0 3.071-.8 4.255 4.255 0 0 0 1.058-2.706 90.09 90.09 0 0 0 .274-11.517 136.812 136.812 0 0 1 19.69-71.13c5.095-8.407 11.177-16.333 18.835-22.495 1.414-1.137 3-2.4 3.23-4.2a4.571 4.571 0 0 0 -2.905-4.436z" fill="#d1e3ed"/><path d="m198.732 19.729c1.414-1.137 3-2.4 3.23-4.2a4.571 4.571 0 0 0 -2.908-4.435 12.218 12.218 0 0 0 -5.593-.662c-15.044.725-30.634 5.658-40.542 17a68.358 68.358 0 0 0 -7.348 10.732c-5.224 8.976-11.3 24.19-15.873 36.541l.309.617s14.594 2.972 36.124-2.156a135.926 135.926 0 0 1 13.769-30.942c5.092-8.407 11.174-16.333 18.832-22.495z" fill="#fff"/><path d="m389.337 105.338c-.26-2.842-.6-5.77-2-8.256-1.228-2.181-3.18-3.853-4.682-5.856-2.58-3.436-3.742-7.7-4.967-11.816-4.733-15.916-8.872-32.86-19.2-45.863-19.561-24.626-37.588-25.447-55.088-19.49a48.97 48.97 0 0 1 4.5 2.463c16.575 10.286 26.349 29.013 30.646 48.041s3.861 38.748 4.509 58.244c.07 2.119.26 4.479 1.827 5.907 1.425 1.3 3.538 1.4 5.466 1.435q18.322.3 36.65.033a4.023 4.023 0 0 0 1.922-.347c1.23-.685 1.39-2.361 1.388-3.77q-.025-10.377-.971-20.725z" fill="#d1e3ed"/><path d="m201.962 15.525a4.571 4.571 0 0 0 -2.908-4.435 12.218 12.218 0 0 0 -5.593-.662 74.117 74.117 0 0 0 -16.681 2.672 8.713 8.713 0 0 1 .882 5.956c-.584 2.586-2.3 4.745-3.892 6.862a119.311 119.311 0 0 0 -20.438 42.878c-1.471 5.917-2.588 12.174-6.272 17.033a19.245 19.245 0 0 1 -13.743 7.463 41.28 41.28 0 0 1 11.034 1.262 7 7 0 0 1 2.809 1.218c1.741 1.446 1.845 4.13 1.158 6.287-1.5 4.726-5.977 8.065-10.766 9.357s-9.872.825-14.757-.032a24.147 24.147 0 0 1 -8.111-2.83q-.095.6-.17 1.185a63.571 63.571 0 0 0 -.3 13.3c.137 1.657.409 3.455 1.621 4.594 1.343 1.263 3.388 1.308 5.231 1.28l34.735-.534a4.546 4.546 0 0 0 3.071-.8 4.255 4.255 0 0 0 1.058-2.706 90.09 90.09 0 0 0 .274-11.517 136.812 136.812 0 0 1 19.69-71.13c5.095-8.407 11.177-16.333 18.835-22.495 1.417-1.139 2.998-2.407 3.233-4.206z" fill="#8da8c6"/><path d="m387.336 97.082c-1.228-2.181-3.18-3.853-4.682-5.856-2.58-3.436-3.742-7.7-4.967-11.816-4.733-15.916-8.872-32.86-19.2-45.863-8.893-11.2-17.468-17.46-25.823-20.416a77.8 77.8 0 0 1 17.936 20.92c7.473 12.591 11.708 26.9 13.9 41.38.563 3.725.99 7.566.1 11.228s-3.338 7.153-6.926 8.3c4.631-.087 9.446.939 13.068 3.825s5.76 7.886 4.407 12.315c-1.628 5.33-7.766 8.273-13.326 7.88s-10.585-3.38-15.1-6.647a23.466 23.466 0 0 0 -4.014-2.514c.1 4.332.191 8.663.335 12.983.07 2.119.26 4.479 1.827 5.907 1.425 1.3 3.538 1.4 5.466 1.435q18.322.3 36.65.033a4.023 4.023 0 0 0 1.922-.347c1.23-.685 1.39-2.361 1.388-3.77q-.016-10.377-.962-20.725c-.258-2.834-.598-5.766-1.999-8.252z" fill="#8da8c6"/><path d="m358.161 268.091a371.947 371.947 0 0 1 2.606 44.083c.06.04.116.084.175.123 1.734 1.143 3.657 2.1 4.954 3.726 1.5 1.88 1.946 4.367 2.375 6.736.824 4.562 1.833 9.244 4.483 13.049 4.283 6.151 11.909 8.815 18.1 13.042a37.736 37.736 0 0 1 3.17 2.43c.56-13.612 1.041-28.5 1.406-44.762.179-7.979-.18-16.132-2.855-23.651a24.8 24.8 0 0 0 -5.727-9.481c-6.361-6.247-28.687-5.295-28.687-5.295z" fill="#8da8c6"/><path d="m383.134 474.672c1.34-7.191 3.915-23.29 6.428-51.65a80.512 80.512 0 0 1 -16.053 13.643c-7.8 5.022-16.413 8.675-24.323 13.518-.769 7.347-1.487 14.693-2.112 22.036-.216 2.549-.327 5.408 1.359 7.332s4.507 2.189 7.048 2.259c5.473.152 16.058-1.1 22.131-1.9a6.474 6.474 0 0 0 5.522-5.238z" fill="#8da8c6"/><path d="m269.172 95.726a26.045 26.045 0 0 1 5.562 13.541c.445 4.425-.429 9.257-3.575 12.4-4 4-10.327 4.185-15.988 4.113l-14.631-.186c-4.035-.051-8.141-.093-12.013 1.044a17.3 17.3 0 0 0 -2.658 1.031q-.177 2.332-.283 4.665a8.656 8.656 0 0 0 .481 4.081c1.374 2.943 5.285 3.424 8.532 3.487q24.3.466 48.609.133c1.6-10.23 2.214-21.159-1.544-30.808a23.836 23.836 0 0 0 -12.492-13.501z" fill="#8da8c6"/><path d="m149.492 173.4-22.351 70.047s25.054 17.637 26.429 19.187 43.668-7.732 43.668-7.732l8.054 17.247h159.693l21.157-12.828-9.328-15.874-39.773 15.874-23.848-24.991 25.365-33.1 39.09 25.978 8.465-6.011 2.749-39.592-36.49-20.228z" fill="#ffda76"/><path d="m355.46 251.972 3.334 17.633-13.919 1.606-3.162-13.743.035-.024-4.707 1.879-23.848-24.991 25.365-33.1 39.09 25.978 8.465-6.011 2.749-39.592-36.489-20.228-169.567 10.048 7.3 15.37c7.227-2.882 15.492-.2 22.242 3.67s12.908 8.962 20.292 11.415 16.779 1.405 21.119-5.053c1.718-2.558 2.5-5.744 4.665-7.941s6.685-2.5 7.722.4a6.318 6.318 0 0 1 .035 3.1q-.823 5.287-1.646 10.575c3.254 4.513 10.311 3.974 15.19 1.3s8.869-6.926 14.072-8.9c4.837-1.832 10.254-1.483 15.282-.269a6.816 6.816 0 0 1 3.518 1.681c1.5 1.619 1.219 4.267.129 6.189-4.169 7.349-16.734 7.248-19.473 15.241-1.3 3.8.292 7.915.65 11.92s-1.691 9.073-5.711 9.018c-5.217-.072-6.811-8.331-11.931-9.339-5.289-1.041-8.188 6.758-5.927 11.65s7.082 8.186 9.577 12.963a8.641 8.641 0 0 1 1.053 5.974c-.82 3.284-4.4 5.264-7.787 5.356s-6.618-1.269-9.728-2.605a30.778 30.778 0 0 0 -.2 9h101.736l21.157-12.828-9.328-15.874z" fill="#f48a4e"/><path d="m218.328 261.823c-.488-2.213-.517-4.686-1.98-6.418-1.427-1.689-3.813-2.162-6.016-2.349-8.049-.683-16.2 1.036-24.2-.033s-16.488-6.253-17.312-14.288c-.168-1.631-.057-3.436-1.081-4.715a4.513 4.513 0 0 0 -4.745-1.117 19.133 19.133 0 0 0 -4.545 2.424 22.76 22.76 0 0 1 -14.365 3.507 16.169 16.169 0 0 1 -12.227-7.81l.113-2.7-4.826 15.123s25.054 17.637 26.429 19.187 43.668-7.732 43.668-7.732l8.054 17.247h22.156a14.878 14.878 0 0 1 -9.123-10.326z" fill="#f48a4e"/><path d="m276.323 247.092a13.817 13.817 0 0 0 -7.257-5.514c-2.994-.8-6.584.153-8.214 2.788-1.174 1.9-1.184 4.282-1.965 6.373a9.271 9.271 0 0 1 -8.9 5.851c-3.072-.153-6.708-1.686-8.851.521a5.228 5.228 0 0 0 -1.217 2.532c-.994 4.376.149 10.12-3.531 12.508h42.081c3.675-7.951 3.06-17.941-2.146-25.059z" fill="#f48a4e"/><path d="m280.808 211.213s.059 9.931-21.412 13.013a4.153 4.153 0 0 0 -3.562 4.107v3.367l20.424-1.893 7.248-7.527z" fill="#f48a4e"/><path d="m190.81 189.322a17.754 17.754 0 0 0 -2.126-5.784 13.85 13.85 0 0 0 -4.979-4.278c-5.491-3.061-11.843-4.1-18.05-5.1l-4.037 3.1a82.333 82.333 0 0 1 8.658 15.591 7.85 7.85 0 0 1 .869 4.294 7.994 7.994 0 0 1 -1.337 2.87q-2.715 4.211-5.711 8.232l10.253 7.953 13.407-6.134c2.112-.966 4.407-2.116 5.292-4.263a9.149 9.149 0 0 0 .1-5.037q-1.003-5.755-2.339-11.444z" fill="#f48a4e"/><g fill="#fff"><path d="m145.26 221.196 8.31 14.885 7.441-4.577-8.684-17.177z"/><path d="m141.475 223.43 8.899 15.116-2.603 3.219-10.274-15.293z"/><path d="m238.874 227.835a10.094 10.094 0 0 0 3.484-.6 38.474 38.474 0 0 0 19.131-13.513 9.294 9.294 0 0 0 2.251-5.123l-4.461-1.871c-6.041-1.941-12.79-.583-18.339 2.5a18.319 18.319 0 0 0 -6.374 5.422 9.942 9.942 0 0 0 -1.657 8.015 6.892 6.892 0 0 0 5.965 5.17z"/><path d="m143.2 192.329a40.053 40.053 0 0 0 -.191 8.369c.415 4.274 2.03 8.457 4.421 9.544 2.047.93 4.19-.514 6.06-2.245a18.216 18.216 0 0 0 4.128-5.317 17.424 17.424 0 0 0 1.769-8.238c-.146-3.7-1.541-6.825-2.875-9.7l-5.481-11.8-4.39.457z"/><path d="m211.024 239.218a3.673 3.673 0 0 0 2.368-1.122 3.954 3.954 0 0 0 .6-2.036l1.185-11.411-4.91-1.976a23 23 0 0 0 -5.557.769 7.733 7.733 0 0 0 -4.45 3.228 10.05 10.05 0 0 0 -1.1 3.566 13.217 13.217 0 0 0 -.116 4.508 5.724 5.724 0 0 0 2.294 3.768 7.453 7.453 0 0 0 3.544 1 23.793 23.793 0 0 0 6.142-.294z"/><path d="m190.785 221.6c-.615-2.323-.785-4.8-1.905-6.928a2.081 2.081 0 0 0 -.646-.809 2.222 2.222 0 0 0 -1.2-.26 16.6 16.6 0 0 0 -5.3.805l-.193 1.971a118.188 118.188 0 0 0 4.737 12.9 13.18 13.18 0 0 0 6.265-1.1.546.546 0 0 0 .268-.2.553.553 0 0 0 -.007-.435c-.604-2.004-1.483-3.919-2.019-5.944z"/><path d="m191.24 211.878 3.839 12.743 3.786-1.476-4.779-13.114z"/></g><path d="m208.677 222.473a12.728 12.728 0 0 0 2.321-2.5 8.288 8.288 0 0 0 .722-6.757 10.9 10.9 0 0 0 -13.9-7.264l-.6 2.357 1.686 6.131a9.716 9.716 0 0 1 .518 3.919 7.886 7.886 0 0 1 -2.667 4.383c-4.155 3.938-9.912 6.061-13.494 10.525a28.285 28.285 0 0 0 14.547-2.861 50.2 50.2 0 0 0 10.867-7.933z" fill="#f48a4e"/><path d="m227.31 223.43s-.212 12.892-15.195 16.162 7.6 7.982 7.6 7.982 7.13-1.341 9.24-2.588a74.78 74.78 0 0 0 6.859-5.394s2.107-4.171 1.4-6.252-.647-11.234-9.904-9.91z" fill="#f48a4e"/><path d="m306.961 261.525c10.331 3.1 18.2-14.922 8.065-24.593s-23.218 4.373-23.218 4.373 4.822 17.12 15.153 20.22z" fill="#ffda76"/><path d="m71.8 169.469s-28.885 16.607-32.04 47.857 11.407 37.274 11.407 37.274 18.817 11.439 33.625 13.437 33.841-8.057 33.841-8.057l26.627 12.169 12.118-1.48s-28.9-18.731-29.7-28.906 3.81-43.319-34.53-64.844c0 .002-10.661-9.634-21.348-7.45z" fill="#ffda76"/><path d="m89.094 179.582s-21.628 7.569-29.918 34.023-6.968 34.939-6.968 34.939-13.9 3.251-15.139-9.971 4.385-33.733 15.139-48.166 22.707-21.26 22.707-21.26 11.69.453 14.179 10.435z" fill="#f48a4e"/><path d="m150.775 271.24c1.524-.322 3.2-1.131 3.731-2.5-7.32-5.039-26.183-18.777-26.828-26.972-.8-10.175 3.81-43.319-34.53-64.844a37 37 0 0 0 -9.257-5.787l-4.906 22.113c56.667 16.781 39.813 60.331 40.183 64.371a17.017 17.017 0 0 0 .452 2.812l23.616 10.793a19.734 19.734 0 0 0 7.539.014z" fill="#f48a4e"/><path d="m113.891 234.814a8.009 8.009 0 0 0 -5.092-6.625l-3.42-.337a6.258 6.258 0 0 0 -4.613 3.8 15.957 15.957 0 0 0 -1.093 6.105 6.012 6.012 0 0 0 .15 1.922 4.526 4.526 0 0 0 1.923 2.358 7.826 7.826 0 0 0 12.145-7.224z" fill="#87ddaa"/><path d="m102.653 242.55a7.821 7.821 0 1 0 6.146-14.361l-3.42-.337a5.5 5.5 0 0 0 -3.278 1.794c2.673.369 6.573 1.46 6.467 5.791-.098 3.983-3.368 6.078-5.915 7.113z" fill="#48a06c"/><path d="m81.22 253.559c-6.688-4.481-14.943-7.367-22.807-5.645a16.62 16.62 0 0 0 -6.33 2.749 13.427 13.427 0 0 0 -2.781 2.786 9.856 9.856 0 0 0 1.865 1.153s18.817 11.439 33.625 13.437a33.68 33.68 0 0 0 6.985.149c-.596-6.175-5.39-11.168-10.557-14.629z" fill="#fff"/><path d="m390.3 196.143s-14.68 37.352-5.682 60.585l17.357 13.606 38.692-7.7s20.688-21.79 17.123-35.211-17.123-19.342-17.123-19.342l-23.167-16.154z" fill="#a1d0ff"/><path d="m401.974 270.334 38.692-7.7s20.688-21.79 17.123-35.211c-2.6-9.794-10.52-15.59-14.612-18.01q-2.918 10.146-5.836 20.292c-.838 2.914-1.707 5.894-3.487 8.349s-4.684 4.32-7.7 4.02c-3.711-.369-6.754-3.827-10.474-3.569-3.792.262-6.515 4.3-10.309 4.545-4.371.278-7.314-4.558-7.976-8.888a9.669 9.669 0 0 0 -.873-3.419 9.787 9.787 0 0 0 -3.022-2.743 23.107 23.107 0 0 1 -8.751-13.3c-2.928 12.693-5.01 29.426-.132 42.02z" fill="#668dd3"/><path d="m417.5 191.927-27.2 4.216s-.6 1.527-1.472 4.126c.016.051.021.1.039.154a11.208 11.208 0 0 0 2.8 3.834l11.855 12.148c2.6-5.14 7.759-8.633 13.245-10.4s11.336-1.988 17.1-2.021a8.049 8.049 0 0 0 .872-.045z" fill="#fff"/><path d="m336.844 205.405-23.651 28.927 23.848 24.991 35.739-14.264 4.868-17.852-34.071-25.978z" fill="#a1d0ff"/><path d="m377.648 227.207-33.955-25.889-.494 1.953c4.256 3.717 8.547 7.471 11.919 12.005s5.8 9.971 5.8 15.621a4.765 4.765 0 0 1 -2.684 4.731 19.065 19.065 0 0 1 -11.473 3.127 4.286 4.286 0 0 0 -2.676.372c-1.041.708-1.123 2.185-1.091 3.444q.183 7.049.738 14.083l29.052-11.595z" fill="#668dd3"/><path d="m336.844 205.405-21.8 26.66c.011.014.018.03.029.044 1.16 1.415 3.139 1.784 4.947 2.059l21.939 3.338 3.21-34.934-.236-.307-1.359-1.036z" fill="#fff"/><path d="m401.974 462.629v16.588l45.618-.321 3.877 10.26h33.67l6.53-13.817-26.528-3.764 8.367-11.599-35.098-25.099-9.159 7.142-3.085 18.365z" fill="#ffda76"/><path d="m93.776 441.623c-.157 1.116 0 17.39 0 17.39l15.16 4.415-2.145 11.911-13.085 2.768-20.59-.162-4.866-6.337-11.1 3.731-27.429 5.666-5.266-11.782-10.291 2.385-5.746-16.084 34.233-15.924 4.778 15.55 6.222-2.068.958-6.648 18.507-6.834z" fill="#ffda76"/><path d="m450.192 489.156h34.947l6.53-13.817-26.528-3.764 8.367-11.6-14.608-10.449a16.933 16.933 0 0 1 -2.065 4.4c-1.695 2.555-4.062 4.647-5.508 7.35s-1.135 27.88-1.135 27.88z" fill="#f48a4e"/><path d="m442.912 463.037a13.744 13.744 0 0 0 -2.568-1.978c-3.389-2.178-7.351-4.184-11.285-3.316l-2.437 2.424c-1.679 1.991-1.987 4.777-2.039 7.381a55.55 55.55 0 0 0 .276 6.739 19.532 19.532 0 0 0 1.02 4.762l20.238-.142a10.434 10.434 0 0 0 .157-1.757 41.118 41.118 0 0 0 -.5-7.14c-.397-2.522-1.098-5.128-2.862-6.973z" fill="#f48a4e"/><path d="m438.41 434.877-9.159 7.142-2.724 16.214a11.988 11.988 0 0 0 5.222.731 9.478 9.478 0 0 0 4.672-1.568 14.334 14.334 0 0 0 3.085-3.384l8.82-12.043z" fill="#fff"/><path d="m93.776 441.623-15.511-1.523.486 5.381a23.089 23.089 0 0 1 -.034 6.569 7.8 7.8 0 0 1 -3.483 5.359 11.6 11.6 0 0 1 -5.445 1.064l-8.715.27c-3.2.1-7.081.642-8.311 3.6-1.139 2.738.772 6.114-.571 8.759-1.081 2.128-3.725 2.788-5.98 3.569a24.32 24.32 0 0 0 -7.9 4.556l18.832-3.89 11.1-3.731 4.866 6.337 20.59.162 13.085-2.768 2.145-11.911-15.16-4.415s-.151-16.272.006-17.388z" fill="#f48a4e"/><path d="m25.491 466.215a80.919 80.919 0 0 1 22.5-7.578 3.225 3.225 0 0 0 1.854-.753 3.056 3.056 0 0 0 .591-2.03c.021-.568.007-1.137.006-1.7l-3.012 1-4.779-15.554-16.945 7.882a14.8 14.8 0 0 1 4.01 6.966c1.015 4.319-.522 9.323-4.225 11.767z" fill="#f48a4e"/><path d="m8.418 455.524 5.744 16.084 5.75-1.333a17.982 17.982 0 0 0 1.653-6.367 10.574 10.574 0 0 0 -1.3-6.344c-.866-1.369-2.221-2.521-2.485-4.118a5.145 5.145 0 0 1 .3-2.412z" fill="#fff"/><path d="m54.609 446.434-.958 6.648-2.935.976a11.827 11.827 0 0 0 -.124 2.924 4.9 4.9 0 0 0 .891 2.623c1.42 1.8 4.171 1.574 6.431 1.171 2.017-.359 4.245-.847 5.419-2.526a8.5 8.5 0 0 0 1.07-2.862 52.946 52.946 0 0 1 6.318-14.9z" fill="#fff"/><circle cx="188.755" cy="268.964" fill="#72cace" r="13.234"/><circle cx="186.49" cy="299.157" fill="#72cace" r="13.234"/><circle cx="181.542" cy="326.352" fill="#72cace" r="13.234"/><circle cx="167.872" cy="353.547" fill="#72cace" r="13.234"/><path d="m154.638 353.547a13.169 13.169 0 0 0 3.165 8.576 20.02 20.02 0 0 0 11.976-21.657 13.14 13.14 0 0 0 -15.141 13.081z" fill="#a9ffde"/><circle cx="151.455" cy="377.379" fill="#a9ffde" r="13.234"/><circle cx="111.315" cy="416.318" fill="#a9ffde" r="13.234"/><circle cx="111.315" cy="416.318" fill="#a9ffde" r="13.234"/><path d="m98.08 416.318a13.252 13.252 0 0 0 .231 2.415 13.2 13.2 0 0 0 16-15.3 13.2 13.2 0 0 0 -16.234 12.88z" fill="#fff"/><circle cx="82.828" cy="423.179" fill="#fff" r="13.234"/><circle cx="134.546" cy="400.11" fill="#a9ffde" r="13.234"/><path d="m121.312 400.11c0 .409.024.813.061 1.213a13.159 13.159 0 0 0 15.411-13.041c0-.409-.025-.813-.061-1.213a13.159 13.159 0 0 0 -15.411 13.041z" fill="#fff"/><circle cx="384.412" cy="275.807" fill="#a9ffde" r="16.484"/><ellipse cx="397.075" cy="303.417" fill="#72cace" rx="14.705" ry="16.484"/><path d="m382.37 303.417c0 .263.025.52.035.781a13.347 13.347 0 0 0 6.422 1.672c8.121 0 14.7-7.38 14.7-16.484 0-.264-.024-.521-.035-.781a13.329 13.329 0 0 0 -6.421-1.672c-8.117 0-14.701 7.38-14.701 16.484z" fill="#a9ffde"/><ellipse cx="424.484" cy="315.737" fill="#72cace" rx="13.206" ry="12.288"/></g><g id="Layer_5" fill="#3a3245" data-name="Layer 5"><path d="m137.33 341.434c2.532 5.491 10.306-.414 6.261-4.606-3.107-3.101-7.945.823-6.261 4.606z"/><path d="m380.9 337.656c-2.534-4.353-9.086-.535-6.559 3.834a3.807 3.807 0 1 0 6.559-3.834z"/><path d="m375.867 411.9c-2.389-5.378-10.125-.182-6.091 4.105 2.703 2.954 7.831-.511 6.091-4.105z"/><path d="m140.271 110.6c-3.568-3.536-9.121 1.8-5.562 5.434 3.639 3.595 9.135-1.759 5.562-5.434z"/><path d="m155.08 55.792c-2.648-2.869-7.814.06-6.489 3.778 2.009 6.164 10.859 1.011 6.489-3.778z"/><path d="m168.815 30.261c3.516 3.581 9.026-1.961 5.46-5.46-3.619-3.542-8.983 1.863-5.46 5.46z"/><path d="m366.116 116.078c4.847 4.321 10.043-4.451 3.789-6.459h.038c-3.698-1.199-6.668 3.8-3.827 6.459z"/><path d="m353.535 64.246c3.741 3.844 9.45-2.648 5.166-5.837-3.624-3.009-8.62 2.568-5.166 5.837z"/><path d="m334.314 32.516c3.619 3.541 8.983-1.864 5.46-5.461-3.516-3.581-9.026 1.962-5.46 5.461z"/><path d="m263.081 109.267c-4.237-14.964-25.331-1.165-11.693 7.7-.185 2.761-.2 5.534-.169 8.3.051 4.8 7.259 4.776 7.437 0 .112-2.81.117-5.59.3-8.4a7.352 7.352 0 0 0 4.125-7.6z"/><path d="m491.875 471.786c-5.593-3.816-14.575-1.758-20.958-2.77 14.55-17.107-12.242-22.723-22.832-31.153 14.012-6.133 18.339-8.764 8.63-23.2-2.983-4.113-5.664-6.686-10.778-4.31a93.637 93.637 0 0 0 -14.645 8.533c2.4-29.583 3.693-59.27 4.218-88.922a18.553 18.553 0 0 0 5.41-8c13.788.67 21.931-17.441 13.2-27.877 8.747-8.609 4.354-25.49-7.344-28.461 15.207-6.286 18.4-18.411 19.459-33.557.343-5.446-6.058-9.329-9.806-12.665-4.665-4.154-9.511-8.1-14.447-11.923-4.287-3.322-8.642-6.552-13.023-9.746-3.62-2.639-9.527-8.849-14.116-8.622a65.628 65.628 0 0 0 -11.7 1.969c11.15-21.753 25.913-41.457 38.372-62.25a148.823 148.823 0 0 0 -.207-23.406c-.268-2.617.147-6.654-1.805-8.963-42.5-23.8-32.585-67.111-92.288-78.444-10.037-7.464-23.408-10.849-35.956-10.967-5.279-.448-10.635-.676-13.331 4.784a862.876 862.876 0 0 0 -89.493 0c-2.231-3.9-5.775-5.252-10.206-4.785-13.763-.315-27.964 2.859-39.261 10.955-55.038 10.762-49.681 47.027-83.641 73.174-7.6 4.14-10.539 4.785-10.247 14.252-.028 5.081-2.507 24.647 1.895 26.7 8.725 14.268 18.785 27.688 27.349 42.068-6.077-3.892-11.948-9.3-19.627-7.708-25.361 7.07-42.557 50.085-39.033 74.5.38 3.337 1.737 6.424 4.544 8.2 11.765 11.56 27.044 20.032 43.428 22.116-1.826 37.66-.924 75.509 1.364 113.173-14.909-4.525-25.5 15.592-13.573 25.5a18.712 18.712 0 0 0 -5.356 12.568c-8.17 1.77-5.8 10.733-4.01 16.543-5.649 1.493-11.381 4.466-11.355 11.128-.069.027-.149.061-.209.087.215-.176-.489.037-.594.095-1.86-5.942-3.619-16.641-12.073-13.7-7.9 2.822-15.62 7.391-22.644 11.936-3.73 2.414-12.795 7.3-8.086 12.627a43.8 43.8 0 0 0 4.4 11.535c2.572 3.778 7.1-.537 10.1-1.634 2.1 16.047 14.773 12.569 26.2 10.234 6.11-1.126 13.808-1.694 18.881-5.622 1.638 5.774 8.782 5.774 13.642 5.908 8.122-.055 23.964 1.217 29.846-4.646q11.371.407 22.743.807c3.428 5.791 10.93 5.408 18.034 5.768 7.321-.514 21.911 3.842 26.483-2.316 54.189 1.588 108.591.636 162.738-1.541 5 8.76 19.459 3.357 27.847 3.834 6.256-.318 14.3.531 17.773-5.717l12.8-.5c1.178 3.491 3.888 4.442 7.544 4.886 12.861 1.1 26.528 2.191 39.206-.181-.113 10.717 8.337 9.817 16.139 10.043 7.107.513 14.612 1.417 21.728.86 4.958-.388 8.076-2.93 9.4-7.716 1.138-4.098 3.328-10.311-.729-13.481zm-94.14-6.061c.042 1.8-.324 3.593-.169 5.448l-10.031.4c2.072-17.411 4.212-34.772 5.62-52.249q15.906.09 31.814-.019-1.552 19.227-3.757 38.382c-7.702.774-21.343-2.072-23.477 8.038zm-284.635-.178c-.534-7.5-9.411-8.338-15.341-9.026q-.9-7.646-1.7-15.305a13.149 13.149 0 0 0 6.108-4.256c6.542 5.738 18.633 3.181 24.532-2.4 1.181 12.386 2.568 24.76 4.378 37.052q-9.129-.4-18.259-.8a22.013 22.013 0 0 0 .282-5.265zm-60.892-214.673c22.778-5.327 40.477-48.453 39.6-70.048 7.6 3.6 6.078 10.584 4.629 17.606-4.784 20.643-17.023 49.754-39.082 56.17-1.755-1.185-3.463-2.444-5.147-3.728zm358.816-40.248c8.483-.27 18.623-5.515 25.629 1.637-1.867 8.876-2.994 18.079-7.164 26.3-5.844-4.916-11.445-10.137-17.534-14.748-2.76-2.09-6.094 2.411-3.662 4.746 9.772 8.556 19.305 20.132 32.373 23.274-7.7 7.464-19.025 10.64-29.594 10.805 4.963-2.326 11.29-5.3 14.752-9.491 1.619-1.959.158-5.338-2.633-4.524-7.948 2.985-14.725 9.594-23.243 11.385a33 33 0 0 1 -8.788-6.311c2.638-12.795 5.868-25.217 13.216-36.143a2.837 2.837 0 0 0 .5-3.758c-2.918-4.708-5.89-9.355-8.885-14.019a175.86 175.86 0 0 1 18.9-3.632q4.142 3 8.271 6.009c-4.974.269-9.886 1.6-13.307 4.162a2.336 2.336 0 0 0 1.169 4.308zm36.848 10.719c6.768 7.276 1.823 17.73-2.563 24.818a35.254 35.254 0 0 1 -10.544-3.618c3.706-7.521 7.413-17.03 7.679-25.7q2.741 2.217 5.428 4.5zm-357.913 53.435h31.474c-1.187 20.857-1.274 41.821-.721 62.765-10.424 0-20.848-.006-31.272.043-.487-20.95-.376-41.904.519-62.808zm89.459-177.014q26.112-1 52.232-1.431c-23.519 27.554 7.99 30.944-59.973 25.518-2.264-8-.471-15.741-.45-23.763 2.723-.131 5.473-.19 8.191-.324zm207.141 147.421c-1.45-13.694 1.075-27.827 4.562-41.069q3.819 6.079 7.733 12.105c-7.64 7.61-9.685 18.9-12.295 28.964zm2.3 58.23c.245-13.955 19.768-13.953 20.011 0-.242 13.954-19.765 13.952-20.008 0zm-254.313 86.083c13.144.239 13.142 20.992 0 21.23-13.146-.245-13.146-20.998 0-21.23zm10.722-121.2c-7.216-4.582-14.83-9.276-23.389-10.667a36.474 36.474 0 0 0 6.047-10.061c5.75 8.805 14.352 15.213 23.325 20.729zm283.341 6.412q.493 11.656.642 23.322a17.31 17.31 0 0 0 -13 1.121 18.175 18.175 0 0 0 -14.274-13.93 19 19 0 0 0 1.925-10.389c8.226-.256 16.472-.057 24.707-.122zm-270.685 78.359c.245-13.954 19.768-13.952 20.011 0-.245 13.955-19.768 13.953-20.011 0zm204.689-88.841c-4.672 1.551-9.743 1.99-14.542 3.055-1.817-2.077-1.727-5.307-3.2-7.66 6.87-3.25 13.431-6.655 20.875-8.822 7.513-2.61 12.6-4.5 14.157 5.371-5.911 2.291-11.159 6.02-17.29 8.056zm-173.858 15.127c-13.144-.24-13.142-20.993 0-21.23 13.145.24 13.145 20.992 0 21.23zm85.74-54.081c-8.071 2.186-15.905 3.854-24.2 3.368-12.025.053-12.093-6.737-2.884-12.708 7.832-4.628 17.1-5.16 25.813-5.138 8.941 2.965 12.016 10.645 1.276 14.478zm-91.672 11.644c4.659.707 22.327 4.745 10.287 9.545-10.68 4.669-24.419 5.015-34.6-1.087-9.739-8.862 19.837-9.861 24.313-8.458zm25.321-57.662c6.78 3.4 11.708 8.961 16.781 14.344 2.461 3.9 5.574 13-1.868 13.332a36.69 36.69 0 0 1 -18.339-7.217c-5.075-3.824-16.616-16.313-7.474-21.754 3.367-2.156 7.796-.59 10.9 1.295zm105.049 1.242c-2.262 10.221-29.55 7.866-37.01 4.674-6.23-14.827 34.173-14.787 37.01-4.674zm-79.706 49.149c-.835 1.295.118 3.855-.568 5.316 1.281 3.2-13.137 1.473-15.339 1.753-4.194-.172-13.457.145-15.916-3.143.291-11.269 24.97-6.327 31.822-3.944zm42.371-36.5c-.044 5.364-1.486 9.232-7.364 8.149-5.274-.313-10.544-.877-15.769-1.662-4.921-.74-9.827-1.645-14.676-2.767-2.833-.655-2.525-1.154-1.53-4a15.591 15.591 0 0 1 3.657-5.534 195.873 195.873 0 0 1 35.682 5.807zm-82.688 18.851c2.375-.852 6.914-2.927 9.473-2.591 1.828.24 1.779 1.165 2.515 3 .432 1.081 1.646 3.023 1.9 4.562-7.939 4.077-16.635 6.664-24.679 10.452-1.411-2.388-2.373-5.008-3.718-7.417 4.001-3.897 9.433-5.918 14.509-8.006zm101.03-12.047a3.26 3.26 0 0 0 .927-2.344c.007 1.158 18.117 1.88 20.367 2.05 4.727.716 18.789-1.319 12.04 7.166-7.422 1.426-15.526 1-23.124 1.04-7.372-.182-11.221 1.935-10.21-7.912zm70.346-5.46c-6.177 2.519-24.65 10.445-24.146-1.808a69.71 69.71 0 0 1 22.876-8.5c3.063-.4 4.968 1.184 5.757 4.336.921 3.671-1.568 4.579-4.484 5.972zm-200.984 9.142a8.718 8.718 0 0 1 -5.292 2c-8.884-5.7-2.527-17.71-2.13-26.05 3.408 4.79 7.8 9.02 11.092 13.89 3.219 3.569-.617 7.725-3.667 10.16zm3.848 5.474c13.456-10.292 7.405-17.089-1.294-27.5 8.617 4.9 23.571 6.857 22.8 19.519-2.7-1.456-10.038-5.958-9.768.278.928 2.792 4.952 3.8 7.115 5.4a48.718 48.718 0 0 0 -10.244 5.491c-2.504-1.386-5.858-1.819-8.606-3.188zm-.605 107.128c.065.027.128.058.194.081-.056.081-.12.157-.174.24zm20.049-7.777c-13.144-.24-13.142-20.992 0-21.23 13.146.24 13.146 20.992.003 21.23zm53.108-61.04a24.905 24.905 0 0 1 1.785-9.218 145.358 145.358 0 0 1 24.9 9.494c6.33 2.51 7.59 5.632 3.246 11.191.6-.164-2.231-1.285-2.726-1.468-9.062-3.337-18.106-6.739-27.202-9.999zm42.881-9.147c-7.307 4.938-7.333 5.484-10.449-3.94 5.219-2.626 34.112-19.532 34.343-16.685a31.879 31.879 0 0 0 1.008 5.331c-8.11 5.397-16.403 10.521-24.899 15.294zm47.924-17.134c2.033-3.108 6.363-10.134 10.943-13.056a180.483 180.483 0 0 0 -2.067 26.249c-5.064-.229-9.949-1.66-14.759-3.136a70.436 70.436 0 0 1 5.886-10.057zm50.045-1.017a4.12 4.12 0 0 1 -4.645.653 27.045 27.045 0 0 0 -4.11-4.106c-1.417-2.459-3.747-2.393-2.746-5.434 1.417-4 2.943-12.68 8.906-9.2 2.953 1.459 3.4 4.033 4.6 6.778-.83 3.713-1.497 7.492-2.002 11.309zm-235.088 4.488a81.585 81.585 0 0 1 8.818-5.22c5.112-2.757 11.015-6.721 13.177 1.2.734 2.979-1.3 3.87-3.466 5.383q-4.557 3.185-9.223 6.207t-9.447 5.853c-2.367 1.406-7.919 5.807-11.241 5.385-5.65-7.218 6.522-15.502 11.382-18.808zm178 15.111a6.06 6.06 0 0 1 -.426-2.353c5.608 2.859 13.362 3.326 19.137 3.538a3.674 3.674 0 0 0 3.741-3.546 216.127 216.127 0 0 1 2.024-29.8c7.238 5.2 14.662 10.542 21.354 16.4-4.515 5.16-13.238 5.592-17.312 10.942a2.4 2.4 0 0 0 1.416 3.479c6.477 1.2 13.065-4.862 18.578-7.8-.416 4.154-1.883 8.194-3.076 12.19a89.232 89.232 0 0 0 -22.482 7.97c-.177-3.119-1.461-10.391-5.646-6.176-1.841 2.8-.46 6.588-.215 9.7q-.9.62-1.764 1.268c-3.698-6.456-9.564-11.307-15.334-15.812zm-152.124 87.227c.244-13.954 19.767-13.952 20.01 0-.245 13.952-19.767 13.952-20.01 0zm125.336-85.356c9.32-13.26 50.387 21.2 32.521 25.543a17.5 17.5 0 0 1 -5.633-.595c-8.701-4.458-32.283-11.757-26.888-24.948zm-17.851-105.53c-15.686-.278-31.372-.592-47.057-.852-3.441-8.153-2.027-18.019.787-26.558a24.4 24.4 0 0 1 17.063-11.952c26.987-3.711 33.435 15.876 29.207 39.362zm-117.625 240.814c-.245 13.955-19.768 13.953-20.01 0 .244-13.954 19.767-13.952 20.01 0zm47.8-108.576c-1.587-5.624.422-7.335 5.777-7.96a77.477 77.477 0 0 1 13.3-1.962 80.161 80.161 0 0 1 12.559.24c3.428.341 4.682-.1 4.941 3.516a14.289 14.289 0 0 1 -.481 5.289 3.452 3.452 0 0 0 -1.392.881zm88.463.01c-6.391-4.75-12.419-9.843-7.378-18.194 2.8 8.266 11.706 14.281 20.69 18.195zm88.393-2.2c13.144.24 13.143 20.993 0 21.23-13.147-.235-13.145-20.988-.003-21.226zm38 60.238c-13.144-.239-13.142-20.992 0-21.23 13.138.244 13.136 20.997-.007 21.234zm-88.693-228.248c3.833 4.995 3.9 18.6 1.563 24.123-6.078 2.857-15.378 1.346-21.324 1.233-4.655-.088-9.3-.281-13.952-.534-5-.187-11.168.412-14.022-4.486-.669-8.537-3.34-16.668-10.055-22.049q28.905.513 57.79 1.713zm-207.757 176.674h27.77c-1.218 21.532-.673 43.4.171 64.941a18.986 18.986 0 0 0 -4.786 18.711c-11.274.2-19.743 12.129-16.621 23.219a17.252 17.252 0 0 0 -5.039.842q-2.995-53.828-1.495-107.713zm-6.346 141.544c-.245 13.954-19.768 13.952-20.01 0 .244-13.954 19.767-13.952 20.01 0zm79.837-102.5c8.411-4.232 10.136-17.478 5.621-24.991a27.865 27.865 0 0 0 5.67-14.056q68.355-.027 136.71-.023 1.361 30.5.726 61.144c-48.445.963-96.916.774-145.367 1.141 4.09-7.661 2.358-16.267-3.36-23.214zm202.1 10.027c.3 5.816 5 11.125 10.728 13.7q-8.185-.007-16.37 0 .135-6.125.208-12.249a18.231 18.231 0 0 0 5.432-1.45zm-5.791 20.008c10.467.056 20.935.066 31.4-.028-.586 23.091-1.673 46.189-3.413 69.231-10.587-.047-21.175-.042-31.762-.041q2.829-34.515 3.773-69.161zm-70.031-252.546c-26.462-.8-53.069-2.367-79.456-1.421-23.6-.281-47.218.477-70.8 1.5a10 10 0 0 1 -6.393-4.18 83.732 83.732 0 0 1 4.514-24.821c52.283-1.8 104.676-1.248 156.934 1.02 3.58 11.514 6.211 26.34-4.799 27.902zm-249.866 158.293a101.327 101.327 0 0 0 26.354-59.188 81.16 81.16 0 0 1 9.38 10.19c1.6 8.889-16.237 12.584-10.27 24.3-6.076 1.739-9.439 10.835-5.915 16.366-14.785-.5-10.621 16.484-18.463 22.738a61.513 61.513 0 0 1 -13.872-5.1c4.956-2.182 9.584-6.094 12.786-9.306zm26.683-18.267c4.3-2.805 8.805 2.944 6.511 7.01-4.877 6.381-12.557-2.191-6.511-7.015zm-16.334 28.489c1.575-4.941 4.2-16.657 11.5-11.452 2.933 2.931.239 8.05-3.483 4.942-1.719-1.436-5.349-.131-4.279 2.491 5.4 10.944 19.253.529 13.82-8.927 9.813 1.058 16.1-11 9.723-18.315 4.958-2.2 7.943-8 2.76-12.986-2.489-2.395-6.282 1.386-3.795 3.8 3.64 3.528-7.605 9.022-6.382.2 1.477-5.293 7.8-7.562 9.733-12.741 17.06 26.6.9 62.2-32.727 58.189a19.93 19.93 0 0 0 3.13-5.201zm32.982 84.033c.455 14.112 1.175 28.208 2.012 42.25a18.662 18.662 0 0 0 -6.172 12.6c-8.562-3-18.329 1.847-21.7 10.018a18.016 18.016 0 0 0 -2.04-1.439c-1.594-21.1-2.792-42.27-3.4-63.458 10.433.093 20.865.084 31.3.029zm-36.977 68.71c13.144.239 13.142 20.992 0 21.229-13.148-.239-13.146-20.994-.004-21.229zm87.263-21.731a22.155 22.155 0 0 0 4.4-17.663c12.75.236 20.619-14.954 17.184-26.368a12.37 12.37 0 0 0 7.113-3.5c49.957-.359 99.918-.479 149.871-1.258-.574 23.142-1.9 46.282-3.826 69.333-57.715 1.156-115.462.823-173.184 1.341q-.878-10.936-1.562-21.885zm291.279 64.919c4.92 1.866 6.469 4.854 2.456 8.848-3.2 2.873-8.651-.461-12.089-1.877-4.175-1.72-8.293-3.573-12.375-5.5-1.523-.721-9.4-3.607-9.686-4.807.312-2.368 2.362-5.777 3.691-7.772 5.062-5.323 12.2 2.317 17.093 4.611 3.665 2.109 7.288 4.3 10.906 6.497zm-50.275-371.872a70.729 70.729 0 0 0 12.89 11.9c-7.955-.63-15.92-1.169-23.876-1.738-4.1-.294-4.1 6.118 0 6.4 10.774.734 21.546 1.6 32.328 2.223-.063 5.448.409 11.07-1.1 16.384-4.422 2.681-10.957 1.228-16.01 1.373-7.126-.148-14.558-1.071-21.753-.877.582-33.53-9.14-16.205-17.576-53.147 7.985.132 15.954.5 23.928.955 3.463 5.68 6.89 11.377 11.169 16.527zm-17.475-26.381c.815 1.169 1.6 2.356 2.376 3.551-7.32-.652-14.733-.76-22.066-.87-4.139-11.189-9.32-22.759-16.911-31.845 15.543 4.455 27.806 15.964 36.601 29.164zm-42.815-26.584c8.633 10.017 13.652 22.593 18.07 34.91 2.945 9.161 4.738 18.887 9.987 27.11a98.023 98.023 0 0 0 -24.957-.548c-2.517.313-3.652 4.235-.658 4.863a83.949 83.949 0 0 0 13.813 1.27c13.265-.334 18.549-.376 18.972 14.712.366 3.575 2.05 10.358-2.306 11.96h-28.91c-2.481-.633-4.879-1.227-5.69-4.354-1.827-37.39-3.84-85.907-41.277-106.007a2.683 2.683 0 0 1 .9-1.028c15.601-.404 31.622 5.213 42.056 17.112zm-98.706-14.133c14.886.18 29.771.572 44.628 1.554 16.535 9.063 26.878 20.735 32.378 39.063q-76.212-3.876-152.579-1.342c6.323-13.85 15.455-31.692 30.235-37.671 15.094-1.022 30.216-1.421 45.338-1.604zm-61.056-2.918c1.444-.079 2.891-.107 4.338-.109a2.809 2.809 0 0 1 .9.976c-37.214 20.3-40.06 68.619-41.213 106.111-.8 3.131-3.194 3.726-5.671 4.354h-28.929c-4.356-1.6-2.674-8.385-2.307-11.96.428-15.1 5.714-15.041 18.973-14.711a84.079 84.079 0 0 0 13.813-1.271c2.97-.623 1.882-4.547-.659-4.863a98.01 98.01 0 0 0 -24.969.549c6.229-9.99 8.33-21.794 12.2-32.845 7.931-24.324 26.025-46.07 53.524-46.231zm-59.5 21.759a65.61 65.61 0 0 1 15.131-7.119c-6.515 8-10.733 17.531-14.659 27-6.946.288-13.938.559-20.87 1.194 5.579-7.905 12.273-15.741 20.4-21.075zm-38.438 48.257c5.358-6.449 9.394-13.749 13.826-20.81 7.591-.475 15.178-.953 22.776-1.292-3.666 10.946-5.333 23.079-13.061 32.141-8.124 7.6-5.772 19.713-6.042 29.907-10.322-.681-20.18-.125-30.283-1.127-3.573-.22-6.818-.057-9.586-1.933a136.72 136.72 0 0 1 .828-18.089c10.849-.62 21.688-1.5 32.528-2.235 4.088-.279 4.112-6.692 0-6.4-7.956.569-15.92 1.108-23.876 1.738a70.729 70.729 0 0 0 12.89-11.9zm-30.312 96.569c4.54-5.09 16.268-12.592 20.346-3.1-21.051 4.059-38.995 48.344-33.7 67.386-11.386 2.245-8.531-10.869-7.765-17.855 2.448-16.658 9.183-33.907 21.119-46.431zm-6.188 268.486c4.813-5.752 23.534-6.378 30.869-6.06.065 2.856 1.646 7.548-1.1 9.232-9.536 3.04-20.308 2.128-30.17 3.416-.105-2.299-.434-4.666.401-6.588zm-39.735 6.242c7.095-4.314 14.07-8.5 21.836-11.646a38.035 38.035 0 0 1 2.847 7.869c-9.4 4.083-17.668 11.046-27.046 15.367-1.208-2.542-2.2-5.16-3.378-7.716 1.42-1.627 4.256-2.926 5.744-3.874zm28 19.563q-4.858.852-9.763 1.4c-4.409 1.243-7.688-1.21-7.386-6.242 8.876-2.36 17.687-5.43 26.941-6.072 3.189-.324 6.95-1.475 7.567 2.554 1.028 6.707-12.924 7.584-17.357 8.36zm58.825-2.941c-3.489 3.537-19.992 2.766-25.383 2.766-8.017.618-7.179-2.173-7.76-9.794 6.571 1.79 39.459-6.691 33.143 7.028zm40.4 5.316c-3.528-.183-6.476.079-7.673-4.118-1.376-4.831-1.389-10.62-1.98-15.615-1.2-10.619-2.464-21.284-3.211-31.925 13.012 3.743 24.546-8.534 27.2-20.319 1.91 22.727 4.349 45.512 8 68a6.876 6.876 0 0 1 -3.191 4.974zm174.435-2.779c-46.755.916-93.537 1.416-140.295.568-2.148-18.742-4.636-37.147-6.077-55.936 57.382-.573 114.77-.54 172.149-1.439-1.436 18.816-4.022 37.467-6.215 56.159-6.537.333-13.021.505-19.559.647zm59.022 2.053c-7.737 1.625-16.221 1.1-24.195 1.869a6.8 6.8 0 0 1 -3.481-5.146c9.3-63.423 14.125-127.821 12.42-191.942 1.643 6.835 8.063 13.563 14.784 15.344-6.713 10.665.394 26.83 13.172 28.56a1285.774 1285.774 0 0 1 -9.256 139.438c-.437 3.494.058 9.969-3.441 11.876zm40.563 0a100.371 100.371 0 0 1 -11.21-.621c-3.52-.523-3.646-.96-3.866-4.478-.035-.553-.223-4.43-.228-5 2.744-1.516 6.12-1.278 9.357-1.357 8.232.119 16.93-.628 25.06.812 2.982.824 3.513 1.512 4.053 4.365.27 1.453.566 4.971-.953 5.978q-11.094.654-22.21.301zm61.82 9.4c-9.148-.245-18.875.083-28.054-1.367a49.9 49.9 0 0 1 -.381-8.991c11.212 1 22.932 1.035 33.961 2.342.072 3.888-1.121 7.667-5.523 8.012z"/></g></svg>