<svg height="512" viewBox="0 0 500 500" width="512" xmlns="http://www.w3.org/2000/svg"><g id="Layer_4" data-name="Layer 4"><path d="m57.919 127.515h370.916v-31.425s-20.678-4.675-31.32-27.772-28.922-44.418-61.944-48.453c0 0-33.088-6.253-51.36-7.065h-94.768s-67.485-2.962-97.471 47.122c0 0-13.129 26.628-34.053 36.168 0 0-6.745 16.117 0 31.425z" fill="#f7978d"/><path d="m157.021 49.991c34.471 0 62.735-16.362 65.571-37.191h-33.149s-45.9-2.009-78.811 25.38c11.9 7.299 28.29 11.811 46.389 11.811z" fill="#ffebe8"/><path d="m428.835 96.09s-20.678-4.675-31.32-27.772c-5.631-12.222-13.4-23.947-24.367-32.877a25.7 25.7 0 0 1 -5.66 18.929c-7.241 8.682-18.557 12.7-29.472 15.645-44.857 12.098-91.964 12.385-138.416 11.585-9.55-.164-20.9-1.413-25.408-9.834-1.711-3.2-2.07-6.929-2.187-10.551a94.546 94.546 0 0 1 6.8-38.3 125.1 125.1 0 0 0 -52.055 69.644c-3.332 11.452-4.865 24.244.331 34.959h40.561l.584-.869c10.053-14.867 23.679-28.4 41-33.105s38.533 1.98 45.969 18.314c2.317 5.09 3.251 10.812 5.969 15.66h28.7c1.516-4.646 1-9.95 2.357-14.733 2.444-8.588 10.833-14.427 19.535-16.425s17.781-.846 26.634.315c3.092.405 6.411.915 8.659 3.077 1.636 1.574 2.449 3.793 3.233 5.923 2.809 7.634 6.011 15.318 10.769 21.843h67.791z" fill="#bf4c4c"/><path d="m74 274.89h351.042s-4.293 159.867-12.986 199.3l-21.62 3.957-65.272 1.864s-133.927 5.373-163.142-.054c0 0-16.815 5.816-41.741-1.81h-26.601a11.011 11.011 0 0 1 -10.946-9.773c-3.558-31.538-13.907-132.101-8.734-193.484z" fill="#f7978d"/><path d="m407.105 274.89c3.318 31.923-3.414 65.115-21.672 91.393-6.487 9.337-14.593 17.921-24.9 22.727-6.467 3.016-13.583 4.449-20.037 7.493-19.434 9.166-29.3 30.736-44.741 45.681-20.669 20.007-50.564 27.457-76.355 40.2 47.945-.052 105.761-2.371 105.761-2.371l65.272-1.864 21.62-3.957c8.693-39.431 12.986-199.3 12.986-199.3z" fill="#bf4c4c"/><path d="m72.581 351.019 283.03 10.681v-19.806h-283.03z" fill="#bf4c4c"/><path d="m76.703 427.678 278.908 10.681v-19.806h-278.908z" fill="#bf4c4c"/><path d="m270.834 109.94c-4.926-12.646-16.141-16.013-25.543-16.4a27.405 27.405 0 0 0 -27.069 18.377c-.023.067-.046.134-.068.2-2.249 6.694-2.917 13.811-3.242 20.865a8.631 8.631 0 0 0 .48 4.069c1.37 2.936 5.27 3.415 8.508 3.477q24.234.465 48.473.134c1.592-10.203 2.208-21.101-1.539-30.722z" fill="#d1e3ed"/><path d="m148.477 274.8c1.207 68.075 2.455 136.551 15.4 203.414.407 2.1.567 4.8-1.321 5.843a5.21 5.21 0 0 1 -2.54.427l-18.634-.017c-5.345 0-15.63.865-18.473-3.627-1.162-1.836-12.919-141.777-10.526-208.676z" fill="#d1e3ed"/><path d="m383.209 273.035-35.736-.871c8.268 67.606-5.284 135.694-11.056 203.558-.216 2.542-.326 5.393 1.356 7.312s4.494 2.182 7.028 2.253c5.457.151 16.012-1.1 22.069-1.895a6.455 6.455 0 0 0 5.506-5.223c2.6-13.966 9.877-61.606 12.26-167.685.179-7.957-1.427-37.449-1.427-37.449z" fill="#d1e3ed"/><path d="m187.9 10.574a12.2 12.2 0 0 0 -5.577-.66c-15 .724-30.549 5.643-40.429 16.955a68.135 68.135 0 0 0 -7.327 10.7c-9.856 16.935-22.764 56.135-22.764 56.135-5.327 2.774-7.444 9.282-8.207 15.24a63.411 63.411 0 0 0 -.3 13.267c.136 1.652.408 3.446 1.616 4.581 1.34 1.259 3.379 1.3 5.217 1.277l34.638-.533a4.532 4.532 0 0 0 3.062-.8 4.237 4.237 0 0 0 1.055-2.7 89.591 89.591 0 0 0 .273-11.485 136.441 136.441 0 0 1 19.643-70.93c5.081-8.383 11.146-16.287 18.783-22.431 1.41-1.135 2.986-2.4 3.221-4.193a4.558 4.558 0 0 0 -2.904-4.423z" fill="#d1e3ed"/><path d="m187.9 10.574a12.2 12.2 0 0 0 -5.578-.659c-15 .723-30.549 5.642-40.429 16.954a68.156 68.156 0 0 0 -7.327 10.7c-1.479 2.54-3.026 5.584-4.588 8.919 3.385 1.191 16.207 5.117 34.174 3.46q2.173-4.245 4.643-8.329c5.081-8.383 11.146-16.287 18.784-22.431 1.409-1.135 2.985-2.4 3.22-4.193a4.558 4.558 0 0 0 -2.899-4.421z" fill="#fff"/><path d="m379.162 103.573c-.259-2.834-.6-5.752-2-8.232-1.22-2.175-3.162-3.841-4.662-5.841-2.572-3.427-3.731-7.676-4.953-11.784-4.722-15.869-8.847-32.766-19.147-45.732-19.508-24.558-56.864-22.113-56.864-22.113s32.683 34.065 36.968 53.04 3.85 38.64 4.5 58.081c.07 2.114.259 4.467 1.822 5.891 1.421 1.3 3.528 1.4 5.45 1.431q18.273.294 36.548.033a4.017 4.017 0 0 0 1.917-.346c1.227-.684 1.386-2.355 1.384-3.76q-.025-10.348-.963-20.668z" fill="#d1e3ed"/><g fill="#8da8c6"><path d="m162.552 484.057c1.888-1.039 1.728-3.739 1.321-5.843-3.316-17.131-5.86-34.368-7.836-51.677a54.071 54.071 0 0 1 -29.989 31.043c-1.748.705-3.609 1.383-5.364 2.2 1.106 12.724 1.951 20.637 2.221 21.064 2.843 4.492 13.128 3.622 18.473 3.627l18.634.017a5.21 5.21 0 0 0 2.54-.431z"/><path d="m144.049 309.968a37.329 37.329 0 0 1 5.331 8.89c-.38-14.691-.643-29.384-.9-44.058l-36.1-2.636c-.235 6.572-.332 13.856-.317 21.637 12.112 2.749 24.237 6.74 31.986 16.167z"/><path d="m366.87 483.392a6.455 6.455 0 0 0 5.506-5.223c2.107-11.3 7.273-44.671 10.43-113.218a163.694 163.694 0 0 1 -37.842 31.286c-2.862 26.5-6.3 53.01-8.547 79.485-.216 2.542-.326 5.393 1.355 7.312s4.5 2.182 7.029 2.253c5.457.151 16.012-1.099 22.069-1.895z"/><path d="m376.82 128.347a4.017 4.017 0 0 0 1.917-.346c1.227-.684 1.386-2.355 1.384-3.76q-.016-10.349-.959-20.668c-.259-2.834-.6-5.752-2-8.232-1.22-2.175-3.162-3.841-4.662-5.841-2.572-3.427-3.731-7.676-4.953-11.784-1.762-5.926-3.442-12-5.392-17.95-5.487 8.02-16.7 9.2-26.281 11.216a11.55 11.55 0 0 0 -5.306 2.156c-.059.051-.107.111-.164.164 2.262 15.712 2.07 31.775 2.6 47.688.07 2.114.259 4.467 1.822 5.891 1.421 1.3 3.528 1.4 5.45 1.431q18.269.296 36.544.035z"/><path d="m174.2 33.513c-6.113 4.187-14.285 10.387-16.658 15.111-4.695 9.341-10.227 19.463-20.012 23.145-5.869 2.209-12.4 1.7-18.517 3.065-.213.047-.423.1-.634.156-3.873 10.517-6.573 18.716-6.573 18.716-5.327 2.774-7.444 9.282-8.207 15.24a63.411 63.411 0 0 0 -.3 13.267c.136 1.652.408 3.446 1.616 4.581 1.34 1.259 3.379 1.3 5.217 1.277l34.638-.533a4.532 4.532 0 0 0 3.062-.8 4.237 4.237 0 0 0 1.055-2.7 89.773 89.773 0 0 0 .274-11.485 136.43 136.43 0 0 1 19.639-70.932c1.68-2.773 3.482-5.485 5.4-8.108z"/><path d="m272.373 140.662c1.592-10.2 2.208-21.1-1.539-30.722a23.834 23.834 0 0 0 -13.916-14.088 40.249 40.249 0 0 1 1.921 6.537c1.059 5.252.744 11.455-3.314 14.954-2.481 2.139-5.869 2.824-9.105 3.336q-7.627 1.207-15.345 1.709c-4.7.3-9.485.424-13.943 1.937-.55.187-1.1.4-1.634.638-.289 2.665-.463 5.346-.586 8.019a8.631 8.631 0 0 0 .48 4.069c1.37 2.936 5.27 3.415 8.508 3.477q24.234.465 48.473.134z"/></g><path d="m356.564 169.772c-2.38-12.815-4.1-28.249-15.733-34.126-7.672-3.876-17.1-1.795-24.719 2.177s-14.245 9.681-21.928 13.535c-23.155 11.614-51.483 4.378-74.293-7.9-10.921-5.878-21.667-13-33.966-14.593-17.63-2.29-34.649 7.27-48.411 18.526-6.7 5.476-13.847 11.778-22.5 11.79-5.837.008-11.226-2.915-16.323-5.759l-40-22.317s21.141 39.361 17.52 141.838c115.1 2.439 224.7 2.359 339.8-.009-25.611-30.917-52.117-63.69-59.447-103.162z" fill="#f9f4f4"/><path d="m72.581 321.875s2.879 126.1 10.651 149.5c0 0-26.417-8.929-66.639 7.568 0 0 39.059-52.4 3.088-68.444 0 .001 35.819-30.575 52.9-88.624z" fill="#f9f4f4"/><path d="m28.458 419.969c19.431 24.152-11.865 58.972-11.865 58.972 40.222-16.5 66.639-7.568 66.639-7.568-3.778-11.373-6.4-47.019-8.1-80.651-1.172 2.182-2.4 4.336-3.711 6.447-6.821 10.974-21.509 29.012-42.963 22.8z" fill="#c4b5b3"/><path d="m340.831 135.646c-7.672-3.876-17.1-1.795-24.719 2.177s-14.245 9.681-21.928 13.535c-10.539 5.286-22.149 6.658-33.823 5.437l-1.423 21.918a259.8 259.8 0 0 0 111.7 91.078q4.745 2.013 9.623 3.8 17.8-.294 35.747-.658c-25.61-30.918-52.116-63.691-59.446-103.163-2.378-12.813-4.098-28.247-15.731-34.124z" fill="#c4b5b3"/><path d="m363.012 268.7c-55.858-30.82-101.12-77.118-143.263-125.322-10.872-5.863-21.578-12.925-33.824-14.515a41.268 41.268 0 0 0 -5-.34l-42.205 37.921c32.779-13.138 73.459-2.938 96.162 24.112 4.628 5.515 8.6 11.755 10.377 18.733 3.027 11.923-.9 24.989-8.736 34.471s-19.193 15.613-31.076 18.795c-10.5 2.812-22.483 3.235-31.463-2.89-13.875-9.465-14.566-29.3-13.819-46.083-2.76 8.4-5.658 17.047-11.475 23.706s-15.37 10.879-23.679 7.856c-6.505-2.366-10.942-8.669-12.863-15.319s11.32-37.364 11.545-44.282c-13.521 15.586-31.265 29.872-47.417 44.13.46 12.96.5 27.351-.067 43.268 100.543 2.131 196.887 2.338 296.368.778-3.227-1.595-6.417-3.28-9.565-5.019z" fill="#c4b5b3"/><path d="m482.513 397.288c-27.838-14.855-48.387-40.59-59.743-80.045-13.647 49.809-23.462 94.033-47.237 136.562l30.671 6.58c14.042 2.527 35.818 9.28 36.984 29.316.652-32.431 27.922-42.348 41.719-15.147-12.783-31.806-2.394-77.266-2.394-77.266z" fill="#f9f4f4"/><path d="m482.513 397.288a109.25 109.25 0 0 1 -34.431-28.72c.709 3.357 1.32 6.734 1.8 10.138 2.4 17.071 1.384 35.027-5.872 50.664-4.837 10.421-13.568 20.241-24.993 21.453-12.708 1.349-23.545-7.964-34.053-15.439q-4.332 9.274-9.438 18.419l30.679 6.582c14.042 2.527 34.687 10.437 36.984 29.316-.34-31.77 27.592-41.242 41.719-15.147-12.784-31.806-2.395-77.266-2.395-77.266z" fill="#c4b5b3"/></g><g id="Layer_5" fill="#3a3245" data-name="Layer 5"><path d="m16.083 420.206c2.04-1.777 4.014-3.663 5.946-5.605 4.252 4.925 5.442 11.45 8.148 17.131 1.166 1.97 4.924 1.892 5.326-.7 1.1-7.1-3.638-15.963-8.747-21.417 5.547-6.153 10.657-12.644 15.495-19.178a33.29 33.29 0 0 1 6.731 19.636 321.749 321.749 0 0 1 -36.282 70.141c-2.345 3.453 3.227 6.519 5.533 3.158 6.253-2.777 12-6.4 18.668-8.445a75.215 75.215 0 0 1 23.435-3.23 2.853 2.853 0 0 0 2.947-2.208c1.415-10.161-29.629-2.782-35.184-.917q6.827-10.984 12.648-22.558c8.719 3.692 16.753 7.025 23.853 13.886 7.056 6.37 12.518 15.542 21.4 19.391 10.886 3.472 23.195 1.552 34.545 2.605 3.91 6.211 13.656 5.094 20.2 5.425 7.22-.524 19.849 3.706 24.761-2.441 54.852 1.628 109.915.611 164.728-1.524 3.443 6.746 14.351 4.273 21.147 4.208-.33.5-.654 1-.986 1.5-2.5 3.752 3.556 7.265 6.038 3.529q1.808-2.719 3.575-5.464c5.56-.351 13.119.553 16.188-5.192q12.628-.5 25.258-.987c7.816.567 14.742-3.134 16.064-11.469 7.479 3.274 14.155 8.077 21.218 12.036q.767 5.085 1.554 10.165c.635 4.079 6.811 2.339 6.2-1.708q-.669-4.4-1.313-8.8c6.089-10.259 8.82-12.139 18.176-19 2.333-2.111-.164-5.589-2.9-4.986-7.068 1.878-12.42 8.5-16.709 14.113q-2.326-16.268-4.414-32.566a25.984 25.984 0 0 1 14.414-13.352 456.809 456.809 0 0 0 29.113 53.976c2.242 3.566 7.915.283 5.667-3.313a439.959 439.959 0 0 1 -29.607-55.887c1.5-2.142 1.939-5.3 2.811-7.651 1.172-3.16 3.551-6.362 3.52-9.779a2.752 2.752 0 0 0 -4.107-2.357c-3.533 2.371-4.549 7.124-6.01 10.914a415.182 415.182 0 0 1 -17.419-51.186c10.447 15.547 28.318 34.968 46.11 41.455 2.748.7 5.144-2.892 2.88-4.948-5.767-5.236-13.373-8.56-19.448-13.577-21.074-17.458-36.657-42-40.153-69.293.015-13.4-.223-26.8-.847-40.185a3.59 3.59 0 0 0 -2.308-3.179c-18.755-19.262-36.875-44.014-50.649-68.087 16.311-26.151 34.531-50.075 58.389-69.9 2.871-1.585 1.979-33.85-.706-36.113-16-9.109-24.936-19.621-34.075-35.514-12.825-22.53-33.151-40.02-59.395-43.7-10.6-7.889-24.78-11.234-38.009-11.1-4.883-.46-9.4.065-11.833 4.846a874.437 874.437 0 0 0 -90.714 0c-2.573-3.176-3.777-4.618-8.627-4.79-14.465-.591-29.5 2.508-41.4 11.026-55.314 10.774-50.251 46.8-84.11 73.494-6.691 4.075-11.425 4.791-10.854 13.927a148.536 148.536 0 0 0 -.288 24.469c.118 3.009 3 4.016 5.639 3.641 11.916 29.139 15.246 60.8 15.449 92.069.175 11.106-.459 22.3.183 33.387a2.923 2.923 0 0 0 5.843 0c.618-6.257.816-12.593.862-18.928 4.53-6.093 12.972-10.13 20.251-7.884-6.909 12.967-14.508 25.168-24.219 36.3-1.539 2.125-4.743 3.208-5.045 6.044q-.321 6.9-.524 13.815c-1.136 24.062-5.893 48.426-16.6 70.244a191.993 191.993 0 0 1 -18.634 30.609c-7.157 9.725-15.554 18.294-23.123 27.652a3.061 3.061 0 0 0 4.326 4.326zm49.517 31.794c-6.232-5.1-13.969-9.855-22.028-11.743 12.69-26.3 21.308-54.284 27.025-82.89q1.248 32.137 3.939 64.173c-3.851-2.886-8.33-7.382-13.477-6.675-1.823.337-2.3 2.521-1.6 3.942 1.409 2.872 5.39 4.355 7.9 6.224a63.147 63.147 0 0 1 8.161 7.669c.955 10.9 2.344 21.709 3.447 32.6-4.383-4.5-8.483-9.3-13.367-13.3zm350.245-27.8c-6.015-3.306-12.841-4.339-19.647-5.132a455.413 455.413 0 0 0 23.837-73.041h.284q-1.133 39.154-4.475 78.173zm-3.571 35.019c-9.715-4.206-20.492-7.354-31.216-7 2.634-8.142 7.811-15.623 10.987-23.7 7.582-3.231 16.807-1.348 23.071 3.788-.804 8.986-1.792 17.955-2.843 26.916zm-25.564-73.919c.75-13.041 1.392-26.132 1.816-39.239q12.351.065 24.7 0a433.539 433.539 0 0 1 -30.021 85.285q2.175-22.988 3.505-46.046zm31.044-108.56c.665 0 1.462.082 2.26.129.469 10.32.644 20.687.753 31-1.537 10.645-3.8 21.369-6.068 31.928q-12.995-.037-25.988-.028c.552-20.722.5-41.47-.638-62.11a2.569 2.569 0 0 0 2.187-.9zm-250.098-179.24q26.488-1.008 52.985-1.446c-5.775 5.293-9.135 13.083-10.7 20.708-2.878 7.209-6.888 7.482-13.6 7.013-12.243.474-24.424-1.039-36.6-1.862-2.327-8.086-.492-15.962-.476-24.081 2.791-.132 5.609-.194 8.391-.332zm171.926 179.258c.89 20.427.963 40.891.5 61.341-61.061 1.22-122.157.818-183.225 1.39-.5-20.908-.422-41.83.489-62.71q91.119-.01 182.236-.021zm-173.827-113.18c-.869 7.111-2.1 14.178-3.625 21.181a29.047 29.047 0 0 0 -18.967-2.782c7.44-11.213 14.82-21.9 23.658-32.284-.192 4.619-.499 9.241-1.066 13.885zm161.611 9.5c-.718 1.508-1.455 3-2.2 4.492a32.313 32.313 0 0 0 -7.412-7.443 229.981 229.981 0 0 0 22.476-27.2q-5.838 15.317-12.864 30.152zm-134.528-7.94c-1.637-10.173-2.665-20.257-3.692-30.532.675-.14 1.36-.25 2.053-.338 6.4 17.831 14.614 34.79 23.459 51.474-6.064-.209-13.278 2-17.235 5.75q-2.571-13.126-4.585-26.353zm29.93 20.407c-8.672-15.677-16.595-31.7-22.593-48.627a3.883 3.883 0 0 0 1.029-.165c11.152 13.283 22.573 25.846 34.443 38.416a40.611 40.611 0 0 0 -12.879 10.377zm1.686 84.782c-4.564-2.707-7.3-6.487-9.887-11.108-6.093-19.877-11.456-39.979-15.648-60.35 5.5-4.835 13.06-7.6 20.267-5.019 6.386 11.153 13.261 21.69 20.544 32.365-8.448-.1-18.03 3.732-24.461 6.787-3.08 1.463-.906 6.423 2.3 5.465 8.9-3.238 18.256-6.122 27.707-4.4 9.935 13.638 21.143 26.6 34.579 36.265zm23.528-45.384a387.377 387.377 0 0 1 -21.54-32.956c3.378-4.955 8.774-10.254 14.894-10.954 9.281 9.442 18.863 18.592 28.842 27.3a50.11 50.11 0 0 0 -22.196 16.611zm62.472-47.91q1.281-1.123 2.53-2.282a23.259 23.259 0 0 1 8.464 10.07c-3.1 5.879-6.331 11.677-9.58 17.473a45.872 45.872 0 0 0 -15.908-14.29 122.565 122.565 0 0 0 14.494-10.97zm31.4-19.946c-.925 11.2-1.432 22.549-1.425 33.92a15.768 15.768 0 0 0 -7.669-2.139c-2.632.041-4.222 4.174-1.455 5.373 3.308 1.4 6.748 2.458 9.226 5.237.2 8.233.67 16.456 1.478 24.619-7.656-6.624-15.365-12.738-25.856-15.609a326.242 326.242 0 0 0 25.706-51.4zm-73.248-20.814c-15.913-.28-31.825-.6-47.737-.861-3.517-8.251-2.081-18.27.792-26.917a24.76 24.76 0 0 1 17.339-12.071c27.332-3.739 33.909 16.043 29.611 39.85zm-140.88 72.15q5.56-9.065 10.539-18.473c7.854-2.374 15.164-2.893 22.287 1.589a248.827 248.827 0 0 1 -10.6 33.05c-8-6-16.568-8.645-26.569-9.274q2.208-3.425 4.348-6.891zm37.2-6.946a258.089 258.089 0 0 0 9.181-59.039 42.358 42.358 0 0 1 6.4-4.518c2.524 17.01 5.485 33.976 7.755 51.033-4.882-1.241-12.705-1.781-15.785 3.024-.753 1.329-.146 3.507 1.544 3.8 5.054.21 10.605-2.461 15.232 1.067 1.236 9.962 2 20.036 2.377 29.988-11.032-4.631-23.349-3.561-34.964-.884a247.566 247.566 0 0 0 8.263-24.47zm96.522 40.835q-4.823-5.842-9.392-11.893c7.332-7.1 14.093-15.123 24.938-16.246a382.278 382.278 0 0 0 46.994 33.974c-14.2 3.531-26.39 10.017-37.886 18.623-9.389-6.75-17.353-15.612-24.651-24.457zm68.032.971a204.755 204.755 0 0 1 -48.492-47.483 81.037 81.037 0 0 0 7.745-3.563 35.738 35.738 0 0 1 18.622 18.13q-1.214 2.181-2.418 4.369c-1.863 3.392 2.963 6.1 5.124 3 .731-1.049 1.44-2.118 2.154-3.182 12.513 4 22.969 12.3 31.34 22.294q1.171 8.166 2.836 16.194c-5.737-3.074-11.368-6.342-16.908-9.758zm-3.851-145.44c3.926 4.994 4 18.92 1.592 24.467-11.4 2.837-24.032.767-35.755.695-5.1-.182-11.364.4-14.262-4.589-.68-8.648-3.41-16.9-10.261-22.307q29.357.516 58.689 1.735zm-206.254 123.6c9.587 1.94 20.739 2.081 27.581 10.262a181.514 181.514 0 0 1 -13.729 25.828c-10.093-6.686-22.588-8.422-34.379-7.6 7.152-9.27 14.02-18.76 20.53-28.491zm-42.675 124.587c10.591.093 21.184.083 31.776.028.767 23.355 1.985 46.653 3.9 69.935q-15.962 0-31.923.04-2.829-34.939-3.753-70.003zm31.591-6.269q-15.872 0-31.742.043c-1.034-20.947.66-42.195.417-63.018q15.974 0 31.946 0c-1.172 20.93-1.184 41.973-.618 62.975zm-20.158-69.445c-1.614 0-3.254-.051-4.9-.1 3.681-4.614 6.734-9.062 10.31-13.447 12.908-.48 25.1-.226 36.473 6.969-1.784 2.986 2.483 5.57 4.743 3.434 8.229-9.541 13.165-21.877 18.564-33.173 12.625-2.8 26.616-5.558 38.543 1.011-.3 12.177 3.228 31.347-12.069 35.312zm70.532 113.592q-1.064-19.065-1.644-38.18c60.969-.633 121.946-.55 182.912-1.5q-.987 35.1-3.708 70.106c-58.45 1.167-116.932.832-175.389 1.355q-1.276-15.876-2.171-31.781zm146.269-113.573h-13.166c12.865-8.281 28.107-17.742 43.937-15.4 10.011 5.491 20.215 10.831 30.934 15.412q-30.852-.007-61.705-.012zm43.375-76.2c-.132-11.363.21-22.729 1.113-34.057a168.086 168.086 0 0 0 10.82 31.629 24.327 24.327 0 0 0 -11.933 2.428zm-30.789-103.072c-26.788-.805-53.719-2.386-80.432-1.436-23.915-.283-47.847.483-71.745 1.512-2.537-.572-5.235-2.034-6.534-4.3a84.373 84.373 0 0 1 4.6-25.086c52.963-1.822 106.04-1.25 158.979 1.045 3.592 11.481 6.426 26.702-4.868 28.265zm-231.006 380c-1.776-3.785-1.532-9.547-2.014-13.69-1.365-11.68-2.51-23.382-3.51-35.1q15.96.128 31.921.017c1.446 17.87 3.639 35.562 5.695 53.379q-10.632-.463-21.263-.913c-3.889-.167-8.852.514-10.829-3.698zm48.1 9.762c-3.168-.164-7.622.48-9.194-3.023-2.15-7.921-1.825-16.929-3.215-25.078a1284.14 1284.14 0 0 1 -7.062-175.936h28.215c-2.542 66.682 2.682 133.843 12.267 199.838a6.919 6.919 0 0 1 -3.534 5.249c-5.851-.607-11.622-.69-17.475-1.055zm175.07-2.895c-47.356.928-94.741 1.432-142.1.578-2.205-19.05-4.871-37.5-6.233-56.579 58.121-.578 116.249-.545 174.367-1.452-1.262 19.015-4.219 37.9-6.251 56.8-6.606.33-13.174.502-19.781.648zm34.908 3.812a7.018 7.018 0 0 1 -3.282-5.12c9.587-66 14.813-133.173 12.267-199.862q14.109 0 28.218-.006a1249.6 1249.6 0 0 1 -6.449 170.337q-9.161 17.457-19.815 34.085zm27.066-4.566c-1.189 3.736-4.585 3.352-7.676 3.669q4.791-7.693 9.281-15.564c-.444 3.719-.363 8.383-1.603 11.89zm33.977-2.621c-9.091.4-18.227.7-27.333 1.086.734-5.747 1.24-11.16 1.978-16.822a83.271 83.271 0 0 1 31.159 7.819c-.449 3.687-1.374 7.121-5.802 7.912zm12.89-12.7c.489-8.568 1.671-16.491 2.423-24.946a26.67 26.67 0 0 0 4.325 2.667c2.625 1.25 6.312-1.488 4.364-4.364a30.32 30.32 0 0 0 -7.822-7.433q2.43-26.593 3.714-53.282 4.617 48.579 11.7 96.88a116.7 116.7 0 0 0 -18.702-9.526zm32.46-42.65c-4.737 1.3-9.542 4.886-12.955 9.255q-4.129-33.318-7.241-66.756a406.035 406.035 0 0 0 20.198 57.496zm-36.855-148.842c-29.375.009-25.518 2.238-52.85-10.128-3.88-5.874-5.7-12.3-7.4-19.178a163.238 163.238 0 0 1 -5.415-39.849c4.864-1.966 10.217-3.673 15.482-1.8a263.34 263.34 0 0 0 18.729 30.55c-7.36-1.031-14.5 1.531-21.248 4.466-3.4 1.477-.968 7.307 2.54 6.026 13.352-4.994 19.13-5.345 29.742 4.545 6.79 8.824 13.324 16.632 20.42 25.368zm-11.14-187.373a72.045 72.045 0 0 0 13.582 12.61c-8.11-.64-16.23-1.188-24.34-1.767-4.093-.293-4.084 6.1 0 6.379 10.927.743 21.852 1.622 32.788 2.25-.063 5.525.413 11.229-1.123 16.618-4.658 2.758-11.846 1.184-17.221 1.383-6.916-.151-14.125-1.031-21.111-.861.618-33.961-9.449-16.733-17.828-53.774 8.119.132 16.222.5 24.329.968a141.811 141.811 0 0 0 10.924 16.194zm-17.757-26.806c1 1.419 1.962 2.869 2.9 4.327-7.451-.664-15-.774-22.462-.885-4.226-11.34-9.417-23.082-17.181-32.286 15.51 4.418 27.879 15.716 36.743 28.844zm-43.27-26.6c8.853 9.961 13.953 22.641 18.466 35.02 3.1 9.49 4.914 19.591 10.376 28.116a100.191 100.191 0 0 0 -25.364-.574c-2.512.307-3.64 4.232-.657 4.85a86.321 86.321 0 0 0 13.98 1.273c4.317.18 11.222-.722 15.017 1.729 3.7 2.394 3.868 9.288 4.246 13.17.378 3.656 2.075 10.507-2.393 12.126h-29.548c-2.352-.581-4.6-1.235-5.41-3.954-2.176-37.889-3.762-87.18-41.935-107.533a2.756 2.756 0 0 1 1.03-1.152c15.608-.233 31.593 5.127 42.192 16.928zm-99.628-13.872c15.074.18 30.148.575 45.192 1.567 16.835 9.194 27.234 20.911 32.84 39.531q-77.237-3.919-154.626-1.354c6.488-14.1 15.6-32.016 30.678-38.131 15.281-1.025 30.6-1.425 45.916-1.613zm-60.954-2.991c1.17-.051 2.341-.07 3.511-.072a2.878 2.878 0 0 1 .979 1.049c-37.956 20.552-40.371 69.645-41.871 107.645-.806 2.719-3.071 3.369-5.433 3.955h-29.526c-4.467-1.619-2.772-8.469-2.393-12.126.378-3.882.541-10.776 4.246-13.17 3.8-2.451 10.7-1.549 15.017-1.729a86.321 86.321 0 0 0 13.975-1.273c2.96-.613 1.879-4.541-.657-4.85a100.121 100.121 0 0 0 -25.362.573c7.916-12.8 9.561-28.3 15.88-41.906 8.624-21.562 27.491-38.169 51.634-38.096zm-60.989 21.908a67.057 67.057 0 0 1 15.331-7.14c-6.664 8.1-10.964 17.783-14.944 27.4-7.086.293-14.219.569-21.29 1.217 5.704-8.046 12.554-16.061 20.903-21.477zm-39.119 48.859c5.427-6.511 9.521-13.888 14.009-21.021 7.723-.485 15.441-.969 23.17-1.312-3.6 10.717-5.27 22.516-12.517 31.588-8.792 7.912-6.741 20.359-6.85 31.178-10.46-.7-20.474-.133-30.72-1.147-3.632-.223-6.951-.055-9.764-1.983a137.83 137.83 0 0 1 .843-18.321c11-.629 22-1.515 32.994-2.262 4.077-.277 4.1-6.672 0-6.379-8.108.579-16.226 1.126-24.338 1.771a71.705 71.705 0 0 0 13.173-12.112zm-10.626 66.18a274.714 274.714 0 0 1 18.375 48.414 17.293 17.293 0 0 0 -10.19 3.325c-1.217-17.347-3.25-34.676-8.185-51.739zm8.995 81.024c-.046-7.462-.09-14.9-.437-22.355a14.2 14.2 0 0 1 11.735-3.237c1.622 6.117 3.146 12.263 4.649 18.417a27 27 0 0 0 -15.947 7.175zm21.677-6.823c-2.841-22.131-9.892-43.529-18.6-64.01 8.2 10.862 15.642 22.288 22.762 33.881-2.383 1.419-5.973 4.61-3.875 7.348a2.442 2.442 0 0 0 2.909.376 23.453 23.453 0 0 1 4.169-2.255c1.279 2.235 2.551 4.479 3.851 6.7q-4.265 9.4-9.03 18.561a17.828 17.828 0 0 0 -2.186-.601zm-40.835 136.3q2.289-4.845 4.258-9.819a304.084 304.084 0 0 1 -10.884 45.42c-1.458-3.895-3.586-9.052-7.3-11.376a177.694 177.694 0 0 0 13.926-24.221z"/><path d="m131 344.7c4.011-3.347-1.349-9.286-5.087-5.628-3.468 3.572 1.271 9.356 5.087 5.628z"/><path d="m137.27 414.844c-1.435-3.988-7.888-2.2-7.1 1.942.745 5.537 9.235 3.178 7.1-1.942z"/><path d="m372.124 341.537c-.106-4.186-6.462-4.859-7.445-.787-1.329 5.828 8.204 7.19 7.445.787z"/><path d="m366.518 414.844c-1.436-3.988-7.889-2.2-7.1 1.942.744 5.537 9.234 3.178 7.1-1.942z"/><path d="m127.931 110.546c-3.558-3.526-9.1 1.8-5.548 5.418 3.629 3.583 9.117-1.755 5.548-5.418z"/><path d="m142.929 55.186c-2.642-2.863-7.8.059-6.472 3.768 2.005 6.146 10.829 1.008 6.472-3.768z"/><path d="m156.924 29.329c3.608 3.532 8.958-1.858 5.444-5.445-3.506-3.571-9 1.956-5.444 5.445z"/><path d="m356.739 116.006c4.832 4.309 10.017-4.436 3.781-6.441h.036c-3.688-1.197-6.651 3.788-3.817 6.441z"/><path d="m344 63.654c3.73 3.833 9.424-2.64 5.153-5.822-3.616-3.003-8.6 2.56-5.153 5.822z"/><path d="m324.532 31.606c3.608 3.532 8.958-1.858 5.444-5.444-3.608-3.532-8.958 1.858-5.444 5.444z"/><path d="m246.1 102.752c-8.873-2.185-14.078 10.144-5.531 14.159-.187 2.8-.2 5.606-.171 8.41.052 4.785 7.237 4.763 7.416 0 .114-2.843.122-5.658.3-8.5 6.642-3.077 4.907-12.788-2.014-14.069z"/></g></svg>