<svg height="512" viewBox="0 0 500 500" width="512" xmlns="http://www.w3.org/2000/svg"><g id="Layer_4" data-name="Layer 4"><path d="m50.3 254.623 364.7-1.387s-.48 171.415-9.613 211.592c-106.8 7.048-222.289 6.2-343.668 0-.001 0-17.119-121.155-11.419-210.205z" fill="#f7978d"/><path d="m396.907 304.753c-3.563 18.889-8.391 39.083-22.9 51.695-9.774 8.5-22.613 12.318-34.5 17.457-18.974 8.2-37.1 21.274-45.038 40.361-2.126 5.113-3.536 10.66-6.966 15.008-4.21 5.338-10.825 8.082-16.227 12.21a37.89 37.89 0 0 0 -14.192 23.475c-.273 1.6-.453 3.235-.824 4.806 51.291-.207 101.093-1.767 149.124-4.937 9.135-40.177 9.616-211.592 9.616-211.592l-9.6.037q-3.658 25.827-8.493 51.48z" fill="#bf4c4c"/><path d="m246.928 469.782c-.154-.36-.317-.716-.461-1.079-3.776-9.559-4.754-21.8-13.818-26.649-8.61-4.6-20.444.3-28.357-5.419-4.627-3.344-6.387-9.314-9.725-13.946-7.955-11.039-23.32-12.993-36.89-13.993l-6.962 2.319c-10.677-4.669-24.613.568-29.573 11.113-2.4 5.1-2.814 10.923-2.339 16.535.867 10.236 4.5 19.847 9.247 29.023q60.606 2.109 118.878 2.096z" fill="#bf4c4c"/><path d="m51.318 333.139 281.995 10.884v-20.181h-281.995z" fill="#bf4c4c"/><path d="m55.425 411.249 277.888 10.884v-20.181h-277.888z" fill="#bf4c4c"/><path d="m37.685 132.478h384.522v-30.6s-24.039-13.231-35.426-35.929-34.631-50.32-110.481-53.049h-98.05s-71.607-2.017-98.071 39.236c0 0-24.78 39.516-44.771 49.279 0 0-5.674 19.819 2.277 31.063z" fill="#f7978d"/><path d="m88.046 42.323c12.281 5.345 27.366 8.505 43.688 8.505 37.287 0 68.182-16.446 73.71-37.928h-27.194s-59.676-1.674-90.204 29.423z" fill="#ffebe8"/><path d="m422.207 101.88s-24.039-13.231-35.426-35.929a84.006 84.006 0 0 0 -13.594-19.941 38.172 38.172 0 0 1 -9.3 16.586c-12.77 13.151-32.75 15.4-51.022 16.872l-36.289 2.932c-29.028 2.345-58.108 4.692-87.229 4.309-8.818-.116-18.445-.8-24.942-6.763-5.831-5.352-7.716-13.766-8.078-21.673a77.892 77.892 0 0 1 6.565-34.957c-12.729 6.224-22.358 17.619-28.892 30.192s-10.257 26.386-13.759 40.115c-1.972 7.728-3.848 16.119-.765 23.475 2.973 7.093 10.136 11.737 17.59 13.632s15.277 1.451 22.955.994a7.405 7.405 0 0 0 4.266-1.147 7.089 7.089 0 0 0 2-3.531c2.673-8.26 4.276-17.361 10.244-23.665 6.972-7.365 18.044-8.915 28.185-8.944 8.842-.025 18.809 1.359 24.1 8.441 3.264 4.367 4.049 10.045 6.068 15.109a31.862 31.862 0 0 0 11.968 14.491h33.208c.165-.215.345-.415.494-.644a16.1 16.1 0 0 0 2.149-8.136c.388-9.007-6.907-20.792-12.579-27.8 15.34.1 34.967 2.868 50.306 2.966 3.424.022 7.117.131 9.837 2.211 2.395 1.832 3.538 4.827 4.516 7.679 2.782 8.112 5.271 16.592 9.872 23.723h77.541z" fill="#bf4c4c"/><path d="m257.61 112.634c-5.019-12.884-16.447-16.316-26.026-16.711a27.927 27.927 0 0 0 -27.584 18.725l-.069.2c-2.292 6.821-2.972 14.073-3.3 21.261a8.786 8.786 0 0 0 .489 4.146c1.4 2.991 5.369 3.48 8.669 3.543q24.691.474 49.391.136c1.62-10.392 2.248-21.496-1.57-31.3z" fill="#d1e3ed"/><path d="m169.541 11.388a12.427 12.427 0 0 0 -5.683-.673c-15.286.737-31.127 5.749-41.194 17.276a69.359 69.359 0 0 0 -7.464 10.909c-10.044 17.251-23.2 57.193-23.2 57.193-5.429 2.827-7.586 9.457-8.363 15.528a64.583 64.583 0 0 0 -.3 13.518c.139 1.684.416 3.512 1.647 4.669 1.365 1.283 3.443 1.329 5.316 1.3l35.294-.543a4.617 4.617 0 0 0 3.12-.817 4.316 4.316 0 0 0 1.076-2.748 91.332 91.332 0 0 0 .279-11.7 139.024 139.024 0 0 1 20.006-72.275c5.177-8.541 11.357-16.595 19.139-22.856 1.436-1.156 3.043-2.444 3.281-4.272.25-1.912-1.195-3.724-2.954-4.509z" fill="#d1e3ed"/><path d="m169.541 11.388a12.427 12.427 0 0 0 -5.683-.673c-15.286.737-31.127 5.749-41.194 17.276a69.359 69.359 0 0 0 -7.464 10.909c-1.642 2.821-3.366 6.249-5.1 10.008s20.312 4.071 36.664-.087l.023-.006c1.056-1.953 2.143-3.889 3.293-5.788 5.177-8.541 11.357-16.595 19.139-22.856 1.436-1.156 3.042-2.444 3.281-4.272.245-1.914-1.2-3.726-2.959-4.511z" fill="#fff"/><path d="m372.723 106.147c-.264-2.887-.61-5.862-2.033-8.388-1.248-2.216-3.231-3.915-4.758-5.95-2.621-3.492-15.994-45.114-26.488-58.325-19.875-25.023-56.006-22.813-56.006-22.813s33.3 34.71 37.668 54.044 3.923 39.371 4.581 59.181c.071 2.153.264 4.551 1.857 6 1.448 1.32 3.594 1.427 5.553 1.458q18.618.3 37.24.034a4.1 4.1 0 0 0 1.952-.353c1.251-.7 1.413-2.4 1.411-3.831q-.016-10.541-.977-21.057z" fill="#d1e3ed"/><path d="m374.66 253.821-37.627-.887c8.706 68.886-5.564 138.262-11.64 207.412-.228 2.59-.344 5.494 1.426 7.449s4.732 2.224 7.4 2.3c5.746.155 16.86-1.12 23.237-1.93a6.708 6.708 0 0 0 5.8-5.322c2.74-14.231 10.4-62.773 12.908-170.86.186-8.112-1.504-38.162-1.504-38.162z" fill="#d1e3ed"/><path d="m90.552 253.821 40.115-.887c-9.281 68.886 5.933 138.266 12.411 207.412.243 2.59.366 5.494-1.521 7.449s-5.045 2.224-7.89 2.3c-6.125.155-17.975-1.12-24.773-1.93a6.99 6.99 0 0 1 -6.182-5.322c-2.921-14.231-11.087-62.773-13.762-170.86-.2-8.112 1.602-38.162 1.602-38.162z" fill="#d1e3ed"/><g fill="#8da8c6"><path d="m370.337 131.39a4.1 4.1 0 0 0 1.953-.353c1.25-.7 1.412-2.4 1.41-3.831q-.016-10.543-.977-21.059c-.264-2.887-.61-5.862-2.033-8.388-1.248-2.216-3.231-3.915-4.758-5.95-1.18-1.572-4.541-10.873-8.834-21.827-3.79 2.367-7.748 4.464-12.107 5.29-7.173 1.36-14.83-.837-21.771 1.36 2.109 15.586 1.943 31.5 2.467 47.264.071 2.153.264 4.551 1.857 6 1.448 1.319 3.6 1.427 5.553 1.458q18.618.302 37.24.036z"/><path d="m162.922 25.969-.639-1.165c-11.459 7.105-23 15.037-29.959 26.586a93.1 93.1 0 0 0 -5.186 10.51c-5.438 12.306-10.919 24.718-13.738 37.874-1.228 5.728-2.5 12.383-7.667 15.148-3.415 1.828-7.533 1.33-11.4 1.444a26.932 26.932 0 0 0 -11.189 2.686c-.024 2.031.033 4.063.2 6.087.139 1.684.416 3.512 1.647 4.669 1.365 1.283 3.443 1.329 5.316 1.3l35.294-.543a4.617 4.617 0 0 0 3.12-.817 4.316 4.316 0 0 0 1.069-2.748 91.515 91.515 0 0 0 .279-11.7 139.024 139.024 0 0 1 20.006-72.275 96.889 96.889 0 0 1 12.847-17.056z"/><path d="m334.98 374.005c-3.119 28.785-7.06 57.583-9.587 86.341-.228 2.59-.344 5.494 1.426 7.449s4.732 2.224 7.4 2.3c5.746.154 16.86-1.12 23.237-1.93a6.708 6.708 0 0 0 5.8-5.322c2.121-11.016 7.189-42.6 10.535-106.443-10.491 9.271-25.804 11.569-38.811 17.605z"/><path d="m133.667 470.091c2.845-.072 6.014-.353 7.89-2.3s1.764-4.859 1.521-7.449c-2.263-24.154-5.59-48.335-8.568-72.513a36.208 36.208 0 0 1 -8.735 7.135c-8.688 5.081-18.875 6.89-28.876 8.015-.683.077-1.368.152-2.053.23 3.015 33.288 6.247 51.735 7.866 59.626a6.99 6.99 0 0 0 6.182 5.322c6.798.814 18.648 2.088 24.773 1.934z"/><path d="m89.42 275.207a74.256 74.256 0 0 1 18.9 3.353c7.91 2.685 15.367 7.762 19.469 14.924a338.629 338.629 0 0 1 2.874-40.55l-40.115.887s-.648 10.931-1.128 21.386z"/><path d="m259.179 143.938c1.622-10.4 2.249-21.5-1.569-31.3a24.261 24.261 0 0 0 -10.671-12.666 39.1 39.1 0 0 1 1.573 9.131c.3 5.941-1.178 12.579-6.078 15.951-3.7 2.546-8.511 2.668-13 2.463-6.341-.29-12.677-1.05-19.02-.788a43.875 43.875 0 0 0 -9.2 1.3c-.289 2.687-.462 5.391-.586 8.087a8.786 8.786 0 0 0 .489 4.146c1.4 2.991 5.369 3.48 8.669 3.543q24.693.471 49.393.133z"/></g><path d="m56.935 252.934h350.876l-18.921-36.524h-35.078l-14.799-38.658h-39.971l-19.984-35.922h-86.743l-22.182 36.577-34.243.655-21.907 37.021h-37.719z" fill="#ffda76"/><path d="m11.36 491.4h226.233l-15-34.607h-38.22l-14.331-41.057h-80.622l-20.537 37.834h-34.195a8.8 8.8 0 0 0 -7.967 5.064z" fill="#ffda76"/><path d="m275.315 491.402h213.972l-17.765-37.832h-26.084l-18.603-36.968h-78.365l-25.605 36.968h-29.57z" fill="#ffda76"/><path d="m333.505 240.067c-6.542.911-13.894.745-18.737 5.237-2.088 1.936-3.424 4.526-5.069 6.85-.187.265-.384.522-.579.78h98.691l-18.921-36.524h-35.078l-14.8-38.658h-39.97l-19.984-35.922h-86.743l-10.922 18.011a408.386 408.386 0 0 1 56.2.6c7.768.621 16.384 1.915 21.231 8.018 1.775 2.236 2.891 4.969 4.859 7.038 7.742 8.138 22.3 1.4 32.214 6.671 11.424 6.07 10.844 24.4 21.891 31.133 5.168 3.15 11.622 2.913 17.551 4.13s12.373 5.254 12.325 11.306c-.055 6.604-7.617 10.419-14.159 11.33z" fill="#f48a4e"/><path d="m171.464 178.818s.715-.022 1.943-.057a12.914 12.914 0 0 0 -1.943.057z" fill="#f48a4e"/><path d="m227.139 244.484a21.837 21.837 0 0 0 -1.415 4.351 12.065 12.065 0 0 1 -2.359 4.1h65.228c1.491-8.15-.454-16.7-3.414-24.5-1.35-3.558-3.069-7.235-6.255-9.315-3.318-2.166-7.55-2.172-11.512-2.1l-18.62.318c-2.286.039-4.684.053-6.708-1.012-4.141-2.179-4.914-7.635-5.636-12.259a74.083 74.083 0 0 0 -5.832-19.384c-1.035-2.259-2.3-4.587-4.451-5.822-1.978-1.133-4.378-1.156-6.657-1.149-10.286.032-38.474.834-46.1 1.057 6.263.233 11.947 4.913 15.12 10.475 3 5.25 4.034 12.605-.291 16.826-2.8 2.73-7.052 3.368-10.165 5.73-.747.567-1.483 1.421-1.262 2.332.27 1.109 1.682 1.411 2.822 1.468 10.539.52 21.1-1.465 31.625-.644s21.728 5.3 26.386 14.768c.956 1.943 1.6 4.239.81 6.255-1.762 4.492-8.884 4.328-11.314 8.505z" fill="#f48a4e"/><path d="m167.911 252.934c2.773-3.275 6.109-6.4 6.731-10.607a16.747 16.747 0 0 0 -.354-5.49c-1.288-6.918-3.843-14.353-9.954-17.843a24.889 24.889 0 0 0 -7.5-2.466 112.982 112.982 0 0 0 -23.24-2.239c-3.69.027-7.518.211-10.919-1.22-1.8-.76-3.616-1.972-5.452-2.462l-2.5 4.22a25.871 25.871 0 0 1 9.766 8.424 15.293 15.293 0 0 1 2.915 7.509 8.534 8.534 0 0 1 -2.935 7.264c-1.788 1.4-4.143 1.823-6.113 2.947-4.586 2.619-6.371 8.5-10.244 11.963z" fill="#f48a4e"/><path d="m165.814 178.49-29.924.572-13.056 22.063a11.081 11.081 0 0 0 2.18 1.469 26.473 26.473 0 0 0 23.694.472 11.989 11.989 0 0 0 4.43-3.329 5.831 5.831 0 0 0 1.088-5.261 10.027 10.027 0 0 1 -.752-2.161 4.517 4.517 0 0 1 .97-2.775 35.721 35.721 0 0 1 11.37-11.05z" fill="#fff"/><path d="m185.345 240.892c5.136.4 10.474.246 15.289-1.587 15.527-5.913 13.41-18.723 18.4-22.537l-3.4.352a60.108 60.108 0 0 0 -18.736-1.724 33.22 33.22 0 0 0 -17.494 6.425 16.138 16.138 0 0 0 -4.957 5.857 9.026 9.026 0 0 0 -.2 7.5c1.879 3.945 6.753 5.38 11.098 5.714z" fill="#fff"/><path d="m91.717 236.982c2.173-1.81 2.178-5.053 2.663-7.839a18.676 18.676 0 0 1 10.037-13.06h-28.153l-11.2 21.351c.468.129.938.254 1.407.37 7.323 1.818 15.121 2.648 22.363.533a7.849 7.849 0 0 0 2.883-1.355z" fill="#fff"/><path d="m247.288 200.084a27.221 27.221 0 0 0 12.887-.094 16.186 16.186 0 0 0 7.423-3.806 31.422 31.422 0 0 0 3.851-5.222c3.809-5.667 9.655-10.665 16.483-10.769l-7.394-2.172a136.441 136.441 0 0 0 -27.685 1.146c-3.669.528-7.429 1.251-10.525 3.29s-5.392 5.705-4.777 9.36c.749 4.455 5.342 7.225 9.737 8.267z" fill="#fff"/><path d="m296.826 229.775a42.5 42.5 0 0 0 15.488 3.03c3.03.019 6.43-.482 8.265-2.894a16.793 16.793 0 0 0 1.733-3.579 16.8 16.8 0 0 1 12.13-9.624l-9.382-1.292a49.85 49.85 0 0 0 -27.379 3.7 11.781 11.781 0 0 0 -3.971 2.531 4.739 4.739 0 0 0 -1.3 4.349c.54 1.934 2.548 3.032 4.416 3.779z" fill="#fff"/><path d="m297.351 491.4h191.936l-17.765-37.83h-26.084l-18.6-36.968h-33.819c2.605 7.933 3.393 16.284-.855 23.169-5.829 9.445-18.5 11.718-29.6 11.666-5.037-.023-10.183-.318-15 1.141a21.628 21.628 0 0 0 -13.837 13.1c-1 2.759-1.443 5.741-2.87 8.306-2.364 4.249-7.009 6.648-11.514 8.477-7.228 2.929-15.143 5.306-21.992 8.939z" fill="#f48a4e"/><path d="m237.593 491.4-15-34.607h-38.22l-14.331-41.057h-30.735a27.79 27.79 0 0 0 -4.527 12.674c-.455 4.972.387 10.222-1.619 14.8-2.231 5.088-7.525 8.152-12.813 9.859a44.459 44.459 0 0 1 -22.188 1.292c-5.933-1.178-12.254-3.536-17.776-1.07-4.953 2.213-7.566 7.653-9.153 12.841s-2.659 10.757-6.074 14.972c-5.088 6.279-13.753 7.8-21.5 10.3z" fill="#f48a4e"/><path d="m315.38 459.757a38.657 38.657 0 0 0 1.53-6.187h-23.61l-7.259 15.275c6.9-.448 13.775-1.4 20.626-2.361a12.539 12.539 0 0 0 5-1.434 9.956 9.956 0 0 0 3.713-5.293z" fill="#fff"/><path d="m372.456 427.122c2.8-2.037 4.3-5.36 5.688-8.531l.87-1.989h-30.544l-9.064 13.085a72.779 72.779 0 0 1 18.423-.574c5.019.399 10.557.973 14.627-1.991z" fill="#fff"/><path d="m41.9 466.081a16.666 16.666 0 0 0 4.434-1.068c2.734-1.223 4.589-3.809 6.08-6.406.932-1.621 1.8-3.318 2.644-5.037h-20.37a8.8 8.8 0 0 0 -7.967 5.064l-4.855 10.357z" fill="#fff"/><path d="m97.318 430.31c4.378.186 8.791.619 13.119-.066s8.67-2.666 11.1-6.311a19.141 19.141 0 0 0 2.626-8.195h-34.743l-8.147 15.009c.081-.008.163-.018.244-.025a115.447 115.447 0 0 1 15.801-.412z" fill="#fff"/></g><g id="Layer_5" fill="#3a3245" data-name="Layer 5"><path d="m108.282 327.886c4.369 0 5.792-6.73 1.309-7.942-5.423-1.528-7.046 7.812-1.309 7.942z"/><path d="m111.3 397.728a3.857 3.857 0 0 0 2.7 6.531c7.146-.699 2.881-11.105-2.7-6.531z"/><path d="m361.282 322.2c-2.222-5.3-10.093-.7-6.58 3.839a3.811 3.811 0 0 0 6.58-3.839z"/><path d="m355.775 398.957c-1.464-4.065-8.037-2.245-7.238 1.978.763 5.642 9.413 3.238 7.238-1.978z"/><path d="m109.8 113.645c-4.254-3.945-9.81 2.939-4.852 6.141 3.824 2.436 8.13-3 4.852-6.141z"/><path d="m123.644 55.629c-5.078-1.464-7.087 6.2-2.1 7.609 4.915 1.433 7.05-6.325 2.1-7.609z"/><path d="m140.043 29.961c3.677 3.6 9.128-1.893 5.548-5.548-3.573-3.639-9.171 1.993-5.548 5.548z"/><path d="m347.737 119.209c4.922 4.39 10.21-4.518 3.856-6.563h.034c-3.758-1.22-6.778 3.859-3.89 6.563z"/><path d="m334.493 65.3c3.8 3.906 9.605-2.69 5.254-5.933-3.684-3.056-8.763 2.612-5.254 5.933z"/><path d="m314.259 32.306c3.573 3.639 9.172-1.993 5.548-5.548-3.573-3.639-9.171 1.993-5.548 5.548z"/><path d="m238.977 111.815c-4.855-14.9-26.1-.507-11.974 8.306-.195 2.9-.211 5.805-.179 8.709.054 4.875 7.371 4.852 7.556 0 .118-2.927.13-5.826.316-8.756 3.057-1.474 5.127-4.974 4.281-8.259z"/><path d="m480.716 465.64c-7.916-20.229-15.816-14.84-33.942-15.267-3.03-7.595-6.211-15.253-9.926-22.5-5.653-13.157-9.1-16.152-23.658-15.2 4.819-52.815 7.16-106.213 4.675-159.216-.217-4.138-4.967-3.161-7.858-3.24-1.978-7.514-6.269-15.127-9.654-21.9-8.52-22.015-17.877-13.752-36.764-15.517 15.709-21.412 32.039-42.389 49.148-62.7 4.284-5.958 10.97-10.514 14.073-17.155a145.226 145.226 0 0 0 -.187-25.11c-.291-2.659.154-6.586-1.828-8.9-15.769-8.982-25.53-19.318-34.547-35.138-13.448-23.85-34.773-42.61-62.577-46.397-11.079-8.17-25.799-11.589-39.571-11.444-5.032-.479-9.648.093-12.174 4.991a915.45 915.45 0 0 0 -94.357 0c-2.29-3.251-4.583-5.3-8.9-4.931-15.03-.611-30.657 2.557-43.061 11.357-58.016 11.144-52.214 49.182-88.222 76.227-7.561 4.122-10.8 4.676-10.475 14.242-.035 4.791-2.969 28.112 2.7 28.335 21.905 24.191 41.612 50.3 60.987 76.551-4.608 0-9.206.08-13.774.338-7.532.426-10.3 7.766-13.293 13.614-3.875 7.58-7.3 15.376-10.4 23.3-3.109.243-8.457-.931-8.758 3.48-3.085 65.444.555 131.775 8.693 196.757-7.917-.139-15.841-.2-23.681.241-7.514.424-10.282 7.761-13.264 13.593a262.962 262.962 0 0 0 -11.438 25.9c-.788 2.062 1.219 4.216 3.212 4.217 36.655-.01 187.635.012 226.467.019 2.007 0 4.022-2.168 3.231-4.241-2.4-6.3-5.008-12.519-7.865-18.624q23.049-.183 46.093-.627c-2.978 6.308-5.688 12.739-8.179 19.256-.788 2.061 1.219 4.216 3.212 4.217 31.926-.086 174.157-.07 213.25.019 2.006 0 4.021-2.168 3.23-4.241a264.33 264.33 0 0 0 -10.618-24.306zm-15.32-8.52c5.3.474 7.388 7.636 9.528 11.906 2.4 5.836 1.394 14.124-5.559 15.934a258.1 258.1 0 0 0 -12.965-28.05 82.218 82.218 0 0 1 9 .21zm-294.373-15.762a18.985 18.985 0 0 1 -4.165 3.83c-3.779-9.017-7.431-17-12.125-25.783 13.2-.914 13.99 1.769 19.073 13.248a16 16 0 0 1 -2.783 8.705zm-19.247-13.091c3.69 7.078 6.623 14.484 9.948 21.711q-43.606.009-87.213.015a240.9 240.9 0 0 1 10.751-23.3c2.129-4.017 3.533-7.128 8.124-7.131l25.2-.012c8.777-.031 17.71-.506 26.459.064 3.647.632 5.189 5.759 6.731 8.653zm-63.952-171.517h.345c-1.156 21.565-1.375 43.237-.883 64.915-11.074 0-22.149-.006-33.223.044q-.63-32.538.758-64.957 16.502.003 33.003-.002zm-33.637 71.3c11.088.1 22.178.088 33.266.031.7 24.082 2.239 48.155 4.3 72.077q-16.743 0-33.486.042c-2.067-23.983-3.475-48.069-4.08-72.15zm40.3-71.3h29.478c-2.212 52.083 1.286 104.4 6.532 156.2-10.362-.074-20.837-.478-31.224-.285-4.573-51.8-6.528-103.929-4.79-155.915zm270.068-37.028c4.852-.818 6.825 5.228 8.567 8.707a208.273 208.273 0 0 1 9.878 21.776q-43.558-.02-87.117-.024c3.046-6.153 11.079-29.8 17.444-30.308 17.073.127 34.173-.618 51.224-.151zm36.564 199.818c4.869-.757 6.837 5.216 8.583 8.728 3.69 7.077 6.624 14.483 9.949 21.71-5.532 0-84.418.01-87.214.015a240.9 240.9 0 0 1 10.751-23.3c2.129-4.017 3.534-7.128 8.124-7.131 16.588.238 33.238-.483 49.807-.022zm-52.057-6.591c-9.126.715-11.467 10.926-15.277 17.684 6.608-57.594 11.114-115.914 8.537-173.913q14.734 0 29.469-.007a1323.552 1323.552 0 0 1 -4.768 155.918c-6.009-.058-12.01-.018-17.961.318zm29.843-84.868c11.031.057 22.064.067 33.094-.031-.667 24.093-2.1 48.172-4.078 72.149q-16.694-.069-33.387-.041c2.072-23.905 3.652-47.987 4.371-72.077zm33.254-6.372c-11.027-.05-22.054-.046-33.081-.044.507-21.7.278-43.4-.952-64.955 10.9.109 22.468-.244 33.4.135.95 21.581 1.11 43.224.633 64.864zm-260.989-221.559q27.575-1.04 55.158-1.49c-11 8.994-8.54 23.36-16.463 28.03-15.474 2.081-31.456-.467-46.993-1.332-2.46-8.317-.535-16.493-.521-24.862 2.931-.143 5.895-.203 8.819-.346zm35.4 75.4c-2.764 0-5.539-.041-8.318-.087 4.251-10.083 10.02-19.239 16.037-28.364l.088.018c1.093 2.788 1.271 7.147 5.078 7.321 19.761 2.206 39.93 1.769 59.7-.105a4.481 4.481 0 0 0 3.007-1.458 210.174 210.174 0 0 1 10.115 22.261c-28.504.205-57.257-.013-85.709.412zm141.486 16.85c-1.481-3.019-3.018-7.1-5.191-10.483 16.14-1.566 15.153 5.53 21.259 17.83-.057 4.895-3.856 8.794-8.043 10.212-2.038-6.049-5.343-12.089-8.025-17.559zm-52.349-47.6c4.621.934 8.885 14.014 11.457 18.368-.351 4.651-4.171 8.425-8.333 10.055a259.918 259.918 0 0 0 -13.6-28.562c3.541-.21 7.262-.5 10.476.139zm-58.381 37.38c5.485.64 7.942 9.089 10.137 13.538 2.28 5.1-.556 12.666-6.111 14.53-3.848-10.111-8.365-18.683-13.313-28.331a64.974 64.974 0 0 1 9.287.267zm67.649 30.6c-14.063-.008-28.268-.466-42.36.053a241.211 241.211 0 0 1 10.846-23.513c2.125-4.009 3.515-7.11 8.094-7.111l25.2-.008c8.779-.069 17.7-.431 26.459 0 3.626.753 5.183 5.745 6.718 8.683a208.118 208.118 0 0 1 9.879 21.763c-14.867-.692-30.021.153-44.836.14zm-28.824-72.638c-16.6-.181-33.059-.835-49.669-.762-3.775-8.387-2.26-19.11.769-27.916a25.882 25.882 0 0 1 17.936-12.409c28.282-3.912 35.474 16.282 30.964 41.094zm-117.516 49.185c2.125-4.009 3.515-7.11 8.094-7.111 16.589.242 33.238-.477 49.806-.033 4.85-.818 6.826 5.229 8.567 8.707a200.47 200.47 0 0 1 9.683 21.3c-28.984.546-58.031-.743-86.964.571a241.059 241.059 0 0 1 10.814-23.434zm128.709 30.3c8.158.415 10.13 12.758 13.584 18.744a11.334 11.334 0 0 1 -8.619 8.8c-3.852-9.813-8.181-18.064-12.967-27.485q4.002-.018 8.002-.064zm48.043-119.127c4.237 5.228 4.139 19.425 1.671 25.256-11.874 2.946-25.014.8-37.22.727-5.328-.171-11.894.412-14.922-4.8-.725-8.909-3.582-17.319-10.731-22.973q30.615.532 61.202 1.79zm-125.587 126.366c2.126-4.009 3.516-7.11 8.095-7.111 16.589.242 33.237-.477 49.806-.034 4.85-.817 6.826 5.229 8.567 8.708a207.531 207.531 0 0 1 9.872 21.748l-87.1-.007a240.867 240.867 0 0 1 10.76-23.304zm117.11-133.276c-27.9-.812-55.964-2.487-83.786-1.482-24.8-.282-49.618.5-74.4 1.561-2.642-.6-5.449-2.077-6.824-4.44a85.954 85.954 0 0 1 4.773-25.88c55.091-1.879 110.3-1.289 165.366 1.079 3.741 11.86 6.688 27.572-5.129 29.162zm-153.243 126.133c7.11 1.579 8.993 12.485 12.239 18.186-.952 4.182-4.542 7.559-8.456 9.155a298.253 298.253 0 0 0 -13.07-27.6 64.683 64.683 0 0 1 9.287.259zm174.243 37q1.41 31.529.786 63.223c-63.647 1.267-127.33.847-190.985 1.439-.467-21.569-.294-43.139.661-64.639 11.934-.001 138.292-.007 189.538-.023zm-190.042 71.02c63.566-.656 127.139-.564 190.7-1.55-.581 24.113-1.963 48.23-4.006 72.253-60.852 1.208-121.738.859-182.6 1.4-2.001-23.956-3.434-48.023-4.094-72.103zm283.788 91.872c5.3.474 7.388 7.636 9.528 11.906 4.369 6.1 2.871 15.485-4.988 17.6-3.764-10.472-8.324-19.708-13.536-29.713a82.206 82.206 0 0 1 8.996.207zm-18.4-6.72c-10.156-.354-19.766.337-29.849-.176q.287-3.073.566-6.151 16.708.094 33.417-.017-.273 3.147-.558 6.29c-1.202.029-2.396.051-3.579.059zm-17.914-193.172c5.485.64 7.942 9.088 10.137 13.537 4.036 6.094 2.083 14.37-6.168 14.36-3.865-10.05-8.326-18.563-13.256-28.16a64.683 64.683 0 0 1 9.287.263zm10.573-134.374a74.472 74.472 0 0 0 14.1 12.919c-8.476-.664-16.963-1.231-25.44-1.831-4.171-.3-4.161 6.22 0 6.5 11.378.766 22.755 1.673 34.141 2.322-.063 5.673.432 11.535-1.147 17.07-4.939 3-12.653 1.31-18.4 1.526-7.072-.154-14.444-1.073-21.587-.89.62-35.13-9.751-17.065-18.538-55.432 8.488.135 16.961.513 25.437 1a144.951 144.951 0 0 0 11.434 16.816zm-18.058-27.035c.888 1.258 1.743 2.538 2.585 3.826-7.8-.694-15.7-.807-23.52-.922-4.44-11.716-9.775-23.862-17.909-33.353 16.418 4.593 29.487 16.565 38.844 30.449zm-45.565-28.176c9.1 10.054 14.365 22.918 19.057 35.471 3.358 10.005 5.226 20.71 11.049 29.7a110.512 110.512 0 0 0 -26.461-.608c-2.561.306-3.707 4.323-.669 4.941 9.44 2.5 20.336-.463 29.472 2.807 4.272 2.316 4.6 8.765 5.055 13.113.425 3.908 2.292 11.594-2.475 13.283h-30.732c-2.461-.6-4.822-1.289-5.664-4.1-2.24-39.086-4.057-89.915-43.574-110.709a2.737 2.737 0 0 1 1.112-1.256c16.166-.216 32.759 5.204 43.83 17.358zm-103.526-14.2c15.675.184 31.35.59 46.994 1.612 17.47 9.431 28.343 21.507 34.2 40.773q-80.36-4.042-160.885-1.395c6.625-14.459 16.485-33.235 31.96-39.328 15.889-1.062 31.81-1.476 47.731-1.663zm-63.225-3.089c1.172-.049 2.345-.067 3.518-.07a2.9 2.9 0 0 1 1.074 1.136c-39.312 21.007-41.958 71.613-43.523 110.829-.843 2.811-3.216 3.492-5.686 4.1h-30.711c-4.641-1.648-2.952-8.71-2.554-12.525.432-4.409.686-11.6 5.133-13.87 9.258-3.122 19.948-.354 29.472-2.809 3.015-.613 1.917-4.631-.669-4.94a110.6 110.6 0 0 0 -26.446.605c6.6-10.255 8.015-22.688 12.576-33.822 9.181-26.36 27.708-48.632 57.816-48.635zm-63.933 22.8a69.528 69.528 0 0 1 16.492-7.649c-6.967 8.352-11.476 18.373-15.623 28.343-7.422.3-14.891.591-22.3 1.266 5.875-8.239 12.923-16.384 21.431-21.958zm-40.408 50.193c5.68-6.726 9.952-14.371 14.646-21.759 8.077-.5 16.149-1 24.232-1.36-3.751 11.058-5.5 23.254-13.04 32.583-9.181 8.169-6.975 21.158-7.1 32.37-11.338-.254-22.657-.8-33.973-1.55-3.276-.2-5.88-.337-8.256-1.983a140.192 140.192 0 0 1 .883-18.871c11.461-.65 22.913-1.564 34.366-2.335 4.154-.28 4.178-6.8 0-6.5-8.478.6-16.965 1.167-25.441 1.831a74.387 74.387 0 0 0 13.683-12.426zm13.776 141.024c2.125-4.009 3.515-7.11 8.094-7.111 16.589.242 33.237-.477 49.806-.034 4.85-.817 6.826 5.229 8.567 8.708a207.36 207.36 0 0 1 9.868 21.739c-29.027-.031-58.053.05-87.079-.038a240.76 240.76 0 0 1 10.744-23.264zm-16.142 179.685q16.74.133 33.481.017.284 3.156.582 6.305c-8.379-.6-11.941 7.213-15.025 13.67a259.486 259.486 0 0 0 -10.629 23.851q-1.833-.03-3.67-.062-2.722-21.802-4.739-43.781zm-42.083 80.949a241.24 241.24 0 0 1 10.749-23.3c2.129-4.017 3.533-7.128 8.124-7.13l25.2-.013c8.777-.031 17.711-.5 26.46.064 3.652.63 5.192 5.755 6.734 8.65 3.672 7.042 6.456 14.537 9.839 21.7q-43.557.013-87.106.029zm109.684 0a241.146 241.146 0 0 1 10.752-23.3c2.129-4.017 3.533-7.128 8.124-7.131l25.195-.012c8.777-.031 17.711-.506 26.46.064 3.651.629 5.193 5.756 6.734 8.65 3.691 7.078 6.624 14.484 9.949 21.711q-43.606.01-87.214.018zm107.009-.027v.01h-.01zm-9.588-21.326c.887 6.286.248 12.771-5.033 16.652-3.782-9.055-7.457-17.067-12.165-25.887 8.992-.351 13.621-.52 17.198 9.233zm6.721-1.317c-1.546-3.1-2.133-7.074-5.066-9.347-6.3-8.68-19.055-4.334-28.26-5.081a46.412 46.412 0 0 0 -8.414-.053c-2.939-7.543-6.158-14.973-9.787-22.212-3-5.981-5.833-14.38-13.5-15.172-7.371-.855-15.06.283-22.459-.258q-.3-3.252-.587-6.507c60.505-.6 121.017-.56 181.518-1.5q-2.052 22.825-4.863 45.5c-7.633-.127-15.269-.17-22.826.256-7.583.432-10.335 7.89-13.346 13.761q-26.202.483-52.41.611zm56.063 22.666h-6.93a240.992 240.992 0 0 1 10.751-23.3c2.129-4.017 3.534-7.129 8.124-7.131l25.2-.013c8.777-.03 17.711-.506 26.46.065 3.652.628 5.193 5.756 6.734 8.65 3.666 7.03 6.412 14.558 9.811 21.708q-40.076.005-80.15.019zm89.537 0a240.9 240.9 0 0 1 10.751-23.3c2.129-4.017 3.534-7.128 8.124-7.131l25.2-.012c8.777-.031 17.71-.506 26.459.064 3.652.629 5.193 5.756 6.735 8.65 3.69 7.078 6.624 14.484 9.948 21.711q-43.61.014-87.217.022z"/></g></svg>