<svg height="512" viewBox="0 0 500 500" width="512" xmlns="http://www.w3.org/2000/svg"><g id="Layer_4" data-name="Layer 4"><path d="m69.174 249.657 354.273-1.348s-.467 166.516-9.339 205.544c-103.749 6.847-215.935 6.024-333.845 0 0 0-16.634-117.692-11.089-204.196z" fill="#f7978d"/><path d="m404.554 304.311c-.578 19.078-3.924 39.729-17.793 52.841-19.919 18.83-53.408 14.857-74.939 31.821-13.06 10.289-20.069 27.118-33.956 36.26-10.309 6.785-23.088 8.442-35.4 9.349-14.393 1.06-29.608 1.169-42.313-5.676-16.727-9.012-25.911-28.359-42.6-37.436-21.546-11.716-51.166-3.971-69.971-19.715-7-5.863-11.605-14.391-17.452-21.34 3.491 56.431 10.132 103.438 10.132 103.438 117.91 6.024 230.1 6.847 333.845 0 8.872-39.028 9.339-205.544 9.339-205.544l-12.357.047c-7.189 17.451-5.963 37.066-6.535 55.955z" fill="#bf4c4c"/><path d="m72.617 325.926 273.935 10.573v-19.605h-273.935z" fill="#bf4c4c"/><path d="m72.643 402.655 266.57 10.573v-19.605h-266.57z" fill="#bf4c4c"/><path d="m56.917 131h373.532v-29.721s-23.352-12.853-34.414-34.9-33.641-48.886-107.326-51.537h-95.245s-69.564-1.958-95.264 38.115c0 0-24.071 38.387-43.491 47.871-.004 0-5.516 19.252 2.208 30.172z" fill="#f7978d"/><path d="m56.917 131h373.532v-29.721s-23.352-12.853-34.414-34.9-33.641-48.886-107.326-51.537h-95.245s-69.564-1.958-95.264 38.115c0 0-24.071 38.387-43.491 47.871-.004 0-5.516 19.252 2.208 30.172z" fill="#f7978d"/><path d="m104.954 44.33c12.589 3.773 28.487 6.031 45.788 6.031 40.792 0 73.861-12.521 73.861-27.967a12.664 12.664 0 0 0 -2.747-7.552h-28.392s-59.137-1.665-88.51 29.488z" fill="#ffebe8"/><path d="m430.449 101.279s-23.352-12.853-34.414-34.9a79.668 79.668 0 0 0 -16.4-22.6c-2.212 12.666-12.3 23.988-24.22 29.78-14.912 7.248-32.073 7.81-48.648 8.236l-96.967 2.493c-7.683.2-15.473.384-22.941-1.436s-14.7-5.919-18.635-12.522c-6.441-10.808-2.524-24.562 1.548-36.467a122.527 122.527 0 0 0 -33.36 79.126c-.229 6.171.309 13.056 4.8 17.292.27.255.551.5.839.721h22.131c.317-.609.6-1.245.859-1.867 5.379-12.755 12.033-26.37 24.543-32.3 8.716-4.13 18.8-3.758 28.436-3.3l21.429 1.016c11.437.543 25.056 2.451 30.011 12.773 1.918 4 2.09 8.565 2.513 12.975.356 3.707 1.007 7.56 2.905 10.7h15.322c.94-3.06.583-6.828.862-10.157.67-7.968 6-15.079 12.862-19.184s15.076-5.483 23.065-5.321c5.277.106 10.794.952 15.019 4.114 5.107 3.822 7.38 10.228 10.472 15.807a54.892 54.892 0 0 0 12.067 14.742h65.9z" fill="#bf4c4c"/><path d="m270.556 111.726c-4.875-12.516-15.977-15.85-25.283-16.233a27.127 27.127 0 0 0 -26.793 18.189c-.022.066-.045.132-.067.2-2.226 6.626-2.887 13.67-3.209 20.653a8.535 8.535 0 0 0 .476 4.027c1.355 2.906 5.215 3.38 8.421 3.442q23.987.461 47.979.132c1.575-10.099 2.185-20.887-1.524-30.41z" fill="#d1e3ed"/><path d="m185 13.374a12.056 12.056 0 0 0 -5.52-.654c-14.849.716-30.238 5.585-40.017 16.782a67.415 67.415 0 0 0 -7.249 10.598c-9.755 16.762-22.531 55.563-22.531 55.563-5.273 2.746-7.369 9.187-8.124 15.084a62.8 62.8 0 0 0 -.293 13.132c.135 1.636.4 3.411 1.6 4.535 1.326 1.246 3.344 1.291 5.164 1.263l34.285-.527a4.485 4.485 0 0 0 3.031-.794 4.2 4.2 0 0 0 1.044-2.67 89.057 89.057 0 0 0 .27-11.369 135.041 135.041 0 0 1 19.44-70.217c5.029-8.3 11.032-16.121 18.592-22.2 1.395-1.123 2.955-2.374 3.187-4.15a4.509 4.509 0 0 0 -2.879-4.376z" fill="#d1e3ed"/><path d="m185 13.374a12.056 12.056 0 0 0 -5.52-.654c-14.849.716-30.238 5.585-40.017 16.782a67.415 67.415 0 0 0 -7.249 10.598c-1.475 2.534-3.018 5.574-4.577 8.905 4.684.752 24.527 3.6 35.73-.17h.012c.876-1.59 1.775-3.168 2.716-4.721 5.029-8.3 11.032-16.121 18.592-22.2 1.395-1.123 2.955-2.374 3.187-4.15a4.509 4.509 0 0 0 -2.874-4.39z" fill="#fff"/><path d="m382.378 105.425c-.256-2.8-.592-5.695-1.974-8.149-1.213-2.153-3.139-3.8-4.622-5.78-2.546-3.392-15.537-43.824-25.731-56.658-19.307-24.307-56.217-22.209-56.217-22.209s34.166 33.771 38.403 52.547 3.811 38.246 4.45 57.49c.069 2.092.257 4.421 1.8 5.83 1.406 1.282 3.492 1.386 5.4 1.417q18.085.291 36.175.033a3.985 3.985 0 0 0 1.9-.343c1.214-.677 1.372-2.331 1.37-3.721q-.02-10.243-.954-20.457z" fill="#d1e3ed"/><path d="m384.26 248.877-36.551-.861c8.457 66.916-5.405 134.31-11.308 201.483-.221 2.516-.334 5.338 1.386 7.237s4.6 2.16 7.189 2.23c5.581.15 16.378-1.088 22.572-1.875a6.514 6.514 0 0 0 5.632-5.17c2.662-13.824 10.1-60.979 12.539-165.976.181-7.876-1.459-37.068-1.459-37.068z" fill="#d1e3ed"/><path d="m373.18 451.921c1.918-9.96 6.316-37.226 9.537-90.958a100.337 100.337 0 0 1 -31.31 12.91c-2.234.5-4.534.949-6.779 1.525-2.816 24.707-6.058 49.419-8.227 74.1-.221 2.516-.334 5.338 1.386 7.237s4.6 2.16 7.189 2.23c5.581.15 16.378-1.088 22.572-1.875a6.514 6.514 0 0 0 5.632-5.169z" fill="#8da8c6"/><path d="m108.273 248.877 38.969-.861c-9.017 66.916 5.758 134.31 12.058 201.484.235 2.516.356 5.338-1.478 7.237s-4.9 2.16-7.664 2.23c-5.951.15-17.461-1.088-24.065-1.875a6.789 6.789 0 0 1 -6-5.17c-2.838-13.824-10.771-60.979-13.369-165.976-.202-7.877 1.549-37.069 1.549-37.069z" fill="#d1e3ed"/><path d="m150.156 458.966c2.763-.07 5.842-.343 7.664-2.23s1.713-4.721 1.478-7.237c-1.873-19.984-4.5-39.989-7.02-59.994a63.369 63.369 0 0 0 -33.3-8.121c-2.468.1-5.039.308-7.574.35 3.194 40.159 6.92 61.6 8.683 70.187a6.789 6.789 0 0 0 6 5.17c6.613.787 18.118 2.025 24.069 1.875z" fill="#8da8c6"/><path d="m380.061 129.946a3.985 3.985 0 0 0 1.9-.343c1.214-.677 1.372-2.331 1.37-3.721q-.016-10.244-.95-20.457c-.256-2.8-.592-5.695-1.974-8.149-1.213-2.153-3.139-3.8-4.622-5.78-1.254-1.67-5.043-12.327-9.781-24.243l-.25-.072a56.866 56.866 0 0 1 -23.185 11.594c-2.662.632-5.456 1.1-7.712 2.653 1.457 13.639 1.376 27.494 1.833 41.238.069 2.092.257 4.421 1.8 5.83 1.406 1.282 3.492 1.386 5.4 1.417q18.082.287 36.171.033z" fill="#8da8c6"/><path d="m183.133 22.815-2.456-.374a75.45 75.45 0 0 0 -37.109 36.024c-3.776 7.88-6.2 16.469-11.106 23.7-1.759 2.59-3.864 5.064-4.664 8.091-.767 2.9-.239 5.979-.483 8.972a17.971 17.971 0 0 1 -16.773 15.942c-3.1.095-6.471-.561-9.375.1a62.793 62.793 0 0 0 .1 8.61c.135 1.636.4 3.411 1.6 4.535 1.326 1.246 3.344 1.291 5.164 1.263l34.285-.527a4.485 4.485 0 0 0 3.031-.794 4.2 4.2 0 0 0 1.044-2.67 89.057 89.057 0 0 0 .27-11.369 135.041 135.041 0 0 1 19.439-70.218 85.776 85.776 0 0 1 17.237-21.046c-.073-.076-.137-.16-.204-.239z" fill="#8da8c6"/><path d="m272.08 142.135c1.575-10.1 2.185-20.886-1.524-30.409a23.674 23.674 0 0 0 -9.456-11.767 37.82 37.82 0 0 1 -.222 14.467c-.793 3.712-2.355 7.561-5.576 9.57-2.509 1.565-5.61 1.757-8.566 1.852-6.991.224-14.029.15-20.922 1.342a44 44 0 0 0 -10.354 3.058q-.158 2.142-.257 4.286a8.547 8.547 0 0 0 .475 4.027c1.356 2.906 5.216 3.38 8.422 3.442q23.988.461 47.98.132z" fill="#8da8c6"/><path d="m189.657 447.507a5.843 5.843 0 0 0 -3.357-1.707q-8.483-2.142-17.045-3.947c-5.4-1.137-11.264-2.122-16.227.282a9.434 9.434 0 0 1 -3.3 1.282c-1.682.12-3.179-.974-4.532-1.981a104.807 104.807 0 0 0 -26.329-14.262c1.092-4.48 6.093-7.712 5.8-12.314-.173-2.741-2.347-5.05-4.88-6.111a17.921 17.921 0 0 0 -8.114-.906 60.27 60.27 0 0 0 -32.295 12.071c-.76.578-1.675 1.209-2.588.931-1.047-.319-1.393-1.6-1.572-2.678q-1.1-6.627-2.2-13.254a3.533 3.533 0 0 0 -1.013-2.319c-1.091-.848-2.662-.161-3.854.539l-21.333 12.542c-3.2 1.882-6.837 4.534-6.585 8.239.27 3.968 5.075 7.1 4 10.925-.944 3.35-5.342 3.859-8.774 4.431a25.429 25.429 0 0 0 -10.72 4.492s-13.762 4.294-4.814 23.611a9.759 9.759 0 0 0 2.714 3.693 11.625 11.625 0 0 0 4.73 1.871 70.618 70.618 0 0 0 41.425-3.5l1.014 8.695c.211 1.809.483 3.754 1.735 5.077 1.426 1.506 3.693 1.767 5.76 1.936l28.153 2.305c4.622.378 10.334.2 12.491-3.909.992-1.888 1.2-4.543 3.174-5.341a5.3 5.3 0 0 1 2.649-.107 128.113 128.113 0 0 0 37.935-.877 2.05 2.05 0 0 0 2.148-2.474l.091-10.255a2.124 2.124 0 0 1 2.729-2.548q8.692.4 17.365 1.137a5.277 5.277 0 0 0 2.644-.224c1.53-.7 2.007-2.6 2.3-4.253q.571-3.212 1.145-6.422c.281-1.588.516-3.393-.47-4.67z" fill="#ffda76"/><path d="m255.522 460.4a9.44 9.44 0 0 0 -3.442-3.266 42.919 42.919 0 0 0 -18.767-6.147 73.677 73.677 0 0 0 -19.84 1.035l-4.045.347c-3.32.718-5.808 3.681-6.834 6.919s-.824 6.728-.423 10.1a15.816 15.816 0 0 0 1.5 5.743 11.448 11.448 0 0 0 5.829 4.869 30.554 30.554 0 0 0 7.522 1.751c7.723 1.068 15.649 1.666 23.267.007 2.257-.492 4.466-1.178 6.672-1.862 2.105-.654 4.31-1.368 5.824-2.97a11.365 11.365 0 0 0 2.432-5.306 44.779 44.779 0 0 0 .956-5.553 9.735 9.735 0 0 0 -.651-5.667z" fill="#ffda76"/><path d="m480.451 437.744c-2.615-4.223-8.084-5.558-13.025-6.064a81.078 81.078 0 0 0 -17.272.084 6.44 6.44 0 0 1 -2.952-.11c-1.618-.6-2.437-2.43-2.667-4.141a42.713 42.713 0 0 0 -.484-5.148c-.9-3.441-4.293-5.769-7.779-6.47s-7.088-.085-10.59.531l-7.056-.338a258.724 258.724 0 0 1 -3.826 34.772l-15.174 1.314a2.118 2.118 0 0 1 -1.344-.181c-.6-.388-.641-1.23-.609-1.941.17-3.779.472-8.147-2.3-10.719-1.814-1.68-4.449-2.055-6.91-2.283a135.094 135.094 0 0 0 -31.209.732 2.669 2.669 0 0 0 -1.6.605 2.7 2.7 0 0 0 -.522 1.835l-.279 8.377c-8.123.51-16.527 1.1-23.725 4.9s-12.878 11.751-11.388 19.753a9.736 9.736 0 0 0 3.615 6.237c2.1 1.5 4.818 1.755 7.394 1.918a216.621 216.621 0 0 0 35.346-.646c1-.1 4.35-3.05 5.337-2.876 2.271.4 1.656 5.028 3.584 6.3 4.127 2.709 9.312 3.088 14.244 3.311a491.3 491.3 0 0 0 68.367-1.672 3.632 3.632 0 0 0 2.623-1 3.533 3.533 0 0 0 .569-1.807 86.977 86.977 0 0 0 .6-12.234c-.027-1.25-.035-2.637.8-3.571a5.089 5.089 0 0 1 2.038-1.178 67.247 67.247 0 0 0 11.259-5.676 14.06 14.06 0 0 0 4.527-3.975c1.392-2.145 1.646-4.81 1.862-7.359.32-3.852.577-8-1.454-11.28z" fill="#ffda76"/><path d="m76.206 248.016h338.508s3.044-29.7-18.738-38.976l3.465-13.183-25.56-15.5-9.819 5.685s2.85-14.245-17.51-27.224-42.113-19.771-54.147-6.4l-34.792 6.4-51.685-2.381-17.242 9.663-4.786-17.145-50.832 14.858 1.893 12.412-33.896 18.545 4.258 14.27-14.708 9.96 4.273 9.219-14.749 3.6z" fill="#ffda76"/><g fill="#f48a4e"><path d="m298.534 248.016h116.18s3.044-29.7-18.738-38.976l3.465-13.183-7.047-4.274a20.34 20.34 0 0 1 -1.32 4.069c-1.326 2.883-3.718 5.45-6.806 6.183-2.395.568-4.89-.008-7.347-.153s-5.238.309-6.69 2.3c-1.6 2.191-.939 5.268-1.717 7.868-1.077 3.6-4.881 5.836-8.619 6.256s-7.471-.6-11.111-1.551-7.428-1.848-11.131-1.183c-2.723.489-5.224 1.8-7.865 2.619s-5.682 1.112-8.04-.336a12.9 12.9 0 0 1 -3.164-3.2c-2.523-3.2-5.42-6.474-9.36-7.507s-9.965 1.475-9.129 5.462c2.237 10.671-1.118 15.795-3.028 17.609-2.279 2.163-1.914 5.895-.851 8.852s2.675 5.907 2.334 9.03c-.004.039-.011.077-.016.115z"/><path d="m311.576 196.831c-.308 2.256-1.69 4.4-1.331 6.645a7.829 7.829 0 0 0 2.715 4.224 31.421 31.421 0 0 0 5.93 4.372 7.935 7.935 0 0 0 4.27 1.329c3.1-.182 5.038-3.283 6.986-5.706a17.454 17.454 0 0 1 9.444-6.291c5.857-1.339 12.388 1.159 17.817-1.414 4.7-2.227 6.994-7.507 8.81-12.381.44-1.183.858-2.374 1.288-3.561l-3.443 1.993s1.138-5.741-3.222-13.241a14.02 14.02 0 0 1 -5.662 4.194c-1.3.512-2.673.833-3.916 1.466-3.748 1.908-5.6 6.225-8.89 8.845a12.274 12.274 0 0 1 -15.736-.855c-1.331-1.32-2.332-2.936-3.6-4.321a12.194 12.194 0 0 0 -7.723-4.075 8.809 8.809 0 0 0 -7.86 3.343 4.571 4.571 0 0 0 -.965 2.543c-.026 1.5.961 2.8 1.851 4.007 1.924 2.6 3.675 5.679 3.237 8.884z"/><path d="m199.282 232.226c4.293.863 9.421 1.484 12.439-1.69 2.747-2.889 2.267-7.655.417-11.187s-10.922-7.745-14.856-8.393c-21.757-3.579-17.609-14.378-10.148-17.934 3.614-1.724 24.328 1.183 28.206 2.183s7.245 3.345 10.825 5.138c7.093 3.553 15.607 4.928 23.028 2.125 9.264-3.5 15.053-12.535 20.175-21.011a17.339 17.339 0 0 0 2.647-5.985 9.762 9.762 0 0 0 -3.991-9.185 12.27 12.27 0 0 0 -10.059-1.76 11.9 11.9 0 0 0 -5.372 2.864c-2.875 2.749-3.914 6.884-6.211 10.131a15.737 15.737 0 0 1 -16.044 6.077 6.134 6.134 0 0 1 -4.241-2.746c-1.679-3.26 1.809-6.7 4.87-8.72l13.518-8.913a114.276 114.276 0 0 0 -17.647-.436c-4.846.255-10.395 1.263-12.817 5.467-1.3 2.25-1.419 5.043-2.793 7.246-1.84 2.953-5.5 4.2-8.937 4.727a35.739 35.739 0 0 1 -18.554-2.132c-2.024-.808-4.193-1.823-6.289-1.229-3.041.862-4.2 4.566-4.328 7.725s.186 6.614-1.664 9.177c-2.482 3.437-7.927 3.859-10.046 7.53-2.307 4 .747 9.167-.451 13.624-1.207 4.489-6.154 6.712-10.583 8.122s-9.431 3.022-11.453 7.207c-.848 1.755-1.061 3.807-2.164 5.414-1.919 2.8-5.961 3.329-9.217 2.373s-6.035-3.048-9.031-4.64-6.578-2.7-9.754-1.5c-4.315 1.625-6.08 6.624-7.741 10.925a22.306 22.306 0 0 1 -2.772 5.2h100.667a81.454 81.454 0 0 0 .371-15.794z"/><path d="m191.2 213.9c2.218.47 4.475-.376 6.721-.689a14.405 14.405 0 0 1 7.586 1.008 6.183 6.183 0 0 0 2.987.824 4.439 4.439 0 0 0 1.992-.891c4.188-2.914 7.04-7.921 6.714-13.013s-4.189-9.939-9.223-10.772l-3.17.719c1.183 3.984-.7 8.345-3.578 11.34s-6.643 4.947-10.2 7.087c-.983.591-2.088 1.459-1.942 2.6.125.976 1.15 1.587 2.113 1.787z"/><path d="m271.7 248.016a2.184 2.184 0 0 0 1.392-.769 3.038 3.038 0 0 0 .449-1.66 29.29 29.29 0 0 0 -.707-8.451c-.6-2.587-1.567-5.175-1.3-7.818a28.491 28.491 0 0 1 1.425-5.171 13.816 13.816 0 0 0 .373-7.4 8.1 8.1 0 0 0 -4.619-5.556l-3.133.523c1.255 3.545-.909 7.537-3.954 9.744s-6.806 3.112-10.373 4.3c-1.525.51-3.245 1.317-3.571 2.892a5.859 5.859 0 0 0 .478 2.846c1.369 4.451.419 9.256-.745 13.765a7.208 7.208 0 0 1 -.949 2.406 3.1 3.1 0 0 1 -.286.344z"/><path d="m170.431 155.264a96.34 96.34 0 0 1 -8.923 20.465 1.214 1.214 0 0 0 -.234.72c.072.621.927.719 1.547.646l21.824-2.574 3.641-5.818a20.5 20.5 0 0 0 1.826-3.4l-1.426.8-3.793-13.576a14.291 14.291 0 0 0 -7.408-1.694l-6.359 1.859z"/><path d="m129.515 201.586c-1.525-1.453-3.98-1.187-5.986-.543a22.862 22.862 0 0 0 -6.042 2.981l-3.056 2.7a58.86 58.86 0 0 0 -6.987 18.276c-.121.6-.113 1.419.473 1.6a1.283 1.283 0 0 0 .866-.15l9.743-4.193c4.528-1.949 9.216-4.013 12.446-7.736a4.867 4.867 0 0 0 1.093-1.79 5.7 5.7 0 0 0 -.067-2.576q-.438-2.4-.9-4.8a6.8 6.8 0 0 0 -1.583-3.769z"/><path d="m279.134 179.388a17.443 17.443 0 0 0 10.7 2.636 31.146 31.146 0 0 0 10.768-2.9c4.293-1.913 8.389-4.436 12.994-5.375a39.748 39.748 0 0 1 6.64-.594l10.444-.348c4.743-.158 9.664-.36 13.889-2.522a12.307 12.307 0 0 0 6.543-8.249c-1.376-1.077-2.88-2.154-4.556-3.222-20.361-12.979-42.113-19.771-54.147-6.4l-18.078 3.326c-.938.687-1.869 1.382-2.783 2.089l-.828 4.365c.696 6.559 2.935 13.526 8.414 17.194z"/><path d="m253.323 197.921-1.126 13.035 33.931.917 3.28-9.159-5.998-6.857z"/></g><path d="m117.309 204.509a12.033 12.033 0 0 0 3.546-2.886 2.185 2.185 0 0 0 .562-1.536 3.658 3.658 0 0 0 -.958-1.582c-1.293-1.716-1.168-4.085-.868-6.213a59.054 59.054 0 0 1 1.921-8.709l-17.83 9.755q-1.136 1.475-2.136 3.044l3.777 12.658-.938.635a44.548 44.548 0 0 0 12.924-5.166z" fill="#fff"/><path d="m141.274 190.408a5.33 5.33 0 0 0 -1.419 3.725c.31 2.374 3.2 3.406 5.6 3.438a17.886 17.886 0 0 0 13.038-5.5c4.348-4.577 6.029-11.227 10.5-15.682l-1.382-.4c-9.831 2.716-20.171 6.299-26.337 14.419z" fill="#fff"/><path d="m217.772 221.1c1.339-4.307 4.291-7.931 7.532-11.067s6.835-5.906 9.918-9.2c1.706-1.822 3.342-4.107 3.009-6.58-.386-2.865-3.452-4.8-6.342-4.757s-5.547 1.586-7.807 3.388a20.233 20.233 0 0 0 -5.4 6.164 11.5 11.5 0 0 0 -1.222 7.981z" fill="#fff"/><path d="m274.058 236.871c.843.8 1.937 1.306 2.754 2.133 1.837 1.857 1.973 4.992 3.965 6.682a7.485 7.485 0 0 0 5.077 1.319c1.426-.032 3.152-.409 3.587-1.768a3.721 3.721 0 0 0 -.022-1.773l-1.8-10.258a2.712 2.712 0 0 0 -.244-.842 2.818 2.818 0 0 0 -.681-.736 8.39 8.39 0 0 1 -2.9-3.83 7.922 7.922 0 0 1 .507-4.774 25.337 25.337 0 0 1 11.125-13.28l-8.506 1.221c-5.023 1.183-8.794 5.327-11.624 9.642a23.265 23.265 0 0 0 -2.54 4.8 14.71 14.71 0 0 0 -.777 6.626 7.785 7.785 0 0 0 2.079 4.838z" fill="#fff"/><path d="m76.349 247.428c1.14.23 2.287.43 3.44.588h8.576a3.5 3.5 0 0 0 .632-.973l7.066-14.343-5.507-1.832a23.526 23.526 0 0 0 -11.413 5.053z" fill="#fff"/><path d="m343.634 211.224a21.209 21.209 0 0 0 7.407 4.277 4.123 4.123 0 0 0 2.589.216c1.192-.408 1.811-1.689 2.3-2.851q2.087-4.988 3.983-10.053l-2.224-4.069a21.66 21.66 0 0 0 -13.525 5.725c-1.343 1.251-2.608 3.048-2.026 4.788a4.843 4.843 0 0 0 1.496 1.967z" fill="#fff"/><path d="m145.149 218.105a44.573 44.573 0 0 1 21.763-18.217c-.948-1.531-3.184-1.405-4.945-1.034a81.9 81.9 0 0 0 -19.862 6.954c-2.512 1.263-5.07 2.76-6.514 5.172a15.713 15.713 0 0 0 -1.712 6.042 13.289 13.289 0 0 0 -.081 4.451c.759 3.703 9.953-1.073 11.351-3.368z" fill="#fff"/><path d="m467.426 432.281a81.078 81.078 0 0 0 -17.272.084 6.426 6.426 0 0 1 -2.952-.111c-1.618-.6-2.437-2.429-2.667-4.14a42.713 42.713 0 0 0 -.484-5.148c-.9-3.441-4.293-5.769-7.779-6.47s-7.088-.085-10.59.531l-7.056-.339q-.457 10.923-1.836 21.781c.1.055.189.117.289.169 5.873 3.078 12.916.141 19.511-.544a28.172 28.172 0 0 1 14.489 2.364c3.045 1.386 6.049 3.616 6.825 6.869 1.251 5.237-4.2 10.081-9.566 10.5s-10.462-2.1-15.417-4.208c-4.456-1.893-9.194-3.52-14.025-3.2a15.459 15.459 0 0 0 -4.058.834c-.012.07-.023.141-.035.211l-.678.058a11.654 11.654 0 0 0 -6.728 6.419c-.721 1.9-.865 4.044-2 5.726-2.369 3.5-7.626 3.307-11.1 5.715-4.282 2.968-4.843 8.968-5 14.176l-.134 4.527h.1a491.3 491.3 0 0 0 68.367-1.672 3.632 3.632 0 0 0 2.623-1 3.533 3.533 0 0 0 .569-1.807 86.977 86.977 0 0 0 .6-12.234c-.027-1.25-.035-2.637.8-3.572a5.087 5.087 0 0 1 2.038-1.177 67.247 67.247 0 0 0 11.259-5.676 14.072 14.072 0 0 0 4.527-3.975c1.392-2.145 1.646-4.81 1.862-7.359.325-3.844.582-7.992-1.449-11.272-2.623-4.22-8.092-5.555-13.033-6.06z" fill="#f48a4e"/><path d="m397.9 451.919c.063-.046.117-.1.178-.145a2.494 2.494 0 0 1 -.4-1.722c.17-3.779.472-8.147-2.3-10.719-1.814-1.68-4.449-2.055-6.91-2.283-2.176-.2-4.357-.338-6.54-.434-.6 3.78-1.794 7.359-4.38 10.107-4.938 5.246-13.23 5.65-19.006 9.956a8.514 8.514 0 0 0 -3.518 4.862c-.316 1.551.03 3.168-.192 4.736-.369 2.607-2.273 4.765-4.445 6.254s-4.652 2.462-6.943 3.762a27.618 27.618 0 0 0 -6.728 5.395 216.6 216.6 0 0 0 29.385-.932c1-.1 4.35-3.05 5.337-2.876.038.007.068.024.105.033a65.98 65.98 0 0 1 2.485-12.735 10.022 10.022 0 0 1 5.865-6.982 39.765 39.765 0 0 1 10.6-3.863c2.561-.533 5.291-.867 7.407-2.414z" fill="#f48a4e"/><path d="m252.08 457.134a42.156 42.156 0 0 0 -17.08-5.934c-.775 3.66-.245 7.825-.659 11.65a5.444 5.444 0 0 1 -1.12 3.135c-2.231 2.459-6.4.111-9.584 1.037s-4.4 4.691-5.137 7.917l-1.557 6.808.072.011c7.723 1.068 15.649 1.666 23.267.007 2.257-.492 4.466-1.178 6.672-1.862 2.105-.654 4.31-1.368 5.824-2.97a11.365 11.365 0 0 0 2.432-5.306 44.779 44.779 0 0 0 .956-5.553 9.735 9.735 0 0 0 -.647-5.671 9.44 9.44 0 0 0 -3.439-3.269z" fill="#f48a4e"/><path d="m186.678 462.853c1.53-.7 2.007-2.6 2.3-4.253q.571-3.212 1.145-6.422c.283-1.589.518-3.394-.468-4.671a5.843 5.843 0 0 0 -3.355-1.707q-8.483-2.142-17.045-3.947c-5.4-1.137-11.264-2.122-16.227.282a9.434 9.434 0 0 1 -3.3 1.282c-1.682.12-3.179-.974-4.532-1.981a104.807 104.807 0 0 0 -26.329-14.262 10.353 10.353 0 0 1 1.115-2.662c-.679.508-1.352 1.022-2.016 1.535-2.472 1.913-5.082 4.021-5.979 7.015-.981 3.273.333 6.784.1 10.193-.329 4.86-3.883 9.088-8.23 11.287s-9.377 2.647-14.245 2.468c-2.83-.1-5.792-.455-8.114-2.076-1.8-1.255-3.078-3.187-5-4.247-2.681-1.482-6.068-.94-8.84.363s-5.166 3.284-7.839 4.781c-5.439 3.046-12.863 5.046-14.158 11.145-.519 2.448.178 4.985.348 7.483a70.354 70.354 0 0 0 22.778-5.02l1.014 8.695c.211 1.809.483 3.754 1.735 5.077 1.426 1.506 3.693 1.767 5.76 1.936l28.153 2.305c4.622.378 10.334.2 12.491-3.909.992-1.888 1.2-4.543 3.174-5.341a5.3 5.3 0 0 1 2.649-.107 128.113 128.113 0 0 0 37.935-.877 2.05 2.05 0 0 0 2.148-2.474l.091-10.255a2.124 2.124 0 0 1 2.729-2.548q8.692.4 17.365 1.137a5.277 5.277 0 0 0 2.647-.225z" fill="#f48a4e"/><path d="m75.92 420.189a4.926 4.926 0 0 1 -.7-2.023q-1.1-6.627-2.2-13.254a3.533 3.533 0 0 0 -1.013-2.319c-1.091-.848-2.662-.161-3.854.539-1.684.99-9.141 5.952-10.824 6.941a17.4 17.4 0 0 1 3.334 15.553 7.933 7.933 0 0 0 -.6 3.185c.131 1.082 1.08 2.163 2.152 1.968a2.993 2.993 0 0 0 1.444-.942c2.048-1.995 9.985-7.888 12.261-9.648z" fill="#f48a4e"/><path d="m111.16 428.065c2.4-1.3 5.122-1.448 7.889-1.509 1.37-4.165 5.895-7.31 5.618-11.7-.173-2.741-2.347-5.05-4.88-6.111a17.921 17.921 0 0 0 -8.114-.906 59.988 59.988 0 0 0 -17.842 4c2.1-.158 4.193.229 5.515 1.782 2.229 2.622.8 6.572-.407 9.794s-1.629 7.73 1.445 9.278c1.842.927 4.109.209 5.821-.94s3.143-2.705 4.955-3.688z" fill="#f48a4e"/><path d="m43.315 436.491 7.48-3.725a6.387 6.387 0 0 0 2.4-1.706c1.234-1.658.6-3.99-.084-5.939q-1.911-5.451-3.821-10.9l-2.472 1.454c-3.2 1.882-6.837 4.534-6.585 8.239.27 3.968 5.075 7.1 4 10.925a4.09 4.09 0 0 1 -.918 1.652z" fill="#fff"/><path d="m34.755 462.248c1.106-2.466 3.427-4.418 3.783-7.1.519-3.9-3.374-7.363-2.906-11.271.286-2.388 2.062-4.116 4.157-5.466a40.152 40.152 0 0 1 -4.334.856 25.429 25.429 0 0 0 -10.72 4.492s-13.762 4.294-4.814 23.611a9.759 9.759 0 0 0 2.714 3.693 11.625 11.625 0 0 0 4.73 1.871c2.046.451 4.114.8 6.192 1.057.643-3.777-.409-8.161 1.198-11.743z" fill="#fff"/><path d="m213.473 452.022-4.045.347c-3.32.718-5.808 3.681-6.834 6.919s-.824 6.728-.423 10.1a15.816 15.816 0 0 0 1.5 5.743 11.448 11.448 0 0 0 5.829 4.869c.183.076.375.128.561.2a14.944 14.944 0 0 0 .414-5.145 29.4 29.4 0 0 1 1.2-8.7 4.726 4.726 0 0 1 .669-1.518c1.1-1.469 3.281-1.341 5.116-1.325 2.255.021 4.839-.574 5.881-2.574a10.26 10.26 0 0 0 .714-2.583 12.971 12.971 0 0 1 5.093-7.614 79.763 79.763 0 0 0 -15.675 1.281z" fill="#fff"/><path d="m357.254 437.782a2.669 2.669 0 0 0 -1.6.605 2.7 2.7 0 0 0 -.522 1.835l-.279 8.377c-8.123.51-16.527 1.1-23.725 4.9s-12.878 11.751-11.388 19.753a9.736 9.736 0 0 0 3.615 6.237c2.1 1.5 4.818 1.755 7.394 1.918.209.014.419.021.629.034a41.715 41.715 0 0 1 -.436-4.681 10.231 10.231 0 0 1 3.341-7.334c2.55-2.294 6.536-3.718 7.042-7.111.222-1.494-.35-3-.291-4.508.116-2.972 2.673-5.348 5.443-6.432s5.8-1.217 8.719-1.806a28.077 28.077 0 0 0 9.489-3.824 6.092 6.092 0 0 0 2.192-2.047 6.811 6.811 0 0 0 .635-2.445q.3-2.266.592-4.533c-3.629.208-7.25.557-10.85 1.062z" fill="#fff"/></g><g id="Layer_5" fill="#3a3245" data-name="Layer 5"><path d="m127.5 319.661c3.147-2.4.41-7.73-3.374-6.539-5.85 1.987-1.566 10.966 3.374 6.539z"/><path d="m127.819 393.936c3.575 3.645 8.955-2.542 4.853-5.555-3.459-2.887-8.137 2.473-4.853 5.555z"/><path d="m364.247 319.028c3.4 4.744 9.391-.92 5.614-4.939-3.142-3.338-8.567 1.434-5.614 4.939z"/><path d="m358.511 392.722c1.678 4.527 8.807 1.484 6.779-2.858-1.696-4.484-8.797-1.476-6.779 2.858z"/><path d="m126.341 112.708c-4.066-3.871-9.547 2.936-4.714 5.966 3.72 2.366 7.903-2.915 4.714-5.966z"/><path d="m139.793 56.35c-4.933-1.422-6.884 6.02-2.037 7.391 4.772 1.392 6.844-6.141 2.037-7.391z"/><path d="m155.724 31.416c3.572 3.5 8.867-1.839 5.389-5.39-3.47-3.535-8.913 1.936-5.389 5.39z"/><path d="m357.481 118.113c4.782 4.264 9.919-4.389 3.746-6.376l.034.005c-3.651-1.189-6.585 3.744-3.78 6.371z"/><path d="m344.616 65.749c3.691 3.794 9.33-2.613 5.1-5.764-3.575-2.972-8.509 2.534-5.1 5.764z"/><path d="m324.961 33.694c3.47 3.535 8.909-1.936 5.388-5.39-3.571-3.495-8.866 1.84-5.388 5.39z"/><path d="m251.83 110.931c-4.716-14.476-25.35-.493-11.631 8.067-.19 2.815-.206 5.64-.175 8.461.053 4.736 7.161 4.713 7.341 0 .114-2.843.126-5.66.307-8.505 2.969-1.435 4.98-4.829 4.158-8.023z"/><path d="m482.308 433.8c-8.61-7.894-24.072-6.371-34.8-4.2-.522-4.588-1.162-9.245-1.978-13.8a2.483 2.483 0 0 0 -1-1.554c-1.979-2.142-5.36-1.066-8.1-1.445 1.235-11.659-3.219-13.883-14-14.532a1117.867 1117.867 0 0 0 3.187-149.744 3.211 3.211 0 0 0 -2.955-3.13c-12.321-8.2-3.255-28.983-23.051-38.439 3.522-7.483 6.39-12.883-2.8-16.716-3.328-1.963-6.781-3.923-10.318-5.728 6.75-8.852 13.85-17.443 21.351-25.667 7.877-8.636 16.562-16.369 24.729-24.691a3.919 3.919 0 0 0 1.792-3.087 147.556 147.556 0 0 0 -.94-30.526c-1.078-4.024-6.435-5.141-9.478-7.306-34.7-25.879-29.568-63.654-85.947-74.024-10.773-7.934-25.073-11.255-38.45-11.111-4.889-.465-9.372.091-11.826 4.848a889.644 889.644 0 0 0 -91.66 0c-2.225-3.158-4.452-5.145-8.643-4.789-14.6-.594-29.781 2.483-41.83 11.031-56.369 10.83-50.718 47.768-85.7 74.045-3.581 2.386-9.868 3.882-9.84 9.094a172.913 172.913 0 0 0 -.579 28.737 3.952 3.952 0 0 0 1.641 3c9.108 9.267 18.714 17.912 27.389 27.631 8.69 9.735 16.8 19.953 24.506 30.483-1.6 1.567-5.429 3.239-3.974 5.9 1.025 3.635 3.078 7.723 1.223 11.42-3.423 2.292-10.44 3.718-11.666 7.877-1.281 3.092 1.783 6.736-.789 9.644-2.187 3.1-6.267 1.186-8.891 3.716-3.6 3.056-4.342 9.418-4.067 14.405-2.948.21-7.92-.794-8.176 3.379-2.031 43.148-.9 86.614 2.369 129.795-5.209 3.637-19.353 14.349-17.122 21.127.475 2.074 1.107 5.391 2.765 7.276-6.359 4.471-14.607 7.848-19.357 14.039-1.631 4.958 3.564 9.993 6.025 13.949-8.919 1.7-27.339 8.945-27.2 19.241.516 6.761 2.28 17.467 8.508 20.724 12.943 4.584 27.578 3.916 40.72-.235a15.088 15.088 0 0 1 3.563 1.125 19.577 19.577 0 0 0 1.092 8.066c-2.431 6.212 34.174 5.68 38.989 6.177 8.059.833 14.308-.071 14.892-9.788 2.85 1.989 6.906 1.207 10.177 1.247 8.019-.008 16.038-.205 24.052-.482 13.007 1.491 11.631-6.191 10.658-16.476 6.289.506 12.627 1.647 18.912 1.771 3.431.956 5.461-2.754 6.72-5.814q3.608.018 7.216.025c-3.58 22.121 10.4 24.62 28.181 25.409a62.617 62.617 0 0 0 25.865-4.7c4.267-1.78 4.641-3.025 4.982-7.526.328-4.316.451-9.188-.819-13.41 20.738-.251 41.482-.514 62.2-1.418-3.112 3.986-2.693 10.023-1.729 15.076 1.729 9.5 9.4 10.156 17.823 10.849 11.531.65 24.014.531 34.85-3.758.737 13.634 25.618 10.33 35.2 10.407 14.156 2.232 29.172-.793 43.539-.79 5.342-.585 17.434 2.161 15.75-6.642.39-4.028 1.617-11.174-.771-15.2 8.921-2.169 18.106-6.936 21.129-15.561-.059-5.909-.623-13.79-3.539-19.224zm-36.458 2.771c3.9-2.395 35.823-4.6 30.556 4.267-8.144 9.675-23.048 10.774-34.82 9.674-16.486-2.084-5.134-11.828 4.264-13.945zm-16.377-17.078c3.09-.209 6.178-.244 9.267-.153-.084 3.11-.281 6.208-.434 9.314a78.245 78.245 0 0 0 -19.213 2.22q.594-5.115 1.148-10.239c3.075-.267 6.167-.935 9.232-1.146zm-29.153 18.524c-2.594-5.778-15.423-4.08-21.044-4.934q2.135-17.882 3.712-35.824 16.662.093 33.327-.021c-1.954 17.4-2.453 35.15-6.342 52.149a77.107 77.107 0 0 0 -9.535.3c.626-3.871 1.306-8.362-.118-11.67zm-49.145 4.943c.059 1.4.032 2.8.152 4.183a61.483 61.483 0 0 0 -11.2 1.827c9.058-65.206 14.863-131.405 12.1-197.276q14.316 0 28.632-.006a1227.213 1227.213 0 0 1 -7.741 181.366c-6.443.355-14.354-.363-20.21 2.765-2.627 1.134-1.794 4.83-1.733 7.141zm-224.875-33.197c-2.079-2.959-5.978-4.156-10-4.521a1282.377 1282.377 0 0 1 -4.824-153.52h28.628c-2.637 63.182 2.682 126.658 10.959 189.264a8.2 8.2 0 0 0 -.672.522c-3.049-5.171-18.758-13.415-27.772-16.631 3.621-3.851 7.07-10.277 3.681-15.114zm40.233-310.163q26.785-1.01 53.581-1.447c-10.688 8.737-8.3 22.692-15.993 27.229-15.031 2.022-30.556-.453-45.649-1.294-2.39-8.079-.52-16.022-.507-24.152 2.848-.136 5.727-.198 8.568-.336zm215.015 114.535a18.638 18.638 0 0 0 -1.482 5.843c-9.65-3.08-20.145-4.574-29.7-7.836-1.383-1.476-.431-5.488.263-8.375 10.769 2.043 20.916 4.058 31.579 6.4-.146 1.308-.408 2.633-.66 3.968zm-251.581 22.332c-2.7-2.24-5.313-5.314-8.342-7.269a50.476 50.476 0 0 1 4.837-5.754c9.3 6.063 18.182 12.529 27.107 19.045-11.862 5.211-14.94 1.483-23.602-6.022zm194.521 7.471a68.263 68.263 0 0 1 -5.093-6.332c7.875-6.193 15.338-12.835 23.695-18.373q2.075 2.652 4.16 5.3c-7.334 6.779-15.65 12.321-22.762 19.405zm-104.1-.783c-4.332-4.255-10.1-7.1-14.965-10.743-3.525-2.582-6.984-6.183-10.852-8.553 1.454-2.039 3.354-4.576 4.318-4.609 7.839 6.569 17.738 12.063 25.719 18.721-1.418 1.721-2.889 3.414-4.225 5.184zm97.769-36.755c-1.547-1.143-3.107-2.283-4.727-3.316a30.845 30.845 0 0 0 8.952-10.7 18.616 18.616 0 0 0 4.076 3.194 29.663 29.663 0 0 1 -8.301 10.822zm-127.563 1.591c-11.877-3.645-8.534-13.171 2.817-13.128 5.89-.426 14.841.516 19.27 4.99 7.283 7.357-9.351 9.283-13.488 10.206a40.463 40.463 0 0 1 -8.599-2.068zm92.552-45.928c7.014-.52 21.221 4.3 19.537 13.3-8.327 6.482-21.621-.547-24.979-9.456.333-1.934 1.922-3.466 5.442-3.844zm-14.258 46.787c-2.884-.2-6.244-.1-9.045-.83-3.844-.585-3.805-2.6-3-5.993 1.417-1.806 4.073-1.336 6.068-1.492 7.75-.112 16.567-1.149 23.213 3.533-.293.895-.685 1.813-.81 2.231-1.088 3.632-2.92 3.049-6.448 2.984q-4.991-.091-9.978-.433zm-44.765 4.543c-11.688-3.38 8.2-21.441 13.524-23.55 3.684-2.071 13.433-6.177 14.55.532-.168 10.711-17.583 24.464-28.074 23.018zm27.146-44.273c4.809-.413 9.742.492 14.524.42a37.9 37.9 0 0 1 -.162 7.256 160.283 160.283 0 0 0 -31.264 3.56 26.275 26.275 0 0 1 -.8-7.347c.042-.062.081-.127.122-.191 5.861-1.35 11.489-3.175 17.58-3.698zm41.363 30.961a2.288 2.288 0 0 0 -.227-.529c.039-4.113 3.474-9.058 6.034-11.316 3.547-3.129 14.927-10.53 18.264-4.195 5.466 10.375-21.429 25.616-24.071 16.04zm48.014-32.523c-28.952 10.391-47.344-14.609-24.474-15.142a43.114 43.114 0 0 1 21.151 5.924c3.537 2.06 9.432 6.131 3.323 9.218zm-112.245 1.5c-3.532 5.3-11.653 4.636-17.255 6.041-6.815 1.288-14.508 3.311-20.955.092.956-13.021 40.827-14.581 38.209-6.137zm-44.946-10.223c.54 3.192 1.5 6.486.8 9.7a142.928 142.928 0 0 0 -36.518 9.9 49.426 49.426 0 0 1 -1.612-10.494c11.718-4.981 24.323-9.41 37.33-9.11zm152.863 34.26c-3.832-1.5-9.861-3.313-11.04-7.688-1.233-4.86 4.106-8.152 8.12-8.819 7.424-2.285 38.365 6.676 25.758 17.216-6.656 3.789-16.186 1.605-22.838-.713zm-198.73 26.188c-1.733-9.967 30.275-22.51 37.388-17.438 1.4 1.595-.228 4.369-1.089 5.7-4.515 6.971-14.65 10.3-22.272 12.114-2.659.627-12.383 3.421-14.027-.38zm92.728 3.46c10.534-5.337 23.866-6.6 35.582-4.742 2.292.529 3.017.481 3.367 3.106.265 8.036-15.44 7.772-21.153 7.866-3.17.049-22.172-.446-17.796-6.234zm47.788 9.076c-4.165-.466-2.635-3.969-1.311-6.478 2.379-4.852 8.486-8.529 12.413-10.975 4.183-2.5 18.35-9.032 21.305-2.51 2.189 9.63-24.376 20.044-32.411 19.959zm-131.735-42.578c7.208-6.413 15.19-9.827 24.715-9.9 4.94.329 18.174 1.735 10.442 8.8-4.552 4.459-34.96 9.997-35.157 1.1zm14.537 34.478c6.955-2.667 14.162-6.345 18.318-12.795.511 1.991 1.059 3.916 1.631 5.809-6.7 9.327-18.569 15.531-30.225 14.724q-2.676-1.944-5.414-3.805c5.393-.371 11.097-2.182 15.69-3.933zm118.276 14.515c13.8-1.763 27.55-8.179 36.332-19.235 6.282 15.377-21.506 22.618-32.3 25.093-1.33-1.955-2.662-3.921-4.032-5.858zm-10.669-99.78c-16.124-.176-32.114-.81-48.249-.74-3.667-8.148-2.2-18.564.747-27.119a25.141 25.141 0 0 1 17.423-12.053c27.474-3.807 34.46 15.81 30.079 39.912zm-156.225 73.434c3.7-1.605 7.51-2.95 11.2-4.552 2.419-1.049 1.571-1.058 2.788.595a31.069 31.069 0 0 1 2.346 3.683c-9.727 5.074-19.484 10.031-29.28 14.962-1.559-2.109-3.076-4.215-4.459-6.436 5.928-2.34 11.608-5.74 17.405-8.252zm53.721 33.441c-.215-2.427-.691-6.377 2.144-7.064 2.974-1.384 8.931-.849 12.133-1.039 2.691-.16 8.743-1.415 11.237-.4 2.353.626 1.557 6.247 1.984 8.5zm70.831.006c-.161-3.14-.551-6.252-.7-9.387 11.225-.454 22.618-.993 33.759.733q.29 4.329.605 8.657zm134.06-20.635c-.005.017-.009.035-.013.052l-.107-.079zm-44.844-124.757c4.116 5.078 4.021 18.869 1.623 24.533-11.535 2.863-24.3.775-36.156.707-5.176-.166-11.554.4-14.5-4.663-.705-8.654-3.48-16.824-10.424-22.317q29.74.515 59.457 1.74zm-171.956 151.776q92.061-.011 184.122-.022c.91 20.427 1.092 40.922.677 61.417-61.828 1.229-123.69.821-185.525 1.4q-.621-31.447.726-62.795zm220.654-6.362c-7.013-5.026-13.5-9.3-19.981-14.844 1.376-2.1 2.892-4 4.416-6 8.784 6.775 17.837 12.726 26.776 19.3a18.088 18.088 0 0 0 -1.286 1.547zm33.234 6.322c3.866.056 7.57-.15 11.456.14q1.4 31.4.966 63.007c-10.944-.051-21.888-.046-32.831-.044.546-21.033.538-42.108-.595-63.1zm-21.119 84.421q.3-7.537.527-15.09c10.974.057 21.95.069 32.923-.031q-.665 35.084-3.5 70.091c-11.1-.049-22.2-.043-33.307-.042q2.264-27.42 3.357-54.928zm-69.048-242.874c-27.106-.789-54.364-2.416-81.391-1.44-24.092-.274-48.2.49-72.276 1.517-2.567-.584-5.293-2.018-6.63-4.313a83.56 83.56 0 0 1 4.637-25.141c53.517-1.825 107.147-1.249 160.639 1.051 3.638 11.518 6.5 26.782-4.979 28.326zm-197.471 94.728c4.428-2.467 9.076-5.718 13.669-7.748 1.591.1 2.8 2.311 3.61 3.375.474.623 1.9 2.086 1.851 2.753-8.946 8.071-19.854 13.792-30.414 19.5-1.325-2.665-2.726-5.221-4.171-7.849 5.211-3.236 10.205-6.838 15.455-10.031zm-35.565 48.156c11.276-.407 22.92.933 34.182.512.886 2.31.441 6.077.839 8.7-13.227-.058-26.439.117-39.667-.083.4-3.739 1.147-8.775 4.646-9.129zm-6.036 179.859q-.96-9.349-1.8-18.726 16.2.127 32.4.016.362 3.99.744 7.97c-10.073.863-22.016 3.958-31.344 10.74zm26.251-164.246h.325c-1.191 20.931-1.415 41.99-.926 63.059-10.709 0-21.419-.006-32.128.043q-.666-31.59.668-63.1zm-.437 69.292c.695 23.4 2.228 46.792 4.245 70.017q-16.2 0-32.4.04c-1.979-23.294-3.355-46.687-3.982-70.087 10.71.095 21.423.085 32.135.03zm-25.54 104.811c3.42-12.88 56.617-22.61 38.235-4.614-7.083 6.549-18.539 9.24-27.885 9.943-4.056.305-13.739 1.354-10.35-5.329zm74.477-105.139c61.753-.637 123.514-.549 185.264-1.5-.608 23.441-1.979 46.87-3.913 70.189-59.11 1.171-118.253.833-177.37 1.358-2.005-23.291-3.381-46.67-3.981-70.047zm254.606-86.544c-1.878 21.673-22.207 3.978-21.737-9.117-.545-7.536 3.5-16.723 12.27-11.261 6.608 4.113 9.961 12.849 9.467 20.378zm-12.249-36.943c.656 1.792-1.574 6.057-2.757 8.537-.1 0-.206.007-.307.015-6.322-4.841-14.64-7.111-21.194-11.757a57.9 57.9 0 0 1 2.323-8.243c4.734 2.271 9.554 4.348 14.17 6.89 1.424.788 7.224 3.082 7.765 4.558zm8.426-111.982a72.272 72.272 0 0 0 13.695 12.552c-8.235-.645-16.478-1.2-24.714-1.778-4.052-.286-4.042 6.042 0 6.314 11.053.745 22.105 1.625 33.166 2.255-.062 5.511.419 11.206-1.114 16.582-4.8 2.911-12.292 1.273-17.878 1.484-6.87-.151-14.031-1.044-20.969-.865.6-34.127-9.473-16.577-18.009-53.848 8.246.131 16.476.5 24.711.975a140.725 140.725 0 0 0 11.112 16.332zm-17.543-26.26c.863 1.223 1.694 2.466 2.511 3.717-7.579-.674-15.255-.784-22.847-.9-4.314-11.381-9.5-23.179-17.4-32.4 15.952 4.467 28.647 16.096 37.736 29.583zm-44.262-27.37c8.836 9.766 13.954 22.262 18.512 34.457 3.262 9.719 5.077 20.118 10.733 28.846a107.366 107.366 0 0 0 -25.7-.591c-2.489.3-3.6 4.2-.65 4.8 9.17 2.432 19.754-.45 28.63 2.727 4.149 2.25 4.47 8.515 4.91 12.739.413 3.8 2.227 11.263-2.4 12.9h-29.854c-2.391-.587-4.684-1.252-5.5-3.984-2.176-37.969-3.941-87.345-42.329-107.545a2.659 2.659 0 0 1 1.081-1.22c15.689-.201 31.812 5.064 42.567 16.871zm-100.567-13.8c15.227.178 30.453.573 45.651 1.565 16.97 9.162 27.532 20.893 33.218 39.608q-78.064-3.921-156.28-1.349c6.437-14.046 16.015-32.285 31.047-38.208 15.432-1.028 30.898-1.43 46.364-1.611zm-61.418-3c1.138-.048 2.278-.065 3.417-.068a2.823 2.823 0 0 1 1.044 1.1c-38.189 20.414-40.754 69.574-42.279 107.668-.819 2.731-3.124 3.393-5.524 3.985h-29.833c-4.509-1.6-2.868-8.462-2.481-12.168.419-4.282.667-11.268 4.987-13.473 8.993-3.033 19.377-.343 28.629-2.728 2.929-.6 1.862-4.5-.649-4.8a107.472 107.472 0 0 0 -25.691.589c6.414-9.962 7.786-22.04 12.217-32.856 8.918-25.607 26.916-47.237 56.163-47.245zm-62.1 22.151a67.522 67.522 0 0 1 16.018-7.431c-6.767 8.113-11.148 17.847-15.177 27.533-7.209.3-14.465.573-21.659 1.229 5.701-8 12.547-15.912 20.813-21.327zm-39.257 48.761c5.517-6.533 9.668-13.96 14.228-21.136 7.846-.49 15.687-.977 23.539-1.321-3.644 10.741-5.339 22.589-12.667 31.651-8.919 7.936-6.776 20.554-6.9 31.445-11.014-.247-22.01-.779-33-1.506-3.182-.2-5.712-.327-8.019-1.926a136.312 136.312 0 0 1 .857-18.332c11.134-.631 22.258-1.519 33.384-2.268 4.035-.271 4.058-6.6 0-6.314-8.236.582-16.48 1.133-24.714 1.778a72.162 72.162 0 0 0 13.292-12.071zm-58.636 366.009c5.281-6.452 19.381-11.32 27.708-11.511 12.458-1.411 27.286 5.551 9.629 14.467-5.314 2.801-41.006 8.76-37.337-2.956zm47.845 9.591c-3.2 12.447-29.6 10.747-39.561 8.866-4.653-.363-6.754-2.884-7.735-7.367 12.218 4.331 37.713 1.754 47.336-7.228a24.869 24.869 0 0 1 -.04 5.729zm-11.108-34.7c-2.977 1.746-7.1 3.252-9.984 5.625a33.887 33.887 0 0 1 -5.131-7.362c9.689-6.422 19.02-12.738 29.4-17.851q.49 5.069 1.016 10.127-7.55 4.884-15.301 9.454zm57.8 53.7c-.825 5.5-13.375 2.469-17.523 2.683-8.2-.393-16.328-1.362-24.5-2.069-.519-9.47.738-12.485 10.421-10.541 10.842.452 21.548 2.321 32.32 3.4a27.015 27.015 0 0 1 -.716 6.519zm-24.624-17.844c-8.879-3.035-18.04-12.536-10.276-20.885 10.162-7.32 35.351.919 37.719 14.031 1.989 13.824-19.956 9.411-27.443 6.854zm30.69-20.384c-5.339-4.56-8.653-3.752-3.8-11.518 4.656-1.179 14.686 6.131 19.281 8.368 7.134 3.7 11.673 6.033 5.8 14.376-7.068-3.763-14.159-7.553-21.284-11.226zm39.187 32.076a1.96 1.96 0 0 0 -.44-.038l-.012-.064c-9.215.649-18.512.461-27.75.718-1.283.018-5.733.819-6.737.088-1.287-.939-.721-5.142-.8-6.676 1.848-5.571 29.793-2.718 35.641-2.289.129 2.751.124 5.513.098 8.261zm25.1-14.331c-7.855-1.087-15.807-1.653-23.695-2.536-5.115-.409-13.475.773-10.27-7.153 1.764-8.391 18.519-4 24.208-3 2.873.476 8.289.467 10.533 2.355 1.334 1.117.74 8.756-.772 10.334zm64.888 1.236c-6.2 6.217-40.531 5.984-42.666-4.522 9.87-2.823 35.249-3.285 43.032 3.594q1.581-.36-.362.928zm1.817 13.626a58.686 58.686 0 0 1 -29.218 4.252c-8.851-.792-18.724-2.734-17.517-14.069 10.081 7.487 35.608 9.39 46.728 3.036a60.859 60.859 0 0 1 .012 6.781zm65.861-21.995c-21.644.813-43.38.6-64.992 1.267-14.244-6.6-34.771-8-48.4-1.816a12.966 12.966 0 0 0 -3.478 1.816q-3.645-.009-7.292-.025c1.428-9.18-6.188-11.813-13.7-12.711-3.773-.676-10.967-2.366-17.616-2.569q-2.536-20.8-4.45-41.746c58.769-.58 117.544-.545 176.31-1.455-1.654 19-3.661 37.979-6.265 56.876-3.317-.295-6.927.26-10.113.363zm50.967 19.079c-.474 4.175-3.479 4.457-6.952 5.13a94.784 94.784 0 0 1 -17.794 1.693c-5.514-.333-11.845.275-17.074-1.6-1.958-1.027-3.322-4.463-3.713-7.973 14.212 6.371 30.675 4.788 45.626 1.631-.026.371-.047.745-.089 1.119zm.52-11.014c-8.082 5.9-24.68 6.219-34.388 4.581-6.185-.621-10.071-3.546-3.106-7.593 4.113-4.144 45.372-8.887 37.498 3.012zm-4.391-13.011a61.037 61.037 0 0 0 -7.1-.68c-.4-2.083-1.014-4.283-.339-6.533 11.46-1.234 23.144-1.562 34.579.192 2.468.416 1.419-.226 1.923 2.12.458 2.138-.4 5.53-.727 7.657a128.955 128.955 0 0 1 -18.5 1.893c-2.319-2.731-6.213-4.08-9.832-4.649zm43.34 32.471c0 1.349.016 2.706.066 4.059-6.514.652-12.653.31-19.093.2-8.036-.241-13.785-.783-11.511-10.939 9.81 3.534 20.6 2.446 30.671 1.8a28.692 28.692 0 0 0 -.125 4.88zm-18.892-11.219c-3.678-.353-15.927-1.34-10.367-7.434 7.021-5.668 17.836-5.366 26.534-6.031 6.7.138 14.89.171 20.247 4.641 4.974 8.865-31.392 9.914-36.414 8.824zm69.438 5.817c-.012 1.7-.041 3.406-.02 5.107-13.88.439-27.707 2.387-41.566 3.114a51.41 51.41 0 0 1 -1.153-6.794c14.03-3.112 28.455-4.635 42.77-2.525-.008.326-.028.691-.031 1.098zm9.991-14.184c-5.5 2.452-11.666 3.242-17.636 3.358-6.359.049-18.839.928-17.981-8.612 14.167 4.575 34.3 2.06 45.8-7.747.172 1.572.162 3 .393 4.723-3.124 3.389-6.182 6.321-10.576 8.278z"/></g></svg>