<svg height="512" viewBox="0 0 500 500" width="512" xmlns="http://www.w3.org/2000/svg"><g id="Layer_4" data-name="Layer 4"><path d="m69.859 262.422 351.375-1.343s-.463 166.032-9.262 204.947c-102.9 6.827-214.169 6.007-331.114 0 0 0-16.498-117.35-10.999-203.604z" fill="#f7978d"/><path d="m410.4 261.12q-3.36 26.221-6.721 52.443c-2.354 18.363-5.372 38.143-18.408 51.29-17.271 17.425-48.529 16.817-63.112 36.553-26.172 35.421-147.957 13.17-160.83 9.8-18.4-4.816-32.31-19.465-48.487-29.471-3.221-1.992-6.739-3.86-10.527-3.859-3.127 0-6.125 1.284-9.245 1.49-7.483.5-13.969-5.188-18.285-11.321-1.422-2.021-2.728-4.144-4.044-6.255 3.443 56.754 10.117 104.235 10.117 104.235q75.528 3.88 147.677 4.671l32.246.126c52.069-.071 102.574-1.571 151.191-4.8 8.8-38.915 9.262-204.947 9.262-204.947z" fill="#bf4c4c"/><path d="m69.033 338.354 273.141 10.542v-19.547h-273.141z" fill="#bf4c4c"/><path d="m75.292 414.861 262.732 10.541v-19.547h-262.732z" fill="#bf4c4c"/><path d="m62.624 130.653h372.449v-29.637s-23.284-12.816-34.314-34.8-33.544-48.743-107.014-51.387h-94.969s-69.36-1.952-94.993 38c0 0-24 38.276-43.364 47.733 0 .004-5.497 19.2 2.205 30.091z" fill="#f7978d"/><path d="m111.809 45a168.787 168.787 0 0 0 45.2 5.8c45.142 0 81.737-15.545 81.737-34.721 0-.416-.04-.829-.074-1.242h-37.913s-59.915-1.688-88.95 30.163z" fill="#ffebe8"/><path d="m402.743 66.215a80.469 80.469 0 0 0 -14.452-20.659c-1.46 9.206-7.47 18.108-15.327 23.533-11.953 8.252-26.978 10.368-41.417 11.949-43.176 4.727-86.7 6.716-130.085 4.7-8.193-.381-17.267-1.31-22.759-7.4-4.37-4.848-5.348-11.855-5.227-18.38a71.838 71.838 0 0 1 7.553-30.7c-11.5 12.409-15.347 29.876-18.748 46.45q-2.718 13.251-5.437 26.5c-1.5 7.3-2.986 14.96-.887 22.114a18.771 18.771 0 0 0 3.318 6.331h21.825c3.255-4.231 5.465-9.963 7.932-14.813 4-7.858 10.506-14.806 18.9-17.511 4.7-1.514 9.707-1.64 14.639-1.752l21.827-.5c8.833-.2 18.841.073 24.79 6.6 3.708 4.07 4.972 9.736 6.123 15.119.954 4.46 2.03 9.11 4.518 12.851h18.471c1.187-4.081.042-9.162.3-13.663.451-7.946 6.106-15.144 13.431-18.258s15.982-2.376 23.119 1.148c2.829 1.4 5.559 3.327 6.974 6.146a15.008 15.008 0 0 1 1.332 5.927c.348 6.111-.635 12.879.493 18.7h93.116v-29.631s-23.293-12.816-34.322-34.801z" fill="#bf4c4c"/><path d="m277.627 111.432c-4.86-12.48-15.93-15.8-25.209-16.186a27.046 27.046 0 0 0 -26.718 18.137c-.023.066-.045.132-.067.2-2.22 6.607-2.879 13.63-3.2 20.593a8.515 8.515 0 0 0 .474 4.016c1.352 2.9 5.2 3.37 8.4 3.431q23.918.459 47.84.132c1.571-10.071 2.179-20.827-1.52-30.323z" fill="#d1e3ed"/><path d="m192.324 13.365a12.031 12.031 0 0 0 -5.505-.651c-14.806.713-30.15 5.568-39.9 16.733a67.2 67.2 0 0 0 -7.231 10.562c-9.727 16.714-22.466 55.4-22.466 55.4-5.258 2.738-7.348 9.16-8.1 15.04a62.58 62.58 0 0 0 -.293 13.094c.135 1.631.4 3.4 1.6 4.522 1.322 1.242 3.334 1.287 5.148 1.259l34.186-.525a4.472 4.472 0 0 0 3.022-.792 4.187 4.187 0 0 0 1.041-2.662 88.542 88.542 0 0 0 .27-11.336 134.661 134.661 0 0 1 19.378-70c5.015-8.273 11-16.074 18.538-22.138 1.391-1.12 2.947-2.367 3.178-4.138a4.5 4.5 0 0 0 -2.866-4.368z" fill="#d1e3ed"/><path d="m192.324 13.365a12.031 12.031 0 0 0 -5.505-.651c-14.806.713-30.15 5.568-39.9 16.733a67.2 67.2 0 0 0 -7.231 10.562c-1.568 2.694-3.215 5.962-4.874 9.545a163.946 163.946 0 0 0 34.973.979c1.171-2.207 2.388-4.389 3.683-6.527 5.015-8.273 11-16.074 18.538-22.138 1.391-1.12 2.947-2.367 3.178-4.138a4.5 4.5 0 0 0 -2.862-4.365z" fill="#fff"/><path d="m389.126 105.149c-.256-2.8-.591-5.678-1.969-8.125-1.209-2.146-3.13-3.792-4.609-5.763-2.538-3.382-15.491-43.7-25.656-56.494-19.251-24.237-56.054-22.145-56.054-22.145s34.063 33.669 38.292 52.4 3.8 38.135 4.437 57.322c.069 2.086.256 4.409 1.8 5.814 1.4 1.278 3.482 1.382 5.38 1.413q18.033.289 36.07.032a3.96 3.96 0 0 0 1.891-.342c1.212-.674 1.369-2.324 1.366-3.71q-.017-10.217-.948-20.402z" fill="#d1e3ed"/><path d="m382.368 261.645-36.252-.859c8.388 66.722-5.361 133.921-11.216 200.9-.219 2.509-.331 5.322 1.375 7.216s4.559 2.154 7.13 2.223c5.536.15 16.244-1.084 22.388-1.869a6.476 6.476 0 0 0 5.586-5.155c2.64-13.784 10.019-60.8 12.436-165.495.185-7.854-1.447-36.961-1.447-36.961z" fill="#d1e3ed"/><path d="m108.638 261.645 38.65-.859c-8.942 66.722 5.716 133.921 11.958 200.9.233 2.509.353 5.322-1.466 7.216s-4.86 2.154-7.6 2.223c-5.9.15-17.319-1.084-23.869-1.869a6.744 6.744 0 0 1 -5.955-5.155c-2.815-13.785-10.683-60.8-13.26-165.495-.196-7.854 1.542-36.961 1.542-36.961z" fill="#d1e3ed"/><path d="m387.157 97.024c-1.209-2.146-3.13-3.792-4.609-5.763-1.15-1.532-4.442-10.656-8.642-21.36-8.308 6.622-22.127 5.648-32.223 10.8 1.511 13.768 1.423 27.76 1.884 41.638.069 2.086.256 4.408 1.8 5.814 1.4 1.278 3.482 1.382 5.38 1.413q18.033.289 36.07.032a3.96 3.96 0 0 0 1.891-.342c1.212-.674 1.369-2.324 1.366-3.71q-.015-10.213-.946-20.4c-.258-2.794-.593-5.675-1.971-8.122z" fill="#8da8c6"/><path d="m195.166 17.814c-14.515 4.905-27.117 14.951-36.2 27.341-9.821 13.4-15.712 29.41-18.669 45.762-.89 4.918-1.55 9.969-3.71 14.477s-6.182 8.484-11.148 9.052c-4.591.525-9.075-1.888-13.693-1.736a12.447 12.447 0 0 0 -2.9.459 62.629 62.629 0 0 0 -.018 10.376c.135 1.631.4 3.4 1.6 4.522 1.322 1.242 3.334 1.287 5.148 1.259l34.186-.525a4.471 4.471 0 0 0 3.022-.792 4.187 4.187 0 0 0 1.041-2.662 88.542 88.542 0 0 0 .27-11.336 134.661 134.661 0 0 1 19.378-70c5.015-8.273 11-16.074 18.538-22.138 1.365-1.106 2.889-2.334 3.155-4.059z" fill="#8da8c6"/><path d="m258.342 95.928a27.168 27.168 0 0 1 9.622 13.286 16.66 16.66 0 0 1 .382 10.208c-2.578 7.849-12.263 10.822-20.519 10.546s-16.66-2.591-24.65-.492c-.155.041-.309.091-.464.135q-.172 2.282-.277 4.563a8.528 8.528 0 0 0 .474 4.016c1.352 2.9 5.2 3.37 8.4 3.431q23.918.459 47.84.132c1.571-10.069 2.179-20.825-1.52-30.321-3.857-9.895-11.614-14.024-19.288-15.504z" fill="#8da8c6"/><path d="m371.379 463.981c1.941-10.307 6.445-38.889 9.654-95.625a64.991 64.991 0 0 1 -22.426 14.181c-5.111 1.9-10.437 3.14-15.645 4.733-2.77 24.759-5.935 49.522-8.062 74.255-.219 2.552-.33 5.413 1.375 7.338s4.559 2.191 7.13 2.261c5.536.152 16.244-1.1 22.388-1.9a6.52 6.52 0 0 0 5.586-5.243z" fill="#8da8c6"/><path d="m159.246 461.685c-5.129-55.028-15.927-110.2-14.661-165.145a682.582 682.582 0 0 0 -7.337 85.85c-.053 2.441-.307 5.288-2.359 6.611l-24.089-7.682c3.344 48.362 7.634 73.351 9.56 82.781a6.744 6.744 0 0 0 5.955 5.155c6.55.785 17.967 2.019 23.869 1.869 2.741-.069 5.794-.341 7.6-2.223s1.695-4.707 1.462-7.216z" fill="#8da8c6"/><path d="m82.39 232.333 7.9 28.453h330.944l3.423-8.986-17.68-26.886 4.465-9.686-21.37-40.459-84.74-20.558h-196.682l-19.811 29.712s-8.968 20.168 3.965 32.129l3.241 4.521z" fill="#a1d0ff"/><path d="m49.682 376.571 21.507 16.094 3.274 16.864 15.829-6.578 21.027 35.171 31.829-15.758 11.77 17.739 44.372-1.981 17.152 16.218-20.923 26.031-16.439-3.846s-3.1 11.391-11.99 11.7-15.971-9.374-15.971-9.374-23.579-5.611-38.358 0c0 0-20.3 14.635-43.728 6.2 0 0-16.529-8.363-32.838-6.2l-19.76-13.671s-7.235-6.952 5.009-21.12l13.5-14.1s-11.6-6.009-9.1-14.329 12.856-29.65 23.838-39.06z" fill="#a1d0ff"/><path d="m301.829 452.237c9.43 18.049 13.509 20.183 24.518 30.524l41.938-5.783 6.534 1.877 12.66-6.435s8.936 13.839 19.449 15.817 22.851-11.259 22.851-11.259l34.433 8.079 20.888-38.837-20.884-12.7v-21.2l-39.555-22.1-23.952 49.11-25.886-17.954-28.888 28.7-11.153-5.815z" fill="#a1d0ff"/><g fill="#668dd3"><path d="m411.442 215.228-21.37-40.459-33.132-8.038.093 8.212c-2.847 1.678-4.136 5.283-3.836 8.574s1.926 6.313 3.785 9.045c3.844 5.649 10.431 10.935 16.915 8.78 5.915-1.967 9.056-9.414 15.2-10.439a8.454 8.454 0 0 1 9.414 7.209 10.557 10.557 0 0 1 -.893 5.078c-3.076 7.32-12.686 11.054-19.9 7.731-2.934-1.352-6.045-3.722-9.028-2.481-3.416 1.423-3.446 6.1-3.963 9.767-.792 5.615-4.037 10.68-8.217 14.512s-9.257 6.548-14.434 8.861c-2.735 1.222-5.641 2.44-7.476 4.807-3.056 3.945-2.1 9.513-.87 14.4h87.5l3.423-8.986-17.68-26.886z"/><path d="m328.177 218.48c-5.642 7.535-13.439 13.65-22.482 16.262l8.455 3.5c3.844 1.588 7.793 3.2 11.951 3.335s8.634-1.524 10.716-5.126c1.305-2.26 1.525-4.966 1.713-7.569q1.362-18.75 2.723-37.5s-7.434 19.564-13.076 27.098z"/><path d="m319.289 176.531a48.529 48.529 0 0 0 -13.946-14.507l-5.23 4.3a35.994 35.994 0 0 1 2.538 11.149 15.579 15.579 0 0 1 -.827 6.9 7.381 7.381 0 0 1 -4.967 4.556c-2.405.526-4.833-.521-7.2-1.2s-5.26-.87-6.952.919a5.261 5.261 0 0 0 -.829 5.246 13.992 13.992 0 0 0 3.063 4.621q2.758 3.089 5.781 5.928c2.833 2.659 6.243 5.291 10.123 5.087 2.5-.132 4.778-1.442 6.864-2.831a68.593 68.593 0 0 0 8.7-6.873c2.737-2.545 5.356-5.475 6.289-9.095 1.254-4.851-.764-9.95-3.407-14.2z"/><path d="m270.265 221.4c1.564-1.416 3.477-2.684 5.586-2.626 1.238.034 2.424.525 3.659.6 2.576.163 4.988-1.538 6.381-3.711 2.461-3.84 2.21-8.932.483-13.153s-4.742-7.766-7.708-11.231q-2.383-2.785-4.766-5.57l-3.18 1.915a48.788 48.788 0 0 1 -1.8 12.032c-1.259 3.867-3.613 7.53-7.146 9.544s-8.343 2.035-11.433-.609a123.53 123.53 0 0 0 5.448 31.52c5.604-5.568 8.611-13.4 14.476-18.711z"/><path d="m304.63 260.353c1.861-1.457 2.066-4.176 1.874-6.532-.813-10-5.8-19.12-10.679-27.89-1.74-3.127-3.647-6.422-6.813-8.089l-3.911 1.1a24.837 24.837 0 0 1 -9.071 26.31c-4.117 2.977-9.044 4.576-13.875 6.151-2.215.723-4.552 1.532-6.031 3.332-1.439 1.754-1.565 4.748.25 6.05h47.56a4.485 4.485 0 0 0 .696-.432z"/><path d="m248.546 197.3c.764.773 2.063.244 2.993-.319a44 44 0 0 0 8.9-6.456 14.816 14.816 0 0 0 4.6-9.73c.063-2.735-.889-5.379-1.829-7.949l-1.32-1.987a16.227 16.227 0 0 1 -17.29 5.028 97.948 97.948 0 0 1 3.438 19.772 2.5 2.5 0 0 0 .508 1.641z"/><path d="m209.93 260.786h34.57a125.973 125.973 0 0 0 1.135-65.989 15.485 15.485 0 0 0 -2.109-5.263c-2.82-3.95-8.349-4.635-12.432-7.26l-6.168-1.41a6.924 6.924 0 0 1 4.068 5.1 14.191 14.191 0 0 1 -.457 6.721 21.21 21.21 0 0 1 -4.578 8.827 13.187 13.187 0 0 1 -8.733 4.429c-3.58.213-7.231-1.328-10.693-.388a3.545 3.545 0 0 0 -1.51.755 4.637 4.637 0 0 0 -.951 1.506c-2.947 6.315-6.9 12.9-13.458 15.258-3 1.078-6.924 1.7-7.79 4.765a6.7 6.7 0 0 0 .254 3.6 12.725 12.725 0 0 0 5.782 7.206c7 4.441 17.813-12.576 17.813-12.576l6.426 15.7a20.875 20.875 0 0 1 .401 14.233 43.12 43.12 0 0 0 -1.57 4.786z"/><path d="m170.754 206.967a5.437 5.437 0 0 0 1.961.792 5.027 5.027 0 0 0 2.646-.483c4.823-2.051 7.534-7.058 10.462-11.4a63.1 63.1 0 0 1 10.857-12.3c2.354-2.051 5.011-4.158 5.743-7.193a9.15 9.15 0 0 0 -2.136-7.66 26.423 26.423 0 0 0 -6.35-5.194l-2.141 1.241c-2.022 6.008-4.49 12.41-9.821 15.842-4.9 3.153-11.11 3.083-16.788 4.385a3.181 3.181 0 0 0 -1.487.64 3.041 3.041 0 0 0 -.744 1.417 17.9 17.9 0 0 0 7.798 19.913z"/><path d="m183.377 251.829a17.978 17.978 0 0 0 1.441-7.762 7.656 7.656 0 0 0 -4.089-6.4c-2.7-1.2-5.929-.169-8.331 1.559s-4.275 4.089-6.548 5.984a21.661 21.661 0 0 1 -14.965 4.932c-2.02-.117-4.532-1.1-4.5-3.121a4.257 4.257 0 0 1 .49-1.657 68.931 68.931 0 0 1 10.632-16.541c2.265-2.611 4.831-5.246 5.506-8.636.715-3.594-.933-7.342-3.464-9.993s-5.853-4.388-9.155-5.978c-5.9-2.84-12.062-5.392-18.571-6.106s-13.476.6-18.51 4.79l.058 6.862c5.277 2.491 8.084 8.83 7.4 14.626s-4.346 10.938-8.991 14.472a30.514 30.514 0 0 1 -24.855 5.395c-.442-.1-.882-.212-1.32-.328l4.68 16.854h66.327a8.709 8.709 0 0 0 2.57-4.233c1.682 1.49 3.435 2.9 5.241 4.233h14.727a58.546 58.546 0 0 0 4.227-8.952z"/><path d="m96.791 210.32c5.245-2.213 10-5.492 15.274-7.623 10.055-4.06 21.422-3.685 32.008-1.337 3.174.7 6.377 1.586 9.621 1.362s6.623-1.815 7.964-4.778a12.721 12.721 0 0 0 .864-4.3 148.608 148.608 0 0 0 .166-20.675c-.234-3.8-.661-7.736-2.63-10.992a16.457 16.457 0 0 0 -8.914-6.718 25.773 25.773 0 0 0 -4.391-1.05h-10.026l-6.572.961c-.144 4.274-2.73 8.028-5.219 11.506-3.567 4.985-7.323 10.141-12.725 13.04-7.051 3.785-15.514 3.04-23.441 4.368-.7 1.656-6.656 16.642.646 27.933.051 0 .1.008.151.008a18.249 18.249 0 0 0 7.224-1.705z"/><path d="m465.569 434.343-1.357-.825v-21.2l-37.931-21.191-1.055 1.029a15.919 15.919 0 0 1 7.764 8.073 13.222 13.222 0 0 1 -.409 11.078c-1.808 3.4-5.163 5.74-8.714 7.223s-7.359 2.224-11.074 3.227a3.539 3.539 0 0 0 -2.173 1.219 3.364 3.364 0 0 0 -.42 1.459 26.213 26.213 0 0 0 2.242 14.046c.8 1.72 1.925 3.471 3.712 4.1a8.34 8.34 0 0 0 4.132.008l35.062-5.884a61.962 61.962 0 0 0 10.221-2.362z"/><path d="m434.648 478.12 29.564 6.937 20.888-38.837-20.884-12.7v-5.357l-14.016 3.707c-.449 5.573-1.225 11.32-4.144 16.089-4.647 7.592-13.633 11.133-22 14.182 1.203 6.371 6.296 11 10.592 15.979z"/><path d="m423.9 458.65a27.418 27.418 0 0 0 -2.52-6.96 9.245 9.245 0 0 0 -5.61-4.546l-5.885 2.81a18.14 18.14 0 0 1 -6.758 18.309c-3.429 2.518-7.62 3.711-11.523 5.4a17.836 17.836 0 0 0 -2.362 1.211c3.106 4.068 9.969 11.908 17.688 13.36 8.882 1.671 19.065-7.518 22.011-10.409q-2.521-9.586-5.041-19.175z"/><path d="m373.2 459.214c-5.765 2.11-17.264-7.427-23.224-8.9a5.455 5.455 0 0 0 .619 3.562c3.684 8.427 9.59 15.658 14.282 23.571l3.408-.47 6.534 1.877 7.016-3.566a40.678 40.678 0 0 1 4.643-8.021c4.638-6.232 11.277-11.56 12.772-19.184.674-3.437-24.343 10.506-26.05 11.131z"/><path d="m326.347 482.761 37.942-5.232a18.962 18.962 0 0 0 -1.973-3.183l-18.263-25.246-8.027-4.185c-.823 2.808-1.759 5.583-2.835 8.305-1.286 3.255-3.1 6.769-6.426 7.857-2.785.911-5.782-.17-8.54-1.156a146 146 0 0 0 -14.624-4.366c8.216 15.045 12.452 17.536 22.746 27.206z"/><path d="m216.442 454.34-17.152-16.218-17.767.793q-2.626 6.372-5.252 12.742a10.834 10.834 0 0 1 -2.2 3.784c-1.868 1.814-4.776 2.041-7.352 1.653s-5.086-1.281-7.691-1.311c-1.556-.018-3.324.422-4.054 1.8a5.62 5.62 0 0 0 -.471 2.052 38.538 38.538 0 0 1 -4.271 13.854c-.842 1.582-1.794 3.105-2.737 4.633 2.262.413 3.626.736 3.626.736s7.084 9.688 15.971 9.374 11.99-11.7 11.99-11.7l16.439 3.846z"/><path d="m143.344 431.305-4.258-4.144-13.41 22.065c-1.536 2.527-3.212 5.186-5.874 6.475-1.5.725-3.2.955-4.68 1.719-3 1.552-4.545 5.1-4.621 8.477s1.068 6.652 2.247 9.818c.344.923.7 1.851 1.073 2.769 7.892-2.649 17.947-2.374 25.634-1.534a68.152 68.152 0 0 1 8.545-13.563c1.585-1.956 3.331-3.925 3.931-6.37a13.019 13.019 0 0 0 .064-4.757 43.74 43.74 0 0 0 -8.651-20.955z"/><path d="m112.761 478.855c.125-.048.256-.088.382-.134-1.171-6.02-5.032-11.613-5.475-17.82-.458-6.424 2.813-12.594 2.9-19.034a26.307 26.307 0 0 0 -.779-6.312l-19.493-32.6-2.276.946a73.329 73.329 0 0 1 .98 16.57c-.184 3.388-1.013 7.354-4.115 8.728a9.915 9.915 0 0 1 -3.491.621l-10.764.6c-4.534.255-9.431.416-13.206-2.11-2.273 8.038 5.641 16.547 2.9 24.439a42.826 42.826 0 0 0 -28.773-1.014 21.319 21.319 0 0 0 -7.6 3.96 18.078 18.078 0 0 0 -5.2 8.559c-.212.714-.379 1.442-.522 2.174l17.971 12.427c11.076-1.468 22.247 1.917 28.279 4.241-.382-4.561 2.07-9.075 4.693-12.949 4.251-6.278 9.558-12.4 16.782-14.706 3.512-1.119 8.186-.782 9.808 2.528a6.886 6.886 0 0 1 -1.015 7.286c-32.567 36.99 18.014 13.6 18.014 13.6z"/><path d="m74.463 409.529-3.274-16.864-21.507-16.094c5.509 22.53 1.452 35.746-23.838 39.058 0 0 4.514 11.45 7.573 13.423 3.6-.74 6.974-2.351 10.485-3.467 3.711-1.179 7.874-1.758 11.41-.126 2 .925 4.02 2.567 6.144 1.967 2.559-.722 3.13-3.975 4.078-6.46a12.445 12.445 0 0 1 4.666-5.86 38.985 38.985 0 0 0 3.773-2.408 10.739 10.739 0 0 0 2.807-4.131z"/></g><path d="m115.174 154.211 11.589 34.289-41.151 14.055s5.158-32.312 29.562-48.344z" fill="#fff"/><path d="m177.32 164.083s5.405 24.777-14.35 33.609c0 0-2.223-23.736 14.35-33.609z" fill="#fff"/><path d="m220.056 183.119s-17.076.881-20.086 13.436a12.547 12.547 0 0 1 -4.938 7.533c-3.927 2.7-9.175 4.527-10.285-3.812l14.136-20.568z" fill="#fff"/><path d="m205.1 227.108 5.056 16.9s-5.972 11.82-22.786 5.992c0 0 7.768-18.591 17.73-22.892z" fill="#fff"/><path d="m106.187 217.218 6.471 35.465s-16.631 10.085-22.1 3.53-7.122-20.105-7.122-20.105 9.222-14.52 22.751-18.89z" fill="#fff"/><path d="m343.635 182.4s2.436 39.12-33.945 28.159c0 0 18.782-26.419 33.945-28.159z" fill="#fff"/><path d="m251.27 161.122s3.2 27.5-26.022 13.14l13.808-14.162z" fill="#fff"/><path d="m428.94 395.929 19.082 21.06-33.785 8.411s2.988-23.547 14.703-29.471z" fill="#fff"/><path d="m374.819 421.374-4.661 40.317s-16.386-8.172-16.946-9.454 3.975-10.7 3.975-10.7z" fill="#fff"/><path d="m47.257 376.571s14.2 19.9-.84 32.906l-14.061 18.6s-5.6-6.408-4.4-13.663 12.432-31.221 19.301-37.843z" fill="#fff"/><path d="m85.5 407.134c.354-.2 2.461 8.188 4.359 16.1a6.729 6.729 0 0 1 -8.075 8.132 71.786 71.786 0 0 0 -17.529-1.61 50.723 50.723 0 0 1 21.245-22.622z" fill="#fff"/><path d="m51.312 421.473-11.32 29.033-25.445 10.788s17.877-33.453 36.765-39.821z" fill="#fff"/><path d="m166.605 440.1 12.475 1.28-7.208 16.93-14.117-1.961s.145-10.449 8.85-16.249z" fill="#fff"/><path d="m74 463.838 11.871 13.126-4.838 10.6s-18.358.873-17.558-9.082 10.525-14.644 10.525-14.644z" fill="#fff"/></g><g id="Layer_5" fill="#3a3245" data-name="Layer 5"><path d="m127.292 332.1c3.969-3.311-1.332-9.186-5.029-5.566-3.456 3.466 1.323 9.29 5.029 5.566z"/><path d="m133.592 402.094c-1.17-3.223-6.125-2.823-6.96.443-1.279 6.563 9.134 5.815 6.96-.443z"/><path d="m363.344 331.47c3.4 4.739 9.382-.919 5.608-4.935-3.224-3.304-8.52 1.358-5.608 4.935z"/><path d="m357.623 404.949c2.119 5.078 9.629.663 6.3-3.673-2.39-3.454-8.123-.097-6.3 3.673z"/><path d="m133.366 112.406c-4.129-3.829-9.521 2.853-4.709 5.96 3.716 2.364 7.895-2.912 4.709-5.96z"/><path d="m143.051 62.609c4.78 4.342 9.82-4.539 3.647-6.42-3.757-1.102-6.449 3.756-3.647 6.42z"/><path d="m162.654 31.36c3.467 3.532 8.9-1.934 5.383-5.384-3.466-3.532-8.9 1.934-5.383 5.384z"/><path d="m363.826 117.806c4.707 4.309 9.911-4.472 3.742-6.37h.034c-3.648-1.183-6.579 3.746-3.776 6.37z"/><path d="m351 65.594c3.688 3.79 9.322-2.611 5.1-5.759-3.578-2.969-8.507 2.532-5.1 5.759z"/><path d="m331.4 33.632c3.467 3.531 8.9-1.934 5.384-5.385-3.467-3.531-8.901 1.934-5.384 5.385z"/><path d="m252.578 104.682c-8.883-2.412-14.474 9.97-5.7 14-.189 2.806-.205 5.623-.174 8.435.053 4.733 7.155 4.71 7.334 0 .115-2.833.126-5.64.307-8.475 6.525-2.92 5.115-12.515-1.767-13.96z"/><path d="m486.88 444.549q-4.041-2.872-8.083-5.742c5.2-7.162 15.118-13.572 4.788-21.435-5.59-5.773-10.364-13.628-16.672-3.344-3.843-7.659-12.988-11.483-19.712-16.162 9.413-10.958 2.35-16.587-2.405-27.558-4.893-7.887-15.167-1.374-21.5 1.431 2.059-37.149 3.326-74.591 1-111.662 9.521-9.255-7.309-27.137-13.017-34.658 2.868-4.748 4.244-9.883 1.752-15.478-3.6-8.082-8.45-15.986-13.073-23.511a3.83 3.83 0 0 0 -2.181-1.634c12.243-18.853 28.32-34.742 42.14-52.257 1.938-10.482.84-21.672-.37-32.262-1.075-4.019-6.418-5.129-9.454-7.291-34.609-25.81-29.479-63.465-85.7-73.811-10.727-7.907-24.986-11.219-38.325-11.075-4.875-.463-9.348.09-11.795 4.834a887.188 887.188 0 0 0 -91.388 0c-2.218-3.15-4.442-5.129-8.621-4.775-14.559-.592-29.7 2.476-41.711 11-56.2 10.8-50.579 47.635-85.457 73.831-7.327 3.994-10.465 4.533-10.151 13.8-.06 5.016-2.622 25.491 1.965 27.244 11.7 12.931 23.65 25.6 35.454 38.439-5.615 9.363-11.546 20.03-12.255 31.122-.019 5.811 4.377 11.894 8.271 16.535-11.592 7.926-14.539 9.913-11.774 24.459-5.813 2.445-15.592 7.485-11.5 14.974-3.247 42.153-.9 85.1 1.725 127.4-5.04-4.672-10.4-9.87-16.766-12.587-3.695-1.342-6.349 1.581-8.9 3.946a62.729 62.729 0 0 0 -18.875 34.369c-1.966 7-.447 14.08 5.852 18.443-8.651 8.019-16.291 18.59-18.6 29.631-1.448 6.939 8.248 11.742 12.9 15.287 4.042 3.08 7.1 6.357 12.229 5.94 6.062-.712 11.948.188 17.943 1.754 15.568 5.029 19.316 9.574 37.4 5.457 6.036-1.877 19.355-1.3 21.436-8.095 11.61-1.879 26.248-2.785 36.4 3.376 3.864 11.956 26.655 8.249 28.414-3.72a9.249 9.249 0 0 1 3.322-.092c12.542 6.639 17.7 3.361 24.132-8.332 35.568.023 71.186-.042 106.736-1.33 4.009 4.787 7.7 13.483 13.85 15.6 6.649 1.088 13.7-1.015 20.349-1.553 6.735-.98 14.876-1.615 21.186-4.5 2.941 1.085 6.306 5.031 9.276 2.614 2.015-2.056 5.194-4.453 7.125-7.141 5.371 7.471 14.092 16.912 24 15.944 4.416-.719 8.853-3.3 12.736-5.925a50.335 50.335 0 0 1 16.972-2.568c7.828.29 15.191 2.826 22.876 3.8 2.131 1.131 5.244 2.411 6.774-.318 6.81-12.545 13.838-24.976 20.537-37.585a3.633 3.633 0 0 0 -1.255-4.829zm-28.2-14.331c-3.959 1.163-7.907 2.372-11.854 3.581 1.067-4.264 2.652-8.5 3.309-12.761 3.4-.99 7.083-1.7 10.433-2.588.709 3.708-1.143 7.897-1.889 11.768zm-45.3 42.212c-2.363-5.019-7.765 2.48-21.75-5.515 3.974-5.6 12.467-15.852 19.981-10.569.723 2.989-.97 6.308.052 9.158 2.3 4.423 6.033-.637 6.122-3.737 4.834 7.273 7.708 14.934-2.074 19.374a60.2 60.2 0 0 0 -2.334-8.711zm-225.78-23.423a30.045 30.045 0 0 0 3.119 5.01 59.345 59.345 0 0 1 -14.068 2.012c1.445-4.035 3.941-7.812 4.8-12.013 9.27-.718 16.956-2.663 24.158 5.963-3.033.691-6 1.553-8.97 2.407-2-1.959-3.506-4.163-5.343-6.231-1.935-2.107-4.734.57-3.696 2.852zm-118.933-15.337c4.543-1.157 9.163.685 13.751.25 2.967-.253 3.974-4.664.74-5.471-4.792-1.011-9.834-.853-14.713-1.085 3.82-7.022 9.874-11.441 15.866-15.047 3.814 20.055 10.144 18.821-2.991 37.292-.322.042-.643.082-.965.119-3.515-6.256-7.378-10.854-11.688-16.058zm3.8 22.787a60.067 60.067 0 0 0 -6.949-3.6c-1.679-7.321-5.414-14.081-7.752-21.2 5.288 5.848 18.019 16.317 14.696 24.8zm59.823-236.457a127.525 127.525 0 0 0 -13.6-8.482c4.855-2.27 11.925-8.718 17.313-7.817 4.074 1.167 13.014 3.8 15.121 5.054-1.793 2.356-8.072 12.363-11.173 17.32a16.119 16.119 0 0 1 -3.98 4.36c-5.856 4.394-15.82 13.574-17.523 14.936a1.727 1.727 0 0 1 -2.752-.931c-1.791-7.125-6.234-22.437-7.638-26.422q2.331-1.458 4.676-2.892a128.225 128.225 0 0 0 16.3 10.454c3.72 1.995 6.596-3.192 3.256-5.58zm202.51 8.506c.686 2.809 4.593 2.527 5.414 0 1.111-3.415.907-7.19 1.167-10.754.236-3.239 2.734-20.354 3.64-27.683.876-3.221 3.7-.714 5.01.684 12.059 10.661 24.672 21.37 33.525 34.949-6.725 2.3-28.38 8.328-40.955 12.048a13.017 13.017 0 0 1 -6.841.11c-9.041-2.446-20.56-4.845-29.468-7.74-10.964-9.84 16.247-28.281 22.442-34.6 1.22-1.073 3.941-3.249 6.258-5.063a1.812 1.812 0 0 1 2.907 1.718c-1.535 9.393-4.561 30.351-3.099 36.331zm43.679-31.715c-1.85 3.121-5.707 5.015-8.564 2.077q-4.776-4.581-9.764-8.936a3.1 3.1 0 0 1 -.395-4.242c3.978-4.7 12.957-3.346 18.518-2.1 6.397 1.8 3.277 8.297.203 13.201zm3.705 4.841c2.24-1.967 9.137-10.921 11.484-5.918 3.029 8.167 3.43 19.234-4.514 24.859a59.234 59.234 0 0 0 -8.433-10.841c-2.558-2.624-.774-5.971 1.461-8.1zm30.316 201.655q-14.949-.051-29.9-.034c2.034-23.161 3.555-46.479 4.232-69.8 10.656.055 21.313.065 31.969-.029-.636 22.434-1.951 44.853-3.712 67.182q-1.318 1.314-2.589 2.681zm-291.221 62.05c.749 2.09 1.607 4.1 2.512 6.134q-2.189-.141-4.366-.321c-1.809-3.361-4.3-5.907-5.587-9.606 7.405-6.292 16.773-2.65 25.432-2.263-1.153 4.341-2.557 8.771-3.132 13.2-1.823-.185-3.634-.383-5.405-.546-1.692-2.847-3.21-5.709-5-8.48-1.433-2.182-5.433-.855-4.451 1.882zm18.134-32.824c2.7 3.911 4.614 8.44 6.964 12.594 2.316 2.861 1.04 7.791-2.415 8.494-5.66-.869-13.751-2.033-18.366-1.966a77.872 77.872 0 0 1 13.82-19.122zm-30.171-7.944q-4.228-7.533-8.458-15.065c2.8-.009 5.606-.011 8.409-.027a114.423 114.423 0 0 1 .052 15.092zm6.716 20.2a101.063 101.063 0 0 1 12.648-8.679c-3.433 4.988-7.923 10.444-9.215 16.595a25.812 25.812 0 0 0 -6.608 3.669 20.552 20.552 0 0 1 3.178-11.587zm30.13-26.244a3.769 3.769 0 0 0 -4.991-1.308c-8.019 3.562-16 7.04-23.921 10.857a1238.71 1238.71 0 0 1 -5.864-163.709h28.532c-2.38 51.643 1.4 103.59 6.715 154.94-.159-.263-.308-.525-.468-.782zm-4.3-163.232a7.7 7.7 0 0 0 1.436 2.679c-5.435-.852-21.886 3.312-19.605-6.352.7-2 12.807-12.168 16.61-15.987a58.654 58.654 0 0 0 4.388 6.546c-1.544 3.895-3.943 8.834-2.824 13.112zm12.022 9.068q91.792-.011 183.585-.022 1.364 30.536.741 61.223c-61.666 1.227-123.367.82-185.041 1.394q-.623-31.346.72-62.597zm13.275-81.5a55.1 55.1 0 0 1 11.357-15.4c3.023-3.594 6.1-.328 8.876 1.881a31.953 31.953 0 0 0 -2.842 5.762 2.41 2.41 0 0 0 4 2.326 32.675 32.675 0 0 0 3.024-4.591c1.912 1.619 3.844 3.363 5.862 4.93-4.962 3.385-8.564 9.089-11.988 14.069-1.962-18.776-4.934-10.274-18.284-8.983zm12.13 4.439c-.106 2.855-.479 9.169-.631 12.534a2 2 0 0 1 -2.535 1.837c-3.694-1.019-9.5-3.042-10.874-9.2a2.965 2.965 0 0 1 2.486-3.533 76.7 76.7 0 0 0 10.374-2.515.89.89 0 0 1 1.185.871zm8.435 13.522c1.437-2.558 3-5.137 4.693-7.622 2.519 6.459 10.183 22.628 18.176 21.637a2.87 2.87 0 0 0 0-5.736c-6.205-2.064-11.815-16.084-13.4-22.1 2.762-4.334 7.859-3.708 12.381-2.959q5.477.563 10.9 1.5c3.024.521 17.822 2.445 19.713 4.6 3.953 4.5 2.948 13.9 2.168 15.028-1.385 2-4.568 2.593-6.719 3.305-4.7 1.555-9.579 3.316-14.577 3.066-3.18-.159-3.346 4.223-.706 5.217a15.847 15.847 0 0 0 7.971.461c2.457 5 6.221 9.752 6.482 15.611-6.432-2.972-27.541-15.43-32.72-9.83-4.381 3.591-7.758 8.681-11.23 13.1-18.242-8.413-9.92-23.033-3.127-35.284zm116.8-6.727c.858 2.939 3.521 5.236 5.617 7.35-9.269 7.691-21.8-.076-25.584-10.1 14.89 3.767 23.405.241 20.087-16.021-.585-2.325-4.318-2.449-4.83 0-.747 3.07-.1 6.362-.775 9.413-.858 4.036-11.393 1.167-14.516 1.077 2.217-5.752 16.677-19.756 21.2-16.32 2.94 3.645 5.388 8.016 8.271 11.783 3.925 5.172 8.855 12.448 1.438 16.685-2.841-1.731-4.836-4.654-7.612-6.4a2.276 2.276 0 0 0 -3.293 2.527zm-11.341 45.945a74.311 74.311 0 0 0 9.208 17.944h-36.225c-3.632-3.18-9.434-4.957-6.684-10.865 2.941-9.844 9.231-20.13 17.876-25.7 4.192.187 8.784 4.368 12.416 6.446 3.559 3.003 1.015 7.843 3.409 12.175zm-10-25.975c-2.142 3.567-9.72-2.783-10.114-3.166-1.867-1.9-4.732.5-3.578 2.76a13.74 13.74 0 0 0 2.24 3.155c-5.507 4.169-9.456 9.768-12.872 15.135-1.45-.34-4.035-3.716-4.108-8.391-.012-4.349 10.091-6.851 12.576-12.212 3.439-5.422 3.636-11.849 5.68-17.651 6.018 5.667 15.28 11.481 10.175 20.37zm-37.433-3.506c2.306 11.381 4.18 21.726-3.546 23.592-.794-6.64-3.538-14.076-7.6-18.517 4.094-1.565 8.07-2.475 11.145-5.075zm-2.386-27.154a54.565 54.565 0 0 0 -9.372-2.932c-.963-.763.321-3.514 1.971-6.211a75.4 75.4 0 0 0 7.628 4.558c.1 1.626.233 3.253.4 4.878-.204-.098-.411-.198-.628-.293zm2.058-10.092c-1.969-1.112-4.1-2.614-6.291-3.693 1.651-2 3.458-4.493 5.791-5.471 3.867-.764 9.436 5.348 12.491 7.92-1.641 1.441-3.947 2.249-4.772 4.4-.3 5.262 6.147 1.864 8.383.122 1.669 2.838.084 13.8-10.063 16.335-.7-4.83-1.03-9.694-1.588-14.54-.314-2.868-1.509-3.692-3.952-5.073zm8.384 34.708a36.905 36.905 0 0 1 12.653-13.48c-1.229 10.846-1.9 16.146-12.42 21.511-.182-2.646-1.587-5.519-.234-8.031zm21.383-69.946c-16.073-.175-32.013-.807-48.1-.738-3.652-8.117-2.182-18.494.74-27.017a25.091 25.091 0 0 1 17.366-12.03c27.392-3.79 34.361 15.751 29.993 39.785zm-66.458 90.519c6.694 1.874 17.683 6.791 22.8 10.5-1.733 1.044-12.043 8.528-14.375 6.961-6.577-4.417-8.056-13.369-8.426-17.461zm1.276 29.382h-25.185c5.207-9.92 11.178-19.9 19-27.932.952 9.556 7.714 18.237 6.184 27.932zm13.545-6.822a57.52 57.52 0 0 0 10.577-5.874 58.439 58.439 0 0 1 -1.833 12.7h-15.779c1.557-2.924 4.214-4.926 7.034-6.826zm156.062-12.472c-4.649 6.582-9.628 12.936-14.547 19.318h-20.448c-.295-4.245-1.324-8.434-1.966-12.642 8.337-2.31 34.587-9.8 40.29-11.668a49.443 49.443 0 0 1 -3.33 4.992zm-29.624 118.744c1.774-30.828 3.194-62.222 1.45-93.092q14.262 0 28.531-.006a1260.627 1260.627 0 0 1 -4.427 148.666c-10.616 9.768-20.551 20.176-31.213 29.933a17.757 17.757 0 0 0 -2.414-.4c3.686-28.262 6.435-56.639 8.073-85.101zm47.147 69.081c-.441.973-.977 2.075-1.528 3.246-3.978-2.723-7.913-5.287-11.7-8.228a32 32 0 0 1 -1.5-12.047q12.471.069 24.942.016a86.692 86.692 0 0 0 -10.214 17.013zm-62.952-302.368c-11.5 2.852-24.226.772-36.047.7-5.162-.17-11.488.4-14.445-4.63-.7-8.629-3.464-16.775-10.38-22.256q29.64.512 59.261 1.734c4.09 5.085 4 18.799 1.611 24.452zm-9.85-31.162c-46.591-2.389-111-1.534-154.421-1.025a4.192 4.192 0 0 1 -4.234-3.841c-.28-3.305-.26-15.595 3.477-24.409 53.359-1.82 106.83-1.243 160.165 1.038 3.631 11.48 6.479 26.654-4.987 28.237zm-152.201 6.423q27.384-1.038 54.782-1.494c-10.636 8.7-8.266 22.617-15.928 27.134-14.986 2.016-30.463-.452-45.51-1.289-2.381-8.056-.512-15.961-.494-24.068q3.575-.148 7.15-.283zm-.42 135.551c4.978 2.745 10.376 5.767 11.884 11.571a47 47 0 0 0 -5.255 11.452c-5.2 1.091-10.957-3.344-8.828-8.9 3.48-1.42 2.3-5.81-1.282-5.371-6.166 2-12.174 4.134-18.777 3.821a43.006 43.006 0 0 1 10.453-16.424c2.665-2.345 9.072 2.525 11.805 3.85zm-23.224-.14c-5.434-7.639 2.835-13.547 6.4-19.792.884 3.295 1.325 7.02 1.887 10.1a36.7 36.7 0 0 0 -8.287 9.691zm-51.044 168.444c-4.541-11.888-12.377-4.182-19.845.035h-1.115c-1.888-23.217-3.282-46.535-3.943-69.868 10.769.095 21.539.085 32.308.028.692 23.3 1.941 46.575 3.873 69.8zm-4.421 6.274q.167.3.335.606c-.16-.2-.317-.4-.482-.605zm82.285 34.735c-1.548 3.849-2.985 7.694-4.249 11.63a55.113 55.113 0 0 1 -8.762-1.521c1.288-2.419 2.621-4.813 4.141-7.106 2.242-3.893 5.008-2.625 8.87-3.003zm-.526 17.468c.772 3.339 2.7 6.507 4.37 9.428a151.049 151.049 0 0 1 -16.856-9.583c-.209-.529-.441-1.074-.683-1.626a40.363 40.363 0 0 0 13.169 1.781zm-21.48-128.605c61.6-.636 123.2-.546 184.794-1.5-.573 23.352-1.92 46.706-3.9 69.97-58.963 1.169-117.958.831-176.929 1.355-1.995-23.214-3.361-46.52-3.965-69.825zm203.542 115.8c4.214-5.434 8.769-10.226 13.338-15.408a214.319 214.319 0 0 0 -1.458 22.687c-4.808-.538-9.477-3.043-14.148-4.618.666-.888 1.542-1.744 2.268-2.662zm70.9 14.478c2.261-7.092 5-12.383 8.2-19.335 3.238-1.132 6.452-1.99 9.717-3a167.023 167.023 0 0 0 -1.549 17.841c-5.414 1.758-10.807 3.277-16.371 4.489zm7.21 4.071c4.126-1.208 8.365-2.066 12.339-3.754a114.159 114.159 0 0 0 8.025 13.257c-6.769-3.214-13.539-6.435-20.367-9.504zm10.957-62.039a86.005 86.005 0 0 1 10.919 7.471c-2.731.743-4.842 1.394-7.585 2.221-3.127-5.545-8.814-9.409-12.268-14.8q4.554 2.394 8.931 5.107zm-17.011-6.337c2.888 5.327 7.527 10.3 11.324 14.589 2.308 2.606 3.926 3.6 3.385 7.606-1.086 4.948-3.275 9.712-4.251 14.72-9.358 2.846-23.28 4.966-23.369-8.688 7-.342 15-1.818 20.74-4.231 2.416-1.017 2.527-5.376-.69-5.1-6.583.767-12.986 2.78-19.635 3.314 1.45-8.591 6.29-16.338 12.496-22.21zm-9.873-71.834c-10.656-.048-21.313-.044-31.969-.043.473-21.017.237-42.021-.943-62.9 10.8.106 21.546-.236 32.343.13.914 20.906 1.045 41.863.569 62.814zm-9.8-92.431c3.242 4.073 5.711 8.541 8.668 12.837-2.74-.067-8.185 1.476-5.593 5.061 1.778 1.783 4.593.721 6.847.988-.755 1.463-3.21 2.347-3.139 4.295-11.353-.066-29.567 2.775-28.406-14.062 3.29 4.989 11.154 9.78 17.244 8.572a2.5 2.5 0 0 0 .591-4.523c-2.57-1.508-5.684-1.789-8.335-3.265-1.276-.71-7.782-4.81-5.211-6.581a37.245 37.245 0 0 1 11.16-5.825c.2 3.977-.527 8.148.43 12.033 4.56 5.761 5.689-6.252 5.744-9.529zm-7.706-28.366a.71.71 0 0 1 1.324-.376c6.982 10.725 5.474 15.359-6.081 18.6a.71.71 0 0 1 -.668-1.192c4.116-4.251 5.618-10.57 5.425-17.031zm9.043-121.46a72.109 72.109 0 0 0 13.635 12.5c-8.2-.643-16.414-1.192-24.616-1.772-4.05-.286-4.04 6.039 0 6.311 11.02.743 22.039 1.621 33.068 2.249-.065 5.5.41 11.182-1.126 16.545-4.7 2.892-11.533 1.324-16.889 1.471-7.143-.151-14.608-1.085-21.822-.886.6-34.008-9.448-16.53-17.953-53.672 8.215.13 16.416.491 24.619.966a140.514 140.514 0 0 0 11.084 16.289zm-39.092-48.366c9.919 6.427 17.658 16.125 24.1 25.879-7.552-.673-15.2-.787-22.765-.9-4.3-11.339-9.461-23.094-17.33-32.283a68.563 68.563 0 0 1 15.995 7.304zm-66.047-20.784a2.811 2.811 0 0 1 .961-1.075c25.179-.661 46.9 14.227 55.684 38.012 6.449 13.591 8.1 29 16.039 41.843a107.049 107.049 0 0 0 -25.635-.582c-2.481.3-3.591 4.187-.648 4.786a88.38 88.38 0 0 0 14.061 1.271c12.438-.323 18.9-.484 19.374 14.15.411 3.786 2.214 11.191-2.372 12.858h-29.8c-2.376-.587-4.652-1.256-5.464-3.967-2.168-37.866-3.932-87.109-42.221-107.243.009-.012.011-.033.021-.053zm-103.729 3.887a2.843 2.843 0 0 0 .728-.36 702.592 702.592 0 0 1 91.772-.045c16.91 9.144 27.435 20.829 33.106 39.484q-77.83-3.918-155.812-1.358c6.198-13.532 15.803-31.907 30.206-37.721zm-40.947 2.07c9.261-5.172 19.69-7.009 30.158-7.062a2.9 2.9 0 0 1 .97 1.049c-38.084 20.346-40.649 69.367-42.165 107.356-.813 2.709-3.1 3.375-5.484 3.967h-29.781c-4.464-1.627-2.832-8.43-2.448-12.125.418-4.266.664-11.23 4.968-13.427 8.967-3.022 19.319-.344 28.543-2.727 2.921-.594 1.857-4.486-.648-4.786a107.083 107.083 0 0 0 -25.6.577c6.344-9.871 8.244-21.778 12.178-32.751 6.151-15.696 13.932-31.487 29.309-40.071zm-35.242 15.057a67.251 67.251 0 0 1 15.945-7.4c-6.738 8.085-11.1 17.782-15.115 27.431-7.184.3-14.413.576-21.58 1.231 5.687-7.979 12.515-15.865 20.75-21.262zm-40.535 88.406c-6.862-.92-15.236.514-21.354-2.7a135.922 135.922 0 0 1 .853-18.272c11.1-.629 22.19-1.514 33.281-2.261 4.033-.271 4.056-6.6 0-6.311-8.2.58-16.415 1.129-24.617 1.772 12.2-8.121 19.994-20.806 27.424-33.1 7.816-.488 15.628-.969 23.451-1.31-3.631 10.707-5.322 22.515-12.626 31.548-8.892 7.911-6.759 20.489-6.879 31.348-6.517-.173-13.02-.361-19.533-.714zm9.557 61.068c4.99-9.588 11.215-20.33 20.151-26.692 5.331-2.087 13.385 2.755 18.849 4.049 29.793 11.191 26.066 5.757 20.638 36.572-8.24-5.228-16.113-11-24.48-16.084a167.679 167.679 0 0 1 -7.408-17.753 2.613 2.613 0 0 0 -5.035 1.388 75.881 75.881 0 0 0 5.45 16.327c-10.644 3.909-21.391 7.507-32.029 11.428a86.287 86.287 0 0 1 3.866-9.235zm8.336 36.085c.331 3.406 4.459 20.939 5.692 26.128.579 3.273-7.947 3.738-11.772 2.835-4.712-1.21-7.342-5.752-7.8-10.36-.949-9.689 6.846-14.224 13.887-18.603zm-29.906 41.932q16.146 0 32.292 0c-1.136 20.91-1.111 41.909-.569 62.86-10.766 0-21.533 0-32.3.043-.476-20.983-.337-41.967.577-62.903zm-5.339 131.4a3.235 3.235 0 0 0 1.137.641 20.743 20.743 0 0 1 1.424 7.211c-3.4-.194-6.8-1.17-10.173-.856-1.55-7.5-4.032-14.688-8.334-21.039 6.192 3.167 10.948 9.661 15.946 14.04zm-37.263 21.513a56.932 56.932 0 0 1 16.485-33.514c7.617 11.7 9.665 24.845 10.192 38.54-6.611-7.025-13.435-1.708-19.575 2.857 3.5-6.383 9.885-10.648 13.9-16.468 1.17-1.909-.788-4.671-3.009-3.913-7.474 3.274-11.877 11.516-16.9 17.7a8.578 8.578 0 0 1 -1.093-5.202zm-8.35 36.039c6.064-11.251 15.742-22.97 27.84-27.45 3.286 8.012 6.015 16.16 8.765 24.4a70.538 70.538 0 0 0 -13.494-2.745c.9-4.613 2.621-8.921 3.989-13.387.775-2.726-2.94-4.1-4.427-1.866a39.5 39.5 0 0 0 -5.42 15.047c-6.379.186-12.129 3.739-17.744 7.028.166-.343.318-.69.491-1.027zm1.446 13.407c-.455-3.074 1.915-6.4 4.652-8.3 13.341-9.743 30.3-2.63 43.156 4.512a67.258 67.258 0 0 0 -8.041 9.193c-.411-2.605-.066-5.445-.906-7.951-.836-2.4-4.99-3.012-5.5 0-.473 3.041.411 6.207.9 9.211-6.34.551-12.681.962-19.014 1.588 1.3-4.908 3.525-9.641 4.193-14.682.233-2.494-3.427-3.237-4.57-1.237-2.48 4.34-3.711 10.354-4.584 15.649-2.855-2.79-7.079-5.287-10.286-7.983zm56.39 16.893c-13.843.2-14.036-8.01-4.264-15.532 4.643 6.391 9.142 6.375 4.264 15.532zm22.794-3.873c-5.371 1.483-10.729 1.76-16.114 3.018 4.382-12.428-2.343-10.261-7.653-17.9 7.518-7.1 14.323-10.15 21.107-.211-2.017 2.814-5.662 3.946-7.987 6.335a2.183 2.183 0 0 0 1.525 3.681c3.523.135 7.036-2.688 9.581-4.843 1.295 3.299 2.617 7.793-.459 9.92zm-7.822-45.482c-.051-.048-4.451-17.605-4.451-17.605 5.488 4.743 15.407 21.64 15.37 24.81-2.387-2.456-8.468-4.837-10.919-7.205zm72.418 50c-2.7.812-8.156 1.562-10.259-.786-2.662-4.6 1.9-9.132 4.756-12.553 2.886.238 5.743 2.674 8.04 4.371 4.345 2.607 1.486 7.987-2.537 8.972zm37.139-23.57c-2.347 3.683-4.747 7.215-7.152 10.888-.061-2.422-.119-4.844-.077-7.261.042-2.513-4.079-3.213-4.5-.61a87.851 87.851 0 0 0 -1.31 12.248 11.308 11.308 0 0 1 -2.3-.625 103.516 103.516 0 0 1 -8.819-13.834c9.3-.734 19.2-2.565 27.822-6.355-.556 1.709-2.864 4.283-3.664 5.549zm13.064 5.3c8.538-11.944.686-16.8-7.046-25.233-5.07-7.7-14.938-7.489-23.123-7.9-9.037-.343-17.894-.882-26.97.671-.885-8.122-1.726-16.255-2.466-24.407 58.611-.579 117.228-.543 175.836-1.451q-1.54 17.157-3.516 34.229c-5.738 1.013-11.46 2.142-17.184 3.221-4.337.935-20.3 1.321-15.429 8.858-.4-.473-.53-.631-.5-.573 2.025 4.01 4.235 7.764 6.249 11.692-28.615.626-57.239.866-85.855.889zm133.011 11.884c-6.159 1.059-13.183 2.672-19.5 2.485 1.623-1.478 3.405-2.649 4.161-4.8.62-1.749-1.266-3.335-2.9-2.9-2.845.925-4.662 3.562-6.732 5.595-5.74-5.312-8.868-11.869-12.933-17.937 4.963 1.914 9.583 4.886 14.931 5.447 2.7.29 2.941-3.308 1.238-4.569-3.563-2.624-8.061-3.659-12.016-5.568 6.758-.781 13.7-1.761 20.464-2.122-.294 4.551-2.119 8.867-2.055 13.341.648 5.277 15.488 6.834 20.107 10.021-1.609.371-3.197.732-4.769 1.003zm.5-9.582c-3.133-1.178-6.737-2.918-10.257-3.416a60.4 60.4 0 0 0 1.9-10.136c5.938 4.124 9.082 11.3 14.668 15.98-2.11-.861-4.242-1.653-6.313-2.432zm13.478-1.1c-3.246-3.081-5.871-5.893-8.985-9.352a81.309 81.309 0 0 0 12.522 4.2 58.8 58.8 0 0 0 .4 8.71c-1.373-1.151-2.682-2.39-3.939-3.56zm10.468-11.571c.94-11.506 1-17.047 1.667-25.662 6.239 4.9 11.287 12.155 16.96 17.885-6.348 1.755-12.49 5.771-18.629 7.775zm33.111 29.516c-6.288 1.453-14.816-7.751-18.053-12.716 5.334 3.547 12.111 5.835 18.231 4.388a64.4 64.4 0 0 0 1.572 7.728 14.02 14.02 0 0 1 -1.752.598zm60.192-13.69c.392-4.564 1.311-9.357 1.3-13.988 2.744-1 5.452-2.225 8.094-3.408q-4.735 8.677-9.396 17.394zm1.754-20.6c-.648.335-1.314.622-1.987.892-2.922-3.511-5.68-7.062-8.787-10.383a2.417 2.417 0 0 0 -3.78 2.916c2 3.326 4.437 6.3 6.589 9.54a24.225 24.225 0 0 0 -4.088 1.805 2.144 2.144 0 0 0 1.074 3.963 23.047 23.047 0 0 0 4.308-.387c-.738 5.277-.671 10.159-1.754 15.4-3.683-5.26-7.525-10.476-11.511-15.351.386-6.639 1.218-13.307 1.478-19.929q5.9-1.769 11.806-3.514 7.644 5.616 15.259 11.265a58.544 58.544 0 0 0 -8.609 3.784z"/></g></svg>