<svg height="512" viewBox="0 0 500 500" width="512" xmlns="http://www.w3.org/2000/svg"><g id="Layer_4" data-name="Layer 4"><path d="m454.069 167.351c-2.572-1.307-5.526-1.812-7.96-3.361-3.8-2.416-5.657-6.887-7.3-11.079-12.184-31.14-25.779-63.9-52.763-83.65-23.754-17.387-54.559-22-84-21.9s-58.855 4.339-88.226 2.359c-21.3-1.437-43.7-5.971-63.269 2.564-7.235 3.156-13.629 7.953-20.648 11.565-6.621 3.407-13.778 5.749-20.179 9.553-32.117 19.085-34.186 65.881-60.056 92.834l-10.068 3.947a141.981 141.981 0 0 0 -1.606 33.074l15.467 2c-3.863 62.042-1.92 147.458 5.251 209.205.63 5.422 1.571 11.365 5.716 14.917 3.607 3.091 8.709 3.545 13.449 3.845a2830.028 2830.028 0 0 0 346.148.7c3.234-.191 6.7-.478 9.2-2.541 2.912-2.4 3.655-6.5 4.189-10.233a1172.12 1172.12 0 0 0 10.7-215.879c3.816-1.829 8.107.193 12.333-.018 3.443-12.362 5.066-32.087-6.378-37.902z" fill="#f7978d"/><path d="m452.926 204.546c-11.227-1.942-23.175-1.687-34.614-1.314q-168.238 5.492-336.612 3.718c-9.548-.1-19.255-.195-28.473 2.2q-.54 9.37-.91 19.349c13.764 1.206 26.664 10.307 40.428 11.514 18.434 1.616 73.814 40.492 64.88 56.7-6.086 11.039-13.727 14.118-18.964 25.585-2.1 4.59-2.761 9.684-3.4 14.689 0 0-64.365 40.051-76.362 57.668l6.276 37.776c11.221 4.054 55.092-1.036 55.092-1.036s27.593 14.713 34.506 7.485c3.214-3.36 5.68-17.43 7.2-28.783a22.276 22.276 0 0 1 17.016-18.691 74.237 74.237 0 0 0 18.392-6.674c6.134-3.2 12.259-6.843 19.11-7.8a26.364 26.364 0 0 1 26.34 13.616c7.459 14.394.8 34.013 5.921 48.311q24.132.069 48.262-.277c5.294-7.1 8.813-15.687 11.721-24.15 1.47-4.278 3.149-8.983 7.1-11.179 2.89-1.605 6.388-1.5 9.69-1.342 12.1.56 26.285 2.339 32.225 12.894 3.592 6.384 2.986 14.273 5.279 21.23.092.28.213.545.314.82q30.354-1.144 60.679-2.928c3.234-.191 6.7-.478 9.2-2.541 2.912-2.4 3.655-6.5 4.189-10.233a1172.12 1172.12 0 0 0 10.7-215.879 9.327 9.327 0 0 1 4.815-.728z" fill="#bf4c4c"/><path d="m144.947 85.541c44.71 0 81.016-15.766 81.738-35.332-4.29-.056-8.578-.2-12.865-.489-21.3-1.437-43.7-5.971-63.269 2.564-7.235 3.156-13.629 7.953-20.648 11.565-6.621 3.407-13.778 5.749-20.179 9.553a54.538 54.538 0 0 0 -8.75 6.5 164.838 164.838 0 0 0 43.973 5.639z" fill="#ffebe8"/><path d="m454.069 167.351c-2.572-1.307-5.526-1.812-7.96-3.361-3.8-2.416-5.657-6.887-7.3-11.079-12.184-31.14-25.779-63.9-52.763-83.65-13.3-9.736-28.816-15.465-45.062-18.607l-2.19 2.383c14.567 24.559 5.489 60.155-19.06 74.737-8.491 5.043-18.178 7.686-27.841 9.723a261.792 261.792 0 0 1 -70.786 5.078c-16.23-1.05-33.84-4.4-44.377-16.79-7.645-8.988-10.193-21.44-9.414-33.214s4.559-23.115 8.316-34.3c-27.71 17.28-25.223 61.472-50.624 81.995-18.443 14.9-44.727 12.218-68.075 17.077a76.367 76.367 0 0 1 -7.268 8.894l-2.818 1.1a11.663 11.663 0 0 0 1.4 3.654c2.038 3.41 5.275 5.931 7.622 9.136 3.724 5.087 5.014 11.616 8.6 16.8 4.735 6.84 13 10.54 21.232 11.723s16.6.173 24.886-.6c31.716-2.945 63.644-2.335 95.488-1.578q121.239 2.883 242.391 8.551c-.112-3.252-.222-6.5-.362-9.755 3.816-1.829 8.107.193 12.333-.018 3.453-12.359 5.076-32.084-6.368-37.899z" fill="#bf4c4c"/><path d="m380.422 94.754c3.935 9.6 10.466 33.031 13.066 43.074 0 0 16.47 28.812 12.836 66.443-2.2 22.8 1.1 47.308.265 70.2-1.956 53.429-14.3 159.578-14.3 159.578-5.464 12.523-40.657 6.9-42.447 4.83-2.451-2.839-2.273-7.031-1.886-10.762 1.662-16 4.664-31.817 7.163-47.7a764.749 764.749 0 0 0 7.81-166.076c-.632-10.175-9.668-70.807-10.672-80.559a123.306 123.306 0 0 0 -42.993-80.972s1.389-9.523 14.962-7.683c37.662 5.107 49.186 32.529 56.196 49.627z" fill="#d1e3ed"/><path d="m372.71 352.752c-.914-5.073-.131-10.61-2.608-15.131-1.9-3.468-5.174-5.483-8.819-7.151q-2.264 25.062-6.165 49.939c-2.5 15.886-5.5 31.707-7.163 47.7-.387 3.731-.565 7.923 1.886 10.762 1.79 2.073 36.983 7.693 42.447-4.83 0 0 2.772-23.839 5.9-54.6-11.58-6.667-23.206-14.07-25.478-26.689z" fill="#8da8c6"/><path d="m343.892 100.552a120.941 120.941 0 0 1 8.364 33.222c1 9.752 10.04 70.384 10.672 80.559q1.594 25.675 1.452 51.42c7.251-5.313 15.639-9.441 23.606-13.712q9.2-4.933 18.045-10.506c-.491-12.572-.876-25.16.293-37.264 3.634-37.631-12.836-66.443-12.836-66.443-2.6-10.043-9.131-33.475-13.066-43.074-4.271-10.416-10.23-24.654-22.741-35.354a50.512 50.512 0 0 1 -4.408 24.825 105.929 105.929 0 0 1 -9.381 16.327z" fill="#8da8c6"/><path d="m119.8 94.754c-3.935 9.6-6.548 19.679-9.148 29.722-6.943 26.813-13.911 53.763-16.529 81.337-2.165 22.8-1.329 45.766-.491 68.653 1.956 53.429 3.942 107.125 14.3 159.578.473 2.392 1.046 4.938 2.8 6.628 1.617 1.553 37.854.275 39.643-1.8 2.452-2.839 2.274-7.031 1.886-10.762-1.661-16-4.663-31.817-7.162-47.7a764.686 764.686 0 0 1 -7.81-166.076c.632-10.175 1.467-20.41.326-30.541-.462-4.106-1.238-8.338-.08-12.3.962-3.294 3.164-6.058 4.8-9.073 4.682-8.614 4.619-18.889 5.623-28.641a123.3 123.3 0 0 1 42.995-80.969s-1.389-9.523-14.963-7.683c-37.661 5.107-49.19 32.529-56.19 49.627z" fill="#d1e3ed"/><path d="m175.99 45.127c-30.675 4.159-44.009 23.123-51.69 39.254 0 0 23.587 2.567 39.9.217a121.685 121.685 0 0 1 26.753-31.788s-1.389-9.523-14.963-7.683z" fill="#fff"/><path d="m151.9 94.047c-6 9.154-9.4 19.937-16.236 28.484a4.006 4.006 0 0 1 -2.687 1.837c-1.23.051-2.211-.957-3.054-1.854a47.255 47.255 0 0 0 -15.792-11.014c-1.232 4.3-2.363 8.641-3.484 12.974-5.073 19.59-10.151 39.254-13.544 59.181 4.512 3.008 9.244 5.825 13.1 9.583 5.429 5.289 9.219 12.517 15.942 16.02a20.664 20.664 0 0 0 11.334 2.063c.587-9.182 1.163-18.4.135-27.531-.462-4.106-1.238-8.338-.08-12.3.962-3.294 3.164-6.058 4.8-9.073 4.682-8.614 4.619-18.889 5.623-28.641a123.3 123.3 0 0 1 24.443-61.445c-7.571 6.633-15.026 13.369-20.5 21.716z" fill="#8da8c6"/><path d="m152.261 428.112c-1.661-16-4.663-31.817-7.162-47.7q-4.773-30.339-7.086-61c-1.818.943-3.634 1.888-5.386 2.915-6.351 3.723-12.476 9.647-12.43 17.009.052 8.316 8.013 15.7 6.106 23.792a17.644 17.644 0 0 1 -4.318 7.316c-6.055 6.895-13.818 12.511-21.059 18.4 1.787 15.143 4.045 30.222 7 45.2.473 2.392 1.046 4.938 2.8 6.628 1.617 1.553 37.854.275 39.643-1.8 2.458-2.837 2.28-7.029 1.892-10.76z" fill="#8da8c6"/><path d="m136.458 263.7c1.476-16.691-.335-32.755.831-50.644.559-8.571 1.27-17.187.641-25.739a17.155 17.155 0 0 1 -3.242 2.313c-8.208 4.473-18.4 1.391-27.785.277a48.952 48.952 0 0 0 -10.81-.123c-.8 5.032-1.47 10.082-1.975 15.154-1.079 10.832-1.412 24.193-1.371 35.075 27.541 3.401 43.711 23.687 43.711 23.687z" fill="#8da8c6"/><path d="m284.9 197.169c-.963-5.557-2.144-11.184-4.882-16.115-4.748-8.557-13.8-15.606-23.579-15.8-22.431-.444-32.7 11.14-32.7 11.14-4.856 4.025-6.572 10.644-7.648 16.859-1.241 7.166-1.91 14.92 1.454 21.368 2.363 4.526 6.448 7.868 10.475 11.007 6.952 5.416 15.213 10.913 23.87 9.265 4.768-.907 8.842-3.886 12.736-6.785l11.025-8.2c3.517-2.617 7.188-5.426 8.892-9.465 1.742-4.143 1.122-8.851.357-13.274z" fill="#d1e3ed"/><path d="m280.017 181.054c-4.3-7.756-12.143-14.255-20.857-15.551a43.571 43.571 0 0 1 4.828 36.508c-2.347 7.184-7.2 14.147-14.429 16.345-4.939 1.5-10.277.59-15.262-.751a92.581 92.581 0 0 1 -18.343-7.122 20.211 20.211 0 0 0 1.588 4.138c2.363 4.526 6.448 7.868 10.475 11.007 6.952 5.416 15.213 10.913 23.87 9.265 4.768-.907 8.842-3.886 12.736-6.785l11.025-8.2c3.517-2.617 7.188-5.426 8.892-9.465 1.745-4.136 1.125-8.847.359-13.27-.963-5.561-2.144-11.188-4.882-16.119z" fill="#8da8c6"/><path d="m235.632 312.138c-3.942-1.982-8.943-3.295-10.532-7.411-1.648-4.267 1.465-8.791 2.043-13.329a12.093 12.093 0 0 0 -17.583-12.253c-2.528 1.316-5.564 3.539-7.819 1.8l-2.6-2.009c-6.676 1.963-10 11.073-6.164 16.877 1.777 2.686 4.883 5.31 3.951 8.393a7.215 7.215 0 0 1 -2.9 3.37 112.788 112.788 0 0 1 -16.828 10.452c2.9-6.765-2.977-15.569-10.336-15.5-3.567.036-6.872 1.762-10 3.473q-11.622 6.354-22.952 13.229a15.71 15.71 0 0 0 -5.218 4.333c-1.864 2.8-1.752 6.552-.543 9.69s3.373 5.8 5.5 8.4q-11.233 5.835-22.112 12.321a24.479 24.479 0 0 0 -.358-8.415c-.764-2.717-2.7-5.282-5.428-6-2.693-.7-5.482.483-8 1.669a381.436 381.436 0 0 0 -34.766 18.632 6.754 6.754 0 0 0 -2.409 2.042c-2.54 4.125 4.86 8.674 3.638 13.361a6.942 6.942 0 0 1 -2.591 3.4c-3.594 2.923-7.857 4.878-11.814 7.287s-7.768 5.47-9.63 9.711-1.192 9.871 2.555 12.595c4.9 3.564 11.751.685 16.9-2.519s11.3-6.826 16.859-4.412c5.253 2.281 7.815 9.306 13.467 10.228 2.8.456 5.568-.781 8.135-1.988l23.338-10.965c3.884-1.826 8.006-3.864 10.133-7.592 2.392-4.194 1.642-9.406 2.55-14.148s5.346-9.785 9.812-7.951c2.306.947 3.592 3.378 5.494 4.99 4.183 3.546 10.479 2.6 15.7.929a82.865 82.865 0 0 0 27.615-15.115c3.28-2.72 6.45-5.846 7.9-9.854 1.557-4.308.936-9.094 1.9-13.573s4.715-9.135 9.216-8.281c4.694.891 7.453 7.283 12.208 6.818a9.1 9.1 0 0 0 3.937-1.723 123.548 123.548 0 0 0 16.617-13.03 23.073 23.073 0 0 0 -8.885-7.932z" fill="#ffda76"/><path d="m437.281 129.9c-.156-4.257 4.143-7.062 7.009-10.214a18.454 18.454 0 0 0 1.38-22.356 5.136 5.136 0 0 0 -3.459-2.5 5.717 5.717 0 0 0 -3.28 1.109 75.14 75.14 0 0 0 -20.167 17.73c-5.484-2.57-7.884-10.95-13.94-10.831-2.508.049-4.671 1.687-6.608 3.28a231.852 231.852 0 0 0 -23.492 22.245c-1.781 1.941-3.593 4.03-4.175 6.6-1.43 6.319 4.861 11.476 10.364 14.9a142.625 142.625 0 0 1 -22.118 25.3c.664-5.689-1.286-12.488-6.672-14.438-5.637-2.041-11.438 2.2-15.94 6.16l-19.115 16.815a13.77 13.77 0 0 0 -3.764 4.4c-1.838 4.081.744 8.934 4.27 11.691 1.544 1.207 3.484 2.589 3.3 4.54a5.066 5.066 0 0 1 -1.6 2.757 157.859 157.859 0 0 1 -14.668 14.012c-5.114-3.674-7.539-12.06-13.834-11.922-2.4.052-4.532 1.488-6.5 2.869l-30.724 21.553-3.785 3.867c-1.462 8.29 5.395 17.066 13.792 17.653 4.555.318 10.472-.8 12.555 3.266a13.3 13.3 0 0 1 .888 3.227c1.909 8.5 10.372 13.589 18.051 17.695a4.171 4.171 0 0 0 5.989-.655l22.75-19.877c1.9-1.658 3.856-3.4 4.841-5.718 1.622-3.82.241-8.228.832-12.336a13.291 13.291 0 0 1 12.874-11.022c4.591.056 9.168 2.551 13.6 1.334 2.339-.643 4.274-2.247 6.131-3.809l16.411-13.812c5.627-4.736 11.857-11.414 9.5-18.379-1.039-3.066-3.711-5.769-3.3-8.98a9.8 9.8 0 0 1 2.455-4.63c2.476-3.1 5.41-6.365 9.348-6.873 3.432-.444 6.726 1.337 10.142 1.9 7.212 1.179 14.125-3.132 19.771-7.771a116.881 116.881 0 0 0 13.871-13.468c3.246-3.723 6.438-8.62 4.767-13.268-1.656-4.577-7.572-7.191-7.75-12.044z" fill="#ffda76"/><path d="m453.539 396.1c-2.22-4.687-6.707-7.891-11.324-10.252s-9.571-4.111-13.883-6.993a5.663 5.663 0 0 1 -2.008-1.953c-.929-1.785.057-3.979 1.344-5.526s2.929-2.9 3.575-4.809a7.216 7.216 0 0 0 -1.589-6.65 21.287 21.287 0 0 0 -5.59-4.379c-8.994-5.547-18.04-11.12-27.834-15.085-2.626-1.063-5.6-2.007-8.226-.941-5.183 2.107-4.821 9.669-8.194 14.132a71.179 71.179 0 0 1 -19.231-11.3 26.062 26.062 0 0 0 6.353-10.215 7.446 7.446 0 0 0 .452-4c-.519-2.232-2.652-3.65-4.613-4.838l-28.865-17.49c-2.963-1.795-6.46-3.655-9.719-2.481-3.459 1.246-4.9 5.257-5.918 8.791q-1.316 4.574-2.629 9.146c-6.1-5.208-12.361-10.285-18.193-15.581a5.155 5.155 0 0 1 -1.972-2.9c-.321-2.463 2.616-3.86 4.372-5.617 2.724-2.726 2.739-7.311 1.07-10.785s-4.673-6.089-7.61-8.585a1022.506 1022.506 0 0 0 -83.781-64.053c-2.541-1.743-5.249-3.532-8.323-3.758s-6.537 1.76-6.778 4.833c-6.259-2.592-19.662-12.854-19.343-14.336.307-1.424 1.855-2.134 2.932-3.114 4.381-3.986.466-11.14-3.6-15.446a305.854 305.854 0 0 0 -24.645-23.347c-1.318-1.117-2.892-2.294-4.595-2-1.575.276-2.639 1.714-3.535 3.039l-7.294 10.793a137.692 137.692 0 0 1 -23.231-19.964c6.5-3.167 14.216-9.091 11.629-15.848a14.428 14.428 0 0 0 -3.649-4.835q-11.715-11.6-24.355-22.213a13.676 13.676 0 0 0 -4.43-2.821c-6.228-2-11.418 4.9-14.343 10.749-5.575-2.4-8.892-8.056-13.268-12.263s-11.919-6.833-16.2-2.526l-4.4 4.094c.136 10.179 8.48 18.109 16.193 24.754-6.843.483-10.747 8.922-9.141 15.591s6.833 11.765 11.826 16.469l13.391 12.613c1.717 1.618 3.567 3.306 5.885 3.75 2.858.547 5.677-.922 8.554-1.357 6.587-.994 13.421 4.467 13.9 11.111.209 2.877-.609 5.792-.107 8.633.615 3.482 3.1 6.3 5.535 8.863a232.818 232.818 0 0 0 26.134 23.6c2.649 2.05 5.61 4.136 8.96 4.1 2.678-.031 5.132-1.428 7.74-2.037 7.933-1.852 16.624 5.279 16.357 13.42-.114 3.485-1.588 6.928-1.009 10.366.548 3.248 2.831 5.9 5.125 8.265a111.519 111.519 0 0 0 20.1 16.378c5.548 3.532 13.769 6.192 17.934 1.1 1.349-1.65 2.149-4.031 4.184-4.667 1.941-.606 3.9.742 5.488 2.013l10.367 8.289a152.269 152.269 0 0 0 -7.1 15.353s25.47 20.51 36.5 26.617q-.19-10.312-.382-20.626c-.048-2.608-.046-5.4 1.4-7.572 3.143-4.715 11.058-3.058 14.406 1.514s3.625 10.6 4.386 16.221 2.582 11.781 7.531 14.541c2.326 1.3 5.071 1.66 7.438 2.88s4.415 3.9 3.508 6.406a15.256 15.256 0 0 1 -1.895 2.881c-3.765 5.782 2.082 12.965 7.646 17.047a166 166 0 0 0 17.244 11.079c4.792 2.675 9.961 5.172 15.448 5.1a13.99 13.99 0 0 0 10.181-4.51 8.689 8.689 0 0 1 5.932-.695c3.609 1.116 5.158 5.393 5.421 9.161s-.2 7.759 1.483 11.142c1.575 3.173 4.744 5.2 7.814 6.966q7.13 4.106 14.629 7.521c8.826 4.02 19.522 7.189 27.839 2.2 2.914-1.748 5.317-4.41 8.532-5.51 5.563-1.9 11.408 1.394 16.549 4.248s11.7 5.329 16.6 2.081c4.336-2.867 5.136-9.282 2.915-13.972z" fill="#ffda76"/><path d="m220.346 359.61h54.359l13.553 5.247s6.97 11.607 6.044 29.212-7.246 60.844-37.906 61.153-51.662-22.158-52.9-40.729 0-41.129 0-41.129 4.356-11.764 16.85-13.754z" fill="#ffda76"/><path d="m259.943 299.793v59.817h16.125v-48.327s-4.198-13.728-16.125-11.49z" fill="#d1e3ed"/><path d="m275.408 309.578c-1.585-3.6-6.184-11.526-15.465-9.785v21.638a35.385 35.385 0 0 1 15.465-11.853z" fill="#8da8c6"/><path d="m276.068 339.607c-3.67 1.908-7.42 3.487-11.521 3.778a11.56 11.56 0 0 1 -4.6-.5v16.725h16.125z" fill="#8da8c6"/><path d="m235.631 312.138c-3.941-1.982-8.942-3.295-10.531-7.411-1.648-4.267 1.465-8.791 2.043-13.329a12.093 12.093 0 0 0 -17.583-12.253c-2.528 1.316-5.564 3.539-7.819 1.8l-2.6-2.009c-6.676 1.963-10 11.073-6.164 16.877 1.777 2.686 4.883 5.31 3.951 8.393a7.215 7.215 0 0 1 -2.9 3.37c-.818.614-1.658 1.195-2.492 1.785 8.078 16.094-21.559 32.565-29.861 35.258a10 10 0 0 1 -4.609.725 10.834 10.834 0 0 1 -3.746-1.7c-3.468-2.1-7.259-3.9-11.305-4.146s-8.4 1.346-10.554 4.782c-2.637 4.209-1.376 9.736-2.714 14.52-2.028 7.254-9.429 11.412-16.161 14.79-4.62 2.319-9.813 4.7-14.772 3.239-2.586-.762-4.778-2.5-7.3-3.443-4.387-1.633-9.261-.711-13.846.23a10.117 10.117 0 0 0 -4.541 1.737c-3.627 3.006-1.522 8.9-2.738 13.448-2.107 7.89-12.894 9.207-18.52 15.127a14.221 14.221 0 0 0 -3.338 5.968c4.029.188 8.48-1.891 12.092-4.141 5.145-3.2 11.3-6.826 16.859-4.412 5.253 2.281 7.815 9.306 13.467 10.228 2.8.456 5.568-.781 8.135-1.988l23.351-10.983c3.884-1.826 8.006-3.864 10.133-7.592 2.392-4.194 1.642-9.406 2.55-14.148s5.346-9.785 9.812-7.951c2.306.947 3.592 3.378 5.494 4.99 4.183 3.546 10.479 2.6 15.7.929a82.865 82.865 0 0 0 27.615-15.115c3.28-2.72 6.45-5.846 7.9-9.854 1.557-4.308.936-9.094 1.9-13.573s4.716-9.135 9.217-8.281c4.694.891 7.453 7.283 12.208 6.818a9.089 9.089 0 0 0 3.94-1.728 123.494 123.494 0 0 0 16.618-13.03 23.075 23.075 0 0 0 -8.891-7.927z" fill="#f48a4e"/><path d="m444.29 119.682a18.454 18.454 0 0 0 1.38-22.356 5.136 5.136 0 0 0 -3.459-2.5 5.717 5.717 0 0 0 -3.28 1.109 75.14 75.14 0 0 0 -20.167 17.73c-5.484-2.57-7.884-10.95-13.94-10.831-2.508.049-4.671 1.687-6.608 3.28-2.4 1.974-4.75 4.011-7.069 6.08-.149 1.579-.84 3.667.393 4.832 18.418 17.413-11.838 36.259-11.838 36.259 18.1 31.814-77.231 93.034-77.231 93.034a15.515 15.515 0 0 1 -15.081.644c-9.106-4.781-13.363 7.35-11.28 11.414a13.3 13.3 0 0 1 .888 3.227c1.909 8.5 10.372 13.589 18.051 17.695a4.171 4.171 0 0 0 5.989-.655l22.75-19.877c1.9-1.658 3.856-3.4 4.841-5.718 1.622-3.82.241-8.228.832-12.336a13.291 13.291 0 0 1 12.874-11.013c4.591.056 9.168 2.551 13.6 1.334 2.339-.643 4.274-2.247 6.131-3.809l16.411-13.812c5.627-4.736 11.857-11.414 9.5-18.379-1.039-3.066-3.711-5.769-3.3-8.98a9.8 9.8 0 0 1 2.455-4.63c2.476-3.1 5.41-6.365 9.348-6.873 3.432-.444 6.726 1.337 10.142 1.9 7.212 1.179 14.125-3.132 19.771-7.771a116.881 116.881 0 0 0 13.871-13.468c3.246-3.723 6.438-8.62 4.767-13.268-1.644-4.574-7.56-7.188-7.738-12.045-.168-4.26 4.131-7.065 6.997-10.217z" fill="#f48a4e"/><path d="m256.4 455.222c30.66-.309 36.979-43.548 37.906-61.153s-6.044-29.212-6.044-29.212l-13.553-5.247h-3.449c1.419 6.823 1.466 13.947 1.3 20.95-.272 11.739-1.224 24.01-7.394 34-6.712 10.868-19.118 17.586-31.833 18.824a55.55 55.55 0 0 1 -24.7-3.526c8.156 13.674 25.38 25.59 47.767 25.364z" fill="#f48a4e"/><path d="m90.523 362.7a42.644 42.644 0 0 0 6.514-21.123 381.244 381.244 0 0 0 -34.054 18.291 6.754 6.754 0 0 0 -2.409 2.042c-2.54 4.125 4.86 8.674 3.638 13.361a4.262 4.262 0 0 1 -.285.753c.523.077 1.048.144 1.576.18 9.91.66 19.555-5.211 25.02-13.504z" fill="#fff"/><path d="m316.839 210.5a10.9 10.9 0 0 1 .466-1.347c-4.014 4.207-27.868 20.843-23.087 33.989a6.384 6.384 0 0 0 1.682 3.075 6.255 6.255 0 0 0 4.342.861 24.063 24.063 0 0 0 13.106-4.667c3.71-2.89 1.745-25.373 3.491-31.911z" fill="#fff"/><path d="m336.183 166.88-19.115 16.82a13.77 13.77 0 0 0 -3.764 4.4c-1.838 4.081.744 8.934 4.27 11.691 1.539 1.2 3.468 2.581 3.3 4.522 4.4-4 11-6.553 14.723-11.419 3.36-4.387 4.023-10.2 4.567-15.7q.714-7.227 1.429-14.453a42.49 42.49 0 0 0 -5.41 4.139z" fill="#fff"/><path d="m253.548 233.6-3.785 3.867c-1.1 6.225 2.5 12.723 7.908 15.823a16.691 16.691 0 0 0 9.9-6.343c3.3-4.305 4.781-9.716 5.735-15.053.831-4.647 1.324-9.379 2.535-13.931z" fill="#fff"/><path d="m450.637 410.07c4.323-2.865 5.123-9.28 2.9-13.967s-6.707-7.891-11.324-10.252-9.571-4.111-13.883-6.993a5.663 5.663 0 0 1 -2.008-1.953c-.929-1.785.057-3.979 1.344-5.526s2.929-2.9 3.575-4.809a7.216 7.216 0 0 0 -1.589-6.65 21.287 21.287 0 0 0 -5.59-4.379q-2.368-1.461-4.746-2.911c-4.63 6.265-12.508 10.348-20.377 9.818-7.214-.487-13.794-4.5-18.245-10.2a11.213 11.213 0 0 1 -.886 1.4 71.179 71.179 0 0 1 -19.231-11.3 26.062 26.062 0 0 0 6.353-10.215 7.446 7.446 0 0 0 .452-4c-.519-2.232-2.652-3.65-4.613-4.838l-8.926-5.408c-6.275 3.085-11.707 8.984-18.714 9.153-5.889.141-10.97-3.856-15.483-7.642l-2.8-2.348q-.6 2.106-1.21 4.211c-6.1-5.208-12.361-10.285-18.193-15.581a5.155 5.155 0 0 1 -1.972-2.9c-.321-2.463 2.616-3.86 4.372-5.617 2.724-2.726 2.739-7.311 1.07-10.785s-4.673-6.089-7.61-8.585c-.561-.477-1.13-.943-1.692-1.419-5.509 2.925-10.357 9.426-16.8 9.86-12.111.815-18.221-19.542-30.2-17.566-2.554.422-4.8 1.881-6.961 3.307l-12.736 8.4c-.441.291-.881.6-1.3.929l5.9 4.714a152.324 152.324 0 0 0 -6.652 14.268q.074.782.148 1.562c3.874 3.1 25.866 20.582 35.908 26.14q-.19-10.312-.382-20.626c-.048-2.608-.046-5.4 1.4-7.572 3.143-4.715 11.058-3.058 14.406 1.514s3.625 10.6 4.386 16.221 2.582 11.781 7.531 14.541c2.326 1.3 5.071 1.66 7.438 2.88s4.415 3.9 3.508 6.406a15.256 15.256 0 0 1 -1.895 2.881c-3.765 5.782 2.082 12.965 7.646 17.047a166 166 0 0 0 17.244 11.079c4.792 2.675 9.961 5.172 15.448 5.1a13.99 13.99 0 0 0 10.181-4.51 8.689 8.689 0 0 1 5.932-.695c3.609 1.116 5.158 5.393 5.421 9.161s-.2 7.759 1.483 11.142c1.575 3.173 4.744 5.2 7.814 6.966q7.13 4.106 14.629 7.521c8.826 4.02 19.522 7.189 27.839 2.2 2.914-1.748 5.317-4.41 8.532-5.51 5.563-1.9 11.408 1.394 16.549 4.248s11.708 5.336 16.609 2.088z" fill="#f48a4e"/><path d="m205.594 244.716a80.31 80.31 0 0 0 -12.394-19.375c-2.121-2.454-4.646-4.915-7.859-5.359-5.3-.733-9.719 4.211-15 5.109-6.691 1.138-12.524-4.293-17.133-9.274l-7.345-7.94c-2.527-2.731-5.182-5.734-5.583-9.433-.393-3.631 1.489-7.134 1.664-10.782.272-5.658-3.521-10.651-7.434-14.747a10.6 10.6 0 0 0 -3.859-2.915 8.473 8.473 0 0 0 -4.682-.062c-7.051 1.579-13.689 7.515-20.563 5.29-9.374-3.034-10.447-18.768-20.175-20.33-5.409-.869-10.133 3.4-15.262 5.325a40.45 40.45 0 0 1 -8.517 1.807l12.915 12.17c1.717 1.618 3.567 3.306 5.885 3.75 2.858.547 5.677-.922 8.554-1.357 6.587-.994 13.421 4.467 13.9 11.111.209 2.877-.609 5.792-.107 8.633.615 3.482 3.1 6.3 5.535 8.863a232.818 232.818 0 0 0 26.134 23.6c2.649 2.05 5.61 4.136 8.96 4.1 2.678-.031 5.132-1.428 7.74-2.037 7.933-1.852 16.624 5.279 16.357 13.42-.114 3.485-1.588 6.928-1.009 10.366.548 3.248 2.831 5.9 5.125 8.265a111.519 111.519 0 0 0 20.1 16.378c5.548 3.532 12.676 5.053 17.934 1.1 10.452-7.858-3.881-35.676-3.881-35.676z" fill="#f48a4e"/><g fill="#fff"><path d="m94.739 107.541a13.676 13.676 0 0 0 -4.43-2.821c-6.228-2-11.418 4.9-14.343 10.749-5.575-2.4-8.892-8.056-13.268-12.263s-11.919-6.833-16.2-2.526l-4.4 4.094a22.043 22.043 0 0 0 3.963 11.848 52.8 52.8 0 0 0 14.625 8.7c10.355 3.986 22.438 4.093 32.285-1.022a31.553 31.553 0 0 0 10.619-9.072c-2.913-2.6-5.857-5.173-8.851-7.687z"/><path d="m130.7 167.817 6.416 10.35c9.286 3.736 20.587 1 27.63-5.991-4.847-4.69-9.829-9.24-14.976-13.6-1.318-1.117-2.892-2.294-4.595-2-1.575.276-2.639 1.714-3.535 3.039l-7.295 10.785c-1.231-.838-2.445-1.7-3.645-2.583z"/><path d="m201.2 209.986c-3.074-.225-6.537 1.76-6.778 4.833a33.938 33.938 0 0 1 -4.143-2.162 6.5 6.5 0 0 0 .34 5.769l7.83 11.668a28.59 28.59 0 0 0 17.936 2.713c3.451-.612 7-2.038 8.941-4.958a8.9 8.9 0 0 0 1.058-2.265q-8.376-6-16.861-11.84c-2.538-1.744-5.246-3.532-8.323-3.758z"/><path d="m342.712 311.147-8.806-5.336c-2.963-1.795-6.46-3.655-9.719-2.481-3.459 1.246-4.9 5.257-5.918 8.791l-.85 2.956a18.458 18.458 0 0 0 25.293-3.93z"/><path d="m396.23 340.456c-2.626-1.063-5.6-2.007-8.226-.941-4.74 1.927-4.85 8.409-7.412 12.918a13.744 13.744 0 0 0 10.478 2.281c5.337-1.036 9.8-4.93 12.592-9.6.2-.33.387-.668.569-1.01-2.621-1.311-5.28-2.546-8.001-3.648z"/><path d="m246.349 359.61h-26c-12.497 1.99-16.849 13.754-16.849 13.754s-.5 9.113-.544 20.519c.832.161 1.669.3 2.51.384a37.015 37.015 0 0 0 29.965-11.346 41.691 41.691 0 0 0 10.918-23.311z"/><path d="m203.218 380.088c-.273 8.089-.537 22.117.28 34.4a35.008 35.008 0 0 0 5.135 15.365c-3.18-28.543 9.286-42.257 9.286-42.257z"/></g></g><g id="Layer_5" fill="#3a3245" data-name="Layer 5"><path d="m137.166 104.028c-3.769-3.717-9.3 1.812-5.579 5.579 3.561 3.674 9.253-2.018 5.579-5.579z"/><path d="m153.66 69.586c3.535 3.6 9.075-1.972 5.489-5.49-3.535-3.596-9.075 1.973-5.489 5.49z"/><path d="m118.023 280.166c-1.8-5.5-9.46-1.955-7.368 3.063 1.834 4.576 8.753 1.286 7.368-3.063z"/><path d="m365.4 113.427c3.574 3.7 9.293-2.09 5.654-5.655-3.566-3.639-9.354 2.081-5.654 5.655z"/><path d="m343.385 72.493c3.535 3.6 9.075-1.972 5.49-5.49-3.639-3.561-9.033 1.874-5.49 5.49z"/><path d="m389.541 280.831c-.545-5.108-8.411-4.15-7.64.935.724 5.254 8.788 4.679 7.64-.935z"/><path d="m247.174 206.693c.164 5.575.021 11.213.535 16.768.375 4.066 6.248 4.192 6.422 0 .236-5.655-.176-11.38-.33-17.037 9.548-5.205 5.5-28.267-7.576-21.1-7.857 4.596-7.461 17.742.949 21.369z"/><path d="m35.485 404.127c5.467 11.988 11.243 11.885 21.961 6.046 1.559 8.079-.095 18.432 7.117 24.038 3.755 2.778 8.088 2.663 12.5 2.83q14.283.543 28.566 1.086c4.28 7.785 15.756 5.527 23.226 6.072 7.92-.441 21.823 4.275 27.077-2.8 18.9.6 37.822.518 56.723.5 17.27 20.8 56.114 24.067 71.426-.535 19.622-.341 39.228-.6 58.823-1.755 4.585 8.859 16.387 4.905 24.337 4.777 8.894-1.337 21.375 2.236 27.25-6.271q13.857-.539 27.714-1.05c16.162 1.248 19.551-9.067 19.978-23.255 7.819 4.375 13.3-1.8 16.3-8.622 5.738-9.948-6.365-15.227-13.35-19.548 5.543-58.791 8.491-118.027 5.844-177.062 4.311-.782 13.812 2.528 14.449-3.706a165.417 165.417 0 0 0 -.749-33.054c.775-5.115-5.083-7.405-8.58-10.52a68.6 68.6 0 0 1 -9.758-10.972c8.5-5.78-.009-17.873-6.361-21.818a91.168 91.168 0 0 0 12.15-13.772c5.006-3.448 3.389-9.941-.108-13.869-2.633-3.235-5.091-7.27-9.615-7.785-8.437-.561-14.522 9.917-20.152 14.79-13.53-26.847-34.014-46.472-64.189-52.351a64.1 64.1 0 0 0 -27.752-12.721 82.4 82.4 0 0 0 -21.241-1.272c-3.978.278-5.688 3-7.68 5.983a854.069 854.069 0 0 0 -102.772 0c-1.994-2.987-3.7-5.695-7.68-5.983a81.7 81.7 0 0 0 -21.239 1.272 64.066 64.066 0 0 0 -27.76 12.721c-27.727 5.507-49.832 23.419-61.519 49.006a47.7 47.7 0 0 0 -5.376 7.751c-7.043-5.6-13.59-18.3-23.482-18.121-4.512.514-6.987 4.556-9.615 7.785-3.5 3.929-5.115 10.425-.11 13.868a91.222 91.222 0 0 0 12.175 13.8c-3.268 1.493-5.222 5-7.319 7.834-3.439 4.315-4.043 10.693.991 13.971.846 1.095 1.724 2.172 2.659 3.218a62.657 62.657 0 0 1 -7.732 7.8c-3.176 2.2-8.392 4.772-7.262 9.43a186.583 186.583 0 0 0 -.765 33.018c.735 6.3 10.082 2.887 14.447 3.706-2.593 57.605.187 115.4 5.43 172.788-7.834 5.442-25.394 10.433-18.977 22.752zm36.491-32.642c-4.748.425-9.826-8.411-4.579-11.412 9.263-6.073 19.765-10.542 29.645-15.551 3.818-2.031 9.7-5.139 10.591 1.23 1.759 3.656 3 7.56-1.5 9.578-11.461 5.315-22 12.415-34.157 16.155zm-29.334-198.285c6.5-.448 13-.981 19.5-1.514 1.892 2.328 4.633 4.077 6.935 6.026 4.908 4.217 10.237 10.891 17.541 8.826.615.438 1.605 10.228 1.667 14.644l-46.475-.009a191.143 191.143 0 0 1 .832-27.973zm38.821-54.8c-2.12-2.988.579-5.37 2.339-7.713 2.8-5.4 5.892-3.172 9.433.3 8.664 7.482 17.012 15.407 24.919 23.686 1.805 1.89 2.947 3.409 1.426 5.887-5.908 7.187-7.34 6.362-13.931.513-8.518-6.636-15.839-14.6-23.768-21.866a3.366 3.366 0 0 0 -.418-.807zm23.192-5.827c-.662-.607-1.368-1.308-2.106-2.05q4.606-.261 9.215-.467-.945 3.692-1.79 7.375c-1.784-1.64-3.568-3.258-5.319-4.863zm33.824 60.256c-1.9-2.438 1.662-6.136 2.874-7.906.593-.865 1.131-2.039 2.093-2.548 2.689-1.424 6.147 2.44 8.226 4.1 8.51 7.446 18.35 14.24 25.836 22.7 2.434 3.317-.042 5.823-2.724 8.205-1.354 1.2-2.488 2.405-4.742 1.777-2.08-.58-4.837-3.359-6.522-4.606-8.566-6.345-15.962-14.3-24.473-20.636a3.478 3.478 0 0 0 -.568-1.091zm261.564-62.312c3.211-3.122 7.064-7 9.848-1.263 2.258 2.673 4.815 5.595 2.194 8.886-8.064 6.557-14.989 14.683-23.068 21.3-3.457 2.829-7.549 7.3-11.5 3.251-3.067-3.137-5.7-4.9-1.7-9.084 7.695-8.066 15.814-15.785 24.226-23.095zm58.157 90.654-46.482.008q.13-9.663-.4-19.33c8.339.146 15.394-5.723 21.847-10.51 8.066.659 16.133 1.328 24.207 1.865a191.061 191.061 0 0 1 .828 27.967zm-17.682 163.686q-2.7-.014-5.392-.017c.412-3.651-1.328-6.844-4.984-9.141a279.326 279.326 0 0 0 -24.776-13.329c1.238-18.792 2.3-37.694 2.919-56.619 12.164.061 24.329.073 36.492-.028q-1.069 39.609-4.259 79.134zm-150.911-1.271a21.329 21.329 0 0 0 -9-4.914q.222-10.683.44-21.367c1.256-.887 2.429-1.891 3.732-2.706a52.12 52.12 0 0 1 7.859 4.768c-3.614 8.352-4.931 18.347 3.271 24.167q-3.151.024-6.302.052zm-82.48.535c-3.691 0-7.386.044-11.078.06 8.162-4.925 13.347-13.523 10.131-22.775a11.757 11.757 0 0 1 2.047-4.146 10.163 10.163 0 0 1 4.445-.942 139.52 139.52 0 0 0 .942 23.98 26.914 26.914 0 0 0 -6.487 3.823zm-92.148-17.148c-1.709-6.833-6-14.177-14.2-11.3q-3.266-54.207-2.434-108.437c11.074 3.307 21.652 8.12 32.611 11.743q.02 38.772 2.328 77.486c-13.226 7.234-13.514 14.109-3.684 25.046-4.6 2.608-9.318 5.08-13.965 7.807a17.126 17.126 0 0 0 -.656-2.345zm-59.906-127.38c12.22.471 24.453.733 36.687.9-.8 19.563-.758 39.21-.214 58.84q-18.218 0-36.437.044-.679-29.877-.036-59.784zm126.948-34.934a263.827 263.827 0 0 0 -19.743-17.747q35.841-1.631 71.729-2.1a40.2 40.2 0 0 0 -23.436 36.381q-15.247 0-30.494-.006c4.883-4.714 7.532-11.237 1.944-16.528zm203.388 152c-4.882 2.5-6 8.679-7.547 13.453-4.5-2.626-9.051-5.01-13.5-7.533 5.671-5.594 10.9-15.933 2.05-21.136q2.551-40.829 2.5-81.734c10.784-4.307 21.837-7.881 32.766-11.759q.8 55.531-2.658 110.986c-4.478-2.324-9.42-4.236-13.611-2.274zm-246.343 7.117c3.622-2.246 8.416-4.843 9.877.963 1.627 3.23 3.507 6.572.1 9.237-9.376 4.464-18.017 10.724-27.421 15.24-3.794 1.821-9.221 5.147-11.966.523-2.225-3.746-4.418-6.139.412-9.247 9.373-6.028 19.101-11.592 28.998-16.713zm86.1-163.433c9.56-11.655 25.46-11.4 39.384-8.211 14.223 6.969 19.558 22.935 17.541 37.874-7.754 6.176-14.552 11.533-22.019 17.75a21.578 21.578 0 0 1 -13.887 4.543c-11.593-1.135-21.616-10.267-27.972-19.74-1.413-11.336-.813-23.116 6.955-32.213zm116.414-14.363c3.021-2.606 8.193-8.541 10.794-2.479 1.89 2.5 5.3 6.08 2.546 9.342-8.266 6.163-15.465 13.893-23.75 20.1-3.4 2.55-7.711 7.148-11.7 3.686-2.748-2.385-5.533-5.146-3.012-8.525 7.36-8.204 16.823-14.861 25.122-22.124zm42.32 195.583c4.355 2.214 3.166 5.643.657 8.835-1.59 5.5-8.164 1.99-11.4.275-9.836-4.434-18.825-10.441-28.235-15.627-4.177-3.342-.459-7.4.967-11.242 2.369-3.373 5.468-.779 8.2.624 10.183 5.224 20.183 10.94 29.811 17.135zm12 43.535c-10.027-4.083-19.271-10.053-29.2-14.232-3.32-2.409-1.966-5.565-.609-8.627a13.435 13.435 0 0 1 1.2-3.234c2.084-2.63 6.219-.061 8.689 1.059 10.219 5.012 21.038 9.5 30.621 15.65 4.087 2.979 2.212 5.083.308 8.7-2.509 4.756-6.95 2.341-11.018.686zm-82.569-43.9c-4.534-2.58-8.9-5.7-13.571-8.049-4.15-3.357-.406-7.416 1.036-11.245 2.387-3.349 5.485-.728 8.206.684 10.155 5.272 20.133 11.032 29.723 17.278 4.336 2.228 3.111 5.672.593 8.844-.387.647-1.05 2.389-1.73 2.744-4.614 2.107-19.17-7.954-24.266-10.254zm-146.449 6.252c-3.454 1.658-9.844 5.584-11.969.6-2.471-3.176-4.268-6.957.348-9.255 9.336-6.081 19.042-11.692 28.913-16.855 2.8-1.464 6.522-4.527 8.987-1.171 1.454 3.715 5.163 8.085 1.062 11.31-9.361 4.513-17.97 10.814-27.35 15.373zm76.138-53.18c-3.793-2.808-12.849-7.3-10.812-12.7 1.8-3.449 3.508-8.585 8.538-6.054 5.681 2.914 10.752 7.507 16.11 11.022 0 5.883-.026 11.254-.154 17.06q-7.026-4.386-13.682-9.328zm76.38 14.488c-.669 1.615-3.988 6.478-5.418 6.93-1.943.615-6.3-2.45-8-3.369a271.942 271.942 0 0 1 -24.482-15.284 18.855 18.855 0 0 0 -3-10.65c1.369-2.8 2.662-5.384 6.479-3.3 4.291 2.348 8.456 4.966 12.589 7.579q5.536 3.5 10.953 7.184c3.065 2.088 12.631 6.673 10.879 10.91zm-109.5-110.776c9.109 7.279 19.324 14 27.427 22.372 2.66 3.284.358 5.751-2.281 8.292-1.281 1.234-2.444 2.57-4.657 2.074-11.612-6.386-20.975-16.731-31.89-24.173-2.778-3.112.059-6.433 1.878-9 2.098-5.493 6.417-2.229 9.523.435zm116.492-10.408c3.241-2.934 8.153-7.244 10.571-1.3 2.1 2.7 4.552 5.735 1.752 8.909-8.3 6.351-15.543 14.2-23.926 20.519-3.63 2.736-7.187 6.485-11.245 2.942-3.166-2.764-5.186-5.106-2.16-8.819 7.531-8.125 16.616-15.006 25.005-22.251zm-110.912 58.885c-2.778-3.1.038-6.434 1.859-9 2.1-5.49 6.4-2.253 9.522.416 4.77 3.494 9.427 7.137 14.005 10.878 4.327 3.535 9.928 7.115 13.457 11.451 2.671 3.281.376 5.746-2.261 8.3-3.558 4.8-7.974.256-11.338-2.28-8.802-6.043-16.496-13.74-25.244-19.765zm77.533 31.655c-12.1-5.84-22.506-15.286-33.488-22.992-2.944-3.035-.419-6.273 1.341-8.988 1.887-5.518 6.45-2.664 9.479-.171 4.621 3.094 9.154 6.318 13.619 9.631 4.855 3.6 10.584 7.125 14.782 11.493 3.137 3.264.531 5.424-1.664 8.3-1.012 1.325-2.069 2.965-4.069 2.727zm-7.78-29.523c6.309-5.446 12.725-10.772 19.343-15.84 4.263-2.7 13.072-13.417 16.908-5.8 6.261 6.87 1.047 10-4.645 14.219a244.263 244.263 0 0 1 -20.806 15.53c-3.541-2.781-7.159-5.475-10.8-8.109zm-75.6 1.843c2.789 3.178.438 5.755-2.161 8.312-1.262 1.241-2.432 2.615-4.633 2.153-11.673-6.276-21.137-16.543-32.124-23.882-2.812-3.1-.044-6.4 1.764-9 2.01-5.541 6.487-2.271 9.515.308 4.806 3.456 23.899 17.841 27.643 22.109zm-12.79 14.226c7.223 5.627 13.376 2.376 17.882-4.69 1.218 2.029 3.775 3.185 5.621 4.671-5.844 3.716-11.8 9.555-18.369 11.868-3.48.991-5-1.838-6.828-4.468-2.757-2.66-1.301-5.506 1.694-7.381zm35.621 40.8c-3.081 2.186-7.122 4.911-9.349.133-1.025-1.369-2.733-2.942-3.126-4.67-.758-3.329 5.611-7.274 9.176-9.636 3.823 2.993 7.593 6.119 11.5 9-2.691 1.78-5.419 3.513-8.201 5.169zm72.421-41c-.042-.056-.08-.113-.123-.168h.052c.022.051.051.108.071.163zm16.223-14.737c4.063-3.748 8.849-7.3 12.177-11.743 4.37-5.363 1.906-10.158 1.569-15.785.793-4.712 5.709-7.58 10.412-7.484 3.394 1.639 5.85 2.3 8.959 2.03q.237 20.36-.23 40.715c-13.948.269-27.9.4-41.851.5q4.485-4.117 8.964-8.238zm-129.758-49.254c-.024.068-.049.137-.071.205l-.214-.2zm-45.593 17.9c3.964-.7 6.712-3.687 9.844-5.952 3.422 3.269 6.845 6.378 10.408 9.555-13.445 16.459-1.829 26.828 11.854 36.831q-15.907.09-31.813.22-.471-20.323-.293-40.652zm59.313 65.921c3.193-2.295 8.381-5.466 9.974.157 1.788 3.04 4.143 6.7.611 9.418-9.01 4.963-17.214 11.627-26.261 16.616-3.391 1.822-9.452 6.658-11.975 1.443-2.415-3.225-5.108-6.449-.355-9.313 8.657-6.857 18.509-12.711 28.006-18.319zm110.805 5.835a17.529 17.529 0 0 0 -1.311 4.136q-6.965-4.816-14.114-9.36c7.6-4.013 13.177-12.423 11.976-20.677 13.81-.11 27.621-.249 41.428-.521q-.384 14.516-1.064 29.022c-12.485-5.703-30.036-24.863-36.915-2.598zm84.7-109.037c-.064.027-.111.062-.17.091h-3.9c1.023-5.026-.792-10.686-3.876-15.161a9.1 9.1 0 0 1 10.288-6.789c.075.049.148.091.222.137.289 6.212 4.597 18.579-2.56 21.724zm-16.268.17a3.654 3.654 0 0 0 -.414.661c-8.06 6.6-15.792 13.932-24.1 20.293-3.447 2.528-7.757 7.066-11.729 3.542-2.737-2.43-5.475-5.179-2.89-8.553 7.453-8.123 16.947-14.711 25.326-21.891 1.768-1.392 5.831-5.712 8.337-5.026 1.15.315 1.868 1.793 2.474 2.7 1.245 1.852 5.015 5.732 3 8.276zm-100.975 16.2c1.879-1.359 5.449-5.114 8.075-3.934 1.5 1.08 1.9 2.917 3.191 4.35 1.787 2.782 3.151 4.741.869 7.606-8.487 5.873-15.96 13.37-24.47 19.286-3.558 2.473-7.884 6.835-11.8 3.144-2.707-2.551-5.318-5.265-2.557-8.622 7.965-8.124 17.809-14.723 26.696-21.832zm-90.747 13.442c3.219 3.911.886 5.47-1.87 8.5-3.615 3.977-7.288.548-10.815-2.082-8.672-6.829-16.935-14.571-25.093-21.805-2.288-2.989.27-5.392 1.939-7.791a13.575 13.575 0 0 1 1.97-2.83c2.682-2.041 6.03 1.466 8.152 3.178 4.332 3.498 22.075 18.403 25.717 22.83zm-43.792-12.627c2.494 3.308.065 5.8-2.606 8.229-1.334 1.211-2.476 2.448-4.72 1.856-11.438-6.685-20.527-17.235-31.238-24.958-2.594-2.969.462-6.833 2.192-9 2.462-5.8 7.194-1.313 10.326 1.412 4.388 3.443 22.7 18.023 26.046 22.46zm-1.769 90.034q-.492-11.46-.815-22.923 19.78-.189 39.563-.289c-3.376 6.781 2.371 14.485 7.438 18.928-4.62 2.894-9.315 5.839-13.848 8.965-6.055-23.437-17.645-13.343-32.338-4.682zm116.3 16.557c.187-6.761.192-13.319.26-20.114 13.544.823 11.034 16.647 10.782 26.337q-.253 11.474-.473 22.948c-3.841.1-7.711-.769-11.6-.4q.7-14.379 1.028-28.772zm98.9 10.071c-1.672 5.87-8.032 1.789-11.417.053-9.766-4.57-18.664-10.7-27.994-16.016-3.26-2.657-1.555-5.753.107-8.872 1.6-5.717 5.428-4.09 9.272-1.578a298.032 298.032 0 0 1 29.561 17.554c4.447 2.364 2.97 5.624.471 8.858zm-201.254-27.052c3.561-2.273 8.375-5.023 9.905.762 1.676 3.194 3.658 6.535.278 9.259-12.057 5.443-22.609 15.743-35.64 18.677-2.458.009-2.43-.529-3.519-2.307a26.085 26.085 0 0 1 -2.337-3.811c-1.066-2.786.138-3.792 2.557-5.457a301.6 301.6 0 0 1 28.756-17.123zm-73.592 86.763c9.327-5.984 19.858-10.361 29.788-15.274 2.7-1.231 7.2-4.12 9.522-1.436a10.715 10.715 0 0 1 1.039 2.807c1.351 3.133 2.945 6.62-.447 9.052-9.5 4.007-18.365 9.711-27.917 13.7-4.266 1.78-8.971 4.8-12.093.235-2.37-3.464-3.74-6.251.108-9.084zm243.394-228.046a249.76 249.76 0 0 0 -18.826 16.991c-6.131 5.729-2.283 12.758 2.917 17.594l-25.358.006a40.447 40.447 0 0 0 -23.535-36.391q32.415.407 64.802 1.8zm-92.659 180.072c-.087-2.177-.115-4.369-.206-6.556 3.948-1.937 8.776-4.417 12.278-7.534 2.023 1.515 4.066 3.052 6.211 4.356q-.248 9.957-.578 19.912c-5.8.085-11.445.054-17.235-.118.174-3.332-.341-6.804-.47-10.06zm188.2 22.795c-2.807 5.2-8.1 1.483-11.926.164-9.743-4.469-19.271-9.77-28.7-14.723-2.914-2.326-.991-5.34.041-8.051 1.04-6.4 5.7-4.3 9.925-2.039 10.167 5.111 20.956 9.69 30.474 15.935 4.035 3.011 2.117 5.128.187 8.714zm-17.837-90.135c.537-19.672.56-39.357-.238-58.959 12.235-.157 24.47-.367 36.7-.79q.678 29.9-.017 59.794-18.221-.077-36.444-.045zm-23.8-124.886c3.219-3.121 7.073-6.976 9.849-1.241 2.195 2.607 4.789 5.639 2.176 8.887-8.074 6.546-15.012 14.662-23.1 21.263-3.464 2.826-7.559 7.281-11.51 3.227-3.065-3.144-5.686-4.907-1.679-9.087 7.71-8.045 15.838-15.752 24.262-23.049zm-40.376-21.117c.419 8.119 1.417 25.476-9.707 26.886-28.173-1.3-114.665-6.926-171.541.114-2 .247-3.831-1.238-5.346-2.683-6.941-7.093.266-37.29 2.974-46.739 59.976-2.333 120.12-1.6 180.058 1.384a102.349 102.349 0 0 1 3.562 21.038zm-210.74 45.235c3.712 3.158 1.907 6.213-1.344 8.743-3.072 5.192-8.288.286-11.145-2.317-8.528-6.623-15.863-14.579-23.8-21.831-2.545-3.206-.273-5.98 1.9-8.52a14.946 14.946 0 0 1 1.953-2.609c2.623-2.16 5.459 1.148 7.478 2.887 8.677 7.468 17.035 15.383 24.957 23.647zm-41.815 107.187c.583 17.59 1.538 35.158 2.641 52.629-9.52 6.027-29.475 12.542-35.286 21.23q-2.783-36.9-3.833-73.887c12.158.101 24.319.089 36.478.028zm-9.763 145.1c-16.531.717-16.3-2.89-17.761-17.878 3.349-1.219 8.046-4.878 11.93-5.518 4.666 9.057 16.239 11.3 25.3 7.629.7 5.548 1.358 11.1 2.176 16.635q-10.827-.429-21.645-.87zm36.641 6.53c-3.242-.166-6.876.167-8.293-3.646-2.023-6.718-1.605-14.348-2.8-21.266 9.963-6.556 27.3-10.805 32.207-22.015 1.548 13.87 3.313 27.728 5.5 41.491-.238 2.542-1.581 5.467-4.037 6.591zm39.189-2.47c.4-6.083-1.489-13.49-2.052-18.14-1.433-11.844-2.629-23.706-3.745-35.576 8.938 6.531 24.439-6.761 33.243-10.609l16.675-.108c-6.153 20.55-4.4 46.066 6.1 64.9-16.739.013-33.492.029-50.221-.469zm103.248 15.425c-40.384 7.477-58.5-26.528-55.1-62.331-.7-23.265 16.207-25.384 35.205-24.356 11.147 1.085 35.132-2.29 42.91 4.241 4.666 3.932 4.625 11.4 5.113 17.027 1.46 23.204-2.909 56.711-28.128 65.419zm60.483-16.124q-16.806.39-33.613.617a95.256 95.256 0 0 0 5.778-65q5.611-.048 11.222-.1c10.411 5.272 31.23 18.9 43.192 10.769-1.66 17.737-3.578 35.422-6.16 53.041q-10.213.45-20.419.673zm66.469 1.838c-1.945 1.556-4.956 1.245-7.309 1.366l-21.885 1.12c-2.445-1.12-3.8-4.026-4.036-6.557 1.821-11.416 3.332-22.9 4.679-34.4 8.787 9.04 21.008 14.267 32.549 18.939-1.461 5.799.212 15.203-3.998 19.532zm39.58-5.587c-10.322.577-20.692.737-31.028 1.246.547-4.674 1.018-9.168 1.649-13.784 7.623 1.065 15.631-3.14 19.571-10.163 6.07 3.006 12.011 5.832 17.755 9.369-.454 6.062-1.589 12.677-7.947 13.332zm25.389-28.483a56.583 56.583 0 0 1 -3.4 5.731c-3.021 1.981-7.341-.748-10.033-2.024-9.836-4.434-18.824-10.442-28.236-15.628-3.3-2.618-1.681-5.687-.062-8.847 1.535-5.729 5.325-4.251 9.233-1.77 10.182 5.223 20.182 10.939 29.806 17.135 2.216 1.428 3.611 2.623 2.692 5.403zm-21.129-23.754c-.842-.464-1.758-1.019-2.719-1.608a20.37 20.37 0 0 0 3.567-5.349c2.431 0 4.861-.029 7.292-.05q-.458 5.483-.951 10.964c-2.41-1.337-4.819-2.651-7.189-3.957zm10.737-232.683a2.691 2.691 0 0 0 -.379.771c-7.871 6.369-14.723 14.139-22.615 20.539-3.64 2.952-7.59 7.549-11.939 3.984-3.208-2.629-5.369-5.014-2.519-8.756 7.284-8.343 16.227-15.447 24.4-22.923 2.082-1.785 5.987-6.326 8.773-4.126 1.89 3.005 6.837 6.757 4.279 10.511zm-7.443-41.3c2.827-3.112 6.767-7.1 9.756-1.918 2.448 2.628 5.273 5.371 2.739 8.872-10.118 8.482-17.719 20.827-29.21 27.507-2.354.665-2.679.1-4.248-1.373a26.5 26.5 0 0 1 -3.258-3.062c-1.77-2.4-.913-3.684.986-5.938a297.641 297.641 0 0 1 23.235-24.085zm-26.026-4.083c-7.963-2.746-15.149 7.286-20.355 11.838-3.969-16.111-9.617-32.576-19.948-45.649 17.511 5.395 30.954 18.463 40.303 33.811zm-47.862-32.235c12.144 13.7 17.695 31.827 21.817 49.278-12.74 12.34-26.269 20.884-4.658 33.8-5.518 5.661-10.978 10.114-16.588 15.633a24.782 24.782 0 0 0 -2.574-4.592c-3.055-39.22-13.109-83.685-45.723-109.044a4.089 4.089 0 0 1 1.638-4.757c17.53.292 34.013 6.057 46.088 19.682zm-111.253-15.754c17.022.188 34.043.679 51.023 1.925 20.939 12.9 31.758 28.331 37.976 52.1q-88.005-5.041-176.238-1.7c6.487-17.031 17.957-42.791 35.4-50.336 17.252-1.297 34.545-1.798 51.839-1.989zm-65.164-3.927a4.027 4.027 0 0 1 1.657 4.639c-31.179 24.259-41.282 65.836-45.334 103.334-4.174 2.274-6.908 7.365-9.025 11.493-5.606-5.518-11.08-9.977-16.587-15.636 3.456-1.115 6.2-4.43 8.533-7.014 8.023-8.352-2.6-16.417-8.418-22.3 6.666-37.669 25.956-75.16 69.174-74.516zm-73.954 28.685a72.124 72.124 0 0 1 20.313-10.578c-8.592 10.854-13.865 23.938-17.714 37.357q-8.518.436-17.028 1.023a18.876 18.876 0 0 0 -5.957-3.5c5.56-9.044 11.999-17.788 20.386-24.302zm-64.561 35.338c-3.049-4.44 1.669-7.194 4.122-10.559 3.185-2.519 5.5.9 7.71 2.979a294.379 294.379 0 0 1 23.9 24.716c3.653 3.461 1.315 6.213-1.923 8.671-.768.723-1.842 2.119-2.908 2.355-2.43.537-6.535-3.954-8.119-5.354-8.217-6.975-15.186-15.225-22.782-22.808zm7.288 26.61c2.855-6.031 6.633-2.6 10.124.758q6.355 5.421 12.436 11.154c4.165 3.907 9.169 7.83 12.655 12.36 3.05 3.963.582 5.526-2.22 8.446-3.937 4.1-8-.271-11.534-3.1-8.168-6.548-15.207-14.552-23.315-21.106-2.503-3.227-.308-5.945 1.854-8.512zm-9.933 256.631c11.521-7.064 22.945-14.622 35.649-19.32 1.643.075 2.815 2 3.223 3.567 1.627 3.231 3.507 6.572.1 9.237-9.376 4.464-18.017 10.724-27.421 15.24-3.794 1.822-9.221 5.147-11.967.524-2.221-3.746-4.415-6.139.416-9.248z"/><path d="m254.766 381.616c-11.561-9-23.76 12.278-10.3 17.973-.818 7.587-4.624 30 4.122 33.2 5.9 1.511 4.9-6.8 4.875-10.012q-.1-11.331-.581-22.664c7.175-2.549 7.996-14.154 1.884-18.497z"/></g></svg>