<svg height="512" viewBox="0 0 500 500" width="512" xmlns="http://www.w3.org/2000/svg"><g id="Layer_4" data-name="Layer 4"><path d="m376.382 318.835c-.466-2.714-1.147-5.759-3.5-7.189-1.419-.861-3.21-.956-4.6-1.86-1.807-1.175-2.538-3.413-3.2-5.463-9.165-28.245-31.043-53.413-59.726-61.1-12.927-3.463-26.508-3.323-39.889-3.159l-43.228.529a44.343 44.343 0 0 1 -9.3-.541c-2.852-.575-5.57-1.707-8.429-2.244-6.734-1.265-13.616.851-20.022 3.283-29.4 11.158-57.794 32.162-65.684 62.6 0 0-16.652 16.242-3.064 42.059 2.447 4.649.992 10.446.845 15.7-.889 31.989-2.5 64.378 4.262 95.656 1.617 7.471 4.58 15.851 11.731 18.553 3.9 1.472 8.219.882 12.374 1.144 10.533.665 20.484 6.894 30.969 5.681 2.915-.337 5.73-1.245 8.6-1.846 5.662-1.186 11.5-1.17 17.283-1.149l82.99.3 30.907.111c12.362.045 24.816.081 36.955-2.254a7.975 7.975 0 0 0 3.6-1.353c1.593-1.29 2-3.515 2.286-5.544a740.935 740.935 0 0 0 6.877-131.571c4.427 1.557 9.325-2.025 10.933-6.433s.824-9.285.03-13.91z" fill="#f7978d"/><g fill="#bf4c4c"><path d="m305.777 468.318c-4.443-1.452-9.251-.972-13.909-.59a286 286 0 0 1 -63.9-1.937c-7.133-1.022-14.573-2.468-20.143-7.04-6.77-5.556-9.439-14.578-11.486-23.093a417.329 417.329 0 0 1 -11.429-87.837l-6.273-3.053c-4.63-3.351-11.622-.534-14.675 4.3s-3.242 10.875-3.309 16.591c-.46 39.307.595 79.195 11.344 116.958a24.723 24.723 0 0 0 3.917-.131c2.915-.337 5.73-1.245 8.6-1.846 5.662-1.186 11.5-1.17 17.283-1.149l82.99.3 29.058.1a8.42 8.42 0 0 0 .2-1.465c.174-4.669-3.825-8.655-8.268-10.108z"/><path d="m372.7 337.66v-.784l-257.886 7.011c.3.618.594 1.236.925 1.865a11.1 11.1 0 0 1 .883 2.3l3.837 2.908 104.923 4.118 6.278 19.542 46.862 15.08.852-16.26a11.037 11.037 0 0 0 -1.493-6.148 11.037 11.037 0 0 1 -1.5-6.077l.282-6.132 57.9 3.724s-1.7 26.414 0 26.494c1.217.057 20.344-1.223 31.139-1.956q.5-22.08-.3-44.164a7.76 7.76 0 0 0 7.298-1.521z"/><path d="m124.287 435.968h214.735l-1.725 14.433-213.01-7.216z"/><path d="m355.466 476.8a34.562 34.562 0 0 0 2.747-7.06c.316-1.075.6-2.158.9-3.239q4.425-32.463 5.968-65.232c-.51-6.01-1.3-12-2.391-17.927-43.106-2.59-200.955 1.861-236.595-.578-2.125-.145-4.39-.267-6.246.779s-2.933 3.74-1.564 5.372l3.285-.707a363.287 363.287 0 0 0 80.714 7.191c5.132-.118 10.818-.158 14.668 3.239 6.249 5.514 3.574 15.876 6.875 23.528 2.409 5.585 7.983 9.326 13.859 10.895s12.078 1.252 18.132.664c7.774-.755 11.811-2.424 16.424-8.727 5.16-7.05 3.278-17 6.363-25.176a227.513 227.513 0 0 1 39.195 1.9c2.95.453 6.2 1.171 7.91 3.618 1.377 1.969 1.38 4.552 1.332 6.954q-.561 27.862-1.123 55.726c-.079 3.923.195 8.42 1.818 11.839a144.607 144.607 0 0 0 24.914-2.213 10.353 10.353 0 0 0 2.815-.846z"/></g><path d="m179.03 264.92c27.308 0 49.446-10.643 49.446-23.773 0-.244-.023-.486-.039-.729l-5.791.071a44.276 44.276 0 0 1 -9.3-.541c-2.852-.574-5.57-1.706-8.429-2.243-6.734-1.266-13.616.851-20.022 3.283a137.968 137.968 0 0 0 -35.148 19.312 89.177 89.177 0 0 0 29.283 4.62z" fill="#ffebe8"/><path d="m376.793 318.727c-.466-2.714-1.147-5.759-3.5-7.188-1.418-.862-3.209-.956-4.6-1.861-1.807-1.174-2.537-3.412-3.2-5.463a100.368 100.368 0 0 0 -28.671-44.158c-3.2 13.855-12.624 26.308-25.4 32.652-11.627 5.773-25 6.582-37.965 7.286-19.879 1.081-39.849 2.159-59.665.248a24.794 24.794 0 0 1 -8.792-2.021c-3.336-1.667-5.815-4.674-7.734-7.872a40.3 40.3 0 0 1 1.579-42.925c-8.2 4.5-13.457 13.034-16.743 21.8s-4.974 18.06-8.168 26.859c-2.417 6.656-5.709 13.08-6.814 20.074s.5 15 6.181 19.23c2.96 2.2 6.671 3.132 10.32 3.676a10.975 10.975 0 0 0 5.483-.2c3.33-1.257 4.811-5.024 6.2-8.3 3.479-8.183 9.21-16.054 17.6-19.012 4.549-1.605 9.481-1.629 14.3-1.635l55.514-.073c6.293-.008 12.738.009 18.653 2.158s11.294 6.895 12.38 13.094c.535 3.05.139 6.565 2.228 8.851a8.687 8.687 0 0 0 3.653 2.119c13.14 4.587 27.648-1 41.478.56 3.871.437 7.869 1.426 11.583.25a10.666 10.666 0 0 0 2.087-.919 10.874 10.874 0 0 0 1.972-3.321c1.61-4.408.835-9.284.041-13.909z" fill="#bf4c4c"/><path d="m263.681 375.081a8.63 8.63 0 0 1 -1.61-1.849 5.663 5.663 0 0 1 -.4-2.676q.066-5.125.1-10.251a25.857 25.857 0 0 0 -.882-8.534c-1.345-3.979-4.583-7.092-8.238-9.161a5.946 5.946 0 0 1 -1.889-1.386 5.35 5.35 0 0 1 -.83-2.321q-.843-4.455-1.687-8.909a16.452 16.452 0 0 0 -1.614-5.236 5.571 5.571 0 0 0 -4.353-2.979s-6.315-1.013-6.5 8.353c-.053 2.7-.364 5.386-.545 8.079a11.361 11.361 0 0 0 -9.627 5.29 17.369 17.369 0 0 0 -2.1 6.174c-1.119 6.373-.631 12.9-.363 19.367a8.009 8.009 0 0 1 -.18 2.587c-.419 1.426-1.571 2.493-2.432 3.7-2.223 3.126-2.5 7.2-2.546 11.034a153.444 153.444 0 0 0 1.621 24.36c.3 2.033.728 4.226 2.262 5.593a7.414 7.414 0 0 0 2.444 1.331c4.573 1.664 9.571 1.579 14.437 1.474l18.875-.408c1.856-.04 3.945-.183 5.164-1.585a6.471 6.471 0 0 0 1.2-2.82 116.926 116.926 0 0 0 2.724-28.253c-.043-3.887-.347-8.155-3.031-10.974zm-14.354-3.566a.564.564 0 0 1 -.313.141 23.583 23.583 0 0 1 -5.99.508c-2.177-.094-4.469-.47-6.451.435-.384.176-.843.4-1.2.167a1.149 1.149 0 0 1 -.382-.887 106.327 106.327 0 0 1 -.649-12.653l2-3.311a2.014 2.014 0 0 0 1.207 1.722 4.753 4.753 0 0 0 2.17.351 15.771 15.771 0 0 0 7.434-2.046 1.209 1.209 0 0 1 .6-.215c.411.009.679.428.835.809a14.289 14.289 0 0 1 .733 5.306l.1 9.276a.571.571 0 0 1 -.094.397z" fill="#d1e3ed"/><path d="m170.906 346.91a15.3 15.3 0 0 1 .771-5.789 28.43 28.43 0 0 1 2.976-4.618c4.032-6.113 3.685-13.988 3.725-21.312.152-28.065 8.9-57.027 28.752-76.864-8.037-1.682-26.738 4.813-26.738 4.813-9.071 7.092-14.295 18.029-17.756 29.012s-5.486 22.427-9.792 33.106c-1.43 3.546-3.109 7-4.26 10.645-2.548 8.065-2.417 16.7-2.262 25.152l.153 8.324.33 17.943c.651 35.464 1.319 71.1 7.424 106.037a9.2 9.2 0 0 0 1.646 4.488 8.564 8.564 0 0 0 4.427 2.33 51.528 51.528 0 0 0 17.473 1.708 6.781 6.781 0 0 0 3.284-.856c2.363-1.563 2.091-5.051 1.563-7.834a669.443 669.443 0 0 1 -11.716-126.285z" fill="#d1e3ed"/><path d="m180.392 243.14c-7.04 5.505-11.757 13.328-15.137 21.688a73.65 73.65 0 0 0 23.348.775 90.9 90.9 0 0 1 18.527-27.276c-8.037-1.682-26.738 4.813-26.738 4.813z" fill="#fff"/><path d="m338.4 322.592c-1.107-8.382-4.7-16.2-7.341-24.228-3.127-9.5-4.942-19.4-8.047-28.913s-7.694-18.866-15.25-25.425-29.24-6.413-29.24-6.413c-.121 4.015 3.568 6.928 6.6 9.566 10.6 9.233 16.694 22.749 19.677 36.489s3.154 27.907 3.774 41.953a37.586 37.586 0 0 0 1.385 10.039c.634 1.946 1.577 3.786 2.145 5.753a31 31 0 0 1 .9 7.533 520.031 520.031 0 0 1 -10.783 124.941c-.282 1.339-.546 2.829.164 4a5.093 5.093 0 0 0 2.63 1.832 35.606 35.606 0 0 0 19 1.991 7.723 7.723 0 0 0 4.211-1.739 8.5 8.5 0 0 0 1.93-4.328c10.422-45.223 7.165-92.288 8.541-138.676a89.535 89.535 0 0 0 -.296-14.375z" fill="#d1e3ed"/><path d="m263.681 375.081a8.63 8.63 0 0 1 -1.61-1.849 5.663 5.663 0 0 1 -.4-2.676q.066-5.125.1-10.251a25.857 25.857 0 0 0 -.882-8.534c-1.345-3.979-4.583-7.092-8.238-9.161a5.946 5.946 0 0 1 -1.889-1.386 5.35 5.35 0 0 1 -.83-2.321q-.843-4.455-1.687-8.909c-.168-.887-.341-1.782-.58-2.653-1.115 8.418-5.206 14.673-10.1 14.673-2.142 0-4.131-1.2-5.786-3.254a11.324 11.324 0 0 0 -6.174 4.741 17.369 17.369 0 0 0 -2.1 6.174c-1.119 6.373-.631 12.9-.363 19.367a8.009 8.009 0 0 1 -.18 2.587c-.419 1.426-1.571 2.493-2.432 3.7a10.772 10.772 0 0 0 -.733 1.194c6.345-.968 12.8-1.877 19.132-.863 6.54 1.047 13.045 4.5 16.1 10.372 2.485 4.774 2.409 10.457 1.753 15.8a14.22 14.22 0 0 1 -1.5 5.465 12.477 12.477 0 0 1 -4.351 4.079 31.5 31.5 0 0 1 -10.555 4.188c-3.384.671-7.291 1.035-9.6 3.422a72.76 72.76 0 0 0 7.968.136l18.875-.408c1.856-.04 3.945-.183 5.164-1.585a6.471 6.471 0 0 0 1.2-2.82 116.926 116.926 0 0 0 2.724-28.253c-.038-3.888-.342-8.156-3.026-10.975zm-14.354-3.566a.564.564 0 0 1 -.313.141 23.583 23.583 0 0 1 -5.99.508c-2.177-.094-4.469-.47-6.451.435-.384.176-.843.4-1.2.167a1.149 1.149 0 0 1 -.382-.887 106.327 106.327 0 0 1 -.649-12.653l2-3.311a2.014 2.014 0 0 0 1.207 1.722 4.753 4.753 0 0 0 2.17.351 15.771 15.771 0 0 0 7.434-2.046 1.209 1.209 0 0 1 .6-.215c.411.009.679.428.835.809a14.289 14.289 0 0 1 .733 5.306l.1 9.276a.571.571 0 0 1 -.094.397z" fill="#8da8c6"/><path d="m177.007 438.589a25.055 25.055 0 0 1 -1.38 3.816c-4.4 9.555-14.391 14.751-22.977 21.005.485 3.321 1 6.639 1.579 9.949a9.2 9.2 0 0 0 1.646 4.488 8.564 8.564 0 0 0 4.427 2.33 51.528 51.528 0 0 0 17.473 1.708 6.781 6.781 0 0 0 3.284-.856c2.363-1.563 2.091-5.051 1.563-7.834q-3.267-17.224-5.615-34.606z" fill="#8da8c6"/><path d="m182.238 265.655c-6.143 11.382-6.669 26.886-17.6 33.791-3.5 2.207-7.633 3.164-11.286 5.1-.1.053-.2.112-.3.167-.072.181-.132.365-.205.546-1.071 2.656-2.282 5.26-3.306 7.932 7.177-1.291 15.257 2.976 17.712 9.952 2.806 7.975-2.338 17.794-10.492 20.028-3.378.925-7.226.789-10.359 2.07q.038 2.069.076 4.139l.264 14.359c4.049 3.447 9.191 5.5 13.5 8.674a37.489 37.489 0 0 1 11.851 15.75q-1.224-20.6-1.182-41.252a15.3 15.3 0 0 1 .771-5.789 28.43 28.43 0 0 1 2.976-4.618c4.032-6.113 3.685-13.988 3.725-21.312.127-23.363 6.216-47.342 19.7-66.167-6.418 4.518-12.15 9.782-15.845 16.63z" fill="#8da8c6"/><path d="m331.062 298.364c-1.808-5.5-3.18-11.124-4.614-16.732a55.793 55.793 0 0 1 -7.683 7.076c-3.8 2.875-8.081 5.411-11.852 8.35 1.023 9.463 1.24 19.041 1.66 28.563a37.586 37.586 0 0 0 1.385 10.039c.634 1.946 1.577 3.786 2.145 5.753a31 31 0 0 1 .9 7.533q.356 10.212.3 20.433c4.336.979 8.517 2.324 11.4 5.566 3.836 4.307 4.129 10.618 4.176 16.385.125 15.562-.076 31.164-1.966 46.611-.458 3.746-1.04 7.558-2.762 10.915-2.517 4.907-7.181 8.311-11.824 11.288-2.87 1.841-5.836 3.63-8.5 5.743q-.777 4.007-1.613 8c-.282 1.339-.546 2.829.164 4a5.093 5.093 0 0 0 2.63 1.832 35.606 35.606 0 0 0 19 1.991 7.723 7.723 0 0 0 4.211-1.739 8.5 8.5 0 0 0 1.93-4.328c10.422-45.223 7.165-92.288 8.541-138.676a89.535 89.535 0 0 0 -.294-14.373c-1.096-8.384-4.696-16.194-7.334-24.23z" fill="#8da8c6"/><path d="m29.07 184.36c-11.643 22.7-16.285 49.826-15.235 80.56 13.219 45.459 7.617 69.49 38.088 119.431 0 0 22.606 54.8 20.825 91.276h40.423l-8.236-185.379 51.076-46.587s23.853-96.973-6.813-132.037c0 0-23.03-8.415-32.874 36.2 0 0-2.966 29.174-1.515 51.566 0 0-3.182 24.194-14.765 35.519l-34.489 3.139s9.066-28.694 4.376-46.379-12.69-24.7-24.514-21.363-16.347 14.054-16.347 14.054z" fill="#8fdd7c"/><path d="m417.145 217.374s-19.452 18.05-14.23 45.809 18.86 71.676-8.077 110.072l-26.631 47.167 23.036 57.978h43s-9.316-22.966 15.664-45.584 52.522-59.744 32.557-88.828c0 0-10.136-22.383-32.25 6.977 0 0-14.743-36.905-8.6-61.976s7.506-33.218 19.823-53.436c0 0 12.246-27.9-11.032-33.716.001-.004-21.696-2.39-33.26 15.537z" fill="#8fdd7c"/><path d="m440.271 298.168a34.336 34.336 0 0 1 -15.4 11.837 25.344 25.344 0 0 1 -14.1.806c1.221 20.216-1.662 42.1-15.931 62.444l-22.98 40.7c.042.706.094 1.412.163 2.12.6 6.071 2.987 12.91 8.741 14.936 5.713 2.01 11.813-1.745 16.151-5.97 7.508-7.313 12.938-16.444 18.278-25.461l13.356-22.55 13.912-23.487c1.8-3.043 3.612-6.12 5.387-9.231-3.279-9.912-8.671-29.212-7.577-46.144z" fill="#4c9e5e"/><path d="m484.394 387.833q-2.4 2.839-5 5.475c-5.154 5.232-10.966 10.017-17.8 12.7-11.133 4.371-23.934 2.8-35.028 7.27-8.672 3.5-15.551 10.413-21.036 17.984s-9.81 15.915-15.014 23.681c-1.783 2.661-3.686 5.292-5.412 8l6.138 15.448h43s-9.315-22.966 15.665-45.584c13.279-12.018 27.28-28.14 34.487-44.974z" fill="#4c9e5e"/><path d="m104.935 290.248 51.075-46.587a355.1 355.1 0 0 0 8.648-62.61c-.155.282-.3.569-.462.849-6.664 11.754-17.16 21.574-29.9 26.081-7.673 2.714-16.368 3.719-23.342 7.481-2.287 6.858-5.77 14.42-10.913 19.448l-3.7.337c-3.687 8.214-7.083 16.559-10.458 24.907-2.836 7.016-5.689 14.093-7.041 21.539a55.95 55.95 0 0 0 4.791 34.383c3.134 6.381 8.113 12.555 15.065 14.046a17.028 17.028 0 0 0 8-.3z" fill="#4c9e5e"/><path d="m93.8 358.885c-9.075-16.627-5.186-38.57-16.12-54.039l-10.872-20.921c-2.692 17.283.349 34.957-.909 52.4-.694 9.614-3.254 20.038-11.04 25.721a23.064 23.064 0 0 1 -13.024 4.2c2.846 5.674 6.163 11.671 10.088 18.1 0 0 22.606 54.8 20.825 91.276h40.423l-4.171-93.916a118.368 118.368 0 0 0 -6.981-10.927c-2.819-3.912-5.905-7.661-8.219-11.894z" fill="#4c9e5e"/><path d="m37.725 241.1c10.757-20.665 10.561-46.459.3-67.284a27.332 27.332 0 0 0 -8.955 10.544c-11.426 22.273-16.095 48.824-15.27 78.854 10.694-3.114 18.768-12.214 23.925-22.114z" fill="#daffcf"/><path d="m409.252 249.461c4.5-.723 8.618-2.926 12.481-5.342a107.269 107.269 0 0 0 36.586-38.58 20.693 20.693 0 0 0 -7.913-3.706s-21.7-2.386-33.261 15.541a53.547 53.547 0 0 0 -14.9 31.779 17.12 17.12 0 0 0 7.007.308z" fill="#daffcf"/><path d="m149.2 111.624s-23.03-8.415-32.874 36.2c0 0-1.043 10.257-1.589 23.275 4.068-.157 7.893-2.582 11.163-5.159a73.682 73.682 0 0 0 22.2-28.246 61.583 61.583 0 0 0 4.978-20.879 43.28 43.28 0 0 0 -3.878-5.191z" fill="#daffcf"/><path d="m480.163 340.491c-4.121-4.869-13.866-10.881-29.948 10.47 0 0-.868-2.179-2.092-5.817a102.245 102.245 0 0 0 -6.89 15.782c-.989 2.878-1.884 5.918-1.418 8.925s2.68 5.955 5.7 6.288a9.828 9.828 0 0 0 5.35-1.42 59.554 59.554 0 0 0 29.298-34.228z" fill="#daffcf"/><path d="m82.5 45.832s17.338-31.17 50-28.155 36.928 16.831 36.928 16.831 10.8-11.8 26.629-13.31l-1.908 45.968s-17.531-3.766-21.882-13.817c0 0-41.53 51.285-89.767-7.517z" fill="#93cef9"/><path d="m325.931 91.253s8.541 27.663 4.521 46.5c0 0 15.074-3.975 20.349-13.669 0 0 47.071 53.987 91.442-9.381 0 0-39.189-49.959-86.166-12.45-7.777-7.353-18.072-10.625-30.146-11z" fill="#93cef9"/><circle cx="271.32" cy="186.58" fill="#a6f3f7" r="22.309"/><circle cx="266.388" cy="181.051" fill="#fff" r="7.076"/><circle cx="228.476" cy="131.122" fill="#a6f3f7" r="16.416"/><circle cx="273.767" cy="84.802" fill="#fff" r="8.705"/><circle cx="222.174" cy="122.988" fill="#fff" r="7.076"/><path d="m195.225 41.142c-2.6 2.506-5.635 4.5-9.16 4.9-5.618.634-10.834-2.9-16.43-3.7-7.02-1-11.013 28.375-58.615 12.079-9.3-3.184-28.516-8.585-28.516-8.585 48.233 58.8 89.763 7.517 89.763 7.517 4.351 10.049 21.878 13.817 21.878 13.817z" fill="#6a8dc6"/><path d="m442.243 114.707s-40.886 33.118-76.01 3.609c-2.994-2.514-6.382-4.821-10.22-5.568-5.914-1.15-11.581 2.471-17.426 3.931a23.433 23.433 0 0 1 -7.53.592c.676 6.907.739 14.189-.605 20.486 0 0 15.074-3.975 20.349-13.669-.001 0 47.07 53.987 91.442-9.381z" fill="#6a8dc6"/><path d="m146.162 19.875a94.955 94.955 0 0 0 -13.666-2.2c-15.836-1.462-28.057 5.116-36.457 12.278a30.893 30.893 0 0 0 21.6 8.769 31.009 31.009 0 0 0 28.523-18.847z" fill="#d7f2ff"/><path d="m389.914 88.357a20.978 20.978 0 0 0 37.373 12.464c-9.248-6.702-22.234-13.161-37.373-12.464z" fill="#d7f2ff"/></g><g id="Layer_5" fill="#3a3245" data-name="Layer 5"><path d="m164.927 323.261c-2.9-4.719-9.818.489-5.986 4.534 2.981 3.159 8.259-.821 5.986-4.534z"/><path d="m174.776 272.691c-3.458-3.539-8.887 1.891-5.347 5.348 3.413 3.521 8.871-1.939 5.347-5.348z"/><path d="m183.026 253.4c3.388 3.452 8.7-1.89 5.261-5.262-3.387-3.453-8.697 1.888-5.261 5.262z"/><path d="m161.722 385.833c4.29-2.721-.217-9.181-4.218-6.051-3.74 2.778.252 8.989 4.218 6.051z"/><path d="m166 431.533c-3.936-3.726-9.035 2.915-4.423 5.753 3.548 2.196 7.445-2.886 4.423-5.753z"/><path d="m322.164 327.833c2.773 2.924 7.863-.472 6.169-4.12-2.433-5.384-10.253-.243-6.169 4.12zm3.712-6.286.254.108a2.794 2.794 0 0 0 -.312-.116z"/><path d="m313.3 280.389c3.424 3.531 8.867-1.959 5.378-5.378-3.423-3.489-8.913 1.956-5.378 5.378z"/><path d="m299.766 255.187c3.389 3.452 8.7-1.89 5.262-5.262-3.388-3.451-8.698 1.89-5.262 5.262z"/><path d="m330.39 383.51c.983-4.954-6.622-6.321-7.287-1.307-.836 4.561 6.737 6.15 7.287 1.307z"/><path d="m325.678 431.533c-3.936-3.726-9.034 2.914-4.422 5.753 3.55 2.196 7.444-2.886 4.422-5.753z"/><path d="m239.874 395.39a31.992 31.992 0 0 0 1.215 10.74c.6 1.848 3.83 2.273 4.188 0a98.615 98.615 0 0 0 .807-10.516c5.337-2.369 4.467-11.871-1.74-12.147-7.897-3.479-11.85 8.582-4.47 11.923z"/><path d="m199.907 17.269a48.7 48.7 0 0 0 -30.8 12.476c-23.945-24.982-71.417-16.318-88.115 13.067a3.35 3.35 0 0 0 -1.064 4.648c18.82 35.174 66.217 40.781 93 11.423 3.3 3.535 26.728 19.522 25.938 7.419-8.096-31.502 11.816-48.09 1.041-49.033zm-24.575 33.731a3.665 3.665 0 0 0 -5.157 0c-22.382 27.908-65.459 25.7-83.228-5.961 6.006-9.759 16.817-17.181 28.81-20.965 10.964 8.153 10.086 26.684 2.1 36.289a2.536 2.536 0 0 0 3.058 3.964c4.17-2.211 6.577-6.684 7.793-11.571 10.891 9.668 18.908.7 25.248-8.569a2.978 2.978 0 0 0 -.464-3.6c-6.355-6.385-16.844-11.622-24.77-4.844-1.118-4.682-3.242-9.835-6.515-13.332 38.735-7.381 42.294 21.417 49.37 15.01a43.254 43.254 0 0 1 22.564-12.152 71.718 71.718 0 0 0 -3.717 36.431 44.8 44.8 0 0 1 -15.092-10.7zm-45.692-9.412c5.526-5.62 12.57-3.949 17.717 1.405-3.216 2.995-7.469 10.349-12.508 7.672-1.812-.988-3.5-2.184-5.265-3.25a38.141 38.141 0 0 0 .056-5.827z"/><path d="m110.12 39.857c-3.437-3.5-8.823 1.918-5.336 5.338 3.436 3.505 8.822-1.918 5.336-5.338z"/><path d="m330.226 140.835a52.77 52.77 0 0 0 21.439-11.918c26.81 29.36 74.182 23.75 93-11.424a3.351 3.351 0 0 0 -1.064-4.647c-8.843-17.175-31.1-26.821-49.487-27.825-40.614-42.412-96.3-65.188-154.983-64.837a3.834 3.834 0 0 0 .062 7.668 204.722 204.722 0 0 1 144.787 57.687 51.046 51.046 0 0 0 -28.493 14.241 48.692 48.692 0 0 0 -30.797-12.48c-3-.137-4.274 3.163-3.168 5.521 13.971 28.259-2.582 49.643 8.704 48.014zm28.439-34.1c9.662-13.885 27.179-17.584 43.722-14.281-3.272 3.5-5.395 8.65-6.514 13.331-7.926-6.775-18.412-1.542-24.771 4.845a2.978 2.978 0 0 0 -.465 3.6c6.339 9.281 14.368 18.23 25.248 8.569 1.216 4.887 3.624 9.36 7.793 11.57a2.535 2.535 0 0 0 3.058-3.963c-7.98-9.6-8.861-28.136 2.1-36.289 11.994 3.784 22.805 11.206 28.811 20.965-17.789 31.668-60.842 33.861-83.228 5.958a3.673 3.673 0 0 0 -5.157 0 44.8 44.8 0 0 1 -15.092 10.7 71.719 71.719 0 0 0 -3.721-36.423c18.691 2.952 23.056 18.167 28.216 11.417zm36.347 10.716c-1.766 1.066-3.453 2.262-5.264 3.249-5.039 2.676-9.289-4.674-12.508-7.672 5.161-5.363 12.144-7 17.716-1.4a38.1 38.1 0 0 0 .056 5.822z"/><path d="m414.477 115.229c3.437 3.5 8.822-1.917 5.337-5.338-3.437-3.5-8.823 1.917-5.337 5.338z"/><path d="m470.382 332.909c-7.987-.768-14.6 3.82-18.85 10.1-4.991-26.54-11.662-46.5-2.936-73.842 3.879-15.955 16.13-28.509 18.911-44.713 1.53-11.669-4.3-22.318-15.513-25.213-.863-6.486-12.315-59.424-20.617-54a3.834 3.834 0 0 0 -1.944 5.062 204.946 204.946 0 0 1 14.63 48.088c-25.912.386-42.048 30.453-44.069 53.349-1.533 17.358 3.139 33.529 7.07 50.209 5.324 21.745.272 43.928-9.911 63.483 5.211-42.074-22.7-79.988-20.148-121.873.217-18.858 16.451-46.272-3.612-59.523-33.429-13.124-45.47 43.339-43.241 66.8a63.763 63.763 0 0 0 -20.176-8.27c-7.494-5.977-17.28-8.7-26.809-8.654-3.779-.322-7.087.269-8.919 3.8a561.233 561.233 0 0 0 -61.989 0c-1.832-3.516-5.163-4.1-8.925-3.8-9.523-.065-19.32 2.674-26.8 8.652-8.187 1.97-16.3 5.069-22.968 10.3 15.161-38.273 18.672-81.08 10.7-121.526-7.433-37.885-38-26.876-47.7 3.1-9.138 28.532-.049 59.767-10.045 88.168-9.451-11.713-28.149-6.073-35 5.747 2.638-21.472 7.2-63.793-25.856-60.907a206.779 206.779 0 0 1 52.935-82.641 3.9 3.9 0 0 0 .71-4.856 3.838 3.838 0 0 0 -5.917-.774 214.238 214.238 0 0 0 -57.09 92.3c-9.756 6.945-16.137 20.812-19.27 30.916-19.708 62.578 7.205 125.992 32.493 182.575-16.786-17.066-42.335-18.797-41.89 10.834 1.767 23.875 24.213 37.941 35.288 57.345 4.036 7.02 7.443 16.926 13.042 23.48a9.094 9.094 0 0 0 6.982 3.206c14.031-.1 64.964-.41 90.811.462 3.1 4.182 9.375 3.472 14.139 3.71 5.128.186 13.914 2.74 17.972-1.625 37.961.77 75.941.344 113.882-1.07 2.528 4.264 8.846 3.194 13.327 2.97 6.089-.515 15.407 1.583 19.6-3.986l.217-.07c8.266 2.633 17.856 1.088 26.547 1.461 26.215-.02 52.511.345 78.69-.048a3.224 3.224 0 0 0 3.432-5.455c-5.722-3.993-5.645-11.776-4.721-18.357 6.16-16.675 22.777-30.034 33.945-42.859 18.995-19.584 37.337-72.817-.407-82.055zm-204.648 40.481c.781-9.166 1.5-18.411-2.894-26.968 14.442.066 28.9.456 43.371.474.3 10.8.3 21.6.065 32.406-12.052.484-24.314-.24-36.277.657a12.878 12.878 0 0 0 -4.265-6.569zm-49.872 4.094a15.451 15.451 0 0 0 -.971 2.514q-17.323.1-34.647.231c-.251-11.112-.267-22.228.041-33.333 13.205-.054 26.408-.253 39.588-.515-1.348 8.754-.922 17.81-.339 26.619a12.557 12.557 0 0 0 -3.672 4.484zm27.388-65.457c20.593.256 41.151.81 61.721 1.819.261 6.095.3 12.216.311 18.316-17.862.074-35.669.035-53.532-.54.109-16.382-20.424-16.876-20.593-.389-8.509-1.057-17.536-.235-26.064-.226-7.88.008-15.976-.417-23.873.252.01-5.8.062-11.619.31-17.413 20.57-1.009 41.128-1.563 61.72-1.819zm98.52 34.573q10.164-.229 20.316-.667.281 17.267-.057 34.516c-6.711-.045-13.423-.046-20.134-.037.299-11.277.317-22.566-.125-33.812zm-102.985-2.974a98.456 98.456 0 0 1 .908-18.17c4.442-2.264 6.469 4.326 5.9 7.877-.394 6.5.863 13.816-1.584 19.918-5.877 4.497-5.388-6.385-5.224-9.623zm-13.108 26.774c-.032-3.744-.191-7.487-.188-11.233-.171-6.155-1.045-16.245 7.048-17.149.592 9.217-1.832 18.71-1.016 28.023a28.813 28.813 0 0 0 -5.844.359zm11.918-.347c-.08-3.251.12-6.538.277-9.815a8.074 8.074 0 0 0 9.776-1.431c.229 3.767.231 7.555.326 11.336q-5.19-.058-10.374-.094zm16.673.15c-.123-6.386.1-14.227-3.112-19.5.256-2.227.355-4.438.5-6.714 9.39 4.924 7.936 17.619 7.735 26.671-1.483-.784-3.476-.315-5.123-.46zm-129.853-24.268q10.153.441 20.323.667c-.431 11.248-.387 22.539-.083 33.812-6.728-.009-13.456-.008-20.183.037q-.343-17.251-.057-34.516zm98.716 32.347c2.579-2.364 6.4-1.8 9.612-1.779 8.783-.2 17.791.689 26.481-.1 9.336 3.625 4.253 18.036 4.267 25.973-.207 9.445-1.693 15.439-12.6 14.141-19.886-1.783-30.63 7.148-29.84-19.387-.305-5.141-2.232-14.895 2.08-18.848zm117.25 35.489c.535-9.033 1.006-18.112 1.323-27.2 6.725.04 13.45.043 20.174-.026-.422 15.506-1.176 31.026-2.459 46.507q-10.2-.063-20.4-.033.792-9.619 1.362-19.248zm6.378-130.924c5.083 9.671 9.492 19.864 16.883 27.739-5.325-.471-10.659-.871-15.982-1.3-3.991-.324-3.983 5.926 0 6.229 7.329.559 14.661 1.239 22 1.7a121.155 121.155 0 0 1 .459 14.94h-26.253c-.439-6.843 1.076-14.522-2.7-20.594-6.4-8.719-8.191-19.033-10.542-29.4 5.388.101 10.758.384 16.135.686zm-46.759 7.923c.293 4.884 1.657 14.829-4.35 16.337-17.45-.845-34.937-1.464-52.4-1.042-17.887-.433-35.8.228-53.681 1.1a5.27 5.27 0 0 1 -3.538-3 82.019 82.019 0 0 1 3.221-25.237c36.19-1.392 72.694-1.374 108.865.757a58.307 58.307 0 0 1 1.883 11.085zm-145.7-1.661c-1.854 8.274-4 15.526-8.969 22.451-3.785 6.061-2.257 13.748-2.7 20.594h-26.253a121.353 121.353 0 0 1 .46-14.94c7.339-.457 14.671-1.137 22-1.7 3.976-.3 4-6.553 0-6.229-5.323.431-10.657.831-15.982 1.3 8.264-8.806 12.8-20.509 18.726-31.138 5.049-.323 10.093-.684 15.145-.944-.861 3.526-1.635 7.077-2.427 10.606zm-27.6 139.2q-1.552-20.877-2.076-41.768c6.74.069 13.482.066 20.222.026.556 15.518 1.366 30.981 2.641 46.448q-10.2-.014-20.4.033c-.13-1.58-.271-3.159-.387-4.739zm54.9-15.109q-.779-13.421-1.2-26.877 16.783-.161 33.568-.252c-.218 5.294.7 10.989 1.038 15.533.271 15.765 5.116 22.447 21.668 21.024 35.656 3.377 32.267-6.479 34.2-36.986 11.741.032 23.5-.164 35.246-.343q-.681 23.337-2.5 46.611c-40.213.774-80.446.551-120.663.9q-.794-9.796-1.357-19.61zm153.222 59.148q2.226-16.545 3.665-33.183 10.011.065 20.024-.013c-.178 2.853 3.581 35.266-23.938 35.05.084-.617.163-1.237.246-1.856zm80.427-143.588c1.67-15.279-2.55-29.148-6.007-43.835-6.3-26.781-4.45-64.921 25-77.773 13.319-6.208 29.085-.7 27.014 16.025-2.566 14.888-14 26.486-17.609 41.172a109.4 109.4 0 0 0 -4.547 43.209c.7 19.226 2.82 38.34-14.2 51.7 8.456-26.639 3.7-54.027 1.06-81.085-1.71-17.04 3.142-33.436 11.853-47.942 1.208-2.377-1.839-5.058-3.834-2.958-39.621 50.675 23.48 102.241-43.892 185.455-5.754.052-9.612-3.018-8.654-9.913 15.299-22.766 30.856-46.242 33.813-74.057zm-71.913-52.064c-4.709-.4-9.468-.493-14.174-.579-2.085-8.039-4.807-15.975-9.46-22.969 10.686 4.273 17.963 13.889 23.631 23.546zm-37.191-28.96c18.5 14.73 16.4 40.658 25.369 60.529a67.334 67.334 0 0 0 -17.084-.078c-2.415.354-2.178 4.119 0 4.65 8.352 2.4 22.409-3.04 22.315 10.049.345 2.578 1.418 7.421-.857 9.272-.845-.338-22.977.918-22.559-1a4.869 4.869 0 0 1 -1.082-2.637c-.518-30.7-3.436-66.323-28.963-87.266a1.273 1.273 0 0 1 .232-.753c8.114.138 16.059 2.08 22.626 7.232zm-62.892-4.945c10.448.173 20.893.5 31.315 1.273a47.785 47.785 0 0 1 21.883 29.81c-35.012-2.035-70.169-2.379-105.215-1.079 4.243-10.208 8.775-21.872 18.747-27.925 10.591-2.615 22.29-1.37 33.267-2.081zm-40.257-2.284a1.222 1.222 0 0 1 .241.741c-25.551 20.951-28.46 56.588-28.978 87.31a4.027 4.027 0 0 1 -2.659 3.6h-20.987c-2.147-1.68-1.277-5.5-1.016-7.994-.258-14.8 12.957-8.7 22.48-11.327 2.177-.531 2.417-4.295 0-4.65a70.376 70.376 0 0 0 -17.092.086c11.232-27.282 8.015-66.735 48.008-67.768zm-36.19 12.64a69.11 69.11 0 0 0 -8.452 19.266c-4.342.207-8.712.412-13.051.811 5.33-8.406 12.104-16.305 21.497-20.079zm-48.377-60.99c.955-24.151-4.709-55.416 15.507-73.736 5.073-4.6 11.393-7.023 17.081-1.96 10.363 9.84 10.918 45.154 11.276 59.671-.95 37.158-4.813 68.466-37.68 91.126 15.96-38.86 23.614-87.252 19.216-129.1-.436-3.039-5.422-2.292-5.326.72 1.228 46.173-3.654 93.7-24.457 135.574-7.531 4.761-15.306 9.12-22.406 14.535 6.043-33.262 25.513-62.522 26.786-96.832zm-19.238 281.35c-.18-34.582-13-66.832-29.233-96.8-24.145-48.759-27.944-103.985-28.958-157.507a2.24 2.24 0 0 0 -4.478 0c-2.411 50.334 3.661 102.244 23.044 149.023 16.508 33.194 33.569 67.186 33.315 105.238-5.165-.052-10.339-.107-15.508-.065-.811-84.632-70.159-154.321-59.258-240.566 1.678-18.481 5.475-42.5 20.948-54.912 8.594-6.891 19.048-4.2 24.33 5.259 5.1 9.131 3.607 20.547 2.75 30.519-24.453 169.934 34.246 139.275 43.22 259.833-3.389-.009-6.78-.001-10.172-.022zm44.326.693c-2.984-.721-6.158-.617-9.251-.776-3.72-.72-3.537-4.13-3.914-7.223-1.1-9-2.006-18.021-2.777-27.054q10.221.094 20.444.016c1.131 11.884 2.243 23 3.524 35.036-2.634-.012-5.338.036-8.026.001zm20.949 3.589c-2.5-.129-5.273.517-6.282-2.327-1.751-4.932-1.493-11.6-2.068-16.807a886.774 886.774 0 0 1 -5.1-107.694c5.872 1.7 11.682 4.145 17.427 6.364a815.38 815.38 0 0 0 9.25 118.884 3.857 3.857 0 0 1 -1.7 2.373c-4.009-.608-7.56-.512-11.527-.793zm128.778-2.2c-35.213.7-70.459 1.315-105.676.561-1.512-12.4-3.047-24.8-4.085-37.253 39.875-.389 79.754-.387 119.628-.994-1.152 12.5-2.288 24.942-4.258 37.345-1.93.037-3.912.293-5.609.34zm32.467 2.011c-5.032.762-10.4.279-15.489.8a3.9 3.9 0 0 1 -1.418-2.189 815.352 815.352 0 0 0 9.25-118.882c5.744-2.218 11.552-4.66 17.423-6.363a874.651 874.651 0 0 1 -6.033 115.786c-.428 3.5.086 9.869-3.733 10.848zm131.98-58.168c-14.868 15.28-31.691 33.062-29.491 55.754q-5.584.014-11.171.021c-.555-10.782.727-21.952 6.234-31.494 14.569-25.861 56.607-45.259 43.936-80.291-1.215-2.835-5.474-.754-4.817 2.032 9.294 44.833-59.41 57.9-50.991 109.763q-8.13 0-16.26 0c-3.9-34.839 32.222-52.7 47.75-79.162 12.084-16.369 3.477-49.458 22.167-56.214 12.693-4.123 20 10.895 20.42 21.025.98 23.369-12.233 42.589-27.777 58.565z"/><path d="m453.61 482.179c3.03 1.513 6.233-2.645 4-5.189-3.523-4.703-9.203 2.91-4 5.189z"/><path d="m271.321 212.341c33.97-.892 33.963-50.635 0-51.522-33.971.892-33.964 50.635 0 51.522zm0-43.855c23.859.627 23.855 35.565 0 36.188-23.86-.627-23.855-35.565 0-36.188z"/><path d="m228.476 109.925c-27.951.735-27.946 41.664 0 42.394 27.951-.734 27.944-41.663 0-42.394zm0 34.726c-17.841-.468-17.836-26.592 0-27.058 17.839.469 17.836 26.592 0 27.058z"/><path d="m287.214 84.8c-.494-18.786-28-18.783-28.494 0 .494 18.788 28.003 18.784 28.494 0zm-20.826 0c.045-8.6 13.114-8.6 13.159 0-.047 8.6-13.115 8.6-13.159 0z"/></g></svg>