<svg height="512" viewBox="0 0 500 500" width="512" xmlns="http://www.w3.org/2000/svg"><g id="Layer_4" data-name="Layer 4"><path d="m114.954 13.58h246.381v174.7s-48.582 47.445-77.5 52.91l-23.824 51.55v195.673h-96.14s7.762-9.254 29.162-13.881 45.087-5.116 46.545-57.213v-124.575s-25.146-.371-18.784-26.7c0 0-21.162-8.022-6.822-29.32 0 0-33.888-8.722-60.518-33.829l-30.4-15.607 6.543-37.664-4.229-45.8s-18.2-1.123-16.773-11.97 18.008-10.6 18.008-10.6 4.548-28.921-1.235-46.271c0 0-18.231.418-16.852-10.936s6.438-10.467 6.438-10.467z" fill="#ffda76"/><path d="m114.954 13.58h246.381v174.7s-48.582 47.445-77.5 52.91l-23.824 51.55v195.673h-96.14s7.762-9.254 29.162-13.881 45.087-5.116 46.545-57.213v-124.575s-25.146-.371-18.784-26.7c0 0-21.162-8.022-6.822-29.32 0 0-33.888-8.722-60.518-33.829l-30.4-15.607 6.543-37.664-4.229-45.8s-18.2-1.123-16.773-11.97 18.008-10.6 18.008-10.6 4.548-28.921-1.235-46.271c0 0-18.231.418-16.852-10.936s6.438-10.467 6.438-10.467z" fill="#ffda76"/><path d="m236.419 213.251a39.6 39.6 0 0 0 13.69 8.787c-1.052-9.372-2.113-18.789-4.608-27.884s-6.508-17.93-12.837-24.922c-2.35-2.595-5-4.918-7.227-7.619a32.259 32.259 0 0 1 -4.11-6.405c-.91-9.3 1.018-19.287 6.9-26.19a2.242 2.242 0 0 0 -1.506-3.725c-6.313-.446-15.1-1.04-21.794-.3a4.575 4.575 0 0 0 -2.913 7.595c2.6 2.969 4.993 7.8 4.756 15.47-.146 4.727.96 9.4 1.536 14.1a59.344 59.344 0 0 0 5.176 17.963c4.28 9.114 12.183 17.352 12.233 27.421.043 8.809-11.739 29.189-11.739 29.189-14.34 21.3 6.822 29.32 6.822 29.32l-.005.026a71.677 71.677 0 0 1 7.988-.375 19.41 19.41 0 0 1 .708-20.006c1.382-2.062 3.251-4.076 3.249-6.558a16.275 16.275 0 0 0 -.8-3.708c-1.472-6.141 2.259-12.174 3.805-18.3a28.23 28.23 0 0 0 .676-3.879z" fill="#fff"/><path d="m158.078 136.228c1.808-10.252-2.712-21.674-11.733-26.87-6.176-3.556-13.813-3.879-20.622-1.655l3.871 41.923-6.077 34.983c5.027-9 14.33-15.42 21.356-23.284a60.8 60.8 0 0 0 10.476-16.412 39.344 39.344 0 0 0 2.729-8.685z" fill="#fff"/><path d="m127.327 43.5c26.635-.774 53.532 1.515 73.454 3.936 10.472-9.865 18.84-7.448 25.716 3.691 3.837.643 5.974 1.054 5.974 1.054l17.644-17.2h-124.75a51.361 51.361 0 0 1 1.962 8.519z" fill="#f48a4e"/><path d="m248.691 135.489s-25.4 31.408-27.461 43.22l28.67 40.091 26.754-41.653z" fill="#f469a2"/><path d="m128.183 150.686s-5.654 23.3-4.626 38.766l32.631 13.448z" fill="#f469a2"/><path d="m237.13 200.944 12.77 17.856 26.754-41.653-26.444-39.4q.179 8.485.356 16.97c.1 5.015.2 10.11-1.09 14.957s-4.18 9.5-8.661 11.758c3.03 3.529 6.27 7.865 5.126 12.374-.984 3.863-4.858 6.153-8.811 7.138z" fill="#b23669"/><path d="m158.632 59.894 14.649-20.607 13.407 23.586-13.159 14.145z" fill="#f469a2"/><path d="m314.552 60.887 13.407-20.734 12.414 19.741-11.421 15.649z" fill="#f469a2"/><path d="m173.529 77.018 13.159-14.145-10.7-18.82c1.354 15.161-11.153 18.4-11.153 18.4l-1.379 2.987z" fill="#b23669"/><path d="m320.864 67.311 8.088 8.232 11.421-15.649-12.414-19.741-.123.19c.024.178.044.349.07.533 2.281 15.911-2.635 23.162-7.042 26.435z" fill="#b23669"/><path d="m225.146 287.265c5.868 5.343 14.432 5.479 14.432 5.479v26.475a57.9 57.9 0 0 1 12 16.545c4.042 8.191 6.481 17.035 8.428 25.985v-69l3.822-8.268c-12.978-.609-26.244-.391-38.682 2.784z" fill="#f48a4e"/><path d="m260.011 437.545a50.87 50.87 0 0 1 -14.354 19.131c-6.334 5.081-14.5 8.415-22.506 7.553-8.685 6.769-19.673 8.045-30.118 10.3-21.4 4.626-29.162 13.88-29.162 13.88h96.14z" fill="#f48a4e"/><path d="m231.369 23.575c-1.3 14.844-28.307 16.509-36.063 18.032a160.842 160.842 0 0 1 21.854-1.548c10.658.216 21.278 2.551 31.9 1.664 3.791-.317 7.822-1.189 10.415-3.971a13.588 13.588 0 0 0 2.466-4.07 28.971 28.971 0 0 0 .537-20.1h-35.142a12.128 12.128 0 0 1 4.033 9.993z" fill="#f48a4e"/><path d="m244.68 71.4a48.352 48.352 0 0 0 -5.527-4.239l-7.11-4.931c-1.288-.893-2.689-1.961-2.908-3.512l-1.515 1.072c-.017 4.726-2.878 9.079-6.563 12.037s-8.148 4.751-12.538 6.5a52.14 52.14 0 0 1 7.106 4.111c2.371 1.634 4.715 3.614 5.638 6.341 1.4 4.124-1 8.766-4.513 11.335s-7.916 3.534-12.175 4.437a35.633 35.633 0 0 1 13.947.341c3.734.844 7.311 2.286 11.041 3.146a36.6 36.6 0 0 0 13.958.474c2.633-.421 5.338-1.2 7.262-3.043 2.79-2.678 3.289-6.936 3.169-10.8-.265-8.569-3.004-17.421-9.272-23.269z" fill="#f48a4e"/><ellipse cx="247.366" cy="55.654" fill="#87ddaa" rx="18.013" ry="19.889"/><path d="m250.721 36.123a13.234 13.234 0 0 1 3.039 6.014c1.054 5.087-.731 10.458-3.81 14.643a13.918 13.918 0 0 1 -5.681 4.84c-4.2 1.725-9.344.056-12.276-3.411a13.443 13.443 0 0 1 -2.53-4.717c-.07.711-.111 1.431-.111 2.162 0 10.984 8.065 19.889 18.014 19.889s18.013-8.905 18.013-19.889c0-9.717-6.315-17.794-14.658-19.531z" fill="#48a06c"/><g fill="#fff"><path d="m108.513 24.044c-.749 6.167 4.287 8.857 9.044 10.032 1.776-.215 3.56-.361 5.347-.42 4.4-.145 9.388-.037 12.451-3.2 2.221-2.3 2.762-5.746 2.637-8.938-.1-2.65-.578-5.293-.592-7.936h-22.446s-5.063-.893-6.441 10.462z"/><path d="m190.975 13.58a14.746 14.746 0 0 1 -.007 11.828c-2.367 5.151-7.606 8.348-12.833 10.544a185.789 185.789 0 0 0 32.865.967c-5.161-.613-9.264-5.376-9.934-10.529a16.849 16.849 0 0 1 4.215-12.81z"/><path d="m131.132 101.336c-2.114-2.849-1.879-6.817-.889-10.223a27.906 27.906 0 0 1 6.392-11.229l-.676.218q-4.589-.186-9.183-.071c-.108.785-.176 1.22-.176 1.22s-16.581-.247-18.008 10.6 16.773 11.97 16.773 11.97l.218 2.36c3.725-1.3 7.81-1.983 11.61-.929-2.284-.852-4.608-1.952-6.061-3.916z"/><path d="m190.985 91.043a13.317 13.317 0 0 1 6.256-10.994l-1.094-1.039q-6.663-.153-13.33.026a38.662 38.662 0 0 0 -10.236 1.26 14.384 14.384 0 0 0 -8.235 5.878 11.237 11.237 0 0 0 3.577 14.865c4.108 2.516 9.3 2.031 14.1 1.66q7.461-.578 14.951-.513a13.32 13.32 0 0 1 -5.989-11.143z"/><path d="m260.011 374.044q-.611-.715-1.26-1.4c-4.666-4.869-10.645-8.226-16.078-12.22-1.05-.772-2.088-1.584-3.095-2.436v59.328q-.1 3.541-.334 6.767a61.737 61.737 0 0 1 12.168-7.117 79.145 79.145 0 0 0 8.6-3.944z"/><path d="m230.175 175.379c6.621-2.32 10.375-9.028 12.3-15.38 1.572-5.174 2.253-11.553.183-16.769-6.794 8.958-17.3 23.6-20.557 32.432a13.517 13.517 0 0 0 8.074-.283z"/><path d="m131.3 184.591a19.281 19.281 0 0 0 -5.137-18.732c-.259-.25-.534-.5-.817-.739-1.228 7.609-2.286 16.879-1.79 24.332l4.449 1.834a19.294 19.294 0 0 0 3.295-6.695z"/></g><path d="m314.409 13.58c9.695 15.659-17 23.559-17 23.559l-33.028 11.985c5.784 5.994 63.578-8.971 50.9 10.608-5.552 8.574-15.868 19.67-27.694 22.484l16.672.525c1.811.057 3.735.149 5.228 1.177a6.8 6.8 0 0 1 2.545 5.427c.2 5.3-3.473 10.176-8.093 12.785-3.126 1.766-171.285 3.074-171.285 3.074l28.346 12.106c-4.119 9.721-4.74 25.574 8.432 50.473.956 1.808-1 3.965-1.434 5.964-.938 4.287-.585 8.755-1.239 13.1s-2.67 8.9-6.66 10.723c-5.029 2.3-11.166-.811-14.267-5.391l-1.1 6.245 8.723 4.478c25.568 24.105 57.807 33.1 60.34 33.782.428-.084.859-.152 1.294-.2 4.912-.548 10.075 1.288 14.728-.378-6.03-5.043-12.146-10.181-16.514-16.717-11.451-17.134-1.964-43.386-21.891-62.79-4.863-4.735-7.166-10.783-8.1-16.67a18.181 18.181 0 0 1 18.688-20.992l43.614 1.73a44.358 44.358 0 0 1 21.186 6.113 43.843 43.843 0 0 1 21.275 38.614q-.026 1.029-.06 2.086c-.88 26.438-8.918 68.064-49.495 77.941-4 .974 8.309 1.75 10.07 6.817a10.759 10.759 0 0 1 -.448 8.1c-2.753 5.8-9.255 8.364-15.424 8.492-4.143.086-8.278-.775-12.411-.429l-.008.008c-4.33 23.982 19.284 24.331 19.284 24.331v1.04a64.263 64.263 0 0 0 21.234-2.78l23.018-49.807c28.918-5.464 77.5-52.911 77.5-52.911v-174.702zm6.3 129.341c-.561 8.059-10.46 51.064-10.46 51.064-.683-6.594-1.41-13.228-3.3-19.582-2.85-9.557-8.241-18.158-11.678-27.52s-4.7-20.4.531-28.89a11.78 11.78 0 0 1 4.481-4.491c4.262-2.164 9.773.039 12.573 3.912l.724.475c4.604 7.518 7.741 16.236 7.128 25.032z" fill="#f48a4e"/></g><g id="Layer_5" fill="#3a3245" data-name="Layer 5"><path d="m120.6 77.341c-21.8 1.376-19.693 27.529.969 29.647a184.334 184.334 0 0 0 3.949 37.786 157.275 157.275 0 0 0 -5.7 39.081c-.07 4.472.091 5.441 3.514 8.393a104.772 104.772 0 0 0 38.905 21.024 133.193 133.193 0 0 0 46.151 28.015c-6.824 10.075-2.555 22.746 9.82 27.108-7.193 12 5.816 24.974 17.984 26.047-.671 46.74 1.293 93.661-.852 140.316-10.3 42.821-37.571 29.174-66.809 43.037-3.672 1.806-8.682 4.54-10.584 8.456a3.8 3.8 0 0 0 3.244 5.653q29.941.012 59.885 0c16.631.011 102.952-.015 117.832-.008 3 0 4.446-3.139 3.234-5.636-9.669-12.587-27.941-14.327-42.544-16.921-24.04-3.561-35.642-23.584-35.66-46.6q-.029-64.164-.166-128.329c12.184-1.091 25.246-13.877 17.8-25.9 12.019-3.772 17.2-16.951 10.245-26.657 16.588-7.058 32.9-15.847 45.842-28.513a104.815 104.815 0 0 0 39.109-21.086c3.431-2.959 3.586-3.817 3.514-8.393a157.465 157.465 0 0 0 -5.7-39.053 184.1 184.1 0 0 0 4.039-38.358c21.954 1.186 21.105-30.771-.532-29.2-3.195-12.7-2.683-26.39.082-39.164 22.053 1.144 22.227-29.793.753-28.854-26.743.948-236.478-4.387-267.5 2.287-12.672 8.581-4.332 28.481 10.51 26.638 2.755 12.779 3.254 26.469.041 39.168-.46.007-.92.009-1.375.016zm214.878 412.421c-.344-.26-.192-.219 0 0zm-207.995-303.257c-1.728-1.108-.89-3.325-.768-6.413a139.008 139.008 0 0 1 2.47-21.292 136.276 136.276 0 0 0 13.142 29.607 16.453 16.453 0 0 1 -14.844-1.902zm18.745-124.024a2.8 2.8 0 0 0 -5.594 0c-.595 5.647-13.793.98-6.1-5.922 14.537-9.2 27.758 10.135 34.782 20.714-13.241-.067-26.486-.146-39.724-.037q.8-3.4 1.293-6.936c6.286 3.582 16.135.694 15.343-7.819zm53.672-1.957c5.137 4.863 11.373 4.193 16.146-.739 2.8-2.89-1.309-6.692-4.309-4.309-4.044 4.13-10.065-.28-8.915-5.29a8.93 8.93 0 0 1 6.7-6.494c9.951-2.334 15.809 8.973 13.355 17.26-3.312 11.182-15.778 14.477-24.808 7.7-9.753-7.781-15.432-20.216-22.307-30.546q14.481.023 28.96-.037c-8.573 3.413-12.407 15.903-4.822 22.455zm96.86 52.831c10.249 3.663 18.012 13.841 19.623 24.628 2.064 13.521-6.685 26.161-8.212 39.379-.465 20.84-5.092 39.117-23.335 51.429 3.439-5.781 7.011-12.679 6.918-19.246-5.43-16.344-8.286 31.288-41.653 31.647a15.314 15.314 0 0 1 -9.833-3.4c-5.653-4.578-10.046-11.508-17.172-14.1-5.688-2.6-10.9-5.235-15.342-9.764-4.39-4.477-7.151-9.764-9.756-15.388-1.146-2.472-4.643-.629-4.169 1.758a150.185 150.185 0 0 0 10.471 26.691c-5.508-5.541-9.488-12.612-13.873-19.036-4.152-6.114-8.965-12.211-11.425-19.257-2.481-7.109-2.623-14.787-4.905-21.953-1.921-6.035-5.39-11.306-8.1-16.979-4.8-11.209-5.577-26.373 3.181-36.108 1.718-1.261 2.905-.96 2.749 1.017-3.994 10.775-1.882 24.52 1.483 34.474 1.05 3.106 5.307 1.808 4.821-1.329-3.618-17.389-3.031-41.326 20.65-39.641 32.648 1.433 65.464.676 97.878 5.178zm-50.554-19.155c-1.168 3.12-3.64 4.613-6.481 5.444h-50.954c-5.775-.192-13.163 1.152-17.535-3.322-3.888-3.859-1.333-11.155 3.816-12.174 18.608.011 64.778-1.145 68.476 1.024a7.684 7.684 0 0 1 2.678 9.028zm-67.554-16.89c2.964-3.647 5.751-6.427 8.719-9.886 3.293 4.069 7.15 7.723 12.023 9.835-6.928.109-13.821.079-20.742.055zm39.032-.331a21.813 21.813 0 0 0 9.937-9.39 24.934 24.934 0 0 0 7.689 9.425c-5.863-.12-11.745-.101-17.626-.031zm10.124-30.7a19.579 19.579 0 0 0 -9.009-8.334c4.586-.051 17.181-.013 17.181-.013-2.726 2.253-6.604 5.149-8.172 8.353zm-49.317 7.962q.667 1.162 1.367 2.308a27.122 27.122 0 0 0 -4.812 3.868c-.085-2-.178-3.989-.246-5.976-.1-2.814-4.4-2.837-4.391 0 .014 4.62-.1 9.279.094 13.9a59.681 59.681 0 0 0 -6.632-9.781q3.93-7.413 8.536-14.409zm-48.355 76.191c-1.489-7.382 2.908-23.379 12.87-19.406 11.359 9.5 7.148 25.821 11.737 39.249 2.658 7.778 7.667 14.51 10.155 22.35 4.127 19.492 9.566 37.373 24.231 51.814-34.496-19.334-54.089-55.692-58.993-94.001zm124.55 309.068c-1.346 15.362 1.03 46.924-21.486 44.895 3.24-3.59 5.589-8.105 7.721-12.545a2.974 2.974 0 0 0 -4.649-3.588c-4.517 3.924-8.9 8.163-13.671 11.777-3.261 2.472-7.106 3.2-10.857 4.354h-39.652c0-.01 0 0 0-.008 12.762-6.673 27.663-5.963 41.037-10.489 20.888-7.982 30.432-29.31 30.423-50.575.756-6.83-1.926-14.913 1.894-20.959 3.274-4.376 9.754-.33 10.28 4.4.547 10.847-.807 21.847-1.04 32.738zm1.925-78.867c-.106 6.4-.86 23.521-11.025 18.4a5.783 5.783 0 0 1 -2.056-4.545l-.027-67.878c3.081 2.492 6.232 4.931 9.394 7.319a9.529 9.529 0 0 1 3.776 7.627q-.037 19.544-.062 39.076zm.027-77.661a15.8 15.8 0 0 1 -12.887 5.183 42.561 42.561 0 0 1 -10.485-1.828c-6.155-1.994-13.925-9.546-7.649-15.5 11.279 2.832 23 2.744 34.331 2.036a12.991 12.991 0 0 1 -3.31 10.108zm3.807-17.6c-59.139 3.246-44.984-21.706-44.984-21.706s25.637 9.108 55.506 6.308c0 .001 2.772 14.669-10.522 15.399zm78.5-109.735c-.241 29.051-12.329 59.851-39.293 73.74 14.868-14.876 16.4-36.319 19.989-55.872 2.2-16.5 13.723-31.618 10.014-48.863 8.172 8.036 9.668 20.079 9.288 30.996zm10.408-88.356c-3.045 7.25-9.728 8.065-16.193 10.055h-2.441c5.309-8.055 11.905-17.694 20.9-21.683a30.135 30.135 0 0 1 -2.268 11.629zm-23.323 1.847-7.083-10.446c2.936-4.723 5.668-9.57 8.592-14.3q4.029 6.677 8.056 13.355a9.918 9.918 0 0 0 -4.95 3.107c-.12-2.524-.261-5.044-.429-7.546-.179-2.677-4.142-2.73-4.2 0-.116 5.244-.168 10.558.014 15.83zm-1.669 8.208h-23.733c6.126-2.727 10.855-7.936 14.685-13.344zm24.966-33.084a26.754 26.754 0 0 1 1.5 4.556 35.218 35.218 0 0 0 -10.113 5.8l-6.614-10.971q7.612.321 15.227.615zm-70.079-25.515a10.9 10.9 0 0 1 7.335-2.827c8.98-.034 32.8-.124 42.777-.147a2.926 2.926 0 0 1 2.787 3.807c-1.561 5.082-6.026 11.627-13.518 11.627-11.473-.777-51.935 7.718-39.381-12.46zm10.352 24.807c11.819 1.61 8.806 18.594-1.255 11.933-3-2.383-7.109 1.415-4.309 4.308 11.615 12.463 27.417-6.455 16.794-17.656 6.844.278 13.659.633 20.494.942-5.824 8.394-10.54 18.318-18.406 24.9-8.992 7.482-22.24 4.711-25.711-7.016-2.323-7.847 2.798-18.955 12.393-17.411zm-17.821 44.481c1.824-2.675 5.363-2.742 8.228-3.406 21.094.03 42.14-.585 63.157-.472-1.806 19.648-26.145 14.984-40.047 15.5h-26.544c-5.094-1.488-8.492-7.024-4.794-11.622zm-11.413-37.425c2.47 20.529-28.191 28.285-27.893 4.187 1.583-15.576 23.727-21.314 27.893-4.187zm-86.636-33.2a11.193 11.193 0 0 1 6.01-1.636h61.06c6.825 0 9.558 3.747 9.3 8.29-.312 5.5-4.771 7.894-13.914 7.894-18.45-.129-36.91-.463-55.367-.608-8.09.845-14.914-8.717-7.089-13.94zm-14.489 37.116c-8.349-6.671-19.255-10.1-27.956-3.8a88.224 88.224 0 0 0 -2.067-12.65q20.021 0 40.04.029a187.26 187.26 0 0 0 -10.017 16.421zm-36.2-23.253c-6.076.945-13-3.325-10.763-10.174 1.549-4.721 5.784-5.331 9.93-5.331h27.292c9.262-.188 8.633 16.178-.238 15.505zm1.944 52.88h22.492c4 1.593 6.695 5.027 5.8 9.851-.66 3.563-2.806 5-5.453 5.8q-12.609.136-25.215.481c-15.931-1.625-13.358-18.531 2.38-16.132z"/><path d="m224.139 166.318c-4.4 8.025-8.754 11.708-1.647 20.044a410.8 410.8 0 0 0 24.652 35.552c1.092 1.431 3.291 2.2 4.712.607a190.933 190.933 0 0 0 23.783-33.009c1.634-2.866 5.123-7.236 5.41-10.553.27-3.126-3.254-7.353-4.719-10-7.3-13.184-15.31-25.962-23.7-38.479a3.228 3.228 0 0 0 -5.686-.185 347.392 347.392 0 0 0 -22.805 36.023zm22.9-16.915c.156 6.357.045 12.853.772 19.171.436 3.79 5.937 4 6.063 0 .273-8.725-.9-17.134-.427-25.931 25.249 42.663 28.528 32.377-18.308 34.5a2.5 2.5 0 0 0 .021 4.722c2.336.8 12.791 1.094 15.53 7.887 2.42 6 .089 15.467-1.175 20.59a1.765 1.765 0 0 1 -3.134.621c-7.128-9.691-13.906-19.627-20.084-29.953-4.146-5.337 16.521-33.136 20.253-39.64.136 2.782.432 5.563.493 8.03z"/><path d="m183.791 160.673c-2.734-2.832-7.131 1.669-4.383 4.384 2.748 2.737 7.192-1.635 4.383-4.384z"/><path d="m245.919 456.939c-.88-3.031-5.377-1.772-5.2 1.169.275 4.277 6.471 2.883 5.2-1.169zm-.287-.231a2.7 2.7 0 0 0 -.321-.416c.107.139.215.277.321.416zm.012 2.119c-.069.119-.167.219-.247.331a2.519 2.519 0 0 0 .247-.331z"/><path d="m289.811 195.483c3.059 3.116 7.854-1.706 4.75-4.751-3.061-3.116-7.853 1.707-4.75 4.751z"/></g></svg>