<svg height="512" viewBox="0 0 500 500" width="512" xmlns="http://www.w3.org/2000/svg"><g id="Layer_4" data-name="Layer 4"><path d="m178.251 134.936a9.07 9.07 0 0 0 -3.455-2.048 11.673 11.673 0 0 0 -4.026-.046c-18.961 1.754-38.053-6.467-56.818-3.232l-5.273 2.185a206.36 206.36 0 0 0 -7.307 24.378 24.425 24.425 0 0 0 -.9 8.5c.726 5.858 5.285 10.512 7.033 16.15 1.323 4.266.967 8.842.736 13.3s-.29 9.1 1.552 13.174 6.123 7.371 10.531 6.657c4.468-.723 7.5-5.318 7.89-9.826s-1.246-8.926-2.985-13.1c-2.719-6.537-5.817-13.392-4.823-20.4a25.647 25.647 0 0 1 3.541-9.314c2.412-4.086 5.984-8.04 10.7-8.6 8.24-.988 15.992 8.692 23.618 5.417 2.487-1.068 4.219-3.322 6.244-5.119a20.667 20.667 0 0 1 23.917-2.054 32.4 32.4 0 0 0 -10.175-16.022z" fill="#93cef9"/><path d="m178.251 134.936a9.07 9.07 0 0 0 -3.455-2.048 11.673 11.673 0 0 0 -4.026-.046c-18.961 1.754-38.053-6.467-56.818-3.232l-5.273 2.185c-1.8 4.887-3.392 9.85-4.817 14.859a13.476 13.476 0 0 1 8.9 4.564c2.093 2.491 3.193 5.641 4.444 8.645a51.225 51.225 0 0 0 3.907 7.684 29.513 29.513 0 0 1 2.837-6.24c2.412-4.086 5.984-8.04 10.7-8.6 8.24-.988 15.992 8.692 23.618 5.417 2.487-1.068 4.219-3.322 6.244-5.119a20.667 20.667 0 0 1 23.917-2.054 32.4 32.4 0 0 0 -10.178-16.015z" fill="#6a8dc6"/><path d="m430.783 77.143c-3.68-4.515-8.769-7.618-13.754-10.632-12.2-7.374-24.522-14.807-38.05-19.291-14.943-4.952-30.824-6.133-46.491-7.676a933.158 933.158 0 0 1 -112.606-18.095c-14.251-3.194-29.041-6.733-43.285-3.506-12.634 2.863-23.5 10.791-33.243 19.326a236.172 236.172 0 0 0 -45.943 54.616c65.141 1.715 130.621 3.5 194.615 15.772 12.278 2.355 24.64 5.15 35.752 10.877 12.653 6.522 23.1 16.54 33.241 26.534q31 30.561 60.49 62.6c7.051-31.989 14.123-64.13 16.206-96.821.747-11.732.494-24.593-6.932-33.704z" fill="#f7978d"/><path d="m417.029 66.511c-6.822-4.124-13.685-8.267-20.775-11.9a96.708 96.708 0 0 0 -26.727 13.309c-47.56 33.15-236.541 25.33-240.457-17.018a236.3 236.3 0 0 0 -31.659 40.983c65.141 1.715 130.621 3.5 194.615 15.772 12.278 2.355 24.64 5.15 35.752 10.877 12.653 6.522 23.1 16.54 33.241 26.534q31 30.561 60.49 62.6c7.051-31.989 14.123-64.13 16.206-96.821.747-11.73.494-24.591-6.932-33.7-3.683-4.519-8.769-7.622-13.754-10.636z" fill="#bf4c4c"/><path d="m135.9 43.541c-3.014 2.642-6.069 5.542-7.321 9.349a22.234 22.234 0 0 0 -.861 5.129 25.61 25.61 0 0 0 .234 7.96c.609 2.6 11.157 13.2 11.157 13.2a85.962 85.962 0 0 1 33.271-58.742c-13.57 5.029-25.592 13.563-36.48 23.104z" fill="#bf4c4c"/><path d="m412.948 345q-1.438-29.416-2.876-58.832-53.447 28.029-104.3 60.663c-5.294 3.4-10.8 7.089-13.623 12.711-70.609-24.042-148.077-17.842-220.449-35.877 0 0 17.641 92.652 19.532 99.984a14.35 14.35 0 0 0 2.547 5.945c1.769 2.056 4.516 2.926 7.119 3.685a663.12 663.12 0 0 0 177.375 26.469c4.829.059 9.81.037 14.264-1.829 4.731-1.983 8.379-5.837 11.914-9.554a833.436 833.436 0 0 1 102.213-91.139c2.355-1.774 4.841-3.7 5.822-6.478a15.033 15.033 0 0 0 .462-5.748z" fill="#f7978d"/><path d="m412.485 350.748a15.033 15.033 0 0 0 .463-5.752q-1.438-29.416-2.876-58.832-53.447 28.029-104.3 60.663c-5.294 3.4-10.8 7.089-13.623 12.711-70.609-24.038-148.077-17.838-220.449-35.873 0 0 .945 4.963 2.419 12.674a117.223 117.223 0 0 1 68.72 40.425c8.71 10.623 15.749 24.111 13.29 37.626-2.055 11.3-10.028 19.844-17.855 28.6a663.259 663.259 0 0 0 140 16.762c4.829.059 9.81.037 14.264-1.829 4.731-1.983 8.379-5.837 11.914-9.554a833.436 833.436 0 0 1 102.213-91.139c2.353-1.778 4.835-3.702 5.82-6.482z" fill="#bf4c4c"/><path d="m442.729 78.048c-2.213-8.188-5.764-16.5-12.555-21.582-6.927-5.185-16.028-6.171-24.643-6.977l-31.895-2.989c-3.928-.368-7.929-.731-11.785.1-5.052 1.094-9.435 4.15-13.516 7.322a169.828 169.828 0 0 0 -45.888 54.861c-6.652-1.5-13.464-2.458-20.227-3.343-56.151-7.349-112.688-11.292-169.2-14.928-5.31-.342-10.77-.651-15.974.21a164.431 164.431 0 0 1 75.807-72.245c1.1-.505 2.337-1.166 2.561-2.352.327-1.734-1.7-2.911-3.386-3.412a43.624 43.624 0 0 0 -15.928-1.632l-8.266 1.824a158.285 158.285 0 0 0 -74.076 73.195 10.757 10.757 0 0 1 -1.712 2.784 13.457 13.457 0 0 1 -2.88 2.018 23.374 23.374 0 0 0 -10.85 21.3c.142 1.8.7 3.858 2.356 4.589a5.72 5.72 0 0 0 2.527.289l19.827-.727a6.834 6.834 0 0 0 2.267-.356 944.664 944.664 0 0 1 207.678 16.803c7.289 1.413 14.631 2.933 21.4 5.986 8.184 3.693 15.219 9.484 22 15.363a577.081 577.081 0 0 1 75.6 79.255c7.246-5.131 15.439-13.23 11.969-21.4a10.98 10.98 0 0 0 -.762-1.454q7.377-20.319 13.261-41.139c8.373-29.759 14.355-61.525 6.29-91.363zm-35.5 115.711-18.792-19.03c-11.574-11.72-23.149-23.441-35.038-34.841-3.747-3.593-7.559-7.172-11.515-10.561a167.119 167.119 0 0 1 37.735-43.012c5.283-4.255 10.948-8.25 17.419-10.286s13.915-1.884 19.624 1.78c8.19 5.255 10.764 15.972 11.455 25.678 2.219 31.146-7.733 61.892-20.889 90.272z" fill="#d1e3ed"/><path d="m415.51 266.036a142.84 142.84 0 0 0 -3.8-30.625l-104.293 53.939c-4.612 2.385-9.295 4.8-14.376 5.866a56.772 56.772 0 0 1 -12.716.749 1543.384 1543.384 0 0 1 -225.378-20.565s-1.92 36.224 8.656 43.9c3.589 2.6 7.933 3.907 12.193 5.134a903.275 903.275 0 0 0 196.77 33.722 30.29 30.29 0 0 0 9.58-.471 30.82 30.82 0 0 0 7.717-3.693l113.237-67.792c4.261-2.55 8.756-5.354 10.87-9.847 1.491-3.179 1.594-6.81 1.54-10.317z" fill="#d1e3ed"/><path d="m413.969 276.348c1.492-3.174 1.6-6.805 1.541-10.312a142.906 142.906 0 0 0 -3.57-29.584c-.421-.171-.84-.342-1.263-.507l-103.26 53.405c-4.612 2.385-9.295 4.8-14.376 5.866a56.772 56.772 0 0 1 -12.716.749q-67.846-1.192-135.412-8.365a85.066 85.066 0 0 1 -20.986 28.95c-5.806 5.181-12.688 10.236-18.027 15.971a903.453 903.453 0 0 0 166.666 25.631 30.29 30.29 0 0 0 9.58-.471 30.82 30.82 0 0 0 7.717-3.693l113.237-67.788c4.26-2.555 8.755-5.359 10.869-9.852z" fill="#8da8c6"/><path d="m418.544 351.634a2.457 2.457 0 0 0 -3.975-1.4c-18.02 14.907-108.793 90.058-117.007 98.152-2.471 2.436-5.063 4.948-8.35 6.061-3.327 1.126-6.954.681-10.435.217q-96.162-12.808-191.335-31.953s-9.891 3.576 2.931 26.794c3.382 6.124 11.692 4.082 18.493 5.718a1290.25 1290.25 0 0 0 166.734 29.193c7.254.772 13.952 4.583 20.964 2.571 7.928-2.275 15.278-10.883 21.531-16.261 32.989-28.375 63.868-59.1 94.713-89.789 2.8-2.789 5.679-5.684 7.172-9.347 1.552-3.814-.25-14.205-1.436-19.956z" fill="#d1e3ed"/><path d="m419.978 371.59c1.554-3.814-.248-14.2-1.434-19.956a2.457 2.457 0 0 0 -3.975-1.4c-18.02 14.907-108.793 90.058-117.007 98.152-2.471 2.436-5.063 4.948-8.35 6.061-3.327 1.126-6.954.681-10.435.217q-38.988-5.193-77.824-11.448a30.7 30.7 0 0 1 11.113 7.814c2.464 2.792 4.371 6.316 4.263 10.038-.155 5.345-4.458 9.808-9.325 12.022a27.78 27.78 0 0 1 -3.9 1.409c23.918 3.993 48 7.306 72.492 9.914 7.254.772 13.952 4.583 20.964 2.571 7.928-2.275 15.278-10.883 21.531-16.261 32.989-28.375 63.868-59.1 94.713-89.789 2.806-2.786 5.681-5.681 7.174-9.344z" fill="#8da8c6"/><path d="m302.255 36.055q-41.485-5.455-82.373-14.606c-11.344-2.543-23.03-5.292-34.51-4.684a17.137 17.137 0 0 0 -.614 4.477c0 17.752 27.872 32.142 62.253 32.142 24.032 0 44.868-7.035 55.244-17.329z" fill="#ffebe8"/><path d="m442.729 78.048c-2.213-8.188-5.764-16.5-12.555-21.582-6.927-5.185-16.028-6.171-24.643-6.977l-13.431-1.258a181.457 181.457 0 0 1 -73.44 35.438 169.883 169.883 0 0 0 -16.21 25.121c-6.652-1.5-13.464-2.458-20.227-3.343q-13.821-1.809-27.671-3.348c-.01.018-.021.035-.031.054-1.139 2.145-1.867 4.516-3.264 6.5-5.255 7.475-16.363 6.139-25.5 6.157a69.484 69.484 0 0 0 -24.526 4.865q46.156 4.3 91.743 13.118c7.289 1.413 14.631 2.933 21.4 5.986 8.184 3.693 15.219 9.484 22 15.363a577.081 577.081 0 0 1 75.6 79.255c7.246-5.131 15.439-13.23 11.969-21.4a10.98 10.98 0 0 0 -.762-1.454q7.377-20.319 13.261-41.139c8.37-29.752 14.352-61.518 6.287-91.356zm-35.5 115.711-18.792-19.03c-11.574-11.72-23.149-23.441-35.038-34.841-3.747-3.593-7.559-7.172-11.515-10.561a167.119 167.119 0 0 1 37.735-43.012c5.283-4.255 10.948-8.25 17.419-10.286s13.915-1.884 19.624 1.78c8.19 5.255 10.764 15.972 11.455 25.678 2.219 31.146-7.733 61.892-20.889 90.272z" fill="#8da8c6"/><path d="m137.086 92.1q-12.033-.807-24.067-1.578c-5.31-.342-10.77-.651-15.974.21.436-.827.883-1.648 1.333-2.467h-25.819a5.885 5.885 0 0 1 -.513.626 13.457 13.457 0 0 1 -2.88 2.018 23.374 23.374 0 0 0 -10.85 21.3c.142 1.8.7 3.858 2.356 4.589a5.72 5.72 0 0 0 2.527.289l19.827-.727a6.834 6.834 0 0 0 2.267-.356q19.318-.576 38.649-.358a79.921 79.921 0 0 0 13.144-23.546z" fill="#fff"/><path d="m98.48 88.074a165.357 165.357 0 0 1 26.394-35.527 56.88 56.88 0 0 1 -8.2-20.079 158.064 158.064 0 0 0 -42.916 53.632 10.757 10.757 0 0 1 -1.712 2.784 8.3 8.3 0 0 1 -1.711 1.316 24.988 24.988 0 0 0 7.892 1.431c5.318.129 10.564-1.119 15.726-2.405q2.262-.565 4.527-1.152z" fill="#8da8c6"/><path d="m423.349 427.753a62.286 62.286 0 0 0 -11.372-17.1c-10.217-10.808-24.215-17.259-38.367-21.835a196.4 196.4 0 0 0 -58.439-9.5c-11.461-.11-23 .782-34.336-.929s-25.4-4.932-29.7-15.558c-15.966-39.473 18.312-48.579 25.681-67.363a52.536 52.536 0 0 0 -.15-38.325c-4.874-12.142-14.7-21.919-26.388-27.793-36.812-18.493-71.775 11.664-71.775 11.664-19.093 19.748-32.837 46.611-31.83 74.062 3.285 89.472 65.717 103.883 72.977 106.1 42.681 13.044 88.487 3.862 133.1 2.517 9.866-.3 20.026-.152 29.172 3.558s17.145 11.749 18.101 21.571c-7.493-2.1-16.109-4.043-22.582.276a16.664 16.664 0 0 0 -6.169 8.25c-3.587 9.879 1.2 21.777 10.121 27.336s20.976 4.956 29.941-.531 14.837-15.319 16.62-25.677-.269-21.148-4.605-30.723z" fill="#ffaebc"/><path d="m423.349 427.753a62.286 62.286 0 0 0 -11.372-17.1c-10.217-10.808-24.215-17.259-38.367-21.835a196.4 196.4 0 0 0 -58.439-9.5c-11.461-.11-23 .782-34.336-.929s-25.4-4.932-29.7-15.558c-15.966-39.473 18.312-48.579 25.681-67.363a52.536 52.536 0 0 0 -.15-38.325c-4.874-12.142-14.7-21.919-26.388-27.793-36.812-18.493-71.775 11.664-71.775 11.664-19.093 19.748-32.837 46.611-31.83 74.062 3.285 89.472 65.717 103.883 72.977 106.1 42.681 13.044 88.487 3.862 133.1 2.517 9.866-.3 20.026-.152 29.172 3.558s17.145 11.749 18.101 21.571c-7.493-2.1-16.109-4.043-22.582.276a16.664 16.664 0 0 0 -6.169 8.25c-3.587 9.879 1.2 21.777 10.121 27.336s20.976 4.956 29.941-.531 14.837-15.319 16.62-25.677-.269-21.148-4.605-30.723z" fill="#ffaebc"/><path d="m411.977 410.654c-10.217-10.808-24.215-17.259-38.367-21.835a196.4 196.4 0 0 0 -58.439-9.5c-11.461-.11-23 .782-34.336-.929s-25.4-4.932-29.7-15.558c-15.966-39.473 18.312-48.579 25.681-67.363a52.536 52.536 0 0 0 -.15-38.325c-4.874-12.142-14.7-21.919-26.388-27.793-36.812-18.493-71.775 11.664-71.775 11.664q-1.158 1.2-2.286 2.435a25.378 25.378 0 0 1 13.536 7.556 25.772 25.772 0 0 1 4.541 26.937 62.8 62.8 0 0 1 23.824-1.332c4.791.655 9.7 1.967 13.333 5.158 6.167 5.416 7.053 14.848 5.218 22.848s-5.863 15.339-8.034 23.254c-6.274 22.876 5.486 49.375 26.659 60.07 9.777 4.938 20.868 6.673 30.909 11.048s19.644 12.737 20.349 23.668a19.808 19.808 0 0 1 -.164 3.99c15.477-1.094 30.989-2.488 46.358-2.951 9.866-.3 20.026-.152 29.172 3.558s17.149 11.746 18.105 21.568c-7.493-2.1-16.109-4.043-22.582.276a16.664 16.664 0 0 0 -6.169 8.25c-3.587 9.879 1.2 21.777 10.121 27.336s20.976 4.956 29.941-.531 14.837-15.319 16.62-25.677-.269-21.148-4.605-30.723a62.286 62.286 0 0 0 -11.372-17.099z" fill="#e57084"/><path d="m172.933 316.78c0-15.743-8.393-29.29-20.452-35.394a86.775 86.775 0 0 0 -5.811 33.691 155.94 155.94 0 0 0 5.591 37.208c12.177-6.051 20.672-19.666 20.672-35.505z" fill="#ffe6ed"/><g fill="#fff4eb"><path d="m71 119.861s1.846 32.373 27.866 45.105a161.991 161.991 0 0 1 9.365-35.726 65.02 65.02 0 0 0 18.979 15.6l8.651-12.29c.483-.685 1.1-1.445 1.94-1.432a2.63 2.63 0 0 1 1.693 1.014l14.706 15.129a68.33 68.33 0 0 1 14.556-15.361c1.376-1.061 3.093-2.122 4.741-1.572 1.46.487 2.232 2.036 2.9 3.425 1.865 3.9 4.183 7.759 7.751 10.194s8.655 3.084 12.14.532c4.406-3.226 6.6-11.052 11.955-9.976 2 .4 3.458 2.08 4.754 3.657l11.38 13.847a47.572 47.572 0 0 0 15.774-14.714l9.318 18.255a114.554 114.554 0 0 0 23.848-14.981 135.839 135.839 0 0 1 5.733 26.464 120.417 120.417 0 0 0 22.05-10.141 115.512 115.512 0 0 1 -8.692 59.253 98.567 98.567 0 0 0 47.34-35.359 232.262 232.262 0 0 1 -6.464 28.835 42.883 42.883 0 0 0 29.862-5.027 73.652 73.652 0 0 1 -1.893 20.847 217.5 217.5 0 0 0 40.969-4.708s-51.391-58.772-84.441-80.1c0 0-20.049-11.09-51.863-12-.005-.004-142.549-18.898-194.918-8.77z"/><path d="m67.195 272.927 81.465 6.759 8.518-19.213s-23.266-15.045-29.652-27.073c0 0-14.684 10.942-19.052 21.625 0 0-16.6-9.955-12.45-47.248 0 0-23.737 14.148-28.829 65.15z"/><path d="m292.008 225.439-3.718 59.925 25.287.8 71.639-37.051-5.647-18.363-28.835-4.069z"/></g><path d="m114.955 193.759a11.97 11.97 0 0 0 -6.788 2.1c-.137 3.913.025 7.893 1.629 11.435 1.842 4.068 6.123 7.371 10.531 6.657a8.933 8.933 0 0 0 5.988-4.238 12 12 0 0 0 -11.36-15.956z" fill="#fff"/><path d="m317.776 140.63s-20.049-11.09-51.863-12c0 0-142.544-18.894-194.911-8.766a49.08 49.08 0 0 0 .675 5.136c8.5-1.871 18.282 1.623 22.9 9.131 4.947 8.052 3.094 19.321-3.46 25.952a43.528 43.528 0 0 0 7.755 4.88 161.991 161.991 0 0 1 9.365-35.726c.587.708 1.194 1.4 1.81 2.079a8.254 8.254 0 0 1 .888-2.085c3.506-5.71 13.222-3.345 16.4 2.554a19.16 19.16 0 0 1 1.94 10.133l6.595-9.37c.483-.685 1.1-1.445 1.94-1.432a2.447 2.447 0 0 1 1.588.911 12.77 12.77 0 0 1 22.716 5.738 68.215 68.215 0 0 1 6.649-5.869c1.376-1.061 3.093-2.122 4.741-1.572a3.843 3.843 0 0 1 1.929 1.646c.19-.214.372-.435.576-.636a12.461 12.461 0 0 1 21.188 8.706 26.5 26.5 0 0 1 -.351 3.981c4.042-3.443 6.278-10.551 11.4-9.522a4.77 4.77 0 0 1 .807.246 10.2 10.2 0 0 1 6.71-4.869c8.377-1.662 14.509 10.01 10.644 17.626-.729 1.436-1.695 2.839-1.888 4.416a47.567 47.567 0 0 0 15.635-14.629l2.095 4.1a13.418 13.418 0 0 1 2.674-3.64c5.893-5.5 17.51-.6 17.681 7.462a19.515 19.515 0 0 1 -.286 3.274 114.212 114.212 0 0 0 11-7.927c.509 1.569.978 3.15 1.429 4.737a18.177 18.177 0 0 1 4.13-4.419c3.955-2.934 10.02-3.557 13.594-.169 4.962 4.7 2.211 12.557 2.361 19.609q3.183-1.627 6.269-3.434c.055.459.092.919.141 1.379a19.744 19.744 0 0 1 29.536 15.623c.6 7.488-3.022 14.593-6.539 21.23l-2.468 4.657a97.76 97.76 0 0 0 17.978-19q-.738 4.661-1.67 9.287a19.1 19.1 0 0 1 6-5.334c5.71-3.058 14.983.353 14.27 6.791-.306 2.757-2.306 5-3.313 7.583s-.314 6.393 2.428 6.819c1.439.223 2.8-.613 4.122-1.219 9.213-4.218 21.367 5.013 19.776 15.02a32.969 32.969 0 0 0 -.676 4.447 217.536 217.536 0 0 0 21.535-3.447s-51.395-58.759-84.445-80.088z" fill="#e2bc96"/><path d="m288.992 285.387 24.585.777 71.639-37.051-5.386-17.513-7.859-1.92-4.712-.665c-2.51.87-4.363 3.23-5.556 5.667-1.338 2.732-2.15 5.741-3.888 8.238a3.661 3.661 0 0 1 -1.452 1.36c-1.459.63-3.054-.5-4.134-1.67s-2.263-2.55-3.852-2.547c-1.541 0-2.757 1.376-3.31 2.814s-.662 3.015-1.2 4.458a8.229 8.229 0 0 1 -11.4 4.007c-3-1.783-4.444-5.263-6.6-8a17.685 17.685 0 0 0 -8.764-5.954c-1.074-.321-2.464-.435-3.095.491a2.807 2.807 0 0 0 -.334 1.61c.013 3.837.61 7.717-.119 11.484s-3.238 7.557-7.012 8.251c-3.273.6-6.542-1.233-9.868-1.092a9.916 9.916 0 0 0 -6.909 3.6l-1.413 22.76c.193.308.408.608.639.895z" fill="#e2bc96"/><path d="m157.178 260.473s-23.266-15.045-29.652-27.073c0 0-1.351 1.008-3.35 2.7 1.411 4.593.97 9.929-.423 14.64-1.015 3.432-2.759 7.053-6.073 8.406a13.65 13.65 0 0 1 -5.816.59 5.08 5.08 0 0 1 -2.485-.553 4.975 4.975 0 0 1 -1.77-2.94c-.248-.81-.478-1.623-.7-2.44-2.945-2.626-9.189-9.889-11.03-25.382-.852 6.165-2.682 12.373-6.891 16.906-2.747 2.959-6.756 5.107-10.739 4.445a23.349 23.349 0 0 1 -6.28-2.561 146.065 146.065 0 0 0 -4.776 25.712l81.465 6.759z" fill="#e2bc96"/></g><g id="Layer_5" fill="#3a3245" data-name="Layer 5"><path d="m440.314 62.972c-6.041-9.693-16.77-14.578-28.07-15.882-64.325-8.389-128.737-16.37-192.571-28.1-18.437-3.056-36.689-7.2-54.948-11.038-34.649-5.123-83.316 52.435-97.417 80.909-12.192 1.9-15.4 19.113-12.132 29.409 1.9 4.876 8.493 1.993 12.5 2.569 5.6 43.865 36.75 41.683 38.193 68.705.159 8.044-3.286 16.069 2.421 23.087 10.608 11.109 24.312 2.73 20.643-12.1-1.807-11.666-11.979-27.792-.667-37.9a16.181 16.181 0 0 1 10.675-4c5.008-.017 7.253 3.155 11.683 4.54 10.94 3.5 15.99-7.858 25.066-10.553 21.733 3.962 32.481 27.382 35.544 47.282-4.379-1.632-7.474-9.99-12.864-6.717-4.826 3.307-7.876 10.943-9.253 17.2-5.568-1.854-9.487-5.3-13.279-10.642a3.084 3.084 0 0 0 -5.248 0c-6.046 8.283-11.086 17.26-13.18 27.432a22.169 22.169 0 0 1 -8.97-11.126c-.732-1.975-3.862-2.94-4.962-.648-3.4 7.088-7.06 14.362-7.77 22.129-3.182-2.908-5.474-11.462-10.871-8.98a49.489 49.489 0 0 0 -18.949 21.267c-6.385-13.7-5.923-29.582-5.5-44.595.1-3.435-4.133-4.8-6.469-2.679-15.6 14.142-26.9 35.1-27.611 56.49-2.2 13.92-15.687 13.635-16.6 19.337 1.16 9.121 2.572 18.192 3.992 27.275 1.015 10.211 4.363 19.963 16.435 20.735a850.473 850.473 0 0 0 17.532 93.615c-9.957 2.063-7.736 12.2-4.93 19.131 2.636 7.655 4.285 13.593 12.759 15.85 63.737 16.041 128.945 25.885 193.937 35.082 10.693.939 18.622-8.956 26.07-15.247 18.541-15.661 37-31.428 54.994-47.712 11.364 2.615 21.062 7.8 27.15 17.209-6.5-4.845-20.663-5.725-26.993 1.867-16.5 18.482.906 47.631 24.3 46.147 48.856-.722 50.629-70.811 6.572-94.6q7.711-7.71 15.171-15.664c5.529-4.8 8.239-11.41 7.019-18.695-.142-5.979 1.34-17.593-7.134-18.226-1.115-20.532-2.247-41.068-3.791-61.572 7.2-5.407 6.069-13.332 5.48-21.5q-.969-13.429-1.937-26.857c6.26-7.278 16.607-17.019 10.625-26.519 15.08-44.105 36.017-101.181 13.355-145.715zm-115.971 47.58c-5.671-1.352-11.3-2.371-16.967-3.652 13.463-24.461 32.467-47.083 58.944-57.741q9.03 1.12 18.07 2.1c-26.315 11.778-44.252 36.041-60.047 59.293zm87.086 146.415c.455 6.371 3.4 17.432-2.849 21.664-41.051 24.761-82.592 48.869-123.769 73.479-.819-14.045-1.34-28.247-1.131-42.279.348-.456.692-.919 1.029-1.4l125.45-69.217q.635 8.878 1.27 17.753zm-317.529 163.288c-7.208-29.374-12.625-58.99-17.6-88.789 10.778 2.578 21.408 4.131 32.015 7.086 3.885 29.053 8.588 57.988 12.84 86.987-9.17-1.752-18.101-3.224-27.255-5.284zm60.081-278.089c-4.247-3.16-7.444-7.442-10.472-11.8-1.878-3.578.249-6.889 2.913-9.057q9.893.35 19.777.859c3.018 2.853 2.854 5.868.4 9.22a93.676 93.676 0 0 0 -12.616 10.778zm-28.35-.48c-7.707-4.593-13.955-12.14-8.534-21.077q8.691.111 17.38.337c3.268 7.654-6.33 14.016-8.844 20.74zm237.369 208.652a298.053 298.053 0 0 0 6.26 32.638l-1.1.944c-9.477-2.334-18.121-3.8-27.533-5.188-1.571-13.408-3.823-26.855-5.845-40.216 7.936-5.839 16.66-10.154 25.111-15.157.401 9.021 1.835 18.141 3.107 26.979zm-2.644-96.074c-2.1-4.587 4.808-13.51 6.308-18.887 13.22 9.948 9.189 15.808-6.307 18.887zm-88.947-105.608c.038.039.074.081.111.12-.058-.024-.117-.047-.177-.07zm75.078 114.785c-5.1.873-11.734 1.038-14.464-4.231 3.047-8.164 5.494-16.1 6-24.7 8.177 2.204 18.733 24.46 8.464 28.931zm-33.787 19.191c-10.413.605-14.569-9.1-16.137-18.535a158.537 158.537 0 0 0 2.707-33.347c13.388 7.431 24.471 21.719 22.462 37.724-.644 5.336-3.143 12.836-9.032 14.158zm-35.669 48.068c.173 7.6.308 15.47 1.488 23.039q-11.963-1.971-23.925-3.941c.506-9.938 8.294-23.595 22.42-33.021q-.148 6.963.017 13.923zm13.885 39.906q6.014-4.515 12.028-9.027c.3 4.616.761 9.221 1.325 13.811-5.613-.268-11.431-.246-16.98-.563q1.793-2.127 3.627-4.218zm20.049 5.12a158.576 158.576 0 0 1 -1.583-18.953q9.493-7.044 19.137-13.88a324.11 324.11 0 0 0 5.041 34.889q-11.26-1.387-22.595-2.053zm23.288-218.01c8.66 21.847-15.281 41.851-33.052 50.058 3.863-14.069 6.334-29.718 4.583-44.323 2.889-25.858 13.026-19.301 28.469-5.732zm-31.206-19.475c5.446 3.354-.145 10.213-4.565 15.5a32.666 32.666 0 0 1 -14.017 4.187c-1.649-7.294-9.495-16.89-3.563-23.724q11.112 1.801 22.145 4.04zm-36.633-6.3c10.406 8.154-3.991 15.607-11.106 18.667a57.971 57.971 0 0 0 -5.194-7.272c-1-3.16-5.144-7.564-2.779-11.054 3.353-3.114 14.619-.908 19.079-.342zm-29.39-3.89c3.751 8.377-7.044 13.8-12.506 18.209a155.254 155.254 0 0 0 -11.511-12.2c-3.407-3.437-4.945-6.76.945-8.435q11.548 1.075 23.072 2.425zm-39.286-3.826c10.394 6.629-2.872 16.748-9.468 19.7-3.4-5.168-9.439-8.642-11.565-14.583-1.369-10.55 14.915-4.57 21.033-5.118zm-69.671 302.6c-4.114-28.8-8.034-57.6-12.407-86.368 10.228 2.455 20.131 6.072 30.26 8.871a83.073 83.073 0 0 0 7.663 19.386c2.324 21.424 5 42.6 6.956 64.04q-16.246-2.928-32.472-5.935zm38.43-5.29c-1.347-13.051-2.892-26.081-4.323-39.124a123.4 123.4 0 0 0 38.726 35.426c.379 7.769 1.322 14.687 1.743 22.288q-17.4-2.961-34.785-6.067c.235-4.097-1.009-9.112-1.358-12.529zm43.2 19.788c-.358-6.6-1.119-12.913-1.3-19.563a123.577 123.577 0 0 0 34.532 10.259c.421 4.887.155 9.809.607 14.816q-16.936-2.669-33.836-5.518zm39.688-6.642q-.072-.912-.141-1.827a224.314 224.314 0 0 0 29.873 1.146c1.294 6.37 2.363 12.35 3.466 18.678q-16.035-2.277-32.043-4.756c.171-4.304-.825-9.067-1.157-13.247zm40.149 16.76c-1.018-5.921-2.261-11.71-3.131-17.671 8.54-.353 17.058-1.01 25.584-1.609zm-105.475-136.641c3.224-31.833 40.878-64.114 73.321-55.016 12.051 5.267 18.541 17.1 14.759 30.389-3.484 16.571-19.954 24.28-28.11 37.943-6.782 12.069-7.3 27.462 1.239 38.833 11.943 15.393 35.841 15.739 53.919 16.269 31.845 1.873 62.743 3.344 92.469 18.037-34.216-13.023-70.471-4.962-105.854-4.891-50.819.528-111.99-18.775-101.743-81.564zm190.778 63.393c-4.061-19.313-6.434-38.879-8.6-58.465q11.061-6.378 22.077-12.831c1.964 18.366 3.047 36.671 5.161 55.01-6.197 5.485-12.357 10.935-18.638 16.281zm24.848-21.707c-1.264-17.97-2.651-35.779-4.3-53.714 4.1-2.507 8.459-4.715 12.282-7.625.942 17.482 1.932 34.961 2.76 52.449-3.642 2.862-7.212 5.845-10.742 8.885zm-10.315-143.717a6.229 6.229 0 0 1 .056 3.524c-5.157 2.593-11.436 3.1-17.3 2.853-.167-4.078-1.3-7.879-2.326-11.694-2.76-23.896 13.153-.937 19.57 5.317zm-26.37-27.902c3.9 11.979-8.478 18.047-18.5 18.919.452-7.157-4.045-28.887 5.271-30.855 5.216 2.253 8.815 8.24 13.229 11.936zm-50.714-51.667c-82.21-17.237-166.595-21.75-250.423-19.8-.621-4.4-.183-10.377 2.226-13.986 11.567-5.334 25.911-3.214 38.478-5.085 73.41-.044 146.791 6.135 218.606 21.369a139.527 139.527 0 0 0 -8.887 17.502zm-163.536-95.926c61.964 3.169 122.967 13.784 183.735 25.831a143.646 143.646 0 0 0 -17.191 18.919 1257.051 1257.051 0 0 0 -191.122-22.276 183.774 183.774 0 0 1 24.578-22.474zm-29.591 28.188c64.447 3.108 128.668 9.862 192.026 22.213a113.749 113.749 0 0 0 -10.23 17.912c-65.071-13.161-131.815-16.7-198.028-17.235a169.608 169.608 0 0 1 16.232-22.89zm179.935-25.785c18.409 2.747 36.871 5.516 55.372 7.965a111.036 111.036 0 0 0 -15.759 10.244c-60.1-11.986-120.677-22.994-181.969-26.179 25.392-16.092 30.847-10.576 57.681-5.912 28.144 5.096 56.387 9.662 84.675 13.882zm-179.707-3.257c14.544-11.664 31.577-26.4 51.492-19.617-30.738 13.429-59.8 41.829-75.117 71.552-6.725.055-13.44.285-20.089.848a196.073 196.073 0 0 1 43.714-52.783zm-45.264 84.3q12.993-.224 25.989-.219c14.61 5.123-2.626 16.1-2.738 40.677-12.402-9.905-20.204-25.045-23.251-40.458zm80.312 35.821c-3.629-.327-6.095-3.494-9.7-4.14-24.2-4.936-34.041 19.1-25.541 38.865 1.339 3.854 7.1 17.98.182 19.545-12.6 1.126-5.733-18.185-7.4-25.226a37.094 37.094 0 0 0 -7.824-17.452 69.036 69.036 0 0 1 6-31.45c3.962 5.3 9.67 9.6 15.178 12.845 2.082 1.227 4.179-.05 5-2.033a49.814 49.814 0 0 1 7.993-12.737c4.024 5.689 8.368 11.14 14.455 14.768a3.446 3.446 0 0 0 4.121-.531 86.022 86.022 0 0 1 14.183-12.465 46.371 46.371 0 0 1 9.2 8.282c-10.805-2.725-16.44 9.95-25.847 11.729zm-28.6 80.582c6.662 9.1 12.661 16.637 20.154 25.549 2.95 8.071-9.754 9.754-15.478 10.2a27.336 27.336 0 0 1 -17.783-4.752c-5.587-11.754 4.064-23.977 13.109-30.997zm-33.31-22.686c-2.3 39.411 18.4 46.556 7.515 54.929-9.175-1.289-18.671 2.8-27.192-1.761.876-19.954 6.47-38.561 19.677-53.168zm-27.7 103.434c-3.514-2.413-3.6-6.981-4.192-10.816-1.3-8.36-2.593-16.716-4.061-25.046 29.739 4.277 59.34 9.46 89.126 13.5a103.859 103.859 0 0 0 -2.581 36.024l-44.964-7.381c-10.977-2.391-22.807-2.491-33.328-6.281zm210.675 164.01c-49.363-7.229-98.736-14.754-147.478-25.5q-12.786-2.823-25.5-5.971c-3.044-.757-7.775-1.119-10.071-3.523-2.846-4.252-3.757-9.851-5.582-14.623-1.728-6.607 2.621-6.435 7.534-5.51 63.926 12 128.015 23.377 192.348 32.787 1.414 8.22 3.422 16.379 5.287 24.516-5.238.579-11.768-1.478-16.538-2.176zm34.172-10.149c-3.468 2.928-7.326 7.266-11.458 9.956-1.8-8.226-3.5-16.533-5.8-24.62 9.875-8.595 19.862-17.058 29.776-25.608 11.763-.753 23.534-1.273 35.322-.966-15.732 13.99-31.753 27.656-47.842 41.238zm107 3.525c-13.883 15.05-44.012 11.344-44.38-12.219a15.614 15.614 0 0 1 4.091-11.292c3.9-5.254 16.2-3.516 19.288 1.543 3.486 4.524 3.052 10.842 2.848 11.823a4 4 0 0 0 6.981 3.688c8.654-11.514 2.289-22.986 1.166-24.821-21.938-41.8-84.707-23.238-123.567-22.126-27.857-.172-59.826-2.43-85.719-17.89-58.527-33.527-61.836-123.438-7.3-163.026 9.922-8.775 26.686-12.32 38.077-5.013 11.442 12.606-12.552 19.3-20.048 25.519-25.837 18.758-35.432 52.83-29.214 83.493 6.857 33.816 41.384 49.124 72.116 54.607 27.478 5.162 54.652 3.421 82.374.847 29.98-1.359 67.6 2.943 86.869 28.764 7.846 19.32 6.577 35.687-3.584 46.103zm-2.408-99.6c-5.65 6.615-12.009 12.759-18.217 18.876a103.912 103.912 0 0 0 -20.772-8.654c13.453-11.394 26.843-23.277 40.249-34.559 2.366.14 1.912 9.555 2 11.163.305 5.434.476 8.803-3.262 13.179zm-1.239-146.679c-29.7-33.078-59.583-66.528-95.247-93.357a124.278 124.278 0 0 1 8.872-16.938c34.379 28.018 66.21 58.9 94.423 93.129 3.627 4.805-3.55 12.394-8.05 17.171zm12.169-101.051q-20.636-21.027-39.978-43.258c6.852-4.629 14.428-7.584 22.138-6.161 22.57 4.709 20.098 31.753 17.838 49.424zm-44.786-39.67c13.173 16.5 27.831 32.917 43.509 47.06-1.692 8.531-3.921 16.8-6.446 25.109q-26.293-28.164-53.842-55.125a129.188 129.188 0 0 1 16.777-17.039zm-20.713 22.107q28.192 28 55.588 56.769a141.964 141.964 0 0 1 -8.047 19.147c-18.51-20.906-39.136-39.67-59.936-57.98 4.144-6.02 8.07-12.1 12.393-17.931zm82.341 15.95c-3.069 26.56-10.989 52.554-20.36 77.552-3.123-4.121-6.379-8.153-9.728-12.119 12.9-26 21.434-55.387 21.3-84.544-.51-14.135-4.944-28.133-19.269-33.646-29.568-10.161-58.6 28.173-71.146 50.882-4.276-3.66-8.568-7.288-12.941-10.832 19.443-27.973 44.571-63.054 82.794-60.047 33.73 3.902 31.807 47.187 29.348 72.759z"/><path d="m209.554 323.465c-5.329 2.454-5.382 11.251-.181 13.82 8.292 2.991 8.006-16.85.181-13.82z"/><path d="m225.528 311.348c1.486-2.335 1.594-7.256-2.044-7.436a2.933 2.933 0 0 0 -2.681 1.9c-3.703 3.097 1.343 10.157 4.725 5.536zm.078-2.543c-.012.081-.023.157-.031.212a1.862 1.862 0 0 1 .024-.255z"/><path d="m206.551 303.356c4.54-3.333 12.468-10.97 5.674-15.933-6.762-3.11-9.6 6.858-11.208 11.678-.879 2.908 2.84 6.299 5.534 4.255z"/><path d="m196.7 253.139c4.566.107 5.15-7.075.281-6.727-3.545.479-4.533 6.6-.281 6.727z"/><path d="m179.567 267.718a2.993 2.993 0 0 0 4.195-1.837 3.134 3.134 0 0 0 -2.1-5.407c-3.39.102-5.268 5.449-2.095 7.244z"/></g></svg>