<svg height="512" viewBox="0 0 500 500" width="512" xmlns="http://www.w3.org/2000/svg"><g id="Layer_4" data-name="Layer 4"><path d="m72.13 97.438 117.02 12.041h133.085l9.742 18.332 7.72-20.192 124.808-37.612 3.706 342.925s-99.332 21.591-198.98 28.631l-20.239-6.053-7.275-14.132-10.859 16.462-106.4 3.723s-86.299-195.848-52.328-344.125z" fill="#fffaf5"/><path d="m467.187 318.134-11.319 2.052c-217.41 126.345-326.842-208.58-326.842-208.58s-1.587-3.307-4.47-8.773l-52.426-5.395c-33.971 148.277 52.333 344.125 52.333 344.125l106.4-3.723 10.859-16.462 7.275 14.132 20.239 6.053c99.648-7.04 198.98-28.631 198.98-28.631z" fill="#d8c4b8"/><path d="m115.617 384.492c-17.253-92.779-36.58-187.723-20.768-280.758 2.167-12.745 8.656-26.136.068-35.8-4.693-5.281-15.958-9.344-22.959-10.293-34.842-4.727-49.5 12.176-49.5 12.176-6.973 11.149-4.868 25.453-2.858 38.444 15.943 102.855 10.74 207.753 2.439 311.506 0 0 32.177-48.431 97.164-7.464-.178-9.357-1.875-18.61-3.586-27.811z" fill="#f9dab9"/><path d="m114.1 415.589a17.74 17.74 0 0 0 -3.828-8.3c-2.542-2.8-6.229-4.218-9.773-5.541-9.953-3.714-20.417-7.49-30.941-6.043 0 0-29.353-1.686-31.4 20.8a43.743 43.743 0 0 0 -.026 11.293 23.9 23.9 0 0 0 2.946 8.5c3.535 5.8 10.146 9.01 16.7 10.785 12.048 3.264 24.911 2.683 37.063-.171a34.008 34.008 0 0 0 7.172-2.356 22.87 22.87 0 0 0 11.012-12.323 29.3 29.3 0 0 0 1.075-16.644z" fill="#af7b6d"/><path d="m115.617 384.492c-9.633-51.8-19.906-104.279-24.355-156.722-2.254 10.961-6.04 22.434-11.721 32.1-7.89 13.424-28.19 9.976-31.49-5.24-3.137-14.464-4.258-29.557-5.227-43.306q-3.853-54.663-4.352-109.5c-.089-9.8-.079-19.737 2.533-29.178a43.276 43.276 0 0 1 7.275-14.9c-17.933 2.997-25.827 12.072-25.827 12.072-6.968 11.148-4.863 25.452-2.853 38.443 9.456 61 11.472 122.727 9.815 184.5v.124c-1.139 42.34-4 84.7-7.374 126.879 0 0 32.177-48.431 97.164-7.464-.18-9.354-1.877-18.607-3.588-27.808z" fill="#c49382"/><path d="m99.432 83.271 78.731 5.815 10.987 20.393 9.168-18.289s96.245.64 114.358-3.194l18.41 32.689 11.714-35.039 25.7-6.236s88.487-18.71 112.242-39.492v62.653l1.188 310.361s-29.467 42.836-143.9 44.7c0 0-82.664 3.049-83.257 1.861s-13.055-38.112-13.055-38.112l-10.4 25.938-9.479-5.939-9.787 16.252-20.512 4.237s-45.409-2.237-46.168-4.237-10.262-33.177-10.262-33.177l100.342 5.642 6.268-12.472 5.8 12.175s172.056 4.228 208.877-34.41l-2.176-310.635s-47.439 21.551-114.521 22.864l-7.72 20.192-9.742-18.332s-127.146 8.814-226.621-.235z" fill="#fffaf5"/><path d="m122.055 84.942-22.623-1.672-3.818 25.974c10.874.99 22.079 1.765 33.412 2.362a94.846 94.846 0 0 1 -6.971-26.664z" fill="#d8c4b8"/><path d="m455.868 320.186.526 75.2c-36.821 38.638-208.877 34.41-208.877 34.41l-5.8-12.175-6.268 12.472-100.342-5.642s9.5 31.178 10.262 33.177 46.168 4.237 46.168 4.237l20.512-4.237 9.787-16.252 9.479 5.939 10.4-25.938s12.462 36.925 13.055 38.112 83.257-1.861 83.257-1.861c114.434-1.861 143.9-44.7 143.9-44.7l-.459-120.087a126.752 126.752 0 0 1 -25.6 27.345z" fill="#d8c4b8"/><path d="m407.49 238.872c-.618-8.635-8.64-14.535-13.426-21.75-6.433-9.7-6.99-21.971-8.462-33.515s-4.781-24.068-14.388-30.637c-8.5-5.811-19.886-5.383-29.767-2.5s-19.017 7.944-28.879 10.9c-13.4 4.012-27.624 4.008-41.61 3.97-14.811-.039-30.284-.235-43.4-7.112-5.969-3.13-11.211-7.539-17.274-10.484s-13.539-4.25-19.407-.935c-9.979 5.639-11.305 21.947-22.3 25.185a24.443 24.443 0 0 1 -12.712-.216c-13.564-3.4-20.446 8.577-20.446 8.577a22.381 22.381 0 0 0 3.923 25.029c3.254 3.317 7.565 5.594 10.267 9.375 4.11 5.752 3.614 13.656 6.823 19.955 4.053 7.957 13.234 11.909 22.015 13.532 5.968 1.1 12.426 1.569 17.2 5.314 7.643 5.992 6.613 19.827-1.833 24.622-6.535 3.71-14.622 2.014-22.124 1.589s-16.613 1.729-18.926 8.878c-2.111 6.524 2.757 13.506 1.663 20.275-1.184 7.318-8.612 11.657-13.033 17.607-6.808 9.163-5.864 22.814 1.037 31.906s18.787 13.665 30.189 13.126c23.92-1.131 45.708-22.191 68.9-16.225 6.414 1.649 12.107 5.269 17.986 8.32a110.458 110.458 0 0 0 52.9 12.334c6.713-.139 13.969-1.143 18.763-5.844 5.592-5.485 6.1-14.122 8.355-21.623a43.915 43.915 0 0 1 21.323-25.89c9.723-5.123 21.6-6.714 29.354-14.5 6.57-6.6 8.769-16.35 9.59-25.626s.589-18.792 3.5-27.639c1.73-5.281 4.596-10.454 4.199-15.998z" fill="#e0cfd1"/><path d="m312.4 375.994c6.713-.139 13.969-1.143 18.763-5.844 5.592-5.485 6.1-14.122 8.355-21.623.119-.4.257-.788.388-1.181-98.539-27.191-157.165-115.576-186.706-176.046-11.8-1.345-17.784 9.059-17.784 9.059a22.381 22.381 0 0 0 3.923 25.029c3.254 3.317 7.565 5.594 10.267 9.375 4.11 5.752 3.614 13.656 6.823 19.955 4.053 7.957 13.234 11.909 22.015 13.532 5.968 1.1 12.426 1.569 17.2 5.314 7.643 5.992 6.613 19.827-1.833 24.622-6.535 3.71-14.622 2.014-22.124 1.589s-16.613 1.729-18.926 8.878c-2.111 6.524 2.757 13.506 1.663 20.275-1.184 7.318-8.612 11.657-13.033 17.607-6.808 9.163-5.864 22.814 1.037 31.906s18.787 13.665 30.189 13.126c23.92-1.131 45.708-22.191 68.9-16.225 6.414 1.649 12.107 5.269 17.986 8.32a110.458 110.458 0 0 0 52.897 12.332z" fill="#b99994"/><path d="m390.705 102.693s-3.959 16.629 3.007 22.726 17.8 7.622 17.8 7.622 8.216 13.3 24.729 10.208 20.071 5.195 20.071 5.195l-2.095-63.689s-26.731 13.599-63.512 17.938z" fill="#e0cfd1"/></g><g id="Layer_5" fill="#3a3245" data-name="Layer 5"><path d="m485.072 247.753c-.347-69.162.6-138.361.017-207.5a3.624 3.624 0 0 0 -5.945-3.533 54.326 54.326 0 0 1 -8 5.7c-36 21.415-77.91 30.339-118.828 36.984-7.929 1.2-13.443 4.207-15.551 12.386-2.089 8.108-3.993 16.27-5.91 24.425l-13.7-30.475a3.382 3.382 0 0 0 -3.028-1.74c-38.757 3.564-77.715 4.3-116.608 3.334a3.423 3.423 0 0 0 -3.033 1.74l-5.823 13.577q-3.276-7.092-6.553-14.182a3.494 3.494 0 0 0 -3.036-1.742q-38.376-1.55-76.624-5.081c.848-26.736-36.908-32.162-57-27.266-13.429 2.82-28.069 8.94-30.734 23.982 2.733 53.145 9.866 106.548 10.753 159.993 2.039 59.281 2.455 119.543-7.67 178.177-4.579 12.759 5.61 26.934 17.125 32.326 49.61 17.078 104.279 14.257 156.132 15.207 18.469.708 25.532.329 32.069-18.732 3.078 2.158 8.55 9.38 11.347 3.291q3.19-10.074 6.382-20.148l10.482 31.537a3.449 3.449 0 0 0 3.25 2.474c40.076-1.766 80.315-1.49 120.291-5.117 36.653-3.343 78.265-9.352 104.846-37.394 4.817-4.214 6.068-7.97 5.318-14.244-.005-52.232.043-105.841.031-157.979zm-31.172 104.261c.148 14.372.07 28.745.326 43.113-47.508 34.483-148.015 29.815-206.7 32.1l-3.5-10.516a3.389 3.389 0 0 0 -6.477 0l-3.192 10.1q-6.261-.038-12.51-.154c.341-22.728.4-45.462.437-68.192 20.333-4.671 32.59 7.593 49.471 15.307 9.223 3.548 18.8 1.994 28.4 2.733 28.118 5.328 37.633.763 43.992-27.832a143.608 143.608 0 0 0 24.066-.408 2.556 2.556 0 0 0 0-5.109 167.545 167.545 0 0 0 -21.957-.606c7.15-19.329 31.522-14.344 45.931-32.008 9.909-9.926 10.24-24.417 10.491-37.4a255.754 255.754 0 0 0 50.723-1.834q.241 40.35.499 80.706zm-266.145-237.429c36.054.36 72.24.076 108.314-1.155-.881 15.125-.588 30.357-.649 45.5-24.436 1.785-52.262 7.662-73.118-8.815-.087-9.323-.327-18.61-.658-27.917a2.345 2.345 0 0 0 -4.688 0c-.288 8.1-.509 16.174-.619 24.276-11.93-7.657-26.9-8.694-33.33 5.411-3 4.838-5.131 12.2-10.6 14.886-4.526 2.187-9.859.036-14.525-.571-10.6-1.667-21.593 4.679-25.765 14.508a263.526 263.526 0 0 0 -32.75-.282c-.219-22.58.186-45.106 1.009-67.664 29.114.879 58.245 1.548 87.379 1.823zm208.1 152.879c-1.536 9.062.6 18.646-2.344 27.472-5.362 16.083-21.2 20.936-35.2 26.828-17.306 6.391-19.125 20.462-23.77 36-7.955 22.88-28.539 9.432-46.313 11.547-18.44.7-30.781-15-48.283-17.9-17.327-3.923-32.9 5.183-48.016 12.2-15.292 6.146-36 7.752-46.768-7.384-5.261-7.395-4.847-16.465-.879-24.359 3.34-6.645 10.166-11.26 12.791-18.153 3.058-8.03-4.384-15.769-.346-23.555 8.675-15.3 29.875 2.391 42.164-10.147a19.188 19.188 0 0 0 5.963-18.045c-4.477-21.591-29.975-12.785-43.494-22.9-8.224-9.493.731-18.767-14.362-30.693-6.686-5.67-11.764-12.551-9.738-21.855a18.079 18.079 0 0 1 17.324-13.922c16.807 2.138 23.33 3.888 31.662-13.331 3.63-5.459 6.656-11.935 14.394-10.651 14.351 3.009 24.8 15.432 39.178 18.6 8.721 2.142 17.806 1.7 26.694 1.258 18.156-1.618 37.02-.729 54.561-6.193 14.206-6.176 28.837-18.819 44.718-9.324 10.647 5.749 18.228 39.022 19.923 51.083.88 7.448 2.013 14.258 7.114 20.075 20.76 18.03 8.124 22.227 3.031 43.349zm-307.307 157.412a3.293 3.293 0 0 0 4.916-2.821c-.14-6.538-.569-12.173-.377-18.879 8.079 2.724 18.35 6.792 18.013 17.01-1.515 18.527-31.343 22.082-45.671 17.714-6.4-2.406-17.323-11.809-6.877-16.723 8.675-3.814 23.594-.188 29.996 3.699zm48.992-130.719a2.8 2.8 0 0 0 -5.594 0c-1.161 10.776-.522 21.857-.5 32.687.154 25.317-.038 50.6-.018 75.928-13.7-37.6-21.033-77.223-25.722-116.864 12.143.2 23.574.182 35.375-2.022 2.915-.607 2.04-4.789-.671-4.957-11.807-.555-23.656 1.249-35.468.261-3.38-30.837-5.06-61.869-5.512-92.907a273.673 273.673 0 0 0 31.087-.163 26.721 26.721 0 0 0 2.807 17.072c-1.115 9.127-.357 18.919-.412 28-.064 10.393-.718 21.091.334 31.449a2.682 2.682 0 0 0 5.36 0c1.052-10.357.4-21.057.334-31.449-.042-6.854.383-14.11.116-21.179 4.256 3.79 9.094 7.151 10.652 12.587 2.348 8.193.357 16.124 7.8 22.153 5.664 4.584 13.079 5.675 20.084 6.515 8.564 1.027 20.12 3.031 20.713 13.828.312 11.488-11.3 14.568-20.626 12.11-16.062-3.86-31.525 4.243-29.012 22.342.963 4.991 3.727 9.341.413 14.058-3.718 4.952-8.461 9.212-11.054 14.975.005-11.405.735-23.072-.486-34.424zm-51.312 107.124c.235 5.692.531 9.91.565 15.275-11.244-5.019-26.63-5.967-36.347 2.7-.015-5.528 1.018-11.427.431-17.008 11.607-3.68 23.612-3.448 35.351-.967zm51.533 17.31c.645-20.164.119-40.407.205-60.563 10.853 18.341 35.894 20.593 54.163 12.937 8.271-3.1 15.87-7.914 24.2-10.832.037 22.132.1 44.268.432 66.4-25.84-.628-51.553-2.224-77.345-4.235q-.843-1.848-1.655-3.707zm314.527-329.5q.163 26.421.32 52.843c-10.709-6.147-26.489 5.245-34.36-7.257-13.227-15.039-26.878.844-24.2-29.532 19.791-3.545 39.961-7.38 58.24-16.059zm-62.115 37.006c4.452 9.074 13.746 4.969 20.3 9.842 5.579 4.881 8.375 10.516 16.464 11.482 8.224.746 19.162-4.064 25.721 2.8q.348 57.354.7 114.708c-16.542 2.723-33.277 2.081-49.963 2.41 1.769-10.5 10.545-20.1 7.6-31.279-1.953-7.5-8.439-11.378-13.159-16.947-6.349-7.494-5.115-19.324-7.263-28.472a190.113 190.113 0 0 0 -9.453-28.641c-6.188-15.013-19.791-22.148-35.77-18.984-16.553 4.432-24.122 14.927-43.694 15.43-.054-15.044.227-30.175-.659-45.2q10.246-.387 20.486-.9 3.692 8.209 7.384 16.417c1.252 2.783 5.732 1.924 6.395-.835l3.987-16.588c16.158-1.169 32.349-2.741 48.4-5.174-.701 6.621-.687 14.162 2.524 19.926zm-190.388-31.692a1001.623 1001.623 0 0 0 112.183-3.215q3.621 8.054 7.244 16.106c-41.9 2.044-83.878 2.44-125.832 2.049zm-15.785 14.839q-41.712-.489-83.4-1.834c.058-6.085 1.048-12.3.814-18.314.024-.164.047-.329.072-.493q37.595 3.438 75.313 5.054zm-159.22 13.875q-1.1-12.33-2.324-24.651c-.792-7.994-3.218-17.434.915-24.772 4.1-7.287 12.732-10.081 20.361-12.082 15.677-4.008 34.625-3.5 47.307 7.7 4.553 4.217 5.335 9.024 4.444 14.842-15.064 106.873-11.734 217.867 18.294 321.928-25.661-17.913-64.732-18.991-88.01 3.477 13.567-94.861 6.533-191.361-.987-286.442zm194.193 315.149c-2.938 5.556-4.389 12.194-8.375 17.068-4.006 3.4-11.729 2-16.635 2.043q-7.633.07-15.266.058a35.108 35.108 0 0 1 -30.445-17.818q-3.2-5.625-6.046-11.446c29.906 3.45 60.449 3.868 90.461 3.945l-3.123 9.882c-2.887-1.886-7.376-8.36-10.571-3.732zm194.779 6.732c-51.511 10.4-104.552 7.853-156.772 10.652q-3.995-12-7.988-23.989c65.373-2.552 140.135 2.534 199.965-27.111 4.191-2.591 11.74-5.843 9.928-11.961q-.823-153.4-1.552-306.831c.407-2.1-1.7-4.481-3.816-3.13-34.711 17.237-74.943 19.748-112.991 23.4 3.5-12.1.877-19.588 16.45-20.326 41.74-7.054 85.067-16.23 121.149-39.488-.063 121.7.158 243.488-.038 365.146-15.943 19.509-40.287 28.538-64.335 33.638z"/><path d="m407.206 339.007a97.464 97.464 0 0 0 -.666-10.035c1.305 1.785 2.6 3.576 3.874 5.387 2.341 3.334 7.873.146 5.5-3.218-3.584-5.09-7.242-10.148-11.194-14.961-1.314-1.6-3.882-.914-4.848.625-3.053 4.865-7.32 10.875-8.278 16.618-.353 2.121 2.29 4.355 4.022 2.342a44.055 44.055 0 0 0 5.043-7.75 94.662 94.662 0 0 0 -.784 10.992 26.832 26.832 0 0 0 -22.866 22.9 52.236 52.236 0 0 0 -11.12.787c-2.458.513-2.46 4.46 0 4.973a51.942 51.942 0 0 0 11.029.788 26.827 26.827 0 0 0 23.328 23.654 56.886 56.886 0 0 0 .806 10.72c.472 2.46 4.5 2.462 4.972 0a56.367 56.367 0 0 0 .787-10.717 26.826 26.826 0 0 0 23.32-23.44 61.093 61.093 0 0 0 11.058-1c2.467-.486 2.469-4.5 0-4.987a61.263 61.263 0 0 0 -11.149-1 26.835 26.835 0 0 0 -22.834-22.678zm-7.292 8.1c.114 5 .343 9.987.4 14.858q-7.605 0-15.209.011a18.823 18.823 0 0 1 14.809-14.866zm-14.914 21.267q7.668.013 15.337.011c0 5.212.013 10.424 0 15.636a18.8 18.8 0 0 1 -15.337-15.647zm21.74 15.648c-.008-12.378-.059-24.456.433-36.912a18.83 18.83 0 0 1 14.778 14.69c-2.567.075-5.118.155-7.622.156-4.142 0-4.149 6.435 0 6.437 2.54 0 5.127.084 7.73.159a18.8 18.8 0 0 1 -15.319 15.47z"/><path d="m111.689 141.221c9.755-5.705 12.887.3 21.777 2.669 7.1 1.1 11.895-4.921 18.625-5.374 6.427-1.367 2.911-11.189-10.16-3.265-4.99 3.487-9.175 2.632-14.042-.507-6.355-3.111-15.134-3.3-19.546 3.132-1.51 2.201 1.343 4.292 3.346 3.345z"/><path d="m137.805 150.672c-3.876.616-7.217-.576-10.921-1.456a2.441 2.441 0 0 0 -2.357 4.048c3.887 3.859 10.386 4.364 15.536 3.32 7.2-1.46 14.28-8.821 21.952-5.375 3.736 1.678 6.993-3.861 3.234-5.532-9.749-4.844-18.322 2.453-27.444 4.995z"/><path d="m402.085 172.784c8.106-5.767 11.053 1.575 18.542 2.815 5.759.454 9.127-5.083 14.478-5.52a3.143 3.143 0 0 0 0-6.282c-8.1-.814-11.125 9.83-19.046 2.881-13.702-8.503-23.14 7.795-13.974 6.106z"/><path d="m423.8 182.1c-3.322.9-6.223-.359-9.32-1.319-2.47-.766-3.829 2.323-2.356 4.048 3.032 3.549 8.308 4.336 12.726 3.416 5.876-1.224 11.964-8.719 18.132-5.471 3.648 1.92 6.893-3.627 3.234-5.531-4.992-2.6-9.79-1.749-14.651.772-2.55 1.32-4.965 3.321-7.765 4.085z"/><path d="m284.862 399.934c5.759.455 9.127-5.082 14.478-5.519a3.143 3.143 0 0 0 0-6.282c-4.974-.607-8.4 3.676-12.658 5.28-2.462.544-4.424-1.188-6.388-2.4-13.7-8.5-23.14 7.8-13.974 6.106 8.107-5.766 11.053 1.581 18.542 2.815z"/><path d="m310.452 401.576c-13.105-6.791-18.716 10.044-31.735 3.538-2.471-.766-3.83 2.323-2.357 4.048 3.032 3.549 8.308 4.337 12.726 3.416 5.876-1.224 11.964-8.718 18.132-5.471 3.648 1.921 6.893-3.627 3.234-5.531z"/><path d="m218.2 201.847c4.1 3 8.133 6.088 12.167 9.181 2.985 2.289 7.007-2.868 4.052-5.252-3.4-2.745-6.885-5.4-10.409-7.989 3.1-2.643 11.986-5.871 11.108-10.448-.487-2.26-3.534-3.681-5.265-1.723-3.45 3.06-8.051 5.032-11.652 7.98-3.539-2.917-8.307-4.892-11.655-7.98-1.73-1.957-4.777-.537-5.264 1.723-.882 4.575 8 7.8 11.108 10.448-3.524 2.592-7.006 5.245-10.409 7.989-2.923 2.358 1.034 7.566 4.052 5.252 4.029-3.093 8.061-6.183 12.167-9.181z"/><path d="m368.118 286.117c-12.166-6.087-26.351-17.448-40.444-10.873-4.4 1.825-9.528 5.713-14.338 6.6-16.249-8.441-25.5-5.007-39.214 5.767a2.924 2.924 0 0 0 2.949 5.045c8.111-3.13 15.065-11.8 24.445-8.177 8.262 2.834 16.084 6.966 23.854 10.911 3.8 1.931 7.169-3.8 3.352-5.734-2.558-1.293-5.178-2.692-7.847-4.079 10.271-5.707 17.814-8.083 28.4-1.5 5.149 2.613 10.275 5.273 15.412 7.909 3.887 1.995 7.331-3.886 3.431-5.869z"/><path d="m238.841 293.156c-6.186-8.286-17.311-5.633-21.5 3.116-3.916-19-32.633-10.449-25.259 6.833-15.349.921-18.989 20.794-4.147 25.967-.056 2.65.182 5.368.325 7.971.229 4.188 6.678 4.249 6.562 0-.069-2.547-.091-5.178-.321-7.757a12.212 12.212 0 0 0 7.341-4.769 11.362 11.362 0 0 0 6.6 4.629c-.056 2.651.182 5.368.324 7.971.23 4.188 6.679 4.249 6.563 0-.069-2.546-.091-5.177-.321-7.757 6.551-1.284 10.562-8 10.095-14.336a6.591 6.591 0 0 0 2.746.615c.41 3.539.45 7.277 1.514 10.7 1.07 3.323 6.449 2.91 6.308-.853-.251-3.763-1.091-7.458-1.241-11.246 7.828-3.468 9.43-14.295 4.411-21.084zm-45.966 29.619c-5.648 1-10.8-6.281-5.747-10.7 9.443-8.193 15.865 7.359 5.747 10.7zm20.512.074c-5.648 1-10.8-6.28-5.748-10.695 9.444-8.198 15.866 7.354 5.748 10.695z"/><path d="m298.117 215.124a11.277 11.277 0 0 0 6.743 4.876c-.056 2.65.182 5.367.325 7.97.229 4.188 6.678 4.249 6.562 0-.069-2.546-.091-5.177-.321-7.756a11.726 11.726 0 0 0 4.934-2.306c1.493 3.968 4.432 7.527 8.74 8.59-.056 2.65.181 5.368.324 7.971.23 4.188 6.678 4.249 6.563 0-.069-2.547-.091-5.178-.321-7.757a12.2 12.2 0 0 0 7.393-4.848 11.363 11.363 0 0 0 6.608 4.634c-.057 2.65.181 5.368.324 7.971.23 4.188 6.678 4.249 6.563 0-.07-2.547-.091-5.178-.321-7.757 11.176-2.119 13.825-19.118 4.085-24.72 6.092-4.252 7.588-13.557 3.17-19.64-6.022-8.332-19.082-4.515-22.858 4.086-6.156-11.453-25.113-4.285-24.439 7.813-11.271-2.325-22.218 10.902-14.074 20.873zm31.923 5.076c-5.648 1-10.8-6.281-5.748-10.7 9.444-8.2 15.866 7.355 5.748 10.7zm20.567 0c-5.648 1-10.8-6.281-5.748-10.7 9.441-8.2 15.866 7.355 5.748 10.7zm-46.554-17.2c9.443-8.2 15.865 7.355 5.747 10.7-5.648 1-10.8-6.283-5.747-10.7z"/><path d="m264.209 202.873c2.446-3.523-2.614-6.228-5.62-6.546-1.372-.566-4.959 1.152-3.455 3.573.734 1.251 3.094 2.3 3.763 2.763 1.495 1.392 3.923 2.118 5.312.21z"/><path d="m272.7 217.8a3.126 3.126 0 0 0 5.4-3.154c-1.49-2.036-3.052-5.929-6.086-5.347-4.014 1.437-.695 6.14.686 8.501z"/><path d="m277.127 229.669c-3.2 1.355-2.585 5.493-3.2 8.348-.187 1.71 1.595 3.18 3.18 3.18 3.947-.166 3.314-5.091 3.421-7.886.143-1.877-1.272-4.247-3.401-3.642z"/><path d="m266.73 262.8c5.449 1.564 5.426-6.688 6.842-10.122a2.535 2.535 0 0 0 -4.612-1.945c-1.346 3.467-7.073 9.291-2.23 12.067z"/><path d="m258.152 271.171c-3.095 2.235-4.707 6.56-5.641 10.155-.332 2.219 2.3 4.449 4.153 2.417 2.246-3.068 5.032-6.3 5.826-10.082.241-2.282-2.596-3.451-4.338-2.49z"/><path d="m258.638 298.645c-1.545-6.651-9.956-3.395-3.795 7.962a3.165 3.165 0 0 0 4.3 1.127c3.474-2.281-.243-6.085-.505-9.089z"/><path d="m274.422 317.863c-2.623-.721-4.618-2.746-7.191-3.515-2.478-.541-3.974 1.825-3.053 3.971 1.289 3 5.683 4.707 8.534 5.747 4.005 1.178 5.758-5.142 1.71-6.203z"/><path d="m296.448 322.436c-3.336.62-8.278-2.408-10.223 1.434-.552 1.373-.18 3.48 1.356 4.137 3.2 1.369 11.645 3.341 12.994-1.489.743-2.658-1.882-4.064-4.127-4.082z"/><path d="m323.5 321.716c-3.463.625-10-.5-10.53 4.26.522 5.356 7.921 2.976 11.45 2.54 3.853-.856 2.94-6.804-.92-6.8z"/></g></svg>