<svg height="512" viewBox="0 0 500 500" width="512" xmlns="http://www.w3.org/2000/svg"><g id="Layer_4" data-name="Layer 4"><path d="m275.677 113.117-21.133 44.864s18.794 3.746 12.447 26.378-22.383 29.811 4.677 46.433 60.467 29.65 60.467 29.65 23.145 9.107 24.434 23.763 0 17.328 0 17.328l19 2.673 18.708 32.071s8.962-32.589 37.888-25.983c0 0-4.48-23.01-23.188-29.916l-12.363-49.586s23.181-41.79-7.785-66.537l6.117-17.6-92.546-40.555s-8.683 10.023-26.723 7.017z" fill="#d1e3ed"/><path d="m408.972 280.378-12.363-49.586s23.181-41.79-7.785-66.537l6.117-17.6-33.034-14.476a35.721 35.721 0 0 1 -9.676 22.125c-7.909 8.182-19.2 12.011-28.646 18.353s-17.627 17.714-13.927 28.475c1.631 4.744 5.294 8.452 8.112 12.6s4.841 9.563 2.732 14.114c-1.751 3.776-5.993 5.905-10.141 6.249s-8.261-.8-12.243-2c-10.506-3.183-21.152-7.075-29.282-14.451a34.857 34.857 0 0 1 -9.607-14.571c-4.507 9.9-5.416 16.754 12.439 27.722 27.06 16.622 60.467 29.65 60.467 29.65s23.145 9.108 24.434 23.763 0 17.328 0 17.328l19 2.673 6.776 11.615a86.5 86.5 0 0 0 8.518 4.082c3.232 1.307.039 15.654 3.414 16.374 5.673-8.1 22.042-29.6 37.888-25.983-.005-.003-4.485-23.012-23.193-29.919z" fill="#8da8c6"/><path d="m456.21 330.115c-14.468-30.142-43.5-17.811-43.5-17.811-6.524 2.26-10.713 8.831-12.386 15.53s-1.327 13.708-1.684 20.6a101.03 101.03 0 0 1 -22.257 57.972c-4.255 5.246-9.086 10.129-12.218 16.114s-4.307 13.535-.947 19.395c2.031 3.541 5.438 6.04 8.747 8.431 8.92 6.447 18.075 13.011 28.652 16.058s23.037 1.932 31.048-5.616c3.332-3.14 5.689-7.16 7.829-11.207 14.108-26.671 20.738-56.967 21.221-87.134.17-10.947.234-22.457-4.505-32.332z" fill="#f7978d"/><path d="m422.855 309.974c11.588 29.021 9.693 63.271-5.466 90.652-4.08 7.369-9.714 14.728-17.863 16.86-9.259 2.424-18.156-2.522-27.334-6.1a61.8 61.8 0 0 0 -8.032 11.14c-3.131 5.985-4.307 13.535-.947 19.395 2.031 3.541 5.438 6.04 8.747 8.431 8.92 6.447 18.075 13.011 28.652 16.058s23.037 1.932 31.048-5.616c3.332-3.14 5.689-7.16 7.829-11.207 14.108-26.671 20.738-56.967 21.221-87.134.175-10.953.239-22.46-4.5-32.335-8.982-18.718-23.577-21.057-33.355-20.144z" fill="#bf4c4c"/><path d="m314.4 130.137-32.3 75.5 73.949 30.429s33.281 8.443 46.556-23.575c0 0 6.016-40.025-20.591-52.519z" fill="#d1e3ed"/><g fill="#8da8c6"><path d="m314.4 130.137-4.763 11.133 35.119 16.323s11.1 3.065 13.668-8.03z"/><path d="m337.31 174.666-35.225-15.745-7.492 17.511 32.1 12.5s11.491 7.737 15.944 0-5.327-14.266-5.327-14.266z"/><path d="m384.205 206.694c-6.69 2.157-12.711-.822-19.561-2.4-24.44-5.643-48.077-15.7-69.947-28.1l-12.6 29.447 73.949 30.429s33.281 8.443 46.556-23.575a78.99 78.99 0 0 0 -.61-23.272c-.271.583-.534 1.169-.828 1.743-3.618 7.034-9.427 13.299-16.959 15.728z"/></g><path d="m382.012 159.971-12.789-5.643a21.135 21.135 0 0 0 31.208 28.438c-2.779-9.109-8.184-17.989-18.419-22.795z" fill="#fff"/><path d="m33.992 47.3 227.515 94.226 12.582-31.09-220.54-91.829-12.891-1.939s-15.658 13.184-6.666 30.632z" fill="#d1e3ed"/><path d="m62 58.9 192.545 79.743-7.21 19.338-192.33-82.296s-6.564-6.736 6.995-16.785z" fill="#8da8c6"/><path d="m231.02 99.624c-5.773 2.594-11.623 5.213-17.86 6.285-5.885 1.011-11.916.61-17.857.013a276.825 276.825 0 0 1 -32.358-5.215l98.562 40.82 12.582-31.09-34.845-14.509z" fill="#8da8c6"/><path d="m53.549 18.607-12.891-1.939a30.618 30.618 0 0 0 -6.034 7.54c40.637 12.453 76.45 39.748 117.7 51.318 6.3 1.767 13.2 3.123 19.234.6 2.231-.932 4.381-2.563 4.99-4.9a5.928 5.928 0 0 0 .178-1.33z" fill="#fff"/><path d="m328.112 263.194s-6.247 15.618-26.2 22.559v3.256s26.2 6.561 38-17.262z" fill="#8da8c6"/><path d="m401.282 179.713c-.483.338 1.909 1.515 1.9 12.654s8.506 37.617 8.506 37.617 3.343-8.6 19.652-5.929 36.84-2.9 38.375-16.329l-3.646-1.1s-32.427 10.479-44.515-14.263c.004.004-7.406-21.663-20.272-12.65z" fill="#8da8c6"/><path d="m421.558 192.367s-7.41-21.672-20.276-12.654c-.483.338 1.909 1.515 1.905 12.654a69.281 69.281 0 0 0 1.869 13.19 11.875 11.875 0 0 0 5.663 2.5c2.558.346 5.163-.27 7.733-.03 5.036.471 9.146 4.078 13.794 6.071a22.466 22.466 0 0 0 10.158 1.768 13.4 13.4 0 0 0 7.588-2.553 10.89 10.89 0 0 0 3.266-4.547c-10.446.518-24.589-1.846-31.7-16.399z" fill="#d1e3ed"/><path d="m302.4 106.1s-8.686 10.022-26.726 7.016l-17.305 36.737a56.8 56.8 0 0 0 7.373 1.256c1.963.2 4.068.267 5.772-.727 1.758-1.026 2.738-2.975 3.512-4.858 2.429-5.91 4.043-12.615 8.974-16.679 4.646-3.828 11.445-4.547 15.573-8.929a23.953 23.953 0 0 0 3.057-4.421l4.329-7.4z" fill="#fff"/></g><g id="Layer_5" fill="#3a3245" data-name="Layer 5"><path d="m462.055 203.1c-48.334 8.49-34.66-41.021-59.692-28.011a51.037 51.037 0 0 0 -3.129-4.81c2.2-5.365 5.274-12.385 7.637-18.19a3.169 3.169 0 0 0 -1.462-3.593c-33.341-14.753-66.787-29.269-100.2-43.858-8.8-4.876-12.211 8.69-30.115 3.922-56.455-24.112-113.405-47.06-170.034-70.77 6.095-18.327 4.646-12.064-15.319-21.79-14.041-7.032-19.929 2.962-37.113-.134-7.574-2.807-15.2-3.584-19.342 6.07-3.634 8.472-13.214 23.48-2.039 30.255 7.265 3.553 15.032 6.133 22.429 9.422-6.6 13.416-.6 20.329 12.635 24.4q14.409 5.965 28.836 11.887c-1.064 6.223 4.391 8.967 10.089 11.34 4.336 2.39 10.68 3.427 13.566-1.576 44.917 18.115 89.25 37.772 134.31 55.49 2.961 1.774 6.8 3.071 9.111 6.865 7.968 14.1-5.362 28.514-8.508 42.057-2.695 10.415 5.978 17.4 14.659 20.781 4.793 6.347.894 14.578-1.446 21.177a58.837 58.837 0 0 0 -3.617 20.291c.6 32.039 35.418 55.019 65.663 50.6 12.706-1.568 27.047-6.915 33.1-18.855 37.909 25.713 29.127 81.582-1 109.983-7.765 8.123-37.608 33.238-16.1 42.745 6.577 2.906 13.3 5.511 19.946 8.263l33.58 13.912c8.166 3.384 16.2 7.879 25.209 4.237 9.77-3.951 12.85-14.751 16.8-23.59 14.821-32.55 26.536-68.178 22.923-104.387a114.8 114.8 0 0 0 -28.244-65.369c-7.426-8.338-18.712-14.908-22.423-25.88-2.341-6.922-2.816-14.5-7.2-20.067 12.649-7 11.715-24.3 29.864-17.327 10.466 2.364 21.594-.459 30.2-6.719 4.229-3.021 9.51-6.787 8.162-12.7-1.322-5.79-6.637-7.047-11.736-6.071zm-135.2 68.645a75.467 75.467 0 0 0 8.22 3.313c-7.223 8.808-17.973 16.783-28.518 12.972a49.634 49.634 0 0 0 20.293-16.283zm25.543 8.315c4.042 14.1-5.871 29.187-20.286 32.245-12.612 1.988-25.811-1.942-36.575-8.545-12.859-9.478-18.468-25.771-7.873-39.238 10.263-13.867 24.413-8.765 37.816-3.515-5.332 11.089-15.187 20.106-27.305 23.252-2.881.826-2.866 4.252-.764 5.851 17.954 13.19 39.832-2.21 48.511-19.11a19.542 19.542 0 0 1 6.471 9.062zm-38.938-99.653c-6.855-3.66-11.893-8.565-7.032-16.154q14.04 6.123 28.038 12.341c3.514 1.564 7.6 2.652 6.306 7.638a6.023 6.023 0 0 1 -9.413 3.566q-8.979-3.634-17.904-7.389zm-18.528-.811q14.976 6.522 30.107 12.68c8.023 4.543 16.624 5.278 21.2-4.155 4.006-8.9-1.666-15.333-10.13-17.769q-15.428-6.81-30.932-13.442l4.632-10.258q15.569 6.649 31.34 12.812c8.65 4.909 16.23 2.6 20.827-6.254q7.945 3.661 15.867 7.375c-8.02 16.177-15.558 32.689-25.215 48.012-2.486 4.013-5.288 11.27-10 13.465-3.457-1.666-6.856-3.512-10.227-5.407 1.342-6.992-3.391-11.616-9.629-13.618-10.583-4.933-21.037-10.139-31.612-15.092zm27.55-34.685c-3.529-2.889-4.78-6.176-3.28-10.837q18.512 8.019 36.85 16.427c-3.8 8.012-11.932 3.258-17.945.731q-7.838-3.107-15.63-6.319zm78.494 56.054c-1.917 22.322-24.225 32.3-44.4 26.365l28.187-62.43a38.361 38.361 0 0 1 16.208 36.067zm-2.435 124.557c-2.385-8.16-2.962-17.349.625-25.232 9.716-11.8 23.14-8.246 27.614 5.974-13.364-1.077-23.225 7.691-28.244 19.26zm-358.901-301.835c4.052-7.348 12.423-.2 17.94 1.47 67.866 28.188 135.82 56.113 203.631 84.443 1.73 7.472-4.591 14.569-6.974 21.341-70.213-28.964-140.822-56.957-211.075-85.832.515.2-3.164-1.463-2.966-1.362-2.342-1.2-5.886-3.466-6.2-6.457 1.804-4.508 3.349-9.36 5.644-13.603zm21.654 52.835c-5.225-2.912-3.307-7.916-1.364-12.316l41.989 17.408c-1.564 3.281-3.055 6.616-4.475 9.97-11.951-5.212-24.259-9.761-36.15-15.062zm60.306 25.119q2.1-5.062 4.152-10.146c34.286 14.251 68.622 28.379 102.88 42.7.076 3.968.45 7.933.751 11.893-36.091-14.488-71.872-29.551-107.783-44.447zm139.513 110.359c6.875-16.664 20.18-41.184-.984-53.2l17.621-42.538c8.009 1.6 16.8-1.539 23.485-5.825 27.9 12.074 55.772 24.234 83.727 36.19-2.683 3.357-5.872 5.692-10.322 5.876-19.631-9.059-39.271-18.182-59.228-26.485a2.441 2.441 0 0 0 -3.423 1.286l-33.315 73.788c-.611 1.353-.519 3.384 1.076 4.1l69.107 31.2c10.481 4.585 23.172 6.345 33.819 1.754a16.762 16.762 0 0 0 2.559 8.251c.507.857 3.445 4.077 3.589 5.3-6.229 13.684-11.8 27.66-17.706 41.487-1.356 4.9-6.467 6.163-10.694 3.788 2.018-14.367-2.66-28.986-16.769-35.21l-36.68-17.946q-19.154-9.372-38.326-18.705c-5.393-2.622-9.995-6.164-7.536-13.111zm189.575 202.485a281.436 281.436 0 0 1 -12.852 33.337c-3.563 6.922-12.921 9.928-20.6 9.938 13.365-10.106 17.947-27.752 24.925-42.287 1.643-3.709-3.751-6.993-5.532-3.234-8.2 15.249-12.036 36.3-29.19 43.956-8.471-2.57-16.045-7.411-23.417-12.2-10.489-5.529-13.707-14.76-7.846-25.34 18.869-17.716 31.213-43.681 28.25-69.877a214.671 214.671 0 0 1 1.022-23.272c4.268-9.479 14.534-14.793 24.416-12.117 14.726 26.764 11.889 57.832 9.906 87.144a2.246 2.246 0 0 0 4.39.594c6.846-27.038 5.075-57.672-5.213-83.608 25.239 21.338 19.268 68.013 11.741 96.966zm13.894-200.6c-22.565 19.145-32.841-1.6-47.92 10.169-14.7-12.19-5.6-26.228-10.709-42.412 6.064-3.9 8.2 5.692 11.014 10.206a39.291 39.291 0 0 0 37.416 19.559 64.108 64.108 0 0 0 7.521-1.01c1.225-.236 3.3-1.193 4.322-.376 1.619 1.296-.514 2.899-1.644 3.865z"/><path d="m410.729 423.6c-7.113-2.543-11.4 7.61-4.59 10.991 7.527 3.74 12.049-8.313 4.59-10.991z"/></g></svg>