<svg height="512" viewBox="0 0 500 500" width="512" xmlns="http://www.w3.org/2000/svg"><g id="Layer_4" data-name="Layer 4"><path d="m39.321 185.005s-24.421 79.546-3.839 133.362 108.807 183.121 287.723 137.286c0 0 168.933-45.864 132.728-241.057 0 0-21.059-132.044-176.531-154.731-.002 0-157.496-36.127-240.081 125.14z" fill="#ffda76"/><path d="m279.4 59.865s-98.093-22.5-180.044 47.281c2.149.044 4.291.052 6.413.034a456.928 456.928 0 0 0 191.378-44.118c-5.719-1.22-11.616-2.302-17.747-3.197z" fill="#fff"/><path d="m338.846 90.928a115.19 115.19 0 0 1 18.1-6.515 214.625 214.625 0 0 0 -27.981-12.339c-32.069 15.752-62.75 34.585-96.2 47.137-55.651 20.882-116.148 23.406-174.673 34.161q-5.154 7.51-10.05 15.792c24.265-1.938 48.681-.273 73.015-1.082a359.753 359.753 0 0 0 171.117-50.127c15.461-9.198 30.289-19.595 46.672-27.027z" fill="#fff"/><path d="m298.364 264.254c30.636-13.477 59.619-30.454 90.081-44.315 20.311-9.245 41.563-17.138 63.392-21.4a195.5 195.5 0 0 0 -10.613-26.592 246.466 246.466 0 0 0 -44.348 10.808c-29.5 9.936-57.445 23.936-86.14 36.012a706.1 706.1 0 0 1 -283.375 54.949c.534 15.392 2.848 30.866 8.121 44.651a183.039 183.039 0 0 0 9.106 19.839 114.7 114.7 0 0 1 10.185-8.434c36.128-26.4 84.191-26.712 128.511-32.879a435.143 435.143 0 0 0 115.08-32.639z" fill="#f48a4e"/><path d="m154.11 322.262c-31.992 11.548-61.092 28.814-88.372 49.087 42.436 56.308 125.148 118.2 257.467 84.3 0 0 142.811-38.779 137.672-196.753a284.815 284.815 0 0 1 -42.229 17.763c-85.248 27.969-180.148 15.141-264.538 45.603z" fill="#f48a4e"/><path d="m112.218 136.493s-78.427 64.974-34.518 179.868 203.7 103.522 203.7 103.522 109.835-7.677 146.226-134.19c0 0 30.839-139.567-111.677-191.342.006 0-102.693-45.941-203.731 42.142z" fill="#fffaf5"/><path d="m176.008 142.627c46.127-28.661 106.277-32.442 156.44-11.635 41.211 17.094 75.123 50.063 95.191 89.934-7.633-43.649-33.716-98.25-111.684-126.575 0 0-102.7-45.941-203.737 42.142 0 0-78.427 64.974-34.515 179.868 19.08 49.922 60.036 76 100.257 89.539-45.849-24.25-76.347-74.976-77.329-126.965-1.026-54.297 29.25-107.646 75.377-136.308z" fill="#d8c4b8"/><path d="m309.453 194.531c-.661-1.5-3.355-1.846-3.738-.247l-4.211 3.308c-31.553 23.612-58.922 52.267-86.151 80.757-5.985 6.263-12.224 12.7-20.253 15.954-2.56 1.038-5.407 1.828-7.18 3.948s-1.485 6.145 1.185 6.856c2.011.535 4.151-1.073 6.147-.486 4 1.178 2.88 9.191 7.043 9.472a4.622 4.622 0 0 0 3.388-1.712c5.49-5.607 6.07-14.3 9.75-21.235 2.083-3.921 5.139-7.226 8.193-10.449q10.021-10.577 20.53-20.676 3.09-2.97 6.207-5.912 3.723-3.53 7.447-7.054 14.4-13.62 28.929-27.105a52.727 52.727 0 0 0 4.4 11.1c2.477.781 4.467-2.058 5.519-4.432l12.117-27.351c.669-1.503 1.34-3.23.678-4.736z" fill="#d8c4b8"/><path d="m450.683 20.274s-42.5-18.8-67.33 16.685c0 0-9.733 23.572 5.628 34.96l-21.867 18.257 39.608 31.841 16.333-16.727s48.029 4.5 51.207-34.96-23.579-50.056-23.579-50.056zm1.154 40.306c-1.852 32.33-26.577 24.094-26.577 24.094s4.845-7.053-6.253-17.492-19.019-1.682-19.019-1.682c-4.769-12.123 11.6-25.647 11.6-25.647l7.416-4.108s34.684-7.495 32.833 24.835z" fill="#ffda76"/><path d="m423.055 105.29s48.029 4.5 51.207-34.96a63.739 63.739 0 0 0 -2.362-24.53 28.237 28.237 0 0 1 -7.377 8.415 32.871 32.871 0 0 1 -12.678 6.208c0 .053 0 .1-.006.156-1.852 32.33-26.577 24.094-26.577 24.094s3.652-5.327-2.67-13.571c-1.424 6.578-6.043 13.721-11.782 15.823-6.913 2.533-14.679 1.645-21.647-.733-3.939-1.344-7.811-3.159-11.731-4.63l-10.316 8.613 39.608 31.841z" fill="#f48a4e"/><path d="m450.683 20.274s-31.471-13.922-56.071 4.807a52.643 52.643 0 0 0 4.623 6.88 31.368 31.368 0 0 0 11.143 8.971c.745-.692 1.213-1.08 1.213-1.08l7.416-4.108s10.161-2.193 19.19.921c5.417-3.381 10.388-7.72 13.277-13.394a21.891 21.891 0 0 0 .949-2.153 18.346 18.346 0 0 0 -1.74-.844z" fill="#fff"/></g><g id="Layer_5" fill="#3a3245" data-name="Layer 5"><path d="m110.831 371.739c67.575 60.615 194.731 79.239 265.813 9.739 121.193-109.811 34.707-306.884-132.25-303.812-104.4 0-189.338 78.088-189.338 174.075-.111 46.653 20.532 88.995 55.775 119.998zm260.4 3.848c-69.776 69.883-205.528 45.772-264.46-19.217-125.584-175.709 130.529-346.865 276.704-210.88 61.525 62.491 53.146 172.667-12.242 230.097z"/><path d="m373.724 115.246c2.578 3.629 8.319.238 7.089-3.8-1.986-6.172-10.787-1.166-7.089 3.8z"/><path d="m126.169 394.837c-2.731-4.6-9.785-.78-6.851 3.916 2.657 4.726 9.83.721 6.851-3.916z"/><path d="m400.321 382.782c-1.493-5.038-9.014-2.7-7.694 2.258 1.479 5.053 9.049 2.717 7.694-2.258z"/><path d="m94.924 129.926c3.147 0 3.153-4.89 0-4.89s-3.152 4.89 0 4.89z"/><path d="m39.489 275.033c1.306 4.893 8.931 2.807 7.541-2.08-1.305-4.893-8.93-2.806-7.541 2.08z"/><path d="m270.407 437.855c-3.377-3.438-8.926 1.424-5.888 5.18 3.291 4.537 9.728-1.31 5.888-5.18z"/><path d="m238.735 70.772c3.479 3.544 8.932-1.94 5.4-5.4-3.476-3.547-8.929 1.938-5.4 5.4z"/><path d="m442.62 237.472c3.1 4.911 10.127-.381 6.261-4.752-3.132-4.02-8.995.598-6.261 4.752z"/><path d="m432.672 11.428c-38.824-5.514-71.849 33.126-54.186 67.767a84.634 84.634 0 0 0 -10.014 7.617c-200.382-113.958-407.489 66.433-332.245 266.85 46.869 122.2 225.7 174.345 336.59 103.3 104.152-67.608 128.838-237.811 41.931-331.573 3.434-5.04 6.517-10.435 9.456-15.765 67.18 5.935 77.043-88.804 8.468-98.196zm-30.126 46.707c4.082-27.73 49.267-22.343 46.72 5.561-1.041 9.833-9.609 18.317-19.563 18.808 3.9-13.552-15.214-27.847-27.146-20.006a18.5 18.5 0 0 1 -.011-4.363zm-21.521 27.455c3.7-2.666 7.385-5.35 11.092-8.011 6.829-4.881 16.118-14.632 24.644-8.355 3.02 2.224 6.813 6.1 6.235 10.147-.56 3.915-4.589 7.346-7.052 10.191q-8.622 9.962-17.334 19.846a221.671 221.671 0 0 0 -24.26-18.787c2.286-1.603 4.463-3.421 6.675-5.031zm-136.625-25.725c276.509 5.979 285.568 380.985 18.242 395.788-297.837-4.177-310.129-382.691-18.242-395.788zm227.375 5.74a41.847 41.847 0 0 1 -17.065 28.919c-6.268 4.422-21.968 11.555-28.132 4.905-2.261-2.332-.991-7 1.824-8.881 14.4.233 27.328-11.68 28.809-25.908 3.5-39.23-58.833-45.426-62.737-6.058-8.024-2.544-8.885-11.426-7.078-19.181 8.58-13.838 25.768-22.24 44.331-20.029 24.764 2.948 42.73 23.688 40.047 46.233z"/><path d="m305.869 188.525c-11.294 6.393-22.729 12-35.2 15.679-3.574.649-3.364 6.488.652 6.528 2.925.029 7.85-1.57 11.829-1.5-12.05 10.82-23.82 21.968-35.45 33.176-7.736-4.219-17.428 5.305-13.411 13.094-10.626 10-20.134 21.289-31.507 30.567-9.511 3.432-15.182 2.874-22.815 11.259-2.4 2.345.05 7.424 3.5 6.013 4.479-1.831 9.793-3.037 14.6-4.888-1 5.406-1.76 10.6-3.85 15.832-1.129 2.826 2.539 4.971 4.832 3.715 6.323-3.464 7.76-9.989 8.819-16.614 2.973-18.356 19.124-28.335 30.737-41.1 8.54 4.428 18.4-4.5 13.719-13.372 12.019-11.582 24.382-22.765 36.79-33.9 1.5 4.532-1.093 11.587-1.892 15.62-.82 4.135 5.184 5.891 6.375 1.758a143.4 143.4 0 0 1 16.782-37.359c1.821-2.87-1.729-6.052-4.51-4.508z"/><path d="m319.592 168.124c-.709-.773-1.44-1.512-2.185-2.235 6.28-5.1 12.468-10.318 18.639-15.556a281.973 281.973 0 0 0 -7.01 30.441c-.587 3.409 3.2 6.03 5.944 3.46q14.1-13.211 28.3-26.316c.648.579 1.285 1.176 1.912 1.8 3.3 3.279 8.423-1.842 5.1-5.1a54.37 54.37 0 0 0 -9.98-7.785c-3.945-2.393-7.477 3.717-3.6 6.163l.663.743q-9.635 8.961-19.275 17.913a297.194 297.194 0 0 1 8.622-31.163c1.256-3.732-3.525-5.669-6.073-3.535-9.884 8.281-19.911 16.43-29.627 24.911-.177-.087-.309-.114-.385-.072-1.169-2.455-5.292-2.468-5.968.41-1 4.566 7.69 9.089 10.811 11.252 3.286 2.279 6.612-2.601 4.112-5.331z"/><path d="m181.9 339.339c-.4-.137-.8-.255-1.189-.358-.071-6.081-2.794-11.968-8.6-14.708-6.128-2.893-12.887.066-15.7 6.1-3.765 8.079 1.819 12.66 6.595 18.229 8.556 13.288-14.607 17.846-15.743.421 2.631-.249 4.4-3.718 1.817-5.391-2.8-1.517-6.2-.015-9.2.2-3.627.771-2.177 6.526 1.41 5.75 1.137 26.752 39.179 20 28.614-3-2.039-3.248-6.747-5.564-7.816-9.3-1.27-4.438 3.255-9 7.5-6.788 8.188 4.4.616 13.57 7.627 14.557a18.59 18.59 0 0 0 3.9.1 2.976 2.976 0 0 0 .785-5.812z"/><path d="m345.125 328.785c-9.391 6.17-19.322 15.165-25.053 24.971a3.122 3.122 0 0 0 .062 4.225c4.443 4.474 9.757 9.444 15.033 12.907 4.264 2.8 9.059.9 11.664-3.161 1.748-2.725-1.7-6.055-4.4-4.4-1.6 1.1-3.775 2.656-5.145.441-3.719-2.621-6.984-6.075-10.713-8.739 3.1-3.18 6.066-6.446 9.177-9.587 6.98-.113 11.832 5.7 17.033 10.15 3.433 2.935 8.445-2.049 4.983-4.982-3.483-2.951-9.559-8.916-15.511-11.2 9.745-9.331 13.645-7.476 22.563 1.581-5.092 2.035-2.787 8.6 1.98 6.479 1.282-1.01 2.6-1.975 3.826-3.052 2.333-.6 4.01-3.612 1.78-5.836-7.271-7.249-16.834-16.661-27.279-9.797z"/><path d="m127.187 186.06c7.839-3.756 15.668-7.586 23.617-11.121-2.047 7.159-4.089 14.332-6.453 21.381-1.011 3.018 2.58 5.279 5.109 3.928a206.009 206.009 0 0 0 25.484-16.615c3.8 3.246 8.677-2.845 4.32-5.444-2.513-1.365-5.035-2.713-7.524-4.122-3.824-2.012-7.21 3.637-3.6 5.791-4.8 3.354-9.622 6.628-14.561 9.747 9.468-30.4 8.568-27.29-18.471-14.689 3.563-5.126 7.151-10.239 10.437-15.532a3.1 3.1 0 0 0 4.963-2.3c-.169-3.219-4.824-6.879-7.5-8.371-1.977-.8-4.043 1.554-3.432 3.432a8.984 8.984 0 0 0 1.749 2.882c-6.416 8.694-12.517 17.667-18.58 26.6-1.969 2.911 1.774 5.711 4.442 4.433z"/><path d="m207.353 142.618c1.507 3.072 5.745.784 5.2-2.191-1.45-5.082-1.886-11.354-5.834-15.13-1.455-1.106-3.558.115-4.006 1.63-.713 5.384 2.8 10.737 4.64 15.691z"/><path d="m271.777 136.531c1.281-4.585 3.96-9.379 3.2-14.191a2.793 2.793 0 0 0 -4.623-1.221c-2.982 3.845-2.893 9.3-3.938 13.933a2.784 2.784 0 0 0 5.361 1.479z"/><path d="m126.428 229.457a2.889 2.889 0 0 0 .764-5.647 43.72 43.72 0 0 0 -7.617-1.33c-2.3-.321-4.925-1.2-6.928.292a2.562 2.562 0 0 0 -.506 3.927c1.539 1.949 4.288 1.779 6.583 2.067a43.462 43.462 0 0 0 7.704.691z"/><path d="m221.733 368.561c-1.247 3.078-1.7 6.513-2.294 9.77-.447 2.444-1.766 5.974-.43 8.31 2.105 3.682 7.128 1.322 5.635-2.553 1.021-5.112 2.27-9.672 2.429-14.8-.029-3.267-4.242-3.439-5.34-.727z"/><path d="m300.235 375.858c-1.194-2.744-1.9-6.4-4.195-8.42-1.292-1.139-3.694-.838-4.1 1.083-.484 6.768 4.041 13.291 7.677 18.739 1.59 2.054 5.295-.179 4.388-2.554-1.146-3.006-2.489-5.906-3.77-8.848z"/><path d="m383.4 285.915c-6.137-.918-14.285-2.482-20.14.03-2.108.9-1.321 4.111.608 4.655 5.865.976 12-.007 17.895 1.252 3.875.579 5.546-5.352 1.637-5.937z"/><path d="m363.511 211.967a67.223 67.223 0 0 0 -10.728 3.415c-3.631 1.522-2.244 7.465 1.678 6.087a99.81 99.81 0 0 1 10.084-3.1c3.07-.725 6.875-.6 9.443-2.492a2.606 2.606 0 0 0 -.612-4.684c-3.036-1.249-6.776.053-9.865.774z"/><path d="m130.274 288.5c-5.069 1.379-10.857 1.5-15.483 4-1.49 1.095-1.607 3.851.564 4.313 5.512.5 11.026-1.838 16.46-2.727 3.665-.904 2.085-6.248-1.541-5.586z"/></g></svg>