<svg height="512" viewBox="0 0 500 500" width="512" xmlns="http://www.w3.org/2000/svg"><g id="Layer_4" data-name="Layer 4"><path d="m377.341 23.191s-42.276 2.154-68.641 35.358c0 0-30.281 35.333-38.751 65.052 0 0 20.59-11.887 37.43-39.956 0 0 44.9-64.061 91.136-34.342 0 0 15.315 6.727 20.234 31.8a33.4 33.4 0 0 1 -6.411 27.013c-7.369 9.4-20.656 20.811-42.88 23.823 0 0-64.293 7.669-109.813-6.9 0 0-147.969-39.117-213.828 53.168 0 0-73.935 83.819-13.836 134.476h4.967c-1.92-3.759-25.47-30.736 0-89.335s62.056-75.554 110.406-87.81c0 0 58.569-10.222 122.595 7 0 0 150.118 38.263 166.873-47.8.004.001 7.178-61.338-59.481-71.547z" fill="#f7978d"/><path d="m122 137.591c-3.9-1.632-7.239-5.269-7.347-9.472-25.985 9.019-50.564 24.493-68.827 50.084 0 0-73.935 83.819-13.836 134.476h4.967c-1.92-3.759-25.47-30.736 0-89.335 23.115-53.179 55.382-72.06 97.289-84.258-4.159.156-8.426.105-12.246-1.495z" fill="#bf4c4c"/><path d="m270.513 123.261c3.392-2.113 21.658-14.262 36.87-39.616 0 0 33.581-47.9 72.563-41.632.332-.733.685-1.457 1.067-2.166a29.255 29.255 0 0 1 12.854-12.642 93.785 93.785 0 0 0 -16.526-4.014s-42.276 2.154-68.641 35.358c0 0-29.879 34.874-38.573 64.471.131.08.259.161.386.241z" fill="#bf4c4c"/><path d="m419.171 91.286a33.155 33.155 0 0 1 -6.829 16.829c-7.369 9.4-20.656 20.811-42.88 23.823 0 0-.481.057-1.37.15 2.523 5.576 7.372 10.526 13.845 14.408 26.576-6.578 48.992-21.468 54.889-51.757 0 0 .034-.3.075-.836a75.5 75.5 0 0 0 -17.73-2.617z" fill="#ffebe8"/><path d="m137.551 269.351s-13.289 17.753 1.412 43.328l82.144 93.821 69.866 57.2s-36.729-33.3 4.521-97.173c0 0 21.074-29.821 50.373-25.09l48 17.477s-4.32-43.118 26.349-77.94c0 0 15.977-20.061 40.275-11.62l-55.885-29.878-27.265-15.367-22.969-8.47-68.486-31.992s-31.063-5.313-43.5 40.462c0 0-34.711-.766-43.069 23.353-.001-.003-35.5-19.325-61.766 21.889z" fill="#f7978d"/><path d="m290.973 463.7s-34.631-31.411 1.147-91.72c-6.371-3.018-12.694-6.141-18.277-10.321-6.281-4.7-11.876-11.541-11.715-19.386.169-8.2 6.533-14.954 13.331-19.542s14.537-8.01 20.154-13.987c-24.248-8.457-49.01 20.525-73.9 14.2-7.142-1.816-13.217-6.384-19.081-10.847l-21.953-16.71c-10.776-8.2-22.34-17.641-24.752-30.967a29.853 29.853 0 0 1 1.339-15.271c-6.694 4.027-13.467 10.4-19.717 20.209 0 0-13.289 17.753 1.412 43.328l82.146 93.814z" fill="#bf4c4c"/><path d="m411.164 289.92-19.739-10.7c-4.152-2.251-8.483-4.666-11.009-8.657-3.483-5.5-2.647-12.885.415-18.631s8.014-10.213 12.867-14.555c-7.042-2.376-14.681.213-21.706 2.637-17.394 6-36.162 11.134-53.989 6.577-11.877-3.037-22.262-10.136-32.091-17.462-10.178-7.584-20.709-16.546-23.406-28.949a27.054 27.054 0 0 1 -.312-9.435c-7.474 5.7-15.021 15.743-19.809 33.364 0 0-27.47-.59-39.415 16.269a32.579 32.579 0 0 0 2.329 5.93c3.825 7.462 10.449 13.152 17.622 17.494 11.944 7.229 25.54 11.129 38.66 15.9a296.07 296.07 0 0 1 110.138 71.147l22.148 8.064s-3.562-35.572 18.766-68.19c-.489-.27-.98-.538-1.469-.803z" fill="#bf4c4c"/><path d="m207.8 401.118s-19.081-18.934-8.486-54.065 52.239-56.142 52.239-56.142l44.711-1.261 22.379-20.3s7.2-37.34 42.814-48.261c0 0 10.874-3.65 21.926 6.423 0 0 24.617.8 28.115 17.827 0 0-55.154-17.772-65.633 70.273l-18.385 12.127s-47.252-42.831-89 25.243c0 0-18.426 16.814-8.471 53.516z" fill="#ffda76"/><path d="m127.058 298.848c.5-1.752 4.914-47.209 45.8-57.559l17.017 2.2s-12.73-23.427-31.532-16.209l-11.264 5.32s4.754-32.1-26.527-27.6c0 0-36.788 8.759-32.283 53.805l31.255 13.329z" fill="#ffda76"/><path d="m282.615 178.143a14.27 14.27 0 0 0 -5.492-3.481c-4.4-1.882-9.181-3.6-13.881-2.69-3.765.728-7.017 3.065-10.673 4.223a2.323 2.323 0 0 1 -1.769.047 2.425 2.425 0 0 1 -.949-1.3 79.974 79.974 0 0 0 -3.957-9.114 24.066 24.066 0 0 0 -18.9-11.81c-7.718-.523-29.183 14.144-29.183 14.144-5.9 9.186-7.6 20.572-6.771 31.457a30.784 30.784 0 0 0 2.158 10.076 14.22 14.22 0 0 0 6.881 7.423c4.242 1.9 9.135.975 13.785.982a33.467 33.467 0 0 1 20.344 7.012c1.571 1.225 3.227 2.666 5.218 2.647 2.236-.022 4.024-1.922 5-3.932 1.54-3.157 1.771-6.766 2.549-10.191 3.181-13.988 16.182-24.622 30.348-26.885 2.222-.355 4.758-.694 6.035-2.547 1.242-1.804.673-4.393-.743-6.061z" fill="#ffda76"/><path d="m485.138 289.181a62.335 62.335 0 0 0 -6.333-9.074c-1.961-2.446-19.659-12.431-19.659-12.431a44.941 44.941 0 0 0 -38.246 13.246 72.545 72.545 0 0 0 -10.021 14.156 114.286 114.286 0 0 0 -9.253 19.659c-4.088 11.9-5.307 24.595-5.5 37.172a65.138 65.138 0 0 0 1.241 15.927 41.973 41.973 0 0 0 15.753 23.519 52.777 52.777 0 0 0 26.713 9.992 24.087 24.087 0 0 0 8.377-.381 19.643 19.643 0 0 0 7.758-4c37.563-32.1 33.835-75.591 34.126-83.837s-1.014-16.7-4.956-23.948z" fill="#ffda76"/><path d="m373.945 370.182c-1.842-6.749-7.09-11.734-11.269-17.345-20.722-27.826-54.611-.321-54.611-.321a119.663 119.663 0 0 0 -30.406 55.027c-4.109 16.982-4.1 36.026 5.429 50.671a31.947 31.947 0 0 0 9.044 9.432 43.141 43.141 0 0 0 11.274 4.806 49.562 49.562 0 0 0 14.051 2.609c10.141.053 19.744-5.242 26.883-12.445s12.15-16.2 16.793-25.221c4.354-8.454 8.5-17.111 10.757-26.347a100.007 100.007 0 0 0 1.934-10.818q.838-6.393 1.228-12.834c.348-5.766.413-11.641-1.107-17.214z" fill="#ffda76"/><path d="m215.865 258.382c2.35-5.2 7.275-8.892 12.589-10.982s11.058-2.778 16.729-3.448c-.655-6.675-5.986-12.379-12.372-14.428s-13.54-.78-19.417 2.451a31.758 31.758 0 0 0 -13.294 14.125z" fill="#ffda76"/><g fill="#f48a4e"><path d="m143.1 250a9.356 9.356 0 0 1 -1.413-9.646c-10.209 6.794-25.8 3.246-32.069-7.3-4.234-7.128-3.617-16.47.577-23.542-10.506 6.23-24.84 20.183-21.928 49.3l31.255 13.329 7.534 26.712c.385-1.346 3.08-28.472 22.833-45.673a9.377 9.377 0 0 1 -6.789-3.18z"/><path d="m238.409 189.345a27.259 27.259 0 0 1 -31.715-3.871 26.894 26.894 0 0 1 -7.852-18.007c-.656.435-1.031.691-1.031.691-5.9 9.186-7.6 20.572-6.771 31.457a30.784 30.784 0 0 0 2.158 10.076 14.22 14.22 0 0 0 6.881 7.423c4.242 1.9 9.135.975 13.785.982a33.408 33.408 0 0 1 13.516 2.922c4.575-.546 9.387.341 13.894 1.574 1.076.294 2.184.6 3.3.889 1.4-3.075 1.65-6.545 2.4-9.849a32.808 32.808 0 0 1 8.066-14.947 17.31 17.31 0 0 1 -16.631-9.34z"/><path d="m231.846 244.935a5.542 5.542 0 0 0 -3.251-.348c-5.558.4-11.868-1.781-14.042-6.911a9.494 9.494 0 0 1 -.373-6.111c-.264.134-.528.268-.786.41a31.758 31.758 0 0 0 -13.294 14.125l15.77 12.282c2.35-5.2 7.275-8.892 12.589-10.982a38.163 38.163 0 0 1 4.4-1.41 2.922 2.922 0 0 0 -1.013-1.055z"/><path d="m362.1 265.108a14.762 14.762 0 0 1 -3.463-.271c-5.043-1.029-9.535-6.37-7.682-11.172-2.784 2.589-5.857 5.315-9.641 5.682-5.626.547-10.509-4.626-11.7-10.151a19.489 19.489 0 0 1 -.418-3.849 72.11 72.11 0 0 0 -10.548 24l-.976.885c.5.573 1.012 1.138 1.521 1.693q4.986 5.436 9.973 10.873l-37.213 12.1c11.855-.2 18.466 14.742 3.662 19.641 10.856 3.931 31.867 13.2 31.867 13.2l18.387-12.126c2.819-23.704 8.881-39.729 16.231-50.505z"/><path d="m269.575 320.558c-3.8-6.224-4.386-14.467-.315-20.486l-20.56 12.994c-7.145 4.516-14.815 9.19-23.268 9.125a18.123 18.123 0 0 1 -9.815-3.145c-6.947 7.893-13.069 17.292-16.3 28.007-10.595 35.131 8.486 54.065 8.486 54.065l17.888 4.334c1.245-.433 2.479-.9 3.707-1.381-8.51-35.009 9.082-51.089 9.082-51.089 10.294-16.782 20.92-26.82 31.095-32.424z"/><path d="m344.34 462.616c7.139-7.2 12.15-16.2 16.793-25.221 4.354-8.454 8.5-17.111 10.757-26.347a100.007 100.007 0 0 0 1.934-10.818q.838-6.393 1.228-12.834c.348-5.766.413-11.641-1.107-17.214-1.443-5.289-4.979-9.5-8.452-13.768a11.919 11.919 0 0 0 -3.717 3.517c-5.555 7.507-10.137 15.718-16 22.991s-13.31 13.734-22.346 16.094-19.8-.277-25.011-8.025c-3.394-5.042-4.068-11.45-3.733-17.52a50.77 50.77 0 0 1 .589-5.34 119.593 119.593 0 0 0 -17.621 39.412c-4.109 16.982-4.1 36.026 5.429 50.671a31.947 31.947 0 0 0 9.044 9.432 43.141 43.141 0 0 0 11.274 4.806 49.562 49.562 0 0 0 14.051 2.609c10.148.053 19.748-5.242 26.888-12.445z"/><path d="m478.805 280.107c-.734-.916-3.674-2.888-7.065-5a25.809 25.809 0 0 0 -5.14 11.993c-1.006 5.5-1.011 11.15-2.125 16.628a41.8 41.8 0 0 1 -5.112 13.155c-2.821 4.7-8.109 9.268-13.222 7.288a11.653 11.653 0 0 1 -4.923-4.36 37.738 37.738 0 0 1 -6.877-25.388c-3.034 3.609-6.271 7.364-10.693 9s-10.343.24-12.066-4.149a7.841 7.841 0 0 1 .03-5.451c-.244.417-.489.833-.73 1.251a114.286 114.286 0 0 0 -9.253 19.659c-4.088 11.9-5.307 24.595-5.5 37.172a65.138 65.138 0 0 0 1.241 15.927 41.973 41.973 0 0 0 15.753 23.519 52.777 52.777 0 0 0 26.713 9.992 24.087 24.087 0 0 0 8.377-.381 19.643 19.643 0 0 0 7.758-4c37.563-32.1 33.835-75.591 34.126-83.837s-1.017-16.7-4.959-23.948a62.335 62.335 0 0 0 -6.333-9.07z"/><path d="m414.124 289.735-.018.029z"/></g><path d="m277.123 174.662c-4.4-1.882-9.181-3.6-13.881-2.69-3.765.728-7.017 3.065-10.673 4.223a2.323 2.323 0 0 1 -1.769.047 2.425 2.425 0 0 1 -.949-1.3 79.974 79.974 0 0 0 -3.957-9.114 24.066 24.066 0 0 0 -18.9-11.81c-2.818-.191-7.469 1.645-12.238 4.051a30.812 30.812 0 0 1 11.649 12.929c1.845 3.737 3.335 8.022 6.877 10.218 6.1 3.785 13.891-.841 21.069-.633 6.314.184 11.73 4.094 17.225 7.568a37.727 37.727 0 0 1 5.751-1.4c2.222-.355 4.758-.694 6.035-2.547 1.241-1.8.669-4.389-.747-6.057a14.27 14.27 0 0 0 -5.492-3.485z" fill="#fff"/><path d="m411.5 245.34c-3.5-17.024-28.115-17.827-28.115-17.827-11.052-10.073-21.926-6.423-21.926-6.423a59.309 59.309 0 0 0 -10.031 4.1 25.569 25.569 0 0 1 9.91 6.41 9.537 9.537 0 0 0 3.061 2.572c1.919.787 4.1 0 6.165.118 5.843.332 8.644 7.076 12.6 11.388.354.386.726.752 1.109 1.1a44.512 44.512 0 0 1 27.227-1.438z" fill="#fff"/><path d="m419.978 281.94c.026.069.042.139.069.207 1.837 4.686 6.436 8.692 11.439 8.143a10.222 10.222 0 0 0 8.21-7.131 14.49 14.49 0 0 0 -1.365-11.11 16.2 16.2 0 0 0 -1.149-1.818 44.13 44.13 0 0 0 -16.282 10.691c-.313.332-.616.678-.922 1.018z" fill="#fff"/><path d="m324.031 368.192c7.044-2.022 11.128-10.805 8.408-17.61a13.8 13.8 0 0 0 -7.571-7.413 66.768 66.768 0 0 0 -15.131 8.094c-.026.927-.028 1.855.018 2.781.3 6.018 3.025 12.858 8.869 14.325a10.479 10.479 0 0 0 5.407-.177z" fill="#fff"/><path d="m230.017 305.314a30.564 30.564 0 0 0 9.374 3.933c5.031 1.079 10.659.316 14.609-2.98 4.384-3.659 5.593-10.265 3.589-15.526l-6.034.17a134.073 134.073 0 0 0 -21.538 14.403z" fill="#fff"/><path d="m188.925 243.362c.1-.338.187-.679.268-1.023-2.854-4.6-14.574-21.313-30.853-15.064l-11.261 5.325s4.754-32.1-26.527-27.6a34.51 34.51 0 0 0 -5.281 1.9 36.4 36.4 0 0 1 9.256 2.933 12.76 12.76 0 0 1 4.89 3.571c2.732 3.619 1.832 8.874 3.88 12.921 3.964 7.836 15.726 6.9 22.593 12.371a28.216 28.216 0 0 1 5.58 6.771 57.5 57.5 0 0 1 11.385-4.177z" fill="#fff"/></g><g id="Layer_5" fill="#3a3245" data-name="Layer 5"><path d="m485.8 287.626c-6.59-12.281-16.719-21.742-29.712-23.6-13.532-8.049-28.057-14.682-41.946-22.013-4.559-11.127-17.158-17.249-28.939-16.1-6.109-6.648-15.731-6.457-23.581-10.066-24.251-11.644-47.8-23.308-72.243-34.724-4.166-8.046-13.986-12.429-22.693-12.521 3.76-7.044 6.99-14.406 10.213-21.714 40.994 6.191 85.391 13.3 124.855-3.382 68.276-29.854 38.122-124.374-31.536-123.495-52.89 5.644-84.328 57.829-102.5 103.331-32.385-5.654-67.349-12.514-100.295-10.966-69.096 2.531-133.033 52.391-155.406 117.324-26.843 74.261 47.433 143.361 107.611 79.172a14.457 14.457 0 0 0 8.045 6.59c20.461 24.494 42.092 47.979 64.572 70.63 2.146 10.858 8.551 22.824 19.872 24.852 5.619 10.508 15.249 18.638 27.511 20.585 14.783 13.173 30.028 26.365 46.831 36.931 11.044 12.63 31.989 14.657 47.168 7.194 26.8-15.864 47.961-63.628 45.257-94.276a273.1 273.1 0 0 0 30.832 18.022c12.8 11.883 34.906 11.269 49.165 1.16 25.666-20.555 46.752-83.948 26.919-112.934zm-73.963-39.806c11.164 5.1 21.982 11.164 33.1 16.463-20.2 3.828-32.915 21.87-42.093 38.975-14.576-9.159-28.926-18.983-43.912-27.461 9.812-19.742 30.031-36.67 52.905-27.977zm-56.192 35.739c.3-.863.629-1.726.97-2.588 13.993 9.912 29.207 18.417 44.018 27a105.108 105.108 0 0 0 -8.366 32.808c-11.763-7.375-40.061-20.532-42.075-34.961 1.908-7.349 3.034-15.143 5.453-22.259zm-27.7 49.922q3.543 2.235 7.085 4.477c-27.5 3.871-46.043 30.941-55.538 55.165-14.036-10.621-28.458-20.912-42.746-31.194 10.1-26.346 38.243-51.48 67.956-41.844 8.367 2.885 15.808 8.705 23.241 13.396zm-92.9 32.922a412.9 412.9 0 0 0 42.8 31.732c-4.184 14.311-6.023 29.651-3.628 44.6-17.019-14.85-37.123-29.866-44.2-52.225a87.942 87.942 0 0 1 5.022-24.11zm-19.362-13.7c-3.47 8.052-6.612 16.719-8.121 25.551-7.854.045-8.227-11.543-8.24-18.475a93.351 93.351 0 0 1 39.812-58.809c10.708-6.949 26.639-14.156 38.514-7.286-29.525 6.447-50.633 32.279-61.971 59.022zm-14.583-17.461c-3.142-2.231-6.3-4.443-9.44-6.674-2.367-1.679-4.533 2.176-2.257 3.862 3.224 2.388 6.434 4.8 9.66 7.183a93.452 93.452 0 0 0 -6.778 22.89c-11.418-10.935-22.418-22.249-32.735-34.23-9.868-11.327-22.075-23.337-24.219-38.576 10.695 9.533 22.1 17.383 33.243 26.164 2.168 1.653 5.1-2.1 2.938-3.807-12.284-8.994-22.888-20.44-35.484-28.985 9.453-26.069 31.726-46.863 60.348-33.623 19.795 11.892 39.189 24.433 58.726 36.743-25.148 8.726-42.511 26.722-54.002 49.053zm40.761-87.312c10.127 4.076 18.624 11.659 28.1 17.056-8.371.367-16.262 3.2-21.313 9.589q-13.713-8.795-27.533-17.417c5.076-5.751 13.131-11.388 20.742-9.228zm-19.578-14.617c7.211-1.121 15.2 1.025 18.234 7.57-9.132-.911-19.4 5.208-24.562 13.055q-6.057-3.79-12.179-7.475c3.151-7.287 10.661-11.931 18.503-13.15zm-62.471 9.787c-14.186 8.186-23.54 22.112-29.554 37.2-.155.04-.308.058-.462.083-15.249-14.851 7.528-37.531 20.7-45.557 9.592-7 23.788-7.66 31.8 2.067-7.696-.445-16.391 2.765-22.484 6.207zm-16.022-11.883a78.182 78.182 0 0 0 -12.336 10.993 60.283 60.283 0 0 0 -5.862 7.572c-3.1 2.376-6.286 4.568-9.571 6.64-15.788 3.722-25.455-13.654-19.769-27.413 6.632-13.39 21.825-24.775 37.221-19.36 9.245 3.115 12.491 12.751 10.317 21.568zm80.859-26.537c-9 9.124-25.215 2.679-29.5-8.145a34.38 34.38 0 0 1 4.97-25.378c7.356-8.356 18.35-15.254 29.826-12.13 10.018 2.579 13.2 11.449 12.286 20.809a68.614 68.614 0 0 0 -17.582 24.844zm22.873-38.806c-7.1-16.029-27.46-17.531-40.725-8.879-27.342 16.874-43.086 66.656-2.655 77.916-2.485 2.231-4.937 5.05-5.991 8.188-2.494-1.437-4.9-3.125-7.575-4.574-6.507-14.364-24.867-19.381-38.613-12.112-.486-22.042-24.627-30.26-41.964-20.674-10.347 5.219-19.222 14.7-24.942 24.675-9.405 15.12-10.508 39.74 9.015 47.443 5.566 2.178 14.8 3.135 21.4.489-4.672 25.884-35.765 41.412-59.917 31.122-37.455-16.524-28.026-68.568-10.734-96.904 42.869-78.748 135.7-87.5 214.828-68.562 0-.002-6.472 14.258-12.127 21.872zm94.971 181.637c-33.494 6.578-57.632 48.62-58.814 85.278a2.168 2.168 0 0 1 -4.333.063c-1.678-41.331 30.013-97.335 68.4-87.614l.079.025a1.132 1.132 0 0 1 -.454 2.2 31 31 0 0 0 -4.878.048zm112.4-77.6a1.422 1.422 0 0 1 .027 2.819c-12.968 1.641-23.885 12.051-31.428 22.674-16.041 21.387-24.383 50.464-19.182 77.01a1.755 1.755 0 0 1 -3.4.866c-7.072-22.825-1.463-50.8 9.26-70.753 8.13-16.486 25.613-35.048 44.721-32.613zm-47.733-30.033c-20.135-3.981-39.6 9-50.221 26.092-5.937 9.559-9.085 20.162-11.424 31.075-2.695 12.575-7.257 26.02-22.285 25.6-41.188-31.672-90.324 10.052-97.706 53.4-5.285-.445-7.344-6.6-8.054-11.014 13.064-38.492 40.077-68.215 82.939-68.429 10.735-.991 20.8-3.525 29.393-10.327 9.242-7.317 13.138-17.687 19.09-27.456 10.43-19.325 39.708-38.887 58.268-18.941zm-29.819-12.407c-15.949 4.964-27.627 18.417-35.469 32.369-5.52 7.337-14.843 18.059-18.471 8.546-1.726-4.525 1.158-9.364 3.4-13.143 8.015-13.957 20.766-27.954 36.531-31.791 4.731 1.094 9.43 1.716 14.009 4.019zm-24.028-8.645c.352.172.7.351 1.059.534-16.35 7.695-26.869 22.725-36.554 36.934-2.916 4.5-5.262 10.552-9.734 13.057-11.21-6.436-22.145-13.333-32.739-20.783-11.213-8.03-27.954-17.592-25.859-33.626 17.836 15.253 37.636 28.367 58.016 39.842a2.366 2.366 0 0 0 2.387-4.083c-20.093-12.871-39.779-26.291-58.66-40.874 6.349-18.275 28.186-24.231 45.5-18.089 18.98 8.774 37.789 17.921 56.584 27.088zm-72.226-37.726c-17.422 1.759-32.115 14.842-39.624 30.2-3.059 2.3-5.131.618-6.317-2.219-1.723-4.33-.334-9.171 1.854-13.925 9.435-13.843 29.11-29.099 44.087-14.056zm41.193-110.244c89.179-95.178 173.364 96.594-37.448 55.116 12.089-18.7 22.125-38.672 37.448-55.116zm-300.134 151.566c13.258-32.369 38.767-60.8 68.124-79.49 94.837-63.785 207.648 22.586 305.562-15.817 33.242-14.729 34.981-61.625 5.285-81.2-22.417-15.54-50.839-6.515-70.617 9.109-20.975 15.552-32.082 42.1-53.75 56.551 17.95-37.469 47.393-78.275 90.906-84.975 83.4-1.662 103.916 127.31-29.158 120.921-103.698-8.637-222.228-54.121-292.912 52.802-18.871 29.852-32.151 68.689-20.34 103.5-15.61-22.931-13.38-56.301-3.1-81.401zm340.362 206.316c-7.464 16.608-22.093 41.751-41.333 44.785a2.182 2.182 0 0 1 -1.126-4.192c30.589-12.3 52.53-76.681 42.816-105.454a1.135 1.135 0 0 1 1.943-1.086c15.376 17.355 6.192 47.203-2.3 65.947zm119.307-79.1c-5.679 18.227-17.956 47.1-38.124 51.428a2.024 2.024 0 0 1 -1.342-3.783c27.93-13.642 43.278-74.534 34.106-104.786a2.211 2.211 0 0 1 3.9-1.941c11.555 15.955 6.902 41.544 1.46 59.083z"/><path d="m181.85 320.5a1.914 1.914 0 0 0 -.679-.5l.052.022c-2.716-2.166-5.758.88-3.591 3.59l-.021-.051c1.91 3.528 7-.121 4.239-3.061z"/></g></svg>