<svg height="512" viewBox="0 0 500 500" width="512" xmlns="http://www.w3.org/2000/svg"><g id="Layer_4" data-name="Layer 4"><path d="m386.616 244.81c-7.065 2.757-14.513 5.9-22.011 4.766-32.542-4.92 12.982-48.442 16.211-90.869 2.045-26.871-3.382-54.119-19.109-76-2.935-4.084-6.255-8.016-10.531-10.662-10.74-6.65-26.311-4.581-34.623-14.094-4.58-5.243-5.616-12.732-9.5-18.509-4.634-6.892-12.707-10.536-20.511-13.375a212.692 212.692 0 0 0 -68.055-12.733c-15.328-.323-30.935 1.077-45.19 6.721s-27.113 15.91-33.548 29.825c-4.046 8.747-5.41 18.456-8.156 27.693s-7.371 18.585-15.683 23.46c-11.768 6.9-29.01 1.219-34.367-11.327l-3.3-1.56c1.128 11.653 3.05 24.5 12.047 31.993 11.6 9.658 30.027 5.39 41.226-4.732s17.3-24.517 24.468-37.8 16.7-26.647 30.989-31.521a46.759 46.759 0 0 1 17.08-2.233c38.816 1.672 64.61 78.746 27.709 99.5-5.874 3.3-15.575 2.058-16.834-4.562-.864-4.545 2.84-8.5 5.539-12.252a33.673 33.673 0 0 0 5.49-26.394c-12.017 19.84-39.468 24.855-53.915 43.008-7.658 9.622-10.869 21.988-13.071 34.086-2.429 13.343-3.861 27.135-1.108 40.415s10.21 26.1 22.056 32.7c15.415 8.592 34.556 5.28 51.767 9.184 12.587 2.854 23.672 12.592 32.217 22.265 10.195 11.542 12.125 27.626 25.934 34.441 2.905 1.434 11.267-.736 14.446-1.36 5.429-1.065 8.844-6.239 12.622-10.281a58.736 58.736 0 0 1 28.345-16.329c25.523-6.469 38.28-16.836 41.366-43.464z" fill="#f97373"/><path d="m338.1 114.849c-6.1-2.32-11.829-5.752-15.22-11.544a100.473 100.473 0 0 0 -21.3-25.82c-10-8.418-24.945-1.1-25.194 12.259-.607 32.555-3.712 64.04-65.441 90.189-10.269 4.35-12.653 18.919-10.1 30.094 3.835 16.785 17.184 30.834 33.307 35.054 5.061 1.325 10.29 1.81 15.393 2.946 30.438 6.776 54.6 48.1 54.3 40.179-1.945-51.661 38.77-25.695 44.4-97.27 1.055-13.536 31.973-60.076-10.145-76.087z" fill="#ffdc6c"/><path d="m321.543 146.962c-2.068-4.769-4.59-9.963-9.946-12.233-5.616-2.38-12.5-.663-17.847 2.122-11.6 6.033-18.977 16.356-25.914 26.288l-16.248 23.261c-5.786 8.283-11.758 17.137-11.517 26.765.358 14.288 14.359 25.776 29.291 32.377l12.3 2.727c24.307-3.61 45.206-20.287 50.95-40.658 5.694-20.201-2.612-41.155-11.069-60.649z" fill="#fff"/><path d="m86.167 30.756a7.243 7.243 0 0 0 -8.34-.434c-2.424 1.657-3.44 4.688-4.169 7.531-.887 3.461-1.571 7.151-.522 10.566 1.275 4.145 5 7.522 5.046 11.859l2.384-5.148c.474-6.211 7.445-10.229 8.506-16.367a8.516 8.516 0 0 0 -2.905-8.007z" fill="#f97373"/><path d="m425.872 172.505c-2.981-7.73-12.232-2.235-12.232-2.235-4.523 3.3-9.1 6.651-12.589 11.032s-5.8 9.991-5.05 15.539a61.945 61.945 0 0 0 1.625 6.56 31.8 31.8 0 0 1 -.048 15.464c5.206-6.358 11.756-11.464 17.471-17.368s10.755-13.011 11.763-21.166a16.238 16.238 0 0 0 -.94-7.826z" fill="#f97373"/><path d="m313.176 209.652c-.045-2.472-.123-5.049-1.286-7.23s-3.767-3.807-6.112-3.023l-7.545 4.324a105.726 105.726 0 0 0 -23.125 54.031 200.961 200.961 0 0 0 -.988 25.075q.394 95.6 8.791 190.937c.26 2.943.592 6.064 2.4 8.4s5.656 3.336 7.723 1.225c1.227-1.252 1.467-3.141 1.642-4.885q3.18-31.678 6.362-63.357 1.788-17.819 3.578-35.636c2.083-20.751 4.167-41.5 5.682-62.305q3.911-53.674 2.878-107.556z" fill="#d86f6f"/><path d="m320.605 358c-.524-2.091-1.587-4.124-1.392-6.271.135-1.483.864-2.85 1.119-4.317.608-3.5-1.656-7.009-4.658-8.914s-6.617-2.535-10.133-3.061c-9.569-1.431-19.759-2.3-28.55 1.739-1.2-2.538-4.247-3.787-7.049-3.636s-5.408 1.434-7.855 2.809a88.413 88.413 0 0 0 -18.738 14.1l-2.339 8.2c-1.346 14.62-2.753 29.5-8.367 43.065a146.7 146.7 0 0 1 -9.4 17.876l-28.261 48.19c-3.039 5.183-6.119 10.422-10.294 14.743 32.679 10.189 60.312 2.863 60.312 2.863q6.505-17.721 13.012-35.44c3.336-9.086 6.737-18.3 12.369-26.168s13.872-14.375 23.454-15.745c4.716-.674 10.27-.412 13.287-4.1 2.854-3.488 1.953-9 4.79-12.5a32.86 32.86 0 0 1 2.981-2.792 13.034 13.034 0 0 0 .84-17.227 13.066 13.066 0 0 0 4.872-13.414z" fill="#ffdad2"/><path d="m313.349 225.229q-.042-7.79-.173-15.577c-.045-2.472-.123-5.049-1.286-7.23s-3.767-3.807-6.112-3.023l-7.545 4.324a105.726 105.726 0 0 0 -23.125 54.031 200.961 200.961 0 0 0 -.988 25.075q.09 21.7.6 43.4a18.55 18.55 0 0 0 10.186-2.286c5.108-2.934 8.354-8.41 9.872-14.1s1.514-11.663 1.5-17.553l-.051-21.417c-.018-7.61-.019-15.347 2.151-22.64 2.659-8.947 8.281-16.377 14.971-23.004z" fill="#f7b9a9"/><path d="m320.605 358c-.524-2.091-1.587-4.124-1.392-6.271.135-1.483.864-2.85 1.119-4.317.608-3.5-1.656-7.009-4.658-8.914s-6.617-2.535-10.133-3.061l-.051-.008c.546 4.471-.878 9.243-2.634 13.515-2.6 6.316-6.041 12.547-11.5 16.654a22.739 22.739 0 0 1 -3.343 2.07 5.009 5.009 0 0 0 .007.745c.191 1.868 1.279 3.528 1.678 5.363a9.929 9.929 0 0 1 -2.494 8.259 10.875 10.875 0 0 1 -4.269 3.1c-.227 1.861-.033 3.9-.269 5.774a11.509 11.509 0 0 1 -6.825 8.994 4.269 4.269 0 0 1 -1.761.408 3.479 3.479 0 0 1 -2.87-2.147 8.4 8.4 0 0 1 -.554-3.7 31.1 31.1 0 0 1 2.193-10.793 14.4 14.4 0 0 1 1.161-2.353c-.062-.135-.129-.269-.185-.406a14.657 14.657 0 0 1 -.822-6.279 14.885 14.885 0 0 1 .848-4.483 23.226 23.226 0 0 1 -6.525-1.766c-1.087-.479-2.271-1.052-3.41-.715a4.235 4.235 0 0 0 -2.19 2.083c-3.955 6.558-4.448 14.537-5.731 22.087a98.626 98.626 0 0 1 -13.986 36.324c-4.576 7.19-10.676 14.164-18.949 16.211-4.59 1.136-9.4.634-14.126.869-.259.013-.515.043-.773.06q-6.591 11.24-13.181 22.481c-3.039 5.183-6.119 10.422-10.294 14.743 32.681 10.185 60.314 2.859 60.314 2.859q6.505-17.721 13.012-35.44c3.336-9.086 6.737-18.3 12.369-26.168s13.872-14.375 23.454-15.745c4.716-.674 10.27-.412 13.287-4.1 2.854-3.488 1.953-9 4.79-12.5a32.86 32.86 0 0 1 2.981-2.792 13.034 13.034 0 0 0 .84-17.227 13.066 13.066 0 0 0 4.872-13.414z" fill="#e59e9c"/></g><g id="Layer_5" fill="#3a3245" data-name="Layer 5"><path d="m259.017 145.405c-7.556-3.063-9.994 1.236-13.026 7.855a64.684 64.684 0 0 0 -5.708 22.476 3.3 3.3 0 0 0 3.3 3.3 115.2 115.2 0 0 1 12.564-.534 3.16 3.16 0 0 0 3.986-.655c5.2-5.459 10.234-12.126 10.345-20.016.111-8.048-4.833-9.739-11.461-12.426z"/><path d="m321.046 116.184c-7.36-2.188-13.013 13.249-11.594 18.874 1.19 4.307 7.764 5.313 11.553 6.171 9.189 1.079 13.626-8.529 9.522-16.012-1.818-3.317-5.805-7.761-9.481-9.033z"/><path d="m286.824 94.813c-11.3 2.5-8.782 20.33 3.262 17.555 7.258-1.418 4.931-8.917 2.6-13.674-1-2.618-2.857-4.465-5.862-3.881z"/><path d="m348.038 159.409c-1.6-5.442-9.1-5.2-8.7 1.073-2.538 7.697 10.649 6.151 8.7-1.073zm-3.271 1.316.052-.125a1.016 1.016 0 0 1 -.052.125zm-5.216-2.018a.759.759 0 0 1 -.024.294zm5.327 1.972.1-.134c-.043.055-.071.095-.1.134z"/><path d="m283.166 125.881c-6.433.2-8.218 8.687-1.444 10.33 6.984 1.33 8.642-9.893 1.444-10.33z"/><path d="m385.73 241.168c-17.529 11.42-40.766 9.38-27.592-16.477 28.6-53.422 43.958-101.816-1.879-151.677-4.861-5.031-9.725-7.831-16.91-7.733-16.966.5-27.679-14.98-30.3-30.283-29.966-23.775-114.81-35.708-147.512-12.664a60.883 60.883 0 0 0 -20.981 23.426c-5.627 11.4-7.524 24.157-12.741 35.7-10.565 25.314-38.931 30.693-47.627 1.01-1.008-3.325-6.265-2.461-6.374.929-.323 15.1 2.686 31.348 15.178 41.251 11.488 9.107 26.9 7.511 38.665-.234 26.683-17.132 26.033-57.116 54.207-72.49 29.273-13.948 56.434 7.01 62.686 36.307 4.537 15.439 3.536 49.369-15.789 53.926-3.033.3-9.209-1.532-10.227-4.859-.836-2.732 2.558-6.5 3.917-8.559 6.507-9.877 10.186-19.889 6.431-31.658-.839-2.628-4.821-3.544-6.222-.813-8.116 16.862-21.993 21.387-36.379 30.918-32.706 24.132-41.547 72-25.69 108.318 12.045 24.082 35.753 24.263 59.244 25.6 37.037 4.442 59.225 34.96 49.278 70.42-35.363 7.883-29.135 28.234-35.25 56.715-2.3 10.649-8.73 19.779-14.129 29.075-12.663 21.8-25.848 43.4-37.8 65.6a2.878 2.878 0 0 0 4.966 2.9c16.456-27.8 33.538-55.432 48.951-83.81 6.374-12.871 6.519-28.185 9.14-42.109 1.276-11.52 10.666-17.4 20.947-20.536 5.284-1.839 6.551-.017 6.977 5.224.387 4.754.652 9.521.868 14.286.153 3.388 1.806 11.05-3.709 10.142-6.091-1-9.344-8.932-6.727-14.183 2.04-4.094-4.1-7.71-6.158-3.6-4.235 8.443.291 20.962 8.769 24.344 4.788 10.828-1.653 18-5.64 27.177a3.091 3.091 0 0 0 4.493 3.453 12.9 12.9 0 0 0 2.9-2.51c1.75 3.275 4.686 5.109 8.026 6.223.177 1.516-.28 3-.274 4.557-10 6.911-13.242 17.956-17.593 28.588-5.7 14.034-11.152 28.166-14.949 42.85-1.079 4.172 5.3 5.934 6.453 1.779 4.2-15.2 9.907-29.889 15.883-44.466 2.952-7.023 5.393-14.693 10.34-20.627 1.588 18.513 1.1 37.08 3.7 55.444 2.213 12.438 16.166 10.832 19.092-.314 4.655-13.868 1.232-28.509 2.218-42.73.752-8.395 2.6-16.654 4.42-24.871 8.4-4.276 5.655-10.322 9.386-16.42 7.271-5.24 10.143-13.049 6.207-21.468 5.11-4.394 5.385-12.443 1.659-18.153 5.581-7.048 2.413-20.083-7.535-21.255-2.4-50.355 35.2-31.061 61.1-56.488a51.059 51.059 0 0 0 14.437-32.554c.159-2.382-2.657-3.668-4.551-2.621zm-76.172 22.812a38.809 38.809 0 0 0 -6.484 8.756c-1 2.272 1.848 5.183 3.777 2.914.877-1.03 1.643-2.153 2.421-3.266q-.24 7.866-.433 15.733c-7.017 7.043-14.012 14.132-20.57 21.607-1.848 2.106 1.058 5.09 3.1 3.1 5.991-5.831 11.693-11.958 17.322-18.142q-.422 18.582-.7 37.166c-9.876-.579-18.91-.413-28.463 1.535q-.611-13.972-1.239-27.942c4.186-4.869 8.544-9.538 12.834-14.3a2.3 2.3 0 0 0 -3.251-3.251 101.323 101.323 0 0 0 -9.906 10.253q-.206-4.581-.4-9.163c11.638-10.746 22.211-23.235 32.381-35.575q-.212 5.286-.389 10.575zm5.4 92.212c7.53 11.4-4.839 10.141-2.133 17.23 1.772 2.945 2.625 6.482 1.5 9.531-6.449 6.69-18.426 2.738-26.628 2.769-6.271.421-14.487-2.456-10.8-9.718 8.049-4.542 18.622-1.483 27.561-3.261 3.473-.39 3.625-5.333 0-5.522a150.681 150.681 0 0 0 -23.4.571 42.045 42.045 0 0 0 -.2-10.38c10.919-3.738 22.865-2.12 34.099-1.22zm-4.611-112.329c-10.973 12.6-22.6 24.927-33.1 37.942-.052-3.093-.443-6.231-.31-9.3 8-11.052 17.808-20.915 25.819-31.993 1.854-2.647-2.242-5.7-4.433-3.42-6.842 7.164-12.686 15.4-19.057 22.99-1.082-1.541.534-5.368 1.6-7.89 10.545-13.357 20.66-26.8 31.229-40.092q-1.051 15.872-1.749 31.763zm-16.694 200.547c.484 8.869 1.51 17.771-.5 26.544-.376 2.172-.563 6.086-2.315 7.617a3.034 3.034 0 0 1 -5.02-.969c-1.8-12.615-1.979-25.529-2.821-38.265 1.759-6.708 8.269-10.309 12.5-15.493a108.557 108.557 0 0 0 -1.844 20.566zm5.282-39.773c-6.087.518-19.935.817-24.286-3.694-3.184-4.017.719-7.782 4.815-7.885 9.045-.2 17.581.163 26.729.108-1.734 4.893-.835 10.162-7.258 11.471zm18.577-59.037a4.94 4.94 0 0 1 -1.3 4.359c-12.054-2.274-23.726-1.5-35.717 1.044a55.441 55.441 0 0 0 -.684-10.066 85.154 85.154 0 0 1 31.2-.818c4.129.671 6.189 1.016 6.501 5.481zm47.008-67.747c-15.351 10.571-39.173 8.166-50.093 25.011 2.7-38.647.641-77.976 8.238-116.083 1.609-7.9.709-15.2-3.553-22.131-11.033-18.522-19.293-20.058-32.923-2.685-8.814 12.164-21.078 22-26.519 36.215-4.83 12.312 2.448 24.259 7.113 35.729 3.448 16.551 2.265 33.812 3.556 50.636-11.8-19.753-34.641-29.7-57.026-30.561-12.675-.845-26.344-.727-36.812-9.036-9.731-7.723-13.369-19.013-15.258-30.835-5.249-29.3 3.786-61.536 27.715-80.309 11.863-8.755 26.537-13.473 34.847-26.432 1.971 14.161-23.152 28.245-4.687 38.961 41.554 17.679 48.935-84.129-1.2-102.047-72.591-21.173-60.719 68.9-105 79.331-16.812 4.315-30.057-11.22-31.986-26.688 7.7 10.127 20.274 15.373 33.305 8.516 19.607-10.317 21.966-33.564 29.315-52.05 18.719-46.146 77.585-40.553 117.762-32.013a176.508 176.508 0 0 1 42.4 16.026c2.592 15.868 14.033 32 30.978 33.788 5.567.567 10.16-.659 14.768 3.49 31.684 28.231 37.857 76.871 19.492 114.109-5.365 14.523-24.063 39.325-20.124 53.938 5.691 14.028 23.548 12.97 34.694 6.44a44.3 44.3 0 0 1 -19.002 28.675z"/><path d="m81.872 63.688c2.114-9.06 9.095-15.868 11.707-24.584.966-5.847-4.094-13.711-10.391-13.976-7.622-.319-11.052 8.786-12.273 14.872-1.651 8.232 1.119 15.186 4.85 22.255-.428 3.775 4.856 5.268 6.107 1.433zm3-30.787c6.856 5.185-4.9 15.309-6.534 21.29a25.229 25.229 0 0 1 -1.6-7.666c-.092-3.425 2.115-18.051 8.131-13.625z"/><path d="m423.383 165.518c-11.279-5.826-34.992 24.255-29.409 33.965 3.085 7.054 3.714 14.487.494 21.155-1.975 3.79 3.769 7.156 5.738 3.354 5.523-10.659 16.988-16.578 23.3-26.7 4.372-7.019 11.188-27.404-.123-31.774zm-2.68 22.54c-3.312 9.467-11.7 15.372-18.435 22.318a25.423 25.423 0 0 0 -.432-7.536c-.6-2.668-2.862-5.821-2.389-8.569.79-4.588 5.548-10.318 8.485-13.7 12.307-15.603 18.58-9.771 12.768 7.487z"/></g></svg>