<svg height="512" viewBox="0 0 500 500" width="512" xmlns="http://www.w3.org/2000/svg"><g id="Layer_4" data-name="Layer 4"><path d="m198.163 38.214a77.111 77.111 0 0 0 -13.507 9.586 49.119 49.119 0 0 0 -9.761 11.32c-3.987 6.653-5.71 14.38-7.374 21.956l-9.091 41.386s-135.822 16.96-113.23 62.058c0 0 46.487 74.876 198.146 55.486 0 0 152.712-34.77 184.2-139.572 0 0-2.851-71.894-96.565-23.607 0 0-10.731-46.141-51.149-45.426s-81.669 6.813-81.669 6.813z" fill="#ffba97"/><path d="m427.733 98.542s-2.851-71.9-96.565-23.607c0 0-10.731-46.142-51.149-45.426-8.916.157-17.871.577-26.417 1.136 28.894 51.78 7.967 86.161.112 95.762-8.007 9.787-28.624 8.022-41.16 9.673s-25.322-.435-37.42-4.114c-5.2-1.581-10.429-3.522-14.6-7.012-1.506-1.261-3.051-2.766-4.667-4.013-2.575.364-6.835 1-12.227 1.929-.268.426-.524.858-.761 1.29-5.51 10.055-7.478 22.391-3.6 33.18 5.323 14.8 20.6 24.147 36.068 27.025s31.356.455 46.953-1.587 31.729-3.658 46.833.738a19.476 19.476 0 0 0 5.992 1.183 16.29 16.29 0 0 0 6.341-1.988c24.5-11.7 49.479-27.837 76.4-24.256 8.381 1.115 17.142 4.91 21.852 11.6 21.399-19 39.325-42.588 48.015-71.513z" fill="#c4694d"/><path d="m160.537 124.954s54.5 36.915 142.738-17.36c0 0 5.286 28.421-12.606 42.17 0 0-30.318 25.257-102.176 17.063 0 0-37.727-.734-27.956-41.873z" fill="#f7978d"/><path d="m290.669 149.764c17.892-13.749 12.606-42.17 12.606-42.17-19.611 12.062-37.551 19.613-53.6 24.073-4.452 6.841-17.537 23.634-45.208 36.49 60.403 3.097 86.202-18.393 86.202-18.393z" fill="#bf4c4c"/><path d="m427.733 239.943c-25.827-29.468-81.179-35.033-81.179-35.033-105.54 53.742-200.331 32.305-200.331 32.305l-15.925 24.2c14.249-2.874 15.925 15.328 15.925 15.328l-52.282 76.769s7.818 31.212 40.977 77.631 129.06 50.2 129.06 50.2l48.373 3.063c104.563-8.8 138.766-90.393 138.766-90.393 37.135-99.682 2.443-124.601-23.384-154.07zm-71.078 187.157c-68.829 58.265-179.6 0-179.6 0-64.668-32.334-28.492-120.052-28.492-120.052 27.852-52.183 97.962-59.847 97.962-59.847 107.072-22.453 139.26 49.734 139.26 49.734s39.7 71.904-29.13 130.165z" fill="#f7978d"/><path d="m124.237 261.591s19.561-9.833 21.986 15.149l-52.282 66.3a191.093 191.093 0 0 0 -23.077 48.46s-15.052 34.4-34.624 7.889c0 0-10.181-16.592 10.353-34.484s60.495-82 60.495-82z" fill="#d1e3ed"/><path d="m146.223 276.74c-2.425-24.982-21.986-15.149-21.986-15.149l-12.069 15c3.559 7.162 3.218 17.031-.427 24.556-5.568 11.5-16.083 19.7-23.808 29.879-7.243 9.541-11.97 20.735-18.5 30.78-3.641 5.605-8.012 10.991-13.9 14.146-5.654 3.027-12.962 3.592-18.353.206-7.193 13.029-.94 23.23-.94 23.23 19.572 26.5 34.624-7.888 34.624-7.888a191.093 191.093 0 0 1 23.077-48.467z" fill="#8da8c6"/><g fill="#bf4c4c"><path d="m405.653 253.794c-6.05-5.905-11.744-13.758-10.224-22.075.779-4.263 3.3-7.779 6.441-10.854-25.938-13-55.316-15.955-55.316-15.955a334.87 334.87 0 0 1 -79.173 28.479l-3.968 2.349c-5.779 3.422-11.655 6.931-16.6 11.411 106.843-22.265 138.977 49.79 138.977 49.79s39.7 71.9-29.133 130.165c-.447.378-.9.732-1.355 1.1 16.113-6.158 32.2-12.711 46.25-22.662a113.368 113.368 0 0 0 44.829-67.975c3.433-15.989 3.119-33.479-4.893-47.735-8.343-14.842-23.65-24.146-35.835-36.038z"/><path d="m459.4 369.042c-15.892 31.425-60.77 95.327-166.23 106.031a233.159 233.159 0 0 0 -34.877 5.9c3.618.284 5.689.367 5.689.367l48.373 3.063c104.563-8.8 138.766-90.393 138.766-90.393 3.313-8.905 6.047-17.201 8.279-24.968z"/><path d="m144.028 288.32 19.14-1.434a116.486 116.486 0 0 1 29.258-22.038l12.04-14.848-1.762-8.661c-34.529.836-56.481-4.124-56.481-4.124l-15.672 23.813c.484.027.982.073 1.489.142 12.638-1.1 14.183 15.57 14.183 15.57l-1.388 2.038a53.072 53.072 0 0 1 -.807 9.542z"/><path d="m114.794 399.893a79.407 79.407 0 0 1 1.832-12.423c3.739-16.211 12.069-30.961 22.843-43.74a156.586 156.586 0 0 1 9.1-36.678 91.849 91.849 0 0 1 11.2-16.38 37.375 37.375 0 0 0 -13.969-13.309l-51.859 76.149s4.452 17.752 20.853 46.381z"/></g><path d="m445.287 391.031c10.4-15.323 20.464-35.249 22.064-56.478 0 0-13.661 21.492-21.2 6.072 0 0-3.275 18.171-18.736 38.986 7.344-.797 15.746.809 17.872 11.42z" fill="#ffd7d7"/><path d="m156.1 411.368c.9 4.895.845 17.346-22.875 17.366.564.8 1.118 1.6 1.7 2.409 11.1 15.543 29.243 26.3 48.46 33.739-3.119-11.156-3.831-27.954 21.088-26.181a234.6 234.6 0 0 1 -27.406-11.6 69.384 69.384 0 0 1 -20.967-15.733z" fill="#ffd7d7"/><path d="m184.656 47.8a49.119 49.119 0 0 0 -9.761 11.32c-3.987 6.653-5.71 14.38-7.374 21.956q-1.1 5-2.2 10a57.691 57.691 0 0 0 15.942 2.232c28.284 0 51.213-20.118 51.213-44.935a39.891 39.891 0 0 0 -2.518-13.921c-18.683 1.82-31.8 3.758-31.8 3.758a77.111 77.111 0 0 0 -13.502 9.59z" fill="#fff1c7"/></g><g id="Layer_5" data-name="Layer 5"><path d="m470.472 312.683c-6.147-63.261-66.981-108.161-127.536-112.4 37.559-24.74 88.217-61.449 87.159-111.238-3.256-26.211-33.08-36.425-56.252-33.07-12.937 1.311-24.475 5.988-36.152 11.089-1.4-17.866 2-41.167-15.5-52.1-28.582-15.864-108.591 9.621-136.744 24.891-20.964 14.371-27.27 55.412-29.943 79.4-25.977 6.217-104.065 15.541-114.236 40.4-9.118 45.2 65.027 72.046 99.795 79.372-4.028 6.564-9.262 12.222-14.121 18.141a15.545 15.545 0 0 0 -10.893 7.119c-8.447 11.222-15.042 23.935-23.072 35.457-17.516 26.475-38.133 50.548-58.5 74.783-7.131 10.311-7.976 24.173 2.145 32.966a22.629 22.629 0 0 0 31.51-2.335c4.106-4.788 6.079-10.821 7.661-16.823 2.742-11.1 6.505-22.008 12.147-31.985-.608 62.225 55.6 112.422 114.813 119.639 101.936 38.946 248.674-3.122 264.041-124.374a106.605 106.605 0 0 0 3.678-38.932zm-9.237-16.123c11.919 44.06-9.639 92.191-43.182 121.071-82.29 73.1-244.031 86.235-299.943-24.65a103.227 103.227 0 0 1 -8.876-43.155c4.562-10.49 11.74-19.817 21.261-26.127-19.868 122.615 121.044 158.313 213.576 120.628 128.193-47.015 156.529-190.577 5.829-227.262a36.6 36.6 0 0 1 20.477-5.356c41.823 12.036 79.117 41.685 90.858 84.851zm-369.257 32.074a23.737 23.737 0 0 0 -5.063-7.477q3.342-4.63 6.562-9.347c4.755.821 9.672 1.835 13.536 4.885-4.579 5.313-9.01 10.775-13.151 16.436a44.154 44.154 0 0 0 -1.884-4.497zm24.385-51.894c7.67.63 13.964 3.271 18.9 9.4-2.644 3.256-5.635 6.064-8.473 9.075-4.437-4.031-12.855-5.78-19.7-4.594 3.159-4.577 6.235-9.221 9.273-13.881zm28.273 107.541c-16.175-68.409 44.833-131.38 111.277-135.529 97.743-13.068 177.171 58.248 116.395 152.492-32.406 45.948-96.947 54.65-147.8 39.01-24.531-14.607-34.956-43.655-12.977-65.668 15.122-15.658 37.426-23.15 58.241-27.368 33.014-4.818 73.275-7.869 74.728-50.772-.186-3.144-4.926-5.138-6.5-1.76-4.262 9.148-9.977 17.727-18.47 23.444-25.614 15.5-57.43 9.8-85.417 17.944-38.052 7.037-75.237 44.629-61.033 85.106a77.53 77.53 0 0 1 -28.444-36.899zm229.253 31.127a2.686 2.686 0 0 0 -.2-.232c30.589-37.412 37.249-95.235 5.989-133.94-26.178-32.112-71.069-40.373-110.35-39.6 53.422-12.136 124.486 12.953 135.759 72.021 6.641 36.259-5.17 75.696-31.198 101.751zm29.1-20c31.035-48.916 19.943-119.147-30.169-150.659 14.949 6.5 31.461 13.677 40.646 27.763 23.415 35.4 20.646 81.931 1.136 118.4a157.519 157.519 0 0 1 -24.516 21.868 116.658 116.658 0 0 0 12.899-17.373zm31.821-43.662a115.43 115.43 0 0 0 -6.11-63.425c25.1 25.209 17.53 54.449 1.184 82.1a127 127 0 0 0 4.922-18.676zm-294.943-74.222a17.459 17.459 0 0 1 -.77 2.34 32.236 32.236 0 0 0 -18.856-9.092c5.467-12.646 23.272-6.88 19.626 6.752zm-39.822 24.3c.814-1.289 1.613-2.59 2.41-3.9 6.7-1.516 13.749-1.594 19.822 1.99-3.777 3.958-7.481 7.963-11.124 12.054a32.655 32.655 0 0 0 -13.953-5.731q1.441-2.197 2.845-4.416zm199.247-185.881c-1.564 18.811-8.714 32.587-26.694 40.179-30.485 9.028-63.669 16.145-94.394 5.021-14.7-4.171-16.749-15-16.172-28.657 40.736 16.872 100.04 2.992 137.405-17.793-.05.417-.091.834-.145 1.25zm-127.159-42.5c3.979-13.836 9.953-26.138 24.258-31.557a9.6 9.6 0 0 0 -2.478 8.1c4.013 26.986 72.3 6.126 89.631 1.736 13.4-5.267 15.96 3.736 16 15.223a235.18 235.18 0 0 1 .678 39.733c-36.587 22.454-97.268 36.1-138.048 19.412a186.565 186.565 0 0 1 9.959-52.644zm-124.568 99.857c-3.033-9.374 1.243-17.023 9.857-21.127 30.348-15.077 64.929-19.058 97.71-26.343-3.161 32.192 9.331 42.865 40.092 46.841 37.566 5.085 76.7-6.93 110.951-21.651-17.9 26.036-52.941 43.1-84.563 41.777-4.244-.266-4.217 6.313 0 6.595 39.119 3.234 106.6-35.421 115.891-74.973 3.382-16.6.571-33.748.393-50.511 20.036-10.124 44.389-17.465 66.22-8.364 50.555 25.085-6.332 87.7-34.448 108.222-74.515 60.25-182.019 84.911-271.464 44.6-19.737-8.892-44.842-22.366-50.639-45.066zm100.286 67.07c6.147 1.152 12.341 2.013 18.531 2.678-8.14 6.6-15.53 13.755-20.866 22.962a16.448 16.448 0 0 0 -10.6-8.308c5.084-5.056 9.299-11.556 12.935-17.332zm-80.724 106.643c5 4.533 7.7 10.8 8.578 17.387a111.491 111.491 0 0 0 -6.191 18.4c-2.391-8.558-6.939-16.4-13.887-21.946q5.856-6.834 11.5-13.841zm-28.688 51.223c-7.455-12.686 5.832-23.984 13.261-32.861 9.554 8.066 12.925 19.944 12.765 32.015-5.965 9.21-19.586 11.525-26.026.846zm41.746-43.323c-1.87-5.057-5.253-9.869-9.321-12.582q6.278-7.882 12.262-15.993c3.6 3.683 3.99 9.119 6.062 13.467a159.666 159.666 0 0 0 -9.003 15.108zm359.231 53.031c-25.172 40.2-69.849 64.717-115.866 72.368-5.838-.531-11.386-1.238-16.66-3.749 53.364-10.443 106.393-36.342 139.259-80.53-2.049 4.058-4.277 8.036-6.733 11.911z" fill="#3a3245"/></g></svg>