<svg height="512" viewBox="0 0 500 500" width="512" xmlns="http://www.w3.org/2000/svg"><g id="Layer_4" data-name="Layer 4"><path d="m207.122 64.384v404.352s.767 5.6 8.773 5.6 10.58-8.056 10.58-8.056v-405.468z" fill="#f7978d"/><path d="m207.122 119.749c7.812 8.459 14.752 17.567 19.353 27.926v-79.935l-19.353 3.573z" fill="#bf4c4c"/><path d="m225.9 337.882c-.405 8.034-.863 16.3-4.247 23.6-3.435 7.409-9.557 13.139-14.528 19.639v94.547s.767 5.6 8.773 5.6 10.58-8.055 10.58-8.055v-146.813z" fill="#bf4c4c"/><path d="m60.709 71.471c-1.035 1 79.812-35.834 136.959-35.834 0 0-5.292 23.753 11.453 23.753h17.354s10.154-2.031 8.3-21.428c0 0 54.937 2.129 97.614 19.944l4.821-10.972s-54.474-33.934-127.074-33.934c0 0-82.622-5.9-149.427 58.471z" fill="#d1e3ed"/><path d="m337.209 46.934s-37.774-23.527-92.329-31.4a12.468 12.468 0 0 1 -1.051 1.352c-2.912 3.24-7.168 4.98-11.436 5.856-7.954 1.634-16.2.61-24.294 1.2s-16.787 3.321-21.159 10.158a20.487 20.487 0 0 0 -1.113 2.016c4.032-.312 7.992-.484 11.841-.484 0 0-5.292 23.753 11.453 23.753h17.354s10.155-2.031 8.3-21.428c0 0 54.937 2.129 97.614 19.944z" fill="#8da8c6"/><path d="m93.972 83.711a8.8 8.8 0 0 1 8.8 8.8v225.75a0 0 0 0 1 0 0h-17.596a0 0 0 0 1 0 0v-225.754a8.8 8.8 0 0 1 8.796-8.796z" fill="#f7978d"/><path d="m102.768 227.939c-4.308 7.167-10.74 12.645-17.592 17.819v72.5h17.592z" fill="#bf4c4c"/><path d="m94.42 320.612s-18.766-1.734-20.094 18.544l-4.319 3.336h-23.853a14.214 14.214 0 0 0 -14.227 14.394c.474 33 7.389 112.642 62.045 130.437 0 0 68.638-18.591 59.4-135.127a14.206 14.206 0 0 0 -14.18-13.04h-25.337s4.313-14.513-19.435-18.544z" fill="#d1e3ed"/><path d="m123.767 339.367c.08-.067.149-.142.226-.211h-10.138s3.819-12.879-15.6-17.74c.118.222.246.438.346.669a10.537 10.537 0 0 1 -1.057 10.092c-1.149 1.616-2.736 2.867-4.03 4.37s-2.328 3.441-2.008 5.4l22.94-.3c3.266-.047 6.812-.19 9.321-2.28z" fill="#8da8c6"/><path d="m108.976 448.471c-5.852 8.749-14.971 15.744-25.409 17.1-9.324 1.209-18.794-2.157-26.552-7.469-.057-.039-.11-.083-.166-.122 8.89 13.337 20.9 24.064 37.123 29.345 0 0 68.638-18.591 59.4-135.127a14.206 14.206 0 0 0 -14.18-13.04h-21.484l-1.625 1.855c3.395-.064 7.024-.064 9.863 1.8s4.183 6.349 1.723 8.69a8.069 8.069 0 0 1 -3.7 1.688c-12.959 3.272-26.54 2.88-39.766 4.8-9.145 1.33-18.986 4.377-23.9 12.2-3.579 5.693-3.82 12.793-3.954 19.516-.39 19.551-.357 40.574 10.823 56.618-3.811-11.807-5.859-24.473-3.523-36.658s9.548-23.83 20.617-29.435c8.189-4.146 18.7-4.52 26.189.788 5.619 3.982 8.918 10.641 10.064 17.432s.35 13.759-.871 20.536c-1.874 10.361-4.819 20.735-10.672 29.483z" fill="#8da8c6"/><path d="m341.644 354.605 45 49.344s22.175-15.12 10.114-41.223l68.584-67.07s7.305-11.238-7.061-14.355c0 0-4.237-1.168-15.536 11.3l-57.7 56.1s-26.745-21.374-43.401 5.904z" fill="#f7978d"/><path d="m418.4 318c-.486-.1-.972-.209-1.458-.315l-31.9 31.018a42.456 42.456 0 0 0 -14.877-7.142c2.19 3.483 4.873 6.665 6.758 10.324 1.359 2.635 2.268 5.854.956 8.514-1.1 2.236-3.473 3.492-5.612 4.774a49.546 49.546 0 0 0 -11.889 9.975l26.267 28.8s22.175-15.12 10.114-41.223l43.441-42.483a95.292 95.292 0 0 1 -21.8-2.242z" fill="#bf4c4c"/><path d="m341.644 354.605 45 49.344-39.664 64.787s-30.641-24.668-32.213-37.853l6.867-12.3s-15.916 2.458-25.592-6.908-23.311-33.351-23.311-33.351 36.224 6.432 68.913-23.719z" fill="#f9dab9"/><path d="m346.981 468.736 39.664-64.787-45-49.344a96.8 96.8 0 0 1 -9.617 7.8 228.112 228.112 0 0 1 15.328 17.985c1.086 1.419 2.206 3 2.175 4.784-.046 2.722-2.659 4.637-3.743 7.135-1.821 4.192.983 8.929 4.156 12.218s7.042 6.434 7.94 10.915c1.039 5.186-2.28 10.141-5.427 14.392-4.151 5.608-8.575 11.443-14.926 14.332a26.721 26.721 0 0 1 -14.179 1.834c9.56 11.405 23.629 22.736 23.629 22.736z" fill="#c49382"/><path d="m297.1 278 53.35-50.065 9.932 8.209-48.919 53.028s-18.063 10.579-14.363-11.172z" fill="#d1e3ed"/><path d="m328.615 270.579 31.763-34.431-9.932-8.209-22.99 21.574c2.66 4.226 2.734 10.236 2.072 15.451-.238 1.867-.537 3.747-.913 5.615z" fill="#8da8c6"/><ellipse cx="397.326" cy="184.264" fill="#ffda76" rx="66.333" ry="64.734"/><path d="m453.5 149.851c-3.561 13.236-11.769 25.641-21.561 35.5-6.552 6.594-14 12.518-22.632 15.955-14.082 5.6-30.1 4.171-44.437 9.085a47.987 47.987 0 0 0 -20.181 13.252 66.784 66.784 0 0 0 52.637 25.357c36.635 0 66.334-28.982 66.334-64.734a63.28 63.28 0 0 0 -10.16-34.415z" fill="#f48a4e"/><path d="m429.423 127.611-.034.079c-9.747 23.808-33.223 41.4-58.809 44.08-7.719.808-15.529.357-23.246 1.176a60.585 60.585 0 0 0 -15.884 3.817 63.834 63.834 0 0 0 -.457 7.5 63.167 63.167 0 0 0 4.645 23.791 72.056 72.056 0 0 1 19.11-13.054c17.807-8.307 38.786-9.22 55.277-19.9 14.791-9.582 24.109-26.907 24.449-44.473q-2.448-1.617-5.051-3.016z" fill="#f48a4e"/><path d="m408.039 120.382a68.367 68.367 0 0 0 -10.713-.852 66.748 66.748 0 0 0 -53.775 26.853c15.822 1.804 49.977 2.062 64.488-26.001z" fill="#fff"/><ellipse cx="397.326" cy="184.264" fill="#fff" rx="46.136" ry="45.024"/><path d="m397.326 139.24c-25.48 0-46.136 20.158-46.136 45.024a44.877 44.877 0 0 0 24.323 39.679 46.771 46.771 0 0 1 -6.1-10.708 46.248 46.248 0 0 1 -3.544-13.056 39.324 39.324 0 0 1 2.762-18.265 45.976 45.976 0 0 1 67.42-22.119 46.373 46.373 0 0 0 -38.725-20.555z" fill="#8da8c6"/></g><g id="Layer_5" fill="#3a3245" data-name="Layer 5"><path d="m309.868 53.868a394.794 394.794 0 0 1 70.118 28.448c3.1 1.695 7.006-2.608 3.945-5.1-102.613-87.06-234.997-93.216-335.909.019-2.9 2.517.8 6.767 3.953 5.119a395.767 395.767 0 0 1 141.848-42.829c.774 7.732.024 20.407 9.6 22.408-1.271 130.715-.275 261.446-.573 392.167 0 5.686-1.64 15.26 2.729 19.554 4.634 4.554 16.9 4.382 21.265-.6 2.6-2.962 2.234-6.822 2.234-10.469-.109-133.629.178-267.261-.141-400.889 9.017-2.177 8.206-14.965 8.654-22.281a403.979 403.979 0 0 1 72.277 14.453zm-190.486-5.991a400.371 400.371 0 0 0 -44.921 16.507c67.79-53.554 163.439-64.902 240.307-24.015-3.2 3.3-7.662 4.372-12.135 4.757a402.093 402.093 0 0 0 -82.292-13.506c-34.124-.163-68.241 6.936-100.959 16.257zm103.218 417.674c-.234 6.408-13.378 6.314-13.266-.2-.2-2.485 0-5.072 0-7.563-.44-114.524.9-260.286-.217-373.837 4.5 2.28 9.038 4.419 13.425 6.9-.195 124.889.298 249.855.058 374.7zm8.519-422.489c-.328 12.438-2.44 13.379-14.532 12.481-15.515 1.538-15.162-1.423-15.834-16.663a141.054 141.054 0 0 1 30.846-.125c-.246 1.356-.323 2.735-.476 4.307z"/><path d="m154.363 346.586c-2.425-5.34-7.547-7.434-12.933-8.106-7.049-.708-16.044-.369-23.614-.457.561-7.117-3.229-14.981-10.3-17.454l.019-214.482c0-7.592 2.631-21.156-6.959-23.748-6.436-1.739-17-1.449-18.995 6.478-.864 54.8.054 175.236-.265 231.24-7.586 1.857-10.385 10.744-9.809 17.972-19.322 1.58-41.886-7.826-41.382 20.4-.802 48.217 9.275 111.271 60.053 131.071 6.948 3.761 19.106-5.147 25.107-8.945 37.442-27.855 45.298-90.726 39.078-133.969zm-66.571-255.148c1.271-4.353 11.959-5.155 13.266-.086.039 31.6-.021 63.288.008 94.915q0 53.834.01 107.669a23.155 23.155 0 0 1 -13.291 14.834c.061-72.413-.077-145.001.007-217.332zm-7.934 237.715c2.61-3.764 7.822-2.727 11.868-2.786 8.906-.914 19.581-.026 18.452 11.655l-32.335.006c.183-3.117.262-6.346 2.015-8.875zm69.667 52.833c-2.151 35.018-10.4 75.83-42.145 95.944-3.267 2-8.755 5.781-12.7 6.013-3.324.195-8.54-3.31-11.329-4.885a65.74 65.74 0 0 1 -10.614-7.428c-29.866-26.358-35.628-70.323-36.007-108 .019-6.171-1.412-16.883 6.413-18.7 32.676-.95 65.559.751 98.251-.65a2.8 2.8 0 0 0 .9-.13c8.646 1.57 7.516 11.857 7.61 18.708q.135 9.563-.379 19.128z"/><path d="m137.521 368.266c-3.908-15.147-22.737-15.961-35.637-15.718-10.484-.074-21.113-.638-31.535.762-16.78 1.515-22.99 11.17-23.241 27.257-1.715 27.31 4.4 62.029 26.828 78.574 1.714 1.383 4.6-.971 3.247-2.975-7.621-11.3-13.621-23.1-16.265-36.577-5.7-26.784.767-54.812 32.282-57.755 11.877-1.715 30.208-4.282 37.69 7.528 4.1 14.244 2.048 29.939-.2 44.415-.551 3.126 3.94 4.494 4.836 1.333 3.998-15.19 5.446-31.339 1.995-46.844z"/><path d="m131.138 429.662c-1.967-4.372-8.107-.026-4.861 3.4 2.236 2.38 6.323-.489 4.861-3.4z"/><path d="m400.583 231.716c28.171.692 50.034-26.259 46.94-53.691-2.514-26.981-27.366-46.8-55.42-44.194-65.565 8.438-59.85 98.361 8.48 97.885zm38.976-52.948c2.956 40.8-40.287 57.208-70.269 35.111-21.964-22.518-12.421-58.972 18.357-66.589 24.978-7.46 48.984 3.96 51.912 31.478z"/><path d="m323.066 248.025c-8.822 8.806-17.764 17.512-26.445 26.458-4.378 4.512-6.288 10.629-2.447 16.245 4.347 6.359 12.953 6.289 18.265 1.366 16.388-15.831 32.02-32.484 48.248-48.493 20.378 14.354 49.706 17.15 72.029 5.559 62.559-38.373 34.82-140.282-42.293-133.341-56.465 5.026-83.3 70.1-46.589 111.926-7.349 6.226-13.965 13.489-20.768 20.28zm-11.033 34.968c-1.779 1.793-4 4.973-6.531 5.837-5.722 1.955-8.357-4.858-5.15-8.728 13.732-13.957 27.538-27.763 41.324-41.7.881 4.021 1.635 8.116 2.625 12.113q-16.137 16.236-32.268 32.478zm79.133-159.209c81.865-6.21 92.587 112.569 11.338 117.875-83.662 1.122-91.387-107.322-11.338-117.875z"/><path d="m448.827 282.081c-21.932 20.985-43.448 42.413-65.277 63.508-14.344-14.3-31.833-6.979-44.011 5.973-2.5 2.347-5.172 3.869-7.874 5.861-16.82 12.749-37.185 19.69-58.348 18.736-14.123 2.739 21.433 42.311 27.7 44.388a36.9 36.9 0 0 0 14.575 1.05c-3.823 5.593-5.974 11.388-.692 18.3a186.947 186.947 0 0 0 30.412 31.2 3.518 3.518 0 0 0 5.421-.7c13.868-21.8 28.222-43.75 40.04-66.646 11-10.271 18.346-27.566 8.089-40.772 22.056-19.972 42.779-41.419 64.352-61.922 4.661-4.529 8.969-10.008 5.367-16.879-4.201-8.016-13.822-7.691-19.754-2.097zm-101.86 181.44c-2.389-2.046-4.72-4.17-7-6.349a60.661 60.661 0 0 0 7.918-12.579c1.064-2.335-1.962-5.359-3.889-3-2.987 3.58-5.356 7.8-8.272 11.4q-4.457-4.519-8.639-9.263a90.748 90.748 0 0 0 20.331-24.63c1.3-2.3-1.985-5.1-3.791-2.925-6.619 7.977-13.612 15.507-20.444 23.261-4.645-4.614-6.83-9.013-2.035-13.886 3.912-5.135 8.417-9.791 11.792-15.285 1.5-2.551-1.916-5.069-4.025-3.105-.529.465-.992 1.02-1.52 1.48-2.093 1.3-3.638 3.384-5.668 4.783a33.26 33.26 0 0 1 -16.89.382c-6.557-2.881-10.379-8.692-15.467-13.781 11.016-2.012 21.233-3.6 30.184-10.366a2.385 2.385 0 0 0 -2.405-4.116c-10.234 5.207-21.594 7.214-32.9 8.267a47.863 47.863 0 0 1 -6.285-10.859c23.56.309 45.359-9.779 63.531-24.26q3.7 4.032 7.4 8.059c-2.947 2.161-6.349 3.982-8.849 6.669a2.4 2.4 0 0 0 2.9 3.755c3.433-1.726 6.4-4.369 9.734-6.305q6.048 6.589 12.1 13.178c-3.29 4.44-6.568 8.92-9.5 13.612-1.316 2.12 1.79 4.6 3.5 2.7 3.477-3.875 6.654-8.013 9.824-12.143l5.525 6.019c-1.342 2.483-2.656 5-3.9 7.535a2.251 2.251 0 0 0 3.885 2.271c1.33-1.833 2.618-3.705 3.886-5.586l5.079 5.533c-11.507 20.144-23.477 40.067-36.11 59.534zm50.28-83.947c-.759 7.441-5.336 13.107-9.695 18.806q-20.28-22.083-40.571-44.159c14.388-14.051 26.5-11.982 38.618 3.189 5.533 6.122 12.556 13.256 11.648 22.164zm63.9-85.737c-19.819 19.5-39.833 38.735-59.644 58.261-.29-4.632-.1-9.36-.634-13.954 18.439-17.417 36.018-36.046 54.793-52.97 5.943-3.149 9.466 4.37 5.481 8.663z"/><path d="m329.822 378.32c-3.86 0-3.867 6 0 6s3.868-6 0-6z"/></g></svg>