<svg height="512" viewBox="0 0 500 500" width="512" xmlns="http://www.w3.org/2000/svg"><g id="Layer_4" data-name="Layer 4"><path d="m38.054 37.27 153.546 64.524s-16.1 22.679 17.213 41.536l107.13 51.136s63.949 38.492 83.8 9.319c0 0 13-20.537-3.642-40.758 0 0 93.955 41.169 90.051 169.7 0 0-4.639 70.908-21.348 105.584l3.806 15.353-3.806 21.106-15.748 5.649s-66.956-14.239-79.148-33.434c0 0-11.3-9.681-1.487-25.735 0 0 17.8-32.033 22.875-69.532 0 0 11.018-70.8-49.038-107.665 0 0-45.267-32.989-89.9-46.975 0 0-50.727-12.487-71.835-36.866l-112.682-51.482-42.505-18.63a18.034 18.034 0 0 1 -10.589-13.7c-1.607-10.19-1.9-25.868 8.224-36.178a13.708 13.708 0 0 1 15.083-2.952z" fill="#f7978d"/><path d="m396.105 163.027c16.643 20.221 3.642 40.758 3.642 40.758a23.511 23.511 0 0 1 -3.209 3.792c8.515 8.5 64.341 47.893 47.208 146.509-3.156 18.165-19.322 34.558-37.758 34.75-7.473.078-14.787-2.429-22.019-5.1a224.021 224.021 0 0 1 -15.548 37.515c-9.811 16.054 1.487 25.735 1.487 25.735a24.518 24.518 0 0 0 5.077 5.511c5.469.438 10.873 1.146 15.861 3.205 6.587 2.719 11.682 7.382 16.222 12.818a377.054 377.054 0 0 0 41.992 11.895l15.748-5.649 3.806-21.106-3.806-15.353c16.709-34.676 21.348-105.584 21.348-105.584 3.904-128.523-90.051-169.696-90.051-169.696z" fill="#c96157"/><path d="m400.165 216.18c5.944-7.936 6.874-18.823 4.344-28.413a36.986 36.986 0 0 1 -4.762 16.018c-19.853 29.173-83.8-9.319-83.8-9.319l-107.132-51.136c-9.319-5.275-14.769-10.848-17.788-16.141a40.7 40.7 0 0 0 7.994 18c4.523 5.667 10.621 9.857 16.859 13.554 18.061 10.7 37.922 17.922 57.256 26.1a601.669 601.669 0 0 1 56.05 27.225c11.392 6.282 22.873 13.043 35.675 15.352s27.505-.829 35.304-11.24z" fill="#c96157"/><path d="m32.021 38.417 159.579 63.377 22-16.282-163.361-64.756s-11.768-2.77-18.218 17.661z" fill="#d1e3ed"/><path d="m115.438 71.545 76.162 30.249 22-16.282-64.776-25.678c-9.303 7.195-21.432 11.066-33.386 11.711z" fill="#8da8c6"/><path d="m93.285 37.819-43.046-17.063s-11.768-2.77-18.218 17.661l27.379 10.874c13.262-.291 25.214-4.625 33.885-11.472z" fill="#fff"/><path d="m336.9 239.741a68.148 68.148 0 0 1 13.449 15.729c16.514 27.126-24.3 30.021-24.3 30.021s-36.249-8.679-38.113-36.791 22.95-24.737 22.95-24.737a74.208 74.208 0 0 1 8.751 4.008 307.712 307.712 0 0 0 -71.686-32.083s26.384 17.025 26.215 49.625 27.579 47.919 27.579 47.919 8.818 22.585 18.612 34.5 22.331 4.791 22.331 4.791c-18.384-8.408-14.142-33.555-14.142-33.555 22.628 2.82 35.869-9.434 35.869-9.434s15.986 20.756 14.055 50.746 8.423 27.52 8.423 27.52c17.182-58.859-13.268-100.623-49.993-128.259z" fill="#d1e3ed"/><path d="m336.9 239.741a68.148 68.148 0 0 1 13.449 15.729c16.514 27.126-24.3 30.021-24.3 30.021a66.194 66.194 0 0 1 -9.468-3.3 46.52 46.52 0 0 1 -23.873-4.212c-4.279-2.029-8.245-4.715-12.327-7.125a60.062 60.062 0 0 0 21.366 22.571s8.818 22.585 18.612 34.5 22.331 4.791 22.331 4.791c-18.384-8.408-14.142-33.555-14.142-33.555 22.628 2.82 35.869-9.434 35.869-9.434s15.986 20.756 14.055 50.746 8.421 27.527 8.421 27.527c17.182-58.859-13.268-100.623-49.993-128.259z" fill="#8da8c6"/><path d="m310.886 223.959a74.208 74.208 0 0 1 8.751 4.008 307.712 307.712 0 0 0 -71.686-32.083 64.453 64.453 0 0 1 20.468 24.216 150.637 150.637 0 0 1 25.215 9.108c6.828-6.658 17.252-5.249 17.252-5.249z" fill="#8da8c6"/><path d="m216.779 86.805s-22.322-.24-25.752 21.925 18.615 32.158 18.615 32.158l131.274 64.412s42.951 25.681 60.356-4.481-17.446-46.644-17.446-46.644l-33.478-13.285s4.452-13.79 28.122-15.044c0 0 24.275-14.566 8.423-45.032l-14.029-10.7s9.6-15.98-7.528-16.374-13.8 11.884-9.361 16.374c0 0-29.163-6.138-34.8 14.726 0 0-1.7 11.022 12.471 8.66s31.226-4.836 30.769 4.865-10.315 21.794-18.769 22.635l-18.3 10.289-53.18-22.559s7.715-19.007-2.666-33.73a37.219 37.219 0 0 1 -5.573-30.312s-23.209 7.7-13.568 36.131c0 0 9.648 9.2 0 20.98z" fill="#ffda76"/><path d="m263.076 116.347c4.6-.633 8.713-3.123 12.672-5.558l1.335-.822-2.917-1.237s7.053-17.4-1.436-31.806a30.238 30.238 0 0 1 -5.6 10.158 16.606 16.606 0 0 1 -4.779 4.088 11.382 11.382 0 0 1 -5.773 1.265 17.389 17.389 0 0 1 -4.219 9.359l-1.682-.709c-.576 3.486-1.068 6.944.455 10 2.068 4.159 7.34 5.894 11.944 5.262z" fill="#f48a4e"/><path d="m355.991 70.941a3.18 3.18 0 0 0 1.514.331l18.09.923-2.731-2.084s7.316-12.185-2.235-15.536c-.547 4.474-4.58 8.461-9.152 8.574-2.323.058-4.57-.734-6.847-1.2a.731.731 0 0 0 -1.027.88 18.379 18.379 0 0 0 .935 5.475 11.669 11.669 0 0 0 1.437 1.8s-.29-.06-.8-.147a2.314 2.314 0 0 0 .816.984z" fill="#f48a4e"/><path d="m383.826 154.173s-33.379-13.586-33.138-14.1a38.959 38.959 0 0 1 27.782-14.227c13.964-7.546 15.71-19.15 11.286-32.805-.152 6.808-4.2 12.6-8.132 18.155-11.319 15.993-32.668 9.8-44.492 27.385-4.412 6.56-5.346 14.97-3.766 22.716 3.828 18.773-8.949 14.3-11.5 10.488-3.324-4.961-3.232-11.469-2.053-17.323a54.93 54.93 0 0 1 7.414-18.481 43.568 43.568 0 0 0 3.85-6.79l-3.731 2.1-46.568-19.754c-.855 4.958 2.243 10.908 7.012 13.378 3.151 1.633 6.788 2.247 9.787 4.145s5.225 5.916 3.442 8.986c-2.5 5.671-10.975 5.1-16.261 1.87s-16.1-8.856-16.1-8.856-10.418 12.27-24.258 1.64c-4.143-3.184-5.077-10.186-10.131-11.512-1.985-.52-4.069.061-6.116.2a14.543 14.543 0 0 1 -14.836-12.138c-3.567.97-4.739 5.573-4.108 9.215s2.4 7.132 2.2 10.823a12.085 12.085 0 0 1 -5.861 9.24 32.3 32.3 0 0 0 4.094 2.367l131.274 64.405s42.951 25.681 60.356-4.481-17.446-46.646-17.446-46.646z" fill="#f48a4e"/><g fill="#fff"><path d="m333.646 91.935c3.673-.612 7.539-1.23 11.244-1.643a22.478 22.478 0 0 0 1.956-9.265 21.538 21.538 0 0 0 -4.287-13.142c-8.462.743-18.344 4.136-21.384 15.389 0 0-1.701 11.026 12.471 8.661z"/><path d="m268.282 69.473a37.724 37.724 0 0 1 -2.623-23.754q-.381-.316-.781-.619c-4.225 1.842-19.562 10.23-13.424 32.735 7.018-.783 13.071-3.918 16.828-8.362z"/><path d="m191.213 107.734c14.208 3.072 30.308 2.008 34.3-17.248l-8.737-3.681s-21.621-.217-25.563 20.929z"/></g><path d="m458.233 261.721c-1.354-4.63-7.1-22.292-28.525-23.466-3.989-.219-7.986-.252-11.98-.377l-5.153-3.919c.3 12.874-15.114 21.908-15.186 34.785-.024 4.241 1.671 8.273 3.214 12.223 8.809 22.56 13.476 47.233 9.663 71.15-1.172 7.351-3.139 14.7-2.586 22.12a33.318 33.318 0 0 0 12.3 23.277c3.569 2.843 8.006 5.306 9.347 9.667 6.054-1.128 10.154-6.8 15.73-9.41 4.576-2.143 10.037-2.169 14.275-4.92 4.268-2.773 23.293-47.751-1.099-131.13z" fill="#c96157"/><path d="m464.808 474.765.864-4.789c-4.179-9.41-16.612-15.7-16.612-15.7s-33.66-8.613-46.358-17.248-27.4-6.368-27.4-6.368c-6.666 2.765-8.7 7.415-8.513 12.308a16.3 16.3 0 0 0 3.117 4.018c12.189 19.195 79.152 33.429 79.152 33.429z" fill="#c96157"/><path d="m287.936 248.7a33.758 33.758 0 0 1 .794-10.621c-4.978-.124-10.2-.12-14.851 1.34a58.856 58.856 0 0 1 .287 6.094 52.7 52.7 0 0 0 4.473 21.758 23.7 23.7 0 0 0 14.634-2.931 31.584 31.584 0 0 1 -5.337-15.64z" fill="#fff"/><path d="m177.659 108.3a10.607 10.607 0 0 0 -9.294-3.194 10.6 10.6 0 0 0 -12.883 16.085l-.221.3c2.22 5.206 9.26 11.48 17.835 8.114a12.848 12.848 0 0 0 8.075-9.292 13.544 13.544 0 0 0 -3.512-12.013z" fill="#c96157"/><circle cx="163.887" cy="114.942" fill="#ffda76" r="8.298"/></g><g id="Layer_5" fill="#3a3245" data-name="Layer 5"><path d="m457.038 215.146c-15.522-22.864-35.928-41.47-59.044-56-11.332-10.4-27.246-14.3-41.006-20.618 10.211-6.686 24.7-5.6 33.628-14.588 8.42-8.568 8.076-23.54 2.839-34.974 2-16.593 17.7-19.409 14.422-26.28-5.066-8.695-20.41-1.877-26.735 2.752 3.778-21.8-38.006-20.979-30.452 1.163-16.083.234-34.928 4.948-32.325 21.67.478 3.836 2.242 7.244 6.688 8.831 7.906 3.763 34.911-9.091 34.079 5.318-1.247 11.625-22.076 14.374-30.5 24.931-4.312-1.848-8.739-3.463-13.09-5.231.3-5.837-1.434-12.975-5.976-16.711-2.5-1.836-6.139 1.282-4.483 4.178 1.431 2.623 1.281 5.946.534 8.605l-28.194-11.162c15.049-29.671-19.515-36.941-6.6-61.8 1.353-3.02-1.435-6.187-4.582-4.582a38.309 38.309 0 0 0 -16.041 15.112c-11.6 18.543 9.838 30.972 1.281 41.045-62.28-24.8-124.707-49.283-187.066-73.9-4.2-1.653-8.384-3.413-12.636-4.934-9.931-3.551-17.51 7.737-20.652 16.383-7.454-2.374-12.834 5.2-14.976 11.521-5.632 12.482-7.69 27.125-4.051 40.455 1.631 6.732 6.24 12.031 12.994 13.8l20.376 8.27q53.738 21.8 107.474 43.61a171.416 171.416 0 0 1 34.472 18.863 177.149 177.149 0 0 0 43.462 22.1c44.806 20.291 35.044 31.132 44.838 71.889a57.653 57.653 0 0 0 21.173 27.093c4.186 4.2 7.9 8.413 10.268 14.12 2.543 6.135 3.7 12.7 7.031 18.523 6.568 12.2 22.2 18.468 34.636 11.137 2.3-1.328 2.13-5.6-.8-6.089-9.062-1.17-14.129-8.268-14.57-16.719-.045-3.7 1.132-6.843.692-10.213a63.483 63.483 0 0 0 29.647-8.812c10.669 19.093 12.817 42.194 7.33 63.142-2.916 11.311-1.951 21.949.988 32.943 3.97 22.29-14.689 30.533-12.758 46.364 2.2 19.543 43.587 31.434 60.117 38.132 11.164 2.9 31.25 11.951 41.615 6.5 6.712-3.815 9.252-12.382 11.681-19.462 3.525-7.239 2.05-13.8-2.28-20.22-1.2-2.965-.63-5.532.376-8.358 25.206-69.938 29.344-154.006-13.824-217.797zm-61.938-49.255c21.2 27.579-11.7 58.844-40.011 40.653a26.942 26.942 0 0 0 9.944-3.405c24.162 10.568 37.963-20.782 27.627-39.58a11.336 11.336 0 0 1 2.44 2.332zm-178.442-75.8 3.3 1.31c-14.932 3.7-21.367 20.428-14.112 33.568 3.679 6.88 12.986 11.068 19.476 14.674 29.67 16.356 61.2 29.247 92.392 42.367a44.973 44.973 0 0 0 5.644 9.669q-54.314-25.191-108.708-50.2c-5.709-2.621-10.6-4.576-15.11-9.3-14.306-14.979-2.975-40.767 17.113-42.085zm85.092 33.724c-6.966 5.356-16.395-.839-19.346-7.664zm-53.35 8.341c-3.463-3-7.161-10.494-2.244-12.949 5.887 6.312 14.914 4.776 21.98 1.437 12.229-4.452 14.124 15.563 31.091 15.083-8.651 4.271-20.782 3.3-25.487-5.449a3.329 3.329 0 0 0 -4.5-1.18c-6.098 3.695-14.291 6.492-20.84 3.061zm-16.553 4c-6.3-4.293-12.549-7.837-14.99-15.5-1.117-13.656 10.794-24.47 23.509-15.892-14.976 23.293 5.61 44.471 29.439 31.541 6.894 10.529 20.055 7.374 17.9 16.11-3.456 11.348-21.746-.562-27.517-2.414-9.569-4.422-18.957-9.027-28.346-13.842zm139.869 16.083c10.535 9.88 18.085 25.33 5.687 37.138 8.277-17.4-8.68-33.859-26.035-27.278-6.12-4.6-5.8-13.934-.378-18.772 7.056 2.828 13.955 5.726 20.721 8.915zm1.076-92.189c1.107 8.031-9.93 9.2-14.6 5.048-7.626-8.046 13.49-13.134 14.595-5.045zm-34.133 15.32c17.3-4.255 43.565-1.379 47.833 18.967.822 6.73.58 13.634-2.636 19.42-4.988 8.974-17.741 11.311-26.46 15.076-8.953 3.867-17.196 10.357-20.196 19.979-1.863 5.971-1.348 16.481 4.1 20.952-4.068 3.536 1.426 8.806 4.872 4.651 5.54-7.954 18.6-10.125 24.71-1.348 5.113 7.343-1.395 19.472-7.757 23.962-16.515 10.26-37.034-5.193-40.947-22.057a41.465 41.465 0 0 1 19.39-48.5c11.323-6.778 30.418-7.6 31.715-24.077 1.145-15.331-17.283-19.495-29.183-16.146-3.032.733-9.415 3.452-14.108 3.325-10.772-6.643 1.565-13.18 8.667-14.204zm-14.709 57.243a48.462 48.462 0 0 0 -9.834 35.546c-18.313-6.9-18.184-14.054-7.944-28.93a21.409 21.409 0 0 0 7.985-10.5zm-62.5-80.5c-3.042 11.313 5.653 21.119 10.393 30.651 9.465 19.352-12.972 37.557-14.421 22.332 17.733-18.491-19.106-30.547 4.029-52.983zm-212.259-28.592q78.572 31.49 157.356 62.565a29.149 29.149 0 0 0 -15.071 12.276c-50.576-23.262-103.244-41.754-154.998-62.187 2.138-5.259 7.268-14.063 12.713-12.654zm266.98 288.424a71.929 71.929 0 0 0 -5.285-12.778q2.35.846 4.773 1.5c10.056 7.991 8.649 23.7 19.582 30.88-10.379.486-16.591-10.686-19.07-19.602zm51.741-24.827c-1.015-1.408-3.234-2.539-4.876-1.279-28.91 22.2-76.665 5.687-82.959-30.937-3.322-18.007-2.714-38.485-18.39-51.117a381.6 381.6 0 0 1 39.487 17.766c-26.788 8.3-15.917 51.766 5.527 60.612 20.1 11.7 51.567 6.607 50.265-21.405 28.409 27.281 35.589 61.623 28.58 99.609-7.445-9.339-1.773-29.435-5.294-41.752-1.925-10.866-5.812-22.439-12.34-31.497zm-44.334-52.693c10.129 15.924-17.185 22.583-8.252 32.826 5.455 6.7 5.018-9.55 17.7-12.136a19.8 19.8 0 0 1 17.108 3.566c3.624 31.337-40.806 27.142-52.518 7.039-9.131-14.534-9.035-41.831 14.729-38.055q5.665 3.235 11.233 6.76zm108.584 236.9c-20.345-6.243-40.791-13.894-58.875-25.2-1.677-4.635-1.654-8.863 3.572-11.072 10.017-3.916 31.533 8.753 42.43 11.928 9.011 4.234 53.223 15 34.269 29.216-7.351-.467-14.315-3.161-21.396-4.875zm43.917-80.91q-3.353 15.348-8.187 30.323c-1.862 6.776-6.177 13.611-4.5 20.783a77.781 77.781 0 0 0 -24.826-11.421c-3.1-.741-5.447 3.948-2.276 5.4 7.337 3.354 14.674 6.2 21.549 10.515 8.194 4.154 10.809 9.2 7.017 17.92-7.753-14.381-29.556-17.866-43.551-24.262-15.565-4.31-44.316-24.036-55-3.742-1.092-6.757 3.6-12.331 8.035-16.894 6.2-3.564 12.347 1.676 18.291-1.477 6-6.006-9.376-7.445-12.821-7.035 11.274-35.054 20.781-74.063 10.254-110.4-24.384-64.308-95.969-92.607-156.38-113.369-27.81-12.387-47.868-36.942-76.76-47.685-41.486-18.6-83.406-36.4-126.507-50.887-6.392-2.184-11.862-7.084-13.224-13.884-.933-6.907 4.4-36.845 13.936-32.887 52.616 20.366 105.98 39.418 157.258 63.035-6.588 15.144 1.106 33.281 15.879 40.16 16.1 7.874 32.555 15.081 48.825 22.588q48.6 22.441 97.25 44.782c12.4 7.194 27.965 10.185 40.506 2.35 1.576 13.265 19.573 10.059 21.947-.955 1.478-6.069-2.985-12.218-8.633-12.419a34.767 34.767 0 0 0 2.54-27.9c69.416 47.474 88.564 139.146 69.378 217.358z"/><path d="m46.683 64.246c-3.115-3.174-8 1.737-4.837 4.838 3.115 3.173 7.998-1.738 4.837-4.838z"/><path d="m161.716 101.951c-10.786 1.487-14.907 16.237-5.943 23.1 7.459 5.464 18.425 1.962 20.6-7.184a12.95 12.95 0 0 0 -14.657-15.916zm8.235 14.17c-.895 5.271-7.75 6.67-11.186 2.912-5.221-11.084 12.157-14.933 11.186-2.912z"/><path d="m454.475 248.176c-2.417-5.976-8.068-10.5-14.009-12.72-8.8-3.282-19.253.635-27.443-4.2-2.708-1.6-5.426 1.03-4.935 3.794 2.573 13.653-16.751 19.084-16.792 31.949a35.1 35.1 0 0 0 .226 4.933c4.478 13.259 9.985 25.553 11.779 39.595 1.8 14.1 1.155 28.5-.809 42.547-3.359 16.932-4.143 35.342 13.177 44.877 4.439 2.748 10.282 5.1 11.687 10.622.824 3.238 4.766 3.138 6.489.848 8.148-8.971 19.131-6.243 27.064-13.724 6.747-7.03 7.949-17.436 9.436-26.632 6.304-40.682 5.876-85.633-15.87-121.889zm-18.455 16.305q-3.334-2.328-6.768-4.5c5.344-4.454 11.342-8.129 16.879-12.282 3.827 3.8 5.876 9.149 8.1 13.962a447.73 447.73 0 0 0 -38.84 29.862q-3.584-1.7-7.208-3.286c-.8-2.039-1.639-4.072-2.432-6.121 5.953-5.956 11.6-12.26 18.091-17.68 3 1.8 5.951 3.692 8.863 5.714 3.482 2.414 6.756-3.267 3.315-5.669zm24.718 15.491c-3.842-2.36-7.722-4.706-11.678-6.844q3.8-2.738 7.648-5.406c1.535 4.028 2.866 8.116 4.03 12.25zm-25.6 52.072c-.38.221-.751.455-1.129.678-5.2-3.073-10.361-5.953-15.553-9.085 6.147-4.475 12.066-9.416 18.284-13.644 6.871 3.52 13.734 6.769 20.486 10.567q-11.297 5.225-22.087 11.484zm8.317-54.822c5.573 3.839 11.563 7.229 17.423 10.632q-12.2 6.724-23.84 14.389c-5.123-2.506-10.228-5.117-15.372-7.668 7.081-6.009 14.334-11.818 21.79-17.353zm-13.193 29.546c-4.9 3.3-10.07 6.762-14.8 10.58a130.427 130.427 0 0 0 -2.817-14.864c1.051-.882 2.067-1.819 3.076-2.752 4.838 2.373 9.715 4.679 14.542 7.036zm-13.751 23.9c3.635 2.016 7.146 4.16 10.728 6.253-3.794 2.461-7.528 5.014-11.283 7.527a120.178 120.178 0 0 0 .556-13.78zm36.966-20.308q-4.926-2.463-9.869-4.89 9.935-6.37 20.292-12.042a177.659 177.659 0 0 1 2.729 23.007c-.138.057-.275.116-.414.173-3.9-2.558-8.795-4.276-12.737-6.248zm-35.477-48.743a163.414 163.414 0 0 0 -14.434 13.944c-1.818-6.718-.766-14.472 3.286-20.091 3.935 1.821 7.775 3.748 11.531 5.815-.13.115-.26.22-.383.332zm-5.054 104.41c.334-2.071.668-4.13.99-6.182a73.034 73.034 0 0 1 9.861 6.446c-3.934 1.932-7.864 3.964-11.6 6.2a63.194 63.194 0 0 1 .745-6.464zm17.77-3.071a127.028 127.028 0 0 0 -15.659-10.693c.006-.047.013-.094.019-.141 5.931-4.212 11.952-7.916 18.155-11.643 6.792 4.038 13.506 8.205 20.227 12.357-7.751 2.989-15.276 6.482-22.746 10.12zm9.558-26.548a268.982 268.982 0 0 1 24.988-12.375c.549.146 1.1.263 1.659.358a235.942 235.942 0 0 1 -.868 24.015c-1.3.372-2.583.832-3.87 1.255-7.237-4.53-14.567-8.912-21.913-13.253zm1.225-92.622a210.566 210.566 0 0 0 -17.71 12.923 110.242 110.242 0 0 0 -13.094-6.425 27.347 27.347 0 0 0 4.719-10.855c8.099 2.117 18.886-.74 26.086 4.357zm18.353 141.664c-3.055-2.382-20.774-20.153-21.493-10.14.851 3.807 5.841 5.9 8.718 8.18 3.154 2.5 6.171 5.153 9.094 7.913-2.933 3.371-6.924 3.494-10.955 4.668a39.688 39.688 0 0 0 -13.308 6.576c-6.56-7.77-17.342-10.737-19.3-22.595 15.817-8.088 31.091-17.127 47.974-22.827 1.416.839 2.783 1.78 4.229 2.557-1.395 8.336-1.68 17.318-4.959 25.668z"/></g></svg>