<svg height="512" viewBox="0 0 500 500" width="512" xmlns="http://www.w3.org/2000/svg"><g id="Layer_4" data-name="Layer 4"><path d="m60.122 241.045s60.846 37.667 186.6 49.992 179.723 3.863 179.723 3.863l-15.545-100.578-52.436-57.659s-40.334-22.382-70.264-9.513-76.128 1.629-76.128 1.629-44.028 19.309-73.436 44.9c0 0-48.213 56.586-115.091 42.21l-7.735 13.241s27.499 14.78 44.312 11.915z" fill="#a1d0ff"/><path d="m410.9 194.322-52.436-57.659s-36.635-20.328-65.987-11.1a103.5 103.5 0 0 0 33.093 44.037 38.481 38.481 0 0 0 -8.462 7.035 202.941 202.941 0 0 0 -41.122-25.444c-24.611-11.418-52.219-17.766-79.049-15.131-15.468 7.88-39.785 21.5-58.306 37.621a140.263 140.263 0 0 1 -25.187 21.8q-1.052 2.813-1.884 5.72l17.277.46a251.535 251.535 0 0 1 40.636-22.544c17.954-7.889 37.067-13.708 56.662-14.5s40.27 3.031 55.815 14.985c28.653 22.035 27.741 45.014 25.063 54.742-4.769 17.317-25.124 25.49-43.085 25.665s-35.829-5.033-53.7-3.217c-18.712 1.9-35.4 11.209-52.407 19.688a665.78 665.78 0 0 0 88.9 14.563c125.754 12.325 179.723 3.866 179.723 3.866z" fill="#668dd3"/><path d="m15.806 229.132s23.147 18.178 56.215 6.131 70.86-40.559 86.721-56.294c0 0 68.967-66.989 160.14 9.652l89.683 78.2-15.549-41.631-76.116-63.066s-43.917-45.292-112.862-25.461c0 0-51.795 21.639-75.935 43.165 0 0-46.525 47.237-104.566 36.063z" fill="#ffda76"/><path d="m393.016 225.19-76.116-63.066a94.826 94.826 0 0 0 -16.677-12.757q-2.035 1.071-4.058 2.153a21.466 21.466 0 0 1 17 32.481c1.9 1.486 3.8 3.01 5.713 4.62l89.683 78.2z" fill="#f48a4e"/><path d="m214.588 194.169 12.923 16.278-17.241 10.92 10.856 16.404 21.119-10.825 13.51 13.251 14.397-10.112-12.304-15.343 17.086-12.553-9.922-14.766-19.954 11.807-16.152-15.87z" fill="#fff"/><path d="m148.542 192.68c3.971-3.376 7.427-6.523 10.2-9.274 0 0 15.676-15.211 41.946-22.842a49.709 49.709 0 0 0 3.136-17.419c0-.648-.024-1.29-.049-1.932-3.965 1.675-52.523 22.414-75.668 43.052 0 0-.315.32-.915.891a49.517 49.517 0 0 0 21.35 7.524z" fill="#fff"/><path d="m175.816 66.137-21.078 3.543 5.706-17.071c-28.795-22.686-70.595-42.08-130.239-44.641 0 0 49.129 108.43 188.429 123.423 0 0-10.173-33.236-42.818-65.254z" fill="#ff8585"/><path d="m127.1 31.513a60.845 60.845 0 0 1 12.865 37.071 60.746 60.746 0 0 1 -12.23 35.8c24.716 12.94 54.768 23.123 90.9 27.012 0 0-10.173-33.236-42.818-65.254l-21.079 3.538 5.706-17.071a193.335 193.335 0 0 0 -33.344-21.096z" fill="#ce4d4d"/><path d="m458.449 444.983-22.157-42.655a20.86 20.86 0 0 1 -2.619-6.975c-.3-2.52.323-5.044.654-7.561a44.412 44.412 0 0 0 -1.743-17.841c-7.5-26.337-30.525-45.994-55.872-56.362s-53.114-12.851-80.4-15.221l-83.412-7.245-14.88.363c-6.365 21.8-11 44.421-9.762 67.1s8.808 45.573 24.287 62.193c15.943 17.118 39.2 26.33 62.514 28.187 21.735 1.732 44.876-2.224 64.454 7.373 11.887 5.826 20.947 16.009 29.873 25.785 1.908 2.091 3.951 4.256 6.647 5.118 3.263 1.044 6.786-.028 10.036-1.112q33.8-11.274 66.735-24.947c3.076-1.277 6.441-2.86 7.672-5.955 1.324-3.344-.369-7.053-2.027-10.245z" fill="#f2fbff"/><path d="m458.449 444.983-22.157-42.655a20.86 20.86 0 0 1 -2.619-6.975c-.3-2.52.323-5.044.654-7.561a44.412 44.412 0 0 0 -1.743-17.841c-7.5-26.337-30.525-45.994-55.872-56.362s-53.114-12.851-80.4-15.221l-83.412-7.245-14.88.363a281.9 281.9 0 0 0 -7.251 30.4l1.306-2.168a37.382 37.382 0 0 1 49.45 47.851c8.9-11.04 7.119-28.535 17.377-38.323 9-8.587 23.19-7.528 35.522-5.906 9.181 1.208 19.139 2.8 25.46 9.565 4.066 4.35 6.915 10.934 12.807 11.793 7.036 1.025 12.319-7.1 19.384-7.894 3.372-.381 6.671.973 9.8 2.3l20.619 8.755c9.711 4.123 19.975 8.693 25.811 17.482s4.558 23.081-5.127 27.265c-1.849.8-3.936 1.223-5.417 2.588-4.544 4.191 1.011 11.879 7 13.406s12.947.634 17.749 4.526c5.7 4.619 5.094 14.015.7 19.89s-11.39 9.091-18.091 12.072l-15.5 6.9a28.084 28.084 0 0 1 -7.756 2.58c-2.018.255-4.068.069-6.093.259-9.134.857-20.125 8.487-25.884 1.346-5.549-6.882 3.468-16.245 3.976-25.071.117-2.035-.649-4.533-2.651-4.921a5.157 5.157 0 0 0 -3.206.824c-12.414 6.338-25.352 13.212-34.978 22.969 9.219.661 18.177 2.288 26.491 6.364 9.5 4.654 17.188 12.091 24.449 19.878a10.7 10.7 0 0 1 4.584-6.065c2.453-1.5 6.025-1.745 7.91.423a8.761 8.761 0 0 1 1.609 4.335l1.9 10.712c.115.645.238 1.3.411 1.943a28.98 28.98 0 0 0 5.691-1.435q3.822-1.275 7.631-2.583c-1.487-2.363-3.479-4.392-5.084-6.688-1.808-2.583-3.146-5.809-2.332-8.855s4.574-5.325 7.274-3.7a7.357 7.357 0 0 1 2.6 3.455 37.467 37.467 0 0 1 3.259 13.254c.01.176.019.357.028.536q5.268-1.841 10.515-3.736l-3.807-9c-1.014-2.4-2.05-4.927-1.8-7.52s2.277-5.214 4.882-5.166a5.489 5.489 0 0 1 4.158 2.521 15.6 15.6 0 0 1 2.259 6.71c.522 3.31.821 6.649 1.023 10q18.2-6.736 36.128-14.171c3.076-1.277 6.441-2.86 7.672-5.955 1.322-3.347-.371-7.056-2.029-10.248z" fill="#aab7e3"/><path d="m15.806 451v16.942s28.083 6.592 56.215 3.9 31.309-9.785 31.309-9.785v-18.723l16.454-3.248-2.644 23.714s21.282 13.431 68.4 8.041c0 0 22.333.052 21.255-23.552v-8.632l-59.441-8.206 7.841-9.146-3.3-20.243s-13.247-5.446-36.8 0c0 0-56.041 9.444-46.871 33.548.002 0-52.418-1.549-52.418 15.39z" fill="#ffda76"/><path d="m185.545 471.841s22.333.052 21.255-23.552v-8.632l-59.441-8.206 7.841-9.146-3.3-20.243s-8.417-3.452-23.75-2.1a22.49 22.49 0 0 1 3.159 2c4.379 3.349 7.611 9.371 5.23 14.343-3.753 7.838-16.333 5.458-22.621 11.456-2.022 1.929-3.193 4.567-4.9 6.782-5.462 7.1-15.287 8.814-24.168 10-3.169.424-6.613.8-9.367-.826-3.2-1.885-4.56-5.949-7.332-8.322.026.07.045.139.072.209 0 0-3.664-.108-9.054.046a6.668 6.668 0 0 0 -2.592 6.293c1.174 6.045 9.255 8.1 11.961 13.632 2.637 5.39-.737 11.689-4.223 16.574-.05.069-.1.141-.15.211 2.6-.1 5.227-.273 7.853-.525 28.133-2.7 31.309-9.785 31.309-9.785v-18.716l16.454-3.248-2.642 23.714s21.283 13.431 68.406 8.041z" fill="#f48a4e"/><g fill="#fff"><path d="m110.679 402.94c-11.419 2.482-41.179 10.385-43.334 25.683l.881 1.15s39.689 11.232 42.453-26.833z"/><path d="m15.806 451v3.207c10.585 4.3 30.463 8.583 33.453-18.02-15.007 1.223-33.453 4.766-33.453 14.813z"/></g></g><g id="Layer_5" fill="#3a3245" data-name="Layer 5"><path d="m462.614 119.285c-1.679-3.594-6.547-1.4-6.82 1.847a123.176 123.176 0 0 1 -3.241 18.65c-4.316 22.3-18.082 49.135-44.98 38-7.029-3.3-11.413-9.943-16.579-15.462-44.024-48.733-111.166-68.565-173.613-46.066-8.688-16.776-20.822-31.962-33.827-45.417-7.523-10.008-12.674-5.046-22.993-3.671.683-3.862 6.046-11.69 2.954-14.676-33.715-27.162-95.615-54.604-138.624-47.882 8.131 38.633 63.958 79.043 97.17 98.934-36.5.263-73.792 4.267-108.85 14.754a3.4 3.4 0 0 0 .485 6.61c15.267 8.473 32.433 14.115 49.439 17.856 7.587 1.652 16.843 4.206 24.688 3.766 3.883-.217 6.873-3.342 9.391-6.828 1.414 7.821 6.751 11.05 13.913 12.161a169.214 169.214 0 0 0 42.685 5.823c-36.435 25.29-73.724 62.418-121.748 56.694-3.772-.533-8.418-2.442-11.807.181-3.257 2.972-6.274 8.661-7.257 12.869a3.145 3.145 0 0 0 1.306 4.475c53.362 28.448 113.656 41.834 172.656 52.815-14.576 41.869-13.967 92.53 9.675 130.982a152.594 152.594 0 0 0 -20.609.581 2.658 2.658 0 0 0 0 5.313 142.433 142.433 0 0 0 24.939.293c1.185 1.565 2.423 3.09 3.7 4.584-16.961-.2-33.877.085-50.788.743 2.045-2.195 6.182-4.515 5.643-7.823-.527-4.861-1.06-10.728-3-15.443-.851-5.348-8.543-8.232-13.765-8.469-17.912.711-86.234 11.111-76.96 37.96-13.139-.5-51.31-.147-54.005 16.276-.877 4.328-.146 9.324.758 13.6-1.6 15.6 35.806 12.77 46.189 13.246 14.722-.357 33.87-.83 45.969-10.452a2.625 2.625 0 0 0 1.077-2.724c.766-5.53 1.789-12.219.312-17.573q4.331-.95 8.616-2.082c-1.588 4.846-1.388 10.4-.608 15.507-1 10.59 10.908 12.866 19.184 14.033 17.726 2.666 35.905 3.3 53.686.809 6.982-1.04 14.589-2.667 20.382-6.946 3.553-4.724 2.244-12.407 3.226-18.072a7.232 7.232 0 0 0 4.109-.4c6.171.022 12.21.417 18.428.272a69.29 69.29 0 0 0 9.431 3.885c-5.78.124-11.55.342-17.3.742a2.478 2.478 0 0 0 0 4.953c30.215 1.784 60.618.323 90.873.762a30.886 30.886 0 0 1 18.342 4.678c-12.214.333-24.293.229-36.481.316-3.035.25-29.136-1.634-20.334 5.289 22.074 2.074 44.32.387 66.532 1.307a72.893 72.893 0 0 1 6.291 6.118c-12.815.481-26.248-1.319-38.91.852-2.362.466-2.364 4.312 0 4.777 14.439 2.254 29.607.275 44.2.862a31.7 31.7 0 0 0 6.484 6.682 88.876 88.876 0 0 0 -15.475.788c-2.3.349-2.3 4.292 0 4.641 7.365 1.118 15.142.94 22.635.458 6.765 1.139 19.88-4.344 23.785-10.084 5.483-.553 12.586-2.053 15.735-6.673 6.042 2.428 14.622-1.441 17.476-7.387 7.011 2.741 18.293.167 19.789-7.52a14.175 14.175 0 0 0 16.858-4.575c5.3-8.135-1.465-18.767-6.516-25.465a105.075 105.075 0 0 0 -13.207-28.133c-2.989-4.34-3.726-9.964-5.137-15.03 7.372-8.459 3.829-21.662-1.013-30.436-3.047-5.553-8.04-10.029-10.213-16.054-4.518-14.134 3.227-29.515-.768-43.624q9.3-.635 18.562-1.577c3.724-.385 8.108-.095 11.305-2.212 10.427-7.58 18.175-18.591 23.5-30.226 21.127-47.966 3.873-102.813-16.95-147.762zm-285.765 346.12c-.085-1.328-.087-2.726-.3-4.063q4.527-.34 9-.978a34.519 34.519 0 0 0 -.243 7.605c-2.756.37-5.548.589-8.3.718a29.087 29.087 0 0 0 -.157-3.282zm-20.679 3.3c-2.905-.113-5.807-.272-8.7-.508.015-2.406.012-4.836-.107-7.236q4.516.4 9.081.615c-.174 2.294-.304 4.79-.274 7.13zm-22.895-7.18c-.029-.708-.025-1.409-.055-2.1 2.883.385 5.65.639 8.279.94-.194 2.377-.182 4.837-.336 7.232-1.822-.17-4.6-.395-7.523-.812-.04-1.748-.291-3.508-.365-5.259zm10.257-7.682c-16.109-.924-37.227-7.325-8.1-14.525-1.526 9.538 21.04 10.413 27.527 10.095 2.688-.232 3.8-4.6.692-5.11-4.719-.772-9.5-1.325-14.167-2.375-1.71-.546-10.561-1.041-5.4-3.921 14.586-1.44 29.321-.166 43.788 2.126-2.409 3.286-8.838 2.863-11.951 4.9-6.389 8.587 16.8 4.309 18.628-3.765 3.095.276 9.219 2.43 9.49 5.668-2.612 4.747-16.726 6.374-22.011 7.11a183.632 183.632 0 0 1 -38.496-.202zm-69.288 11.957c-.148-1.232-.258-2.441-.517-3.621 2.916-.326 5.764-.7 8.661-1.2a34.883 34.883 0 0 0 .123 6.631c-2.628.489-5.273.877-7.93 1.181-.034-.949-.208-1.916-.337-2.991zm13.934-1.712c-.186-1.379-.3-2.769-.458-4.152a49.177 49.177 0 0 0 12.53-4.359c-.143 2-.334 4-.509 6.006-3.189 2.423-7.227 3.791-11.225 4.763-.09-.712-.229-1.446-.338-2.256zm-12.652-23.788c-.375-1.275-.6-2.608-.928-3.9a30.063 30.063 0 0 0 6.387.177 49.186 49.186 0 0 0 1.839 6.241c-3.54.059-6.501-.527-7.298-2.518zm13.774 1.9c-.754-2.135-1.755-4.154-2.366-6.347 2.8-.463 5.292-.947 7.859-1.39.509 2.134 1.159 4.267 1.675 6.407-1.715.341-4.342.897-7.168 1.33zm13.385-2.543c-.64-2.13-1.314-4.179-2.027-6.3q4.267-.863 8.524-1.9a46.442 46.442 0 0 0 1.618 6.322c-2.7.671-5.4 1.311-8.12 1.878zm12.417-9.765q3.87-1.089 7.682-2.357c.532 2.146 1.068 4.275 1.692 6.388-2.513.754-4.788 1.445-7.211 2.115a29.831 29.831 0 0 0 -2.165-6.146zm260.38-223.853c-8.782-6.944-16.309-15.4-24.406-23.088-15.121-14.365-38.285-26.109-41.064-48.416 16.851-1.8 35.732 1.627 48.92 12.64 19.14 19.215 30.975 44.29 37.777 70.319-7.873-2.119-14.632-6.835-21.232-11.455zm-226.219 209.229c.5 2.035.839 4.1 1.216 6.151a39.384 39.384 0 0 1 -6.922 4.892c-.887-2.033-1.7-4.237-2.468-6.349a65.193 65.193 0 0 0 8.174-4.694zm-13.086 7.037a32.7 32.7 0 0 0 1.874 6.767c-2.445 1.077-4.962 2.03-7.469 2.891-.695-2.072-1.582-4.3-2.475-6.321q4.093-1.542 8.07-3.337zm54.988 41.968c-.113-1.594-.14-3.2-.243-4.8a69.631 69.631 0 0 0 9.407-2.307c-.121 2.261-.368 4.512-.475 6.722a39.812 39.812 0 0 1 -8.476 2.96c-.036-.818-.147-1.656-.213-2.575zm190.535 6.927c.03.016.085.051.153.1 2.965 6.794 3.88 12.807-5.525 13.664-1.942.158-1.382.193-2.245-1.753a92.329 92.329 0 0 1 -3.872-10.385c3.034-3.093 7.62-4.154 11.489-1.626zm-322.947-425.666c-10.078-10.843-18.1-22.661-25.337-35.369 44.426 1.442 87.755 19.793 123.1 46.155q-2.689 7.4-5.346 14.808c-1.039 2.915 2.048 5.142 4.633 4.633q9.237-1.816 18.475-3.633a184.289 184.289 0 0 1 35.435 45.918c-21.893-15.7-45.995-28.226-68.458-43.123-28.371-17.253-54.937-37.484-82.985-55.169-2.8-1.621-6.169 2.4-3.56 4.614 12.267 10.432 26.503 19.032 39.844 28.018q40.557 27.3 82.406 52.606c12.1 7.311 24.665 14.179 35.108 23.787-41.012-3.849-77.934-25.134-111.579-47.713a62.01 62.01 0 0 1 6.909-9.961c2.689-3.126-1.941-7.686-4.519-4.519a52.966 52.966 0 0 0 -7.194 11.084q-5.259-3.788-10.341-7.8c2.024-2.076 4.14-4.014 5.249-6.728.892-2.237-2.039-4.041-3.879-2.982-2.482 1.544-3.921 3.877-5.758 6.168a229.665 229.665 0 0 1 -22.203-20.794zm-36.671 177.966c2.957-5.8 11.922-.895 17.1-1.356 89.367 1.632 132.454-115.992 232.335-77.879 34.772 12.431 63.626 36.6 90.2 61.572 6.513 6.107 13.133 12.168 19.357 18.572 8.9 8.685 13.058 20.118 19.483 30.465-37.776-31.9-70.195-72.179-115.991-93.18-63.123-30.917-111.66-1.036-159.471 40.521-29.459 22.726-69.651 45.985-105.114 24.669q1.049-1.69 2.101-3.384zm57.918 27.954c-4.524-3.068-6.024-9.462-2.456-13.818 69.656-24.956 105.756-107.21 191.825-74.636 58.03 21.613 95.5 74.283 143.16 111.158 2.162 3.885 4.025 8.126 3.662 12.539-1.429 11.733-15.068 7.042-23.119 8.206-105.572.16-211.963-12.213-313.072-43.449zm-7.165 172.885a41.99 41.99 0 0 1 10.283-7.431c1.49 9.059 22.766 3.688 28.728 1.581 2.462-.971 2.479-5.5-.691-5.11-6.335.582-12.949 2.335-19.28 1.89-2.64.9-1.836-.9-.743-2.069 13.258-5.275 27.354-8.16 41.489-10.053-2.328 4.127-7.608 4.392-10.139 7.972a2.406 2.406 0 0 0 1.42 3.489c5.884 1.054 14.861-6.361 15.426-12.283 2.93-.568 8.922-.395 10.24 2.346-.672 4.963-14.149 10.593-18.636 12.6-4.594 2.866-66.684 21.529-58.097 7.068zm-52.259 23.23c3.315-2.445 7.718-3.437 11.6-4.58-.584 9.084 21.135 9.011 27.453 8.425a2.6 2.6 0 0 0 0-5.2c-6.1-.842-12.546-.956-18.458-2.73-2.787.288-1.567-1.435-.227-2.263a146.8 146.8 0 0 1 27.5-.886q.12.255.24.5c3.711 13.352 20.769 7.387 30.807 6.3.611 4.76-28.083 8.58-30.673 8.785-4.749.766-60.018 2.419-48.242-8.351zm-1.417 15.883q.033-1.9.069-3.8a33.848 33.848 0 0 0 6.2 1.571 40.081 40.081 0 0 0 .219 6.719c-3.247-.819-5.874-2.179-6.488-4.49zm12.912 5.5c-.251-2.3-.687-4.575-.78-6.9q4 .477 8.018.739c-.054 2.154.065 4.423.05 6.6-1.738-.107-4.425-.177-7.288-.437zm13.609.777c-.111-2.223-.263-4.408-.456-6.634q4.37.169 8.756.164c-.026 2.142-.051 4.425.076 6.613-2.792.008-5.585-.033-8.376-.141zm14.976.033a55.678 55.678 0 0 0 -.534-6.61q4.01-.132 8.009-.44c-.025 2.208 0 4.474.095 6.665-2.526.176-5.045.323-7.57.387zm60.114-9.124c.041-1.457.211-2.923.3-4.382a30.636 30.636 0 0 0 6.33 2.144 43.116 43.116 0 0 0 -.1 7.114c-3.555-1.014-6.344-2.536-6.53-4.874zm41.979 8.22a50.136 50.136 0 0 0 -.207-7.1q4.174.055 8.344-.1c-.144 2.371-.28 4.879-.224 7.2-2.762.019-5.262.042-7.913.002zm238.281 8c-10.514 4.328-9.564 1.618-12.579-7.145a11.086 11.086 0 0 1 10.663-4.794c1.341 3.144 5.654 9.445 1.916 11.939zm19.324-9.109c-.729 4.277-6.622 6.718-10.457 5.247-.464-3.745-2.265-7.626-4-10.964 2.718-2.842 7.879-6.842 10.78-5.273 1.788 3.323 3.995 7.487 3.677 10.99zm18.523-3.955c-2.026 3.066-8.246 2.474-11.739 1.409-.556-4.083-2.522-8.317-4.314-11.8 2.4-3.694 7.4-4.7 11.523-3.291 1.853 3.463 6.569 10.594 4.53 13.682zm14.354-5.446c-2.969.888-5.611-.16-7.932-1.8a60.973 60.973 0 0 0 -4.047-8.789c3.261-4.271 8.3-5.854 13.318-2.936 2.491 4.367 5.593 11.524-1.339 13.525zm-8.8-33.63c1.574 3.6 2.664 7.792 4.393 11.47a16.851 16.851 0 0 0 -9.994 3.875c-2.275-3.374-3.877-7.3-6.725-10.234a2.4 2.4 0 0 0 -3.97 2.311c.923 3.775 3.325 7.066 4.913 10.589a16.752 16.752 0 0 0 -13.458 4.009c-2.215-3.537-3.988-7.213-6.286-10.679-1.968-2.988-6.021-.412-4.681 2.736 1.57 3.726 3.6 7.177 5.289 10.856-3.6.562-7.328 2.788-10.351 5.343a50.081 50.081 0 0 0 -4.9-8.947c-1.369-2-5.306-.791-4.227 1.782a72.25 72.25 0 0 1 3.857 10.207 17.529 17.529 0 0 0 -12.556 4.759 78.665 78.665 0 0 0 -5.336-11.519c-1.4-2.461-5.782-.808-4.712 1.986q1.942 5.073 3.807 10.142a14.93 14.93 0 0 0 -12.089 3.752c-4.723-10.361-14.024-18.441-25.232-20.805-2.3-1.887-2.779-4.191-1.7-6.348 3.186-3.384 7.139-7.43 7.756-8.086 3.837-4.246 9.407-8.3 10.944-13.961.812-2.533-2.062-5.644-4.747-3.886-10.2 6.682-19.433 15.041-29 22.582-10.569 7.008-24.91 6.08-37.189 5.769-23.061-.825-47.038-8.8-61.069-28.131-9.436-20.566 2.85-20.634 14.168-33.935 6.935-9.081 12.292-24.125 7.828-35.383-.842-2.733-5.447-4.548-6.281-.829-1.293 20.431-12.742 35.4-34.746 30.216-6.475-22.671-9.263-47.573 2.506-68.8 14.839.553 23.858 6.237 29.281 20.3 1.035 2.626 5.75 2.634 5.417-.733a38.772 38.772 0 0 0 -6.59-17.569 782.679 782.679 0 0 1 119.182 19.643c-5.991 28.468 26.37 52.959 52.223 39.1 2.9-1.424 5.387-4.138 8.752-2.784 9.3 3.682 12.517 18.372 3.366 23.8-4.291.238-8.553-.529-12.853-.662-5.128-.22-5.117 7.749 0 7.969 3.032.6 6.1 1.866 9.36 2.443 13.354 2.434 20.312 16.457 25.652 27.652z"/><path d="m266.135 186.26c-.959-1.3-2.825-2.209-4.359-1.143q-8.575 5.961-17.3 11.694c-4.536-5.311-9.061-10.633-13.487-16.035a3.188 3.188 0 0 0 -3.875-.5c-19.735 16.547-22.172 9.017-4.282 30.185-22.816 13.711-18.446 7.8-4.437 28.382a3.3 3.3 0 0 0 4.405 1.157q8.609-5.014 17.086-10.241c4.519 4.892 9.05 9.775 13.662 14.578 1.1 1.017 2.39 1.577 3.884.445 19.254-16.412 22.756-9.068 4.075-28.919 22.363-15.298 19.234-8.471 4.628-29.603zm-27.309 36.582q-8.343 5.17-16.809 10.131l-7.429-10.046c22.879-13.569 18.93-8.415 3.688-27.812l9.958-7.692c19.025 21.769 10.192 20.587 34.426 4.794q3.747 5.065 7.492 10.133c-20.086 14.553-22.24 8.48-4 27.765l-9.911 7.656q-6.816-7.149-13.5-14.425a3.264 3.264 0 0 0 -3.915-.504z"/><path d="m396.422 394.522c-3.482-5.481-9.382-15.067-17.269-13.158-11.974 2.313.758 32.277 3.35 39.636q1.809 5.041 3.979 9.965c1.073 2.418 5.038 1.171 4.916-1.331a66.707 66.707 0 0 1 -.034-6.9c.07-1.274-.2-5.588.8-6.414.74-.609 9.884 6.626 11.439 7.71 2.343 1.633 5.681-1.079 4.825-3.709a113.436 113.436 0 0 0 -12.006-25.799z"/><path d="m325.781 331.28c-38.7-21.1-72.025 17.8-57.15 55.691 7.179 23.316 30.719 27.317 51.527 20.453-4.695 4.717-10.881 9.039-17.749 9.261-8.747 1.394-17.932-.141-26.541 1.532-2.154.688-3.037 4.113-.683 5.228 4.385 2.077 9.775 1.742 14.554 1.652a51.136 51.136 0 0 0 13.073-.722c11.5-.828 23-2.685 31.323-11.385 7.033-7.269 10.73-17.077 12.741-26.83 5.624-20.225-1.201-44.46-21.095-54.88z"/><path d="m261.565 415.856c-3.72-3.558-8.783 2.255-4.813 5.494 3.414 3.297 8.248-2.42 4.813-5.494zm-4.388 3.028.014-.108c.024-.175.048-.351.071-.527-.041.213-.058.43-.083.645v-.01c-.012.109-.032.216-.044.325.013-.109.028-.217.042-.325z"/><path d="m257.191 418.777-.014.108c.004-.037.01-.072.014-.108z"/><path d="m259.733 464.805c-3.288 0-3.293 5.109 0 5.109s3.293-5.109 0-5.109z"/></g></svg>