<svg height="512" viewBox="0 0 500 500" width="512" xmlns="http://www.w3.org/2000/svg"><g id="Layer_4" data-name="Layer 4"><path d="m215.407 357.67c-1.692-1.509-25.667-30.195-13.459-57.558s76.693-50.112 76.693-50.112 20.016-17.412 44.187 5.1l12.525 9.84s-21.9 21.936-17.924 51.947l39.72-20.215 30.451 59.928-86.943 56.049z" fill="#f7978d"/><path d="m357.149 296.668-39.184 19.942c10.143 11.079 29.712 25.461 53.081 7.409z" fill="#ffebe8"/><path d="m387.6 356.6-12.994-25.575c-1.9 1.324-4.189 2.618-7.1 4.594-49.286 33.494-59.247 23.941-67.155 17.521s-12.012-20.338-7.306-29.371c3.655-7.01 16.875-13.969 24.017-17.769.9-14.089 6.907-25.642 11.8-32.867-10.214 3.759-20.834 6.905-30.5 2.7-5.984-2.6-10.931-7.88-17.415-8.618-4.563-.52-9.024 1.339-13.241 3.16-7.126 3.076-22.02-2.747-29.146.329l-25.24 14.847c-5.081 4.621-9.118 9.513-11.371 14.563-12.208 27.363 11.767 56.049 13.459 57.558l85.251 54.982z" fill="#bf4c4c"/><path d="m79.005 203.012 37.298-27.213 26.165 215.165-40.992 4.662z" fill="#fff"/><path d="m79.005 203.012 3.556 30.48.979 1.275 18.968-10.124 16.439 144.244-19.061 13.022 1.59 13.717 40.992-4.662-26.168-215.164z" fill="#b6c0db"/><circle cx="81.429" cy="37.555" fill="#f48a4e" r="20.555"/><path d="m60.874 37.555v.025a21.056 21.056 0 0 0 12.233 3.887c11.352 0 20.554-8.77 20.554-19.588 0-.286-.028-.564-.043-.845a20.526 20.526 0 0 0 -32.744 16.521z" fill="#ffda76"/><path d="m16.278 185.3s8.53 4.68 19.17-3.559 56.478-11.164 56.478-11.164l39.21-6.141-3.6-15.169-69.428 8.694-21.224 1.8-12.584-4.681s-19.429 5.464-15.472 20.72c1.072 4.959 3.621 8.035 7.45 9.5z" fill="#ffda76"/><circle cx="168.229" cy="152.825" fill="#f48a4e" r="13.749"/><path d="m93.662 62.667 9.858 74.593 11.186 15.118h-35.7s2.424-2.544 2.424-16.956-6.115-56.443-6.115-56.443z" fill="#f48a4e"/><path d="m70.484 165.07c-6.881-1.878-14.1.588-20.931 2.632s-14.561 3.6-20.818.176a14.875 14.875 0 0 1 -7.25-11.773c-5.227 2.2-15.656 8.131-12.657 19.694 1.067 4.96 3.621 8.036 7.45 9.5 0 0 8.53 4.68 19.17-3.559 7.152-5.54 30.185-8.674 44.533-10.14a18.159 18.159 0 0 0 -9.497-6.53z" fill="#f48a4e"/><path d="m15.06 319.847s22.351-10.275 12.772-44.688c0 0 8.87 29.832 33.7 26.092 0 0-17.384 14.707-4.967 44.508.004 0-12.413-29.828-41.505-25.912z" fill="#f48a4e"/><path d="m219.766 98.756s28.033-6.305 28.917-37.171c0 0-2.09 28.529 26.428 33.7v3.469s-24.581 3.9-23.111 43.146c0 0 5.018-41.094-32.234-43.144z" fill="#ffda76"/><path d="m397.154 232.165s26.485 4.433 37.19-24.714c0 0-10.707 28.328 14.9 40.035 0 0-22.288-1.773-35.06 30.511 0 .003 8.516-36.319-17.03-45.832z" fill="#ffda76"/><circle cx="144.111" cy="139.077" fill="#a9ffde" r="7.776"/><circle cx="139.445" cy="157.066" fill="#a9ffde" r="7.776"/><circle cx="138.641" cy="175.056" fill="#a9ffde" r="7.776"/><circle cx="140.557" cy="194.527" fill="#a9ffde" r="7.776"/><circle cx="143.573" cy="213.27" fill="#72cace" r="7.776"/><circle cx="149.467" cy="231.375" fill="#72cace" r="7.776"/><circle cx="162.663" cy="244.959" fill="#72cace" r="7.776"/><path d="m148.333 194.527a7.733 7.733 0 0 0 -1.287-4.28 11.121 11.121 0 0 1 -5.3 4.328 7.9 7.9 0 0 1 -7.32-1.3 7.454 7.454 0 0 1 -1.22-1.259 7.773 7.773 0 1 0 15.127 2.516z" fill="#72cace"/><path d="m13.88 483.673h471.14l-44.42-90.656s-4.671-33.258-50.473-37.466c0 0-15.233-2.311-36.78 10.643 0 0-14.586-9.479-26.483 12.652l-17.464 23.338-63.6-50.8s-13.172-21.826-47.04-20.321c0 0-49.151-12.042-55.057 59.082l-50.041 8.655-13.681-15.808-29.868 30.108-9.784 2.635-14.3 19.565 4.139 10.161s-12.632 14.332-16.288 38.212z" fill="#ffda76"/><path d="m441.29 393.1s-2.371-15.54-19.866-28.742c1.062 1.478 1.969 3.054 2.905 4.625 8.694 14.593 2.491 30.522-15.811 22.632a2.015 2.015 0 0 0 -2.446.794 15.113 15.113 0 0 0 -1.283 2.33c-2.331-.811-4.753-1.634-7.211-1.4a6.715 6.715 0 0 0 -4.472 2.267 1.474 1.474 0 0 0 .814 2.38 87.5 87.5 0 0 1 26.759 10.972c4.817 4.185-2.768 9.288-5.228 9.247a4.825 4.825 0 0 0 -3.769 1.455c-3.559 4-1.046 6.281 1.013 8.291 3.027 2.957 5.608 7.98 2.749 11.1-3.131 3.416-8.755.544-13.362 1.037-2.3.247-4.4 1.391-6.652 1.937-8.255 2-16.048-4.169-22.309-9.908l-11.033-10.115a4.34 4.34 0 0 1 .918-7.079l.055-.027c1.5-.728 3.2-1.3 4.167-2.652a9.167 9.167 0 0 0 1.09-2.658 24.636 24.636 0 0 1 9.994-13.179l-1.917-.367c-2.484.426-5.116.838-7.46-.086-1.387-.546-2.737-11.581-13.643-7.877-3.8 1.29-8.122 1.752-11.9.4-5.862-2.091-7.825-9.67-6.639-15.779a25.551 25.551 0 0 1 2.527-7.094c-4 1.826-8.362 5.692-12.417 13.234l-17.463 23.346-14.59-11.654c.038.444.084.888.141 1.332 1.39 10.83 8.3 20.1 15.667 28.164 14.511 15.874 31.971 29.55 42.395 48.362a131.638 131.638 0 0 1 6.974 15.285h125.033z" fill="#f48a4e"/><path d="m431.487 323.772 39.4 8.961-6.887 28.982-15.427 9.467s-20.174-7.133-19.462-25.52 2.376-21.89 2.376-21.89z" fill="#ffda76"/><path d="m448.575 371.182 15.425-9.467 6.883-28.982-15.016-3.415q-1.88 9.9-3.76 19.793a29.788 29.788 0 0 1 -1.417 5.513 14.26 14.26 0 0 1 -10.59 8.726 12.474 12.474 0 0 1 -3.635.06 36.957 36.957 0 0 0 12.11 7.772z" fill="#f48a4e"/><path d="m407.3 377.268-9.837-1.8a2.359 2.359 0 0 0 -2.747 1.9l-.159.866c-.011.057-.008.113-.014.169l-5.159-.944a2.361 2.361 0 0 0 -2.747 1.9l-.159.867a2.362 2.362 0 0 0 1.9 2.747l9.838 1.8a2.362 2.362 0 0 0 2.747-1.9l.158-.866c.011-.057.008-.112.014-.169l5.159.944a2.36 2.36 0 0 0 2.747-1.9l.159-.866a2.36 2.36 0 0 0 -1.9-2.748z" fill="#f48a4e"/><rect fill="#f48a4e" height="5.602" rx="2.394" transform="matrix(.91 -.414 .414 .91 -142.177 190.56)" width="14.722" x="361.728" y="420.897"/><path d="m168.849 396.82c-.913-.837-2.077-1.362-2.993-2.2a6.309 6.309 0 0 1 -.627-8.328c.772-.951 1.867-1.733 2.162-2.922a5.737 5.737 0 0 0 -.576-3.225 19.915 19.915 0 0 1 -.7-10.877c.44-2.024 1.8-4.373 3.853-4.126l-1.747-.229c-2.685-1.775-6.13-3.595-8.922-1.994a8.274 8.274 0 0 0 -2.512 2.637 68.429 68.429 0 0 0 -7.385 13.927c-2.341 6-3.592 13.47.606 18.356 1.217 1.417 2.823 2.507 3.8 4.1 1.384 2.272 1.3 5.269 2.909 7.386 2.5 3.289 3.293 5.169 7.341 4.338.875-.18 6.558-.7 7.181-1.344.761-.788 2.768-10.767-2.39-15.499z" fill="#f48a4e"/><path d="m193.139 483.673c.051-.258.1-.515.169-.767a12.551 12.551 0 0 1 7.662-8.516c4.119-1.528 9.383-1.08 12.1-4.53 2.761-3.5 1-8.564-.557-12.744a30.359 30.359 0 0 1 -2.233-9.537 13.191 13.191 0 0 1 2.923-9.151 9.065 9.065 0 0 0 2.156-2.844 6.257 6.257 0 0 0 .176-2.281l-.627-13.622c-.108-2.359.49-5.552 2.848-5.659l.379-1.038c-3.285-2.533-8.325-1.652-11.406 1.125s-4.509 6.966-5.1 11.072-.467 8.288-1.062 12.393-2.035 8.292-5.126 11.057c-5.794 5.183-15.033 3.669-21.869 7.369-4.749 2.569-7.828 7.368-12 10.793-3.5 2.869-7.71 4.73-11.355 7.409-3.193 2.346-6.055 5.647-6.721 9.471z" fill="#f48a4e"/><path d="m173.293 427.223-.928.057a13.359 13.359 0 0 0 -10.118 4.593c-1.881 2.193-3.047 5.008-5.286 6.834-3.82 3.114-9.837 2.616-13.294 6.127-2.759 2.8-2.934 7.188-2.711 11.114a100.269 100.269 0 0 0 1.794 14.045 25.989 25.989 0 0 1 .829 6.771 7.486 7.486 0 0 1 -3.013 5.871c3.88-.548 6.462-4.124 8.97-7.135a49.569 49.569 0 0 1 6.287-6.3 9.5 9.5 0 0 0 2.214-2.271 7.465 7.465 0 0 0 .793-3.943c-.032-2.966-.578-5.912-.537-8.878s.762-6.089 2.847-8.2c1.485-1.5 3.613-2.455 4.523-4.36 1.188-2.487-.2-5.5.483-8.172.81-3.159 4.154-4.854 7.147-6.153z" fill="#f48a4e"/><path d="m267 478.422q-6.4 2.508-12.7 5.251h116.579c-16.862-16.139-41.136-48.859-61.368-81.644l-.116.155-63.6-50.8s-4.888-8.076-16.335-14.065a13.862 13.862 0 0 1 -1.161 10.691c-1.73 2.956-4.683 5.987-3.568 9.226.429 1.246 1.416 2.216 2.011 3.392 1.562 3.086-.751 5.74-4.08 6.678 5.808-1.717 15.773 3.465 19.844 7.949 2.254 2.483 2.149 5.481 2.4 8.316l-6.472-1.453a2.971 2.971 0 0 0 -1.979.345 2.849 2.849 0 0 0 .71 5.25c8.2 2.052 29.24 8.244 24.666 16.814-9.269 17.367-5.755 28.807 2.815 25.018 2.179-.964 3.66-9.591 5.791-10.656 7.419-3.706 15.974 4.083 20 11.152a7.78 7.78 0 0 1 1.084 3.4c.387 7.091-9.922 8.132-12.372 14.177-2.187 5.4 3.074 11.076 2.871 16.9-.249 7.244-8.264 11.256-15.02 13.904z" fill="#f48a4e"/><path d="m438.388 325.342-2.845 19.558a6.885 6.885 0 0 0 3.837 7.45c4.092 2.164 9.163-10.32 11.8-24.1z" fill="#fff"/><path d="m213.609 353.686a11.694 11.694 0 0 0 -4.057-2 58.024 58.024 0 0 0 -11.878-2.262c-5.729-.6-6.676 4.871-5.341 6.994 1.594 2.537 5.208 2.873 7.414 4.9 1.662 1.527 2.33 3.817 3.383 5.814s2.956 3.938 5.2 3.662a1.9 1.9 0 0 0 1-.388 2.919 2.919 0 0 0 .711-1.916 13.64 13.64 0 0 1 2.718-6.436c1.061-1.368 2.444-2.661 2.65-4.38a4.706 4.706 0 0 0 -1.8-3.988z" fill="#fff"/><path d="m144.543 384.971-.208-.887c-.246 1.951-.46 3.965-.634 6.058l-50.039 8.658-13.681-15.808-29.868 30.108-9.784 2.635-14.3 19.565 4.139 10.161s-12.632 14.332-16.288 38.212h111.82l-25.588-4.5c-2.995-.527-6.108-1.1-8.443-3.146a6.81 6.81 0 0 1 -2.087-3.3c-.914-3.346 4.643-8.435 11.5-11.412a4.818 4.818 0 0 0 2.682-5.681 1.1 1.1 0 0 0 -1.426-.752l-6.78 2.382a2.61 2.61 0 0 1 -3.272-1.454 19.75 19.75 0 0 1 -.818-2.251 11.347 11.347 0 0 1 5.475-12.727 7.243 7.243 0 0 0 2.9-1.955c1.215-1.8-.049-4.254.36-6.386.6-3.133 4.485-4.556 5.729-7.494 1.272-3-.575-6.695.824-9.642a8.921 8.921 0 0 1 3.562-3.412 64.8 64.8 0 0 1 15.365-7.084c5.13-1.593 10.616-2.621 14.921-5.832s6.916-9.585 3.939-14.056zm-70.831 42.475c-2.148 3.926-6.886 5.5-10.4 8.269-.957.755-1.98 1.665-3.2 1.581-1.54-.106-2.519-1.843-2.45-3.385a12.516 12.516 0 0 1 1.489-4.353 5.859 5.859 0 0 0 .518-4.473c-.329-.812-.962-1.463-1.343-2.251a5.424 5.424 0 0 1 .389-4.871 19.818 19.818 0 0 1 5.821-5.573 8.283 8.283 0 0 1 5.98-.793 3.54 3.54 0 0 1 2.584 2.3c.37 1.51-.744 2.934-1.225 4.413a5.653 5.653 0 0 0 .954 5.194 5.2 5.2 0 0 1 1.328 1.964 2.95 2.95 0 0 1 -.445 1.978z" fill="#f48a4e"/><path d="m270.5 454.951a14.667 14.667 0 0 0 -1.653-6.065 11.861 11.861 0 0 0 -7.154-5.108 29.015 29.015 0 0 0 -8.945-.721 109.085 109.085 0 0 0 -18.71 2.327l-.9 3.461a10.492 10.492 0 0 1 14.879 9.258 2.626 2.626 0 0 0 .4 1.709 2.272 2.272 0 0 0 1.212.581 47.6 47.6 0 0 0 15.907 1.14 6.291 6.291 0 0 0 3.637-1.2c1.433-1.273 1.508-3.469 1.327-5.382z" fill="#fff"/><path d="m124.718 451.137a3.274 3.274 0 0 0 -3.4-2.7 7.665 7.665 0 0 0 -6.547 3.621c-.84 1.476-1.147 3.233-2.134 4.616-1.231 1.725-3.315 2.6-4.905 4a9.35 9.35 0 0 0 -2.884 4.782 5.647 5.647 0 0 0 -.085 2.628c.559 2.333 2.14 6.146 5.933 4.421 2.123-.965 1.336-4.558 2.786-6.384 2.178-2.743 5.739-3.909 8.886-5.445 4.739-2.314 2.35-9.539 2.35-9.539z" fill="#fff"/><path d="m207.638 401.438c-.986-2.179-4.75-.6-7.141-.6-1.983 0-4.067.106-5.835-.79-.952-.483-1.679-1.438-2.717-1.688-6.048-1.453-9.461 1.718-10.178 2.589a5.788 5.788 0 0 0 -1.051 5.266 3.858 3.858 0 0 0 1.2 1.906 5.43 5.43 0 0 0 4.025.7c2.284-.242 14.194-2.636 17.895-3.38 1.799-.36 5.035-1.278 3.802-4.003z" fill="#fff"/><path d="m394.92 405.215c-1.022-1.609-2.078-3.2-4.739-3.38a5.515 5.515 0 0 0 -5.274 1.776c-.949.946-1.4 3.6-2.257 4.629-2.242 2.7-9.274 3.053-7.743 5.927.554.883 1.88.62 2.877.316 3.975-1.211 8.192-1.3 12.3-1.935 1.7-.262 3.507-.693 4.623-2a4.622 4.622 0 0 0 .213-5.333z" fill="#fff"/><path d="m364.783 373.84a3.3 3.3 0 0 0 -3.057-.953c-2.943.285-5.744 1.83-8.69 1.575-1.442-.125-2.915-.973-4.3-.538-4.818 1.516-3.294 6.5-3.294 6.5a5.383 5.383 0 0 0 4.88 2.939 13.518 13.518 0 0 0 5.78-1.5 60.825 60.825 0 0 0 6.172-3.191 7.028 7.028 0 0 0 2.357-1.945 2.592 2.592 0 0 0 .152-2.887z" fill="#fff"/><path d="m317.3 338.967 20.008-10.909-6.019-17.893s-21.146 10.085-21.634 10.085c1.682 7.408 4.145 13.767 7.645 18.717z" fill="#ffda76"/><path d="m317.3 338.967 20.007-10.91-6.019-17.892s-2.819 1.344-6.419 3.05a27.5 27.5 0 0 1 1.044 6.563c.073 3.817-1.126 7.84-4.021 10.329a14.905 14.905 0 0 1 -7.944 3.049 38.569 38.569 0 0 0 3.352 5.811z" fill="#f48a4e"/><path d="m264.416 255.639a51.912 51.912 0 0 0 19.38 3.614c12.61 0 23.765-4.177 30.61-10.586-20.227-12.177-35.765 1.333-35.765 1.333s-5.79 2.043-14.225 5.639z" fill="#ffdce6"/><g fill="#fff"><path d="m240.4 398.759a1.5 1.5 0 0 0 .149-1.14l-.149-.354a1.517 1.517 0 0 0 -.316-.365 5.614 5.614 0 0 0 -4.272-2.264 1.466 1.466 0 0 0 -1.128.549 1.249 1.249 0 0 0 -.323.384 1.519 1.519 0 0 0 .125 1.634 1.884 1.884 0 0 0 .432.6 1.85 1.85 0 0 0 .543.333 6.486 6.486 0 0 0 2.967 1.182 1.474 1.474 0 0 0 1.972-.557z"/><path d="m245.882 407.74a5.465 5.465 0 0 0 -.5-.678 4.539 4.539 0 0 0 -1.094-.916 4.607 4.607 0 0 0 -1.3-.546 4.246 4.246 0 0 0 -1.437-.124 1.8 1.8 0 0 0 -.746.2 1.5 1.5 0 0 0 -.3 2.323h.005a1.573 1.573 0 0 0 .108.162 7.893 7.893 0 0 0 3.822 2.206 1.506 1.506 0 0 0 1.439-.381 1.45 1.45 0 0 0 .38-1.439 5.261 5.261 0 0 0 -.377-.807z"/><path d="m399.572 364.643a1.574 1.574 0 0 0 -.544-.5 1.607 1.607 0 0 0 -.284-.243 4.77 4.77 0 0 0 -.767-.365 2.809 2.809 0 0 0 -.492-.146 4.75 4.75 0 0 0 -.858-.1 4.842 4.842 0 0 0 -.858.091l-.353.149c-.017.009-.024.027-.04.036l-.275.037a1.112 1.112 0 0 0 -.5.265 1.4 1.4 0 0 0 -.53.768 1.743 1.743 0 0 0 0 .787 1.476 1.476 0 0 0 .68.884 5.045 5.045 0 0 0 1.959.529 4.135 4.135 0 0 0 .839-.048c.057-.007.111-.018.167-.027.062.02.126.034.188.056a1.48 1.48 0 0 0 1.671-2.173z"/><path d="m405.092 371.027a1.531 1.531 0 0 0 -.679-.884 5.467 5.467 0 0 0 -1.049-.443 5.99 5.99 0 0 0 -1.744-.4 2.527 2.527 0 0 0 -.272-.041c-.04 0-.082.013-.123.016h-.018a2.411 2.411 0 0 0 -.394.049 1.508 1.508 0 0 0 -.829.6 1.564 1.564 0 0 0 -.39.664 1.481 1.481 0 0 0 .38 1.44 4.823 4.823 0 0 0 .527.391 4.112 4.112 0 0 0 .6.274 3.5 3.5 0 0 0 .949.2 3 3 0 0 0 1.1-.1 1.463 1.463 0 0 0 1.793-.633 1.487 1.487 0 0 0 .149-1.133z"/><path d="m145.5 418.631a1.491 1.491 0 0 0 -1.046-.433 6.005 6.005 0 0 0 -1.553.256l-.858.046a1.534 1.534 0 0 0 -1.046.433l-.232.3a1.1 1.1 0 0 0 -.175.55.729.729 0 0 0 0 .393 1.1 1.1 0 0 0 .175.55 1.439 1.439 0 0 0 .884.68c.133.022.263.03.394.047v.006h.034a5.036 5.036 0 0 0 1.215.025 6.462 6.462 0 0 0 .986-.174 6.832 6.832 0 0 0 .923-.354l.3-.231a1.108 1.108 0 0 0 .306-.476.731.731 0 0 0 .1-.373 1.127 1.127 0 0 0 -.026-.59 1.756 1.756 0 0 0 -.381-.655z"/><path d="m151.269 425a1.655 1.655 0 0 0 -.6-.577 1.445 1.445 0 0 0 -.919-.763 4.18 4.18 0 0 0 -2.058.019 1.528 1.528 0 0 0 -.884.68 1.484 1.484 0 0 0 -.128.3c-.049.051-.118.084-.157.145a1.41 1.41 0 0 0 -.318.9 1.758 1.758 0 0 0 .2.747 1.657 1.657 0 0 0 .884.68 3.364 3.364 0 0 0 .849.068 4.434 4.434 0 0 0 .641-.1 5.882 5.882 0 0 1 .593.038c.076.013.153.024.228.04a1.571 1.571 0 0 0 1.14-.149 1.479 1.479 0 0 0 .531-2.024z"/><circle cx="137.679" cy="153.833" r="4.911"/><circle cx="141.996" cy="135.476" r="4.911"/></g></g><g id="Layer_5" fill="#3a3245" data-name="Layer 5"><path d="m9.4 318.243c-3.861.62-3.613 6.474.554 6.776s8.44-1.052 12.621-1.231c6.588-.283 12.834 1.485 17.811 5.972 7.475 6.74 11.922 17.784 16.047 26.781 1.556 3.395 7.223.991 6.043-2.548-3.509-11.746-6.993-24.2-5.933-36.562.99-6.7 7.693-11.063 12.9-14.588a3.6 3.6 0 0 0 -2.764-6.556c-25.681 6.552-30.194-8.452-38.26-28.85-1.439-3.9-7.282-2.418-6.3 1.738 4.921 20.463 10.494 38.196-12.719 49.068zm20.418-9.37c2.469-5.055 3.17-10.816 2.94-16.717 5.073 8.155 12.852 12.9 22.747 12.5-7.287 6.518-7.038 16.792-5.59 25.641a31.16 31.16 0 0 0 -26.7-13.591 22.74 22.74 0 0 0 6.599-7.833z"/><path d="m140.3 453.455c1.312.156 3.065-.651 3.272-2.137.125-.895-.152-3.474 1.191-4.316 5.069-3.2 12.7-1.93 17.008-6.278 2.509-3.108 1.347-6.317 5.788-7.772a62.051 62.051 0 0 1 14.27-2.964c4.281-.336 4.321-7.052 0-6.718-7.646 1.118-17.067 1.485-22.879 7.1-1.368 1.784-1.332 4.227-2.9 5.7-4.448 3.082-11.836 2.34-16.081 6.258-2.586 1.706-4.228 9.814.331 11.127z"/><path d="m24.013 190.942c9.5.214 15.428-8.747 25.049-9.094l24.08-3.041 21.032 172.03c-6.842 5.339-21.4 15.469-18.073 25.4-10.884 10.723-19.539 23.836-29.642 34.983-4.115.036-6.416-.533-9.649 3.124-3.91 4.072-15.385 18.4-14.9 23.449.269 2.469 2.859 3.934 2.8 6.377-.067 2.717-3.313 6.442-4.563 8.706a138.423 138.423 0 0 0 -12.02 29.616 3.515 3.515 0 0 0 3.355 4.4c78.511.093 392.52.6 479.351.52a3.45 3.45 0 0 0 3.291-2.506c2.416-13.207-.575-26.713-6.019-38.869a21.271 21.271 0 0 0 -3.845-16.727c-2.322-4.749-5.022-8.086-10.863-6.673-4.468-5.542-10.113-10.257-15.14-14.984 1.006-4.846-4.026-12.012-7.095-15.7.383-1.431 1.571-8.1 2.712-13.934a8.2 8.2 0 0 1 6.494-6.472c8.753-1.7 25.567-8.409 28.08-34.747.172-1.8-.434-3.8-2.417-4.258q-26.644-6.215-53.26-12.542a3.367 3.367 0 0 0 -4.07 2.311c-4.279 15.3-4.182 35.611 9.578 44.833 7.167 4.8 5.958 12.724 4.488 17.843-8.231-11.257-22.626-25.476-36.116-30.393a54.746 54.746 0 0 0 -15.3-3.431 8.2 8.2 0 0 1 -6.918-4.754c-7.954-17.077-16.25-34.029-24.288-51.074-.815-1.708-2.969-1.837-4.463-1.17q-17.611 7.865-35.115 15.966a118.1 118.1 0 0 1 16.334-42.4 3.158 3.158 0 0 0 .039-5.164 128.215 128.215 0 0 0 -25.818-19.8c-7.254-4.071-12.632-3.5-20.282-.805-25.675 9.171-49.63 22.419-73.456 35.521-18.311 8.8-25.94 31.478-20.045 50.254a90.049 90.049 0 0 0 -36.391.321c-1.281-5.068-4.291-6.586-9.119-5.064-4.007.884-9.6 1.944-13.486 4.528l-18.9-154.572 6.971-.88a12.8 12.8 0 0 0 4.586 13.977c-5.241 5.481-3.763 15.415 2.607 19.217-5.355 6.237-2.615 16.793 4.905 19.743-5.032 8.135 1.579 19.538 11.175 19.163-1.184 14.071 18.037 19.253 24.208 6.766 9.507 3.169 19.065-7.425 14.9-16.554 9.161-2.122 12.3-14.857 5.2-21 5.745-5 5.047-15.271-1.589-19.375a12.46 12.46 0 0 0 -2.61-17.972c4.739-5.7 2.534-15.572-4.376-18.653 1.9-8.874-3.637-18.428-12.027-21.4-2.347-8.248-13.5-11.675-20.046-6.18-10.385-9.774-26.639 2.382-20.181 15.092l-17.84 2.252a16.859 16.859 0 0 1 -8.407-12.427l-9.736-76.877c18.092-17.151 3.473-48.265-21.507-45.033-24.942 3.126-31.537 36.667-9.607 48.971l9.753 77.046a16.491 16.491 0 0 1 -4.933 13.925l-25.1 3.17c-9.288 2.04-17.151-4.984-26.226-2.645-21.814 5.647-18.024 37.289 4.45 37.666zm408.631 156.967c-1.036-6.66.066-14.049 1.653-20.729q12.879 3.084 25.752 6.2a8.073 8.073 0 0 1 6.116 8.976c-1.405 10.5-4.954 23.539-17.584 21.6-6.948-2.651-5.275-12.029-5.368-18.028a2.572 2.572 0 0 0 -5.025-.68 22.114 22.114 0 0 0 -.822 12.563 18.4 18.4 0 0 1 -4.722-9.902zm-292.1-159.272c8.383.22 7.367 12.835-.941 11.709-7.019-1.108-6.152-11.738.942-11.709zm-2.787 23.68c1.378-7.627 12.762-5.752 11.63 1.906-1.374 7.623-12.761 5.755-11.629-1.906zm5.945 19.32c-.205-7.736 11.287-8.259 11.774-.522.206 7.746-11.298 8.244-11.776.522zm18.979 19.53c-7.763.213-8.238-11.313-.521-11.774 7.74-.22 8.258 11.294.522 11.774zm-1.6-105.734c5.957-7.973 17.61-1.164 17.746 7.634-3.168 18.616-26.587 7.633-17.75-7.634zm7.3 27.4a12.1 12.1 0 0 0 4.557 5.863c-4.308 5.242-2.959 14.186 2.975 17.856a12.454 12.454 0 0 0 1.2 16.845 12.429 12.429 0 0 0 -3.032 13.721 12.3 12.3 0 0 0 -7.639 6.024 12.737 12.737 0 0 0 -4.122-.641 12.8 12.8 0 0 0 -7.662-12.856 12.869 12.869 0 0 0 -4.136-17.106 12.863 12.863 0 0 0 -2.317-18.262 12.856 12.856 0 0 0 1.572-14.747c6.547-.213 12.083 4.123 18.604 3.3zm-29.656-34.706c1.377-7.627 12.762-5.753 11.629 1.906-1.374 7.62-12.761 5.752-11.629-1.909zm5.506 15.5c4.418 6.361-4.955 13.093-9.572 6.874-4.419-6.363 4.959-13.089 9.572-6.872zm-9.031 17.386c6.368-4.42 13.09 4.958 6.875 9.571-6.358 4.416-13.089-4.955-6.875-9.571zm-51.2 39.757c.959-1.021 9.044-6.879 11.983-8.916l22.959 187.8c-2.479.56-10.2 1.51-12.849 1.832zm299.944 159.774c6.627-1.9 1.764-11.871 9.012-12.348 17.485 2.492 36.044 13.2 40.674 31.164 1.076 3.84 1.252 6-1.735 8.838-6.958 6.588 3.95 11.586-.691 19.892-5.718-2.142-13.768-5.579-19.814-2.952-2.314 1.218-3.152 6.12-5.694 5.169-20.158-7.549-24.51 8.388-19.743 10.163 2.835.686 3.678-1.854 4.6-3.905 3.113-4.4 19.477 5.175 23.167 6.975 3.557 1.748 6.479-3.154 3.118-5.335-1.648-1.07-3.364-2.327-5.146-3.533 1.486-1.1 1.983-3.213 3.739-3.7 5.076-.32 10.868 2.589 15.351 4.772 6.567 20.128-2.774 14.6-11.275 24.083-5.065 8.3-4.229 6.882-13.462 8.248-6.457 2.787-13.484 5.112-20.542 3.482a31 31 0 0 0 -12.534-14.75c-3.22-2.581-3.784-6.2-5.672-9.671a30.381 30.381 0 0 0 -12.115-11.936c-17.813-7.478-8.336-11.924-20.9-17.744l-.025-.126c2.881-2.722 5.5-7.533 10.191-5.707 1.4.5 1.978 1.353 3.627 1.369 5.193.048 9.1-7.224 13.883-8.109a2.333 2.333 0 0 1 2.52 1.285c2.037 4.4-4.89 8.45-5.94 10.378-1.072 1.967 1.287 4.98 3.373 3.373 2.946-2.269 5.453-5.044 8.47-7.251 3.076-2.251 6.49-3.754 9.692-5.76 2.858-1.791 1.066-6.712-2.369-5.619a31.15 31.15 0 0 0 -5.863 2.642c-6.055-7.641-12.26-6.726-16.239-3.209-1.478 1.044-5.624 5.473-7.366 5.5-7.565-3.958-11.755-.24-17.011 5.532-10-10.249-.745-24.526 7.638-32.519 9.228-7.487 9.868 5.424 20.84-2.216 4.9-3.216 9.9-6.173 15.607-7.651a3.122 3.122 0 0 1 2.718.5c1.1.88 1.071 2.227.46 3.589a5.914 5.914 0 0 1 -2.2 2.4c-2.72 1.823-4.184 5.718-3.972 8.85a3.168 3.168 0 0 0 6.19.838c.648-4.325 1.177-4.553 5.438-5.001zm6.182 56.793c.053-.13.09-.183 0 0zm-10.25-75.552a54.979 54.979 0 0 0 -22.982 8.979c-2.5 1.973-4.814 2.052-7.484.342-17.261-6.2-23.12 19.823-36.857 25.779-7.248.9-12.166-5.247-15.683-10.789 25.39-12.92 50.448-26.422 75.689-39.639q3.66 7.664 7.317 15.328zm-10.093-21.143c-25.23 13.4-50.6 26.456-75.9 39.7-2.208-4.237-4.18-8.523-6.109-12.882 24.282-11.446 51.716-27.46 75.806-39.812q3.102 6.497 6.203 12.994zm-91.142 6.458c9.309-4.493 18.63-8.96 28-13.331 1.383 4.6 2.948 10.305 6.154 13.632-9.224 4.74-18.513 9.49-27.266 14.943-2.239-5.11-4.473-10.224-6.888-15.244zm1.21 18.506s-6.273 2.96-10.383 4.807a3.689 3.689 0 0 1 -3.615-.334l-13.853-9.579c7.148-3.254 13.967-7.358 20.9-10.627 1.862 5.045 6.951 15.736 6.951 15.736zm75.9-54.358q2.549 5.343 5.1 10.683l-21.388 11.389c-.2-4.356-2.264-8.8-4.11-12.845q10.184-4.647 20.399-9.224zm-28.551 12.958a2.4 2.4 0 0 1 3.057.961c8.7 14.44-8.674 17.924-10.612 18.16-3.273.487-5.031-6.235-6.51-10.194a2.375 2.375 0 0 1 1.23-2.978q6.406-2.99 12.835-5.949zm-10.3-60.292a129.336 129.336 0 0 1 12.36 10.155c-26.254 10.543-53.248 19.625-79.141 30.9-1.708-3.535-5.084-6.285-8.967-8.336 25.21-11.01 50.234-22.417 75.748-32.719zm-82.365 81.708c-4.177-2.721-8.619-4.309-13.5-6.356 3.015-13.262 6.166-26.573 12.935-38.513 4.974 1.769 9.136 5.055 11.073 9.868a111.67 111.67 0 0 0 -10.508 35.001zm48.522-83.912c9.295-4.023 18.337-9 27.435-1.982-25.695 10.935-51.765 21.284-76.673 33.935a39.305 39.305 0 0 0 -10.885-1.864c19.679-10.711 39.302-21.699 60.123-30.089zm-55.379 37.181c-5.949 12.034-10.543 24.607-12.546 38.076-5.51.875-10.545-.82-12.706-6.407-2.492-17.074 4.598-36.133 25.252-31.669zm-71.744 125.9 11.291-1.552c-.772-5.4-1.054-16.859-11.277-17-.5-2.2-4.142-18.06 2.743-24.5a1.644 1.644 0 0 1 2.729.786c.472 1.9 1.048 4.421 1.221 5.572.5 3.347 6.073 2.558 5.9-.8-.154-3.051-.12-6.188-.3-9.273a38.959 38.959 0 0 1 4.052-.824 4.866 4.866 0 0 1 5.116 3.037 28.492 28.492 0 0 1 1.237 7.47c-.547.191-1.092.39-1.631.6-2.607 1.02-2.609 5.854.732 5.406 7.933-1.427 16.529-4.481 17.627 6.551 1.58 4.076 10.686 4.886 10.634 1.125-.29-21.052-14.133-17.361-14.133-17.361s1.093-18.617-24.748-13.725c0 0-3.048-14.22 2.508-18.11 5.668-6.2 14.56-6.889 22.8-7.257a3.8 3.8 0 0 1 4.011 3.8 11.155 11.155 0 0 0 1.31 5.392c.89 1.675 3.879 1.422 4.239-.554.258-4.208.339-5.484 4.643-6.585 7.656-2.5 15.965.435 21.334 6.17a30.659 30.659 0 0 1 2.588 6.6c1.882 6.716 10.63 7.063 14.223 12.32a5.028 5.028 0 0 1 -.437 1.09c-12.264-2.064-27.772-2.093-24.663 6.93.516 1.5 2.72 2.506 3.914 1.034 1.3-1.606 3.3-2.207 5.5-2.333 13.869 2.443 20.539 3.423 31.1 13.621 3.441 3.191 11.947 4.46 11.591 9.219-.882 11.784 10.388 7.942 9.8 19.846a6.889 6.889 0 0 0 -.748 1.384c-10.446-2.26-15.054-.346-17.7 10.644-.693 2.826 3.5 4.694 4.717 1.988 5.3-11.746 27.794-3.378 38.188 4.392 7.052 5.177 7.385 15.685 2.331 22.528-27.6-3.191-23.037 17.1-16.567 11.019 5.667-8.185 16.935-1.973 24.865-3.413 6.09-2.7 2.44-6.084 10.991-3.542 4.815 6.2-5.6 14.83-10.369 17.538-9.112 5.159-19.088 5.853-29.139 6.41q-66.366-.12-132.73-.223a15.094 15.094 0 0 1 .407-3.075c9.973-3.835 21.083-2.622 31.523-4.355 3.253-.387 3.466-5.259 0-5.238-5.457.033-11.085-.044-16.646.292 2.527-4.762 7.044-5.065 11.876-5.676 2.732-.443 16.717-4.328 16.322 1.023-.311 3.674 4.356 4.384 6.165 2.034 2.056-2.689.54-7.017-1.584-8.791-3.562-5.973-1.357-14.133 5.146-16.7 4.094-.278 8.176-.515 11.772-1.718 2.3-.772 2.814-4.7 0-5.2-3.758-.666-7.868-.193-11.843.516-1.526-5.218-1.032-10.856-1.8-16.226a77.234 77.234 0 0 1 11.83-1.478c5.154-.56 7.6.138 8.548 5.488a41.708 41.708 0 0 0 -13.784 2.093c-2.5 1-2.52 5.423.7 5.161a114.463 114.463 0 0 1 14.039-1.143c.42 4.9.74 9.064 1.593 13.895l-.5 1.142c-2.866 1.949-7.778 15.036-3.767 16.835 5.15 2.31 3.04-11.513 24.957-11.144 6.921.116 14.928-2.239 15.845 7.063.561 3.051 5.35 2.9 6.018 0 1.85-18.138-18.115-13.985-29.784-13.779-8.053-2.144-7.089-11.523-8.219-18.041-.855-19.084-14.813-15.376-28.643-12.574-18.918 4.085-4.312 19.576-13.165 26.853a13.615 13.615 0 0 0 -5.3 9.157c-9.189.469-16.712 5.341-23.151 11.336-4.328 3.774-10.741 3.865-15.334 7.451-4.315 3.37-4.59 9.354-8.606 12.63a42.011 42.011 0 0 1 -7.1 2.127q-36.306-.063-72.611-.136a109.251 109.251 0 0 1 14.722-5.816c3.892-1.368 2.325-7.458-1.725-6.255a88.965 88.965 0 0 0 -15.45 6.438 41.141 41.141 0 0 1 -2.28-5.991c4.446-2.144 9.239-4.747 14.049-5.895 4.052-1.046 2.333-7.113-1.721-6.241-4.655 1.007-9.969 4.088-14.247 6.152-4.079-7.12 15.253-13.925 20.182-14.838 1.307 3.416 2.875 7.783 4.184 11.337.934 2.721 5.312 3.2 6.017 0 .736-3.344-1.823-8.122.882-10.4 2.44-2.052 6.594-3.9 12.065-5.629.862 1.922 1.346 6.37 4.338 6.018 2.725-.151 6.993-1.164 7.253-6a3.389 3.389 0 0 1 2.538-3.148c3.315-.837 14.692-3.709 8.278-7.957-4.012-1.228-8.362 1.437-12.23 2.473-2.507-8.024 9.523-8.324 15.054-10.1a4.18 4.18 0 0 1 4.977 3.013 49.967 49.967 0 0 1 1.11 6.05c.524 4.181 6.992 4.441 6.749 0-.386-4.062-2.374-18.916-8.113-17.452-9.237 2.778-35.2 3.571-31.456 20.1-4.8 1.967-11.479 4.247-16.053 8.049-5.675-9.269-24.627 3.842-30.39 8.7-6.49 5.4 1.82 20.644-5.14 27.367-7.214.093-20.49-.1-27.646-.5 2.94-11.1 9.31-20.722 14.34-30.87 1.238 1.1 6.334 6.608 8.2 7.441a2.783 2.783 0 0 0 4.04-3.106 10.886 10.886 0 0 0 -3.2-4.3c2.884-3.4 9.091-6.284 9.4-10.83a2.908 2.908 0 0 0 -2.835-2.843c-4.48.21-7.652 6.36-11.075 9.1-6.377-6.925-4.849-9.912.289-16.7 1.788-2.447 4.654-7.269 7.562-8.47 2.276-.939 4.738-.115 7.115-1.461 5.382-3.8 7.963-10.379 13.8-13.793 3.974-2.784 11.3-10.194 16.025-10.094 7.85 8.447.126 12.716 2.472 20.793 1.287 3.328 5.727 2.717 6.868-.077 4.723-16.589 33.308-17.426 47.881-19.794a8.354 8.354 0 0 1 1.25 5.069c-1.2.1-5.854.85-9.136 1.394a3.471 3.471 0 0 0 -2.862 3.953 1.983 1.983 0 0 0 2.177 1.666c5.873-.648 11.365-1.29 17.068-1.852a5.488 5.488 0 0 1 5.76 3.694 23.878 23.878 0 0 1 .867 3.683 3.244 3.244 0 0 0 3.65 2.681zm-17.24-27.437-12.874 1.63-23.412-191.5q6-4.065 12.1-8zm-38.628-251.771a23.327 23.327 0 0 0 5.83 12.707c-16.071 2.065-18.458 3.969-22.534-29.407-1.1-19.006-6.793-32.044 8.619-47.166zm-28.052-109.602c12.237-13.741 30.725 3.088 25.6 18.23-12.945 18.061-36.062-.402-25.6-18.23zm-43.524 134.537c11.333 7.006 75.689-6.374 88.946-6.685-18.63 18.767-48.373 10.892-71.347 19.667-7.65 2.778-15.152 9.14-23.271 10.475-18.246-2.72-11.708-29.342 5.672-23.457z"/><path d="m321 326.16c3.437 3.294 8.173-2.11 4.591-5.183-3.384-3.53-7.774 2.059-4.591 5.183z"/><path d="m400.644 239.628c17.209 9.712 12.253 31.605 7.761 47.28-1.023 4.184 4.94 5.72 6.377 1.758a129.08 129.08 0 0 1 9.15-19.6c7.173-13.57 12.74-17.831 28.428-15.729 3.525.26 4.92-5.108 1.81-6.685-6.353-3.222-16.1-8.515-17.442-16.131-1.734-9.855 2.047-21.56 5.086-30.851 1.134-3.466-4.388-5.9-5.973-2.518-8.538 18.8-15.887 37.116-40.538 30.972-3.1-2.365-6.971 2.757-4.151 5.369 2.765 2.562 6.367 4.079 9.492 6.135zm16.567-6.276c5-2.417 9.081-6.471 12.524-11.2-1.11 9.614 2.025 18.05 10.089 23.947-9.68.613-15.882 8.649-20.27 16.434a31.2 31.2 0 0 0 -12.6-27.088 22.859 22.859 0 0 0 10.257-2.093z"/><path d="m214.713 100.505c9.15 3.24 20.141 3.683 26.106 12.559 6.81 9.345 6.953 23.583 7.715 34.718.289 4.221 6.448 4.288 6.614 0 .849-12.634 2.137-25.886 7.565-37.468 3.452-6.351 11.59-8.136 18.132-9.747 3.25-.8 3.585-6.353 0-6.918-7.178-1.13-18.313-3.218-22.159-10.047-5.108-9.067-4.961-22.3-4.885-32.421.032-4.331-6.018-4.043-6.537 0-1.075 8.368-2.387 16.861-5.1 24.88-3.7 13.33-12.457 16.238-25.027 18.14-3.499-.978-5.878 4.699-2.424 6.304zm25.642-8.464c4.168-4.064 6.871-9.435 8.747-15.257 1.882 9.991 7.7 17.514 17.705 20.723-9.642 3.719-13.219 13.92-15.055 23.222a32.17 32.17 0 0 0 -21.193-23.164 23.766 23.766 0 0 0 9.796-5.524z"/><path d="m298.873 100c3.53 3.595 9.061-1.969 5.481-5.481-3.529-3.594-9.06 1.97-5.481 5.481z"/><path d="m439.943 339.288c2.9 1.723 5.708-2.843 2.62-4.484-2.88-1.741-5.549 2.826-2.62 4.484z"/></g></svg>