<svg height="512" viewBox="0 0 500 500" width="512" xmlns="http://www.w3.org/2000/svg"><g id="Layer_4" data-name="Layer 4"><path d="m476.021 113.561c-15.621-31.599-46.287-54.261-79.921-64.794s-70.016-9.828-104.62-3.108c-18.151 3.525-36.072 8.676-54.515 9.982-28.738 2.036-59.74-4.929-85.031 8.869-4.708 2.569-9.152 5.842-14.354 7.149-4.434 1.114-9.084.712-13.656.667a87.184 87.184 0 0 0 -65.762 29.615c-16.262 18.739-23.247 73.059-23.247 73.059-.978.929-9.035 6.711-11.263 9.5-2.641 3.311-3.732 7.561-4.756 11.67-4.33 17.39-8.672 35.614-4.417 53.022 2.817 11.523 9.293 22.053 10.871 33.81 1.5 11.143-.744 24.567 7.873 31.788 5.856 4.909 14.751 4.5 21.661 1.239s12.372-8.871 17.976-14.066c24.022-22.27 52.886-38.511 81.453-54.54l61.076-34.269c10.939-6.137 21.9-12.286 33.419-17.251a261.086 261.086 0 0 1 40.021-13.01c54.443-13.647 111.072-17.522 165.074-32.82 11.248-3.186 24.24-8.966 25.916-20.535.797-5.5-1.332-10.991-3.798-15.977z" fill="#f2fbff"/><path d="m483.956 388.643c-2.4-3.233-6.836-3.985-10.824-4.524a641.262 641.262 0 0 1 -126.3-30.335c-42.349-14.848-84.151-34.373-128.969-36.668-29.462-1.508-58.741 4.558-88.188 6.354-33.889 2.066-105.075-3.428-105.075-3.428-6.816 3.381-7.324 20.237 17.09 29.907 22.055 8.735 38.358 64.668 69.972 84.088 21.826 13.407 42.275 28.341 67.831 26.616 17.786-1.2 34.709-7.7 51.775-12.852 56.975-17.2 117.68-19.731 176.846-13.282 17.691 1.929 38.966 3.224 49.659-11 2.217-2.949 3.772-6.389 6.268-9.106 4.112-4.477 10.243-6.453 15.11-10.094s8.425-10.792 4.805-15.676z" fill="#f2fbff"/><path d="m247.28 197.4 8.532 14.154c1.15 1.907 3.048 4.107 5.142 3.348a5.047 5.047 0 0 0 2.284-2.378 95.548 95.548 0 0 1 15.629-19.408c.585-.558 1.328-1.152 2.112-.956.675.168 1.068.852 1.384 1.471l11.571 22.691a163.537 163.537 0 0 0 20.582-26.184l9.317 10c1.257 1.35 2.9 2.824 4.689 2.383a5.261 5.261 0 0 0 2.563-2.023l16-19.366a64.969 64.969 0 0 1 4.509 42.08c6.919-3.171 10.966-10.361 14.2-17.249a232.461 232.461 0 0 0 10.958-27.83l8.687 18.148a88.453 88.453 0 0 0 19.595-28.722c6.338 13.8 12.817 28.3 11.94 43.452a81.8 81.8 0 0 0 23.339-40.608c1.287 3.536 6.347 4.292 9.6 2.4s5.1-5.448 6.774-8.817a52.624 52.624 0 0 1 12.2 21.332 48.152 48.152 0 0 0 11.866-45.743z" fill="#f2fbff"/><path d="m313.3 342.751c.417-1.158 79.5 30.852 124.891 35.663s48.734 3.473 48.734 3.473 5.661-28.766-4.528-49.17l-27.214 35.012-14.752-32.336-18.946 23.393-17.514-19.939-15.4 16.236-19.383-22.366-17.728 11.6-16.055-21.735z" fill="#f2fbff"/><g fill="#aab7e3"><path d="m288.829 182.9c54.443-13.647 111.072-17.522 165.074-32.82 7.338-2.078 15.415-5.262 20.612-10.436a67.253 67.253 0 0 0 -15.024.929l-103.1 16.809-45.344 7.393c-15.1 2.462-30.232 4.93-45.011 8.892-35.075 9.4-67.314 26.96-99.481 43.811-7.471 3.914-19.088 6.469-22.281-1.337-.9-2.189-.727-4.646-.6-7.008a141.239 141.239 0 0 0 -16.57-73.872c-12.052 12.208-32.6 14.9-47.387 6.206-14.517-8.529-22.137-27.22-17.89-43.474q-1.9 1.916-3.67 3.948c-16.257 18.739-23.242 73.059-23.242 73.059-.978.929-9.035 6.711-11.263 9.5-2.641 3.311-3.732 7.561-4.756 11.67-4.33 17.39-8.672 35.614-4.417 53.022 2.817 11.523 9.293 22.053 10.871 33.81 1.5 11.143-.744 24.567 7.873 31.788 5.856 4.909 14.751 4.5 21.661 1.239s12.372-8.871 17.976-14.066c24.022-22.27 52.886-38.511 81.453-54.54l61.076-34.269c10.939-6.137 21.9-12.286 33.419-17.251a261.086 261.086 0 0 1 40.021-13.003z"/><path d="m433.318 102.435c-2.03-7.377-9.549-12.074-16.555-15.955-15.644-8.665-32.474-17.005-50.652-17.229l-9.665-5.651c-7.889-2.991-17.549.4-22.519 6.867s-5.61 15.278-2.983 22.853 8.182 14.013 14.61 19.233c16.573 13.461 39.763 19.477 61.379 15.924 7.09-1.166 14.2-3.416 19.56-7.916s8.619-11.604 6.825-18.126z"/><path d="m313.493 117.485c-3.263-7.3-9.362-12.979-15.914-17.57a91.991 91.991 0 0 0 -68.058-15.055c-8.706 1.546-17.836 4.336-26.143 1.3l-9.153.009c-13.829 3.406-24.659 16.533-25.374 30.758-.572 11.373 4.611 22.115 8 32.986 2.246 7.2 3.663 15.292.335 22.058s-13.177 10.526-18.718 5.413c4.664 10.369 18.1 14.121 29.247 11.9s20.805-8.877 30.766-14.359c22.158-12.193 46.863-18.956 71.548-24.462 7.962-1.776 16.613-3.829 21.679-10.222 4.972-6.27 5.048-15.451 1.785-22.756z"/><path d="m340.716 106.206c-2.736-2.945-6.41-4.8-9.729-7.07s-6.5-5.267-7.323-9.2l-5.659-6.011c-3.276-.31-6.14 2.062-8.49 4.364-4.415 4.325-8.792 9.62-8.624 15.8.211 7.791 8.275 13.777 16.067 13.622a13.832 13.832 0 0 1 4.154.185c2.881.837 4.462 4.136 4.328 7.132s-1.573 5.759-2.981 8.407a16.839 16.839 0 0 0 18.257-27.226z"/><path d="m247.279 197.4q4.267 7.077 8.533 14.154c1.15 1.907 3.048 4.107 5.141 3.348a5.044 5.044 0 0 0 2.285-2.378 95.548 95.548 0 0 1 15.629-19.408c.585-.558 1.327-1.152 2.112-.956.675.168 1.068.852 1.384 1.471l11.571 22.691a163.434 163.434 0 0 0 11.8-13.669 15.614 15.614 0 0 1 -8.04-7.105 12.645 12.645 0 0 1 -.31-10.557z"/><path d="m311.814 181.422a27.371 27.371 0 0 0 1.339 10.816c.456-.7.918-1.391 1.363-2.1q4.659 5 9.317 10c1.257 1.35 2.9 2.824 4.689 2.383a5.261 5.261 0 0 0 2.563-2.023l6.21-7.514a7.527 7.527 0 0 0 -1.715-3.937 49.137 49.137 0 0 0 -3.766-3.2 9.609 9.609 0 0 1 -2.518-8.755z"/><path d="m363.613 168.594-18.376 4.551a19.072 19.072 0 0 0 .13 9.171c.06.224.129.445.2.666l1.525-1.845a64.969 64.969 0 0 1 4.509 42.08c6.919-3.171 10.966-10.361 14.2-17.249q2.818-5.992 5.284-12.143a6.776 6.776 0 0 1 -7.941-1.125c-2.614-2.669-3.083-6.768-2.836-10.5a43.528 43.528 0 0 1 3.305-13.606z"/><path d="m377.866 165.064a29.253 29.253 0 0 0 1.041 7.751c1.2 4.658 3.081 9.157 3.781 13.917.228 1.552.329 3.117.427 4.682l2.332 4.872a88.29 88.29 0 0 0 12.625-15.557c-1.392-.279-2.781.766-4.229.794-2.9.057-4.187-3.653-4.223-6.556a33.511 33.511 0 0 1 2.7-13.483z"/><path d="m408.662 157.437a38.927 38.927 0 0 0 -1.11 15.652c4.851 10.864 9.17 22.152 9.474 33.836a32.441 32.441 0 0 0 .743 3.32 81.81 81.81 0 0 0 17.731-25.479 13.664 13.664 0 0 0 .437-6.541 1.983 1.983 0 0 0 -.611-1.194 1.921 1.921 0 0 0 -1.491-.212c-3.152.532-5.906 3.163-9.075 2.748-4-.525-5.714-5.373-6.025-9.4a45.728 45.728 0 0 1 1.522-15.6z"/><path d="m468.9 185.324a46.287 46.287 0 0 0 9.326-13.883c-2.06-2.35-2.815-5.836-3.66-8.966-1.038-3.842-3.182-8.152-7.124-8.695a21.257 21.257 0 0 0 -4.155.217c-4.538.273-9.374-2.638-10.318-7.085-.031-.143-.041-.288-.061-.432l-13.134 3.253a24.621 24.621 0 0 0 -.817 4.572 33.5 33.5 0 0 0 4.762 19.161 7.942 7.942 0 0 0 6.2-.657c3.253-1.891 5.1-5.448 6.774-8.817a52.624 52.624 0 0 1 12.207 21.332z"/><path d="m269.518 343.893c-.554-5.143 4.468-9.521 9.594-10.212s10.2 1.267 15 3.189l3.364-1.234c-25.954-9.275-52.221-17.117-79.615-18.52-29.462-1.508-58.741 4.558-88.188 6.354-33.887 2.066-105.073-3.428-105.073-3.428-6.816 3.381-7.324 20.237 17.09 29.907 22.055 8.735 38.358 64.668 69.972 84.088 21.826 13.407 42.275 28.341 67.831 26.616 17.786-1.2 34.709-7.7 51.775-12.852q10.3-3.111 20.762-5.587a33.022 33.022 0 0 0 -13.162-2.421c-11.26.284-22.19 4.55-33.452 4.362a43.363 43.363 0 0 1 -35.672-20.48 5.441 5.441 0 0 1 -1.086-3.776c.351-1.683 2.067-2.672 3.643-3.362a50.4 50.4 0 0 1 24.046-4.061c-8.887-4.156-19.012-9.987-19.881-19.759-1.126-12.647 13.833-20.228 26.378-22.185 57.084-8.9 114.3 22.233 171.712 15.759l-92.768-31.961c-5.376-1.853-11.661-4.783-12.27-10.437z"/><path d="m341.548 340.349a1.933 1.933 0 0 0 -.737-1.117 1.854 1.854 0 0 0 -1.3-.078c-2.439.507-4.838 1.986-7.25 1.362-3.361-.869-4.418-5.12-4.346-8.591.019-.89.083-1.778.168-2.664l-14.783 13.49c.155-.43 11.178 3.721 27.294 9.353a15.536 15.536 0 0 0 .954-11.755z"/><path d="m377.668 364.35a29.312 29.312 0 0 0 1.269-4.918c.317-1.849.322-4.117-1.235-5.161a5.192 5.192 0 0 0 -2.416-.66c-3.435-.347-7.163-.712-9.686-3.067-3.734-3.483-3.071-9.516-1.618-14.422l-10.689 6.991a61.076 61.076 0 0 0 -1.647 12.8c8.074 2.742 16.92 5.646 26.022 8.437z"/><path d="m413.058 373.984a26.416 26.416 0 0 0 2.182-14.216 3.631 3.631 0 0 0 -.639-1.88c-.832-1.012-2.446-.921-3.623-.345s-2.15 1.522-3.352 2.043c-3.55 1.538-7.786-1.4-8.936-5.1s-.051-7.695 1.348-11.3c.043-.11.088-.22.131-.33l-11.6 12.225-2.528-2.918a63.156 63.156 0 0 0 -2.119 14.073c9.765 2.896 19.678 5.587 29.136 7.748z"/><path d="m447.292 379.353a63 63 0 0 0 1.468-8.178c.324-2.968.2-6.491-2.233-8.227-2.575-1.84-6.188-.587-9.266-1.323a9.4 9.4 0 0 1 -6.045-5.484 20.75 20.75 0 0 1 -1.508-7.5l-8.219 10.149-5.138-5.849c-.275 1.395-.532 2.79-.76 4.181-.935 5.682-1.567 11.576-.865 17.244a213.5 213.5 0 0 0 23.469 4.052c3.245.34 6.268.651 9.097.935z"/><path d="m486.929 381.887a105.1 105.1 0 0 0 1.557-17.019 3.809 3.809 0 0 0 -.472-.532c-2.619-2.416-6.854-.129-10.365-.743-2.693-.472-4.806-2.731-5.813-5.272a20.9 20.9 0 0 1 -1.039-8.08c.015-.9.051-1.811.1-2.72l-15.707 20.208-3.244-7.112a67.389 67.389 0 0 0 -3.044 18.9c35.221 3.489 38.027 2.37 38.027 2.37z"/></g></g><g id="Layer_5" fill="#3a3245" data-name="Layer 5"><path d="m97.472 189.2c4.367 10.481-2.509 38.5 13.193 39.728 8.958-1.838 15.293-10.856 19.813-18.239 12.277-20.584.12-43.221.488-65.044.526-18.34 11.639-52.516-16.459-54.121-10.363.266-19.168 6.5-26.68 13.152-17.267 12.413-23.412 31.127-17.788 51.2 1.895 9.125 3.174 17.394 2.71 26.733-.211 4.244 5.949 4.768 7.166.97 1.881-5.87 1.539-11.847.486-17.855a6.847 6.847 0 0 1 2.885-1.508c5.267 8.429 11.24 15.565 14.186 24.984z"/><path d="m84.664 194.754c-1.932-3-6.626-.082-5.137 3 1.636 4.126 7.918.461 5.137-3z"/><path d="m151.739 150.744c3.171 3.23 8.141-1.768 4.924-4.924-3.17-3.23-8.14 1.768-4.924 4.924z"/><path d="m155.109 174.826c2.788 20.561 28.238 20.787 43.333 14.094 17.572-6.53 33.559-16.534 50.252-24.952 12.268-4.936 25.5-6.266 38.131-9.821 10.507-3.409 20.52-10.814 21.751-22.576.106-43.464-61.532-52.916-94.959-54.5-28.132-.793-45.275 14.714-44.166 43.165-.017 3.127 5.1 4.033 5.631.762.91-5.6 1.466-11.469 3.234-16.9 1.229 21.786 6.068 68.661 33.76 70.806-14.319 7.083-42.451 20.735-50.891-.9-1.093-3.062-6.385-2.884-6.076.822z"/><path d="m322.424 113.971c3.443 1.006 7.584.332 10.865 1.728 6 2.553 2.371 6.975-1.879 9.132-3.771 1.915-1.15 7.989 2.866 6.8 23.491-6.211 7.983-32.406-4.7-41.917-4.23-3.658-11.74-10.608-16.83-4.91-10.315 6.983-1.27 27.126 9.678 29.167z"/><path d="m353.98 101.3a97.436 97.436 0 0 0 24.206 15.612c8.361 3.784 17.812 6.974 27.072 5.415 2.5-.42 2.33-4.34 0-4.882-6.159-1.8-17.574-1.849-18.715-9.9 13.409 1.318 28.858 3.836 39.772-6.013 3.3-.207 2.883 4.407 2.007 6.481a17.14 17.14 0 0 1 -7.523 5.775c-2.407 1.021-1.165 5.063 1.325 4.892 11.418-.784 17.444-13.14 14.033-23.337-5.346-15.481-23.623-23.848-38.14-29.657-13.215-4.545-38.106-9.728-50.511-1.882-13.787 9.272-3.749 29.181 6.474 37.496z"/><path d="m405.6 396.867c3.336.429 3.752-4.758.768-5.678-15.5-4.78-31.16-8.971-46.557-14.111-44.137-14.23-92.62-35.412-139.721-29.521-2.295.684-2.668 4.57 0 5.033 7.625 1.325 15.778.436 23.525 1.034 24.506 1.9 48.352 8.527 71.621 16.166 29.957 9.427 59.135 22.479 90.364 27.077z"/><path d="m493.114 390.314a11.11 11.11 0 0 0 -3.138-7.947c5.046-18.894 2.9-38.244-5.532-55.891-1.456-3.046-5.956-1.971-6.832.893a103.489 103.489 0 0 1 -7.245 17.631c-1.773-8.824-3.266-19.265-10.865-25.007-1.843-1.34-4.172.16-4.817 1.959a83.242 83.242 0 0 1 -7.765 16.224c-1.6-4.646-8.15-12.081-11.553-5.576a116.842 116.842 0 0 1 -5.749 11.874 44.65 44.65 0 0 0 -7.276-18.216 3.383 3.383 0 0 0 -5.743 0c-3.024 4.05-6.791 8.182-9.51 12.655-3.527-4.928-8.887-1.5-11.137 2.886-.456-4.278-6.794-24.421-12.853-18.991-3.289 3.991-6.755 8.007-9.821 12.249-3.021-6.077-8.522-5-11.89.2a82.45 82.45 0 0 0 -6.19-21.2c-3.644-6.016-12.148 7.555-14.729 10.338-4.763-12.674-8.305-3.726-14.014 1.993a49.1 49.1 0 0 0 -10.733-31.988c-2-2.541-5.462-.626-6.412 1.693a33.338 33.338 0 0 1 -9.9 13.829c-1.66-4.211-6.041-15.254-11.406-9.073-1.385 2.23-3.654 5.671-6.3 7.352-1.549-4.336-5.863-16.408-12.013-11.865-9.8 8.83-19.941 10.331-31.92 4.97-25.313-9.662-51.415-21.336-79.052-20.556 12.6-10.077 27.18-17.181 40.629-25.978 19.333-11.914 32.979-32.292 54.815-40.05 9.672 13.222 20.928-11.168 26.909-17.572a160.007 160.007 0 0 1 8.291 19.146 4.039 4.039 0 0 0 6.661 1.759 94.666 94.666 0 0 0 17.539-22.124c15.9 20.021 22.613 3.674 32.9-9.817 5 11.524 2.707 26.819.424 38.357a4.027 4.027 0 0 0 6.669 3.882 76.942 76.942 0 0 0 25.785-41.012c.947 3.206 1.857 6.42 2.634 9.663 6.06 10.576 20.525-15.046 22.88-20.237 3.653 11 9.335 22.3 6.826 34.157-.777 3.562 3.823 6.985 6.574 3.827a118.418 118.418 0 0 0 22.083-37.678c6.472 7.744 14.3-4.438 17.918-9.487 3.429 6.872 6.116 13.918 7.084 21.708.484 3.89 5.056 5.464 7.426 2.011 9.982-14.463 17.885-32.9 12.762-50.7 5.2-12.058-5.3-24.847-10.526-35.18-9.535-17.768-21.065-34.98-38.128-46.318-39.861-23.784-89.889-24.333-134.851-19.626-39.681 5.856-79.652 19.912-119.989 11.662-4.934-1.343-11.611-3.28-16.443-1.443-13.6 5.485-11.423 13.744-32.235 16.876-43.056-2.619-82.913 28.392-95.389 68.891-4.681 13.773-8.247 27.711-15.156 40.616-14.051 22.671-20.211 50.717-12.705 76.743 3.716 11.766 11.03 22.171 14.016 34.179 2.336 9.4-2.471 21.438 3.457 28.91-8.985.961-17.375 13.241-9.447 20.578 3.9 7.61 12.112 12.507 20.78 15.594 10.639 7.421 17.32 18.7 23.862 29.93 23.363 42.4 64.727 78.187 114.78 80.781 36.677 1.232 70.139-17.331 106.288-21.084 37.632-5.481 75.924-4.926 113.8-2.914 30.357 3.116 77.247 5.287 85.682-32.477 5.527-3.443 9.934-9.736 9.79-16.009zm-11.707-51.467a72.421 72.421 0 0 1 1.342 40.726c-9.255-.479-18.469-1.09-27.562-2.369 11.522-10.08 20.413-24.065 26.22-38.357zm-41.681 1.21c4 11.589 6.179 23.442 5.459 35.661-8.5-1.411-16.937-3.153-25.323-5.137a134.765 134.765 0 0 0 19.864-30.524zm-38.255 5.858q1.116-2.7 1.221-.858a89.065 89.065 0 0 1 5.729 22.672c-6.64-1.739-13.253-3.61-19.85-5.56 5.276-4.447 8.229-11.311 12.9-16.254zm-34.064-7.462c2.828 6.633 4.015 12.454 5.267 18.875q-9.072-2.835-18.127-5.754c5.108-3.674 8.588-8.312 12.86-13.121zm-33.03-10.9a101.955 101.955 0 0 1 5 19.171q-9.037-2.871-18.1-5.631a119.792 119.792 0 0 0 13.1-13.536zm-71.19-119.672c-1.1.7-2.185 4.346-3.446 2.427-.977-.406-2.348-3.817-2.854-4.645-1.572-2.576-3.118-5.167-4.712-7.728 7.561-2.047 15.179-3.89 22.8-5.642-3.693 5.375-7.601 10.586-11.788 15.592zm31.542.162a163.125 163.125 0 0 0 -8.611-18.265q10.653-2.379 21.313-4.732c.28 1.543.165 3.177.449 4.716a88.091 88.091 0 0 1 -13.151 18.285zm35.9-13.9c-.56.713-1.845 2.879-2.864 3.048-3.779-.342-9.329-8.458-12.13-11.305a7.272 7.272 0 0 1 1.678-3.009q12.944-2.847 25.89-5.68c-4.174 5.647-8.229 11.423-12.57 16.945zm25.987 20.086c1.538-13.341 1.476-28.476-7.247-38.382q12.11-2.65 24.219-5.311a69.369 69.369 0 0 1 -16.968 43.692zm37.984-34.444c-2.236 3.59-4.38 7.3-7.343 10.253-1.506-6.068-4.134-11.284-5.707-18.161-.307-1.339 1.18-2.055.992-3.313q9.432-2.074 18.861-4.156c-1.003 5.604-3.803 10.563-6.803 15.377zm32.464 7.775a111.3 111.3 0 0 1 -7.451 12.456c-.885-12.962-10.04-24.387-10.682-37.266q11.52-2.536 23.039-5.076a25.578 25.578 0 0 0 2.069 7.4 57.821 57.821 0 0 1 -6.971 22.486zm49.836-21.781a65.13 65.13 0 0 1 -5.693 12.98c-2.178-7.4-5.367-14.881-10.894-20.533-4.446-5.115-7.707 3.139-9.728 6.433a60.311 60.311 0 0 1 -4.07 5.391 18.506 18.506 0 0 1 -2.835-14.955c11.621-2.6 23.283-5.058 34.884-7.722 1.059 6.121.113 12.492-1.664 18.406zm-306.139-109.497c-.581.039-1.164.089-1.745.155a8.5 8.5 0 0 1 1.745-.155zm1.157-.076a.828.828 0 0 1 .436-.006c-.238.007-.477.019-.717.03.094-.008.184-.012.281-.024zm-154.775 193.021c-5.518-21.442-1.644-45.472 9.807-64.274 10.433 16.394 3.05 27.327 4.093 43.222-1.069 15.681 1.739 32.083 13.358 43.433 16.313 15.9 33.659 5.949 40.313-13.194 12.131-26.429-9.928-70.816-41.872-53.377 4.347-18.595 9.691-37.094 13.082-55.874.641-3.55-4.312-5.01-5.454-1.5-3.558 10.924-6.175 22.2-9.073 33.324-8.127-45.77 25.015-96.882 71.452-104.67 9.948.8 20.5 3.332 28.308 10.023 5.825 7.623 4.671 18.414 4.669 27.527-.523 6.939.454 14.789 3.549 20.341a2.377 2.377 0 0 0 4.4-1.19c-1.622-22.989.281-46.414 9.405-67.886 7.373-5 19.483-.223 28.254-.482 19.122-1.106 38.256-6.866 57.373-1.721 9.5 2.157 17.623 6.314 26.426 10.221a3.808 3.808 0 0 0 3.841-6.57c-7.108-5.122-16.348-8.421-25.052-10.594 60.234-14.176 159.248-25.625 200.886 30.857 6.586 9.836 25.251 36.123 18.842 47.253-3.924 6.426-11.488 7.589-17.737 10.922q-84.113 18.422-168.213 36.932c-27.729 6.11-55.587 12.588-81.543 24.4-26.649 12.488-49.278 31.8-76.251 43.757-30.366 13.746-55.215 36.479-78.93 59.381-5.5 4.593-12.774 7.441-17.636 1.286-3.2-4-.446-10.941-.472-15.589-.101-16.74-11.392-30.375-15.825-45.958zm219.751 194.744c-50.894 19.842-100.207 12.729-138.875-27.293-18.452-17.6-28.066-41.5-44.169-60.843 22.231 3.349 44.789 6.283 67.268 7.145 4.968.188 4.934-7.453 0-7.7-19.39-.985-38.618-3.2-57.869-5.663-16.2-1.5-34.079-5.466-41.669-21.485 7.657-13.5 23.151 1.459 32.972 4.725 28.232 10.988 59.084 4.8 88.04.389 127.778-24.112 212.574 42.438 330.783 53.654 7.351 3.23 6.579 8.711.9 13.6-12.693 4.63-25.905 2.462-38.854 1.054a2.529 2.529 0 0 0 -1.265 4.675c7.72 4.476 18.405 4.254 27.074 4-8.9 18.431-29.146 19.064-47.723 18.547-13.131-.859-24.756.124-36.965.632-46.891.055-94.397.825-139.648 14.563z"/><path d="m146.19 359.972c2.016 4.606 8.02 2.366 6.635-2.485-1.452-4.621-8.55-1.911-6.635 2.485z"/><path d="m244.266 418.756c-3.034-4.015-15.268-2.719-20.347-3.681a183.986 183.986 0 0 1 -19.29-2.7c-33.584-6.04-66.369-32.6-101.463-19.929-3.751 1.458-2.375 7.155 1.7 6.148 26.014-8.953 23.76 28.872 50.921 31.331 14.185 1.865 27.445-4.735 41.079-7.335 6.238-1.5 12.5.225 18.648-.42 4.913.502 31.464 5.316 28.752-3.414z"/><path d="m270.238 414.617c-3.59 0-3.6 5.578 0 5.578s3.595-5.578 0-5.578z"/></g></svg>