<svg height="512" viewBox="0 0 500 500" width="512" xmlns="http://www.w3.org/2000/svg"><g id="Layer_4" data-name="Layer 4"><path d="m90.466 454.715h357.64l-82.931-95.464-39.014-11.438-23.241-18.4s-48.186 12.987-99.141-39.483c0 0-53.284 2.609-92.463 50.408 0 0-50.933 52.146-53.676 96.4z" fill="#ffda76"/><path d="m234.929 355.551c-.414-.214-.882-.444-1.035-.884a1.715 1.715 0 0 1 .145-1.138q1.068-2.865 2.134-5.73a2.052 2.052 0 0 0 -.849-3.036q-8.129-5.745-16.6-10.984l-1.555.276a79.242 79.242 0 0 1 -5.421 19.19c1.558 1.07 3.511 2.892 5.237 2.124 6.382-2.841 23.343 3.2 23.281 6.164 1.666-4.043-2.466-4.492-5.337-5.982z" fill="#f48a4e"/><path d="m320.971 398.128c-1.037-4.668-6.605-7.054-8.2-11.563-.682-1.927-.558-4.055-1.13-6.018a11.4 11.4 0 0 0 -4.86-6.112 26.906 26.906 0 0 0 -7.326-3.073c-2.35-.682-4.913-1.255-7.2-.375-2.027.781-3.467 2.573-4.752 4.326a106.653 106.653 0 0 0 -8.851 14.327 21.052 21.052 0 0 0 -2.195 5.706v6.3c6.392 1.768 22.32 11.215 28.921 1.287 2.021-3.039 7.187-.067 10.835.014 1.577.035 3.348-.271 4.271-1.551a4.093 4.093 0 0 0 .487-3.268z" fill="#f48a4e"/><path d="m448.106 454.715-82.931-95.464-39.014-11.438-23.241-18.4s-44.539 10.762-99.141-39.483c0 0-53.284 2.609-92.463 50.408 0 0-50.933 52.146-53.676 96.4l32.826 17.977h96.371a215.051 215.051 0 0 0 -25-7.414c-9.551-2.2-21.1-5.395-23.533-14.892a17.453 17.453 0 0 0 -1.051-3.744c-1.54-2.993-5.48-3.737-8.843-3.586-4.581.2-9.545 1.334-12.975-3.286a10.021 10.021 0 0 1 -1.782-4.215c-.852-4.779.971-9.262 2.852-13.537 4.5-10.239 10.326-21.023 21.123-24.834a4.676 4.676 0 0 0 3.128-3.458c.424-2.288-1.332-3.019-2.466-4.221-3.421-3.626-.195-9.574 3.561-12.851 5.852-5.108 12.948-8.6 18.977-13.493 4.523-3.672 8.547-8.551 10.091-14.033-.041-4.3-4.7-6.269-2.66-11.8a10.185 10.185 0 0 1 4.35-5.117c7.433-4.5 16.188-10.447 25.069-8.541 5.021 1.078 8.233 6.217 11.811 9.9 43.384 44.649 90.769 23.707 100.751 37.907 3.861 5.489 10.613 7.767 16.95 9.974a89.069 89.069 0 0 1 16.923 7.974 2.989 2.989 0 0 1 1.448 2.016c.291 1.776-1.4 2.653-2.84 3.232l-6.637 2.661a3.932 3.932 0 0 0 -.194 7.219q4.961 2.28 9.845 4.723c1.133.567 2.845 1.632 2.341 2.795-4.38 10.109-12.414 6.509-17.065 4.321 0 0-11.005 4.748-16.025 3.646 32.392 15.189 18.126 30.952 15.348 31.024s-5.782.649-7.626 2.728c-1.626 1.835-2.2 4.68-4.4 5.78-1.356.681-2.96.481-4.478.482-7.794.006-14.33 5.577-20.088 10.83-.646.59-1.295 1.189-1.917 1.812z" fill="#f48a4e"/><path d="m99.254 325.467v-15.159l16.508-16.481 15.829 2.776-.698 23.912-8.804 6.423z" fill="#d7f1ff"/><path d="m272.167 367.829 5.468 31.658 28.493-6.907-.864-20.257-16.117-10.25z" fill="#d7f1ff"/><path d="m213.819 354.338-9.07-7.161 2.865-10.741 9.25-2.386 10.083 7.638-5.033 11.456z" fill="#d7f1ff"/><path d="m350.827 417.809v-9.178l8.158-6.812 8.412 6.557-.51 9.433-9.177 4.588z" fill="#6a8ecc"/><path d="m178.019 436.437h18.161l-8.5-17s-8.501 4.442-9.661 17z" fill="#d7f1ff"/><path d="m233.019 242.735-17.239 32.738a4.072 4.072 0 0 1 -.811 1.181 4.2 4.2 0 0 1 -2.259.8c-2.845.426-6.2 1.419-6.975 4.19-.5 1.8.334 3.683 1.24 5.318 6.1 11.015 16.106 19.322 26.477 26.465 12.262 8.445 25.818 15.8 40.614 17.454 7.776.867 16.265-.107 22.214-5.188 3.521-3.006 5.826-7.163 7.95-11.276 5.333-10.33 10.007-22.614 13.985-33.538l-25.491 3.614s-9.14-29.705-12.463-36.058l-31.089 18.365z" fill="#ffda76"/><path d="m234.237 258.689a51.313 51.313 0 0 1 4.981-6.717l-6.2-9.237q-8.618 16.365-17.238 32.738a4.072 4.072 0 0 1 -.811 1.181 4.2 4.2 0 0 1 -2.259.8c-2.845.426-6.2 1.419-6.975 4.19-.5 1.8.334 3.683 1.24 5.318a54.673 54.673 0 0 0 4.944 7.376 9.592 9.592 0 0 1 2.413 2.268 8.078 8.078 0 0 1 7.134-9.635c.905-.041 2.054-.066 2.387-.908a2.409 2.409 0 0 0 -.026-1.287c-.49-2.8.636-5.6 1.739-8.22 2.572-6.11 5.159-12.248 8.671-17.867z" fill="#fff"/><circle cx="266.56" cy="284.49" fill="#87ddaa" r="9.045"/><path d="m57.64 215.631s20.528-8.326 14.473-43.521c0 0 2.227 30.654 33.471 28.383 0 0-19.847 11.325-11.143 43.129 0 0-8.509-28.369-36.801-27.991z" fill="#ffda76"/><path d="m237.581 87.891s26.119-5.61 27.519-36.469c0 0-1.723 33.664 23.86 35.768 0 0-20.016 3.507-21.412 37.872.002 0-7.343-33.662-29.967-37.171z" fill="#ffda76"/><path d="m396.89 257.67s23.024 8.333 16.5 41.718c0 0 9.209-27.046 29.547-29.064a40.337 40.337 0 0 1 -14.582-38.089s-6.139 26.695-31.465 25.435z" fill="#f48a4e"/><path d="m288.59 271.45a86.939 86.939 0 0 1 -9.035 36.322 4.972 4.972 0 0 1 -1.9 2.36 5.127 5.127 0 0 1 -3.445.053l-16.985-3.715c1.993 3.4.615 8.048-2.363 10.625-2.82 2.441-6.694 3.287-10.441 3.267l.44.253c10.045 2.356 19.444 6.965 29.222 10.264 7.771.864 16.253-.112 22.2-5.189 3.521-3.006 5.826-7.163 7.95-11.276 5.333-10.33 10.007-22.614 13.985-33.538l-25.491 3.614s-1.827-5.922-4.137-13.04z" fill="#f48a4e"/><path d="m257.515 284.49a9.045 9.045 0 1 0 14.437-7.251 10.781 10.781 0 0 1 -2.575 6.71 7.232 7.232 0 0 1 -8.052 1.978 5.645 5.645 0 0 1 -3.135-4.861 9.006 9.006 0 0 0 -.675 3.424z" fill="#48a06c"/><path d="m264.176 412.584a9.7 9.7 0 0 0 -2.417-4.778 19.016 19.016 0 0 0 -18.92-5.931c-1.7.449-3.5 1.138-5.145.511-2.041-.781-2.829-3.177-4.072-4.974-2.314-3.344-6.64-4.823-10.706-4.739s-7.972 1.493-11.793 2.885l-1.674 1.29c2.818-1.485 6.416.23 8.313 2.789s2.629 5.767 3.8 8.73 3.081 5.966 6.123 6.911c3.471 1.078 7.063-.846 10.578-1.773a19.662 19.662 0 0 1 14.1 1.635 40.318 40.318 0 0 0 4.774 2.55 5.74 5.74 0 0 0 5.2-.293 5.021 5.021 0 0 0 1.839-4.813z" fill="#f48a4e"/><path d="m277.635 399.487 28.493-6.907-.864-20.257-7.2-4.583c-.135 7.959-3.51 15.654-4.415 15.725-2.524.2-9.793-6.155-9.793-6.155l-7.856 12.051-.117-.018z" fill="#6a8ecc"/><path d="m184.016 436.437h12.164l-8.5-17a11.544 11.544 0 0 0 -1.2.785c.752 2.635 1.578 5.25 1.466 7.966a11.824 11.824 0 0 1 -3.71 8.066c-.071.063-.149.119-.22.183z" fill="#6a8ecc"/><path d="m212.446 353.254 1.373 1.084 8.095-1.194 5.033-11.457-10.083-7.637-1.1.283a28.519 28.519 0 0 1 .96 3.268 18.223 18.223 0 0 1 -.353 10.088 12.6 12.6 0 0 1 -3.925 5.565z" fill="#6a8ecc"/><path d="m130.893 320.515.7-23.912-15.829-2.776-5.037 5.028.906.837a24.026 24.026 0 0 1 5.054 5.783 6.811 6.811 0 0 1 .981 3.762 9.181 9.181 0 0 1 -2.392 4.73q-2.681 3.372-5.575 6.567a17.154 17.154 0 0 1 11.51 6.347l.88.057z" fill="#6a8ecc"/><g fill="#fff"><path d="m257.692 261.769q-.612 1.632-1.185 3.277c-3.258 9.379-5.636 19.038-8.5 28.546-1.2 3.979-2.522 8.017-5.032 11.327s-6.448 5.816-10.594 5.557q9 2.665 17.912 5.624c-1.294-4.419-.671-9.212.8-13.575s3.751-8.4 5.851-12.5a16.921 16.921 0 0 0 1.531-3.722 29.254 29.254 0 0 0 .457-3.765 40.7 40.7 0 0 1 2.58-9.649 95.641 95.641 0 0 1 8.837-18.6z"/><path d="m209.271 356.984a4.339 4.339 0 0 1 6.03 3.9c.029 1.277-.495 2.615 0 3.794a3.319 3.319 0 0 0 3 1.771 13.07 13.07 0 0 0 3.612-.643 25.685 25.685 0 0 1 14.855.733 7.386 7.386 0 0 0 2.152.569 2.106 2.106 0 0 0 1.929-.9 2.3 2.3 0 0 0 .208-1.468c-.261-1.916-1.68-3.462-3.182-4.678-3.929-3.176-16.391-8.462-28.604-3.078z"/><path d="m178.349 403.75c-.037 0-.071.012-.108.014h-.032a4.876 4.876 0 0 0 -4.544 2.72 1.777 1.777 0 0 0 -.19.833 4.452 4.452 0 0 0 -.193.694 1.5 1.5 0 0 0 .37 1.4 1.442 1.442 0 0 0 1.4.371 5.77 5.77 0 0 0 4.156-3.18 4.543 4.543 0 0 0 .383-.68 1.442 1.442 0 0 0 -1.245-2.17z"/><path d="m185.787 392.9a1.435 1.435 0 0 0 -1.245-.714 6.263 6.263 0 0 0 -5.406 3.585 1.577 1.577 0 0 0 -.146 1.111 1.442 1.442 0 0 0 1.774 1.007c.04-.013.081-.033.122-.049a1.271 1.271 0 0 0 .559-.024 7.428 7.428 0 0 0 4.342-3.46 1.464 1.464 0 0 0 0-1.456z"/><path d="m327.242 377.236a1.92 1.92 0 0 0 -.264-.891 4.012 4.012 0 0 0 -.377-.485 4.506 4.506 0 0 0 -1.071-.948 2.688 2.688 0 0 0 -2-.31 2.657 2.657 0 0 0 -.552.215 2.3 2.3 0 0 0 -.461.329 2.157 2.157 0 0 0 -.362.43 2.218 2.218 0 0 0 -.242.534c-.017.128-.035.255-.052.383a1.1 1.1 0 0 0 .124.556 1.445 1.445 0 0 0 .5.613c.009.008.017.018.026.026s.039.029.058.045h.006c.206.171.42.336.634.5a4.422 4.422 0 0 0 1.278.66 2.919 2.919 0 0 0 .862.137c.039 0 .078-.012.117-.015a1.385 1.385 0 0 0 .31.039 1.443 1.443 0 0 0 1.442-1.442c0-.014-.008-.027-.009-.042a1.423 1.423 0 0 0 .033-.334z"/><path d="m316.807 365.852a2.572 2.572 0 0 0 -.216-.285 1.293 1.293 0 0 0 -.417-.283 4.522 4.522 0 0 0 -.407-.274 4.848 4.848 0 0 0 -2.179-.638 1.431 1.431 0 0 0 -1.245.714 1.447 1.447 0 0 0 0 1.456 4.246 4.246 0 0 0 .694.841 1.278 1.278 0 0 0 .255.362 3.736 3.736 0 0 0 1.48.874 4.021 4.021 0 0 0 .849.144 3.7 3.7 0 0 0 .9-.07 1.429 1.429 0 0 0 .636-.371 1.073 1.073 0 0 0 .3-.464 1.394 1.394 0 0 0 -.073-1.283 5.03 5.03 0 0 0 -.577-.723z"/><path d="m186.955 317.082a1.453 1.453 0 0 0 -.371-.636 1.482 1.482 0 0 0 -1.4-.371 4.343 4.343 0 0 0 -.9.328 2.792 2.792 0 0 0 -.525.32 4.238 4.238 0 0 0 -.7.617c-.014.018-.027.036-.042.054a3.838 3.838 0 0 0 -.928 1.05 1.459 1.459 0 0 0 0 1.455 1.442 1.442 0 0 0 .518.517 1.427 1.427 0 0 0 .727.2 4.168 4.168 0 0 0 1.107-.244 5.467 5.467 0 0 0 .651-.3l.016-.011a3.227 3.227 0 0 0 .415-.187 4.459 4.459 0 0 0 .491-.361 1.767 1.767 0 0 0 .211-.195 2.814 2.814 0 0 0 .529-.759 1.44 1.44 0 0 0 .192-.692l.008-.017a1.467 1.467 0 0 0 .001-.768z"/><path d="m179.482 324.846a1.428 1.428 0 0 0 -.941-.543 1.108 1.108 0 0 0 -.3-.023c-.053 0-.1-.02-.158-.021a2.183 2.183 0 0 0 -.707.066 2.232 2.232 0 0 0 -.647.266 2.2 2.2 0 0 0 -.541.435 3.255 3.255 0 0 0 -.314.413 1.083 1.083 0 0 0 -.051.115c-.116.133-.227.273-.332.415a2.764 2.764 0 0 0 -.162.247c-.048.115-.1.229-.145.344l-.052.384c.018.127.035.255.052.383a1.089 1.089 0 0 0 .258.49 1.424 1.424 0 0 0 .577.444.706.706 0 0 0 .364.1 1.093 1.093 0 0 0 .575-.026 3.978 3.978 0 0 0 .816-.321 3 3 0 0 0 .433-.282 2.44 2.44 0 0 0 .233-.132 4.5 4.5 0 0 0 .633-.5 4.317 4.317 0 0 0 .525-.65l.145-.344.051-.383-.051-.384a1.1 1.1 0 0 0 -.261-.493z"/><path d="m308.882 432.294a1.135 1.135 0 0 0 1.643-1.459c-1.963-3.84-5.259-9.356-8.838-11.379-2.96-1.673-14.64-5.926-18.092-4.061-3.376 1.825-.028 11.319 4.877 13.7 2.137 1.035 7.2-1.736 9.673-1.57 3.296.216 7.701 2.748 10.737 4.769z"/><path d="m253.236 429.471a6.729 6.729 0 0 0 -3.246-.224 1.411 1.411 0 0 0 -1.007 1.007 1.437 1.437 0 0 0 .255 1.247 4.181 4.181 0 0 0 3.877 2.527 3.611 3.611 0 0 0 1.231-.213 2.455 2.455 0 0 0 .9-.543 1.78 1.78 0 0 0 .489-1.5c-.168-1.281-1.397-1.918-2.499-2.301z"/><path d="m267.238 437.42a2.2 2.2 0 0 0 -.609-.967 1.521 1.521 0 0 0 -.843-.662c-.025-.008-.052-.013-.077-.021-.1-.059-.2-.121-.3-.177a19.465 19.465 0 0 0 -2.346-1.074 1.436 1.436 0 0 0 -1.111.145 1.491 1.491 0 0 0 -.59.69 1.39 1.39 0 0 1 -.362.89 1.375 1.375 0 0 0 -.1.747 1.564 1.564 0 0 0 .4.828 5.165 5.165 0 0 0 1.538 1.262 5.9 5.9 0 0 0 2.249.674 2.094 2.094 0 0 0 1.386-.3 1.841 1.841 0 0 0 .765-2.035z"/></g></g><g id="Layer_5" fill="#3a3245" data-name="Layer 5"><path d="m255.407 281.549c-3.463 16.034 20.287 21.589 24.288 5.7 3.463-16.039-20.295-21.588-24.288-5.7zm6.552 1.537c1.741-7.3 12.867-4.7 11.184 2.625-1.743 7.306-12.878 4.689-11.184-2.625z"/><path d="m229.17 275.036c.646 5.246 8.514 4.574 8.41-.684-.167-5.82-9.258-5.108-8.41.684z"/><path d="m289.018 299.135c.645 5.246 8.514 4.574 8.41-.684-.167-5.819-9.258-5.108-8.41.684z"/><path d="m160.949 400.518c4.821-3.8 9.285-8.074 14.159-11.833 3.909-3.161-.942-8.111-4.357-4.533-2.647-4.079-1.065-10.311 3.438-12.363 2.632-1.714.972-6.745-2.275-5.395-25.285 13.091-2.125 20.4-16.6 29.98-3.468-2.07-7.19-3.255-10.7-1.965-5.851 2.153-16.368 8.559-17.948 14.986.228 5.947 6.483.132 8.458-1.785a49.919 49.919 0 0 1 7.649-5.37c6.614-4.651 12.714 2.452 17.678 6.392 3.038 2.773 7.584-1.757 4.524-4.525-1.175-1.065-2.538-2.324-4.026-3.589z"/><path d="m295.5 399.677a11.128 11.128 0 0 0 -1.559-1.385c3.577-.781 8.625-1.726 12.72-2.571a3.091 3.091 0 0 0 2.472-3.051c-.025-4.206-.082-12.585-.159-16.547-.122-6.308-4.365-8.554-9.12-11.678-4.236-2.39-9.61-6.569-14.908-4.747a156.508 156.508 0 0 0 -15.705 5.519c-1.2.559-1.238 1.266-.74 3.865 1.946 10.163 3.964 20.312 5.946 30.467a3.152 3.152 0 0 0 3.835 2.177c9.447-1.837 11.069.051 15.1 4.969 2.657 1.985 17.62 9.306 15.408 1.236-2.852-4.907-9.568-4.231-13.29-8.254zm-18.649-30.67c2.768-1.037 5.515-2.143 8.273-3.178 2.369-1.223 4.523-1.335 6.757.347-3.172 2.285-6.6 4.172-9.771 6.454a58.316 58.316 0 0 0 -5.261-3.623zm6.04 25.307a1.431 1.431 0 0 1 -1.693-1.78c1.109-3.9 2.094-8.357 1.863-12.149 2.782 1.68 10.971 9.71 13.544 5.671 1.382-3.151 1.78-6.857 2.858-10.151.863-2.639-3.137-3.638-4.1-1.13-.7 1.831-1.673 3.788-2.381 5.778-2.021-1.684-4.226-3.188-6.39-4.687 3.178-2.194 6.271-4.434 9.284-6.842 1.772 1.32 4.568 2.382 6.039 4.054 1.288 1.492.9 3.273.921 5.208.037 3.846.048 7.692.086 11.538q-10.022 2.235-20.033 4.49z"/><path d="m377.757 434.51c-1.331-4.254-6.693-.984-5.118 2.5 1.587 3.522 6.447.874 5.118-2.5z"/><path d="m364.825 401.23c-6-2.994-11.314-.973-14.352 4.986-4.507-5.764-14.176-9.385-21.047-11.565-3.979-.12-5.224 5.974-9.9 5.175q-1.875-1.1-3.758-2.139c-2.734-1.513-5.141 2.6-2.448 4.189 6.554 3.877 12.5 8.549 18.787 12.809 2.171 1.47 4.554-1.778 2.758-3.574a60.8 60.8 0 0 0 -8.345-6.858c1.107-1.337 2.355-2.522 3.56-3.751 4.764 2.794 10.509 4.448 14.563 8.258 2.692 4.791-.764 8.516 5.374 12.737 3.942 3.047 7.992 5.963 12 8.929 3.46 2.563 6.835-3.257 3.381-5.785l-1.857-1.36c9.381-3.894 10.296-17.676 1.284-22.051zm.117 12.342c-.895 2.812-3.981 4.2-6.632 4.8a13.288 13.288 0 0 1 -4.608-2c-.595-4.339 3.153-13.382 8.582-9.756a6.461 6.461 0 0 1 2.658 6.956z"/><path d="m465.238 417.108c-8.169-19.823-14.093-42.155-31.17-56.476 1.861-10.926 3.656-5.292 10.029-11.432 3.094-2.508 8.354-16 1.706-16.264-12.425 3.35-18.516-6.385-22.146-2.374-3.489 5.532-2.833 13.4 1.188 18.509 2.74 2.276 4.022 3.551 3.266 7.553-19.522-8.636-16.166-15.391-30.187-23.758 1.629-1.76 6.386-4.443 4.057-7.368l-6.648-9.113a3.032 3.032 0 0 0 -3.545-1.041l-11.507 4.449c-3.667 1.23-.822 6.5-.43 8.9-11.233-3.99-34.852 7.481-51.657 12.8a142.551 142.551 0 0 0 -17.77-14.213c5.046-2.224 6.408-11.967 1-14.792q6.084-16.049 12.173-32.1c.658-1.733-1.084-4.2-3-3.94-4.6.61-9.148 1.373-13.643 2.366-4.57-11.4-2.136-13.314-14.889-8.152a170.029 170.029 0 0 0 -8.345-24c-.687-1.6-2.9-1.79-4.235-1.11a237.607 237.607 0 0 0 -21 12.147c-5.379-11.115-4.815-11.776-15.494-4.634l-7.268-12.487a3.115 3.115 0 0 0 -5.332 0c-6.03 11.106-12.177 22.418-16.87 34.191-6.2-1.286-12.852 5.214-10.813 11.4-18.848.208-36.473 8.62-53.039 16.875a72.646 72.646 0 0 0 -14.78 8.25c.04-1.759.113-10.887.146-15.156a2.561 2.561 0 0 0 -2.164-2.551c-4.1-.651-12.889-2.037-16.571-2.569a3.6 3.6 0 0 0 -3.043 1c-3.4 3.354-12.494 12.821-16.048 16.53a5.05 5.05 0 0 0 -1.406 3.614c1.435 17.224-3.966 17.384 15.774 17.368-9.364 7.77-16.077 18.73-26.137 25.482-5.5 1.18-10.69 3.332-14.447 7.761-4.679 4.665-9.93 9.442-13.881 14.744-3.174 4.784-3.137 10.955-8.37 14.356-14.438 11.113-6.733 11.3-12.918 22.235-15.873 3.282-16.115 2.408-14.119 18.77q-6.943 10.131-12.985 20.833a3.125 3.125 0 0 0 2.673 4.657c14.219.007 461.529.165 477 .165 2.653 0 4.526-3.681 2.305-5.565-11.54-9.784-19.537-22.038-25.46-35.86zm-234.545-116.956a3.979 3.979 0 0 1 1.171-1.4 3.454 3.454 0 0 1 3.813-.183 130.257 130.257 0 0 0 55.53 16.769 1.945 1.945 0 0 1 1.437 3.132c-1.77 2.219-5.071 4.681-10.708 3.668-17.519-3.149-34.831-8.247-49.925-17.625a3.4 3.4 0 0 1 -1.333-4.332zm78.348 18.221c0-.019.008-.036.012-.055.031.039.062.078.09.118q-.051-.036-.102-.063zm-28.293-62.786c13.61 34.443 3.585 37.237 22.877 31.655a2.4 2.4 0 0 1 2.961 3.021c-1.61 5.153-4.551 13.618-7.491 17.2a7.588 7.588 0 0 1 -6.337 2.7 121.325 121.325 0 0 1 -33.305-6.978c-6.87-1.559-9.9-7.05-7.422-14.263.783-3.021-4.054-4.541-4.76-1.312h-.009a30.729 30.729 0 0 0 -2.231 9.139c-.694-.369-1.389-.734-2.076-1.117-2.467-4.919 3.653-15.206 5.964-19 6.291-10.806 17.085-16.75 27.7-22.539a2.932 2.932 0 0 1 4.129 1.494zm-45.706-3.9 8.619 14.813a7.156 7.156 0 0 1 .631 5.76c-1.725 5.454-5.051 14.234-11.51 15.145-5.688.8-13.884-9.89-13.884-9.89a274.893 274.893 0 0 1 12.468-25.762 2.105 2.105 0 0 1 3.676-.07zm-22.93 29.193c1.936.127 6.1 4.992 7.651 6.3q2.734 2.3 5.592 4.447a12.035 12.035 0 0 0 -4.3 5.25c-3.466-2.56-18.84-13.738-8.943-16.001zm-110.964 40.239c.305-3.306-1.207-7.827 1.973-11.055.356 1.327 2 6.548 2.463 7.838-.651.498-3.633 2.631-4.436 3.217zm8.115-5.934c-4.11-11.545-3-8.6 5.454-17.593a3.461 3.461 0 0 1 3.137-.917c1.616.329 9.28 1.385 11.307 1.942.1 3.125-.017 6.311-.181 9.493-.458-1.4-.943-2.744-1.429-4a2.1 2.1 0 0 0 -4.041 1.114c.28 1.87 1.808 8.613 2.626 12.176a1.433 1.433 0 0 1 -1.722 1.717c-2.871-.662-7.744-1.742-9.97-1.985a56.058 56.058 0 0 0 5.729-5.573c2.011-2.3-1.131-5.52-3.378-3.377s-7.47 6.952-7.532 7.003zm318.289 136.9c-43.1.275-276.458 1.949-300.977-4.233-7.077-1.784-12.059-8.447-19.208-10.167-3.633-.874-7.479-.437-11.077-1.4-9.088-3.093-1.3-11.812-15.9-15.228-2.06-5.264 4.721-8.217 8.222-10.59 5.807-4.1 7.374-11.173 14.463-13.729 2.588-.933 2.461-5.5-.7-5.178a15.434 15.434 0 0 0 -11.385 6.124 23.284 23.284 0 0 1 -9.946 10.07c-.984-13.493 2.341-15.111 13.323-21.139 3.016-2.627 4.286-6.472 6.574-9.643a110.634 110.634 0 0 1 11.259-12.043c18.14-12.119 9.038-16.462 23.856-23.4 4.674-2.961 8.89 2.02 13.8-.8 3.372-1.289 7.144-2.387 10.13-4.42a2.823 2.823 0 0 0 -2.164-5.134c-4.089.47-7.8 3.52-11.77 4.134-1.29-.081-2.45-1.266-3.85-1.565a9.7 9.7 0 0 0 -4.528.262c-8.3 2.278-16.39 8.218-18.786 16.752.128-5.83-.665-12.665 4.017-17 17.361-16.919 39.588-35.732 72.3-40.666a14.846 14.846 0 0 1 13.994 7.09c1.864 3.767-1.664 8.782-3.434 12.651-1.564 3.3-4.295 3.344-7.54 3.992-2.936.586-2.081 4.881.679 5.016 15.032.315 8.183-9.194 22.156-11.964 5.308.74 8.469 6.085 12.843 8.859 10.486 8.081 22.5 14.341 35.6 16.612a20.527 20.527 0 0 1 7.551 6.451 36.8 36.8 0 0 0 13.654 13.123c3.433 1.974 6.432-3.2 3.093-5.292-5.918-2.884-10.187-7.74-13.486-13.231 12.517.54 25.275-.2 35.6 8.243 5.108 4.174 8.714 11.212 15.217 12.546a56.078 56.078 0 0 1 35.487 23.487c1.786 4.146-5.025 2.329-6.676 3.261-1.839.62-2.537 3.721-.548 4.187 49.25 11.523 47.242 46.042 70.169 59.252 2.122 1.225.436 4.699-2.012 4.715z"/><path d="m196.644 369.835c2.477-3.517 5.924-3.925 9.5-5.86 3.055-1.654 4.341-5.29 7.545-6.19 8.726-2.451 17.879-.34 25.173 4.639 2.209 1.508 4.642-1.815 2.812-3.645a26.4 26.4 0 0 0 -15.264-7.109c1.2-3.127 5.257-9.5 2.771-12.122-5.358-4.014-10.082-10.85-17.662-6.876-2.071.686-4.644.826-6.486 2.107-2.879 3-3.977 7.565-5.3 11.445-.908 4.236 4.411 6.156 6.826 8.741-3.923 6.11-14.4 5.064-15.135 13.456-.231 3.017 3.776 3.471 5.22 1.414zm14.4-30.352c1.943-.547 3.941-1.157 5.9-1.7l6.42 4.974c-1.154 2.907-2.692 5.664-3.795 8.56-1.249.042-2.492.134-3.719.279-1.3-1.048-3.008-1.679-4.16-2.792 2.355-.864 4.7-1.743 6.98-2.7 1.991-.839 2.1-4.522-.573-4.234a37.361 37.361 0 0 0 -8.616 2.105 11.414 11.414 0 0 1 1.563-4.492z"/><path d="m213.083 439.035c-9.476-.362-7.141-5.274-14.881-5.81.327-5.668-4.321-11.163-7.72-15.329-6.039-6.15-14.076 12.536-16.266 14.473 0 0-4.712.624-5.967 1.013a2.906 2.906 0 0 0 .769 5.68c2.474.126 7.05-.55 9.7-.05 12.082 4.895 15.7-1.305 19.588.217 2.271.89 3.913 2.855 6.158 3.856 4.64 1.286 9.22 2.268 13.434 4.718 2.72 1.17 5.362-1.8 3.241-4.2-2.07-2.345-4.947-4.449-8.056-4.568zm-22.38-5.4a9.288 9.288 0 0 1 -4.2.513c-1.836-.033-5.044.37-5.253-2.28-.1-1.223 4.585-7.239 5.826-8.657.429.662 3.341 4.863 4.147 6.393.94 1.796 1.545 2.948-.523 4.032z"/><path d="m51.4 219.92c9.657.546 20.431-1.848 28.217 5.6 7.751 6.854 11.4 18.835 14.829 28.311 1.4 3.857 7.215 2.373 6.216-1.714-2.482-11.661-4.791-24.04-2.713-35.918 1.568-6.452 8.5-10.062 13.89-13.094 2.833-1.594 1.8-6.938-1.765-6.515-25.929 4.544-29.4-10.28-35.571-31.285-1.127-4.051-6.739-2.258-6.144 1.7 3.129 20.142 6.981 37.749-16.3 46.379-3.497.054-4.322 5.96-.659 6.536zm21.342-14.2c2.724-4.684 3.833-10.151 4.069-15.822 4.274 8.384 11.37 13.575 21.1 14-7.522 5.744-8.2 15.644-7.533 24.329a30.5 30.5 0 0 0 -24.838-15.2 22.146 22.146 0 0 0 7.2-7.308z"/><path d="m231.177 90.63c8.7 3.138 19.182 3.633 24.781 12.158 6.261 8.81 6.376 21.97 7.062 32.4.271 4.121 6.269 4.175 6.446 0 .9-11.968 2.081-24.652 7.557-35.5 3.3-5.572 11.03-7.068 16.9-8.444 3.206-.753 3.461-6.172 0-6.744-6.806-1.124-17.35-3.141-20.953-9.653-4.721-8.531-4.565-20.836-4.462-30.323.046-4.231-5.848-3.928-6.372 0-2.515 20.044-3.968 38.291-28.553 39.967-3.436-1.013-5.777 4.551-2.406 6.139zm24.22-7.582c4.01-3.738 6.63-8.758 8.457-14.218 1.781 9.24 7.178 16.223 16.39 19.325-8.8 3.418-12.224 12.7-14 21.211a30.509 30.509 0 0 0 -19.618-21.473 22.219 22.219 0 0 0 8.774-4.845z"/><path d="m388.3 258.087c2.892 2.3 6.413 3.537 9.624 5.324 17.658 8.253 14.46 29.528 11.237 45.292-.67 4.01 5.072 5.79 6.217 1.713a125.943 125.943 0 0 1 7.416-19.721c2.071-4.38 4.345-9.013 7.6-12.653 4.584-5.129 12.358-4.9 18.764-4.9 4.236 0 4.364-5.436.93-6.869-4.561-2.408-15.377-6.752-17.431-13.908-2.658-9.32.324-21.267 2.582-30.413 1-4.051-4.7-5.467-6.144-1.694-7.044 18.94-12.62 36.5-37.008 32.464-3.078-1.613-6.701 3.046-3.787 5.365zm25.581-1.884c4.643-2.725 8.268-6.917 11.248-11.7-.354 9.415 3.376 17.43 11.572 22.487-9.381 1.3-14.85 9.6-18.531 17.5a30.56 30.56 0 0 0 -14.122-25.467 22.172 22.172 0 0 0 9.83-2.823z"/><path d="m125.118 196.72c3.441 3.5 8.832-1.919 5.343-5.343-3.44-3.505-8.832 1.923-5.343 5.343z"/><path d="m249.193 396.129a16.1 16.1 0 0 0 -7.972 1.334c-6.079 2.114-5.02-8.568-13.2-7.874-7.846.515-38.713 4.7-31.249 18.441 1.045 1.923 4.633 1.179 4.353-1.179-.6-5.079 8.592-7.631 12.275-8.771 4.405-.894 12.818-4.97 16.591-.185 1.393 2.289 1.791 5.176 2.184 7.907 2.073 7.207 13.31-6.8 21.655 1.244 3 2.929 3.3 7.268 8.417 7.026a3.271 3.271 0 0 0 3.18-4.174c-3.637-10.364-11.962-13.298-16.234-13.769z"/><path d="m344.837 384.024a2.764 2.764 0 0 0 4.459-2.076c-.523-5.866-8.507-1.786-4.459 2.076z"/></g></svg>