<svg height="512" viewBox="0 0 500 500" width="512" xmlns="http://www.w3.org/2000/svg"><g id="Layer_4" data-name="Layer 4"><path d="m67.936 441.516 235.022 9.036s122.717 19.3 177.285-5.818l-15.643-14.657-20.921-2.731-13.5-15.951h-27.679l-19.665-4.176-22.509 7.581-22.605 23.032-25.447 11.451-116.474-8.774-25.064-17.809-15.993-15.483-14.17-.885-16.365 4.8-14.394 5.05-11.681 16.15s-16.085 9.702-30.197 9.184z" fill="#ffdbb8"/><path d="m95.462 324.562-13.499 3.181-12.027 6.357-8.991 11.359-.61 15.547 2.425 19.483 8.846 21.296 11.093 16.811 12.763 11.303 6.3 1.247 10.052-12.572 18.986-7.436 9.952-7.311 5.037-28.225-3.216-30.752-2.734-16.618-9.039-7.142h-16.124z" fill="#e6eeff"/><path d="m162.093 312.046 102.181 8.711 2.687-7.932 10.433-3.077 3.589 2.298 12.282 10.317 15.501-2.903 15.478-6.635 4.104-10.617 11.472-2.298 6.116 7.812 14.39-9.953-2.959-12.73-30.244-9.289-21.891-3.204-17.914-3.895-18.453-3.337-18.865 1.315-18.692 6.904-14.378.986-12.1 5.26-4.274 6.893-17.095 2.99-12.725 12.546z" fill="#ffda76"/><path d="m345.936 307.722 14.39-9.953-2.959-12.73-30.244-9.289-21.891-3.2-17.914-3.895-.145-.026a16.866 16.866 0 0 1 1.552 3.674c.989 3.426 1.022 7.5 3.738 9.812 2.887 2.458 7.608 1.741 10.386 4.321 4.183 3.884-.1 11.379-5.615 12.861s-11.319-.416-17.027-.416c-9.528 0-18.189 5.241-27.431 7.558-6.2 1.556-12.656 1.785-19.049 1.732q-8.526-.072-17.03-.794c-3.146-.268-6.429-.651-9.05-2.412s-4.3-5.338-2.909-8.173c2.1-4.282 9.044-3.911 11.474-8.014 1.805-3.046.206-6.917.476-10.447a10.493 10.493 0 0 1 1.09-3.866l-.848.058-12.1 5.26-4.274 6.893-17.095 2.99-12.725 12.546-8.643 9.838 102.181 8.711 2.687-7.932 10.433-3.077 3.589 2.3 12.282 10.317 15.5-2.9 15.478-6.635 4.1-10.617 11.47-2.3z" fill="#f48a4e"/><ellipse cx="247.383" cy="296.874" fill="#fff" rx="8.111" ry="3.036"/><ellipse cx="284.47" cy="288.167" fill="#fff" rx="4.206" ry="1.495"/><path d="m60.76 125.106 17.631 8.715 34.285 214.281v8.839l-10.372 1.713-4.171-5.597z" fill="#9ba9c9"/><path d="m93.543 46.261h-10.288l-58.482 9.747-5.145 7.581 1.625 12.455 3.52 17.056 13.537 20.037 17.87 10.563h16.515l12.472-5.686 10.542-9.987 5.415-13.3v-37.365zm-6.825 37.639-1.551 13.8-7.057 7.6-10.174 5.4h-10.944l-11.642-14.35-7.85-13.808v-10.289l6.227-4.332 26.261-3.521 15.179-1.083 3.708 8.664z" fill="#e8756d"/><path d="m130.8 411.138 9.952-7.311 5.037-28.225-3.216-30.752-2.734-16.618-9.039-7.142h-9.384c5.838 21.472 5.533 44.643-2.718 65.219-2.941 7.335-6.949 14.419-12.879 19.642s-14 8.392-21.8 7.139a25.763 25.763 0 0 1 -6.18-1.865l4.861 7.375 12.763 11.3 6.3 1.247 10.052-12.572z" fill="#9ba9c9"/><path d="m149.734 312.825 155.5 9.538 94.2-34.2v123.237l-21.948-5.523-27.086 21.469-12.676 10.481-25.447 11.451-14.683 1.274-94.356-7.246s-28.825-12.48-30.219-13.407-13.184-24.027-13.184-24.027l-16.363.888z" fill="#f7978d"/><path d="m359.519 302.655c4.029 10.193 5.36 21.686 5.755 32.762.38 10.66.047 21.543-3.406 31.635s-10.426 19.4-20.253 23.548c-9.161 3.868-19.955 3.022-28.674 7.8-8.012 4.393-12.873 12.728-18.792 19.689-11.491 13.515-26.9 21.8-43.321 28.87l46.763 3.591 14.683-1.274 25.447-11.451 12.679-10.479 27.084-21.474 1.046.263c1.309-37.825 6.547-75.569 8.091-113.317z" fill="#bf4c4c"/><path d="m399.429 289.662 69.716 20.086-4.547 15.279-9.575 16.214-18.958 9.111-20.699-2.903-14.703-14.636-3.881-14.12z" fill="#bf4c4c"/><path d="m399.429 411.4v-43.3c-9.316 10.76-24.561 16.443-38.584 13.534l6.439 5.122a87.914 87.914 0 0 0 -3.491 29.974l13.688-10.853z" fill="#bf4c4c"/><path d="m181.99 155.457s28.613-.289 31.88 34.6l3.06-2.379s-3.227-27.484 17.386-34.883l-2.115-3.436s-22.462-2.959-24.048-25.659c0 0-1.586 29.667-26.163 31.757z" fill="#ffda76"/><path d="m337.116 158.868s-5.814 24.048 20.877 35.148c0 0-22.193 5.285-27.217 35.147 0 0 8.578-28.541-22.8-40.961 0-.002 20.948-4.229 29.14-29.334z" fill="#f48a4e"/><g fill="#a9ffde"><circle cx="270.093" cy="338.573" r="9.471"/><circle cx="274.199" cy="318.192" r="9.471"/><circle cx="269.015" cy="357.859" r="9.471"/><circle cx="270.57" cy="376.118" r="9.471"/><circle cx="280.264" cy="393.418" r="9.471"/><circle cx="300.963" cy="400.654" r="9.471"/></g><circle cx="318.723" cy="397.748" fill="#72cace" r="9.471"/><circle cx="333.951" cy="385.315" fill="#72cace" r="9.471"/><circle cx="339.82" cy="366.647" fill="#72cace" r="9.471"/><circle cx="339.377" cy="347.449" fill="#72cace" r="9.471"/><circle cx="338.697" cy="327.038" fill="#72cace" r="9.471"/><circle cx="335.211" cy="309.222" fill="#a9ffde" r="9.471"/><path d="m303.963 391.676a12.114 12.114 0 0 1 -.543 5.15 8.264 8.264 0 0 1 -5.692 4.744 11.888 11.888 0 0 1 -6.2-.226 9.466 9.466 0 1 0 12.436-9.668z" fill="#72cace"/><circle cx="273.237" cy="314.895" fill="#fff" r="4.565"/><path d="m144.731 387.833a68.784 68.784 0 0 0 84.122-67.076c0-1.034-.032-2.061-.078-3.084l-79.041-4.848z" fill="#ffebe8"/><path d="m480.244 444.734-15.644-14.657-20.921-2.731-13.5-15.951h-10.479a21.011 21.011 0 0 1 5.43 12.3c.519 7.813-4.212 15.23-10.425 20s-13.778 7.356-21.194 9.868l-11.5 3.9c34.909.904 73.545-1.363 98.233-12.729z" fill="#eab386"/><path d="m241.933 448.206a38.361 38.361 0 0 0 1.441-4.115l-47.574-3.582-25.064-17.809-15.993-15.483-10.312-.644c3.108 3.976 5.042 8.9 4.43 13.856-1.006 8.145-8.3 13.981-15.568 17.8a99.7 99.7 0 0 1 -12.14 5.329z" fill="#eab386"/><path d="m101.124 80.105v-22.743l-7.581-11.1h-10.288l-30.061 5.01a33.877 33.877 0 0 1 9.922 8.648 49.567 49.567 0 0 1 3.41 4.946l3.462-.464 15.179-1.083 3.708 8.664-2.157 11.917-1.551 13.8-5.189 5.584a32.74 32.74 0 0 1 -1.727 12.493 31.1 31.1 0 0 1 -3.58 7.014l10.5-4.785 10.542-9.987 5.415-13.3z" fill="#bc4242"/></g><g id="Layer_5" fill="#3a3245" data-name="Layer 5"><path d="m25.314 97.653c6.018 13.558 18.273 24.717 32.686 28.678l30.958 195.528c-16.475 1.561-31.758 11.356-34.318 28.885.327 30.427 9.984 65.472 37.794 81.395a50.856 50.856 0 0 1 -24.691 6.852c-3.72.071-3.588 5.344 0 5.687 13.787 1.158 27.914-4.9 37.53-14.674 3.864-4.541 6.763-9.228 12.371-11.872a23.592 23.592 0 0 1 8.446-2.2c2.113-.133 4.29.532 6.268-.333 1.691-.739 3.067-2.069 4.766-2.906a20.271 20.271 0 0 1 21.107 3.752c3.936 3.768 5.321 9.354 8.7 13.569 6.968 8.7 19.584 12.477 29.955 15.13 14.089 3.468 28.758 3.128 43.124 4.7q28.119 2.27 56.238 4.541c4.78.886 9.558.848 13.9-1.65l35.557-13.835c3.83-1.491 6.845-1.962 8.489-6 6.333-15.888 25.724-24.692 41.738-18.318 12.492 5.169 27.1-4.89 37.828 5.548 4.009 3.786 5.545 8.971 11.1 11.035 14.289 3.252 22.181 2.609 32.231 15.856 2.589 3.4 8.192.472 5.91-3.455-7.373-13.158-20.69-17.784-34.8-19.28-3.565-1.286-4.747-4.606-7.028-7.339-11.253-13.2-22.965-8.6-37.478-8.309q-.344-29.416-.6-58.846c9.661 5.552 22.3 6.5 33.457 4.1 21.6-2.29 31.668-26.143 35.937-44.739a3.677 3.677 0 0 0 -2.528-4.454c-23.588-5.935-46.86-13-70.392-19.1-2.967-.279-16.954-.648-22.311-1.627-18.378-20.544-45.393-18.95-70.307-15.143-12.731-.188-24.21-6.93-37.013-7.334a80.863 80.863 0 0 0 -42.663 9.035c-12.122 3.634-9.669-7.178-25.837 9.947-3.335 3.166-7.247 3.684-11.462 4.979-9.382 3.113-16.342 10.586-24.207 16.307-6.773 2.122-13.2 4.03-19.539 7.3-4.611 1.59-1.767 10.832-2.515 14.888-8.892-7.237-21.01-8.338-31.968-5.725l-30.767-194.296a41.2 41.2 0 0 0 17.92-17.292c5.874-10.577 6.6-23.639 6.752-35.477.294-11.512.262-31.038-16.569-28.583-14.429 2.351-44.736 7.036-58.767 9.305-16.307 2.3-15.563 15.281-11.069 27.953a120.528 120.528 0 0 0 6.067 17.817zm427.405 210.219c-1.854 11.321-7.71 27.408-21.791 24.622-14.669-2.9-15.229-21.681-16.262-34.725 12.591 3.659 25.334 6.931 38.053 10.103zm-43.66-11.772c-6.665 44.483 41.077 63.526 50.016 13.362l5.523 1.372c-3.08 11.875-7.732 24.848-17.913 32.1-18.386 13.1-39.564-4.624-43.9-23.515q-.129-12.678-.285-25.354 3.27 1.035 6.559 2.035zm-19.6 52.782c-.171-17.473.283-34.922-.173-52.4l6.217-2.171q.626 54.084 1.277 108.167a29.411 29.411 0 0 0 -7.554-1.2c1.306-17.321.226-35.114.235-52.401zm-219.159 30.953c-.514-9.326-.685-18.627-.715-27.924 28.5 1.991 57.017 3.681 85.517 5.637a17.863 17.863 0 0 0 1.48 7.79c.759 2.764-.019 3.165-.769 5.595a18.588 18.588 0 0 0 2.334 16.283c-29.252-1.888-58.491-4.074-87.758-5.711q-.039-.835-.089-1.67zm4.421 35.189c-2.7-8.5-3.477-17.757-3.989-26.989 30.835 2.1 61.687 3.981 92.523 6.076-.459 11.653 12.9 20.542 23.606 15.606a9.849 9.849 0 0 0 4.86 4.941q.058 4.021.156 8.044c-39.041-2.611-78.077-5.486-117.152-7.678zm112.293-83.024a12.423 12.423 0 0 0 4.347-2.513c-.208 8.007.071 16.081.131 24.072q-3.933-.294-7.866-.58a15.057 15.057 0 0 0 -.854-3.394 22.019 22.019 0 0 0 4.242-17.585zm-3.806 27.358q4.155.253 8.309.5.018 12.042.076 24.085a12.865 12.865 0 0 0 -7.686-4.77 12.922 12.922 0 0 0 -4.108-13.532 14.2 14.2 0 0 0 3.409-6.283zm-7.792 31.693c1.148-7.763 12.892-6.054 11.835 1.659-1.109 7.724-12.881 6.09-11.835-1.659zm-.361-10.707c-8.936 5.768-14.175-9.982-3.6-10.747 5.562-.197 8.163 7.553 3.6 10.747zm5.862-60.822c-1.121 7.739-12.892 6.076-11.835-1.659 1.118-7.728 12.884-6.087 11.835 1.659zm-10.364 11.8c8.355.091 7.5 12.941-.817 11.893-7.182-.834-6.399-12.045.817-11.89zm-5.285 20.291c6.258-4.685 13.415 4.821 7.2 9.541-6.268 4.679-13.419-4.807-7.2-9.538zm22.707 94.708q-26.084-2.049-52.167-4.093c-14.45-.933-29.143-1.132-43.074-5.6-6.431-3.038-10.93-8.807-14.612-14.76q56.968 3.575 113.92 7.395c.147 5.783.291 11.563.35 17.335-1.483-.079-2.96-.159-4.417-.274zm5.355-48.221c1.15-7.752 12.878-6.066 11.836 1.659-1.111 7.725-12.881 6.091-11.836-1.659zm14.545-41.93c0 10.619.073 21.237.1 31.856-.2.267-.4.544-.581.827a12.894 12.894 0 0 0 -9.283-2.838c-.239-20.105.406-40.229-.171-60.328 3.43.328 6.8.689 9.965-.661-.546 10.33-.03 20.823-.03 31.145zm-4.554 91.3a.67.67 0 0 0 -.205.113 52.029 52.029 0 0 0 -5.525-.668c.053-10.081.371-20.187.5-30.286a16.829 16.829 0 0 0 10.009-1.919c.159 10.2.576 20.425.667 30.624-1.819.703-3.64 1.402-5.446 2.134zm9.021-52.381c1.147-7.761 12.892-6.055 11.835 1.659-1.108 7.731-12.897 6.079-11.835-1.661zm18.434-57.152a12.9 12.9 0 0 0 -3.921 8.787c-4.222 1.537-8.284 3.369-12.408 5.16.051-9.7.426-19.516-.327-29.152l8.368-2.919a8.026 8.026 0 0 0 4.33 5.185 12.988 12.988 0 0 0 3.958 12.937zm-2.051 35.676a12.962 12.962 0 0 0 -7.213 9.751 12.822 12.822 0 0 0 -7.035.162q-.009-12.308-.033-24.616c4.563-2.031 9.061-4.206 13.8-5.851a13.063 13.063 0 0 0 2.557 3.468 13 13 0 0 0 -2.076 17.084zm-.311 10.875c1.113-7.737 12.9-6.079 11.835 1.659-1.109 7.721-12.881 6.089-11.835-1.661zm10.142-12.33c-7.738-1.109-6.076-12.9 1.658-11.834 7.727 1.12 6.086 12.876-1.658 11.832zm.433-19.014c-7.742-1.126-6.067-12.894 1.66-11.834 7.728 1.12 6.088 12.881-1.66 11.832zm6.311-24.084c-1.119 7.732-12.878 6.086-11.836-1.658 1.109-7.727 12.877-6.089 11.836 1.658zm-4.166-18.481c-1.107 7.732-12.9 6.081-11.835-1.659 1.142-7.761 12.887-6.055 11.83 1.659zm10.8 109.642a91.591 91.591 0 0 1 -14.39 13.867l-23.574 9.218c.042-5.035.154-10.078.267-15.122 15.993-5.176 31.456-11.951 47.248-17.681a74.552 74.552 0 0 0 -9.557 9.718zm23.183-45.37c-.58 7.757-.1 17.26-3.963 24.305-18.853 7.6-38.039 14.352-56.775 22.258q.1-4.907.13-9.811a16.417 16.417 0 0 0 17.636-9.285c11.666 3.279 22.254-9.981 17.037-20.612 8.712-3.5 17.46-6.712 26.171-10.191-.086 1.112-.159 2.224-.242 3.336zm1.726-25.619q-.456 7.507-.974 15.009c-7.845 3.09-15.7 6.16-23.5 9.35 2.227-5.99 1.631-13.285-3.035-17.556a12.962 12.962 0 0 0 3.19-11.413c8.369-3.446 16.576-7.211 24.965-10.6-.167 5.095-.345 10.178-.652 15.21zm2.623-49.322c-1.08 8.881-1.468 17.921-1.758 26.958-9.488 3.465-19.091 7.274-27.865 12.143a13.016 13.016 0 0 0 -1.421-1.493c6.152-5.514 4.695-16.654-2.48-20.477a12.645 12.645 0 0 0 2.188-6.185zm-202.966 5.308c3.9-11.4 19.753-16.529 30.62-13.613 3.394 1.158 3.025 5.541 6.742 6.8 3.541 1.227 8.3.5 11.748 1.657 2.015 1.406 1.825 4.519 4.64 5.251a2.96 2.96 0 0 0 3.565-2.024c.834-2.559-1.645-6.328-3.424-8.017-3.356-3.362-9.961-.976-13.653-3.264-3.257-4.693-3.573-6.248-10.108-6.831 12.205-15.661 15.964-1.482 29.719-1.021 3.137-.058 5.968-1.484 9.171-1.305 3.856.215 7.312 2.117 11.071 2.69 3.129.476 5.12-3.389 2.222-5.269a26.962 26.962 0 0 0 -17.156-3.835c-3.58.516-6.121 1.482-9.613 0 15.246-7.993 33.591-9.753 50.24-5.633 6.931 1.746 13.506 4.846 20.693 5.488 7.5.155 13.18-.748 20.866 2.558 2.65 6.508-8.657 2.958-7.934 12.083.131 2.9 3.765 3.112 4.788.648 2.1-5.068 18.391-1.7 22.214-1.038 6.489 1.783 9.4 7.465 2.74 11.515-6.611-9.626-22.889-4.989-23.365 6.726-11.516 5.522-23.458 10.838-35.872 3.77-5.329-10.885-22.9-7.8-24.243 4.23q-40.991-2.416-81.949-5.4c-2.477-1.069-4.311-2.939-3.722-6.166zm-6.684 12.349q46.612 3.43 93.268 6.239a13.033 13.033 0 0 0 1.189 2.162c-7 3.615-8.9 13.731-3.667 19.626a13.777 13.777 0 0 0 -4.1 5.5c-28.975-1.864-57.934-4.073-86.926-5.666.038-9.28.169-18.559.237-27.861zm-19.16 6.695v-8.122q4.694.356 9.388.7c-.573 29.678-.824 59.316-.213 89.033-2.943-1.331-6.437-2.588-9.482-2.269.985-26.399.305-52.935.308-79.342zm-28.321-1.4c7.466-1.127 14.435 6.542 13.278 13.81a41.253 41.253 0 0 0 -21.359-2.581l-1.579-9.972a67.864 67.864 0 0 1 9.661-1.261zm-7.735 35.022c2.366-3.081 2.557-7.054 1.723-10.723 18.232 1.006 19.786 11.95 19.015 27.605.123 11.954 1.99 27.953-10.536 34.464-13.278.788-19 10.182-27.054 18.951-20.015-10.2-30.442-30.3-34.264-51.925-6.437-25.021-2.924-45.217 26.4-48.513l1.648 10.41c-25.748 3.755-22.012 39.182-12.777 56.9.975 1.831 4.43 1.114 4.134-1.119-.4-2.993-1.062-6.078-1.776-9.212-1.358-12.855-1.344-27.361 12.605-32.767.617 10.509 14.992 14.545 20.882 5.929zm-4.852-7.491c.906 5.84-8 7.293-8.962 1.419l-32.85-207.487c3.08 2.222 9.99 6.518 10.23 6.59zm-24.648-271.829c.812 34-30.2 40.96-41.719 8.228-1.6-4.806-5.558-14.088 1.52-15.664 7.552-1.682 15.426-2.443 23.068-3.652 12.894-2.155 17.852-5.458 17.131 11.088zm-59.177-19.387c2.728-1.647 7.159-1.694 10.194-2.177l46.729-7.4c-4.762 26.667-63.731-3.179-44.353 41.3a42.373 42.373 0 0 0 15.336 19.8c13.6 8.468 28.067.3 33.865-13.189 2.908-5.2 1.417-13.94 8.012-16.138 7.012-1.016-.088 19.756-2.209 22.624-17.538 31.071-54.965 15.448-64.574-13.3a139 139 0 0 1 -4.585-15.167c-1.289-5.208-4.272-12.818 1.585-16.353z"/><path d="m267.851 288.759c2.783 2.856 7.6-1.743 4.237-4.343-2.888-2.379-6.94 1.536-4.237 4.343z"/><path d="m177.348 159.673c9.42 2.18 20.362 2.044 26.751 10.65 6.981 8.656 8.306 22.22 9.988 32.9.588 3.733 6.767 2.853 6.586-.892-.2-12.482-.223-25.7 4.318-37.5 2.827-6.174 10.565-8.538 16.547-10.529a3.655 3.655 0 0 0 -.967-7.144c-7.008-.513-17.891-1.771-22.06-8.1-5.491-8.341-6.6-20.857-7.374-30.56-.337-4.217-6.447-4.31-6.628 0-.47 11.2-.161 27.688-8.389 36.644-4.386 4.774-11.454 5.893-17.465 7.758-3.965-.5-5.275 5.326-1.307 6.773zm23.833-10.353c3.776-4.264 6.017-9.691 7.4-15.5 2.724 9.369 9.016 16.133 18.8 18.449-8.882 4.38-11.47 14.443-12.483 23.478a31.684 31.684 0 0 0 -22.3-20.578 22.942 22.942 0 0 0 8.583-5.849z"/><path d="m299.3 189.96c8.578 4.027 19.158 5.853 23.89 15.167 5.535 9.906 4.088 23.731 3.6 34.7-.165 3.7 6.01 4.674 6.591.892 2.415-12.6 4.94-26.143 12.333-36.869 4.224-5.2 13.461-5.595 19.608-6.312 3.776-.44 5.285-6.095.966-7.144-17.078-3.882-25.54-8.2-24.368-27.251a127.453 127.453 0 0 1 .941-17.158c.454-3.737-5.625-4.445-6.507-.881-2.711 10.941-5.628 27.1-15.432 34.364-5.284 3.913-12.526 3.57-18.836 4.232-3.65-1.008-6.403 4.041-2.786 6.26zm25.451-5.2c4.81-3.539 8.219-8.706 10.8-14.442.138 10.141 5.247 18.364 14.85 22.366-9.827 2.3-14.432 11.819-17.318 20.564a31.482 31.482 0 0 0 -17.807-24.561 23.207 23.207 0 0 0 9.471-3.93z"/><path d="m89.485 403.827c-3.6 0-3.605 5.594 0 5.594s3.606-5.594 0-5.594z"/><path d="m372.468 435.481c4.057 2.439 7.782-3.949 3.682-6.3-4.136-2.381-7.767 3.847-3.682 6.3z"/><path d="m392.1 425.621a3.429 3.429 0 0 0 -6.435 1.743c.435 5.875 9.081 3.623 6.435-1.743z"/><path d="m390.527 437.8c-4.493-.071-4.484 6.993 0 6.934 4.494.066 4.485-6.993 0-6.934z"/><path d="m128.8 431.22c3.649 0 3.656-5.672 0-5.672s-3.656 5.672 0 5.672z"/><path d="m145.256 424.351c3.245 1.947 6.227-2.982 3.257-5.123-3.259-2.57-6.782 3.128-3.257 5.123z"/><path d="m142.337 430.19c-3.565 1.319-1.171 7 2.264 5.369 3.565-1.319 1.171-6.999-2.264-5.369z"/></g></svg>