<svg height="512" viewBox="0 0 500 500" width="512" xmlns="http://www.w3.org/2000/svg"><g id="Layer_4" data-name="Layer 4"><path d="m412.568 264.541c-7.733-28.2-26.953-52.257-50.007-70.247-8.3-6.479-17.934-13.567-19.061-24.038l-6-26.956s40.263-29.292 55.057-64.367c0 0-24.966 28.933-59.331 29.147 0 0-28.9 1.247-64.013-9.132s-83.113 6.252-83.113 6.252-42.738 15.486-74.956 2.879h-17.235s22.933 30.836 70.35 46.91c-.273.257-.415.393-.415.393 2.53 8.711 8.767 18.392 15.1 24.888-18.562-.389-34.818 11.84-48.575 24.308-23.336 21.15-47.15 43.851-60.016 72.6 0 0-36.81 64.686 30.34 120.915 25.058 20.982 57.751 30.149 89.845 36.327 36.071 6.944 73.264 11.278 109.477 5.119s71.655-23.915 92.824-53.936c15.82-22.436 22.725-50.213 23.9-77.641.615-14.586-.311-29.342-4.171-43.421z" fill="#ffd0be"/><path d="m412.568 264.541c-7.733-28.2-26.953-52.257-50.007-70.247-8.3-6.479-17.934-13.567-19.061-24.038l-4.947-25.609s35.014-30.639 49.808-65.714c0 0-29.646 40.907-86.541 27.051-9.74 19.69-17.064 52.514-48.781 50.558-.394-.024-1.751-.453-1.964-.218-7.674 8.484-22.39 4.227-31.983-1.358a45.306 45.306 0 0 1 -12.792-11.691c-2.37-3.069-4.673-6.513-8.266-7.969a1.922 1.922 0 0 0 -1.809-.034 1.821 1.821 0 0 0 -.549.77 7.59 7.59 0 0 0 -.29 5.56c2.357 6.9 9.63 9.317 13.342 14.881a14.114 14.114 0 0 1 2.185 5.576 4.315 4.315 0 0 1 -.046 2.016 4.57 4.57 0 0 1 -1.743 2.074 21.58 21.58 0 0 1 -15.434 4.175l-1.266 3.724a16.437 16.437 0 0 0 4.614 5.641 147.554 147.554 0 0 1 -17.706-4.54l-.778.567a128.49 128.49 0 0 0 28.122 35.157c-3.147 9.316-4.046 19.6-4.353 29.311a195.089 195.089 0 0 0 3.733 45.071c1.219 5.987 3.022 12.047 8.012 16.006a11.4 11.4 0 0 0 9.292 2.478c6.2-1.268 8.386-7.381 10.04-12.834 3.4-11.206 6.826-23.035 4.229-34.454-1.431-6.3-4.658-12.19-5.126-18.63a31.249 31.249 0 0 1 .794-8.847q2.422 1.231 4.895 2.36c9.682 4.4 26.869 7.864 37.6 9.733a12.713 12.713 0 0 1 10.478 11.3l1.934 20a41.962 41.962 0 0 0 6.659-13.342 8.2 8.2 0 0 1 14.535-2.382c16.037 22.8 17.852 63.941 13.47 87.759-3.4 18.467-10.882 36.737-24.437 49.731-13.692 13.125-32.326 19.78-50.827 23.962a252.248 252.248 0 0 1 -124.067-3.495c20.278 10.634 44.277 15.441 67 19.815 36.071 6.944 73.264 11.278 109.477 5.119s71.655-23.915 92.824-53.936c15.82-22.436 22.725-50.213 23.9-77.641.616-14.581-.31-29.337-4.17-43.416z" fill="#ef827f"/><path d="m184.965 63.633-4.199 18.566 8.647 12.007 9.199 7.219 17.846-2.477 26.943-4.742 3.409-35.035-4.504-6.036-15.612-6.561-29.178 9.178z" fill="#a1d0ff"/><path d="m263.951 51.323-17.141 11.33-3.41 32.572 10.92 1.274s15.861-13.737 16.994-25.916a23.412 23.412 0 0 0 -7.363-19.26z" fill="#6b8ad6"/><path d="m258.384 96.499 20.305-35.611 43.209.048-2.857 47.144-39.368-4.921z" fill="#8fdd7c"/><path d="m331.414 76.039-9.514 8.445-2.346 15.163 2.346 7.227 24.162 1.206 14.421-6.655 1.352-7.771s-18.479-17.129-30.421-17.615z" fill="#6b8ad6"/><path d="m163.322 44.909-2.478 19.843 12.392 14.181 8.455-.823 4.829-16.189 6.895-6.169-2.956-4.429z" fill="#c44b4b"/><path d="m155.886 75.103-7.886 23.845 8.788 9.132h18.026l23.798-6.655-12.092-10.574-5.337-10.494z" fill="#f97373"/><path d="m152.206 82.199-5.272 17.448 2.636 13.085-14.864 1.127-16.449-19.653 3.155-12.007z" fill="#fff"/><path d="m222.859 414.02 23.91 48.997 63.647 9.837-6.375-17.888-24.745-36.153z" fill="#f97373"/><path d="m102.909 414.02 9.534 13.777h37.038l10.156-8.984-5.358-9.854-13.653-6-26.992-1.34z" fill="#8fdd7c"/><g fill="#a1d0ff"><path d="m76.03 380.324c-4.934-8.092-9-16.843-10.71-26.164l-4.168-1.808a174.156 174.156 0 0 0 -26.264 23.2 5.026 5.026 0 0 0 -1.224 1.794 4.39 4.39 0 0 0 .293 2.818c1.92 5.157 6.518 8.871 11.383 11.443a46.44 46.44 0 0 0 20.7 5.354 18.608 18.608 0 0 0 7.992-1.259 8.576 8.576 0 0 0 5.114-5.944c.612-3.338-1.346-6.538-3.116-9.434z"/><path d="m455.657 442.724a27.357 27.357 0 0 0 -7.391-11.875c-4.967-4.667-11.481-7.3-17.957-9.422-7.063-2.318-14.738-4.161-21.851-2 0 0-8.94 12.86-8.918 19.776.015 4.66 2.149 9.06 4.714 12.951 2.392 3.628 5.413 7.134 9.52 8.554a24.191 24.191 0 0 0 7.355.939c8.178.2 16.385.392 24.517-.5a5.026 5.026 0 0 0 4.666-2.677q2.179-3.177 4.133-6.5a12.92 12.92 0 0 0 1.751-4.023 10.993 10.993 0 0 0 -.539-5.223z"/><path d="m156.813 450.658c-1.48-1.655-8.015-5.635-9.371-6.46a13.042 13.042 0 0 0 -3.891-1.812 4.413 4.413 0 0 0 -4.029.932l-.936 1.068c-1.184 3.952-.986 8.168-.776 12.288a16.868 16.868 0 0 0 1.236 6.61c1.619 3.322 5.262 5.223 8.881 5.969a6.877 6.877 0 0 0 2.971.1c2.315-.552 6.134-7.96 6.852-9.415a11.342 11.342 0 0 0 1.2-3.2 7.65 7.65 0 0 0 -2.137-6.08z"/></g><path d="m176.716 461a3.6 3.6 0 0 0 -1.53-2.616c-.453-.222-10.528.712-10.528.712-3.058 1.167-6.1 2.8-7.931 5.518s-2.043 6.732.259 9.059c1.926 1.946 17.615 2.037 18.942.957 1.899-1.55 1.299-11.387.788-13.63z" fill="#f97373"/><path d="m463.141 384.37a49.3 49.3 0 0 0 -3.444-12.314q-2.571-6.64-5.57-13.1c-1.991-4.291-4.166-8.582-7.391-12.042s-7.669-6.037-12.4-6.051c0 0-20.019 17.193-26.21 26.514-3.264 4.914-6.121 10.586-5.45 16.447.664 5.8 4.781 10.773 9.753 13.84s10.751 4.516 16.457 5.767c5.672 1.245 11.491 2.343 17.257 1.658s11.558-3.422 14.623-8.354a19.469 19.469 0 0 0 2.375-12.365z" fill="#c4a6f4"/><path d="m103.78 449.524a11.132 11.132 0 0 0 -2.729-2.971 7.608 7.608 0 0 0 -5.593-.878c-1.9.361-8.906 12.729-9.243 18.328-.131 2.178-.053 4.531 1.238 6.29a6.819 6.819 0 0 0 5.735 2.475 14.717 14.717 0 0 0 6.161-1.9c4.259-2.2 8.4-5.823 8.753-10.6.298-3.932-2.034-7.532-4.322-10.744z" fill="#8fdd7c"/><path d="m247.169 466.653a39.64 39.64 0 0 0 -4.311-9.466 13.355 13.355 0 0 0 -8.293-5.873s-6.91 3.621-8.037 5.675c-1.485 2.705-2.919 5.619-2.783 8.7.189 4.3 3.594 8.029 7.665 9.416s8.621.721 12.578-.963c1.562-.665 3.191-1.635 3.709-3.252a6.785 6.785 0 0 0 -.528-4.237z" fill="#c4a6f4"/><path d="m374.878 459.7c-.512-2.729-1.066-5.557-2.7-7.8-2.928-4.017-13.462-4.9-13.462-4.9-3.723.646-6.753 3.359-9.107 6.315a18.511 18.511 0 0 0 -3.615 6.588 9.269 9.269 0 0 0 .86 7.3 9.484 9.484 0 0 0 6.17 3.913 21.583 21.583 0 0 0 7.467-.073 61.408 61.408 0 0 0 10.206-2.414 7.577 7.577 0 0 0 3.291-1.778c1.703-1.822 1.352-4.693.89-7.151z" fill="#8fdd7c"/><path d="m84.479 435.687c-.874-2.519-2.97-4.385-4.984-6.131l-13.813-11.98c-1.884-1.634-3.854-3.316-6.259-3.975a15.765 15.765 0 0 0 -6.236-.058 126.9 126.9 0 0 0 -23.935 5.584s-6.426 19.246-.875 53.52a365.45 365.45 0 0 0 49.47-3.964 6.038 6.038 0 0 0 2.245-.644c1.58-.943 1.962-3.023 2.185-4.85q1.266-10.37 2.445-20.748a15.346 15.346 0 0 0 -.243-6.754z" fill="#a1d0ff"/><path d="m396.818 421.959a12.137 12.137 0 0 0 -2.236-4.267 39.807 39.807 0 0 0 -4.3-4.509l-7.83-7.394s-3.85 7.36-5.415 10.732c-1.835 3.955-3.7 8.016-4.045 12.362a10.285 10.285 0 0 0 .8 5.358c1.532 3.11 5.055 4.644 8.373 5.645 2.007.6 4.18 1.1 6.17.446 2.777-.917 4.362-3.76 5.685-6.367 1.907-3.752 3.864-7.937 2.798-12.006z" fill="#f97373"/><path d="m164.692 159.96 3.211 14.182 20.276 6.537-4.931 41.67 1.851 25.032-6.736 2.619 4.885 13.282-.653 14.452 9.514 13.4 15.857 7.835h13.25v-28.527s1.561-11.307-3.186-21.755v-41.463l61.53 1.959 62.684-30.062v-28.314l-3.691-4.635-23.08 13.788-27.27 6.994-42.117 3.856-35.143-2.278-40.737-10.607z" fill="#f7978d"/><path d="m358.407 90.676a41.718 41.718 0 0 1 -21.935 6.866l-6.441 9.738 16.029.8 14.421-6.655 1.352-7.771s-1.302-1.205-3.426-2.978z" fill="#445daa"/><path d="m271.315 70.583a23.5 23.5 0 0 0 .064-3.1c-11.074 13.965-15.16 6.426-15.16 6.426l-7.478-12.535-1.931 1.277-3.41 32.574 10.92 1.274s15.862-13.737 16.995-25.916z" fill="#445daa"/><path d="m236.932 50.877c-4.622 8.323-15.716 12.623-15.716 12.623l12.837 13.808c-9.817 4.966-19.635 8.206-29.456 8.484l-22-1.047 6.814 9.462 9.2 7.219 17.846-2.477 26.943-4.743 3.409-35.035-4.5-6.036z" fill="#668dd3"/><path d="m204.771 84.484.993-17.168c7.341-5.373 10.675-10.957 8.024-16.857-8 .057-18.022 5.577-28.823 13.174l-4.193 18.541c11.283 4.745 23.999 2.31 23.999 2.31z" fill="#fff"/><path d="m186.52 90.851-5.337-10.494-.771-.161c1.386 18.583-23.769 19.451-23.769 19.451v8.283l.145.15h18.026l23.8-6.655z" fill="#c44b4b"/><path d="m321.9 60.936-41.36-.046 4.286 19.871s1.543 1.45 11.753-4.61c7.106-4.219 18.817-10.936 25.283-14.632z" fill="#fff"/><path d="m279.673 103.159 39.368 4.921.705-11.638-37.632-11.333-12.79 14.813z" fill="#4c9e5e"/><path d="m321.9 60.936-12.841-.014c7.01 29.748-17.229 30.669-17.229 30.669l4.366 13.633 22.847 2.856z" fill="#4c9e5e"/><path d="m134.706 113.859 14.864-1.127-2.636-13.085 1.728-5.72c-8.367 6.256-22.356-5.625-22.852-6.169l-4.294 10.342z" fill="#c0cddd"/><path d="m155.886 75.1-3.856 11.665c3.088 2.778 6.814 3.718 12.158 1.679a10.849 10.849 0 0 0 7.14-10.134z" fill="#fff"/><path d="m163.322 44.909-1.775 14.211a10.345 10.345 0 0 0 11.759-.891 23.172 23.172 0 0 0 7.456-9.2z" fill="#f97373"/><path d="m149.481 427.8 10.156-8.985-5.358-9.854-5.873-2.581c-6.807 10.235-18.491 17.351-26.478 21.42z" fill="#4c9e5e"/><path d="m119.959 411.7 20.667-8.738-26.992-1.34-10.725 12.4 9.534 13.778h13.2l-.147-8.985s-2.527-3.249-5.537-7.115z" fill="#fff"/><path d="m65.32 354.16-.121-.052-7.5 23.075c8.388 4.388 6.559 13.43 4.091 19.475 1.412.16 2.83.274 4.251.3a18.608 18.608 0 0 0 7.992-1.259 8.576 8.576 0 0 0 5.114-5.944c.612-3.337-1.35-6.537-3.116-9.433-4.931-8.09-9-16.841-10.711-26.162z" fill="#668dd3"/><path d="m33.54 378.2 20.9-1.631 10.845-25.269-4.517-.611s-21.635 14.065-27.228 27.511z" fill="#fff"/><path d="m460.894 396.524v-.024l-4.57-10.2h-9.359a13.853 13.853 0 0 1 -13.165-18.272 185.209 185.209 0 0 0 6.4-25.861 14.6 14.6 0 0 0 -5.863-1.307s-20.019 17.193-26.21 26.514c-3.264 4.914-6.121 10.586-5.45 16.447.664 5.8 4.781 10.773 9.753 13.84s10.751 4.516 16.457 5.767c5.672 1.245 11.491 2.343 17.257 1.658 5.848-.696 11.72-3.499 14.75-8.562z" fill="#876cbc"/><path d="m243.988 474.144c1.562-.665 3.191-1.635 3.709-3.252a6.785 6.785 0 0 0 -.528-4.239 39.64 39.64 0 0 0 -4.311-9.466 13.355 13.355 0 0 0 -8.293-5.873 46.865 46.865 0 0 0 -6.866 4.379q.617.256 1.229.551a8.213 8.213 0 0 1 1.562 13.756c-1.128.918-2.276 1.753-3.4 2.5a12.1 12.1 0 0 0 4.319 2.605c4.072 1.388 8.622.723 12.579-.961z" fill="#876cbc"/><path d="m448.7 460.279a6.621 6.621 0 0 0 1.608-1.8q2.179-3.177 4.133-6.5a12.92 12.92 0 0 0 1.751-4.023 10.993 10.993 0 0 0 -.539-5.226 27.357 27.357 0 0 0 -7.391-11.875c-.147-.139-.309-.259-.459-.395l-1.092.35-20.044 17.953 3.271 13.676s7.572-.393 15.7-1.281a6.593 6.593 0 0 0 3.062-.879z" fill="#668dd3"/><path d="m408.458 419.428a88.459 88.459 0 0 0 -5.558 9.372c4.5 3.086 11.108 5.82 17.281 1.519a11.813 11.813 0 0 0 5.363-10.319c-5.667-1.507-11.544-2.256-17.086-.572z" fill="#fff"/><path d="m396.818 421.959a12.137 12.137 0 0 0 -2.236-4.267 39.807 39.807 0 0 0 -4.3-4.509l-7.83-7.394s-.516.987-1.244 2.4a20.48 20.48 0 0 1 3.823 12.7c-.556 8.542-7.929 9.756-12.073 9.758a8.955 8.955 0 0 0 .838 3.6c1.532 3.11 5.055 4.644 8.373 5.645 2.007.6 4.18 1.1 6.17.446 2.777-.917 4.362-3.76 5.685-6.367 1.903-3.758 3.86-7.943 2.794-12.012z" fill="#c44b4b"/><path d="m304.041 454.966-27.536-37.878-1.051 25.865c1.168 16.394 1.414 20.4 7.453 24.1a41.2 41.2 0 0 0 4.151 2.192l23.358 3.61z" fill="#c44b4b"/><path d="m225.628 414.708c-.257-.819 41.009 43.148 41.009 43.148l-19.827 1.384s-15.296-25.774-21.182-44.532z" fill="#c44b4b"/><path d="m242.565 434.144c13.529.212 23.3-5.216 28.605-17.366l-46.492-4.343z" fill="#fff"/><path d="m158.946 456.736a7.65 7.65 0 0 0 -2.133-6.078 39.528 39.528 0 0 0 -5.938-4.322c-1.351 10.184-8.034 13.034-12.771 13.752a11.093 11.093 0 0 0 .942 3.2c1.619 3.322 5.262 5.223 8.881 5.969a6.877 6.877 0 0 0 2.971.1c2.315-.552 6.134-7.96 6.852-9.415a11.342 11.342 0 0 0 1.196-3.206z" fill="#668dd3"/><path d="m79.5 429.556-13.813-11.98c-1.884-1.634-3.854-3.316-6.259-3.975a10 10 0 0 0 -2.248-.33c-1.053 2.04-2.822 7.836 3.593 17.545 7.586 11.48-4.846 30.279-33.929 29.872.355 3.754.855 7.742 1.538 11.959a365.45 365.45 0 0 0 49.47-3.964 6.038 6.038 0 0 0 2.245-.644c1.58-.943 1.962-3.023 2.185-4.85q1.266-10.37 2.445-20.748a15.346 15.346 0 0 0 -.243-6.754c-.879-2.519-2.975-4.387-4.984-6.131z" fill="#668dd3"/><path d="m56.063 413.272c-.96.034-1.925.145-2.876.271a126.9 126.9 0 0 0 -23.935 5.584s-2.214 6.644-2.919 19.061l3.729 23.061 6.606-17.872a16.189 16.189 0 0 1 8.332-9.054l13.962-6.523z" fill="#fff"/><path d="m338.553 146.172-23.08 13.788-12.251 3.14a21.331 21.331 0 0 1 2.685 4.253c2.983 6.428-1.315 13.637-8.27 15-58.218 11.367-109.458-1.671-109.458-1.671l-1.2 10.155 14.3 8.217-2.661 15.966 1.462 37.232 5.995 4.589-7.457 11.256 1.462 21.026-1.249 5.328 9.141 4.517h13.25v-28.526s1.561-11.307-3.186-21.755v-41.463l61.53 1.959 62.684-30.062v-28.314z" fill="#ed5668"/><path d="m157.753 227.162c-1.873-1.378-4.621-.942-6.925-.3-19.968 5.6-50.229 29.594-56.211 68.871-.617 4.047-1.718 8.7 1.353 11.683 2.427 2.358 6.57 2.714 9.9 1.59a20.914 20.914 0 0 0 8.293-5.912c4.628-4.921 8.262-10.535 11.87-16.116l18.488-28.6c4.811-7.441 9.633-14.9 13.475-22.8 1.352-2.762 2.351-6.507-.243-8.416z" fill="#fff4f5"/></g><g id="Layer_5" fill="#3a3245" data-name="Layer 5"><path d="m27.984 477.44c15.18-1.249 30.392-2.289 45.571-3.63 9.585 5.19 15.468 7.532 25.428 1.542 5.713-2.5 15.35-9.04 13.135-18.024-3.766-11.742-10.818-20.14-24.118-12.341.386-4.617 2.292-10.366-2.374-13.3-6.811-6.061-13.6-12.15-20.415-18.2-4.7-5.447-7.72-4.545-13.922-2.526-8.339 1.993-16.718 3.842-25.028 5.954a3.126 3.126 0 0 0 -3.432 3.3q.864 26.882 1.689 53.764c.051 1.751 1.549 3.621 3.466 3.461zm64.016-24.64c7.228-14.319 22.283 12.482 4.215 15.39-7.868.499-5.681-10.639-4.215-15.39zm-12.857 10.554c-2.058-.923-3.967-2.171-6-3.173.145-6.424 1.546-12.846 1.379-19.285a16.645 16.645 0 0 0 6.553-.444c-.66 7.633-1.253 15.272-1.932 22.902zm-1.818-29.465c-8.261 1.2-16.854-6.309-16.731-15.076q8.355 7.55 16.731 15.076zm-23.354-16.469a18.307 18.307 0 0 0 1.381 8.5c-3.656 1.554-7.312 3.128-10.893 4.845-2.783 1.334-.821 6.084 2.119 5.026 3.9-1.4 7.748-2.974 11.58-4.554a20.445 20.445 0 0 0 8.755 7.424c2.454 5.679.074 12.283-.067 18.178-4.024-2.2-8.041-4.667-12.328-6.272-2.035-.762-3.874 2.338-2.166 3.721a48.462 48.462 0 0 0 5.912 4.009c-9.043-.444-17.213 3.6-24.514 8.017 1.715-7.206 4.109-14.012 6.037-21.124 1.618 2.938 6.022 1.067 4.555-2.1-3.815-7.069-8.163-13.825-12.006-20.886 7.224-1.53 14.429-3.166 21.635-4.784zm-18.228 23.015a80.049 80.049 0 0 0 -4.987 12.742q-.351-10.665-.694-21.329a80.376 80.376 0 0 0 5.681 8.587z"/><path d="m162.549 452.193c-25.3-19.72-29.815-21.224-30.954 14.63a3.351 3.351 0 0 0 2.456 3.226q8.1 1.284 16.2 2.549c1.615 6.664 9.82 6.949 15.372 6.956 4.52.123 12.219 1.228 15.284-3.164 1.59-2.278 1.29-5.612.376-8.9-.781-11.872-7.949-15.106-18.465-10.523.816-1.438 1.182-3.582-.269-4.774zm-11.491 12.832c-2.437-.619-5.572-1.192-7.77-2.538a15.471 15.471 0 0 1 6.871-4.221c2.183-.817 2.115-4.64-.6-4.405-3.364.236-6.5 1.156-8.937 3.577.027-3.817.739-7.584 1-11.378a41.652 41.652 0 0 1 14.551 9.311 88.964 88.964 0 0 1 -5.115 9.654zm19.973-3.773c2.731.053 2.557 3.146 2.961 5.128 5.359 11.869-22.5 5.305-11.947-2.856 2.961-1.182 6.037-2.338 8.986-2.272z"/><path d="m359.256 444.284c-5.372.891-8.776 4.37-11.749 8.728-12.307 18.034.036 22.1 4.194 22.85 5.987 1.635 26.623-2.744 27.841-9.567-.38-3.47-4.46-16-6.085-18.5-2.933-4.522-9.507-4.29-14.201-3.511zm12.1 21.408a19.209 19.209 0 0 0 -6.649-4.766 17.433 17.433 0 0 0 1.308-3.441c.756-2.92-3.764-5.109-5.069-2.137-2.467 6.834-5.854 8.136-12.377 9.717 1.721-7.917 7.994-16.3 16.707-14.568 5.219 1.11 5.1 10.392 7.58 14.564q-.751.317-1.504.631z"/><path d="m44.511 395.747c2.965 3.355 6.954 4.042 11.193 4.094 6.709.709 13.652 2.048 20.4 2.136a7.346 7.346 0 0 0 4.7-1.625c2.615-1.71 6.514-3.287 8.992-5.568a128.183 128.183 0 0 0 14.876 12.439c-5.281 4.275-4.279 10.764.284 15.168 3.481 4.272 6.073 8.649 11.889 9.293 4.2.465 8.448.557 12.665.714 7.735-.094 16.483 3.259 23-2.469 26.377 8.363 54.167 13.111 81.716 15.541.4.851.8 1.69 1.185 2.548a19.4 19.4 0 0 0 -13.445 11.41c-2.01 4.946-3.925 14.9 1.906 17.948 4.971 4.008 16.025 3.651 20.969 2.041 5.691-.31 9.923-6.071 11.234-11.826 18.2 5.36 37.546 7.022 56.388 8.067 3.333.185 4.081-3.751 2.286-5.689a162.881 162.881 0 0 0 -13.649-26.445 187.373 187.373 0 0 0 71.454-28.072c-2.578 5.738-7.746 14.744-3.894 20.833 6.392 5.046 16.723 11.22 24.518 6.3-2.973 9.4 5.071 18.864 13.739 21.378 4.064 2.224 9.5 1.548 14.032 1.7 5.76.191 11.653.586 17.4.091 9.831-.846 15.875-6.082 21.591-13.7a3.679 3.679 0 0 0 .886-3.084c-1.656-7.586-4.687-25.532-12.164-28.779-6.026-2.226-13.716-2.192-20.068-3.115-8.4-1.181-19.887-6.15-25.21 3.386-3.557-6.341-10.628-11.331-16.487-15.443a130.541 130.541 0 0 0 14.674-13.854c8.331 14.591 24.134 17.352 39.512 17.163 11.649-.182 22.332-.528 25.991-13.663 3.271-5.3 11.183-13.145 9.972-19.485-5.373-9.456-14.955-17.286-23-24.5 8.042-8.1.42-22.4-4.3-30.475-4.014-6.87-12.916-3.474-20.02 1 2.969-59.79-25.65-130.923-84.16-154.12a11.622 11.622 0 0 0 -1.635-6.063 1.938 1.938 0 0 0 .041-.416c3.669-5.1 3.934-13.781-2.658-16.382 24.665-21.641 51.5-44.477 54.066-78.661 4.965-30.6-6.061-48.279-38.682-45.907-23.574 1.547-42.842 15.727-61.629 28.671-6.683 4.435-13.228 9.1-21.5 8.448-2.325-3.289-3.317-9.284-8.324-8.892-5.758 1.152-10.4 6.018-15.057 9.366-2.493-6.014-10.5-7.716-15.708-10.765-7.706-5.727-16.069-2.147-23.946 1.131-3.818 1.389-7.6 2.876-11.353 4.422-3.705-4.11-11.03-4.972-16.157-6.294-6.513-1.678-13.349-4.241-20.07-4.678a3.34 3.34 0 0 0 -3.216 2.449c-.767 4.559-1.641 9.586-2.109 14.643-20.98-5.957-46-12.129-64.346 2.734-13.076 10.26-17.471 29.859-7.034 43.809 15.888 26.184 44.661 40.6 72.016 51.992-3.666 5.093-1.917 13.952 2.421 19.473-2.4 7.252-11.748 8.978-17.007 13.853-49.379 37.296-101.619 89.676-81.956 157.082a169.947 169.947 0 0 0 -32.714 30.043c-4.724 5.716 11.969 14.846 15.502 18.604zm404.272 51.338a18.826 18.826 0 0 0 3.413-4.765c.572 2.27 1.053 4.56 1.482 6.864-2.615 3.493-5.625 7.075-9.8 8.672a45.621 45.621 0 0 1 -2.692-6.234 18.272 18.272 0 0 0 7.597-4.537zm-11.9 9.715c.25.749.5 1.56.821 2.338a188.836 188.836 0 0 1 -26.211-.885c1.446-2.511 2.99-4.928 4.18-7.562 6.537 1.343 13.372 2.4 20.07 1.959a28.393 28.393 0 0 0 1.143 4.15zm-30.7-27.957c1.871-2.469 3.062-6.3 6.368-7.133 5 .082 10.391 1.852 15.45 2.264 8.492 5.074 8.515 17.973-1.773 20.181-2.46.591-5.281-.2-7.617.589-8.063-.584-15.111-7.852-12.427-15.901zm16.694-66.843c3.682-5.527 8.647-8.655 14.252-11.749 12.878 3.685 14.372 16.11 6.744 25.742-5.773 7.528-15.177 8.858-23.412 5.235-4.161-5.968-1.226-13.765 2.416-19.228zm-3.372 33.473c.928-1.61 1.991-3.226 2.777-4.934 8.79 1.754 18.1 3.8 26.61.544a33.341 33.341 0 0 0 4.485 9.346c-12.077 2.071-24.006 1.571-35.309-2.529.492-.807.969-1.62 1.437-2.432zm-7.863-17.518c1.015 3.582 2.4 6.936 4.9 9.46-1.263 2.346-2.119 4.89-3.335 7.24a58.318 58.318 0 0 1 -7.442-8.441 93.665 93.665 0 0 0 5.877-8.264zm-341.693 16.295c-5.311-.7-10.332-.469-15.51-1.517 1.2-4.159 2.122-8.356 3.31-12.512 5.165.489 10.224 1.525 15.385 2.024 2.555 4.491 1.043 9.908-3.185 12.005zm72.873 15.622a31.05 31.05 0 0 0 -2.7 3.534 119.058 119.058 0 0 0 -16.256-.515 44.573 44.573 0 0 0 -4.433-4.607c-1.754-1.68-4.858.5-3.46 2.67.907 1.454 1.794 2.9 2.775 4.314-1.791 2.544-3.644 5.133-5.2 7.855-2.609-2.595-6.495-7.55-5.506-10.185.563-1.5 3.637-3.5 4.816-4.625 1.358-1.294 2.759-3 4.71-3.4 9.205.625 18.618.506 27.814 1.424q-1.252 1.79-2.56 3.535zm9.828 12.578a59.418 59.418 0 0 1 -6.918-7.052c1.338-2.159 2.533-4.234 3.725-6.439 1.841 1.708 5.943 4.924 6.947 7.667a16.746 16.746 0 0 1 -3.754 5.824zm88.85 49.282a17.435 17.435 0 0 1 -1.819 1.342c-2.067.011-4.465.273-6.463-.59 1.44-2.21 3.28-4.052 4.712-6.25 1.232-1.873-1.282-4.544-3.175-3.174a28.266 28.266 0 0 0 -6.013 6.569c-4.209-4.94 1.208-12.414 6.111-14.36 4.464 4.277 10.091 10.015 6.647 16.463zm5.961-15.308c-5.548-8.1-8.651-17.823-13.1-26.58a313.14 313.14 0 0 0 24.822 24.229c-3.858.932-7.956 1.185-11.721 2.351zm25.65-24.49c-.065.85-.159 1.638-.267 2.4-8.469-4.007-16.944-8-25.613-11.561-2.363-.972-3.928 2.9-1.727 4.1 6.588 4.136 14.557 6.184 20.414 11.33 5.614 5.1.207 10.9-6.091 8.409-9.958-9.562-19.112-19.755-28.613-29.768 14.019 1.4 28.215 2.1 42.176 3.806-.103 3.758.01 7.526-.278 11.284zm31.057 30.313q1.15 2.212 2.262 4.449c-5.149-1.158-10.286-2.412-15.3-4.041-11.1-8.535-12.244-24.433-11.738-37.573a183.812 183.812 0 0 1 18.43 25.752c-3.581-2.729-7.171-5.482-10.962-7.889-2.1-1.331-4.526 1.762-2.67 3.46 6.191 5.659 13.91 10.025 19.979 15.842zm84.714-46.92c5.231 4.419 1.467 12.9-2.077 17.3-5.143 4.318-12.189-1.334-11.14-7.669a73.269 73.269 0 0 1 7.54-14.356 43.569 43.569 0 0 1 5.678 4.725zm-61.657-330.456q2.551-1.414 5.141-2.764l19.5 8.942c-2.775 1.522-6.165 2.166-8.135 4.781-1.58 6.182 7.01 1.767 9.658.815q-.17 1.839-.287 3.68a74.58 74.58 0 0 1 -17.968 4.876c1.322-3.128 6.622-6.809 3.8-10.26-3.667-3.032-7.591-7.292-11.836-10 .042-.02.085-.047.127-.07zm-3.565 5.176a93.693 93.693 0 0 0 9.051 7.633c-1.649 2.484-3.317 4.893-5.017 7.358-6.687-.845-4.339-10.244-4.034-14.991zm-15.289-25.295c-5.406 3.7-10.988 6.96-15.922 11.267-2.159 1.866.591 5 2.926 3.791 7.408-4.088 14.45-8.579 21.82-12.8q-1.608 12.663-3.072 25.344c-7.659-1.912-15.688-5.612-23.353-6.943-2.748-.625-4.851 3.49-2.022 4.8 1.263.584 2.577 1.166 3.911 1.745a1.742 1.742 0 0 1 .1.208c-4.676 5.478-12.7 9.414-19.778 6.49 4.75-5.6 9.529-11.018 14.143-16.588 1.162-1.87.846-2.38.291-4.633-.882-3.584-1.625-7.259-2.62-10.824q11.788-.934 23.576-1.857zm-28.305 5.11a86.814 86.814 0 0 0 2.048 9.373c-2.3 2.527-4.728 5.048-7.133 7.611-3.838 1.568-5.921 2.6-10.215 4 5.474-6.659 10.422-13.899 15.3-20.984zm-29.21.3a58.156 58.156 0 0 0 4.344 6.538c1.781 2.275 4.612-.634 3.669-2.831a86.376 86.376 0 0 0 -6.038-10.693c3.455-2.775 7.145-5.884 11.26-7.427a3.112 3.112 0 0 0 1.034.706c6.877 11.973-2.491 30.45-15.13 33.752q.705-10.002.861-20.044zm-58.137-7.9a206.768 206.768 0 0 1 31.539-11.746c2.561-.35 4.438 1.078 6.587 2.212 3.991 2.532 10.05 3.64 12.556 7.852-2.036 4.225-5.311 7.6-8.781 10.739-3.334-2.4-6.192-4.451-9.345-7.077a30.9 30.9 0 0 0 2.676-1.971c2.62-2.158-.729-5.417-3.323-4.306-5.906 2.528-11.545 5.169-17.948 6.206-1.215-.152-15.024 3.329-13.961-1.912zm24.6 24.57a43.024 43.024 0 0 0 14.835-5.889 21.221 21.221 0 0 0 2.88 11.436 121.433 121.433 0 0 0 -20.876 1.83c-.346-1.7-1.651-3.006-2.679-4.42-4.51-5.267-3.132-12.894-3.514-19.369a47.434 47.434 0 0 0 11.5-3.1c3.022 3.065 6.4 5.093 9.408 8.02-4.363 2.5-9.031 4.214-13.77 6.224-3.216 1.358-.748 5.785 2.217 5.265zm-27.509-16.932c4.03 1.346 9.04 1.276 12.775 1.054a49.108 49.108 0 0 0 -.448 11.084c-8.148.993-12.791-3.152-12.724-11.516a3.593 3.593 0 0 1 .397-.622zm.02 19.1a67.921 67.921 0 0 0 13.585-.186 22.53 22.53 0 0 0 3.409 6.78q-3.608.75-7.2 1.606a104.1 104.1 0 0 1 -11.42-8.306c.579.036 1.129.068 1.626.106zm-24.282-40.039c7.215 2.262 14.638 3.469 21.835 5.625a12.944 12.944 0 0 0 .8 2.073c-1.661 1.059-4.06 1.544-5.192 3-2.463 3.907-3.657 8.536-4.944 13.248-13.16-2.585-14.763-12.307-12.499-23.946zm-11.606 39.806c.872-2.724 1.844-5.409 2.883-8.071a96.072 96.072 0 0 1 20.359 3.094c.623 6.964 8.129 11.574 13.275 15.719-6.306 1.66-12.593 3.412-18.9 5.048-.918-1.67-2.705-2.874-4.061-4.2a38.63 38.63 0 0 0 7.645-3.065c2.907-1.576.914-6.123-2.227-5.283-6.715 2.067-13.678 3.767-20.713 2.691.687-1.925 1.11-3.966 1.739-5.933zm-15.017 3.919c-2.787-1.478-5.486-3.012-8.172-4.6 5.391-.758 10.807-.037 16.181.428-.315 1.371-.92 2.634-1.283 4.024-2.958 5.291-6.232 11.815-2.085 17.575-12.408.523-12.318-7.891-15.762-17.19a28.7 28.7 0 0 0 9.231 4.245c2.622.65 4.422-3.14 1.89-4.482zm10.515 52.757c-17.906-8.179-35.8-18.086-48.855-33.129 38.225 15.863 81.568-7.817 121.348-12.593 24.016-3.478 46.805 5.481 70 10.038 32.285 6.922 69.754 2.742 92.1-23.968-7.085 19.272-24.213 32.822-39.5 47.15-11.421 10.174-23.3 20.351-37.981 25.378-27.053 9.857-13.555-10.194-.471-18.583 5.476-3.8 11.475-6.421 17.521-9.147 3.142-1.417.845-6.092-2.263-5.369-30.31 6.045-40.036 43.82-72.067 42a33.792 33.792 0 0 0 6.371-13.5 2.622 2.622 0 0 0 -4.77-2.011c-2.969 5.3-5.1 11.414-9.769 15.509-6.551-.056-13.365-1.734-18.039-6.563-5.639-8.841-11.627-16.6-17.67-24.88-1.694-2.238-3.632-5.757-6.173-7.125-5.172-2.784-8.576 2.7-8.6 7.282a17.127 17.127 0 0 0 8.912 15.188c2.709 1.535 5.957-2.294 3.437-4.454a15.024 15.024 0 0 1 -5.347-10.1 351.931 351.931 0 0 1 20.6 29.172c-24.364-2.3-46.918-10.131-68.784-20.295zm46.4 117.722c-6.191 1.109-18.808-5.876-13-12.772a32.785 32.785 0 0 0 16.812 7.622c1.406 2.851-.911 4.707-3.816 5.15zm-6.205 22.777c-4.637-3.919-5.266-11.871-3.888-17.848a21.549 21.549 0 0 0 9.871 2.068 29.132 29.132 0 0 1 1.82 7.526c.252 3.967-1.921 13.227-7.807 8.254zm-3.115-110.184a77.976 77.976 0 0 1 -15.906-8.006 10.729 10.729 0 0 1 -.17-5.143 140.9 140.9 0 0 0 15.22 4.565 21.126 21.126 0 0 0 .856 8.584zm9.517 27.386a17.54 17.54 0 0 1 -6.751-7.736q.477-5.58 1.012-11.118a49.729 49.729 0 0 1 7.246 2.411c-1.144 5.292-1.286 11.08-1.507 16.443zm.368 47.248a29.226 29.226 0 0 1 -7.689-3.609c-.487-4.719-.777-9.464-.9-14.225 2.021 2.336 4.937 4.9 8.013 5.863.145 3.993.257 7.988.576 11.971zm-.66-40.247q-.344 10.491-.1 20.992c-10.139-5.248-7.642-17.127-7.074-26.512a19.48 19.48 0 0 0 7.174 5.52zm2.967-30.716c-1.19-.288-2.377-.6-3.56-.921-2.8-2.542-3.14-6.418-3.547-9.976 8.264 1.746 16.479 3.172 24.841 4.175a18.129 18.129 0 0 0 4.77 10.417 169.676 169.676 0 0 1 -22.504-3.695zm9.448 50.252c-2.622-1.244-4.465-3.868-5.56-6.417.067-2.755.171-5.511.37-8.247 2.381 2.5 3.51 5.707 5.176 8.777.008 1.989-.005 3.887.014 5.887zm-5.757 3.4a16.074 16.074 0 0 0 5.928 3.7 105.078 105.078 0 0 0 1.405 13.75c-8.808-.092-7.036-11.393-7.336-17.454zm7.912 37.314c-2.6.318-5.46-.843-6.388-3.407a10.745 10.745 0 0 0 3.345-6.245c3.435.563 7.811-3.278 10.148.587 2.18 4.617-2.642 8.996-7.105 9.061zm2.933 19.712c-3.589 5.111-8.325 1.5-10.331-2.786a24.074 24.074 0 0 0 1.863-10.14 15.125 15.125 0 0 0 8.566.4c1.205 4.2 2.838 8.339-.098 12.519zm1.524-93.25c-2.341-2.128-3.8-4.859-2.44-7.773a253.5 253.5 0 0 0 29.739 2.863c.116 3.455 2.1 7.343 4.015 10.085a135.947 135.947 0 0 1 -31.314-5.179zm23.916-12.435c-7.26.779-13.636-4.3-15.829-11.022a254.845 254.845 0 0 0 28.949 1.055c.564 4.153 3.442 8.027 6.24 10.369-6.475.088-12.948-.077-19.36-.406zm43.047 5.649a15.446 15.446 0 0 0 4.883 9.072 161.047 161.047 0 0 1 -31.233 3.1 17.093 17.093 0 0 1 -6.685-10.143 225.167 225.167 0 0 0 33.035-2.033zm-8.408-6.01c-6.09-.452-13.128-3.453-14.943-9.795a208.689 208.689 0 0 0 30.892-3.452 16.506 16.506 0 0 0 7.3 9.29 143.448 143.448 0 0 1 -23.249 3.953zm22.518-14.647a131.359 131.359 0 0 0 25.354-8.617 14.412 14.412 0 0 0 8.3 4.566c-6.594 5.038-14.938 8.712-21.949 11.315-5.173.903-9.63-2.917-11.705-7.268zm20.342 11.269a15.821 15.821 0 0 0 6.83 5.333 120.659 120.659 0 0 1 -27.717 11.084c-3.324-1.737-6.5-4.474-7.1-8.034a119.936 119.936 0 0 0 27.987-8.387zm5.711-2.768a84.484 84.484 0 0 0 16.5-10.957c1.118 5.261-4.074 11.062-8.367 14.375a12.3 12.3 0 0 1 -8.131-3.422zm15.05-20.054c-.45.639-.939 1.258-1.45 1.867-3.266.511-6.631.288-8.984-1.624 3.32-1.644 6.2-4.04 9.324-5.965 1.641-.969 2.294-2.295 3.187-.262.836 1.904-1.041 4.51-2.077 5.98zm-262.8 118.2c21.206-39.508 41.544-55.128 67.536-75.954 11.8-9.243 28.08-22.038 41.289-8.231a298.089 298.089 0 0 0 -1.085 51.537c-10.088 1.739-8.856 16.219-1.815 21.067-7.237 12.629 3.47 31.445 17.807 32.411 2.732 7.848 13.289 11.108 20.673 6.9 9.821-5.943 9.965-19.128 8.391-29.468 7.2-6.2 3.733-16.68-.413-23.636-6.725-11.644-4.058-23.987-1.295-36.265 7.324-.148 14.628 2.393 21.83 3.78a151.431 151.431 0 0 0 29.847 2.713c5.76 16.4 7.425 33.79 7.762 51.075.117 3.435 4.838 3.268 5.219 0 1.939-16.644-.552-34.921-6.256-51.277a158.124 158.124 0 0 0 32.867-5.317c3.526 3.269 6.137 7.252 9.358 10.776.952 3.461 5.952 1.9 5.382-1.566a40.461 40.461 0 0 0 -4.37-12.358c10.076-3.408 21.168-8.246 31.408-2.732 19.124 11.67 28.222 34.346 34.1 55.011 23.081 76.265-15.64 155.163-96.085 171.806-5.535-6.635-13.174-20.823-21.866-22.082-17.078-2.149-34.305-2.827-51.386-4.956-2.834-.347-3.766 3.035-2.9 5.05q5.139 11.925 10.6 23.709a383.285 383.285 0 0 1 -71.346-13.437c7.639-4.939 2.858-12.365-2.2-17.029-3.711-3.754-6.5-7.405-12.013-7.812-8.692-.64-17.5-1.036-26.208-1.25-3.923-.1-6.518 1.467-9.04 3.682-40.539-26.048-57.139-82.714-35.792-126.154zm-10.2 88.4a60.4 60.4 0 0 0 4.21 10.032 63.056 63.056 0 0 0 -8.234-.753c1.208-3.148 2.576-6.232 4.019-9.285zm-3.175-7.99c-2.747 5.575-5.6 11.359-7.862 17.3a89.926 89.926 0 0 0 -12.387 1.072 158.951 158.951 0 0 1 20.244-18.378zm-9.973 23.536a54.1 54.1 0 0 0 -2 10.467c-3.123-2.63-7.379-5.863-10.711-8.908a122.944 122.944 0 0 1 12.711-1.559z"/></g></svg>