<svg height="512" viewBox="0 0 500 500" width="512" xmlns="http://www.w3.org/2000/svg"><g id="Layer_4" data-name="Layer 4"><path d="m220.567 9.952-63.222 118.42v92.895l80.533 59.634 54.942-83.235v-102.787l-50.711-65.48z" fill="#a1d0ff"/><path d="m245.689 120.655-39.8 18.254a197.974 197.974 0 0 0 2.719 49.673c-23 18.641-46.175 14.281-46.175 14.281s1.789 13.06 4.581 29.9l70.863 48.137 54.944-83.235v-107.824z" fill="#668dd3"/><path d="m170.87 486.332 56.757 3.054 24.687-3.522 12.963-49.757 31.723-29.077 31.721-54.379 26.434-37.763 7.257-49.469s-16.2.587-21.785 11.347l2.821-43.823s-16.577-2.449-25.471 18.6l-3.567 29.357s-1.929 13.731-11.748 20.393l.756-27.324-.756-50.467s-9.473-20.015-22.485 9.818l-4.84 47.032-8.7 18.527-1.74-44.251-29.455 40.245s2.748 24.7-37.763 59.023c0 0-13.595-1.09-20.014-27.224l-15.234-38.746s-17.242-21-24.417 8.458a69.882 69.882 0 0 0 4.531 26.434l1.888 20.014-1.51 30.6 27.189 41.8s12.842 37.491.758 71.1z" fill="#ffdad2"/><path d="m298.287 271.575c1.333-3.249 2.689-6.558 4.931-9.26l.025-.027-.58-38.785s-9.475-20.015-22.486 9.818l-4.84 47.032-8.7 18.527-1.74-44.251-29.455 40.245s2.025 18.212-23.051 45.091a48.6 48.6 0 0 0 10.207.581 72.633 72.633 0 0 0 46.938-20.137c13.686-13.228 21.528-31.226 28.751-48.834z" fill="#e59e9c"/><path d="m340.625 276.766 1.063-16.516c-6.477 12.653-11.046 26.32-18.107 38.686-8.488 14.868-22.26 28.5-39.339 29.688l-.049 1.573a168.174 168.174 0 0 0 19.115 5.063 6.941 6.941 0 0 0 8.362-2.648 136.87 136.87 0 0 0 30.783-58.612 15.925 15.925 0 0 0 -1.828 2.766z" fill="#edaba6"/><path d="m355.153 314.888 7.257-49.469-.121.006c-1.8 20.7-14.564 42.855-26.024 59.533-5.817 8.465-15.065 14.341-19.8 23.458-14.756 28.436-29.411 47.864-52.536 62.734-4.423 2.845-9.075 5.361-13.214 8.606-12.872 10.091-23.092 69.63-23.092 69.63l27.454 1.477 10.2-54.756 31.723-29.077 31.721-54.379z" fill="#e59e9c"/><path d="m179.693 399.273c-4.868-9.449-12.943-16.756-19.917-24.778a117.842 117.842 0 0 1 -15.754-23.27l-1.1 22.209 27.189 41.8a133.785 133.785 0 0 1 5.923 37.926 72.526 72.526 0 0 0 6.335-14.828c3.798-12.825 3.449-27.171-2.676-39.059z" fill="#e59e9c"/><path d="m212.537 105.543a81.467 81.467 0 0 1 19.643-38.67 106.126 106.126 0 0 0 17.993-27.061l-8.064-10.412-21.542-19.448c-27.017 42.97-51.089 85.7-63.222 127.452a45.506 45.506 0 0 0 7.15 2.152 29.436 29.436 0 0 1 22.805 23.422c8.283 46.237 34.425 64.009 34.425 64.009-17.983-25.741-15.836-88.078-15.836-88.078z" fill="#fff"/></g><g id="Layer_5" data-name="Layer 5"><path d="m140.03 369.637c2.964 18.057 18.47 29.571 26.349 45.244 9.026 22.039 6.549 47.334 1.532 70.089-1 4.079 5.191 5.8 6.3 1.737 5.885-23.147 8.227-48.829.215-71.737-8.37-19.849-29.217-33.617-27.723-57.141.063-12.579 1.324-24.528-1.056-37.018-2.1-11.019-8.017-24.987 1.372-34.572 9.37-9.567 17.872 14.085 19.878 19.935 3.848 11.227 4.418 23.778 9.72 34.464 5.29 10.665 15.951 15.255 25.851 20.649 11.948 6.487 20.391 16.392 26.415 28.433a3.225 3.225 0 0 0 4.724 2.07c5.876-2.856 11.183-7.148 17.047-10.144 9.717-4.868 20.706-6.794 30.6-11.018 2.759-1.427 1.462-5.915-1.577-5.824-8.464.253-17.919 4.684-25.714 7.837-3.735 1.51-7.444 3.1-11.076 4.851-3 1.493-7.228 4.753-10.508 2.563a60.543 60.543 0 0 0 -27.887-26.569c18.052-11.342 29.509-37.264 34.973-56.428q11.961-14.593 23.507-29.539c2.925 24.737-.182 33.322-9.781 55.318q-6.378-.466-12.786-.607c-4.808-.1-4.806 7.359 0 7.469a241.574 241.574 0 0 1 67.791 11.365c6.151 2.075 24.595-33.643 28.794-39.7a63.456 63.456 0 0 0 7.828-24.3c3.423-4.5 7.65-7.91 13.418-7.4-3.517 15.418-1.906 32.184-7.934 46.895-10.82 14.947-22.79 29.358-32.287 45.316-11.055 19.7-18.678 42.177-38.5 55.153-9.643 6.41-20.233 12.75-23.563 24.629-2.012 7.18-1.639 14.949-2.618 22.305a170.074 170.074 0 0 1 -5.384 24.688c-1.1 5.564 5.809 4.775 9.385 5.153 2.687.249 3.782-2.065 3.341-4.14 4.741-16 6.107-33.1 11.223-48.956 2.774-7.046 10.89-10.806 16.309-15.608a84.615 84.615 0 0 0 14.452-16.732c8.724-13.372 13.8-28.863 22.021-42.6 8.135-14.331 19.57-26.563 28.366-40.376 4.412-5.757 6.814-12.519 7.878-20.286 1.727-12.6 4.246-25.462 4.871-38.158-.793-7.056-15.63-3.323-19.874-.533.9-10.759 1.252-21.626 1.666-32.363a3.486 3.486 0 0 0 -2.512-3.3c-8.662-2.835-17.805 1.1-23.276 8.066-11.807 15.7-4.9 38.6-15.995 54.491 2.526-13.785.718-27.983.66-41.9-.044-6.489-.021-12.978-.063-19.467.6-6.573.04-16.224-7.926-17.472 2.4-9.485 2.284-20.11 3.212-29.678 1.932-27.886 6.915-55.888 7.3-83.733-1.083-4.747-4.87-8.272-7.966-11.8q-36.928-42.126-76.381-81.939c-1.917-1.935-4.781-1.248-6.222.8a566.642 566.642 0 0 0 -55.835 99.065c-10.457 24.135-11.951 23.964-10.818 50.755.019 16.609-.629 48.562-.658 64.82 23.692 26.415 53.442 49.808 80.857 73.241-2.694 12.875-19.837 51.655-34.763 51.617-12.42-1.713-16.112-15.435-18.022-25.968-3.712-14.32-8.436-39.93-24.421-44.971-10.246-2.241-16.714 7.015-19.343 15.621-3.876 12.7 2.73 25.434 4.082 38.052 1.402 13.087-1.708 26.24.532 39.286zm177.249-84.916c5.213-15.578-.134-47.7 23.346-47.963-1.711 20.63.253 43.069-10.336 61.614-6.918 11.766-13.962 24.068-22.43 34.849q-9.73-3.042-19.664-5.251c9.005-14.861 23.685-26.312 29.084-43.249zm-37.222-5.82c1.073-12.48.968-25.075 2.611-37.528 4.811-6.309 10.229-12.857 13.473-20.084 5.985-.613 3.081 12.019 3.353 15.726.015 9.422-.076 18.852.282 28.269 2.248 30.16-3.11 36.659-17.837 61.389q-10.845-2.109-21.854-3.227c6.361-14.87 17.425-28.23 19.972-44.546zm-11.063-19.237c1.818-2.394 3.613-4.8 5.412-7.21-.786 11.871.866 24.216-3.681 35.473.447-9.405-2.025-18.873-1.731-28.263zm6.143-142.538c1.418 23.278-4.876 45.945-13.79 67.259-11.873-4.811-22.754-11.7-34.173-17.395-17.615.532 27.946 22.739 31.668 23.758-.908 2.3-1.8 4.61-2.695 6.918-14.506-7.724-32.195-13.513-42.059-27.3-4.059-6.848-4.749-14.525-4.653-22.312-.057-1.507-1.05-5.835-.23-7.571 23.662-7.264 45.39-20.075 64.868-35.123.519 3.896.89 7.818 1.064 11.766zm-57.91 130.074c-25.457-11.456-48.317-27.986-53.594-57.138-.5-12.963-3.177-27.108 1.586-39.571 2.26-4.278 8.306-4.125 12.535-4.776q8.044-1.239 16.08-2.521c4.455-.715 3.307-7.79-1.049-7.754-8.926-.279-19.153 1.587-27.643-1.432 6.624-25.5 39.726-67.091 39.726-67.091-2.722 17.642-6.045 39.318-6.445 55.1-.3 3.769 5.582 3.75 5.875 0a867.859 867.859 0 0 1 19.21-104.545c26.883 26.937 40.862 39.693 49.041 78.8-7.668 7.381-16.38 13.171-25.3 18.837-13.438 8.359-27.651 14.327-42.314 20.123a3.694 3.694 0 0 0 -2.179 2.138c-1.482 38.634 2.991 79.859 24.335 113.112a36.323 36.323 0 0 1 -9.864-3.282zm5.53-49.217a46.39 46.39 0 0 1 -9.6-17.747c12 11.272 26.318 16.582 40.4 24.113q-1.876 4.806-3.778 9.6c-10.066-3.433-19.731-7.826-27.022-15.962z" fill="#3a3245"/></g></svg>